<?xml version="1.0" encoding="UTF-8" standalone="no"?>
<!-- Created with Inkscape (http://www.inkscape.org/) -->

<svg
   xmlns:dc="http://purl.org/dc/elements/1.1/"
   xmlns:cc="http://creativecommons.org/ns#"
   xmlns:rdf="http://www.w3.org/1999/02/22-rdf-syntax-ns#"
   xmlns:svg="http://www.w3.org/2000/svg"
   xmlns="http://www.w3.org/2000/svg"
   xmlns:sodipodi="http://sodipodi.sourceforge.net/DTD/sodipodi-0.dtd"
   xmlns:inkscape="http://www.inkscape.org/namespaces/inkscape"
   width="750"
   height="500"
   id="svg3184"
   sodipodi:version="0.32"
   inkscape:version="0.47 r22583"
   version="1.0"
   sodipodi:docname="Bandera de Agrón (Granada).svg"
   inkscape:output_extension="org.inkscape.output.svg.inkscape">
  <defs
     id="defs3186" />
  <sodipodi:namedview
     id="base"
     pagecolor="#ffffff"
     bordercolor="#666666"
     borderopacity="1.0"
     gridtolerance="1"
     guidetolerance="1"
     objecttolerance="1"
     inkscape:pageopacity="0.0"
     inkscape:pageshadow="2"
     inkscape:zoom="1.152"
     inkscape:cx="375"
     inkscape:cy="250"
     inkscape:document-units="px"
     inkscape:current-layer="layer1"
     height="500px"
     width="818.18px"
     inkscape:window-width="1280"
     inkscape:window-height="774"
     inkscape:window-x="-4"
     inkscape:window-y="-4"
     showgrid="false"
     inkscape:showpageshadow="false"
     inkscape:window-maximized="1"
     showguides="true"
     inkscape:guide-bbox="true">
    <inkscape:grid
       type="xygrid"
       id="grid7135"
       visible="true"
       enabled="true"
       empspacing="5"
       snapvisiblegridlinesonly="true"
       spacingx="10px"
       spacingy="10px" />
  </sodipodi:namedview>
  <metadata
     id="metadata3189">
    <rdf:RDF>
      <cc:Work
         rdf:about="">
        <dc:format>image/svg+xml</dc:format>
        <dc:type
           rdf:resource="http://purl.org/dc/dcmitype/StillImage" />
        <dc:title />
      </cc:Work>
    </rdf:RDF>
  </metadata>
  <g
     inkscape:label="Bandera"
     inkscape:groupmode="layer"
     id="layer1"
     style="display:inline">
    <g
       id="g4427">
      <path
         id="rect3192"
         d="M 0,0 750,0 750,500 0,500 0,0 z"
         style="fill:#ffffff;fill-opacity:1;stroke:none" />
      <path
         sodipodi:nodetypes="ccccccccccccccccc"
         style="fill:#078930;fill-opacity:1;fill-rule:nonzero;stroke:none"
         d="M 333.333,0 750,0 l 0,500 -416.667,0 0,-41.66667 83.33333,0 0,-83.33333 -83.33333,0 0,-83.33333 83.33333,0 0,-83.33334 -83.33333,0 0,-83.33333 83.33333,0 0,-83.333333 -83.33333,0 L 333.333,0 z"
         id="path2485" />
      <g
         style="stroke:#078930;stroke-opacity:1"
         id="g4384">
        <path
           style="fill:#ffffff;fill-opacity:1;fill-rule:evenodd;stroke:#078930;stroke-width:0.99999994000000003;stroke-opacity:1"
           d="m 540.03546,223.13524 c 7.76607,-1.90161 11.21155,-8.65856 16.65406,-10.13432 5.63791,-1.52876 13.5197,-0.86436 20.53095,3.69657 0.54912,3.15815 -0.53929,5.54668 1.71004,8.13808 4.11707,4.09753 8.23415,5.28112 12.35123,7.576 4.32394,-4.58231 8.53039,-9.57582 12.2866,-16.14519 l 18.19263,12.30186 c -10.68405,6.14044 -17.61282,14.94914 -19.12976,20.03663 -0.95469,3.20183 1.45591,13.78003 2.71993,23.96537 1.50303,12.11123 -4.85665,21.73493 -0.23903,36.51847 4.19934,13.44445 14.38689,20.4616 24.84451,25.18228 25.18539,11.36893 29.78374,19.24557 31.1384,28.69914 -6.87544,-5.54875 -12.75507,-12.86012 -22.89374,-13.62302 -6.91603,-0.52041 -12.62423,-2.62747 -18.47257,-4.86876 0.77708,4.67712 2.97067,8.64598 1.70529,14.34433 -3.93961,-5.3981 -8.56214,-9.43037 -13.64556,-12.54084 1.187,11.15942 1.10873,23.40834 0.007,29.98969 -4.08149,-11.10252 -7.80242,-19.27011 -12.19016,-24.21588 -4.76119,-5.36673 -5.54947,-11.75755 -9.82722,-17.61498 -2.24399,6.99164 -5.67167,11.35981 -8.84855,15.86821 -3.02497,4.29284 -7.62064,12.34817 -10.51071,21.4063 -4.66296,-8.78609 -1.76537,-14.33194 1.42048,-19.75425 1.56745,-5.21005 6.08558,-10.42011 2.47083,-15.63016 -4.70549,5.48333 -10.84514,9.4348 -15.83369,11.7068 -5.49378,2.50209 -15.30732,5.50525 -20.07341,7.5827 -5.06672,2.20848 -13.41764,11.05086 -18.1946,18.87658 -3.65546,-6.73831 -0.51713,-14.53024 5.87807,-19.8034 l 22.24261,-18.34014 c 13.01767,-10.73371 25.40636,-23.60761 26.42455,-53.08131 0.46477,-13.45332 -7.33112,-18.72909 -12.01705,-26.05354 l -0.93062,-11.65074 -17.76991,-22.43248 -6.4e-4,0 z"
           id="rect7392"
           sodipodi:nodetypes="cscccccsssscsccccscscccsscssscccc" />
        <path
           style="fill:#ffffff;stroke:#078930;stroke-width:0.99999994000000003px;stroke-linecap:butt;stroke-linejoin:miter;stroke-opacity:1"
           d="m 606.22105,229.33358 c -4.84221,6.05672 -11.59467,14.32627 -15.29245,22.67185"
           id="path8167"
           sodipodi:nodetypes="cc" />
        <path
           style="fill:#ffffff;stroke:#078930;stroke-width:0.99999994000000003px;stroke-linecap:butt;stroke-linejoin:miter;stroke-opacity:1"
           d="m 587.06487,313.39584 -6.43955,10.73259"
           id="path8169" />
        <path
           style="fill:#ffffff;stroke:#078930;stroke-width:0.99999994000000003px;stroke-linecap:butt;stroke-linejoin:miter;stroke-opacity:1"
           d="m 572.46855,318.97679 -4.29304,5.15164"
           id="path8171" />
        <path
           style="fill:#ffffff;stroke:#078930;stroke-width:0.99999994000000003px;stroke-linecap:butt;stroke-linejoin:miter;stroke-opacity:1"
           d="m 583.54056,259.65961 c -1.01603,5.12547 -0.26378,10.23703 -3.65414,14.57105 3.78297,2.57886 3.4639,8.21376 4.8684,13.96392 2.22323,-7.63452 2.22299,-16.85724 -1.21426,-28.53497 z"
           id="path8177"
           sodipodi:nodetypes="cccc" />
        <path
           style="fill:#ffffff;stroke:#078930;stroke-width:0.99999994000000003;stroke-linecap:butt;stroke-linejoin:miter;stroke-miterlimit:4;stroke-opacity:1"
           d="m 504.00691,137.93066 c 2.77329,-0.55022 4.93632,2.29247 9.76378,2.51744 5.90141,0.27503 6.71399,-3.40313 9.05718,-3.42813 4.2549,-0.0454 8.65755,0.49188 12.74713,-0.68357 4.0037,-1.15076 7.02402,-4.61171 10.93023,-6.05929 3.41858,-1.26686 9.07047,0.56139 12.653,-0.3275 4.14246,-1.0278 6.23147,-4.60335 10.44392,-4.44111 16.4288,0.63273 20.99436,7.3413 32.15397,10.27843 14.23263,3.74593 26.82683,-7.19973 31.56885,-6.06497 8.9223,2.13509 20.14782,3.76742 30.98264,5.93069 11.03008,2.20225 9.17515,16.79233 25.78371,22.00964 -1.30168,10.49713 0.15164,29.99932 -1.93359,32.15174 -5.65214,5.83425 -7.48464,13.77068 -9.29825,20.97187 -1.50171,5.96276 -12.6559,2.34553 -18.23085,4.93965 -6.40093,2.97846 -14.08954,4.32541 -21.19033,6.02281 -5.68682,1.35941 -10.04051,7.13121 -15.82615,6.28609 -7.19086,-1.05038 -12.80421,-6.92935 -18.81493,-11.01385 -5.31213,-3.60978 -9.60989,-12.39032 -16.03114,-12.51991 -9.55058,-0.19886 -14.37632,10.10035 -18.83113,10.6787 -5.24264,0.68062 -8.00797,-4.11768 -13.24543,-2.17895 -4.21467,1.56013 -10.95007,9.05442 -16.65406,10.13432 -11.84072,0.88176 -15.68316,-4.68373 -21.07567,-5.65436 -5.7045,-1.02677 -11.98722,-0.21128 -17.32965,-2.50023 -4.68431,-2.00698 -3.92215,-8.2181 -11.06837,-11.91931 -4.44983,-2.30468 -10.28903,-2.16906 -12.05419,-5.02462 -0.73327,-1.18625 -3.00612,-11.88166 -1.32975,-20.00457 1.0581,-5.12704 3.60888,-23.18318 4.81562,-24.44533 1.29728,-1.35683 7.17729,-4.75832 11.90577,-8.39629 5.02774,-3.86823 8.68952,-6.97803 10.10769,-7.25939 z"
           id="rect8179"
           sodipodi:nodetypes="cssssssssscssssssssscssssssss" />
        <path
           sodipodi:nodetypes="cccc"
           id="path4375"
           d="m 596.21056,299.17796 c 0.19064,19.90713 -4.78879,27.73368 -3.95581,32.97271 1.97297,-3.75614 -0.45776,-15.61791 12.1084,-5.94608 -11.35177,-9.14286 -7.43035,-15.65057 -8.15259,-27.02663 z"
           style="fill:#ffffff;stroke:#078930;stroke-width:0.99999994000000003px;stroke-linecap:butt;stroke-linejoin:miter;stroke-opacity:1" />
      </g>
    </g>
  </g>
  <g
     inkscape:groupmode="layer"
     id="layer2"
     inkscape:label="Escudo"
     style="display:inline" />
</svg>
