<?xml version="1.0" encoding="UTF-8" standalone="no"?>
<!-- Created with Inkscape (http://www.inkscape.org/) -->

<svg
   xmlns:dc="http://purl.org/dc/elements/1.1/"
   xmlns:cc="http://creativecommons.org/ns#"
   xmlns:rdf="http://www.w3.org/1999/02/22-rdf-syntax-ns#"
   xmlns:svg="http://www.w3.org/2000/svg"
   xmlns="http://www.w3.org/2000/svg"
   xmlns:xlink="http://www.w3.org/1999/xlink"
   xmlns:sodipodi="http://sodipodi.sourceforge.net/DTD/sodipodi-0.dtd"
   xmlns:inkscape="http://www.inkscape.org/namespaces/inkscape"
   width="750"
   height="500"
   id="svg3184"
   sodipodi:version="0.32"
   inkscape:version="0.48.4 r9939"
   version="1.0"
   sodipodi:docname="Proyecto bandera 2x3.svg"
   inkscape:output_extension="org.inkscape.output.svg.inkscape">
  <defs
     id="defs3186">
    <linearGradient
       inkscape:collect="always"
       xlink:href="#linearGradient3788"
       id="linearGradient3811"
       gradientUnits="userSpaceOnUse"
       x1="-3793.042"
       y1="215.24863"
       x2="-3793.042"
       y2="-32.226692" />
    <linearGradient
       id="linearGradient3788">
      <stop
         style="stop-color:#10d263;stop-opacity:1;"
         offset="0"
         id="stop3790" />
      <stop
         style="stop-color:#000000;stop-opacity:1;"
         offset="1"
         id="stop3792" />
    </linearGradient>
    <linearGradient
       inkscape:collect="always"
       xlink:href="#linearGradient3788"
       id="linearGradient3027"
       gradientUnits="userSpaceOnUse"
       x1="-3793.042"
       y1="215.24863"
       x2="-3793.042"
       y2="-32.226692" />
  </defs>
  <sodipodi:namedview
     id="base"
     pagecolor="#ffffff"
     bordercolor="#666666"
     borderopacity="1.0"
     gridtolerance="1"
     guidetolerance="1"
     objecttolerance="1"
     inkscape:pageopacity="0.0"
     inkscape:pageshadow="2"
     inkscape:zoom="1.152"
     inkscape:cx="375"
     inkscape:cy="250"
     inkscape:document-units="px"
     inkscape:current-layer="layer2"
     height="500px"
     width="818.18px"
     inkscape:window-width="1280"
     inkscape:window-height="774"
     inkscape:window-x="-4"
     inkscape:window-y="-4"
     showgrid="false"
     inkscape:showpageshadow="false"
     inkscape:window-maximized="1">
    <inkscape:grid
       type="xygrid"
       id="grid7135"
       visible="true"
       enabled="true"
       empspacing="5"
       snapvisiblegridlinesonly="true" />
  </sodipodi:namedview>
  <metadata
     id="metadata3189">
    <rdf:RDF>
      <cc:Work
         rdf:about="">
        <dc:format>image/svg+xml</dc:format>
        <dc:type
           rdf:resource="http://purl.org/dc/dcmitype/StillImage" />
        <dc:title></dc:title>
      </cc:Work>
    </rdf:RDF>
  </metadata>
  <g
     inkscape:label="Bandera"
     inkscape:groupmode="layer"
     id="layer1"
     style="display:inline">
    <g
       id="g3035">
      <path
         sodipodi:nodetypes="ccccc"
         inkscape:connector-curvature="0"
         id="path3230"
         d="m 0.50002575,0.5 748.99995425,0 0,499 -748.99995425,0 z"
         style="fill:#ffffff;fill-opacity:1;fill-rule:nonzero;stroke:#000000;stroke-width:1;stroke-opacity:1" />
      <path
         sodipodi:nodetypes="cccc"
         id="rect2383"
         d="M 750,250 750,500 1.5e-6,500 z"
         style="fill:#078930;fill-opacity:1;fill-rule:nonzero;stroke:none"
         inkscape:connector-curvature="0" />
      <path
         sodipodi:nodetypes="cccc"
         style="fill:#da121a;fill-opacity:1;fill-rule:nonzero;stroke:none"
         d="M 1.5e-6,0 750,0 l 0,250 z"
         id="path2485"
         inkscape:connector-curvature="0" />
    </g>
  </g>
  <g
     inkscape:groupmode="layer"
     id="layer2"
     inkscape:label="Escudo"
     style="display:inline">
    <g
       style="display:inline"
       transform="matrix(0.58778789,0,0,0.58778789,2476.9399,209.88999)"
       id="g3803">
      <path
         sodipodi:nodetypes="ssssssssssssssssssssssssssscssssssssccccssssssssssssssssssssssssssscsss"
         inkscape:connector-curvature="0"
         id="path3805"
         d="m -3780.7698,-131.28989 c 3.4688,-0.56506 10.6675,0.0641 16.063,-0.54826 4.7453,-0.5385 9.649,-11.6755 12.31,-10.32159 2.3026,1.17159 2.175,6.9801 6.7932,5.32311 4.3227,-1.55094 2.9095,-4.36987 7.8935,-6.0948 5.0594,-1.75102 5.0559,12.21993 8.1526,13.04583 3.0947,0.82537 9.372,-8.75594 12.6877,-5.24229 4.9439,5.23891 1.5636,14.08529 6.3854,14.4307 8.6378,0.61878 3.3372,-3.18663 11.9793,-3.76098 5.3497,-0.35555 5.6444,1.94408 8.5324,5.76195 3.7022,4.89414 -0.2095,9.27502 4.2663,13.68463 4.0416,3.98179 12.4709,3.73659 16.2115,7.922682 2.3978,2.683358 -1.8537,7.108729 0,10.083411 2.5709,4.125563 8.4841,4.223001 10.2389,8.642919 2.5722,6.478673 -5.4809,13.751787 0.8533,18.006105 3.6127,2.426515 11.5452,3.752645 14.5052,7.922677 1.7603,2.479873 -6.5458,7.205567 -4.2663,9.363169 2.8957,2.74091 10.1297,-0.739614 12.7986,2.160734 3.3195,3.607422 -2.6106,9.364368 -0.8532,13.684629 1.8334,4.507184 9.8718,6.150857 11.0922,10.803661 0.8952,3.412986 -3.8586,6.6080697 -3.413,10.0834113 0.4519,3.5241742 6.5154,5.84814522 5.9727,9.3631692 -0.8062,5.2212468 -12.2842,6.2764377 -12.7987,11.5239035 -0.2537,2.588038 10.5421,7.499162 10.239,10.083411 -0.5549,4.730235 -14.0647,9.778664 -15.3585,14.404879 -1.2398,4.433374 4.1294,0.526777 3.4131,5.041701 -0.4207,2.651593 -9.4312,3.352859 -9.842,6.273855 -0.3868,2.749815 7.867,7.733128 6.2353,9.841602 -0.9078,3.12855 -11.7573,-0.374538 -13.6323,2.430821 -3.505,5.244173 8.5668,14.435892 2.9863,18.186157 -4.4335,2.979426 -10.8865,-5.957671 -16.2116,-4.32146 -6.9693,2.141404 -15.837,10.241626 -16.2116,13.684629 -0.7357,6.762055 -4.8394,15.579534 -12.7986,16.565604 -4.1548,0.51474 -3.512,-5.48012 -7.6791,-5.0417 -4.5944,0.48338 -7.5693,6.64668 -11.9455,7.92268 -7.0102,2.04399 -10.6217,-9.681087 -23.8908,-1.44049 -5.7273,3.55687 -20.4778,-4.68159 -20.4778,-4.68159 0,0 -26.3005,-33.97712 -3.8649,-59.259969 -7.5846,-28.622193 -72.5453,-8.58854 -72.141,11.749099 39.7324,7.164939 33.6007,43.072047 23.962,48.54793 -6.3197,2.95957 -14.521,-1.14099 -17.0687,-2.11742 -10.7849,-4.133353 -16.2712,-12.450043 -34.9829,-11.523902 -4.7255,0.23389 -3.2678,-8.634511 -7.6792,-10.083411 -5.2075,-1.710376 -10.8728,4.993746 -16.2116,3.601218 -5.3938,-1.406888 -5.8409,-9.054135 -11.0922,-10.803653 -5.0543,-1.683896 -11.3148,3.428543 -16.2116,1.440483 -7.6077,-3.088673 -9.035,-10.599737 -13.6519,-16.565613 -3.365,-4.348193 -9.4222,-9.25707 -10.2389,-14.40487 -0.7163,-4.514924 4.6529,-0.608327 3.4131,-5.041701 -1.2938,-4.626215 -14.8036,-9.674644 -15.3585,-14.404879 -0.3031,-2.584249 10.4927,-7.495373 10.239,-10.083411 -0.5145,-5.2474658 -11.9925,-6.3026567 -12.7987,-11.5239035 -0.5427,-3.51502398 5.5208,-5.838995 5.9727,-9.3631692 0.4456,-3.4753416 -4.3082,-6.6704253 -3.413,-10.0834113 1.2204,-4.652804 9.2588,-6.296477 11.0922,-10.803661 1.7574,-4.320261 -4.1727,-10.077207 -0.8532,-13.684629 2.6689,-2.900348 9.9029,0.580176 12.7986,-2.160734 2.2795,-2.157602 -6.0266,-6.883296 -4.2663,-9.363169 2.96,-4.170032 10.8925,-5.496162 14.5052,-7.922677 6.3342,-4.254318 -1.7189,-11.527432 0.8533,-18.006105 1.7548,-4.419918 7.668,-4.517356 10.2389,-8.642919 1.8537,-2.974682 -2.3978,-7.400053 0,-10.083411 3.7406,-4.186092 12.1699,-3.940892 16.2115,-7.922682 4.4758,-4.40961 0.5641,-8.79049 4.2663,-13.68463 2.888,-3.81787 3.1827,-6.1175 8.5324,-5.76195 8.6421,0.57435 12.6932,9.98194 21.331,9.36317 8.0556,-0.57707 11.0625,-10.18814 18.7714,-12.24415 7.0407,-1.8778 14.7902,-17.36465 22.1646,-17.05059 0.3545,-0.4194 3.6145,3.22679 9.3095,6.43693 2.9389,1.65659 8.4121,3.43535 11.7462,5.12428 8.5175,4.31464 10.2195,2.18615 14.1942,1.53864 z"
         style="color:#000000;fill:#10d263;fill-opacity:1;stroke:none;stroke-width:1;marker:none;visibility:visible;display:inline;overflow:visible;enable-background:accumulate" />
      <path
         id="path3807"
         style="color:#000000;fill:#078930;fill-rule:evenodd;stroke:none;stroke-width:1;marker:none;visibility:visible;display:inline;overflow:visible;enable-background:accumulate"
         d="m -3693.9864,49.840824 c -3.6379,0.972171 -6.2376,5.563269 -5.1195,8.642927 1.5299,4.213867 8.8923,8.294033 13.6519,6.482193 3.7122,-1.413125 -2.558,-3.361823 -4.2662,-6.482202 -1.7616,-3.217782 -0.2627,-9.712797 -4.2662,-8.642918 z M -3808.1928,2.0704485 c -4.7762,3.9630944 -8.3866,12.8083085 -15.0833,12.7322355 -4.7118,-0.05352 -7.1834,-1.651372 -6.6367,-5.6021924 0.7,-5.0584994 11.2208,-4.8813512 14.48,-9.16720545 2.5571,-3.36256635 2.8471,-5.19359325 6.0333,-8.14863265 3.1252,-2.8984915 10.2566,-7.1300435 10.8599,-4.0743075 0.6034,3.0557347 7.0772,-10.570379 11.4635,-9.167206 3.747,1.198684 6.7557,3.857081 3.0167,6.11147 -12.6701,7.6393383 -16.6041,11.0682783 -24.1334,17.3158385 z m 44.0117,-92.2102855 c 10.0177,15.221908 6.7117,4.69106 12.108,12.62986 4.0416,3.981791 -6.8357,10.866658 -3.0951,15.052745 2.3978,2.683358 7.1963,3.543699 9.05,6.518381 2.5709,4.125563 30.2041,-14.11141 27.7355,-4.598603 19.2885,-15.363721 10.8384,0.277118 25.6832,4.391286 11.1518,0.357251 14.8447,10.173099 15.2903,13.648441 0.4519,3.524174 7.1188,18.580381 6.5761,22.095405 -0.8062,5.221246 -9.2676,8.822878 -9.7821,14.070343 -0.2537,2.5880389 17.7821,13.1013463 17.479,15.685595 -0.5549,4.730236 -11.048,4.685767 -12.3418,9.311981 -1.2398,4.433374 16.196,9.184696 15.4797,13.699621 -0.4207,2.651593 4.4455,12.010778 4.0347,14.931774 -0.3868,2.749815 16.917,10.788863 15.2853,12.897337 -0.9078,3.12855 -11.7573,-0.374538 -13.6323,2.430821 -3.505,5.244173 8.5668,14.435892 2.9863,18.186157 -4.4335,2.979426 -10.8865,-5.957671 -16.2116,-4.32146 -6.9693,2.141404 -15.837,10.241626 -16.2116,13.684629 -0.7357,6.762055 -4.8394,15.579534 -12.7986,16.565604 -4.1548,0.51474 -3.512,-5.48012 -7.6791,-5.0417 -4.5944,0.48338 -7.5693,6.64668 -11.9455,7.92268 -7.0102,2.04399 -10.6217,-9.681087 -23.8908,-1.44049 -5.7273,3.55687 -20.4778,-4.68159 -20.4778,-4.68159 0,0 -26.3005,-33.97712 -3.8649,-59.259969 -7.5846,-28.622193 -72.5453,-8.58854 -72.141,11.749099 39.7324,7.164939 33.6007,43.072047 23.962,48.54793 -6.3197,2.95957 -14.521,-1.14099 -17.0687,-2.11742 -10.7849,-4.133353 -16.2712,-12.450043 -34.9829,-11.523902 -4.7255,0.23389 -3.2678,-8.634511 -7.6792,-10.083411 -5.2075,-1.710376 -10.8728,4.993746 -16.2116,3.601218 -5.3938,-1.406888 -5.8409,-9.054135 -11.0922,-10.803653 -5.0543,-1.683896 2.5619,-14.905868 -2.3349,-16.893928 -7.6077,-3.088672 9.6683,-6.016134 5.0514,-11.982009 -3.365,-4.348193 -8.2155,-6.201336 -9.0322,-11.349136 -0.7163,-4.514925 11.8929,-6.210512 10.6531,-10.643885 -1.2938,-4.626214 -8.167,-1.016724 -8.7219,-5.74696 -0.3031,-2.584249 0.2361,-9.5325348 -0.018,-12.1205736 -0.5145,-5.24746539 -4.7525,-2.7376264 -5.5587,-7.9588732 -0.5427,-3.515024 21.8108,-6.8575761 22.2627,-10.3817502 0.4456,-3.475342 -17.5816,-7.688998 -16.6864,-11.101984 1.2204,-4.652804 12.2017,-7.185612 13.5056,-11.822243 2.3607,-8.394577 18.5961,-3.558226 17.8501,-8.082444 -2.1578,-13.086135 18.9529,5.673065 21.8486,2.932155 27.2011,5.474155 -0.7669,-14.045003 17.0293,-10.502748 4.4758,-4.409603 -0.6426,-11.846224 -9.6104,-10.119607 -5.2319,1.007329 -29.604,8.367996 -33.7009,5.442417 -22.7313,-16.232201 -0.5802,-17.519678 8.0576,-18.138456 8.0556,-0.57707 9.8559,-10.69742 17.5648,-12.753431 7.0407,-1.8778 15.9968,7.590522 23.3712,7.904587 2.7679,-0.928699 9.0445,-4.412557 14.7395,-1.202415 2.9389,1.656589 16.8588,-19.482668 20.1929,-17.79374 9.7372,-9.850068 35.239,-0.293333 28.9733,8.566315 z"
         inkscape:connector-curvature="0"
         sodipodi:nodetypes="ssscsssssscsssccssccsccccsccssssssssccccssssssssccccssssccsssscscc" />
      <path
         style="color:#000000;fill:url(#linearGradient3027);fill-opacity:1;stroke:none;stroke-width:1;marker:none;visibility:visible;display:inline;overflow:visible;enable-background:accumulate"
         d="m -3851.8362,57.763501 c 12.6501,4.894578 27.0928,12.049118 33.2765,23.047806 3.0118,5.356898 -6.7752,10.685349 -7.6792,16.565604 6.2946,8.031879 5.5894,14.022359 2.1331,19.086459 -1.144,16.70893 0.4712,31.63134 0.8533,48.25634 0.1245,5.41725 1.6103,10.78344 -17.9181,23.40793 -6.3265,4.08988 -22.3464,0.29612 -32.7552,3.43391 -5.09,1.53445 -15.697,4.11874 -21.4435,6.65694 -10.1959,4.50341 -20.3031,9.19329 -16.1939,14.39741 3.2553,4.12271 11.4611,-3.84457 37.5427,-3.60112 8.4221,0.0785 18.0427,-2.55045 24.744,-3.6013 6.9357,-1.08765 9.0091,1.70893 5.9727,3.9614 -12.9091,9.5761 -27.2042,7.09859 -37.5426,14.76494 -4.97,3.68545 -16.9835,4.77463 -14.9318,10.08342 1.1051,2.85956 24.3638,-2.04321 44.6011,-2.07343 7.5877,-0.011 13.4283,-4.24595 18.9654,-8.00999 5.8649,-3.98689 14.516,-2.10289 21.7577,-0.36019 4.839,1.16447 3.7878,1.94394 4.6929,6.12211 0.6864,3.16851 -1.2312,6.68784 -2.6115,9.45058 -2.1488,4.30082 3.7219,7.14738 5.6193,10.44352 2.517,4.3724 4.9401,5.93049 5.9513,10.71626 1.3983,6.61786 -1.6813,13.36437 0,20.16684 1.8252,1.45544 9.762,-4.60099 13.7465,-8.06123 2.5481,-2.54074 5.4671,-6.81708 5.0248,-13.54611 -0.6088,-9.26234 -7.4479,-13.69729 1.4351,-25.52493 3.5322,-4.70313 8.1383,-3.56162 14.0697,-1.12403 8.0256,3.29825 11.4268,14.59434 19.7708,16.53996 4.6226,-5.16233 -5.9338,-19.16368 -2.4258,-21.22157 5.9682,-3.5011 23.5136,4.75428 30.0276,7.47524 13.0919,5.4685 25.1953,3.66401 28.7907,1.68327 -7.835,-4.75504 -16.8598,-8.56129 -27.2483,-13.84012 12.7948,-10.03488 29.648,9.97799 39.8524,4.31712 -2.5612,-10.09288 -9.9351,-12.44976 -22.7876,-19.80235 -8.1093,-4.63915 -16.8246,-15.54204 -26.0239,-18.36615 -8.1546,-2.50334 -20.7144,1.98977 -29.0103,-13.68463 -3.5107,-6.63322 2.7654,-18.71372 -2.9863,-27.00918 -0.5243,-20.23778 9.9919,-26.65374 7.6792,-39.61342 -1.0801,-6.0526 -7.9265,-10.044053 -10.2389,-15.845358 -3.1485,-7.898814 -10.4859,-17.076056 -5.9727,-24.48829 2.561,-4.206034 9.9556,-4.511202 15.3584,-5.761952 4.695,-1.086896 11.2815,-1.496938 14.5051,-1.440483 -2.8742,-3.240287 -7.0161,-9.420325 -12.7987,-10.08342 -6.0313,3.122961 -14.8244,13.372952 -19.6245,8.642928 -4.3669,-4.303134 12.5451,-8.041167 11.9454,-13.684629 -4.4688,-3.759635 -7.6594,-7.514745 -15.3584,-12.244145 -3.1224,3.650869 -5.081,14.84038 -9.3857,22.327556 -1.8915,3.289862 -6.2011,-1.959579 -8.5324,-5.041701 -5.2063,-6.882908 -4.1627,-16.268819 -2.5597,-23.768049 -3.6726,-3.020265 -10.3604,0.474239 -14.5052,2.880976 -3.6041,0.696767 -9.9746,-1.534603 -11.0921,1.440484 4.0832,8.022048 14.9547,11.795931 14.5051,19.44658 -0.1607,2.733988 -2.8499,5.744445 -5.9727,6.482194 -5.3017,2.534411 -15.0524,-3.59254 -18.3446,-5.761943 -4.0105,-2.642722 -8.2032,-6.449889 -13.2253,-5.761952 -3.7412,3.515336 -10.8988,9.206997 -13.6519,11.523895 z"
         id="path3809"
         inkscape:connector-curvature="0"
         sodipodi:nodetypes="csccsssssssssssssssssccssscsscccssscssssccsccsscccscscc" />
    </g>
  </g>
</svg>
