<!-- Created with Inkscape (http://www.inkscape.org/) -->
<svg xmlns:rdf="http://www.w3.org/1999/02/22-rdf-syntax-ns#" xmlns="http://www.w3.org/2000/svg" height="100%" width="100%" version="1.0" xmlns:cc="http://creativecommons.org/ns#" xmlns:dc="http://purl.org/dc/elements/1.1/" viewBox="0 0 750 500">
<metadata>
<rdf:RDF>
<cc:Work rdf:about="">
<dc:format>image/svg+xml</dc:format>
<dc:type rdf:resource="http://purl.org/dc/dcmitype/StillImage"/>
<dc:title/>
</cc:Work>
</rdf:RDF>
</metadata>
<path fill-rule="nonzero" d="M0.0000015,0,750,0,750,500,0.0000015,500z" fill="#da121a"/>
<g stroke-linejoin="round" stroke-linecap="round" stroke-miterlimit="4" transform="translate(72.184621,606.32764)">
<g stroke="#000" stroke-dasharray="none" transform="matrix(-1,0,0,1,631.80227,-16.53207)">
<path stroke-width="0.99999994" d="m270.07873-352.55591,1.53868-0.00002,0.33625,0.24772,0,3.31158-2.21132,0,0-3.31158z" fill="#fcdd09"/>
<path stroke-width="0.99999994" d="m265.11737-352.55591,1.53804-0.00002,0.33624,0.24772,0,3.31158-2.21066,0,0-3.31158z" fill="#fcdd09"/>
<path stroke-width="0.99999994" d="m275.12072-352.55591,1.53836-0.00002,0.33625,0.24772,0,3.31158-2.211,0,0-3.31158z" fill="#fcdd09"/>
<path stroke-width="1" d="m278.95519-337.34378-16.2145,0,0.00007-10.7759,1.69264-1.37095,12.82828,0,1.69341,1.37095z" fill="#fcdd09"/>
<path stroke-width="1" d="m264.43367-349.49072,0,11.92135" fill="none"/>
<path stroke-width="1" d="m277.26138-349.49072,0,11.92135" fill="none"/>
<path stroke-width="1" d="m272.4746-342.43675,1.96357-0.00003,0.49331,0.34911,0,4.66699-2.95041,0,0-4.66699z" fill="#fcdd09"/>
<path stroke-width="1" d="m267.25928-342.43675,1.96358-0.00003,0.49331,0.34911,0,4.66699-2.95042,0,0-4.66699z" fill="#fcdd09"/>
<path stroke-width="1" d="m262.04398-342.43675,1.9639-0.00003,0.49331,0.34911,0,4.66699-2.95074,0,0-4.66699z" fill="#fcdd09"/>
<path stroke-width="1" d="m277.6899-342.43675,1.96358-0.00003,0.49331,0.34911,0,4.66699-2.95041,0,0-4.66699z" fill="#fcdd09"/>
<path stroke-width="1" d="m261.32963-338.43268,19.03704,0,1.98686,2.03215,0,2.25-1.83391,1.47484,0,19.83737,2.52891,2.8526,0,3.42979-24.4,0,0-3.42979,2.52894-2.8526,0-19.83737-1.83494-1.47484,0-2.25z" fill="#fcdd09"/>
<path stroke-width="1" d="m259.34253-334.15053,1.98689-2.03315,19.03725,0,1.98686,2.03315" fill="none"/>
<path stroke-width="1" d="m261.17759-332.67568,1.81194-1.32701,15.71823,0,1.81168,1.32701" fill="none"/>
<path stroke-width="1" d="m258.64853-306.55593,2.057-1.87067,20.28514,0,2.05786,1.87067" fill="none"/>
<path stroke-width="1" d="m258.64853-309.98563,2.057-1.79004,20.28514,0,2.05786,1.79004" fill="none"/>
<path stroke-width="1" d="m262.98953-313.90653,15.71823,0" fill="none"/>
<path stroke-width="1" d="m261.32942-338.43268,0,2.249,1.66011,2.18101,0,20.09614-2.284,2.13084,0,3.34894" fill="none"/>
<path stroke-width="1" d="m280.36639-338.43268,0,2.249-1.65908,2.18101,0,20.09614,2.28308,2.13084,0,3.34894" fill="none"/>
<path stroke-width="1" d="m273.43853-320.52219,0,6.61566-5.18,0,0-6.61566z" fill="#4d87ca"/>
</g>
<g stroke="#000" stroke-width="1" stroke-dasharray="none">
<path d="m268.97554-399.92639-22.86476,29.15836,6.00729,0,2.99588,5.86702,22.8333-35.02538z" fill="#fcdd09"/>
<path d="m275.14645-399.92639-23.02838,29.15836" fill="none"/>
</g>
<g stroke="#000" transform="translate(1.5e-4,7.993381)">
<g stroke-width="0.99999988" transform="translate(26.89556,-7.993381)">
<path d="m258.64933-432.18484-6.91701,0-6.80032,11.30416,21.23453,0z" fill="#fcdd09"/>
<path stroke-dasharray="none" d="m256.043-429.33817-3.07-0.00003-1.00772,1.47522,0,5.91831,5.08624,0,0-5.91831z" fill="#fcdd09"/>
<path stroke-dasharray="none" d="m260.67997-429.33817-2.67997-0.00003-0.94854,1.47522,0,5.91831,4.9939,0,0.00041-5.18195z" fill="#fcdd09"/>
<path stroke-dasharray="none" d="m250.958-429.33817-1.44262-0.00003-2.94005,4.05454,0,3.33899,5.39029,0,0-5.91831z" fill="#fcdd09"/>
<path stroke-dasharray="none" d="m261.6855-401.18484-18.64637,0,0-1.83968,2.44119-2.11704,0-15.08843-1.13899-1.27366,0-2.40037,17.84415,0,4.471,3.16354,0,1.55941-2.44579,0.47367,0,14.45457,0-1.00003,0,1.10049z" fill="#fcdd09"/>
<path stroke-dasharray="none" d="m266.65649-419.18106-4.471-2.32259-17.84416,0" fill="none"/>
<path stroke-dasharray="none" d="m264.21069-418.7074-3.3442-1.52259-15.38617,0" fill="none"/>
<path stroke-dasharray="none" d="m264.21069-405.25277-2.52519,2.22825-18.64618,0" fill="none"/>
<path stroke-dasharray="none" d="m264.26486-405.15262-3.39837,0.0111-15.38617,0" fill="none"/>
<path stroke-dasharray="none" d="m262.18515-423.90402,0,2.80043-1.319,0.8736,0,15.48836,0.819,1.81709,0,1.7397" fill="none"/>
<path stroke-dasharray="none" d="m250.88833-414.40862,0,9.24627,5.66599,0,0-9.24627z" fill="#4d87ca"/>
<path stroke-dasharray="none" d="m256.55432-413.70861-4.966,0,0,8.54626" fill="none"/>
</g>
<g stroke-width="0.99999988" transform="matrix(-1,0,0,1,578.73488,-7.993381)">
<path d="m258.64933-432.18484-6.91701,0-6.80032,11.30416,21.23453,0z" fill="#fcdd09"/>
<path stroke-dasharray="none" d="m256.043-429.33817-3.07-0.00003-1.00772,1.47522,0,5.91831,5.08624,0,0-5.91831z" fill="#fcdd09"/>
<path stroke-dasharray="none" d="m260.67997-429.33817-2.67997-0.00003-0.94854,1.47522,0,5.91831,4.9939,0,0.00041-5.18195z" fill="#fcdd09"/>
<path stroke-dasharray="none" d="m250.958-429.33817-1.44262-0.00003-2.94005,4.05454,0,3.33899,5.39029,0,0-5.91831z" fill="#fcdd09"/>
<path stroke-dasharray="none" d="m261.6855-401.18484-18.64637,0,0-1.83968,2.44119-2.11704,0-15.08843-1.13899-1.27366,0-2.40037,17.84415,0,4.471,3.16354,0,1.55941-2.44579,0.47367,0,14.45457,0-1.00003,0,1.10049z" fill="#fcdd09"/>
<path stroke-dasharray="none" d="m266.65649-419.18106-4.471-2.32259-17.84416,0" fill="none"/>
<path stroke-dasharray="none" d="m264.21069-418.7074-3.3442-1.52259-15.38617,0" fill="none"/>
<path stroke-dasharray="none" d="m264.21069-405.25277-2.52519,2.22825-18.64618,0" fill="none"/>
<path stroke-dasharray="none" d="m264.26486-405.15262-3.39837,0.0111-15.38617,0" fill="none"/>
<path stroke-dasharray="none" d="m262.18515-423.90402,0,2.80043-1.319,0.8736,0,15.48836,0.819,1.81709,0,1.7397" fill="none"/>
<path stroke-dasharray="none" d="m250.88833-414.40862,0,9.24627,5.66599,0,0-9.24627z" fill="#4d87ca"/>
<path stroke-dasharray="none" d="m256.55432-413.70861-4.966,0,0,8.54626" fill="none"/>
</g>
<g stroke-width="1" stroke-dasharray="none" transform="translate(-32.459945,-7.993381)">
<path d="m344.98647-416.93576-19.422,0,0-21.94982,9.711-15.96682,9.711,15.96682z" fill="#fcdd09"/>
<path d="m335.27541-432.60147c2.09898,0,3.68906,1.71335,3.68906,3.84159v8.67608h-7.378v-8.67608c0-2.12824,1.58996-3.84159,3.68894-3.84159z" fill="#4d87ca"/>
<path d="m322.47522-419.63081s4.58912-1.72498,12.80019-1.72498,12.7997,1.72498,12.7997,1.72498v15.05428s-4.16641,1.32413-12.7997,1.32413-12.80019-1.32413-12.80019-1.32413z" fill="#fcdd09"/>
<path d="m347.69616-404.57646-4.29069-0.79952-4.994,0-1.091,2.08554-4.09,0-1.091-2.08554-4.994,0-4.29142,0.79952" fill="none"/>
<path d="m335.27541-414.90985c1.84835,0,3.10538,1.51573,3.13606,3.39793v6.13594h-6.272v-6.13594c0-1.88245,1.2876-3.39793,3.13594-3.39793z" fill="#4d87ca"/>
<path style="direction:ltr;baseline-shift:baseline;block-progression:tb;text-indent:0;color:#000000;enable-background:accumulate;text-transform:none;text-align:start;" d="m335.2754-439.69372c-5.56124,0-9.93477,0.51106-10.40625,0.5625-0.52371,0.0571-0.94818,0.58572-0.8909,1.1094,0.0573,0.52369,0.58598,0.94802,1.10965,0.8906,0.47145-0.0517,4.76262-0.5625,10.1875-0.5625s9.71605,0.5108,10.1875,0.5625c0.52367,0.0574,1.05237-0.36691,1.10965-0.8906,0.0573-0.52368-0.36719-1.05226-0.8909-1.1094-0.47148-0.0514-4.84501-0.5625-10.40625-0.5625z" fill="#fcdd09"/>
</g>
</g>
<g stroke="#000" stroke-width="1" stroke-dasharray="none" transform="translate(-0.07952,-26.583159)">
<path d="m276.91052-350.66609,11.29972,1.74318-6.23724-14.5921z" fill="#fcdd09"/>
<path d="m277.211-354.19656,2.53884,0-0.00005,4.31713-2.53879,0z" fill="#fcdd09"/>
<path d="m283.00781-354.19656,2.587,0,1.85202,1.89955-0.00004,3.073-4.43898-0.65542z" fill="#fcdd09"/>
<path d="m285.59481-354.19656,0,4.31713" fill="#eac102"/>
<path d="m276.91052-350.66668,8.65736,0,2.64236,1.74358,0,10.92256-11.29972,0z" fill="#fcdd09"/>
<path d="m276.91052-340.39534,8.65736,0,0-10.27134" fill="none"/>
<path d="m285.56788-340.395,2.64317,2.39446" fill="none"/>
</g>
<g stroke="#000" stroke-width="1" transform="translate(69.24802,-0.49969)">
<path stroke-dasharray="none" d="m198.4936-324.18821-0.00038-9.7967c-0.00008-1.99228,1.6037-3.69064,3.54931-3.97861,1.83179,0.3945,3.49318,2.07473,3.49315,3.97862l-0.00016,10.5969,10.60289-0.00001v-4.91899h16.888l-0.00001-1.91133,3.37501-4.07867,2.772,3.23503h14.06799v-30.3915l-17.59,8.62882v-2.2327h-13.488l-10.49-11.53865h-7.2504l-13.2366,13.38876-1.73,4.10123v24.9178z" fill="#fcdd09"/>
<path stroke-dasharray="none" d="m189.45641-349.10601,1.59809,0" fill="none"/>
<path stroke-dasharray="none" d="m204.42301-361.37188,0-5.22412" fill="none"/>
<path stroke-dasharray="none" d="m192.73841-347.59119-1.68391-1.51482,13.369-12.26611,12.6915,12.98094-3.735,0.8z" fill="none"/>
<path stroke-dasharray="none" d="m195.17641-349.7413,9.19862-8.1017,8.39338,8.1017z" fill="none"/>
<path stroke-dasharray="none" d="m236.40162-334.297,14.46879,0,2.371,3.23467" fill="none"/>
<path stroke-dasharray="none" d="m250.87041-355.58243,0,21.28543" fill="none"/>
<path stroke-dasharray="none" d="M222.16341-355.05735,217.115-348.391" fill="none"/>
<path stroke-dasharray="none" d="m192.73841-347.59082,0,20.54284,4.155,0" fill="none"/>
<path stroke-dasharray="none" d="m213.38041-347.59082,0,21.54261-7.84485,0.00001" fill="none"/>
<path stroke-dasharray="none" d="m217.781-349.1823,17.87041-0.0294,15.219-6.37073,2.37059-5.87107" fill="none"/>
<path stroke-dasharray="none" d="m218.37241-330.21834,0-17.44647,14.65409,0-0.00018,17.44647z" fill="none"/>
<path stroke-dasharray="none" d="m236.4012-334.2967,0-13.3685-0.74979-1.54648,0-3.61297" fill="none"/>
<path stroke-dasharray="none" d="m241.30541-334.297,0-7.651,4.857,0,0,7.651z" fill="#ed1c24"/>
<path stroke-dasharray="none" d="m233.02641-347.66481,3.37459-0.0002,14.46941-5.99718" fill="none"/>
<path stroke-dasharray="none" d="m216.13841-348.091,0,19.784,2.23359-1.911" fill="none"/>
<path d="m206.04591-352.62899c0,0.95129-0.77118,1.72249-1.72251,1.72249-0.9513,0-1.72249-0.7712-1.72249-1.72249,0-0.95133,0.77119-1.72251,1.72249-1.72251,0.95133,0,1.72251,0.77118,1.72251,1.72251z" fill="none"/>
<path stroke-dasharray="none" d="m198.49341-324.18821-1.59992-2.86021-0.00027-6.93649c-0.00009-2.18482,2.14851-4.0442,4.32094-4.0442,0.27923,0,0.55605,0.007,0.8265,0.0656" fill="none"/>
<path stroke-dasharray="none" d="m189.45641-324.1882,3.282-2.86021" fill="none"/>
<path stroke-dasharray="none" d="m216.13841-323.388-2.758-2.66042" fill="none"/>
</g>
<g stroke="#000" stroke-width="1" stroke-dasharray="none" transform="translate(-1.3178539e-6,77.550731)">
<path d="m182.53128-486.61523,3.76789-0.00003,1.29423,1.25464,0,5.10219-6.35607,0,0-5.10219z" fill="#fcdd09"/>
<path d="m182.53128-486.61523,0,6.3568" fill="none"/>
<path d="m186.29936-486.61523,0,6.3568" fill="none"/>
<path d="m173.14908-486.61523,3.76789-0.00003,1.29423,1.25464,0,5.10219-6.35608,0,0-5.10219z" fill="#fcdd09"/>
<path d="m173.14908-486.61523,0,6.3568" fill="none"/>
<path d="m176.91715-486.61523,0,6.3568" fill="none"/>
<path d="m191.91411-486.61523,3.76789-0.00003,1.29424,1.25464,0,5.10219-6.35608,0,0-5.10219z" fill="#fcdd09"/>
<path d="m191.91411-486.61523,0,6.3568" fill="none"/>
<path d="m195.6822-486.61523,0,6.3568" fill="none"/>
<path d="m170.89111-481.29639-2.82883,1.92827,0,1.0215,1.73074,1.12305,0,13.98352,29.24477,0,0-13.98352,1.73074-1.12305,0-1.0215-2.82892-1.92827z" fill="#fcdd09"/>
<path d="m170.89154-481.29639,0,1.12184,2.10624,1.33835,0,13.92035" fill="none"/>
<path d="m197.93919-481.29639,0,1.12184-2.10625,1.33835,0,13.92035" fill="none"/>
<path d="m170.02152-466.69161,28.78815,0,4.2057,2.84276,0,2.28323-3.28823,2.266,0,20.30869,3.28823,2.96224,0,4.41343-37.2,0,0-4.41343,3.28863-2.96224,0-20.30869-3.28863-2.266,0-2.28323z" fill="#fcdd09"/>
<path d="m165.81537-461.56562,4.20615-2.74331,28.78815,0,4.2057,2.74331" fill="none"/>
<path d="m169.104-459.29962,3.89403-2.34368,22.83512,0,3.89372,2.34368" fill="none"/>
<path d="m165.81537-431.61526,4.20615-2.64326,28.78815,0,4.2057,2.64326" fill="none"/>
<path d="m165.81537-436.02855,4.20615-2.74316,28.78815,0,4.2057,2.74316" fill="none"/>
<path d="m169.104-438.99107,3.89403-2.5432,22.83512,0,3.89372,2.5432" fill="none"/>
<path d="m170.02152-466.69161,0,2.38279,2.97651,2.66563,0,20.10916-2.97651,2.76229,0,4.51301" fill="none"/>
<path d="m198.80922-466.69161,0,2.38279-2.97671,2.66563,0,20.10916,2.97671,2.76229,0,4.51301" fill="none"/>
<path d="m200.76853-478.34662-2.82892-1.82801-27.0485,0-2.82883,1.82801" fill="none"/>
<path d="m169.79326-477.22357,3.20411-1.61269,22.83599,0,3.20419,1.61269" fill="none"/>
<path d="m184.41538-454.66645c2.6649,0,4.8103,2.38361,4.8103,4.9718v8.16103h-9.62062v-8.16103c0-2.58819,2.1454-4.9718,4.81032-4.9718z" fill="#4d87ca"/>
<path d="m187.395-473.38539,0,6.69376-5.959,0,0-6.69376s0.90033-0.66914,2.97937-0.66914,2.97963,0.66914,2.97963,0.66914z" fill="#4d87ca"/>
</g>
<g stroke="#000" stroke-width="1" stroke-dasharray="none" transform="translate(-1.3178539e-6,142.93226)">
<path d="m182.53128-486.61523,3.76789-0.00003,1.29423,1.25464,0,5.10219-6.35607,0,0-5.10219z" fill="#fcdd09"/>
<path d="m182.53128-486.61523,0,6.3568" fill="none"/>
<path d="m186.29936-486.61523,0,6.3568" fill="none"/>
<path d="m172.74896-486.61523,3.76789-0.00003,1.29423,1.25464,0,5.10219-6.35608,0,0-5.10219z" fill="#fcdd09"/>
<path d="m172.74896-486.61523,0,6.3568" fill="none"/>
<path d="m176.51703-486.61523,0,6.3568" fill="none"/>
<path d="m192.31395-486.61523,3.76789-0.00003,1.29424,1.25464,0,5.10219-6.35608,0,0-5.10219z" fill="#fcdd09"/>
<path d="m192.31395-486.61523,0,6.3568" fill="none"/>
<path d="m196.08204-486.61523,0,6.3568" fill="none"/>
<path d="m172.998-481.29639-3.20498,2.72756,0,15.32878,29.24477,0,0-15.32878-3.20479-2.72756z" fill="#fcdd09"/>
<path d="m172.99778-481.29626,0,16.38041" fill="none"/>
<path d="m195.83294-481.29626,0,16.38041" fill="none"/>
<path d="m172.74896-471.96506,3.76789-0.00003,1.29423,1.25464,0,5.10219-6.35608,0,0-5.10219z" fill="#fcdd09"/>
<path d="m176.51703-471.96506,0,6.3568" fill="none"/>
<path d="m172.74896-471.96506,0,6.3568" fill="none"/>
<path d="m182.53128-471.96506,3.76789-0.00003,1.29423,1.25464,0,5.10219-6.35607,0,0-5.10219z" fill="#fcdd09"/>
<path d="m186.29936-471.96506,0,6.3568" fill="none"/>
<path d="m182.53128-471.96506,0,6.3568" fill="none"/>
<path d="m192.31395-471.96506,3.76789-0.00003,1.29424,1.25464,0,5.10219-6.35608,0,0-5.10219z" fill="#fcdd09"/>
<path d="m192.31395-471.96506,0,6.3568" fill="none"/>
<path d="m196.08204-471.96506,0,6.3568" fill="none"/>
<path d="m170.02152-466.69126,28.78815,0,4.2057,3.142,0,1.984-3.28823,2.46517,0,19.2089,3.28823,3.4625,0,4.81343-37.2,0,0-4.81343,3.28863-3.4625,0-19.2089-3.28863-2.46517,0-1.984z" fill="#fcdd09"/>
<path d="m165.81537-461.56526,4.20615-2.84405,28.78815,0,4.2057,2.84405" fill="none"/>
<path d="m169.104-459.10009,3.89403-2.54321,22.83512,0,3.89372,2.54321" fill="none"/>
<path d="m165.81537-431.61526,4.10663-2.14326,28.98723,0,4.10614,2.14326" fill="none"/>
<path d="m165.81537-436.42855,4.10663-2.04306,28.98723,0,4.10614,2.04306" fill="none"/>
<path d="m169.104-439.89133,3.89403-1.64294,22.83512,0,3.89372,1.64294" fill="none"/>
<path d="m170.02152-466.69144,0,2.28224,2.97651,2.76601,0,20.10916-3.07603,3.06239,0,4.71291" fill="none"/>
<path d="m198.80922-466.69144,0,2.28224-2.97671,2.76601,0,20.10916,3.07627,3.06239,0,4.71291" fill="none"/>
<path d="m184.41538-454.56616c2.6649,0,4.8103,2.38361,4.8103,4.9718v8.06074h-9.62062v-8.06074c0-2.58819,2.1454-4.9718,4.81032-4.9718z" fill="#4d87ca"/>
</g>
<g stroke="#000" stroke-dasharray="none" transform="translate(-26.17153,-16.53207)">
<path stroke-width="0.99999994" d="m270.07873-352.55591,1.53868-0.00002,0.33625,0.24772,0,3.31158-2.21132,0,0-3.31158z" fill="#fcdd09"/>
<path stroke-width="0.99999994" d="m265.11737-352.55591,1.53804-0.00002,0.33624,0.24772,0,3.31158-2.21066,0,0-3.31158z" fill="#fcdd09"/>
<path stroke-width="0.99999994" d="m275.12072-352.55591,1.53836-0.00002,0.33625,0.24772,0,3.31158-2.211,0,0-3.31158z" fill="#fcdd09"/>
<path stroke-width="1" d="m278.95519-337.34378-16.2145,0,0.00007-10.7759,1.69264-1.37095,12.82828,0,1.69341,1.37095z" fill="#fcdd09"/>
<path stroke-width="1" d="m264.43367-349.49072,0,11.92135" fill="none"/>
<path stroke-width="1" d="m277.26138-349.49072,0,11.92135" fill="none"/>
<path stroke-width="1" d="m272.4746-342.43675,1.96357-0.00003,0.49331,0.34911,0,4.66699-2.95041,0,0-4.66699z" fill="#fcdd09"/>
<path stroke-width="1" d="m267.25928-342.43675,1.96358-0.00003,0.49331,0.34911,0,4.66699-2.95042,0,0-4.66699z" fill="#fcdd09"/>
<path stroke-width="1" d="m262.04398-342.43675,1.9639-0.00003,0.49331,0.34911,0,4.66699-2.95074,0,0-4.66699z" fill="#fcdd09"/>
<path stroke-width="1" d="m277.6899-342.43675,1.96358-0.00003,0.49331,0.34911,0,4.66699-2.95041,0,0-4.66699z" fill="#fcdd09"/>
<path stroke-width="1" d="m261.32963-338.43268,19.03704,0,1.98686,2.03215,0,2.25-1.83391,1.47484,0,19.83737,2.52891,2.8526,0,3.42979-24.4,0,0-3.42979,2.52894-2.8526,0-19.83737-1.83494-1.47484,0-2.25z" fill="#fcdd09"/>
<path stroke-width="1" d="m259.34253-334.15053,1.98689-2.03315,19.03725,0,1.98686,2.03315" fill="none"/>
<path stroke-width="1" d="m261.17759-332.67568,1.81194-1.32701,15.71823,0,1.81168,1.32701" fill="none"/>
<path stroke-width="1" d="m258.64853-306.55593,2.057-1.87067,20.28514,0,2.05786,1.87067" fill="none"/>
<path stroke-width="1" d="m258.64853-309.98563,2.057-1.79004,20.28514,0,2.05786,1.79004" fill="none"/>
<path stroke-width="1" d="m262.98953-313.90653,15.71823,0" fill="none"/>
<path stroke-width="1" d="m261.32942-338.43268,0,2.249,1.66011,2.18101,0,20.09614-2.284,2.13084,0,3.34894" fill="none"/>
<path stroke-width="1" d="m280.36639-338.43268,0,2.249-1.65908,2.18101,0,20.09614,2.28308,2.13084,0,3.34894" fill="none"/>
<path stroke-width="1" d="m273.43853-320.52219,0,6.61566-5.18,0,0-6.61566z" fill="#4d87ca"/>
</g>
<g stroke="#000" stroke-dasharray="none" transform="translate(63.5019,59.750523)">
<path stroke-width="0.99999994" d="m270.2322-375.10728,1.66383-0.00002,0.418,0.30696,0,4.10348-2.5,0,0-4.10348z" fill="#fcdd09"/>
<path stroke-width="0.99999994" d="m263.94017-375.10728,1.66383-0.00002,0.418,0.30696,0,4.10348-2.5,0,0-4.10348z" fill="#fcdd09"/>
<path stroke-width="0.99999994" d="m276.62424-375.10728,1.66383-0.00002,0.418,0.30696,0,4.10348-2.5,0,0-4.10348z" fill="#fcdd09"/>
<path stroke-width="1" d="m281.14244-356.25747-20.15681,0,0.00009-14.21982,1.85611-1.32682,16.44436,0,1.85613,1.32682z" fill="#fcdd09"/>
<path stroke-width="1" d="m262.84217-371.80423,0,15.26723" fill="none"/>
<path stroke-width="1" d="m279.28582-371.80423,0,15.26723" fill="none"/>
<path stroke-width="1" d="m273.08619-363.0636,2.44099-0.00003,0.61325,0.43259,0,5.78301-3.66776,0,0-5.78301z" fill="#fcdd09"/>
<path stroke-width="1" d="m266.60285-363.0636,2.44099-0.00003,0.61325,0.43259,0,5.78301-3.66776,0,0-5.78301z" fill="#fcdd09"/>
<path stroke-width="1" d="m260.11953-363.0636,2.44098-0.00003,0.61325,0.43259,0,5.78301-3.66776,0,0-5.78301z" fill="#fcdd09"/>
<path stroke-width="1" d="m279.56952-363.0636,2.44099-0.00003,0.61325,0.43259,0,5.78301-3.66776,0,0-5.78301z" fill="#fcdd09"/>
<path stroke-width="1" d="m258.983-357.35855,24.16318,0,2.71782,2.39377,0,3.03578-3.02589,2.69466,0,23.34234,4.22631,3.28707,0,4.49763-32,0,0-4.49763,4.22651-3.28707,0-23.34234-3.02693-2.69466,0-3.03578z" fill="#fcdd09"/>
<path stroke-width="1" d="m256.264-351.92899,2.719-2.02388,24.16318,0,2.71782,2.02388" fill="none"/>
<path stroke-width="1" d="m259.29108-349.23433,2.25192-1.51987,19.04327,0,2.25162,1.51987" fill="none"/>
<path stroke-width="1" d="m255.06442-318.1073,3.01858-2.1937,25.96318,0,3.01824,2.1937" fill="none"/>
<path stroke-width="1" d="m255.06442-322.60481,3.01858-2.09386,25.96318,0,3.01824,2.09386" fill="none"/>
<path stroke-width="1" d="m261.543-328.20741,19.04327,0" fill="none"/>
<path stroke-width="1" d="m258.983-357.35855,0,3.40568,2.56,3.19869,0,22.54695-3.46,3.50855,0,4.3975" fill="none"/>
<path stroke-width="1" d="m283.14582-357.35855,0,3.40568-2.5601,3.19869,0,22.54695,3.4601,3.50855,0,4.3975" fill="none"/>
<path stroke-width="1" d="m274.906-340.0542,0,11.84675-7.683,0,0-11.84675z" fill="#4d87ca"/>
</g>
<g stroke="#000" stroke-width="1">
<path stroke-dasharray="none" d="m294.44691-309.94858s5.49656-11.83664,8.36847-11.83664,8.36852,11.83664,8.36852,11.83664l-8.36854,3.48939z" fill="#fcdd09"/>
<path d="m295.7749-314.83764,14.08,0,0,11.87577-14.08,0z" fill="#fcdd09"/>
<path stroke-dasharray="none" d="m304.83464-313.71422,1.59224-0.00003,0.5469,1.00421,0,4.0839-2.68592,0,0-4.0839z" fill="#fcdd09"/>
<path stroke-dasharray="none" d="m300.79349-313.71422-1.59224-0.00003-0.5469,1.00421,0,4.0839,2.68593,0,0-4.0839z" fill="#fcdd09"/>
<path stroke-dasharray="none" d="m295.15998-314.27591-1.59224-0.00003-0.5469,1.00421,0,4.0839,2.68593,0,0-4.0839z" fill="#fcdd09"/>
<path stroke-dasharray="none" d="m310.46812-314.27591,1.59224-0.00003,0.5469,1.00421,0,4.0839-2.68591,0,0-4.0839z" fill="#fcdd09"/>
<path stroke-dasharray="none" d="m313.07636-296.89558,5.13901,1.99954,0,30.39779s-2.38759,4.31303-15.39999,4.31303c-13.01241,0-15.4-4.31303-15.4-4.31303v-30.39779l5.13901-1.99954v-13.63761s1.74001,1.01991,10.26099,1.01991,10.26101-1.01991,10.26101-1.01991z" fill="#fcdd09"/>
<path stroke-dasharray="none" d="m318.21537-268.08563s-2.38759,4.33725-15.4,4.33725-15.4-4.33725-15.4-4.33725z" fill="none"/>
<path stroke-dasharray="none" d="m318.21537-294.89604s-2.38759,1.03993-15.4,1.03993-15.4-1.03993-15.4-1.03993" fill="none"/>
<path stroke-dasharray="none" d="m313.07637-296.89558s-1.74002,0.51938-10.26101,0.51938c-8.52098,0-10.26099-0.51938-10.26099-0.51938" fill="none"/>
<path stroke-dasharray="none" d="m302.81538-285.34939c3.73018,0,6.73299,2.96877,6.73299,6.65643v10.60736h-13.666v-10.60736c0-3.68765,3.20279-6.65643,6.93301-6.65643z" fill="#4d87ca"/>
<path stroke-dasharray="none" d="m305.97437-303.37136,0,6.92824c-1.97257,0.11378-4.34543,0.0953-6.31801,0.00036v-6.92823z" fill="#4d87ca"/>
</g>
<g stroke="#000" stroke-dasharray="none" transform="translate(0,59.750523)">
<path stroke-width="0.99999994" d="m270.2322-375.10728,1.66383-0.00002,0.418,0.30696,0,4.10348-2.5,0,0-4.10348z" fill="#fcdd09"/>
<path stroke-width="0.99999994" d="m263.94017-375.10728,1.66383-0.00002,0.418,0.30696,0,4.10348-2.5,0,0-4.10348z" fill="#fcdd09"/>
<path stroke-width="0.99999994" d="m276.62424-375.10728,1.66383-0.00002,0.418,0.30696,0,4.10348-2.5,0,0-4.10348z" fill="#fcdd09"/>
<path stroke-width="1" d="m281.14244-356.25747-20.15681,0,0.00009-14.21982,1.85611-1.32682,16.44436,0,1.85613,1.32682z" fill="#fcdd09"/>
<path stroke-width="1" d="m262.84217-371.80423,0,15.26723" fill="none"/>
<path stroke-width="1" d="m279.28582-371.80423,0,15.26723" fill="none"/>
<path stroke-width="1" d="m273.08619-363.0636,2.44099-0.00003,0.61325,0.43259,0,5.78301-3.66776,0,0-5.78301z" fill="#fcdd09"/>
<path stroke-width="1" d="m266.60285-363.0636,2.44099-0.00003,0.61325,0.43259,0,5.78301-3.66776,0,0-5.78301z" fill="#fcdd09"/>
<path stroke-width="1" d="m260.11953-363.0636,2.44098-0.00003,0.61325,0.43259,0,5.78301-3.66776,0,0-5.78301z" fill="#fcdd09"/>
<path stroke-width="1" d="m279.56952-363.0636,2.44099-0.00003,0.61325,0.43259,0,5.78301-3.66776,0,0-5.78301z" fill="#fcdd09"/>
<path stroke-width="1" d="m258.983-357.35855,24.16318,0,2.71782,2.39377,0,3.03578-3.02589,2.69466,0,23.34234,4.22631,3.28707,0,4.49763-32,0,0-4.49763,4.22651-3.28707,0-23.34234-3.02693-2.69466,0-3.03578z" fill="#fcdd09"/>
<path stroke-width="1" d="m256.264-351.92899,2.719-2.02388,24.16318,0,2.71782,2.02388" fill="none"/>
<path stroke-width="1" d="m259.29108-349.23433,2.25192-1.51987,19.04327,0,2.25162,1.51987" fill="none"/>
<path stroke-width="1" d="m255.06442-318.1073,3.01858-2.1937,25.96318,0,3.01824,2.1937" fill="none"/>
<path stroke-width="1" d="m255.06442-322.60481,3.01858-2.09386,25.96318,0,3.01824,2.09386" fill="none"/>
<path stroke-width="1" d="m261.543-328.20741,19.04327,0" fill="none"/>
<path stroke-width="1" d="m258.983-357.35855,0,3.40568,2.56,3.19869,0,22.54695-3.46,3.50855,0,4.3975" fill="none"/>
<path stroke-width="1" d="m283.14582-357.35855,0,3.40568-2.5601,3.19869,0,22.54695,3.4601,3.50855,0,4.3975" fill="none"/>
<path stroke-width="1" d="m274.906-340.0542,0,11.84675-7.683,0,0-11.84675z" fill="#4d87ca"/>
</g>
<g stroke="#000" stroke-width="1" stroke-dasharray="none" transform="matrix(0.36684529,-0.93028196,0.93028196,0.36684529,605.35013,132.13207)">
<path d="m182.53128-486.61523,3.76789-0.00003,1.29423,1.25464,0,5.10219-6.35607,0,0-5.10219z" fill="#fcdd09"/>
<path d="m182.53128-486.61523,0,6.3568" fill="none"/>
<path d="m186.29936-486.61523,0,6.3568" fill="none"/>
<path d="m172.74896-486.61523,3.76789-0.00003,1.29423,1.25464,0,5.10219-6.35608,0,0-5.10219z" fill="#fcdd09"/>
<path d="m172.74896-486.61523,0,6.3568" fill="none"/>
<path d="m176.51703-486.61523,0,6.3568" fill="none"/>
<path d="m192.31395-486.61523,3.76789-0.00003,1.29424,1.25464,0,5.10219-6.35608,0,0-5.10219z" fill="#fcdd09"/>
<path d="m192.31395-486.61523,0,6.3568" fill="none"/>
<path d="m196.08204-486.61523,0,6.3568" fill="none"/>
<path d="m172.998-481.29639-3.20498,2.72756,0,15.32878,29.24477,0,0-15.32878-3.20479-2.72756z" fill="#fcdd09"/>
<path d="m172.99778-481.29626,0,16.38041" fill="none"/>
<path d="m195.83294-481.29626,0,16.38041" fill="none"/>
<path d="m172.74896-471.96506,3.76789-0.00003,1.29423,1.25464,0,5.10219-6.35608,0,0-5.10219z" fill="#fcdd09"/>
<path d="m176.51703-471.96506,0,6.3568" fill="none"/>
<path d="m172.74896-471.96506,0,6.3568" fill="none"/>
<path d="m182.53128-471.96506,3.76789-0.00003,1.29423,1.25464,0,5.10219-6.35607,0,0-5.10219z" fill="#fcdd09"/>
<path d="m186.29936-471.96506,0,6.3568" fill="none"/>
<path d="m182.53128-471.96506,0,6.3568" fill="none"/>
<path d="m192.31395-471.96506,3.76789-0.00003,1.29424,1.25464,0,5.10219-6.35608,0,0-5.10219z" fill="#fcdd09"/>
<path d="m192.31395-471.96506,0,6.3568" fill="none"/>
<path d="m196.08204-471.96506,0,6.3568" fill="none"/>
<path d="m170.02152-466.69126,28.78815,0,4.2057,3.142,0,1.984-3.28823,2.46517,0,19.2089,3.28823,3.4625,0,4.81343-37.2,0,0-4.81343,3.28863-3.4625,0-19.2089-3.28863-2.46517,0-1.984z" fill="#fcdd09"/>
<path d="m165.81537-461.56526,4.20615-2.84405,28.78815,0,4.2057,2.84405" fill="none"/>
<path d="m169.104-459.10009,3.89403-2.54321,22.83512,0,3.89372,2.54321" fill="none"/>
<path d="m165.81537-431.61526,4.10663-2.14326,28.98723,0,4.10614,2.14326" fill="none"/>
<path d="m165.81537-436.42855,4.10663-2.04306,28.98723,0,4.10614,2.04306" fill="none"/>
<path d="m169.104-439.89133,3.89403-1.64294,22.83512,0,3.89372,1.64294" fill="none"/>
<path d="m170.02152-466.69144,0,2.28224,2.97651,2.76601,0,20.10916-3.07603,3.06239,0,4.71291" fill="none"/>
<path d="m198.80922-466.69144,0,2.28224-2.97671,2.76601,0,20.10916,3.07627,3.06239,0,4.71291" fill="none"/>
<path d="m184.41538-454.56616c2.6649,0,4.8103,2.38361,4.8103,4.9718v8.06074h-9.62062v-8.06074c0-2.58819,2.1454-4.9718,4.81032-4.9718z" fill="#4d87ca"/>
</g>
<g stroke="#000" stroke-width="1" stroke-dasharray="none" transform="translate(-1.3178539e-6,-53.212392)">
<path d="m182.53128-486.61523,3.76789-0.00003,1.29423,1.25464,0,5.10219-6.35607,0,0-5.10219z" fill="#fcdd09"/>
<path d="m182.53128-486.61523,0,6.3568" fill="none"/>
<path d="m186.29936-486.61523,0,6.3568" fill="none"/>
<path d="m173.14908-486.61523,3.76789-0.00003,1.29423,1.25464,0,5.10219-6.35608,0,0-5.10219z" fill="#fcdd09"/>
<path d="m173.14908-486.61523,0,6.3568" fill="none"/>
<path d="m176.91715-486.61523,0,6.3568" fill="none"/>
<path d="m191.91411-486.61523,3.76789-0.00003,1.29424,1.25464,0,5.10219-6.35608,0,0-5.10219z" fill="#fcdd09"/>
<path d="m191.91411-486.61523,0,6.3568" fill="none"/>
<path d="m195.6822-486.61523,0,6.3568" fill="none"/>
<path d="m170.89111-481.29639-2.82883,1.92827,0,1.0215,1.73074,1.12305,0,13.98352,29.24477,0,0-13.98352,1.73074-1.12305,0-1.0215-2.82892-1.92827z" fill="#fcdd09"/>
<path d="m170.89154-481.29639,0,1.12184,2.10624,1.33835,0,13.92035" fill="none"/>
<path d="m197.93919-481.29639,0,1.12184-2.10625,1.33835,0,13.92035" fill="none"/>
<path d="m170.02152-466.69161,28.78815,0,4.2057,2.84276,0,2.28323-3.28823,2.266,0,20.30869,3.28823,2.96224,0,4.41343-37.2,0,0-4.41343,3.28863-2.96224,0-20.30869-3.28863-2.266,0-2.28323z" fill="#fcdd09"/>
<path d="m165.81537-461.56562,4.20615-2.74331,28.78815,0,4.2057,2.74331" fill="none"/>
<path d="m169.104-459.29962,3.89403-2.34368,22.83512,0,3.89372,2.34368" fill="none"/>
<path d="m165.81537-431.61526,4.20615-2.64326,28.78815,0,4.2057,2.64326" fill="none"/>
<path d="m165.81537-436.02855,4.20615-2.74316,28.78815,0,4.2057,2.74316" fill="none"/>
<path d="m169.104-438.99107,3.89403-2.5432,22.83512,0,3.89372,2.5432" fill="none"/>
<path d="m170.02152-466.69161,0,2.38279,2.97651,2.66563,0,20.10916-2.97651,2.76229,0,4.51301" fill="none"/>
<path d="m198.80922-466.69161,0,2.38279-2.97671,2.66563,0,20.10916,2.97671,2.76229,0,4.51301" fill="none"/>
<path d="m200.76853-478.34662-2.82892-1.82801-27.0485,0-2.82883,1.82801" fill="none"/>
<path d="m169.79326-477.22357,3.20411-1.61269,22.83599,0,3.20419,1.61269" fill="none"/>
<path d="m184.41538-454.66645c2.6649,0,4.8103,2.38361,4.8103,4.9718v8.16103h-9.62062v-8.16103c0-2.58819,2.1454-4.9718,4.81032-4.9718z" fill="#4d87ca"/>
<path d="m187.395-473.38539,0,6.69376-5.959,0,0-6.69376s0.90033-0.66914,2.97937-0.66914,2.97963,0.66914,2.97963,0.66914z" fill="#4d87ca"/>
</g>
<g transform="translate(-70.88033,-608.8812)" stroke="#000" stroke-dasharray="none" stroke-width="1" fill="#fcdd09">
<path d="m400.1844,223.6812-3.70266,5.24002,3.70266,0z"/>
<path d="m400.92347,232.4242-3.16685,0-0.00007,4.15329-3.62422,0,0-8.34646,6.05207,0,0-4.54983,4.21267,0,0,12.89629-3.47337,0z"/>
</g>
<g stroke="#000" stroke-width="1" stroke-dasharray="none" transform="translate(-70.32641,-607.81525)">
<path d="m398.86772,238.65157,11.65734,0,0,14.83495,4.204,0,2.959,2.25567,0,24.966-4.19793,0-1.71414-1.907,0-7.771-4.14593,0,0,7.771-1.49987,1.907-7.26247,0-1.28131-2.30247,0-38.60291z" fill="#fcdd09"/>
<path d="m398.86772,238.65157,0,42.05662" fill="none"/>
<path d="m417.68806,255.74219-18.82034,0" fill="none"/>
<path d="m417.68806,258.88719-18.82034,0" fill="none"/>
<path d="m410.52506,253.48652-11.65734,0" fill="none"/>
<path d="m404.63816,244.35943c1.06484,0,1.9221,0.89417,1.9221,2.00488v7.12221h-3.8442v-7.12221c0-1.11071,0.85727-2.00488,1.9221-2.00488z" fill="#ed1c24"/>
<path d="m407.63006,271.03019-1.49987,0,0,9.678" fill="none"/>
<path d="m411.77599,271.03019,1.71413,0,0,9.678" fill="none"/>
</g>
<g stroke="#000" stroke-width="0.99999994" stroke-dasharray="none" transform="translate(0.72941,1.12038)">
<path d="m288.25861-484.26033,27.65487,0,3.93616,3.96381,4.23632,5.89597-44,0,4.23669-5.89597z" fill="#fcdd09"/>
<path d="m318.27578-478.42133,5.81018,4.02078-44,0,5.81055-4.02078z" fill="none"/>
<path d="m285.89678-478.42133,2.36209-5.839" fill="none"/>
<path d="m318.27551-478.42133-2.36203-5.839" fill="none"/>
</g>
<g stroke="#000" stroke-width="1" stroke-dasharray="none" transform="translate(-1.3178539e-6,12.16917)">
<path d="m182.53128-486.61523,3.76789-0.00003,1.29423,1.25464,0,5.10219-6.35607,0,0-5.10219z" fill="#fcdd09"/>
<path d="m182.53128-486.61523,0,6.3568" fill="none"/>
<path d="m186.29936-486.61523,0,6.3568" fill="none"/>
<path d="m172.74896-486.61523,3.76789-0.00003,1.29423,1.25464,0,5.10219-6.35608,0,0-5.10219z" fill="#fcdd09"/>
<path d="m172.74896-486.61523,0,6.3568" fill="none"/>
<path d="m176.51703-486.61523,0,6.3568" fill="none"/>
<path d="m192.31395-486.61523,3.76789-0.00003,1.29424,1.25464,0,5.10219-6.35608,0,0-5.10219z" fill="#fcdd09"/>
<path d="m192.31395-486.61523,0,6.3568" fill="none"/>
<path d="m196.08204-486.61523,0,6.3568" fill="none"/>
<path d="m172.998-481.29639-3.20498,2.72756,0,15.32878,29.24477,0,0-15.32878-3.20479-2.72756z" fill="#fcdd09"/>
<path d="m172.99778-481.29626,0,16.38041" fill="none"/>
<path d="m195.83294-481.29626,0,16.38041" fill="none"/>
<path d="m172.74896-471.96506,3.76789-0.00003,1.29423,1.25464,0,5.10219-6.35608,0,0-5.10219z" fill="#fcdd09"/>
<path d="m176.51703-471.96506,0,6.3568" fill="none"/>
<path d="m172.74896-471.96506,0,6.3568" fill="none"/>
<path d="m182.53128-471.96506,3.76789-0.00003,1.29423,1.25464,0,5.10219-6.35607,0,0-5.10219z" fill="#fcdd09"/>
<path d="m186.29936-471.96506,0,6.3568" fill="none"/>
<path d="m182.53128-471.96506,0,6.3568" fill="none"/>
<path d="m192.31395-471.96506,3.76789-0.00003,1.29424,1.25464,0,5.10219-6.35608,0,0-5.10219z" fill="#fcdd09"/>
<path d="m192.31395-471.96506,0,6.3568" fill="none"/>
<path d="m196.08204-471.96506,0,6.3568" fill="none"/>
<path d="m170.02152-466.69126,28.78815,0,4.2057,3.142,0,1.984-3.28823,2.46517,0,19.2089,3.28823,3.4625,0,4.81343-37.2,0,0-4.81343,3.28863-3.4625,0-19.2089-3.28863-2.46517,0-1.984z" fill="#fcdd09"/>
<path d="m165.81537-461.56526,4.20615-2.84405,28.78815,0,4.2057,2.84405" fill="none"/>
<path d="m169.104-459.10009,3.89403-2.54321,22.83512,0,3.89372,2.54321" fill="none"/>
<path d="m165.81537-431.61526,4.10663-2.14326,28.98723,0,4.10614,2.14326" fill="none"/>
<path d="m165.81537-436.42855,4.10663-2.04306,28.98723,0,4.10614,2.04306" fill="none"/>
<path d="m169.104-439.89133,3.89403-1.64294,22.83512,0,3.89372,1.64294" fill="none"/>
<path d="m170.02152-466.69144,0,2.28224,2.97651,2.76601,0,20.10916-3.07603,3.06239,0,4.71291" fill="none"/>
<path d="m198.80922-466.69144,0,2.28224-2.97671,2.76601,0,20.10916,3.07627,3.06239,0,4.71291" fill="none"/>
<path d="m184.41538-454.56616c2.6649,0,4.8103,2.38361,4.8103,4.9718v8.06074h-9.62062v-8.06074c0-2.58819,2.1454-4.9718,4.81032-4.9718z" fill="#4d87ca"/>
</g>
<g stroke="#000" stroke-width="1" stroke-dasharray="none" transform="translate(236.80002,-53.212392)">
<path d="m182.53128-486.61523,3.76789-0.00003,1.29423,1.25464,0,5.10219-6.35607,0,0-5.10219z" fill="#fcdd09"/>
<path d="m182.53128-486.61523,0,6.3568" fill="none"/>
<path d="m186.29936-486.61523,0,6.3568" fill="none"/>
<path d="m173.14908-486.61523,3.76789-0.00003,1.29423,1.25464,0,5.10219-6.35608,0,0-5.10219z" fill="#fcdd09"/>
<path d="m173.14908-486.61523,0,6.3568" fill="none"/>
<path d="m176.91715-486.61523,0,6.3568" fill="none"/>
<path d="m191.91411-486.61523,3.76789-0.00003,1.29424,1.25464,0,5.10219-6.35608,0,0-5.10219z" fill="#fcdd09"/>
<path d="m191.91411-486.61523,0,6.3568" fill="none"/>
<path d="m195.6822-486.61523,0,6.3568" fill="none"/>
<path d="m170.89111-481.29639-2.82883,1.92827,0,1.0215,1.73074,1.12305,0,13.98352,29.24477,0,0-13.98352,1.73074-1.12305,0-1.0215-2.82892-1.92827z" fill="#fcdd09"/>
<path d="m170.89154-481.29639,0,1.12184,2.10624,1.33835,0,13.92035" fill="none"/>
<path d="m197.93919-481.29639,0,1.12184-2.10625,1.33835,0,13.92035" fill="none"/>
<path d="m170.02152-466.69161,28.78815,0,4.2057,2.84276,0,2.28323-3.28823,2.266,0,20.30869,3.28823,2.96224,0,4.41343-37.2,0,0-4.41343,3.28863-2.96224,0-20.30869-3.28863-2.266,0-2.28323z" fill="#fcdd09"/>
<path d="m165.81537-461.56562,4.20615-2.74331,28.78815,0,4.2057,2.74331" fill="none"/>
<path d="m169.104-459.29962,3.89403-2.34368,22.83512,0,3.89372,2.34368" fill="none"/>
<path d="m165.81537-431.61526,4.20615-2.64326,28.78815,0,4.2057,2.64326" fill="none"/>
<path d="m165.81537-436.02855,4.20615-2.74316,28.78815,0,4.2057,2.74316" fill="none"/>
<path d="m169.104-438.99107,3.89403-2.5432,22.83512,0,3.89372,2.5432" fill="none"/>
<path d="m170.02152-466.69161,0,2.38279,2.97651,2.66563,0,20.10916-2.97651,2.76229,0,4.51301" fill="none"/>
<path d="m198.80922-466.69161,0,2.38279-2.97671,2.66563,0,20.10916,2.97671,2.76229,0,4.51301" fill="none"/>
<path d="m200.76853-478.34662-2.82892-1.82801-27.0485,0-2.82883,1.82801" fill="none"/>
<path d="m169.79326-477.22357,3.20411-1.61269,22.83599,0,3.20419,1.61269" fill="none"/>
<path d="m184.41538-454.66645c2.6649,0,4.8103,2.38361,4.8103,4.9718v8.16103h-9.62062v-8.16103c0-2.58819,2.1454-4.9718,4.81032-4.9718z" fill="#4d87ca"/>
<path d="m187.395-473.38539,0,6.69376-5.959,0,0-6.69376s0.90033-0.66914,2.97937-0.66914,2.97963,0.66914,2.97963,0.66914z" fill="#4d87ca"/>
</g>
<g stroke="#000" stroke-width="1" stroke-dasharray="none" transform="translate(236.8,12.16917)">
<path d="m182.53128-486.61523,3.76789-0.00003,1.29423,1.25464,0,5.10219-6.35607,0,0-5.10219z" fill="#fcdd09"/>
<path d="m182.53128-486.61523,0,6.3568" fill="none"/>
<path d="m186.29936-486.61523,0,6.3568" fill="none"/>
<path d="m172.74896-486.61523,3.76789-0.00003,1.29423,1.25464,0,5.10219-6.35608,0,0-5.10219z" fill="#fcdd09"/>
<path d="m172.74896-486.61523,0,6.3568" fill="none"/>
<path d="m176.51703-486.61523,0,6.3568" fill="none"/>
<path d="m192.31395-486.61523,3.76789-0.00003,1.29424,1.25464,0,5.10219-6.35608,0,0-5.10219z" fill="#fcdd09"/>
<path d="m192.31395-486.61523,0,6.3568" fill="none"/>
<path d="m196.08204-486.61523,0,6.3568" fill="none"/>
<path d="m172.998-481.29639-3.20498,2.72756,0,15.32878,29.24477,0,0-15.32878-3.20479-2.72756z" fill="#fcdd09"/>
<path d="m172.99778-481.29626,0,16.38041" fill="none"/>
<path d="m195.83294-481.29626,0,16.38041" fill="none"/>
<path d="m172.74896-471.96506,3.76789-0.00003,1.29423,1.25464,0,5.10219-6.35608,0,0-5.10219z" fill="#fcdd09"/>
<path d="m176.51703-471.96506,0,6.3568" fill="none"/>
<path d="m172.74896-471.96506,0,6.3568" fill="none"/>
<path d="m182.53128-471.96506,3.76789-0.00003,1.29423,1.25464,0,5.10219-6.35607,0,0-5.10219z" fill="#fcdd09"/>
<path d="m186.29936-471.96506,0,6.3568" fill="none"/>
<path d="m182.53128-471.96506,0,6.3568" fill="none"/>
<path d="m192.31395-471.96506,3.76789-0.00003,1.29424,1.25464,0,5.10219-6.35608,0,0-5.10219z" fill="#fcdd09"/>
<path d="m192.31395-471.96506,0,6.3568" fill="none"/>
<path d="m196.08204-471.96506,0,6.3568" fill="none"/>
<path d="m170.02152-466.69126,28.78815,0,4.2057,3.142,0,1.984-3.28823,2.46517,0,19.2089,3.28823,3.4625,0,4.81343-37.2,0,0-4.81343,3.28863-3.4625,0-19.2089-3.28863-2.46517,0-1.984z" fill="#fcdd09"/>
<path d="m165.81537-461.56526,4.20615-2.84405,28.78815,0,4.2057,2.84405" fill="none"/>
<path d="m169.104-459.10009,3.89403-2.54321,22.83512,0,3.89372,2.54321" fill="none"/>
<path d="m165.81537-431.61526,4.10663-2.14326,28.98723,0,4.10614,2.14326" fill="none"/>
<path d="m165.81537-436.42855,4.10663-2.04306,28.98723,0,4.10614,2.04306" fill="none"/>
<path d="m169.104-439.89133,3.89403-1.64294,22.83512,0,3.89372,1.64294" fill="none"/>
<path d="m170.02152-466.69144,0,2.28224,2.97651,2.76601,0,20.10916-3.07603,3.06239,0,4.71291" fill="none"/>
<path d="m198.80922-466.69144,0,2.28224-2.97671,2.76601,0,20.10916,3.07627,3.06239,0,4.71291" fill="none"/>
<path d="m184.41538-454.56616c2.6649,0,4.8103,2.38361,4.8103,4.9718v8.06074h-9.62062v-8.06074c0-2.58819,2.1454-4.9718,4.81032-4.9718z" fill="#4d87ca"/>
</g>
<g stroke="#000" stroke-width="1" stroke-dasharray="none" transform="translate(236.8,77.550731)">
<path d="m182.53128-486.61523,3.76789-0.00003,1.29423,1.25464,0,5.10219-6.35607,0,0-5.10219z" fill="#fcdd09"/>
<path d="m182.53128-486.61523,0,6.3568" fill="none"/>
<path d="m186.29936-486.61523,0,6.3568" fill="none"/>
<path d="m173.14908-486.61523,3.76789-0.00003,1.29423,1.25464,0,5.10219-6.35608,0,0-5.10219z" fill="#fcdd09"/>
<path d="m173.14908-486.61523,0,6.3568" fill="none"/>
<path d="m176.91715-486.61523,0,6.3568" fill="none"/>
<path d="m191.91411-486.61523,3.76789-0.00003,1.29424,1.25464,0,5.10219-6.35608,0,0-5.10219z" fill="#fcdd09"/>
<path d="m191.91411-486.61523,0,6.3568" fill="none"/>
<path d="m195.6822-486.61523,0,6.3568" fill="none"/>
<path d="m170.89111-481.29639-2.82883,1.92827,0,1.0215,1.73074,1.12305,0,13.98352,29.24477,0,0-13.98352,1.73074-1.12305,0-1.0215-2.82892-1.92827z" fill="#fcdd09"/>
<path d="m170.89154-481.29639,0,1.12184,2.10624,1.33835,0,13.92035" fill="none"/>
<path d="m197.93919-481.29639,0,1.12184-2.10625,1.33835,0,13.92035" fill="none"/>
<path d="m170.02152-466.69161,28.78815,0,4.2057,2.84276,0,2.28323-3.28823,2.266,0,20.30869,3.28823,2.96224,0,4.41343-37.2,0,0-4.41343,3.28863-2.96224,0-20.30869-3.28863-2.266,0-2.28323z" fill="#fcdd09"/>
<path d="m165.81537-461.56562,4.20615-2.74331,28.78815,0,4.2057,2.74331" fill="none"/>
<path d="m169.104-459.29962,3.89403-2.34368,22.83512,0,3.89372,2.34368" fill="none"/>
<path d="m165.81537-431.61526,4.20615-2.64326,28.78815,0,4.2057,2.64326" fill="none"/>
<path d="m165.81537-436.02855,4.20615-2.74316,28.78815,0,4.2057,2.74316" fill="none"/>
<path d="m169.104-438.99107,3.89403-2.5432,22.83512,0,3.89372,2.5432" fill="none"/>
<path d="m170.02152-466.69161,0,2.38279,2.97651,2.66563,0,20.10916-2.97651,2.76229,0,4.51301" fill="none"/>
<path d="m198.80922-466.69161,0,2.38279-2.97671,2.66563,0,20.10916,2.97671,2.76229,0,4.51301" fill="none"/>
<path d="m200.76853-478.34662-2.82892-1.82801-27.0485,0-2.82883,1.82801" fill="none"/>
<path d="m169.79326-477.22357,3.20411-1.61269,22.83599,0,3.20419,1.61269" fill="none"/>
<path d="m184.41538-454.66645c2.6649,0,4.8103,2.38361,4.8103,4.9718v8.16103h-9.62062v-8.16103c0-2.58819,2.1454-4.9718,4.81032-4.9718z" fill="#4d87ca"/>
<path d="m187.395-473.38539,0,6.69376-5.959,0,0-6.69376s0.90033-0.66914,2.97937-0.66914,2.97963,0.66914,2.97963,0.66914z" fill="#4d87ca"/>
</g>
<g stroke="#000" stroke-width="1" stroke-dasharray="none" transform="translate(236.8,142.93226)">
<path d="m182.53128-486.61523,3.76789-0.00003,1.29423,1.25464,0,5.10219-6.35607,0,0-5.10219z" fill="#fcdd09"/>
<path d="m182.53128-486.61523,0,6.3568" fill="none"/>
<path d="m186.29936-486.61523,0,6.3568" fill="none"/>
<path d="m172.74896-486.61523,3.76789-0.00003,1.29423,1.25464,0,5.10219-6.35608,0,0-5.10219z" fill="#fcdd09"/>
<path d="m172.74896-486.61523,0,6.3568" fill="none"/>
<path d="m176.51703-486.61523,0,6.3568" fill="none"/>
<path d="m192.31395-486.61523,3.76789-0.00003,1.29424,1.25464,0,5.10219-6.35608,0,0-5.10219z" fill="#fcdd09"/>
<path d="m192.31395-486.61523,0,6.3568" fill="none"/>
<path d="m196.08204-486.61523,0,6.3568" fill="none"/>
<path d="m172.998-481.29639-3.20498,2.72756,0,15.32878,29.24477,0,0-15.32878-3.20479-2.72756z" fill="#fcdd09"/>
<path d="m172.99778-481.29626,0,16.38041" fill="none"/>
<path d="m195.83294-481.29626,0,16.38041" fill="none"/>
<path d="m172.74896-471.96506,3.76789-0.00003,1.29423,1.25464,0,5.10219-6.35608,0,0-5.10219z" fill="#fcdd09"/>
<path d="m176.51703-471.96506,0,6.3568" fill="none"/>
<path d="m172.74896-471.96506,0,6.3568" fill="none"/>
<path d="m182.53128-471.96506,3.76789-0.00003,1.29423,1.25464,0,5.10219-6.35607,0,0-5.10219z" fill="#fcdd09"/>
<path d="m186.29936-471.96506,0,6.3568" fill="none"/>
<path d="m182.53128-471.96506,0,6.3568" fill="none"/>
<path d="m192.31395-471.96506,3.76789-0.00003,1.29424,1.25464,0,5.10219-6.35608,0,0-5.10219z" fill="#fcdd09"/>
<path d="m192.31395-471.96506,0,6.3568" fill="none"/>
<path d="m196.08204-471.96506,0,6.3568" fill="none"/>
<path d="m170.02152-466.69126,28.78815,0,4.2057,3.142,0,1.984-3.28823,2.46517,0,19.2089,3.28823,3.4625,0,4.81343-37.2,0,0-4.81343,3.28863-3.4625,0-19.2089-3.28863-2.46517,0-1.984z" fill="#fcdd09"/>
<path d="m165.81537-461.56526,4.20615-2.84405,28.78815,0,4.2057,2.84405" fill="none"/>
<path d="m169.104-459.10009,3.89403-2.54321,22.83512,0,3.89372,2.54321" fill="none"/>
<path d="m165.81537-431.61526,4.10663-2.14326,28.98723,0,4.10614,2.14326" fill="none"/>
<path d="m165.81537-436.42855,4.10663-2.04306,28.98723,0,4.10614,2.04306" fill="none"/>
<path d="m169.104-439.89133,3.89403-1.64294,22.83512,0,3.89372,1.64294" fill="none"/>
<path d="m170.02152-466.69144,0,2.28224,2.97651,2.76601,0,20.10916-3.07603,3.06239,0,4.71291" fill="none"/>
<path d="m198.80922-466.69144,0,2.28224-2.97671,2.76601,0,20.10916,3.07627,3.06239,0,4.71291" fill="none"/>
<path d="m184.41538-454.56616c2.6649,0,4.8103,2.38361,4.8103,4.9718v8.06074h-9.62062v-8.06074c0-2.58819,2.1454-4.9718,4.81032-4.9718z" fill="#4d87ca"/>
</g>
<g stroke="#000" stroke-width="1" stroke-dasharray="none" transform="matrix(0.86596961,0.50009661,-0.50009661,0.86596961,17.9496,53.770242)">
<path d="m182.53128-486.61523,3.76789-0.00003,1.29423,1.25464,0,5.10219-6.35607,0,0-5.10219z" fill="#fcdd09"/>
<path d="m182.53128-486.61523,0,6.3568" fill="none"/>
<path d="m186.29936-486.61523,0,6.3568" fill="none"/>
<path d="m173.14908-486.61523,3.76789-0.00003,1.29423,1.25464,0,5.10219-6.35608,0,0-5.10219z" fill="#fcdd09"/>
<path d="m173.14908-486.61523,0,6.3568" fill="none"/>
<path d="m176.91715-486.61523,0,6.3568" fill="none"/>
<path d="m191.91411-486.61523,3.76789-0.00003,1.29424,1.25464,0,5.10219-6.35608,0,0-5.10219z" fill="#fcdd09"/>
<path d="m191.91411-486.61523,0,6.3568" fill="none"/>
<path d="m195.6822-486.61523,0,6.3568" fill="none"/>
<path d="m170.89111-481.29639-2.82883,1.92827,0,1.0215,1.73074,1.12305,0,13.98352,29.24477,0,0-13.98352,1.73074-1.12305,0-1.0215-2.82892-1.92827z" fill="#fcdd09"/>
<path d="m170.89154-481.29639,0,1.12184,2.10624,1.33835,0,13.92035" fill="none"/>
<path d="m197.93919-481.29639,0,1.12184-2.10625,1.33835,0,13.92035" fill="none"/>
<path d="m170.02152-466.69161,28.78815,0,4.2057,2.84276,0,2.28323-3.28823,2.266,0,20.30869,3.28823,2.96224,0,4.41343-37.2,0,0-4.41343,3.28863-2.96224,0-20.30869-3.28863-2.266,0-2.28323z" fill="#fcdd09"/>
<path d="m165.81537-461.56562,4.20615-2.74331,28.78815,0,4.2057,2.74331" fill="none"/>
<path d="m169.104-459.29962,3.89403-2.34368,22.83512,0,3.89372,2.34368" fill="none"/>
<path d="m165.81537-431.61526,4.20615-2.64326,28.78815,0,4.2057,2.64326" fill="none"/>
<path d="m165.81537-436.02855,4.20615-2.74316,28.78815,0,4.2057,2.74316" fill="none"/>
<path d="m169.104-438.99107,3.89403-2.5432,22.83512,0,3.89372,2.5432" fill="none"/>
<path d="m170.02152-466.69161,0,2.38279,2.97651,2.66563,0,20.10916-2.97651,2.76229,0,4.51301" fill="none"/>
<path d="m198.80922-466.69161,0,2.38279-2.97671,2.66563,0,20.10916,2.97671,2.76229,0,4.51301" fill="none"/>
<path d="m200.76853-478.34662-2.82892-1.82801-27.0485,0-2.82883,1.82801" fill="none"/>
<path d="m169.79326-477.22357,3.20411-1.61269,22.83599,0,3.20419,1.61269" fill="none"/>
<path d="m184.41538-454.66645c2.6649,0,4.8103,2.38361,4.8103,4.9718v8.16103h-9.62062v-8.16103c0-2.58819,2.1454-4.9718,4.81032-4.9718z" fill="#4d87ca"/>
<path d="m187.395-473.38539,0,6.69376-5.959,0,0-6.69376s0.90033-0.66914,2.97937-0.66914,2.97963,0.66914,2.97963,0.66914z" fill="#4d87ca"/>
</g>
<g stroke="#000" stroke-width="1" stroke-dasharray="none" transform="matrix(-0.86596961,0.50009661,0.50009661,0.86596961,587.68082,53.770242)">
<path d="m182.53128-486.61523,3.76789-0.00003,1.29423,1.25464,0,5.10219-6.35607,0,0-5.10219z" fill="#fcdd09"/>
<path d="m182.53128-486.61523,0,6.3568" fill="none"/>
<path d="m186.29936-486.61523,0,6.3568" fill="none"/>
<path d="m173.14908-486.61523,3.76789-0.00003,1.29423,1.25464,0,5.10219-6.35608,0,0-5.10219z" fill="#fcdd09"/>
<path d="m173.14908-486.61523,0,6.3568" fill="none"/>
<path d="m176.91715-486.61523,0,6.3568" fill="none"/>
<path d="m191.91411-486.61523,3.76789-0.00003,1.29424,1.25464,0,5.10219-6.35608,0,0-5.10219z" fill="#fcdd09"/>
<path d="m191.91411-486.61523,0,6.3568" fill="none"/>
<path d="m195.6822-486.61523,0,6.3568" fill="none"/>
<path d="m170.89111-481.29639-2.82883,1.92827,0,1.0215,1.73074,1.12305,0,13.98352,29.24477,0,0-13.98352,1.73074-1.12305,0-1.0215-2.82892-1.92827z" fill="#fcdd09"/>
<path d="m170.89154-481.29639,0,1.12184,2.10624,1.33835,0,13.92035" fill="none"/>
<path d="m197.93919-481.29639,0,1.12184-2.10625,1.33835,0,13.92035" fill="none"/>
<path d="m170.02152-466.69161,28.78815,0,4.2057,2.84276,0,2.28323-3.28823,2.266,0,20.30869,3.28823,2.96224,0,4.41343-37.2,0,0-4.41343,3.28863-2.96224,0-20.30869-3.28863-2.266,0-2.28323z" fill="#fcdd09"/>
<path d="m165.81537-461.56562,4.20615-2.74331,28.78815,0,4.2057,2.74331" fill="none"/>
<path d="m169.104-459.29962,3.89403-2.34368,22.83512,0,3.89372,2.34368" fill="none"/>
<path d="m165.81537-431.61526,4.20615-2.64326,28.78815,0,4.2057,2.64326" fill="none"/>
<path d="m165.81537-436.02855,4.20615-2.74316,28.78815,0,4.2057,2.74316" fill="none"/>
<path d="m169.104-438.99107,3.89403-2.5432,22.83512,0,3.89372,2.5432" fill="none"/>
<path d="m170.02152-466.69161,0,2.38279,2.97651,2.66563,0,20.10916-2.97651,2.76229,0,4.51301" fill="none"/>
<path d="m198.80922-466.69161,0,2.38279-2.97671,2.66563,0,20.10916,2.97671,2.76229,0,4.51301" fill="none"/>
<path d="m200.76853-478.34662-2.82892-1.82801-27.0485,0-2.82883,1.82801" fill="none"/>
<path d="m169.79326-477.22357,3.20411-1.61269,22.83599,0,3.20419,1.61269" fill="none"/>
<path d="m184.41538-454.66645c2.6649,0,4.8103,2.38361,4.8103,4.9718v8.16103h-9.62062v-8.16103c0-2.58819,2.1454-4.9718,4.81032-4.9718z" fill="#4d87ca"/>
<path d="m187.395-473.38539,0,6.69376-5.959,0,0-6.69376s0.90033-0.66914,2.97937-0.66914,2.97963,0.66914,2.97963,0.66914z" fill="#4d87ca"/>
</g>
<g stroke="#000" stroke-width="1" stroke-dasharray="none" transform="matrix(-0.36684529,-0.93028196,-0.93028196,0.36684529,0.28061,132.13207)">
<path d="m182.53128-486.61523,3.76789-0.00003,1.29423,1.25464,0,5.10219-6.35607,0,0-5.10219z" fill="#fcdd09"/>
<path d="m182.53128-486.61523,0,6.3568" fill="none"/>
<path d="m186.29936-486.61523,0,6.3568" fill="none"/>
<path d="m172.74896-486.61523,3.76789-0.00003,1.29423,1.25464,0,5.10219-6.35608,0,0-5.10219z" fill="#fcdd09"/>
<path d="m172.74896-486.61523,0,6.3568" fill="none"/>
<path d="m176.51703-486.61523,0,6.3568" fill="none"/>
<path d="m192.31395-486.61523,3.76789-0.00003,1.29424,1.25464,0,5.10219-6.35608,0,0-5.10219z" fill="#fcdd09"/>
<path d="m192.31395-486.61523,0,6.3568" fill="none"/>
<path d="m196.08204-486.61523,0,6.3568" fill="none"/>
<path d="m172.998-481.29639-3.20498,2.72756,0,15.32878,29.24477,0,0-15.32878-3.20479-2.72756z" fill="#fcdd09"/>
<path d="m172.99778-481.29626,0,16.38041" fill="none"/>
<path d="m195.83294-481.29626,0,16.38041" fill="none"/>
<path d="m172.74896-471.96506,3.76789-0.00003,1.29423,1.25464,0,5.10219-6.35608,0,0-5.10219z" fill="#fcdd09"/>
<path d="m176.51703-471.96506,0,6.3568" fill="none"/>
<path d="m172.74896-471.96506,0,6.3568" fill="none"/>
<path d="m182.53128-471.96506,3.76789-0.00003,1.29423,1.25464,0,5.10219-6.35607,0,0-5.10219z" fill="#fcdd09"/>
<path d="m186.29936-471.96506,0,6.3568" fill="none"/>
<path d="m182.53128-471.96506,0,6.3568" fill="none"/>
<path d="m192.31395-471.96506,3.76789-0.00003,1.29424,1.25464,0,5.10219-6.35608,0,0-5.10219z" fill="#fcdd09"/>
<path d="m192.31395-471.96506,0,6.3568" fill="none"/>
<path d="m196.08204-471.96506,0,6.3568" fill="none"/>
<path d="m170.02152-466.69126,28.78815,0,4.2057,3.142,0,1.984-3.28823,2.46517,0,19.2089,3.28823,3.4625,0,4.81343-37.2,0,0-4.81343,3.28863-3.4625,0-19.2089-3.28863-2.46517,0-1.984z" fill="#fcdd09"/>
<path d="m165.81537-461.56526,4.20615-2.84405,28.78815,0,4.2057,2.84405" fill="none"/>
<path d="m169.104-459.10009,3.89403-2.54321,22.83512,0,3.89372,2.54321" fill="none"/>
<path d="m165.81537-431.61526,4.10663-2.14326,28.98723,0,4.10614,2.14326" fill="none"/>
<path d="m165.81537-436.42855,4.10663-2.04306,28.98723,0,4.10614,2.04306" fill="none"/>
<path d="m169.104-439.89133,3.89403-1.64294,22.83512,0,3.89372,1.64294" fill="none"/>
<path d="m170.02152-466.69144,0,2.28224,2.97651,2.76601,0,20.10916-3.07603,3.06239,0,4.71291" fill="none"/>
<path d="m198.80922-466.69144,0,2.28224-2.97671,2.76601,0,20.10916,3.07627,3.06239,0,4.71291" fill="none"/>
<path d="m184.41538-454.56616c2.6649,0,4.8103,2.38361,4.8103,4.9718v8.06074h-9.62062v-8.06074c0-2.58819,2.1454-4.9718,4.81032-4.9718z" fill="#4d87ca"/>
</g>
<g stroke="#000" stroke-width="1" stroke-dasharray="none" transform="translate(118.4,-53.212392)">
<path d="m182.53128-486.61523,3.76789-0.00003,1.29423,1.25464,0,5.10219-6.35607,0,0-5.10219z" fill="#fcdd09"/>
<path d="m182.53128-486.61523,0,6.3568" fill="none"/>
<path d="m186.29936-486.61523,0,6.3568" fill="none"/>
<path d="m173.14908-486.61523,3.76789-0.00003,1.29423,1.25464,0,5.10219-6.35608,0,0-5.10219z" fill="#fcdd09"/>
<path d="m173.14908-486.61523,0,6.3568" fill="none"/>
<path d="m176.91715-486.61523,0,6.3568" fill="none"/>
<path d="m191.91411-486.61523,3.76789-0.00003,1.29424,1.25464,0,5.10219-6.35608,0,0-5.10219z" fill="#fcdd09"/>
<path d="m191.91411-486.61523,0,6.3568" fill="none"/>
<path d="m195.6822-486.61523,0,6.3568" fill="none"/>
<path d="m170.89111-481.29639-2.82883,1.92827,0,1.0215,1.73074,1.12305,0,13.98352,29.24477,0,0-13.98352,1.73074-1.12305,0-1.0215-2.82892-1.92827z" fill="#fcdd09"/>
<path d="m170.89154-481.29639,0,1.12184,2.10624,1.33835,0,13.92035" fill="none"/>
<path d="m197.93919-481.29639,0,1.12184-2.10625,1.33835,0,13.92035" fill="none"/>
<path d="m170.02152-466.69161,28.78815,0,4.2057,2.84276,0,2.28323-3.28823,2.266,0,20.30869,3.28823,2.96224,0,4.41343-37.2,0,0-4.41343,3.28863-2.96224,0-20.30869-3.28863-2.266,0-2.28323z" fill="#fcdd09"/>
<path d="m165.81537-461.56562,4.20615-2.74331,28.78815,0,4.2057,2.74331" fill="none"/>
<path d="m169.104-459.29962,3.89403-2.34368,22.83512,0,3.89372,2.34368" fill="none"/>
<path d="m165.81537-431.61526,4.20615-2.64326,28.78815,0,4.2057,2.64326" fill="none"/>
<path d="m165.81537-436.02855,4.20615-2.74316,28.78815,0,4.2057,2.74316" fill="none"/>
<path d="m169.104-438.99107,3.89403-2.5432,22.83512,0,3.89372,2.5432" fill="none"/>
<path d="m170.02152-466.69161,0,2.38279,2.97651,2.66563,0,20.10916-2.97651,2.76229,0,4.51301" fill="none"/>
<path d="m198.80922-466.69161,0,2.38279-2.97671,2.66563,0,20.10916,2.97671,2.76229,0,4.51301" fill="none"/>
<path d="m200.76853-478.34662-2.82892-1.82801-27.0485,0-2.82883,1.82801" fill="none"/>
<path d="m169.79326-477.22357,3.20411-1.61269,22.83599,0,3.20419,1.61269" fill="none"/>
<path d="m184.41538-454.66645c2.6649,0,4.8103,2.38361,4.8103,4.9718v8.16103h-9.62062v-8.16103c0-2.58819,2.1454-4.9718,4.81032-4.9718z" fill="#4d87ca"/>
<path d="m187.395-473.38539,0,6.69376-5.959,0,0-6.69376s0.90033-0.66914,2.97937-0.66914,2.97963,0.66914,2.97963,0.66914z" fill="#4d87ca"/>
</g>
<g stroke="#000" stroke-width="1" stroke-dasharray="none" transform="translate(59.200003,-53.212377)">
<path d="m182.53128-486.61523,3.76789-0.00003,1.29423,1.25464,0,5.10219-6.35607,0,0-5.10219z" fill="#fcdd09"/>
<path d="m182.53128-486.61523,0,6.3568" fill="none"/>
<path d="m186.29936-486.61523,0,6.3568" fill="none"/>
<path d="m172.74896-486.61523,3.76789-0.00003,1.29423,1.25464,0,5.10219-6.35608,0,0-5.10219z" fill="#fcdd09"/>
<path d="m172.74896-486.61523,0,6.3568" fill="none"/>
<path d="m176.51703-486.61523,0,6.3568" fill="none"/>
<path d="m192.31395-486.61523,3.76789-0.00003,1.29424,1.25464,0,5.10219-6.35608,0,0-5.10219z" fill="#fcdd09"/>
<path d="m192.31395-486.61523,0,6.3568" fill="none"/>
<path d="m196.08204-486.61523,0,6.3568" fill="none"/>
<path d="m172.998-481.29639-3.20498,2.72756,0,15.32878,29.24477,0,0-15.32878-3.20479-2.72756z" fill="#fcdd09"/>
<path d="m172.99778-481.29626,0,16.38041" fill="none"/>
<path d="m195.83294-481.29626,0,16.38041" fill="none"/>
<path d="m172.74896-471.96506,3.76789-0.00003,1.29423,1.25464,0,5.10219-6.35608,0,0-5.10219z" fill="#fcdd09"/>
<path d="m176.51703-471.96506,0,6.3568" fill="none"/>
<path d="m172.74896-471.96506,0,6.3568" fill="none"/>
<path d="m182.53128-471.96506,3.76789-0.00003,1.29423,1.25464,0,5.10219-6.35607,0,0-5.10219z" fill="#fcdd09"/>
<path d="m186.29936-471.96506,0,6.3568" fill="none"/>
<path d="m182.53128-471.96506,0,6.3568" fill="none"/>
<path d="m192.31395-471.96506,3.76789-0.00003,1.29424,1.25464,0,5.10219-6.35608,0,0-5.10219z" fill="#fcdd09"/>
<path d="m192.31395-471.96506,0,6.3568" fill="none"/>
<path d="m196.08204-471.96506,0,6.3568" fill="none"/>
<path d="m170.02152-466.69126,28.78815,0,4.2057,3.142,0,1.984-3.28823,2.46517,0,19.2089,3.28823,3.4625,0,4.81343-37.2,0,0-4.81343,3.28863-3.4625,0-19.2089-3.28863-2.46517,0-1.984z" fill="#fcdd09"/>
<path d="m165.81537-461.56526,4.20615-2.84405,28.78815,0,4.2057,2.84405" fill="none"/>
<path d="m169.104-459.10009,3.89403-2.54321,22.83512,0,3.89372,2.54321" fill="none"/>
<path d="m165.81537-431.61526,4.10663-2.14326,28.98723,0,4.10614,2.14326" fill="none"/>
<path d="m165.81537-436.42855,4.10663-2.04306,28.98723,0,4.10614,2.04306" fill="none"/>
<path d="m169.104-439.89133,3.89403-1.64294,22.83512,0,3.89372,1.64294" fill="none"/>
<path d="m170.02152-466.69144,0,2.28224,2.97651,2.76601,0,20.10916-3.07603,3.06239,0,4.71291" fill="none"/>
<path d="m198.80922-466.69144,0,2.28224-2.97671,2.76601,0,20.10916,3.07627,3.06239,0,4.71291" fill="none"/>
<path d="m184.41538-454.56616c2.6649,0,4.8103,2.38361,4.8103,4.9718v8.06074h-9.62062v-8.06074c0-2.58819,2.1454-4.9718,4.81032-4.9718z" fill="#4d87ca"/>
</g>
<g stroke="#000" stroke-width="1" stroke-dasharray="none" transform="translate(177.60001,-53.212377)">
<path d="m182.53128-486.61523,3.76789-0.00003,1.29423,1.25464,0,5.10219-6.35607,0,0-5.10219z" fill="#fcdd09"/>
<path d="m182.53128-486.61523,0,6.3568" fill="none"/>
<path d="m186.29936-486.61523,0,6.3568" fill="none"/>
<path d="m172.74896-486.61523,3.76789-0.00003,1.29423,1.25464,0,5.10219-6.35608,0,0-5.10219z" fill="#fcdd09"/>
<path d="m172.74896-486.61523,0,6.3568" fill="none"/>
<path d="m176.51703-486.61523,0,6.3568" fill="none"/>
<path d="m192.31395-486.61523,3.76789-0.00003,1.29424,1.25464,0,5.10219-6.35608,0,0-5.10219z" fill="#fcdd09"/>
<path d="m192.31395-486.61523,0,6.3568" fill="none"/>
<path d="m196.08204-486.61523,0,6.3568" fill="none"/>
<path d="m172.998-481.29639-3.20498,2.72756,0,15.32878,29.24477,0,0-15.32878-3.20479-2.72756z" fill="#fcdd09"/>
<path d="m172.99778-481.29626,0,16.38041" fill="none"/>
<path d="m195.83294-481.29626,0,16.38041" fill="none"/>
<path d="m172.74896-471.96506,3.76789-0.00003,1.29423,1.25464,0,5.10219-6.35608,0,0-5.10219z" fill="#fcdd09"/>
<path d="m176.51703-471.96506,0,6.3568" fill="none"/>
<path d="m172.74896-471.96506,0,6.3568" fill="none"/>
<path d="m182.53128-471.96506,3.76789-0.00003,1.29423,1.25464,0,5.10219-6.35607,0,0-5.10219z" fill="#fcdd09"/>
<path d="m186.29936-471.96506,0,6.3568" fill="none"/>
<path d="m182.53128-471.96506,0,6.3568" fill="none"/>
<path d="m192.31395-471.96506,3.76789-0.00003,1.29424,1.25464,0,5.10219-6.35608,0,0-5.10219z" fill="#fcdd09"/>
<path d="m192.31395-471.96506,0,6.3568" fill="none"/>
<path d="m196.08204-471.96506,0,6.3568" fill="none"/>
<path d="m170.02152-466.69126,28.78815,0,4.2057,3.142,0,1.984-3.28823,2.46517,0,19.2089,3.28823,3.4625,0,4.81343-37.2,0,0-4.81343,3.28863-3.4625,0-19.2089-3.28863-2.46517,0-1.984z" fill="#fcdd09"/>
<path d="m165.81537-461.56526,4.20615-2.84405,28.78815,0,4.2057,2.84405" fill="none"/>
<path d="m169.104-459.10009,3.89403-2.54321,22.83512,0,3.89372,2.54321" fill="none"/>
<path d="m165.81537-431.61526,4.10663-2.14326,28.98723,0,4.10614,2.14326" fill="none"/>
<path d="m165.81537-436.42855,4.10663-2.04306,28.98723,0,4.10614,2.04306" fill="none"/>
<path d="m169.104-439.89133,3.89403-1.64294,22.83512,0,3.89372,1.64294" fill="none"/>
<path d="m170.02152-466.69144,0,2.28224,2.97651,2.76601,0,20.10916-3.07603,3.06239,0,4.71291" fill="none"/>
<path d="m198.80922-466.69144,0,2.28224-2.97671,2.76601,0,20.10916,3.07627,3.06239,0,4.71291" fill="none"/>
<path d="m184.41538-454.56616c2.6649,0,4.8103,2.38361,4.8103,4.9718v8.06074h-9.62062v-8.06074c0-2.58819,2.1454-4.9718,4.81032-4.9718z" fill="#4d87ca"/>
</g>
<g stroke="#000" stroke-dasharray="none" transform="translate(0.236375,48.436813)">
<g stroke-width="0.99999994" transform="translate(-10.68373,0)">
<path d="m305.73899-264.76241-3.16036-2.80203-3.16063,2.80203,3.16063,4.50007z" fill="#fcdd09"/>
<path d="m300.786-263.32438,1.79248-1.43803,1.79242,1.43801,1.36811-1.43801,0,6.90093-6.32101,0,0-6.90093z" fill="#fcdd09"/>
<path d="m300.786-263.32438,0,5.4629" fill="none"/>
<path d="m304.3711-263.32438,0,5.4629" fill="none"/>
</g>
<g stroke-width="0.99999994" transform="translate(10.68471,0)">
<path d="m305.73899-264.76241-3.16036-2.80203-3.16063,2.80203,3.16063,4.50007z" fill="#fcdd09"/>
<path d="m300.786-263.32438,1.79248-1.43803,1.79242,1.43801,1.36811-1.43801,0,6.90093-6.32101,0,0-6.90093z" fill="#fcdd09"/>
<path d="m300.786-263.32438,0,5.4629" fill="none"/>
<path d="m304.3711-263.32438,0,5.4629" fill="none"/>
</g>
<g stroke-width="0.99999994" transform="translate(4.9e-4,0)">
<path d="m305.73899-264.76241-3.16036-2.80203-3.16063,2.80203,3.16063,4.50007z" fill="#fcdd09"/>
<path d="m300.786-263.32438,1.79248-1.43803,1.79242,1.43801,1.36811-1.43801,0,6.90093-6.32101,0,0-6.90093z" fill="#fcdd09"/>
<path d="m300.786-263.32438,0,5.4629" fill="none"/>
<path d="m304.3711-263.32438,0,5.4629" fill="none"/>
</g>
<path stroke-width="0.99999994" d="m288.58821-258.00731,27.98085,0,4.05004,2.88504-0.00021,1.72402-1.28498,2.04303,0.00018,23.86518,2.54491,1.99418,0,2.14103-1.7072,2.09038-35.18698,0-1.70583-2.09038,0-2.14103,2.54413-1.99418-0.00023-23.86518-1.28488-2.04303-0.00001-1.72402z" fill="#fcdd09"/>
<path stroke-width="0.99999994" d="m283.27899-225.49586,1.70619,1.30301,35.18701,0,1.70681-1.30301" fill="none"/>
<path stroke-width="0.99999994" d="m285.82311-227.4898,2.26488,1.08379,28.9809,0,2.2652-1.08379" fill="none"/>
<path stroke-width="0.99999994" d="m288.58821-258.00731-1.18876,1.5729,0,2.06434,0.68854,2.31784,0,25.64648-3.10318,2.2129,0.00037,2.9284" fill="none"/>
<path stroke-width="0.99999994" d="m316.56906-258.00731,1.18875,1.5729,0,2.06434-0.68892,2.31784,0,25.64648,3.1033,2.2129-0.00039,2.9284" fill="none"/>
<path stroke-width="0.99999994" d="m285.82311-251.35522,2.26488-0.69701,28.9809,0,2.2652,0.69701" fill="none"/>
<path stroke-width="0.99999994" d="m284.53799-253.39825,2.86146-0.9722,30.35836,0,2.86129,0.9722" fill="none"/>
<path stroke-width="0.99999994" d="m284.53799-255.12227,2.86146-1.3119,30.35836,0,2.86129,1.3119" fill="none"/>
<path stroke-width="0.99999988" d="m302.5789-243.51436c4.22478,0,7.97015,3.38821,7.92601,7.58975v9.51869h-15.85221v-9.51869c0-4.20177,3.70137-7.58975,7.9262-7.58975z" fill="#fcdd09"/>
<path stroke-width="0.99999988" d="m302.579-240.11693c2.70029,0,4.974,2.17831,4.974,4.88407v8.82711h-9.948v-8.82711c0-2.70576,2.27366-4.88407,4.974-4.88407z" fill="#4d87ca"/>
<path stroke-width="0.99999994" d="m302.57863-252.05223,0.0004,8.53787" fill="none"/>
<path stroke-width="0.99999994" d="m288.08799-232.55281,6.50576-0.00039" fill="none"/>
<path stroke-width="0.99999994" d="m317.06911-232.55281-6.50575-0.00039" fill="none"/>
<path stroke-width="0.99999994" d="m288.08799-241.95881,6.69026,4.438" fill="none"/>
<path stroke-width="0.99999994" d="m288.08799-252.05223,9.40901,10.37142" fill="none"/>
<path stroke-width="0.99999994" d="m317.06911-241.95881-6.69046,4.438" fill="none"/>
<path stroke-width="0.99999994" d="m317.06911-252.05223-9.40811,10.37142" fill="none"/>
</g>
<g stroke="#000" stroke-width="1" stroke-dasharray="none" transform="translate(-30.49813,0)">
<path d="m345.28125-400-5.98648,7.74056-3.88852-4.61556-10.53125,9.65625,0,18.5625,11.40625,0,3.65625-0.84375,12.21875,0-0.28125-3.03125,0-16.9375z" fill="#fcdd09"/>
<path d="m340.23-372.546-2.308,1.069-10.2221,0,0.00009-14.706,7.70895-6.81838,2.51306,2.59471" fill="none"/>
<path d="m351.86294-389.45975-11.63294,0-2.308-0.94725,1.37277-1.85244" fill="none"/>
<path d="m351.86294-372.546-11.633,0,0-16.91426,5.043-10.54297" fill="none"/>
<path d="m324.88894-387.20796,2.81105,1.02496" fill="#eac102"/>
<path d="m332.179-378.719,3.667,0,0,7.242-0.889,1.22484-1.889,0-0.889-1.22484z" fill="#ed1c24"/>
<path d="m337.92194-371.477,0-18.883" fill="none"/>
</g>
<g stroke="#000" stroke-width="1" stroke-dasharray="none">
<path d="m252.29709-262.38325-19.07104-59.2575,8.93895,0,15.67549,42.20575,0,12.117z" fill="#fcdd09"/>
<path d="M257.84049-268.2075,239.308-321.64075" fill="none"/>
</g>
<g stroke="#000" stroke-width="1" stroke-dasharray="none" transform="matrix(-1,0,0,1,605.63074,0)">
<path d="m268.97554-399.92639-22.86476,29.15836,6.00729,0,2.99588,5.86702,22.8333-35.02538z" fill="#fcdd09"/>
<path d="m275.14645-399.92639-23.02838,29.15836" fill="none"/>
</g>
<g stroke="#000" stroke-width="1" stroke-dasharray="none" transform="matrix(-1,0,0,1,605.63074,0)">
<path d="m252.29709-262.38325-19.07104-59.2575,8.93895,0,15.67549,42.20575,0,12.117z" fill="#fcdd09"/>
<path d="M257.84049-268.2075,239.308-321.64075" fill="none"/>
</g>
<g stroke="#1851b4" stroke-width="1" stroke-dasharray="none">
<path d="m215.6649-338.34711,8.06546,2.99522c-0.11486,56.28846,20.23391,95.67359,80.90454,95.1118,50.03958-0.46335,72.95415-29.66345,74.82545-73.25687,0.29566-6.88775,2.32182-15.99047,2.26066-22.68155l8.36784-2.98524,11.13542,2.19074c-13.72519,22.60807,4.3753,24.98289-7.73033,45.60303-8.228,14.01518,1.69711,25.64521-15.4509,35.92846-11.28856,6.76947-10.34012,24.46415-37.54119,24.33359-10.48479-0.0503-14.90296,8.31519-29.23298,8.52839-15.36646,0.22862-24.46518-7.81059-34.52717-6.64159-16.26828,1.89006-25.05806-1.38298-34.91271-13.55273-6.0335-7.45092-16.72675-13.55732-23.91337-26.54078-10.51882-19.00347-2.6038-22.72257-8.42409-31.30302-8.63422-12.72883,1.76512-22.01273-2.16863-37.41467z" fill="#4d87ca"/>
<path d="m224.12904-294.28853c0.97125-7.05514-0.69855-9.22905-1.32807-13.69445-0.61233-4.34345,1.50547-7.60527-2.50678-13.19345,2.02092,5.3695-1.22807,8.80795-0.24482,13.33753,0.88302,4.06785,2.86702,4.12837,4.07967,13.55037z" fill="#1851b4"/>
<path d="m220.50215-289.47911c-3.22971,16.0281,5.05075,27.04552,14.39876,30.98962,10.05682,4.24316,11.05698,19.38314,27.03899,23.05601,17.52911,4.02841,17.65244-5.77578,33.58494,3.20527,10.91968,6.15536,22.20196,4.87473,30.8356-0.18422,6.64487-3.89361,9.14539-4.53584,18.17598-4.51937,9.34582,0.017,14.60234-5.08773,17.94018-10.10562,3.14865-4.73347,4.41272-9.81431,11.09097-13.56674,15.13335-8.50326,7.08836-21.98192,13.87224-31.5086,3.13656-4.40472,4.96689-11.3309,2.41403-19.23639-1.57379-4.87359-4.15248-7.39083-2.81333-16.10053-3.49511,13.32251,2.19097,14.46437,1.70111,22.31633-0.44924,7.20067-6.5036,11.05368-6.47824,24.44238,0.0103,5.41872-0.43895,10.38393-8.66404,17.31488-11.42428,9.62678-14.21574,23.7294-27.75671,24.42076-8.0543,0.41123-14.49996,2.40995-20.32331,4.82883-6.57413,2.73074-17.75271,5.31404-27.20824,1.33909-7.29212-3.06549-10.74624-4.56244-14.07015-5.04617-7.56238-1.10057-9.75837,2.26149-21.54242-1.23908-14.72819-4.37516-13.82389-13.56419-27.03212-20.03646-6.71111-3.28857-12.52751-12.43626-12.52663-21.55343,0.00075-7.72066-1.14089-15.32344-4.92018-21.79077-7.1718-12.27276,0.22549-13.87495-1.83365-25.60095-1.50619,6.8063-4.94368,10.91322-2.96251,18.71537,1.74568,6.87476,9.09339,9.86162,7.07873,19.85979z" fill="#1851b4"/>
<path d="m278.85709-240.24504c-15.29761-1.97484-18.17711-8.52087-26.34467-9.54737,6.10229,2.97703,6.66059,5.89636,10.31043,7.519,3.5389,1.57332,9.34218,2.25814,16.03424,2.02837z" fill="#1851b4"/>
<path d="m322.47401-237.95908c-6.58369,0.0465-8.33243,1.29485-12.74616,1.47454-4.76004,0.19379-7.77931-1.30117-13.21522-0.98446,5.44954,0.46845,8.43618,3.04847,13.2642,2.98731,4.16226-0.0527,6.98988-2.99193,12.69718-3.47739z" fill="#1851b4"/>
<path d="m357.86976-251.78192c-4.58897,3.27322-3.24339,3.58405-8.50325,6.31263-5.80539,3.01157-7.47892,1.80734-12.29298,4.19058,4.97738-1.94003,9.52781-0.21416,13.70369-2.6381,3.60008-2.08966,3.15486-4.14089,7.09254-7.86511z" fill="#1851b4"/>
<path d="m378.12099-280.89486c-1.6807,5.38033-2.73409,6.56617-5.67568,10.72583-3.77611,5.33977-5.44622,6.21164-7.84382,11.01857,2.79544-4.55231,7.33688-6.39586,9.79712-10.18772,2.26567-3.49199,2.83311-6.21024,3.72238-11.55668z" fill="#1851b4"/>
<path d="m288.68081-230.62863c13.11501,1.54731,12.87464,12.54428,43.41007-0.47352,6.14323-2.61897,17.42018,0.50309,27.61912-7.49775,5.5296-4.33785,8.34785-8.64718,13.04026-14.71913,3.23607-4.18745,8.16764-5.22334,11.34569-10.79446,3.65092-6.40006,0.58996-16.77193,8.26542-27.8856,5.24563-7.5954,1.21733-17.17312-0.13373-25.59333-1.01902-6.35081,1.13433-10.25588,8.99663-19.38059-13.72519,22.60807,4.3753,24.98289-7.73033,45.60303-8.228,14.01518,1.69711,25.64521-15.4509,35.92846-11.28856,6.76947-10.34012,24.46415-37.54119,24.33359-10.48479-0.0503-14.90296,8.31519-29.23298,8.52839-15.36646,0.22862-24.46518-7.81059-34.52717-6.64159-16.26828,1.89006-25.05806-1.38298-34.91271-13.55273-6.0335-7.45092-16.72675-13.55732-23.91337-26.54078-10.51882-19.00347-2.6038-22.72257-8.42409-31.30302-8.63422-12.72883,1.76512-22.01273-2.16863-37.41467,7.79102,13.16545,0.71482,23.22308-0.0276,27.39933-1.45623,8.19198,7.81832,13.54191,8.86362,19.36525,0.94604,5.27032-0.81802,13.38497,3.14259,21.79101,3.14161,6.66778,7.17944,10.08675,18.09005,16.94233,6.38803,4.01386,7.63216,14.6323,18.46916,18.85118,14.19129,5.52473,24.90137,2.12036,32.82006,3.0546z" fill="#1851b4"/>
<path d="m240.37734-259.88315c-3.0171-6.03602-6.47896-10.24096-7.89036-13.68218-2.22052-5.41398-0.0439-6.86191-5.37381-16.41212,3.65812,10.38913-0.56961,11.44769,1.47453,17.92731,1.25234,3.96974,8.43607,7.81446,11.78964,12.16699z" fill="#1851b4"/>
<path d="m381.62775-317.42586c0.0802,5.20087,1.62383,8.06217,0.78654,13.08757-1.07482,6.45112-2.40539,7.58801-2.47116,12.9593,0.53478-5.31526,4.3976-8.4864,4.96167-12.97113,0.51946-4.13006-2.78-7.31361-3.27705-13.07574z" fill="#1851b4"/>
</g>
<g stroke="#000" stroke-width="1" stroke-dasharray="none">
<path style="direction:ltr;baseline-shift:baseline;block-progression:tb;text-indent:0;color:#000000;enable-background:accumulate;text-transform:none;text-align:start;" d="m281.27484-469.32422c-12.92325,26.99247-25.12469,39.71913-40.54294,60.20464-14.68199,19.50727-25.62822,40.35467-32.30731,58.67273-1.50976,4.14065-1.99866,7.90389-2.13273,12.19939l18.64549,2.34698c0-21.25318,8.71443-37.36833,29.08975-65.48199,15.35294-21.18383,32.61115-43.95977,42.31506-65.2156,0.67012-1.46785,0.44477-3.48769-0.90168-4.0503-2.19458-0.91699-8.99046-0.88832-12.3863-0.17991-1.12899,0.23552-1.59124,1.11118-1.77934,1.50406z" fill="#fcdd09"/>
<path style="direction:ltr;baseline-shift:baseline;block-progression:tb;text-indent:0;color:#000000;enable-background:accumulate;text-transform:none;text-align:start;" d="m292.59199-471.04561c-7.73324,17.85513-26.18143,39.95722-42.35117,62.30721-13.96545,19.3032-27.90544,39.34923-32.84916,59.24172" fill="none"/>
<path style="direction:ltr;baseline-shift:baseline;block-progression:tb;text-indent:0;color:#000000;enable-background:accumulate;text-transform:none;text-align:start;" d="m213.33583-351.61184c-2.03947,0.0349-4.14822,0.29455-6.33995,0.80681a1.9187333,1.9172331,0,1,0,0.86726,3.73526c7.88737-1.84346,13.66512-0.48855,18.15258,4.4823a1.9161066,1.9146085,0,0,0,2.84101,-2.56986c-4.05688-4.4939-9.40251-6.55908-15.5209-6.45451z" fill="#fcdd09"/>
<path style="direction:ltr;baseline-shift:baseline;block-progression:tb;text-indent:0;color:#000000;enable-background:accumulate;text-transform:none;text-align:start;" d="m215.21132-340.06618c-4.01269-0.35879-8.33358,0.14364-12.32103,1.58375a1.9251886,1.9236835,0,1,0,1.31584,3.61573c6.80006-2.45592,15.17318-1.45517,19.25908,1.55386a1.9141375,1.912641,0,1,0,2.27281,-3.07785c-2.81103-2.07016-6.51402-3.31669-10.5267-3.67549z" fill="#fcdd09"/>
</g>
<g stroke="#000" stroke-width="1" stroke-dasharray="none" transform="matrix(-1,0,0,1,605.63074,0)">
<path style="direction:ltr;baseline-shift:baseline;block-progression:tb;text-indent:0;color:#000000;enable-background:accumulate;text-transform:none;text-align:start;" d="m281.27484-469.32422c-12.92325,26.99247-25.12469,39.71913-40.54294,60.20464-14.68199,19.50727-25.62822,40.35467-32.30731,58.67273-1.50976,4.14065-1.99866,7.90389-2.13273,12.19939l18.64549,2.34698c0-21.25318,8.71443-37.36833,29.08975-65.48199,15.35294-21.18383,32.61115-43.95977,42.31506-65.2156,0.67012-1.46785,0.44477-3.48769-0.90168-4.0503-2.19458-0.91699-8.99046-0.88832-12.3863-0.17991-1.12899,0.23552-1.59124,1.11118-1.77934,1.50406z" fill="#fcdd09"/>
<path style="direction:ltr;baseline-shift:baseline;block-progression:tb;text-indent:0;color:#000000;enable-background:accumulate;text-transform:none;text-align:start;" d="m292.59199-471.04561c-7.73324,17.85513-26.18143,39.95722-42.35117,62.30721-13.96545,19.3032-27.90544,39.34923-32.84916,59.24172" fill="none"/>
<path style="direction:ltr;baseline-shift:baseline;block-progression:tb;text-indent:0;color:#000000;enable-background:accumulate;text-transform:none;text-align:start;" d="m213.33583-351.61184c-2.03947,0.0349-4.14822,0.29455-6.33995,0.80681a1.9187333,1.9172331,0,1,0,0.86726,3.73526c7.88737-1.84346,13.66512-0.48855,18.15258,4.4823a1.9161066,1.9146085,0,0,0,2.84101,-2.56986c-4.05688-4.4939-9.40251-6.55908-15.5209-6.45451z" fill="#fcdd09"/>
<path style="direction:ltr;baseline-shift:baseline;block-progression:tb;text-indent:0;color:#000000;enable-background:accumulate;text-transform:none;text-align:start;" d="m215.21132-340.06618c-4.01269-0.35879-8.33358,0.14364-12.32103,1.58375a1.9251886,1.9236835,0,1,0,1.31584,3.61573c6.80006-2.45592,15.17318-1.45517,19.25908,1.55386a1.9141375,1.912641,0,1,0,2.27281,-3.07785c-2.81103-2.07016-6.51402-3.31669-10.5267-3.67549z" fill="#fcdd09"/>
</g>
</g>
</svg>
