<?xml version="1.0" encoding="UTF-8" standalone="no"?>
<!-- Created with Inkscape (http://www.inkscape.org/) -->

<svg
   xmlns:dc="http://purl.org/dc/elements/1.1/"
   xmlns:cc="http://creativecommons.org/ns#"
   xmlns:rdf="http://www.w3.org/1999/02/22-rdf-syntax-ns#"
   xmlns:svg="http://www.w3.org/2000/svg"
   xmlns="http://www.w3.org/2000/svg"
   xmlns:sodipodi="http://sodipodi.sourceforge.net/DTD/sodipodi-0.dtd"
   xmlns:inkscape="http://www.inkscape.org/namespaces/inkscape"
   width="750"
   height="500"
   id="svg3184"
   sodipodi:version="0.32"
   inkscape:version="0.48.4 r9939"
   version="1.0"
   sodipodi:docname="Bandera de Beas de Granada (Granada).svg"
   inkscape:output_extension="org.inkscape.output.svg.inkscape">
  <defs
     id="defs3186" />
  <sodipodi:namedview
     id="base"
     pagecolor="#ffffff"
     bordercolor="#666666"
     borderopacity="1.0"
     gridtolerance="1"
     guidetolerance="1"
     objecttolerance="1"
     inkscape:pageopacity="0.0"
     inkscape:pageshadow="2"
     inkscape:zoom="1.152"
     inkscape:cx="375"
     inkscape:cy="250"
     inkscape:document-units="px"
     inkscape:current-layer="layer2"
     height="500px"
     width="818.18px"
     inkscape:window-width="1280"
     inkscape:window-height="774"
     inkscape:window-x="-4"
     inkscape:window-y="-4"
     showgrid="false"
     inkscape:showpageshadow="false"
     inkscape:window-maximized="1">
    <inkscape:grid
       type="xygrid"
       id="grid7135"
       visible="true"
       enabled="true"
       empspacing="5"
       snapvisiblegridlinesonly="true" />
  </sodipodi:namedview>
  <metadata
     id="metadata3189">
    <rdf:RDF>
      <cc:Work
         rdf:about="">
        <dc:format>image/svg+xml</dc:format>
        <dc:type
           rdf:resource="http://purl.org/dc/dcmitype/StillImage" />
        <dc:title />
      </cc:Work>
    </rdf:RDF>
  </metadata>
  <g
     inkscape:label="Bandera"
     inkscape:groupmode="layer"
     id="layer1"
     style="display:inline">
    <g
       id="g3190">
      <path
         sodipodi:nodetypes="ccccc"
         inkscape:connector-curvature="0"
         id="path3230"
         d="m 0.50002575,0.5 748.99995425,0 0,499 -748.99995425,0 z"
         style="fill:#ffffff;fill-opacity:1;fill-rule:nonzero;stroke:#000000;stroke-width:1;stroke-opacity:1" />
      <path
         sodipodi:nodetypes="cccccc"
         id="rect2383"
         d="M 250,250 250,0 750,0 750,500 1.5e-6,500 z"
         style="fill:#078930;fill-opacity:1;fill-rule:nonzero;stroke:none"
         inkscape:connector-curvature="0" />
      <path
         sodipodi:nodetypes="ccccc"
         style="fill:#da121a;fill-opacity:1;fill-rule:nonzero;stroke:none"
         d="M 1.5e-6,0 750,0 l 0,250 -500,0 z"
         id="path2485"
         inkscape:connector-curvature="0" />
    </g>
  </g>
  <g
     inkscape:groupmode="layer"
     id="layer2"
     inkscape:label="Escudo"
     style="display:inline">
    <g
       id="g4094"
       transform="translate(217.37096,-36.080197)">
      <path
         style="color:#000000;fill:#078930;stroke:#000000;stroke-width:1;stroke-linecap:round;stroke-linejoin:round;stroke-miterlimit:4;stroke-opacity:1;stroke-dasharray:none;stroke-dashoffset:0;marker:none;visibility:visible;display:inline;overflow:visible;enable-background:accumulate"
         d="m -119.02628,313.98056 c 11.03245,-13.92067 25.14737,-16.67318 34.8539,-20.35434 12.74021,-4.83179 20.95259,-10.85414 34.73972,-18.90167 2.38157,-1.3901 1.73514,2.25225 0.0856,5.5341 -8.00137,15.9191 -9.35447,24.27184 -28.47099,40.29872 -14.63232,12.26741 -17.9366,16.54655 -44.58235,7.12513 z"
         id="path3197"
         inkscape:connector-curvature="0"
         sodipodi:nodetypes="csssscc" />
      <path
         style="color:#000000;fill:none;stroke:#000000;stroke-width:1;stroke-linecap:round;stroke-linejoin:round;stroke-miterlimit:4;stroke-opacity:1;stroke-dasharray:none;stroke-dashoffset:0;marker:none;visibility:visible;display:inline;overflow:visible;enable-background:accumulate"
         d="m -69.6521,296.77396 c -8.92186,10.89561 -14.68865,10.02745 -21.38267,13.36848 -8.60879,4.29675 -17.5925,7.61721 -27.62883,6.50282"
         id="path3199"
         inkscape:connector-curvature="0"
         sodipodi:nodetypes="csc" />
      <path
         style="color:#000000;fill:#078930;stroke:#000000;stroke-width:1;stroke-linecap:round;stroke-linejoin:round;stroke-miterlimit:4;stroke-opacity:1;stroke-dasharray:none;stroke-dashoffset:0;marker:none;visibility:visible;display:inline;overflow:visible;enable-background:accumulate"
         d="m -129.69255,344.08968 c -5.15285,0.39814 -7.2434,-2.71073 -10.19459,-5.81104 -11.16845,-11.73266 -18.83439,-9.40906 -31.83539,-2.98889 -3.69946,1.82686 -5.39484,4.23273 -5.11961,5.18958 0.22967,0.79844 1.31624,2.40618 6.52049,2.72534 8.02111,0.49197 7.78234,3.62384 11.2059,6.84489 4.52335,4.25577 8.59098,6.38971 28.56626,1.69627 z"
         id="path3201"
         inkscape:connector-curvature="0"
         sodipodi:nodetypes="cssssscc" />
      <path
         style="color:#000000;fill:#078930;stroke:#000000;stroke-width:0.99999988;stroke-linecap:round;stroke-linejoin:round;stroke-miterlimit:4;stroke-opacity:1;stroke-dasharray:none;stroke-dashoffset:0;marker:none;visibility:visible;display:inline;overflow:visible;enable-background:accumulate"
         d="m -119.03741,315.97419 c -11.45534,-18.73561 -19.60432,-14.89956 -36.74378,-15.90057 -6.90623,-0.40336 -13.86001,-2.76725 -13.42635,-14.02749 0.24217,-6.28839 -4.17314,-5.40968 -5.54106,1.18366 -2.08778,10.06321 -3.9085,22.56306 1.06898,30.64757 9.42633,15.31036 27.86448,7.73188 38.12858,9.14273 5.4819,0.75347 8.04878,3.29328 11.04156,5.16031 z"
         id="path3203"
         inkscape:connector-curvature="0"
         sodipodi:nodetypes="cssssscc" />
      <path
         style="color:#000000;fill:none;stroke:#000000;stroke-width:1;stroke-linecap:round;stroke-linejoin:round;stroke-miterlimit:4;stroke-opacity:1;stroke-dasharray:none;stroke-dashoffset:0;marker:none;visibility:visible;display:inline;overflow:visible;enable-background:accumulate"
         d="m -160.1084,309.15544 c 8.54115,8.00783 27.40396,-1.00168 37.23636,14.68469"
         id="path3205"
         inkscape:connector-curvature="0"
         sodipodi:nodetypes="cc" />
      <path
         style="color:#000000;fill:none;stroke:#000000;stroke-width:1;stroke-linecap:round;stroke-linejoin:round;stroke-miterlimit:4;stroke-opacity:1;stroke-dasharray:none;stroke-dashoffset:0;marker:none;visibility:visible;display:inline;overflow:visible;enable-background:accumulate"
         d="m -159.16071,338.98715 c 11.22848,0.41036 16.12917,8.72779 27.11459,9.94975"
         id="path3207"
         inkscape:connector-curvature="0"
         sodipodi:nodetypes="cc" />
      <path
         style="color:#000000;fill:#078930;stroke:#000000;stroke-width:1;stroke-linecap:round;stroke-linejoin:round;stroke-miterlimit:4;stroke-opacity:1;stroke-dasharray:none;stroke-dashoffset:0;marker:none;visibility:visible;display:inline;overflow:visible;enable-background:accumulate"
         d="m -128.56029,354.05589 c 8.40121,2.50294 18.12423,0.28721 29.81139,-6.54462 4.82582,-2.821 7.94544,-7.97403 8.27453,-11.90775 0.09,-1.07575 -0.56566,-1.26418 -0.87914,-0.88596 -11.084,5.72499 -18.77692,4.49309 -24.22556,4.60139 -5.96265,0.11851 -9.47957,1.74383 -12.56699,2.64123 z"
         id="path3209"
         inkscape:connector-curvature="0"
         sodipodi:nodetypes="csscscc" />
      <path
         style="font-size:medium;font-style:normal;font-variant:normal;font-weight:normal;font-stretch:normal;text-indent:0;text-align:start;text-decoration:none;line-height:normal;letter-spacing:normal;word-spacing:normal;text-transform:none;direction:ltr;block-progression:tb;writing-mode:lr-tb;text-anchor:start;baseline-shift:baseline;color:#000000;fill:#078930;fill-opacity:1;stroke:#000000;stroke-width:1;stroke-linecap:round;stroke-linejoin:round;stroke-miterlimit:4;stroke-opacity:1;stroke-dasharray:none;marker:none;visibility:visible;display:inline;overflow:visible;enable-background:accumulate;font-family:Sans;-inkscape-font-specification:Sans"
         d="m -124.37129,291.8218 c 4.64584,7.74503 5.55768,13.46264 4.71363,18.59583 -0.84405,5.13315 -3.63115,9.89242 -7.23558,15.15948 -5.69399,8.3203 -9.32666,16.35245 -9.09701,23.86916 0.22964,7.51672 4.53977,15.57017 13.9119,18.98205 7.31323,2.66236 11.12365,-6.36772 3.39265,-9.14851 -5.94443,-2.13815 -6.98938,-5.14048 -7.14434,-10.21237 -0.15495,-5.07191 2.65153,-12.07749 7.88108,-19.7192 3.76274,-5.49827 7.25997,-11.22424 8.37645,-18.01423 1.11649,-6.78998 -1.01428,-13.9316 -6.29367,-22.73279 z"
         id="path3211"
         inkscape:connector-curvature="0"
         sodipodi:nodetypes="csssssssscc" />
      <path
         sodipodi:nodetypes="cccccc"
         inkscape:connector-curvature="0"
         id="path3213"
         d="m -121.91705,214.84193 -31.59333,56.60626 35.70444,21.90422 c 5.07251,-0.22568 10.02711,-1.41157 14.64469,-3.36522 l 1.28823,-68.27678 z"
         style="color:#000000;fill:#da121a;stroke:#000000;stroke-width:1;stroke-linecap:round;stroke-linejoin:round;stroke-miterlimit:4;stroke-opacity:1;stroke-dasharray:none;stroke-dashoffset:0;marker:none;visibility:visible;display:inline;overflow:visible;enable-background:accumulate" />
      <path
         style="color:#000000;fill:#da121a;stroke:#000000;stroke-width:1px;stroke-linecap:round;stroke-linejoin:round;stroke-miterlimit:4;stroke-opacity:1;stroke-dashoffset:0;marker:none;visibility:visible;display:inline;overflow:visible;enable-background:accumulate"
         d="m -107.95256,288.58059 c 0,2.23268 -1.83696,4.04267 -4.10297,4.04267 -2.26598,0 -4.10296,-1.80999 -4.10296,-4.04267 0,-2.23272 1.83698,-4.04272 4.10296,-4.04272 2.26601,0 4.10297,1.81 4.10297,4.04272 z"
         id="path3215"
         inkscape:connector-curvature="0" />
      <path
         inkscape:connector-curvature="0"
         id="path3217"
         d="m -106.42403,284.31337 c 0,2.27887 -1.83695,4.12636 -4.10297,4.12636 -2.26599,0 -4.10296,-1.84749 -4.10296,-4.12636 0,-2.2789 1.83697,-4.12636 4.10296,-4.12636 2.26602,0 4.10297,1.84746 4.10297,4.12636 z"
         style="color:#000000;fill:#da121a;stroke:#000000;stroke-width:1px;stroke-linecap:round;stroke-linejoin:round;stroke-miterlimit:4;stroke-opacity:1;stroke-dashoffset:0;marker:none;visibility:visible;display:inline;overflow:visible;enable-background:accumulate" />
      <path
         style="color:#000000;fill:#da121a;stroke:#000000;stroke-width:1px;stroke-linecap:round;stroke-linejoin:round;stroke-miterlimit:4;stroke-opacity:1;stroke-dashoffset:0;marker:none;visibility:visible;display:inline;overflow:visible;enable-background:accumulate"
         d="m -111.85881,232.019 c 0,2.2327 -1.83695,4.0427 -4.10296,4.0427 -2.26599,0 -4.10296,-1.81 -4.10296,-4.0427 0,-2.23273 1.83697,-4.0427 4.10296,-4.0427 2.26601,0 4.10296,1.80997 4.10296,4.0427 z"
         id="path3219"
         inkscape:connector-curvature="0" />
      <path
         style="color:#000000;fill:#da121a;stroke:#000000;stroke-width:1px;stroke-linecap:round;stroke-linejoin:round;stroke-miterlimit:4;stroke-opacity:1;stroke-dashoffset:0;marker:none;visibility:visible;display:inline;overflow:visible;enable-background:accumulate"
         d="m -109.31126,226.49671 c 0,2.2327 -1.83695,4.04271 -4.10296,4.04271 -2.26599,0 -4.10296,-1.81001 -4.10296,-4.04271 0,-2.23272 1.83697,-4.0427 4.10296,-4.0427 2.26601,0 4.10296,1.80998 4.10296,4.0427 z"
         id="path3221"
         inkscape:connector-curvature="0" />
      <path
         inkscape:connector-curvature="0"
         id="path3223"
         d="m -116.44439,227.33343 c 0,2.2327 -1.83695,4.0427 -4.10297,4.0427 -2.26598,0 -4.10295,-1.81 -4.10295,-4.0427 0,-2.23273 1.83697,-4.04271 4.10295,-4.04271 2.26602,0 4.10297,1.80998 4.10297,4.04271 z"
         style="color:#000000;fill:#da121a;stroke:#000000;stroke-width:1px;stroke-linecap:round;stroke-linejoin:round;stroke-miterlimit:4;stroke-opacity:1;stroke-dashoffset:0;marker:none;visibility:visible;display:inline;overflow:visible;enable-background:accumulate" />
      <path
         style="color:#000000;fill:#da121a;stroke:#000000;stroke-width:1px;stroke-linecap:round;stroke-linejoin:round;stroke-miterlimit:4;stroke-opacity:1;stroke-dashoffset:0;marker:none;visibility:visible;display:inline;overflow:visible;enable-background:accumulate"
         d="m -116.78407,235.11482 c 0,2.74103 -2.25516,4.96309 -5.03706,4.96309 -2.78188,0 -5.03706,-2.22206 -5.03706,-4.96309 0,-2.74104 2.25518,-4.96307 5.03706,-4.96307 2.7819,0 5.03706,2.22203 5.03706,4.96307 z"
         id="path3225"
         inkscape:connector-curvature="0" />
      <path
         inkscape:connector-curvature="0"
         id="path3227"
         d="m -104.38601,235.44951 c 0,2.74102 -2.25515,4.96308 -5.03706,4.96308 -2.78187,0 -5.03705,-2.22206 -5.03705,-4.96308 0,-2.74103 2.25518,-4.96308 5.03705,-4.96308 2.78191,0 5.03706,2.22205 5.03706,4.96308 z"
         style="color:#000000;fill:#da121a;stroke:#000000;stroke-width:1px;stroke-linecap:round;stroke-linejoin:round;stroke-miterlimit:4;stroke-opacity:1;stroke-dashoffset:0;marker:none;visibility:visible;display:inline;overflow:visible;enable-background:accumulate" />
      <path
         inkscape:connector-curvature="0"
         id="path3229"
         d="m -111.51913,239.80041 c 0,2.74102 -2.25516,4.96308 -5.03706,4.96308 -2.78188,0 -5.03707,-2.22206 -5.03707,-4.96308 0,-2.74104 2.25519,-4.96308 5.03707,-4.96308 2.7819,0 5.03706,2.22204 5.03706,4.96308 z"
         style="color:#000000;fill:#da121a;stroke:#000000;stroke-width:1px;stroke-linecap:round;stroke-linejoin:round;stroke-miterlimit:4;stroke-opacity:1;stroke-dashoffset:0;marker:none;visibility:visible;display:inline;overflow:visible;enable-background:accumulate" />
      <path
         style="color:#000000;fill:#da121a;stroke:#000000;stroke-width:1px;stroke-linecap:round;stroke-linejoin:round;stroke-miterlimit:4;stroke-opacity:1;stroke-dashoffset:0;marker:none;visibility:visible;display:inline;overflow:visible;enable-background:accumulate"
         d="m -103.53681,243.31459 c 0,2.74102 -2.25516,4.96307 -5.03707,4.96307 -2.78187,0 -5.03706,-2.22205 -5.03706,-4.96307 0,-2.74104 2.25519,-4.96308 5.03706,-4.96308 2.78191,0 5.03707,2.22204 5.03707,4.96308 z"
         id="path3231"
         inkscape:connector-curvature="0" />
      <path
         inkscape:connector-curvature="0"
         id="path3233"
         d="m -103.0273,251.68168 c 0,3.1107 -2.55931,5.63246 -5.7164,5.63246 -3.15708,0 -5.71642,-2.52176 -5.71642,-5.63246 0,-3.11072 2.55934,-5.63244 5.71642,-5.63244 3.15709,0 5.7164,2.52172 5.7164,5.63244 z"
         style="color:#000000;fill:#da121a;stroke:#000000;stroke-width:1px;stroke-linecap:round;stroke-linejoin:round;stroke-miterlimit:4;stroke-opacity:1;stroke-dashoffset:0;marker:none;visibility:visible;display:inline;overflow:visible;enable-background:accumulate" />
      <path
         style="color:#000000;fill:#da121a;stroke:#000000;stroke-width:1px;stroke-linecap:round;stroke-linejoin:round;stroke-miterlimit:4;stroke-opacity:1;stroke-dashoffset:0;marker:none;visibility:visible;display:inline;overflow:visible;enable-background:accumulate"
         d="m -110.83979,248.1675 c 0,3.11071 -2.55931,5.63245 -5.7164,5.63245 -3.15708,0 -5.71641,-2.52174 -5.71641,-5.63245 0,-3.11072 2.55933,-5.63244 5.71641,-5.63244 3.15709,0 5.7164,2.52172 5.7164,5.63244 z"
         id="path3235"
         inkscape:connector-curvature="0" />
      <path
         style="color:#000000;fill:#da121a;stroke:#000000;stroke-width:1px;stroke-linecap:round;stroke-linejoin:round;stroke-miterlimit:4;stroke-opacity:1;stroke-dashoffset:0;marker:none;visibility:visible;display:inline;overflow:visible;enable-background:accumulate"
         d="m -109.65094,257.20398 c 0,3.1107 -2.5593,5.63244 -5.7164,5.63244 -3.15707,0 -5.71641,-2.52174 -5.71641,-5.63244 0,-3.11072 2.55934,-5.63245 5.71641,-5.63245 3.1571,0 5.7164,2.52173 5.7164,5.63245 z"
         id="path3237"
         inkscape:connector-curvature="0" />
      <path
         style="color:#000000;fill:#da121a;stroke:#000000;stroke-width:1px;stroke-linecap:round;stroke-linejoin:round;stroke-miterlimit:4;stroke-opacity:1;stroke-dashoffset:0;marker:none;visibility:visible;display:inline;overflow:visible;enable-background:accumulate"
         d="m -116.44439,288.91531 c 0,2.23268 -1.83695,4.04269 -4.10297,4.04269 -2.26598,0 -4.10295,-1.81001 -4.10295,-4.04269 0,-2.23271 1.83697,-4.04271 4.10295,-4.04271 2.26602,0 4.10297,1.81 4.10297,4.04271 z"
         id="path3239"
         inkscape:connector-curvature="0" />
      <path
         inkscape:connector-curvature="0"
         id="path3241"
         d="m -114.23652,282.22162 c 0,2.23271 -1.83695,4.04271 -4.10296,4.04271 -2.26599,0 -4.10296,-1.81 -4.10296,-4.04271 0,-2.23272 1.83697,-4.0427 4.10296,-4.0427 2.26601,0 4.10296,1.80998 4.10296,4.0427 z"
         style="color:#000000;fill:#da121a;stroke:#000000;stroke-width:1px;stroke-linecap:round;stroke-linejoin:round;stroke-miterlimit:4;stroke-opacity:1;stroke-dashoffset:0;marker:none;visibility:visible;display:inline;overflow:visible;enable-background:accumulate" />
      <path
         style="color:#000000;fill:#da121a;stroke:#000000;stroke-width:1px;stroke-linecap:round;stroke-linejoin:round;stroke-miterlimit:4;stroke-opacity:1;stroke-dashoffset:0;marker:none;visibility:visible;display:inline;overflow:visible;enable-background:accumulate"
         d="m -112.36832,275.61161 c 0,2.74102 -2.25516,4.96307 -5.03706,4.96307 -2.78188,0 -5.03706,-2.22205 -5.03706,-4.96307 0,-2.74104 2.25518,-4.96307 5.03706,-4.96307 2.7819,0 5.03706,2.22203 5.03706,4.96307 z"
         id="path3243"
         inkscape:connector-curvature="0" />
      <path
         style="color:#000000;fill:#da121a;stroke:#000000;stroke-width:1px;stroke-linecap:round;stroke-linejoin:round;stroke-miterlimit:4;stroke-opacity:1;stroke-dashoffset:0;marker:none;visibility:visible;display:inline;overflow:visible;enable-background:accumulate"
         d="m -110.50011,266.24045 c 0,3.1107 -2.55932,5.63245 -5.71641,5.63245 -3.15707,0 -5.7164,-2.52175 -5.7164,-5.63245 0,-3.11071 2.55933,-5.63245 5.7164,-5.63245 3.15709,0 5.71641,2.52174 5.71641,5.63245 z"
         id="path3245"
         inkscape:connector-curvature="0" />
      <path
         style="color:#000000;fill:#da121a;stroke:#000000;stroke-width:1px;stroke-linecap:round;stroke-linejoin:round;stroke-miterlimit:4;stroke-opacity:1;stroke-dashoffset:0;marker:none;visibility:visible;display:inline;overflow:visible;enable-background:accumulate"
         d="m -122.89818,238.96369 c 0,2.74102 -2.25516,4.96308 -5.03706,4.96308 -2.78188,0 -5.03707,-2.22206 -5.03707,-4.96308 0,-2.74102 2.25519,-4.96308 5.03707,-4.96308 2.7819,0 5.03706,2.22206 5.03706,4.96308 z"
         id="path3247"
         inkscape:connector-curvature="0" />
      <path
         inkscape:connector-curvature="0"
         id="path3249"
         d="m -118.8221,243.48194 c 0,2.74101 -2.25517,4.96307 -5.03707,4.96307 -2.78188,0 -5.03706,-2.22206 -5.03706,-4.96307 0,-2.74105 2.25518,-4.9631 5.03706,-4.9631 2.7819,0 5.03707,2.22205 5.03707,4.9631 z"
         style="color:#000000;fill:#da121a;stroke:#000000;stroke-width:1px;stroke-linecap:round;stroke-linejoin:round;stroke-miterlimit:4;stroke-opacity:1;stroke-dashoffset:0;marker:none;visibility:visible;display:inline;overflow:visible;enable-background:accumulate" />
      <path
         style="color:#000000;fill:#da121a;stroke:#000000;stroke-width:1px;stroke-linecap:round;stroke-linejoin:round;stroke-miterlimit:4;stroke-opacity:1;stroke-dashoffset:0;marker:none;visibility:visible;display:inline;overflow:visible;enable-background:accumulate"
         d="m -125.95524,246.66143 c 0,3.11069 -2.55931,5.63244 -5.71641,5.63244 -3.15707,0 -5.7164,-2.52175 -5.7164,-5.63244 0,-3.11073 2.55933,-5.63245 5.7164,-5.63245 3.1571,0 5.71641,2.52172 5.71641,5.63245 z"
         id="path3251"
         inkscape:connector-curvature="0" />
      <path
         style="color:#000000;fill:#da121a;stroke:#000000;stroke-width:1px;stroke-linecap:round;stroke-linejoin:round;stroke-miterlimit:4;stroke-opacity:1;stroke-dashoffset:0;marker:none;visibility:visible;display:inline;overflow:visible;enable-background:accumulate"
         d="m -134.1074,251.34701 c 0,3.1107 -2.55931,5.63245 -5.7164,5.63245 -3.15708,0 -5.71641,-2.52175 -5.71641,-5.63245 0,-3.11073 2.55933,-5.63245 5.71641,-5.63245 3.15709,0 5.7164,2.52172 5.7164,5.63245 z"
         id="path3253"
         inkscape:connector-curvature="0" />
      <path
         style="color:#000000;fill:#da121a;stroke:#000000;stroke-width:1px;stroke-linecap:round;stroke-linejoin:round;stroke-miterlimit:4;stroke-opacity:1;stroke-dashoffset:0;marker:none;visibility:visible;display:inline;overflow:visible;enable-background:accumulate"
         d="m -132.91854,260.8855 c 0,3.1107 -2.55931,5.63244 -5.71641,5.63244 -3.15707,0 -5.7164,-2.52174 -5.7164,-5.63244 0,-3.11072 2.55933,-5.63245 5.7164,-5.63245 3.1571,0 5.71641,2.52173 5.71641,5.63245 z"
         id="path3255"
         inkscape:connector-curvature="0" />
      <path
         style="color:#000000;fill:#da121a;stroke:#000000;stroke-width:1px;stroke-linecap:round;stroke-linejoin:round;stroke-miterlimit:4;stroke-opacity:1;stroke-dashoffset:0;marker:none;visibility:visible;display:inline;overflow:visible;enable-background:accumulate"
         d="m -133.59789,275.69528 c 0,2.23271 -1.83695,4.04271 -4.10296,4.04271 -2.26599,0 -4.10296,-1.81 -4.10296,-4.04271 0,-2.23272 1.83697,-4.0427 4.10296,-4.0427 2.26601,0 4.10296,1.80998 4.10296,4.0427 z"
         id="path3257"
         inkscape:connector-curvature="0" />
      <path
         inkscape:connector-curvature="0"
         id="path3259"
         d="m -121.36965,283.56037 c 0,2.23272 -1.83695,4.04268 -4.10297,4.04268 -2.26598,0 -4.10295,-1.80996 -4.10295,-4.04268 0,-2.23274 1.83697,-4.04272 4.10295,-4.04272 2.26602,0 4.10297,1.80998 4.10297,4.04272 z"
         style="color:#000000;fill:#da121a;stroke:#000000;stroke-width:1px;stroke-linecap:round;stroke-linejoin:round;stroke-miterlimit:4;stroke-opacity:1;stroke-dashoffset:0;marker:none;visibility:visible;display:inline;overflow:visible;enable-background:accumulate" />
      <path
         style="color:#000000;fill:#da121a;stroke:#000000;stroke-width:1px;stroke-linecap:round;stroke-linejoin:round;stroke-miterlimit:4;stroke-opacity:1;stroke-dashoffset:0;marker:none;visibility:visible;display:inline;overflow:visible;enable-background:accumulate"
         d="m -120.69031,279.37681 c 0,2.23271 -1.83695,4.04271 -4.10296,4.04271 -2.26599,0 -4.10296,-1.81 -4.10296,-4.04271 0,-2.23273 1.83697,-4.04271 4.10296,-4.04271 2.26601,0 4.10296,1.80998 4.10296,4.04271 z"
         id="path3261"
         inkscape:connector-curvature="0" />
      <path
         inkscape:connector-curvature="0"
         id="path3263"
         d="m -127.65361,280.21352 c 0,2.23271 -1.83695,4.04272 -4.10296,4.04272 -2.26599,0 -4.10296,-1.81001 -4.10296,-4.04272 0,-2.23272 1.83697,-4.0427 4.10296,-4.0427 2.26601,0 4.10296,1.80998 4.10296,4.0427 z"
         style="color:#000000;fill:#da121a;stroke:#000000;stroke-width:1px;stroke-linecap:round;stroke-linejoin:round;stroke-miterlimit:4;stroke-opacity:1;stroke-dashoffset:0;marker:none;visibility:visible;display:inline;overflow:visible;enable-background:accumulate" />
      <path
         inkscape:connector-curvature="0"
         id="path3265"
         d="m -125.95524,273.26882 c 0,2.74102 -2.25516,4.96308 -5.03706,4.96308 -2.78188,0 -5.03707,-2.22206 -5.03707,-4.96308 0,-2.74104 2.25519,-4.96307 5.03707,-4.96307 2.7819,0 5.03706,2.22203 5.03706,4.96307 z"
         style="color:#000000;fill:#da121a;stroke:#000000;stroke-width:1px;stroke-linecap:round;stroke-linejoin:round;stroke-miterlimit:4;stroke-opacity:1;stroke-dashoffset:0;marker:none;visibility:visible;display:inline;overflow:visible;enable-background:accumulate" />
      <path
         inkscape:connector-curvature="0"
         id="path3267"
         d="m -132.91854,268.4159 c 0,2.74102 -2.25516,4.96308 -5.03706,4.96308 -2.78188,0 -5.03706,-2.22206 -5.03706,-4.96308 0,-2.74104 2.25518,-4.96309 5.03706,-4.96309 2.7819,0 5.03706,2.22205 5.03706,4.96309 z"
         style="color:#000000;fill:#da121a;stroke:#000000;stroke-width:1px;stroke-linecap:round;stroke-linejoin:round;stroke-miterlimit:4;stroke-opacity:1;stroke-dashoffset:0;marker:none;visibility:visible;display:inline;overflow:visible;enable-background:accumulate" />
      <path
         inkscape:connector-curvature="0"
         id="path3269"
         d="m -118.48243,271.26071 c 0,2.74103 -2.25516,4.96309 -5.03706,4.96309 -2.78188,0 -5.03707,-2.22206 -5.03707,-4.96309 0,-2.74103 2.25519,-4.96308 5.03707,-4.96308 2.7819,0 5.03706,2.22205 5.03706,4.96308 z"
         style="color:#000000;fill:#da121a;stroke:#000000;stroke-width:1px;stroke-linecap:round;stroke-linejoin:round;stroke-miterlimit:4;stroke-opacity:1;stroke-dashoffset:0;marker:none;visibility:visible;display:inline;overflow:visible;enable-background:accumulate" />
      <path
         inkscape:connector-curvature="0"
         id="path3271"
         d="m -114.57619,218.63164 c 0,2.2327 -1.83695,4.0427 -4.10297,4.0427 -2.26599,0 -4.10295,-1.81 -4.10295,-4.0427 0,-2.23273 1.83696,-4.0427 4.10295,-4.0427 2.26602,0 4.10297,1.80997 4.10297,4.0427 z"
         style="color:#000000;fill:#da121a;stroke:#000000;stroke-width:1px;stroke-linecap:round;stroke-linejoin:round;stroke-miterlimit:4;stroke-opacity:1;stroke-dashoffset:0;marker:none;visibility:visible;display:inline;overflow:visible;enable-background:accumulate" />
      <path
         inkscape:connector-curvature="0"
         id="path3273"
         style="color:#000000;fill:#ffb380;fill-rule:evenodd;stroke:#000000;stroke-width:1;stroke-linecap:round;stroke-linejoin:round;stroke-miterlimit:4;stroke-opacity:1;stroke-dasharray:none;stroke-dashoffset:0;marker:none;visibility:visible;display:inline;overflow:visible;enable-background:accumulate"
         d="m -120.87997,217.0353 c 1.41123,10.62569 -4.42109,17.03931 -11.87505,24.76891 -6.37855,6.61446 -12.88195,15.21356 -7.18999,30.76571 3.50555,9.57822 15.53902,14.34049 24.36948,20.61834 3.64524,-0.34869 7.16626,-1.15767 10.69914,-2.49427 -2.08192,-3.25845 -4.8026,-3.79476 -7.60123,-6.17823 -4.24268,-3.61338 -4.69913,-12.15102 -3.15109,-16.33453 3.15877,-8.53638 8.20834,-11.97849 9.50412,-22.49348 2.44499,-19.84024 -7.95027,-26.32507 -14.75538,-28.65245 z m -12.75581,-2.19337 c -43.50474,12.13762 -36.01158,80.81694 15.82984,78.51048 31.60784,-1.40622 58.6376,-40.09487 28.07625,-69.51703 -1.14828,-1.80778 -0.87883,-4.20927 -0.4099,-6.69429 -3.17399,0.36005 -6.66548,1.31838 -8.81225,-0.25746 0.61895,-1.78803 1.31248,-5.34747 4.81902,-9.63656 -4.3396,0.51846 -8.93674,3.27112 -12.15595,6.43093 -0.291,-3.68294 1.79802,-7.60327 4.2835,-10.4313 -8.03664,1.48604 -10.97967,4.51691 -13.61671,9.25991 -0.78253,-2.55908 -2.47261,-4.68221 -2.18396,-9.25991 -2.69204,0.4063 -5.41834,5.8666 -7.58265,11.57714 -1.38923,-7.30863 -5.51993,-11.04568 -9.06689,-11.57714 0.51054,3.35162 0.85376,6.87523 0.8197,11.59523 z"
         sodipodi:nodetypes="cssccsssccsccccccccccc" />
      <path
         inkscape:connector-curvature="0"
         id="path3275"
         d="m -117.97292,261.38753 c 0,3.11069 -2.55931,5.63244 -5.71641,5.63244 -3.15707,0 -5.7164,-2.52175 -5.7164,-5.63244 0,-3.11073 2.55933,-5.63245 5.7164,-5.63245 3.1571,0 5.71641,2.52172 5.71641,5.63245 z"
         style="color:#000000;fill:#da121a;stroke:#000000;stroke-width:1px;stroke-linecap:round;stroke-linejoin:round;stroke-miterlimit:4;stroke-opacity:1;stroke-dashoffset:0;marker:none;visibility:visible;display:inline;overflow:visible;enable-background:accumulate" />
      <path
         style="color:#000000;fill:#da121a;stroke:#000000;stroke-width:1px;stroke-linecap:round;stroke-linejoin:round;stroke-miterlimit:4;stroke-opacity:1;stroke-dashoffset:0;marker:none;visibility:visible;display:inline;overflow:visible;enable-background:accumulate"
         d="m -117.63325,251.34701 c 0,3.1107 -2.55931,5.63245 -5.7164,5.63245 -3.15707,0 -5.71641,-2.52175 -5.71641,-5.63245 0,-3.11073 2.55934,-5.63245 5.71641,-5.63245 3.15709,0 5.7164,2.52172 5.7164,5.63245 z"
         id="path3277"
         inkscape:connector-curvature="0" />
      <path
         style="color:#000000;fill:#da121a;stroke:#000000;stroke-width:1px;stroke-linecap:round;stroke-linejoin:round;stroke-miterlimit:4;stroke-opacity:1;stroke-dashoffset:0;marker:none;visibility:visible;display:inline;overflow:visible;enable-background:accumulate"
         d="m -125.44573,265.2364 c 0,2.74103 -2.25516,4.96308 -5.03706,4.96308 -2.78188,0 -5.03707,-2.22205 -5.03707,-4.96308 0,-2.74103 2.25519,-4.96307 5.03707,-4.96307 2.7819,0 5.03706,2.22204 5.03706,4.96307 z"
         id="path3279"
         inkscape:connector-curvature="0" />
      <path
         inkscape:connector-curvature="0"
         id="path3281"
         d="m -125.95524,255.86523 c 0,3.11071 -2.55931,5.63246 -5.71641,5.63246 -3.15707,0 -5.7164,-2.52175 -5.7164,-5.63246 0,-3.1107 2.55933,-5.63243 5.7164,-5.63243 3.1571,0 5.71641,2.52173 5.71641,5.63243 z"
         style="color:#000000;fill:#da121a;stroke:#000000;stroke-width:1px;stroke-linecap:round;stroke-linejoin:round;stroke-miterlimit:4;stroke-opacity:1;stroke-dashoffset:0;marker:none;visibility:visible;display:inline;overflow:visible;enable-background:accumulate" />
    </g>
  </g>
</svg>
