<?xml version="1.0" encoding="UTF-8" standalone="no"?>
<!-- Created with Inkscape (http://www.inkscape.org/) -->

<svg
   xmlns:dc="http://purl.org/dc/elements/1.1/"
   xmlns:cc="http://creativecommons.org/ns#"
   xmlns:rdf="http://www.w3.org/1999/02/22-rdf-syntax-ns#"
   xmlns:svg="http://www.w3.org/2000/svg"
   xmlns="http://www.w3.org/2000/svg"
   xmlns:sodipodi="http://sodipodi.sourceforge.net/DTD/sodipodi-0.dtd"
   xmlns:inkscape="http://www.inkscape.org/namespaces/inkscape"
   width="750"
   height="500"
   id="svg3184"
   sodipodi:version="0.32"
   inkscape:version="0.48.4 r9939"
   version="1.0"
   sodipodi:docname="Proyecto bandera 2x3.svg"
   inkscape:output_extension="org.inkscape.output.svg.inkscape">
  <defs
     id="defs3186" />
  <sodipodi:namedview
     id="base"
     pagecolor="#ffffff"
     bordercolor="#666666"
     borderopacity="1.0"
     gridtolerance="1"
     guidetolerance="1"
     objecttolerance="1"
     inkscape:pageopacity="0.0"
     inkscape:pageshadow="2"
     inkscape:zoom="1.152"
     inkscape:cx="375"
     inkscape:cy="250"
     inkscape:document-units="px"
     inkscape:current-layer="layer2"
     height="500px"
     width="818.18px"
     inkscape:window-width="1280"
     inkscape:window-height="774"
     inkscape:window-x="-4"
     inkscape:window-y="-4"
     showgrid="false"
     inkscape:showpageshadow="false"
     inkscape:window-maximized="1">
    <inkscape:grid
       type="xygrid"
       id="grid7135"
       visible="true"
       enabled="true"
       empspacing="5"
       snapvisiblegridlinesonly="true" />
  </sodipodi:namedview>
  <metadata
     id="metadata3189">
    <rdf:RDF>
      <cc:Work
         rdf:about="">
        <dc:format>image/svg+xml</dc:format>
        <dc:type
           rdf:resource="http://purl.org/dc/dcmitype/StillImage" />
        <dc:title></dc:title>
      </cc:Work>
    </rdf:RDF>
  </metadata>
  <g
     inkscape:label="Bandera"
     inkscape:groupmode="layer"
     id="layer1"
     style="display:inline" />
  <g
     inkscape:groupmode="layer"
     id="layer2"
     inkscape:label="Escudo"
     style="display:inline">
    <g
       id="g3936">
      <path
         sodipodi:nodetypes="ccccc"
         inkscape:connector-curvature="0"
         id="path3230"
         d="m 0.50002575,0.5 748.99995425,0 0,499 -748.99995425,0 z"
         style="display:inline;fill:#ffffff;fill-opacity:1;fill-rule:nonzero;stroke:#000000;stroke-width:1;stroke-opacity:1" />
      <path
         sodipodi:nodetypes="ccccc"
         id="rect2383"
         d="M 1.5e-6,388.889 750,388.889 750,500 1.5e-6,500 z"
         style="display:inline;fill:#0f47af;fill-opacity:1;fill-rule:nonzero;stroke:none"
         inkscape:connector-curvature="0" />
      <g
         transform="matrix(0.96363932,0,0,1,1064.1167,90.627212)"
         id="g24687"
         style="display:inline">
        <path
           style="fill:#078930;stroke:#056825;stroke-opacity:1"
           d="m -751.99978,54.619213 c -3.96621,0.65475 -8.36158,-0.38424 -11.98255,1.36165 -1.50329,0.72483 -1.97664,2.957 -3.5403,3.5403 -3.58128,1.33594 -7.99332,0.83989 -11.43789,-0.81699 -1.44728,-0.69616 -2.19196,-2.34805 -3.26797,-3.5403 -1.37888,-1.52783 -2.403,-3.44362 -4.08496,-4.62962 -1.59806,-1.12684 -4.12179,-0.74046 -5.44662,-2.17865 -0.83654,-0.90812 -0.12292,-2.77183 -1.08932,-3.5403 -0.99725,-0.79301 -2.91051,0.62742 -3.81263,-0.27233 -1.74014,-1.73556 0.82382,-5.31148 -0.54466,-7.35293 -0.67814,-1.01163 -2.59028,-0.62204 -3.26797,-1.63398 -2.07652,-3.10071 1.06285,-7.94181 -0.81699,-11.16556 -0.49462,-0.84823 -1.93134,-0.80085 -2.45098,-1.63399 -1.45396,-2.33115 -1.73303,-5.49899 -1.08932,-8.16992 0.33629,-1.39536 1.96401,-2.19012 2.45097,-3.5403 0.71103,-1.9714431 -0.63339,-4.5302991 0.54467,-6.2636031 0.5705,-0.839393 2.14521,-0.527469 2.7233,-1.361653 1.97569,-2.85091601 -0.95874,-7.549198 1.08933,-10.348569 0.93609,-1.279481 3.04786,-1.012593 4.35729,-1.906315 1.48448,-1.013201 2.84268,-2.2995389 3.81263,-3.8126299 1.41054,-2.200388 0.71321,-5.682355 2.72331,-7.352931 2.05447,-1.707449 5.41289,-0.380574 7.89759,-1.361653 3.53614,-1.396239 4.21691,-4.307659 7.08059,-6.808268 2.81095,-2.454565 6.42437,-6.314843 9.80391,-7.897593 3.78246,-1.771453 8.37762,0.20291 12.52722,-0.27233 3.96209,-0.453765 7.76645,-3.0432 11.71022,-2.450977 3.7813,0.567825 7.54627,-2.658387 11.71022,-2.178646 4.04104,0.46558 8.812,-1.19304 13.07188,0.27233 2.61495,0.899526 4.90271,-0.212281 7.62526,0.272331 1.70042,0.302674 3.50435,0.168539 5.17428,-0.27233 3.14015,-0.829012 5.36799,-1.924821 8.60179,-2.22537 3.29015,-0.305786 6.74109,1.039756 9.9167,1.953039 3.45125,0.992556 6.79301,2.491369 10.34857,2.995638 2.24694,0.318673 3.90413,-0.0023 6.038,0.770268 1.99993,0.724075 3.01423,3.104909 4.90196,4.084961 2.16931,1.126241 5.09539,0.480375 7.08059,1.906316 2.92415,2.100379 3.41854,6.468334 5.99128,8.986914 1.69155,1.655945 4.38556,2.073326 5.99128,3.812631 2.36889,2.565972 4.18867,5.327499 5.67222,8.4889769 2.12692,4.532512 4.1662,6.503314 5.99128,11.165561 1.23547,3.156073 1.26433,9.1581621 3.26797,12.2548821 1.4436,2.23116 -1.47273,5.26794 -1.08933,7.89759 0.3165,2.17077 2.57952,3.80227 2.72331,5.99128 0.14305,2.17773 -0.78346,4.39219 -1.90631,6.2636 -0.72655,1.21092 -2.41211,1.70968 -2.99564,2.99564 -1.12781,2.48544 0.62308,5.70299 -0.54466,8.16992 -0.85179,1.79948 -2.99123,2.63668 -4.3573,4.08497 -1.94591,2.06303 -3.11467,4.92202 -5.44661,6.53593 -1.81769,1.25801 -4.33277,1.10235 -6.26361,2.17865 -1.63461,0.91117 -2.65836,2.75555 -4.35729,3.5403 -2.2629,1.04526 -4.86294,1.24647 -7.35293,1.36165 -3.00478,0.139 -5.10805,0.0127 -7.62527,-1.63398 -1.73395,-1.13431 -2.79049,-3.27373 -4.35728,-4.62962 -2.34593,-2.03014 -6.14687,-1.5268 -8.71459,-3.26797 -2.23384,-1.51477 -3.04647,-4.75682 -5.44661,-5.99128 -2.76359,-1.4214 -6.28741,-0.18047 -9.25925,-1.08932 -3.02835,-0.92613 -5.45648,-3.30193 -8.44225,-4.35729 -2.97102,-1.05014 -6.10866,-1.84661 -9.25925,-1.90632 -2.76038,-0.0523 -5.49857,0.66429 -8.16992,1.36165 -2.33379,0.60924 -4.50824,1.72459 -6.80827,2.45098 -2.9609,0.9351 -6.18027,1.12279 -8.98691,2.45098 -3.82493,1.81008 -6.47771,5.64327 -10.34857,7.35293 -1.95449,0.86324 -4.15551,1.01364 -6.26361,1.36165 z"
           id="path24598"
           inkscape:connector-curvature="0"
           sodipodi:nodetypes="sssssssssssssssssssssssssssssssssssssssssssssssssssssssssssssss" />
        <path
           style="fill:#078930;stroke:#056825;stroke-width:1.01869166px;stroke-linecap:round;stroke-linejoin:round;stroke-opacity:1"
           d="m -762.95012,49.778543 c 7.52054,12.72744 27.73984,26.04156 32.73637,28.49991 2.65432,1.30596 0.75815,26.668197 -0.77026,27.729627 -8.18584,5.68479 -18.83838,16.85769 -14.9735,29.951 0.44417,1.50476 8.09219,-6.79356 14.58836,-11.07944 2.99397,-1.97529 6.61008,-2.75596 8.85808,-1.1554 -12.98582,9.97852 -7.71452,26.69328 -4.8045,25.0337 1.96158,-1.11869 4.8868,-8.71267 9.99077,-14.92523 3.42422,-4.16796 8.76571,-7.30547 13.30015,-13.57468 25.43002,8.21196 21.01047,19.26901 23.8783,20.02696 3.16616,0.8368 9.49737,-23.55849 -10.01348,-35.81744 -2.02611,-10.348387 -2.46229,-21.491747 -0.38513,-33.891777 10.1808,-8.02761 10.53464,-13.74602 16.89916,-22.69953 2.07118,-2.91372 -13.40663,-10.38298 -15.35863,-7.34091 -6.72698,10.48356 -15.87488,23.38885 -17.33102,23.49316 -3.0254,0.21672 -10.82895,-16.04497 -14.63509,-28.88503 -0.91172,-3.07571 -15.5392,-0.66848 -14.63508,1.92567 5.8477,16.77863 16.24793,35.08369 15.40535,35.81744 -1.08497,0.94483 -21.9908,-17.40982 -29.6553,-29.27017 -2.03321,-3.14627 -14.17571,4.33243 -13.09455,6.16214 z"
           id="path24596"
           inkscape:connector-curvature="0"
           sodipodi:nodetypes="ssssscsscsccssssssss" />
        <path
           style="fill:#056825;fill-opacity:1;stroke:none"
           d="m -785.22415,3.4374119 c 5.34126,4.337358 11.74503,3.814432 18.19141,3.096412 -0.77059,-2.649427 -6.01127,-1.662506 -8.93549,-2.298832 -4.53771,-0.987423 -6.19459,-0.890289 -9.25592,-0.79758 z"
           id="path24600"
           inkscape:connector-curvature="0"
           sodipodi:nodetypes="ccsc" />
        <path
           sodipodi:nodetypes="ccsc"
           inkscape:connector-curvature="0"
           id="path24602"
           d="m -769.43366,-2.7247294 c 5.34126,5.7377131 11.74503,5.0459557 18.19141,4.0961164 -0.77059,-3.5048183 -6.01127,-2.19926094 -8.93549,-3.0410305 -4.53771,-1.3062214 -6.19459,-1.1777268 -9.25592,-1.0550859 z"
           style="fill:#056825;fill-opacity:1;stroke:none" />
        <path
           style="fill:#056825;fill-opacity:1;stroke:none"
           d="m -755.47104,9.1977139 c 6.75088,3.9844751 12.69448,1.5024721 18.60565,-1.2390862 -1.73426,-3.1416404 -6.38835,-0.4014417 -9.43122,-0.3780427 -4.72184,0.036319 -6.27399,0.6300918 -9.17443,1.6171289 z"
           id="path24604"
           inkscape:connector-curvature="0"
           sodipodi:nodetypes="ccsc" />
        <path
           sodipodi:nodetypes="ccsc"
           inkscape:connector-curvature="0"
           id="path24606"
           d="m -758.91348,-9.6755548 c 4.71706,3.648118 9.43864,2.3389862 14.16037,0.8308739 -1.01073,-2.5357951 -4.78354,-0.9093851 -7.08239,-1.1805591 -3.5673,-0.420793 -4.79516,-0.119973 -7.07798,0.3496852 z"
           style="fill:#056825;fill-opacity:1;stroke:none" />
        <path
           sodipodi:nodetypes="ccsc"
           inkscape:connector-curvature="0"
           id="path24608"
           d="m -743.94071,-1.8117857 c 5.169,5.8933667 11.59044,5.3915433 18.06213,4.6330176 -0.66647,-3.5261007 -5.94351,-2.376308 -8.84152,-3.30430098 -4.49704,-1.44002472 -6.15699,-1.36064862 -9.22061,-1.32871662 z"
           style="fill:#056825;fill-opacity:1;stroke:none" />
        <path
           style="fill:#056825;fill-opacity:1;stroke:none"
           d="m -728.53536,7.973194 c 4.61791,5.265053 10.35474,4.816732 16.13646,4.139075 -0.59541,-3.1501706 -5.30985,-2.1229614 -7.89889,-2.9520177 -4.0176,-1.2864985 -5.50057,-1.2155849 -8.23757,-1.1870573 z"
           id="path24610"
           inkscape:connector-curvature="0"
           sodipodi:nodetypes="ccsc" />
        <path
           sodipodi:nodetypes="ccsc"
           inkscape:connector-curvature="0"
           id="path24612"
           d="m -715.12979,5.3630811 c 5.34126,4.337358 11.74503,3.814432 18.19141,3.096412 -0.77059,-2.649427 -6.01127,-1.662506 -8.93549,-2.298832 -4.53771,-0.987423 -6.19459,-0.890289 -9.25592,-0.79758 z"
           style="fill:#056825;fill-opacity:1;stroke:none" />
        <path
           style="fill:#056825;fill-opacity:1;stroke:none"
           d="m -707.81225,14.606293 c 4.54969,4.337358 10.00444,3.814432 15.49547,3.096412 -0.65639,-2.649427 -5.12041,-1.662506 -7.61126,-2.298832 -3.86523,-0.987423 -5.27656,-0.890289 -7.88421,-0.79758 z"
           id="path24614"
           inkscape:connector-curvature="0"
           sodipodi:nodetypes="ccsc" />
        <path
           style="fill:#056825;fill-opacity:1;stroke:none;display:inline"
           d="m -671.40514,21.813867 c -4.07291,-5.545551 -10.4012,-6.656628 -16.81998,-7.589694 0.0766,2.758153 5.39665,3.126573 8.06542,4.48069 4.14132,2.101269 5.76903,2.425672 8.75456,3.109004 z"
           id="path24600-3"
           inkscape:connector-curvature="0"
           sodipodi:nodetypes="ccsc" />
        <path
           style="fill:#056825;fill-opacity:1;stroke:none;display:inline"
           d="m -676.36182,27.143976 c 5.05504,5.546006 11.48347,5.250057 17.96697,4.719605 -0.59925,-3.255932 -5.89603,-2.335402 -8.77527,-3.262245 -4.46789,-1.438235 -6.1287,-1.407975 -9.1917,-1.45736 z"
           id="path24600-1"
           inkscape:connector-curvature="0"
           sodipodi:nodetypes="ccsc" />
        <path
           style="fill:#056825;fill-opacity:1;stroke:none;display:inline"
           d="m -699.00079,31.367325 c 6.33915,2.675247 12.34285,0.386748 18.33306,-2.100987 -1.47906,-2.329304 -6.23641,0.08033 -9.22206,0.284971 -4.63303,0.317566 -6.19705,0.87303 -9.111,1.816016 z"
           id="path24600-2"
           inkscape:connector-curvature="0"
           sodipodi:nodetypes="ccsc" />
        <path
           style="fill:#056825;fill-opacity:1;stroke:none;display:inline"
           d="m -673.8367,38.003364 c 3.87121,4.337358 8.5125,3.814432 13.18467,3.096412 -0.5585,-2.649427 -4.35682,-1.662506 -6.47622,-2.298832 -3.28881,-0.987423 -4.48968,-0.890289 -6.70845,-0.79758 z"
           id="path24600-7"
           inkscape:connector-curvature="0"
           sodipodi:nodetypes="ccsc" />
        <path
           sodipodi:nodetypes="ccsc"
           inkscape:connector-curvature="0"
           id="path24655"
           d="m -773.95747,13.434187 c 6.75088,5.102411 12.69448,3.604661 18.60565,1.841983 -1.73426,-3.428831 -6.38835,-1.459343 -9.43122,-1.939839 -4.72184,-0.74561 -6.27399,-0.408873 -9.17443,0.09786 z"
           style="fill:#056825;fill-opacity:1;stroke:none" />
        <path
           style="fill:#056825;fill-opacity:1;stroke:none"
           d="m -793.98443,11.893651 c 4.37526,5.102411 8.22733,3.604661 12.05837,1.841983 -1.12397,-3.428831 -4.1403,-1.459343 -6.1124,-1.939839 -3.06023,-0.74561 -4.06619,-0.408873 -5.94597,0.09786 z"
           id="path24657"
           inkscape:connector-curvature="0"
           sodipodi:nodetypes="ccsc" />
        <path
           sodipodi:nodetypes="ccsc"
           inkscape:connector-curvature="0"
           id="path24659"
           d="m -787.05202,-6.2076392 c 4.93423,5.102411 9.27843,3.604661 13.59891,1.841983 -1.26757,-3.428831 -4.66925,-1.459343 -6.8933,-1.939839 -3.4512,-0.74561 -4.58568,-0.408873 -6.70561,0.09786 z"
           style="fill:#056825;fill-opacity:1;stroke:none" />
        <path
           sodipodi:nodetypes="ccsc"
           inkscape:connector-curvature="0"
           id="path24661"
           d="m -745.45756,15.359855 c 6.75088,3.984475 12.69448,1.502472 18.60565,-1.239086 -1.73426,-3.14164 -6.38835,-0.401442 -9.43122,-0.378043 -4.72184,0.03632 -6.27399,0.630092 -9.17443,1.617129 z"
           style="fill:#056825;fill-opacity:1;stroke:none" />
        <path
           style="fill:#056825;fill-opacity:1;stroke:none"
           d="m -727.05605,18.821929 c 5.31299,5.763906 11.72007,5.103642 18.17105,4.185512 -0.75335,-3.508564 -6.00039,-2.228793 -8.92043,-3.084929 -4.53124,-1.328518 -6.18872,-1.20817 -9.25062,-1.100583 z"
           id="path24663"
           inkscape:connector-curvature="0"
           sodipodi:nodetypes="ccsc" />
        <path
           style="fill:#056825;fill-opacity:1;stroke:none"
           d="m -707.42711,23.079237 c 5.34126,4.337358 11.74503,3.814432 18.19141,3.096412 -0.77059,-2.649427 -6.01127,-1.662506 -8.93549,-2.298832 -4.53771,-0.987423 -6.19459,-0.890289 -9.25592,-0.79758 z"
           id="path24665"
           inkscape:connector-curvature="0"
           sodipodi:nodetypes="ccsc" />
        <path
           sodipodi:nodetypes="ccsc"
           inkscape:connector-curvature="0"
           id="path24667"
           d="m -716.58656,29.915553 c 3.87121,4.337358 8.5125,3.814432 13.18467,3.096412 -0.5585,-2.649427 -4.35682,-1.662506 -6.47622,-2.298832 -3.28881,-0.987423 -4.48968,-0.890289 -6.70845,-0.79758 z"
           style="fill:#056825;fill-opacity:1;stroke:none;display:inline" />
        <path
           sodipodi:nodetypes="ccsc"
           inkscape:connector-curvature="0"
           id="path24669"
           d="m -744.43624,28.623864 c 6.56034,2.451088 11.40114,-0.660001 16.1729,-3.994345 -2.01595,-2.492799 -5.68213,0.644113 -8.35512,1.139697 -4.14786,0.76904 -5.4205,1.53364 -7.81778,2.854648 z"
           style="fill:#056825;fill-opacity:1;stroke:none" />
        <path
           sodipodi:nodetypes="ccsc"
           inkscape:connector-curvature="0"
           id="path24671"
           d="m -794.08223,20.768434 c 5.34126,4.337358 11.74503,3.814432 18.19141,3.096412 -0.77059,-2.649427 -6.01127,-1.662506 -8.93549,-2.298832 -4.53771,-0.987423 -6.19459,-0.890289 -9.25592,-0.79758 z"
           style="fill:#056825;fill-opacity:1;stroke:none" />
        <path
           style="fill:#056825;fill-opacity:1;stroke:none"
           d="m -763.29404,24.171303 c 5.29199,2.116303 9.96644,-0.683451 14.61608,-3.680523 -1.35407,-2.192486 -5.01639,0.620026 -7.40634,1.082423 -3.70862,0.717538 -4.9292,1.406341 -7.20974,2.5981 z"
           id="path24673"
           inkscape:connector-curvature="0"
           sodipodi:nodetypes="ccsc" />
        <path
           style="fill:#056825;fill-opacity:1;stroke:none;display:inline"
           d="m -761.06285,33.618809 c 5.19503,2.609724 9.31875,0.416564 13.39944,-1.969374 -1.49372,-2.258363 -4.6629,0.05626 -6.86779,0.243962 -3.42147,0.291267 -4.50246,0.823225 -6.53165,1.725412 z"
           id="path24675"
           inkscape:connector-curvature="0"
           sodipodi:nodetypes="ccsc" />
        <path
           sodipodi:nodetypes="ccsc"
           inkscape:connector-curvature="0"
           id="path24677"
           d="m -753.36017,38.625549 c 5.19503,2.609724 9.31875,0.416564 13.39944,-1.969374 -1.49372,-2.258363 -4.6629,0.05626 -6.86779,0.243962 -3.42147,0.291267 -4.50246,0.823225 -6.53165,1.725412 z"
           style="fill:#056825;fill-opacity:1;stroke:none;display:inline" />
        <path
           sodipodi:nodetypes="ccsc"
           inkscape:connector-curvature="0"
           id="path24679"
           d="m -778.67688,27.700843 c 4.54969,4.337358 10.00444,3.814432 15.49547,3.096412 -0.65639,-2.649427 -5.12041,-1.662506 -7.61126,-2.298832 -3.86523,-0.987423 -5.27656,-0.890289 -7.88421,-0.79758 z"
           style="fill:#056825;fill-opacity:1;stroke:none" />
        <path
           style="fill:#056825;fill-opacity:1;stroke:none"
           d="m -797.47431,30.539456 c 5.169,5.893367 11.59044,5.391544 18.06213,4.633018 -0.66647,-3.526101 -5.94351,-2.376308 -8.84152,-3.304301 -4.49704,-1.440025 -6.15699,-1.360649 -9.22061,-1.328717 z"
           id="path24681"
           inkscape:connector-curvature="0"
           sodipodi:nodetypes="ccsc" />
        <path
           sodipodi:nodetypes="ccsc"
           inkscape:connector-curvature="0"
           id="path24683"
           d="m -776.94136,41.741744 c 4.0911,-3.968229 9.47875,-3.154418 14.91842,-2.14866 -0.41952,2.542538 -4.87579,1.332381 -7.2622,1.812688 -3.70314,0.745311 -5.0939,0.571903 -7.65622,0.335972 z"
           style="fill:#056825;fill-opacity:1;stroke:none" />
        <path
           sodipodi:nodetypes="ccsc"
           inkscape:connector-curvature="0"
           id="path24685"
           d="m -784.45388,47.727803 c 5.34126,4.337358 11.74503,3.814432 18.19141,3.096412 -0.77059,-2.649427 -6.01127,-1.662506 -8.93549,-2.298832 -4.53771,-0.987423 -6.19459,-0.890289 -9.25592,-0.79758 z"
           style="fill:#056825;fill-opacity:1;stroke:none" />
      </g>
      <g
         id="g24787"
         transform="matrix(0.96363932,0,0,1,876.61667,90.627212)"
         style="display:inline">
        <path
           sodipodi:nodetypes="sssssssssssssssssssssssssssssssssssssssssssssssssssssssssssssss"
           inkscape:connector-curvature="0"
           id="path24789"
           d="m -751.99978,54.619213 c -3.96621,0.65475 -8.36158,-0.38424 -11.98255,1.36165 -1.50329,0.72483 -1.97664,2.957 -3.5403,3.5403 -3.58128,1.33594 -7.99332,0.83989 -11.43789,-0.81699 -1.44728,-0.69616 -2.19196,-2.34805 -3.26797,-3.5403 -1.37888,-1.52783 -2.403,-3.44362 -4.08496,-4.62962 -1.59806,-1.12684 -4.12179,-0.74046 -5.44662,-2.17865 -0.83654,-0.90812 -0.12292,-2.77183 -1.08932,-3.5403 -0.99725,-0.79301 -2.91051,0.62742 -3.81263,-0.27233 -1.74014,-1.73556 0.82382,-5.31148 -0.54466,-7.35293 -0.67814,-1.01163 -2.59028,-0.62204 -3.26797,-1.63398 -2.07652,-3.10071 1.06285,-7.94181 -0.81699,-11.16556 -0.49462,-0.84823 -1.93134,-0.80085 -2.45098,-1.63399 -1.45396,-2.33115 -1.73303,-5.49899 -1.08932,-8.16992 0.33629,-1.39536 1.96401,-2.19012 2.45097,-3.5403 0.71103,-1.9714431 -0.63339,-4.5302991 0.54467,-6.2636031 0.5705,-0.839393 2.14521,-0.527469 2.7233,-1.361653 1.97569,-2.85091601 -0.95874,-7.549198 1.08933,-10.348569 0.93609,-1.279481 3.04786,-1.012593 4.35729,-1.906315 1.48448,-1.013201 2.84268,-2.2995389 3.81263,-3.8126299 1.41054,-2.200388 0.71321,-5.682355 2.72331,-7.352931 2.05447,-1.707449 5.41289,-0.380574 7.89759,-1.361653 3.53614,-1.396239 4.21691,-4.307659 7.08059,-6.808268 2.81095,-2.454565 6.42437,-6.314843 9.80391,-7.897593 3.78246,-1.771453 8.37762,0.20291 12.52722,-0.27233 3.96209,-0.453765 7.76645,-3.0432 11.71022,-2.450977 3.7813,0.567825 7.54627,-2.658387 11.71022,-2.178646 4.04104,0.46558 8.812,-1.19304 13.07188,0.27233 2.61495,0.899526 4.90271,-0.212281 7.62526,0.272331 1.70042,0.302674 3.50435,0.168539 5.17428,-0.27233 3.14015,-0.829012 5.36799,-1.924821 8.60179,-2.22537 3.29015,-0.305786 6.74109,1.039756 9.9167,1.953039 3.45125,0.992556 6.79301,2.491369 10.34857,2.995638 2.24694,0.318673 3.90413,-0.0023 6.038,0.770268 1.99993,0.724075 3.01423,3.104909 4.90196,4.084961 2.16931,1.126241 5.09539,0.480375 7.08059,1.906316 2.92415,2.100379 3.41854,6.468334 5.99128,8.986914 1.69155,1.655945 4.38556,2.073326 5.99128,3.812631 2.36889,2.565972 4.18867,5.327499 5.67222,8.4889769 2.12692,4.532512 4.1662,6.503314 5.99128,11.165561 1.23547,3.156073 1.26433,9.1581621 3.26797,12.2548821 1.4436,2.23116 -1.47273,5.26794 -1.08933,7.89759 0.3165,2.17077 2.57952,3.80227 2.72331,5.99128 0.14305,2.17773 -0.78346,4.39219 -1.90631,6.2636 -0.72655,1.21092 -2.41211,1.70968 -2.99564,2.99564 -1.12781,2.48544 0.62308,5.70299 -0.54466,8.16992 -0.85179,1.79948 -2.99123,2.63668 -4.3573,4.08497 -1.94591,2.06303 -3.11467,4.92202 -5.44661,6.53593 -1.81769,1.25801 -4.33277,1.10235 -6.26361,2.17865 -1.63461,0.91117 -2.65836,2.75555 -4.35729,3.5403 -2.2629,1.04526 -4.86294,1.24647 -7.35293,1.36165 -3.00478,0.139 -5.10805,0.0127 -7.62527,-1.63398 -1.73395,-1.13431 -2.79049,-3.27373 -4.35728,-4.62962 -2.34593,-2.03014 -6.14687,-1.5268 -8.71459,-3.26797 -2.23384,-1.51477 -3.04647,-4.75682 -5.44661,-5.99128 -2.76359,-1.4214 -6.28741,-0.18047 -9.25925,-1.08932 -3.02835,-0.92613 -5.45648,-3.30193 -8.44225,-4.35729 -2.97102,-1.05014 -6.10866,-1.84661 -9.25925,-1.90632 -2.76038,-0.0523 -5.49857,0.66429 -8.16992,1.36165 -2.33379,0.60924 -4.50824,1.72459 -6.80827,2.45098 -2.9609,0.9351 -6.18027,1.12279 -8.98691,2.45098 -3.82493,1.81008 -6.47771,5.64327 -10.34857,7.35293 -1.95449,0.86324 -4.15551,1.01364 -6.26361,1.36165 z"
           style="fill:#078930;stroke:#056825;stroke-opacity:1" />
        <path
           sodipodi:nodetypes="ssssscsscsccssssssss"
           inkscape:connector-curvature="0"
           id="path24791"
           d="m -762.95012,49.778543 c 7.52054,12.72744 27.73984,26.04156 32.73637,28.49991 2.65432,1.30596 0.75815,26.668197 -0.77026,27.729627 -8.18584,5.68479 -18.83838,16.85769 -14.9735,29.951 0.44417,1.50476 8.09219,-6.79356 14.58836,-11.07944 2.99397,-1.97529 6.61008,-2.75596 8.85808,-1.1554 -12.98582,9.97852 -7.71452,26.69328 -4.8045,25.0337 1.96158,-1.11869 4.8868,-8.71267 9.99077,-14.92523 3.42422,-4.16796 8.76571,-7.30547 13.30015,-13.57468 25.43002,8.21196 21.01047,19.26901 23.8783,20.02696 3.16616,0.8368 9.49737,-23.55849 -10.01348,-35.81744 -2.02611,-10.348387 -2.46229,-21.491747 -0.38513,-33.891777 10.1808,-8.02761 10.53464,-13.74602 16.89916,-22.69953 2.07118,-2.91372 -13.40663,-10.38298 -15.35863,-7.34091 -6.72698,10.48356 -15.87488,23.38885 -17.33102,23.49316 -3.0254,0.21672 -10.82895,-16.04497 -14.63509,-28.88503 -0.91172,-3.07571 -15.5392,-0.66848 -14.63508,1.92567 5.8477,16.77863 16.24793,35.08369 15.40535,35.81744 -1.08497,0.94483 -21.9908,-17.40982 -29.6553,-29.27017 -2.03321,-3.14627 -14.17571,4.33243 -13.09455,6.16214 z"
           style="fill:#078930;stroke:#056825;stroke-width:1.01869166px;stroke-linecap:round;stroke-linejoin:round;stroke-opacity:1" />
        <path
           sodipodi:nodetypes="ccsc"
           inkscape:connector-curvature="0"
           id="path24793"
           d="m -785.22415,3.4374119 c 5.34126,4.337358 11.74503,3.814432 18.19141,3.096412 -0.77059,-2.649427 -6.01127,-1.662506 -8.93549,-2.298832 -4.53771,-0.987423 -6.19459,-0.890289 -9.25592,-0.79758 z"
           style="fill:#056825;fill-opacity:1;stroke:none" />
        <path
           style="fill:#056825;fill-opacity:1;stroke:none"
           d="m -769.43366,-2.7247294 c 5.34126,5.7377131 11.74503,5.0459557 18.19141,4.0961164 -0.77059,-3.5048183 -6.01127,-2.19926094 -8.93549,-3.0410305 -4.53771,-1.3062214 -6.19459,-1.1777268 -9.25592,-1.0550859 z"
           id="path24795"
           inkscape:connector-curvature="0"
           sodipodi:nodetypes="ccsc" />
        <path
           sodipodi:nodetypes="ccsc"
           inkscape:connector-curvature="0"
           id="path24797"
           d="m -755.47104,9.1977139 c 6.75088,3.9844751 12.69448,1.5024721 18.60565,-1.2390862 -1.73426,-3.1416404 -6.38835,-0.4014417 -9.43122,-0.3780427 -4.72184,0.036319 -6.27399,0.6300918 -9.17443,1.6171289 z"
           style="fill:#056825;fill-opacity:1;stroke:none" />
        <path
           style="fill:#056825;fill-opacity:1;stroke:none"
           d="m -758.91348,-9.6755548 c 4.71706,3.648118 9.43864,2.3389862 14.16037,0.8308739 -1.01073,-2.5357951 -4.78354,-0.9093851 -7.08239,-1.1805591 -3.5673,-0.420793 -4.79516,-0.119973 -7.07798,0.3496852 z"
           id="path24799"
           inkscape:connector-curvature="0"
           sodipodi:nodetypes="ccsc" />
        <path
           style="fill:#056825;fill-opacity:1;stroke:none"
           d="m -743.94071,-1.8117857 c 5.169,5.8933667 11.59044,5.3915433 18.06213,4.6330176 -0.66647,-3.5261007 -5.94351,-2.376308 -8.84152,-3.30430098 -4.49704,-1.44002472 -6.15699,-1.36064862 -9.22061,-1.32871662 z"
           id="path24801"
           inkscape:connector-curvature="0"
           sodipodi:nodetypes="ccsc" />
        <path
           sodipodi:nodetypes="ccsc"
           inkscape:connector-curvature="0"
           id="path24803"
           d="m -728.53536,7.973194 c 4.61791,5.265053 10.35474,4.816732 16.13646,4.139075 -0.59541,-3.1501706 -5.30985,-2.1229614 -7.89889,-2.9520177 -4.0176,-1.2864985 -5.50057,-1.2155849 -8.23757,-1.1870573 z"
           style="fill:#056825;fill-opacity:1;stroke:none" />
        <path
           style="fill:#056825;fill-opacity:1;stroke:none"
           d="m -715.12979,5.3630811 c 5.34126,4.337358 11.74503,3.814432 18.19141,3.096412 -0.77059,-2.649427 -6.01127,-1.662506 -8.93549,-2.298832 -4.53771,-0.987423 -6.19459,-0.890289 -9.25592,-0.79758 z"
           id="path24805"
           inkscape:connector-curvature="0"
           sodipodi:nodetypes="ccsc" />
        <path
           sodipodi:nodetypes="ccsc"
           inkscape:connector-curvature="0"
           id="path24807"
           d="m -707.81225,14.606293 c 4.54969,4.337358 10.00444,3.814432 15.49547,3.096412 -0.65639,-2.649427 -5.12041,-1.662506 -7.61126,-2.298832 -3.86523,-0.987423 -5.27656,-0.890289 -7.88421,-0.79758 z"
           style="fill:#056825;fill-opacity:1;stroke:none" />
        <path
           sodipodi:nodetypes="ccsc"
           inkscape:connector-curvature="0"
           id="path24809"
           d="m -671.40514,21.813867 c -4.07291,-5.545551 -10.4012,-6.656628 -16.81998,-7.589694 0.0766,2.758153 5.39665,3.126573 8.06542,4.48069 4.14132,2.101269 5.76903,2.425672 8.75456,3.109004 z"
           style="fill:#056825;fill-opacity:1;stroke:none;display:inline" />
        <path
           sodipodi:nodetypes="ccsc"
           inkscape:connector-curvature="0"
           id="path24811"
           d="m -676.36182,27.143976 c 5.05504,5.546006 11.48347,5.250057 17.96697,4.719605 -0.59925,-3.255932 -5.89603,-2.335402 -8.77527,-3.262245 -4.46789,-1.438235 -6.1287,-1.407975 -9.1917,-1.45736 z"
           style="fill:#056825;fill-opacity:1;stroke:none;display:inline" />
        <path
           sodipodi:nodetypes="ccsc"
           inkscape:connector-curvature="0"
           id="path24813"
           d="m -699.00079,31.367325 c 6.33915,2.675247 12.34285,0.386748 18.33306,-2.100987 -1.47906,-2.329304 -6.23641,0.08033 -9.22206,0.284971 -4.63303,0.317566 -6.19705,0.87303 -9.111,1.816016 z"
           style="fill:#056825;fill-opacity:1;stroke:none;display:inline" />
        <path
           sodipodi:nodetypes="ccsc"
           inkscape:connector-curvature="0"
           id="path24815"
           d="m -673.8367,38.003364 c 3.87121,4.337358 8.5125,3.814432 13.18467,3.096412 -0.5585,-2.649427 -4.35682,-1.662506 -6.47622,-2.298832 -3.28881,-0.987423 -4.48968,-0.890289 -6.70845,-0.79758 z"
           style="fill:#056825;fill-opacity:1;stroke:none;display:inline" />
        <path
           style="fill:#056825;fill-opacity:1;stroke:none"
           d="m -773.95747,13.434187 c 6.75088,5.102411 12.69448,3.604661 18.60565,1.841983 -1.73426,-3.428831 -6.38835,-1.459343 -9.43122,-1.939839 -4.72184,-0.74561 -6.27399,-0.408873 -9.17443,0.09786 z"
           id="path24817"
           inkscape:connector-curvature="0"
           sodipodi:nodetypes="ccsc" />
        <path
           sodipodi:nodetypes="ccsc"
           inkscape:connector-curvature="0"
           id="path24819"
           d="m -793.98443,11.893651 c 4.37526,5.102411 8.22733,3.604661 12.05837,1.841983 -1.12397,-3.428831 -4.1403,-1.459343 -6.1124,-1.939839 -3.06023,-0.74561 -4.06619,-0.408873 -5.94597,0.09786 z"
           style="fill:#056825;fill-opacity:1;stroke:none" />
        <path
           style="fill:#056825;fill-opacity:1;stroke:none"
           d="m -787.05202,-6.2076392 c 4.93423,5.102411 9.27843,3.604661 13.59891,1.841983 -1.26757,-3.428831 -4.66925,-1.459343 -6.8933,-1.939839 -3.4512,-0.74561 -4.58568,-0.408873 -6.70561,0.09786 z"
           id="path24821"
           inkscape:connector-curvature="0"
           sodipodi:nodetypes="ccsc" />
        <path
           style="fill:#056825;fill-opacity:1;stroke:none"
           d="m -745.45756,15.359855 c 6.75088,3.984475 12.69448,1.502472 18.60565,-1.239086 -1.73426,-3.14164 -6.38835,-0.401442 -9.43122,-0.378043 -4.72184,0.03632 -6.27399,0.630092 -9.17443,1.617129 z"
           id="path24823"
           inkscape:connector-curvature="0"
           sodipodi:nodetypes="ccsc" />
        <path
           sodipodi:nodetypes="ccsc"
           inkscape:connector-curvature="0"
           id="path24825"
           d="m -727.05605,18.821929 c 5.31299,5.763906 11.72007,5.103642 18.17105,4.185512 -0.75335,-3.508564 -6.00039,-2.228793 -8.92043,-3.084929 -4.53124,-1.328518 -6.18872,-1.20817 -9.25062,-1.100583 z"
           style="fill:#056825;fill-opacity:1;stroke:none" />
        <path
           sodipodi:nodetypes="ccsc"
           inkscape:connector-curvature="0"
           id="path24827"
           d="m -707.42711,23.079237 c 5.34126,4.337358 11.74503,3.814432 18.19141,3.096412 -0.77059,-2.649427 -6.01127,-1.662506 -8.93549,-2.298832 -4.53771,-0.987423 -6.19459,-0.890289 -9.25592,-0.79758 z"
           style="fill:#056825;fill-opacity:1;stroke:none" />
        <path
           style="fill:#056825;fill-opacity:1;stroke:none;display:inline"
           d="m -716.58656,29.915553 c 3.87121,4.337358 8.5125,3.814432 13.18467,3.096412 -0.5585,-2.649427 -4.35682,-1.662506 -6.47622,-2.298832 -3.28881,-0.987423 -4.48968,-0.890289 -6.70845,-0.79758 z"
           id="path24829"
           inkscape:connector-curvature="0"
           sodipodi:nodetypes="ccsc" />
        <path
           style="fill:#056825;fill-opacity:1;stroke:none"
           d="m -744.43624,28.623864 c 6.56034,2.451088 11.40114,-0.660001 16.1729,-3.994345 -2.01595,-2.492799 -5.68213,0.644113 -8.35512,1.139697 -4.14786,0.76904 -5.4205,1.53364 -7.81778,2.854648 z"
           id="path24831"
           inkscape:connector-curvature="0"
           sodipodi:nodetypes="ccsc" />
        <path
           style="fill:#056825;fill-opacity:1;stroke:none"
           d="m -794.08223,20.768434 c 5.34126,4.337358 11.74503,3.814432 18.19141,3.096412 -0.77059,-2.649427 -6.01127,-1.662506 -8.93549,-2.298832 -4.53771,-0.987423 -6.19459,-0.890289 -9.25592,-0.79758 z"
           id="path24833"
           inkscape:connector-curvature="0"
           sodipodi:nodetypes="ccsc" />
        <path
           sodipodi:nodetypes="ccsc"
           inkscape:connector-curvature="0"
           id="path24835"
           d="m -763.29404,24.171303 c 5.29199,2.116303 9.96644,-0.683451 14.61608,-3.680523 -1.35407,-2.192486 -5.01639,0.620026 -7.40634,1.082423 -3.70862,0.717538 -4.9292,1.406341 -7.20974,2.5981 z"
           style="fill:#056825;fill-opacity:1;stroke:none" />
        <path
           sodipodi:nodetypes="ccsc"
           inkscape:connector-curvature="0"
           id="path24837"
           d="m -761.06285,33.618809 c 5.19503,2.609724 9.31875,0.416564 13.39944,-1.969374 -1.49372,-2.258363 -4.6629,0.05626 -6.86779,0.243962 -3.42147,0.291267 -4.50246,0.823225 -6.53165,1.725412 z"
           style="fill:#056825;fill-opacity:1;stroke:none;display:inline" />
        <path
           style="fill:#056825;fill-opacity:1;stroke:none;display:inline"
           d="m -753.36017,38.625549 c 5.19503,2.609724 9.31875,0.416564 13.39944,-1.969374 -1.49372,-2.258363 -4.6629,0.05626 -6.86779,0.243962 -3.42147,0.291267 -4.50246,0.823225 -6.53165,1.725412 z"
           id="path24839"
           inkscape:connector-curvature="0"
           sodipodi:nodetypes="ccsc" />
        <path
           style="fill:#056825;fill-opacity:1;stroke:none"
           d="m -778.67688,27.700843 c 4.54969,4.337358 10.00444,3.814432 15.49547,3.096412 -0.65639,-2.649427 -5.12041,-1.662506 -7.61126,-2.298832 -3.86523,-0.987423 -5.27656,-0.890289 -7.88421,-0.79758 z"
           id="path24841"
           inkscape:connector-curvature="0"
           sodipodi:nodetypes="ccsc" />
        <path
           sodipodi:nodetypes="ccsc"
           inkscape:connector-curvature="0"
           id="path24843"
           d="m -797.47431,30.539456 c 5.169,5.893367 11.59044,5.391544 18.06213,4.633018 -0.66647,-3.526101 -5.94351,-2.376308 -8.84152,-3.304301 -4.49704,-1.440025 -6.15699,-1.360649 -9.22061,-1.328717 z"
           style="fill:#056825;fill-opacity:1;stroke:none" />
        <path
           style="fill:#056825;fill-opacity:1;stroke:none"
           d="m -776.94136,41.741744 c 4.0911,-3.968229 9.47875,-3.154418 14.91842,-2.14866 -0.41952,2.542538 -4.87579,1.332381 -7.2622,1.812688 -3.70314,0.745311 -5.0939,0.571903 -7.65622,0.335972 z"
           id="path24845"
           inkscape:connector-curvature="0"
           sodipodi:nodetypes="ccsc" />
        <path
           style="fill:#056825;fill-opacity:1;stroke:none"
           d="m -784.45388,47.727803 c 5.34126,4.337358 11.74503,3.814432 18.19141,3.096412 -0.77059,-2.649427 -6.01127,-1.662506 -8.93549,-2.298832 -4.53771,-0.987423 -6.19459,-0.890289 -9.25592,-0.79758 z"
           id="path24847"
           inkscape:connector-curvature="0"
           sodipodi:nodetypes="ccsc" />
      </g>
      <g
         id="g24849"
         transform="matrix(0.96363932,0,0,1,1251.6167,90.627212)"
         style="display:inline">
        <path
           sodipodi:nodetypes="sssssssssssssssssssssssssssssssssssssssssssssssssssssssssssssss"
           inkscape:connector-curvature="0"
           id="path24851"
           d="m -751.99978,54.619213 c -3.96621,0.65475 -8.36158,-0.38424 -11.98255,1.36165 -1.50329,0.72483 -1.97664,2.957 -3.5403,3.5403 -3.58128,1.33594 -7.99332,0.83989 -11.43789,-0.81699 -1.44728,-0.69616 -2.19196,-2.34805 -3.26797,-3.5403 -1.37888,-1.52783 -2.403,-3.44362 -4.08496,-4.62962 -1.59806,-1.12684 -4.12179,-0.74046 -5.44662,-2.17865 -0.83654,-0.90812 -0.12292,-2.77183 -1.08932,-3.5403 -0.99725,-0.79301 -2.91051,0.62742 -3.81263,-0.27233 -1.74014,-1.73556 0.82382,-5.31148 -0.54466,-7.35293 -0.67814,-1.01163 -2.59028,-0.62204 -3.26797,-1.63398 -2.07652,-3.10071 1.06285,-7.94181 -0.81699,-11.16556 -0.49462,-0.84823 -1.93134,-0.80085 -2.45098,-1.63399 -1.45396,-2.33115 -1.73303,-5.49899 -1.08932,-8.16992 0.33629,-1.39536 1.96401,-2.19012 2.45097,-3.5403 0.71103,-1.9714431 -0.63339,-4.5302991 0.54467,-6.2636031 0.5705,-0.839393 2.14521,-0.527469 2.7233,-1.361653 1.97569,-2.85091601 -0.95874,-7.549198 1.08933,-10.348569 0.93609,-1.279481 3.04786,-1.012593 4.35729,-1.906315 1.48448,-1.013201 2.84268,-2.2995389 3.81263,-3.8126299 1.41054,-2.200388 0.71321,-5.682355 2.72331,-7.352931 2.05447,-1.707449 5.41289,-0.380574 7.89759,-1.361653 3.53614,-1.396239 4.21691,-4.307659 7.08059,-6.808268 2.81095,-2.454565 6.42437,-6.314843 9.80391,-7.897593 3.78246,-1.771453 8.37762,0.20291 12.52722,-0.27233 3.96209,-0.453765 7.76645,-3.0432 11.71022,-2.450977 3.7813,0.567825 7.54627,-2.658387 11.71022,-2.178646 4.04104,0.46558 8.812,-1.19304 13.07188,0.27233 2.61495,0.899526 4.90271,-0.212281 7.62526,0.272331 1.70042,0.302674 3.50435,0.168539 5.17428,-0.27233 3.14015,-0.829012 5.36799,-1.924821 8.60179,-2.22537 3.29015,-0.305786 6.74109,1.039756 9.9167,1.953039 3.45125,0.992556 6.79301,2.491369 10.34857,2.995638 2.24694,0.318673 3.90413,-0.0023 6.038,0.770268 1.99993,0.724075 3.01423,3.104909 4.90196,4.084961 2.16931,1.126241 5.09539,0.480375 7.08059,1.906316 2.92415,2.100379 3.41854,6.468334 5.99128,8.986914 1.69155,1.655945 4.38556,2.073326 5.99128,3.812631 2.36889,2.565972 4.18867,5.327499 5.67222,8.4889769 2.12692,4.532512 4.1662,6.503314 5.99128,11.165561 1.23547,3.156073 1.26433,9.1581621 3.26797,12.2548821 1.4436,2.23116 -1.47273,5.26794 -1.08933,7.89759 0.3165,2.17077 2.57952,3.80227 2.72331,5.99128 0.14305,2.17773 -0.78346,4.39219 -1.90631,6.2636 -0.72655,1.21092 -2.41211,1.70968 -2.99564,2.99564 -1.12781,2.48544 0.62308,5.70299 -0.54466,8.16992 -0.85179,1.79948 -2.99123,2.63668 -4.3573,4.08497 -1.94591,2.06303 -3.11467,4.92202 -5.44661,6.53593 -1.81769,1.25801 -4.33277,1.10235 -6.26361,2.17865 -1.63461,0.91117 -2.65836,2.75555 -4.35729,3.5403 -2.2629,1.04526 -4.86294,1.24647 -7.35293,1.36165 -3.00478,0.139 -5.10805,0.0127 -7.62527,-1.63398 -1.73395,-1.13431 -2.79049,-3.27373 -4.35728,-4.62962 -2.34593,-2.03014 -6.14687,-1.5268 -8.71459,-3.26797 -2.23384,-1.51477 -3.04647,-4.75682 -5.44661,-5.99128 -2.76359,-1.4214 -6.28741,-0.18047 -9.25925,-1.08932 -3.02835,-0.92613 -5.45648,-3.30193 -8.44225,-4.35729 -2.97102,-1.05014 -6.10866,-1.84661 -9.25925,-1.90632 -2.76038,-0.0523 -5.49857,0.66429 -8.16992,1.36165 -2.33379,0.60924 -4.50824,1.72459 -6.80827,2.45098 -2.9609,0.9351 -6.18027,1.12279 -8.98691,2.45098 -3.82493,1.81008 -6.47771,5.64327 -10.34857,7.35293 -1.95449,0.86324 -4.15551,1.01364 -6.26361,1.36165 z"
           style="fill:#078930;stroke:#056825;stroke-opacity:1" />
        <path
           sodipodi:nodetypes="ssssscsscsccssssssss"
           inkscape:connector-curvature="0"
           id="path24853"
           d="m -762.95012,49.778543 c 7.52054,12.72744 27.73984,26.04156 32.73637,28.49991 2.65432,1.30596 0.75815,26.668197 -0.77026,27.729627 -8.18584,5.68479 -18.83838,16.85769 -14.9735,29.951 0.44417,1.50476 8.09219,-6.79356 14.58836,-11.07944 2.99397,-1.97529 6.61008,-2.75596 8.85808,-1.1554 -12.98582,9.97852 -7.71452,26.69328 -4.8045,25.0337 1.96158,-1.11869 4.8868,-8.71267 9.99077,-14.92523 3.42422,-4.16796 8.76571,-7.30547 13.30015,-13.57468 25.43002,8.21196 21.01047,19.26901 23.8783,20.02696 3.16616,0.8368 9.49737,-23.55849 -10.01348,-35.81744 -2.02611,-10.348387 -2.46229,-21.491747 -0.38513,-33.891777 10.1808,-8.02761 10.53464,-13.74602 16.89916,-22.69953 2.07118,-2.91372 -13.40663,-10.38298 -15.35863,-7.34091 -6.72698,10.48356 -15.87488,23.38885 -17.33102,23.49316 -3.0254,0.21672 -10.82895,-16.04497 -14.63509,-28.88503 -0.91172,-3.07571 -15.5392,-0.66848 -14.63508,1.92567 5.8477,16.77863 16.24793,35.08369 15.40535,35.81744 -1.08497,0.94483 -21.9908,-17.40982 -29.6553,-29.27017 -2.03321,-3.14627 -14.17571,4.33243 -13.09455,6.16214 z"
           style="fill:#078930;stroke:#056825;stroke-width:1.01869166px;stroke-linecap:round;stroke-linejoin:round;stroke-opacity:1" />
        <path
           sodipodi:nodetypes="ccsc"
           inkscape:connector-curvature="0"
           id="path24855"
           d="m -785.22415,3.4374119 c 5.34126,4.337358 11.74503,3.814432 18.19141,3.096412 -0.77059,-2.649427 -6.01127,-1.662506 -8.93549,-2.298832 -4.53771,-0.987423 -6.19459,-0.890289 -9.25592,-0.79758 z"
           style="fill:#056825;fill-opacity:1;stroke:none" />
        <path
           style="fill:#056825;fill-opacity:1;stroke:none"
           d="m -769.43366,-2.7247294 c 5.34126,5.7377131 11.74503,5.0459557 18.19141,4.0961164 -0.77059,-3.5048183 -6.01127,-2.19926094 -8.93549,-3.0410305 -4.53771,-1.3062214 -6.19459,-1.1777268 -9.25592,-1.0550859 z"
           id="path24857"
           inkscape:connector-curvature="0"
           sodipodi:nodetypes="ccsc" />
        <path
           sodipodi:nodetypes="ccsc"
           inkscape:connector-curvature="0"
           id="path24859"
           d="m -755.47104,9.1977139 c 6.75088,3.9844751 12.69448,1.5024721 18.60565,-1.2390862 -1.73426,-3.1416404 -6.38835,-0.4014417 -9.43122,-0.3780427 -4.72184,0.036319 -6.27399,0.6300918 -9.17443,1.6171289 z"
           style="fill:#056825;fill-opacity:1;stroke:none" />
        <path
           style="fill:#056825;fill-opacity:1;stroke:none"
           d="m -758.91348,-9.6755548 c 4.71706,3.648118 9.43864,2.3389862 14.16037,0.8308739 -1.01073,-2.5357951 -4.78354,-0.9093851 -7.08239,-1.1805591 -3.5673,-0.420793 -4.79516,-0.119973 -7.07798,0.3496852 z"
           id="path24861"
           inkscape:connector-curvature="0"
           sodipodi:nodetypes="ccsc" />
        <path
           style="fill:#056825;fill-opacity:1;stroke:none"
           d="m -743.94071,-1.8117857 c 5.169,5.8933667 11.59044,5.3915433 18.06213,4.6330176 -0.66647,-3.5261007 -5.94351,-2.376308 -8.84152,-3.30430098 -4.49704,-1.44002472 -6.15699,-1.36064862 -9.22061,-1.32871662 z"
           id="path24863"
           inkscape:connector-curvature="0"
           sodipodi:nodetypes="ccsc" />
        <path
           sodipodi:nodetypes="ccsc"
           inkscape:connector-curvature="0"
           id="path24865"
           d="m -728.53536,7.973194 c 4.61791,5.265053 10.35474,4.816732 16.13646,4.139075 -0.59541,-3.1501706 -5.30985,-2.1229614 -7.89889,-2.9520177 -4.0176,-1.2864985 -5.50057,-1.2155849 -8.23757,-1.1870573 z"
           style="fill:#056825;fill-opacity:1;stroke:none" />
        <path
           style="fill:#056825;fill-opacity:1;stroke:none"
           d="m -715.12979,5.3630811 c 5.34126,4.337358 11.74503,3.814432 18.19141,3.096412 -0.77059,-2.649427 -6.01127,-1.662506 -8.93549,-2.298832 -4.53771,-0.987423 -6.19459,-0.890289 -9.25592,-0.79758 z"
           id="path24867"
           inkscape:connector-curvature="0"
           sodipodi:nodetypes="ccsc" />
        <path
           sodipodi:nodetypes="ccsc"
           inkscape:connector-curvature="0"
           id="path24869"
           d="m -707.81225,14.606293 c 4.54969,4.337358 10.00444,3.814432 15.49547,3.096412 -0.65639,-2.649427 -5.12041,-1.662506 -7.61126,-2.298832 -3.86523,-0.987423 -5.27656,-0.890289 -7.88421,-0.79758 z"
           style="fill:#056825;fill-opacity:1;stroke:none" />
        <path
           sodipodi:nodetypes="ccsc"
           inkscape:connector-curvature="0"
           id="path24871"
           d="m -671.40514,21.813867 c -4.07291,-5.545551 -10.4012,-6.656628 -16.81998,-7.589694 0.0766,2.758153 5.39665,3.126573 8.06542,4.48069 4.14132,2.101269 5.76903,2.425672 8.75456,3.109004 z"
           style="fill:#056825;fill-opacity:1;stroke:none;display:inline" />
        <path
           sodipodi:nodetypes="ccsc"
           inkscape:connector-curvature="0"
           id="path24873"
           d="m -676.36182,27.143976 c 5.05504,5.546006 11.48347,5.250057 17.96697,4.719605 -0.59925,-3.255932 -5.89603,-2.335402 -8.77527,-3.262245 -4.46789,-1.438235 -6.1287,-1.407975 -9.1917,-1.45736 z"
           style="fill:#056825;fill-opacity:1;stroke:none;display:inline" />
        <path
           sodipodi:nodetypes="ccsc"
           inkscape:connector-curvature="0"
           id="path24875"
           d="m -699.00079,31.367325 c 6.33915,2.675247 12.34285,0.386748 18.33306,-2.100987 -1.47906,-2.329304 -6.23641,0.08033 -9.22206,0.284971 -4.63303,0.317566 -6.19705,0.87303 -9.111,1.816016 z"
           style="fill:#056825;fill-opacity:1;stroke:none;display:inline" />
        <path
           sodipodi:nodetypes="ccsc"
           inkscape:connector-curvature="0"
           id="path24877"
           d="m -673.8367,38.003364 c 3.87121,4.337358 8.5125,3.814432 13.18467,3.096412 -0.5585,-2.649427 -4.35682,-1.662506 -6.47622,-2.298832 -3.28881,-0.987423 -4.48968,-0.890289 -6.70845,-0.79758 z"
           style="fill:#056825;fill-opacity:1;stroke:none;display:inline" />
        <path
           style="fill:#056825;fill-opacity:1;stroke:none"
           d="m -773.95747,13.434187 c 6.75088,5.102411 12.69448,3.604661 18.60565,1.841983 -1.73426,-3.428831 -6.38835,-1.459343 -9.43122,-1.939839 -4.72184,-0.74561 -6.27399,-0.408873 -9.17443,0.09786 z"
           id="path24879"
           inkscape:connector-curvature="0"
           sodipodi:nodetypes="ccsc" />
        <path
           sodipodi:nodetypes="ccsc"
           inkscape:connector-curvature="0"
           id="path24881"
           d="m -793.98443,11.893651 c 4.37526,5.102411 8.22733,3.604661 12.05837,1.841983 -1.12397,-3.428831 -4.1403,-1.459343 -6.1124,-1.939839 -3.06023,-0.74561 -4.06619,-0.408873 -5.94597,0.09786 z"
           style="fill:#056825;fill-opacity:1;stroke:none" />
        <path
           style="fill:#056825;fill-opacity:1;stroke:none"
           d="m -787.05202,-6.2076392 c 4.93423,5.102411 9.27843,3.604661 13.59891,1.841983 -1.26757,-3.428831 -4.66925,-1.459343 -6.8933,-1.939839 -3.4512,-0.74561 -4.58568,-0.408873 -6.70561,0.09786 z"
           id="path24883"
           inkscape:connector-curvature="0"
           sodipodi:nodetypes="ccsc" />
        <path
           style="fill:#056825;fill-opacity:1;stroke:none"
           d="m -745.45756,15.359855 c 6.75088,3.984475 12.69448,1.502472 18.60565,-1.239086 -1.73426,-3.14164 -6.38835,-0.401442 -9.43122,-0.378043 -4.72184,0.03632 -6.27399,0.630092 -9.17443,1.617129 z"
           id="path24885"
           inkscape:connector-curvature="0"
           sodipodi:nodetypes="ccsc" />
        <path
           sodipodi:nodetypes="ccsc"
           inkscape:connector-curvature="0"
           id="path24887"
           d="m -727.05605,18.821929 c 5.31299,5.763906 11.72007,5.103642 18.17105,4.185512 -0.75335,-3.508564 -6.00039,-2.228793 -8.92043,-3.084929 -4.53124,-1.328518 -6.18872,-1.20817 -9.25062,-1.100583 z"
           style="fill:#056825;fill-opacity:1;stroke:none" />
        <path
           sodipodi:nodetypes="ccsc"
           inkscape:connector-curvature="0"
           id="path24889"
           d="m -707.42711,23.079237 c 5.34126,4.337358 11.74503,3.814432 18.19141,3.096412 -0.77059,-2.649427 -6.01127,-1.662506 -8.93549,-2.298832 -4.53771,-0.987423 -6.19459,-0.890289 -9.25592,-0.79758 z"
           style="fill:#056825;fill-opacity:1;stroke:none" />
        <path
           style="fill:#056825;fill-opacity:1;stroke:none;display:inline"
           d="m -716.58656,29.915553 c 3.87121,4.337358 8.5125,3.814432 13.18467,3.096412 -0.5585,-2.649427 -4.35682,-1.662506 -6.47622,-2.298832 -3.28881,-0.987423 -4.48968,-0.890289 -6.70845,-0.79758 z"
           id="path24891"
           inkscape:connector-curvature="0"
           sodipodi:nodetypes="ccsc" />
        <path
           style="fill:#056825;fill-opacity:1;stroke:none"
           d="m -744.43624,28.623864 c 6.56034,2.451088 11.40114,-0.660001 16.1729,-3.994345 -2.01595,-2.492799 -5.68213,0.644113 -8.35512,1.139697 -4.14786,0.76904 -5.4205,1.53364 -7.81778,2.854648 z"
           id="path24893"
           inkscape:connector-curvature="0"
           sodipodi:nodetypes="ccsc" />
        <path
           style="fill:#056825;fill-opacity:1;stroke:none"
           d="m -794.08223,20.768434 c 5.34126,4.337358 11.74503,3.814432 18.19141,3.096412 -0.77059,-2.649427 -6.01127,-1.662506 -8.93549,-2.298832 -4.53771,-0.987423 -6.19459,-0.890289 -9.25592,-0.79758 z"
           id="path24895"
           inkscape:connector-curvature="0"
           sodipodi:nodetypes="ccsc" />
        <path
           sodipodi:nodetypes="ccsc"
           inkscape:connector-curvature="0"
           id="path24897"
           d="m -763.29404,24.171303 c 5.29199,2.116303 9.96644,-0.683451 14.61608,-3.680523 -1.35407,-2.192486 -5.01639,0.620026 -7.40634,1.082423 -3.70862,0.717538 -4.9292,1.406341 -7.20974,2.5981 z"
           style="fill:#056825;fill-opacity:1;stroke:none" />
        <path
           sodipodi:nodetypes="ccsc"
           inkscape:connector-curvature="0"
           id="path24899"
           d="m -761.06285,33.618809 c 5.19503,2.609724 9.31875,0.416564 13.39944,-1.969374 -1.49372,-2.258363 -4.6629,0.05626 -6.86779,0.243962 -3.42147,0.291267 -4.50246,0.823225 -6.53165,1.725412 z"
           style="fill:#056825;fill-opacity:1;stroke:none;display:inline" />
        <path
           style="fill:#056825;fill-opacity:1;stroke:none;display:inline"
           d="m -753.36017,38.625549 c 5.19503,2.609724 9.31875,0.416564 13.39944,-1.969374 -1.49372,-2.258363 -4.6629,0.05626 -6.86779,0.243962 -3.42147,0.291267 -4.50246,0.823225 -6.53165,1.725412 z"
           id="path24901"
           inkscape:connector-curvature="0"
           sodipodi:nodetypes="ccsc" />
        <path
           style="fill:#056825;fill-opacity:1;stroke:none"
           d="m -778.67688,27.700843 c 4.54969,4.337358 10.00444,3.814432 15.49547,3.096412 -0.65639,-2.649427 -5.12041,-1.662506 -7.61126,-2.298832 -3.86523,-0.987423 -5.27656,-0.890289 -7.88421,-0.79758 z"
           id="path24903"
           inkscape:connector-curvature="0"
           sodipodi:nodetypes="ccsc" />
        <path
           sodipodi:nodetypes="ccsc"
           inkscape:connector-curvature="0"
           id="path24905"
           d="m -797.47431,30.539456 c 5.169,5.893367 11.59044,5.391544 18.06213,4.633018 -0.66647,-3.526101 -5.94351,-2.376308 -8.84152,-3.304301 -4.49704,-1.440025 -6.15699,-1.360649 -9.22061,-1.328717 z"
           style="fill:#056825;fill-opacity:1;stroke:none" />
        <path
           style="fill:#056825;fill-opacity:1;stroke:none"
           d="m -776.94136,41.741744 c 4.0911,-3.968229 9.47875,-3.154418 14.91842,-2.14866 -0.41952,2.542538 -4.87579,1.332381 -7.2622,1.812688 -3.70314,0.745311 -5.0939,0.571903 -7.65622,0.335972 z"
           id="path24907"
           inkscape:connector-curvature="0"
           sodipodi:nodetypes="ccsc" />
        <path
           style="fill:#056825;fill-opacity:1;stroke:none"
           d="m -784.45388,47.727803 c 5.34126,4.337358 11.74503,3.814432 18.19141,3.096412 -0.77059,-2.649427 -6.01127,-1.662506 -8.93549,-2.298832 -4.53771,-0.987423 -6.19459,-0.890289 -9.25592,-0.79758 z"
           id="path24909"
           inkscape:connector-curvature="0"
           sodipodi:nodetypes="ccsc" />
      </g>
      <path
         sodipodi:nodetypes="cccccccccccc"
         inkscape:connector-curvature="0"
         id="path3881"
         d="m 93.750003,203.125 -93.75,93.75 0,64.236 749.999997,0 0,-64.236 -93.75,-93.75 -93.75,93.75 -93.75,-93.75 -93.75,93.75 -93.75,-93.75 -93.75,93.75 z"
         style="fill:#da121a;stroke:none;display:inline" />
    </g>
  </g>
</svg>
