<?xml version="1.0" encoding="UTF-8" standalone="no"?>
<!-- Created with Inkscape (http://www.inkscape.org/) -->

<svg
   xmlns:dc="http://purl.org/dc/elements/1.1/"
   xmlns:cc="http://creativecommons.org/ns#"
   xmlns:rdf="http://www.w3.org/1999/02/22-rdf-syntax-ns#"
   xmlns:svg="http://www.w3.org/2000/svg"
   xmlns="http://www.w3.org/2000/svg"
   xmlns:sodipodi="http://sodipodi.sourceforge.net/DTD/sodipodi-0.dtd"
   xmlns:inkscape="http://www.inkscape.org/namespaces/inkscape"
   width="750"
   height="500"
   id="svg3184"
   sodipodi:version="0.32"
   inkscape:version="0.47 r22583"
   version="1.0"
   sodipodi:docname="Bandera de Cenes de la Vega (Granada).svg"
   inkscape:output_extension="org.inkscape.output.svg.inkscape">
  <defs
     id="defs3186" />
  <sodipodi:namedview
     id="base"
     pagecolor="#ffffff"
     bordercolor="#666666"
     borderopacity="1.0"
     gridtolerance="1"
     guidetolerance="1"
     objecttolerance="1"
     inkscape:pageopacity="0.0"
     inkscape:pageshadow="2"
     inkscape:zoom="1.152"
     inkscape:cx="375"
     inkscape:cy="250"
     inkscape:document-units="px"
     inkscape:current-layer="layer2"
     height="500px"
     width="818.18px"
     inkscape:window-width="1280"
     inkscape:window-height="774"
     inkscape:window-x="-4"
     inkscape:window-y="-4"
     showgrid="false"
     inkscape:showpageshadow="false"
     inkscape:window-maximized="1">
    <inkscape:grid
       type="xygrid"
       id="grid7135"
       visible="true"
       enabled="true" />
  </sodipodi:namedview>
  <metadata
     id="metadata3189">
    <rdf:RDF>
      <cc:Work
         rdf:about="">
        <dc:format>image/svg+xml</dc:format>
        <dc:type
           rdf:resource="http://purl.org/dc/dcmitype/StillImage" />
        <dc:title></dc:title>
      </cc:Work>
    </rdf:RDF>
  </metadata>
  <g
     inkscape:label="Bandera"
     inkscape:groupmode="layer"
     id="layer1"
     style="display:inline">
    <g
       id="g4091">
      <path
         id="rect3192"
         d="M 0,0 750,0 750,500 0,500 0,0 z"
         style="fill:#da121a;fill-opacity:1;stroke:none" />
      <path
         sodipodi:nodetypes="cccc"
         style="fill:#078930;fill-opacity:1;stroke:none"
         d="M 750,0 750,500 0,500 750,0 z"
         id="path3121" />
      <path
         id="path3115"
         d="M 614.78125 0 L 0 409.875 L 0 500 L 135.21875 500 L 750 90.125 L 750 0 L 614.78125 0 z "
         style="fill:#ffffff;fill-opacity:1;stroke:none" />
      <path
         id="path3118"
         d="M 659.875 0 L 0 439.90625 L 0 500 L 90.15625 500 L 750 60.09375 L 750 0 L 659.875 0 z "
         style="fill:#0f47af;fill-opacity:1;stroke:none" />
    </g>
  </g>
  <g
     inkscape:groupmode="layer"
     id="layer2"
     inkscape:label="Escudo"
     style="display:inline">
    <g
       id="g4042"
       transform="translate(-734.79201,249.20672)">
      <g
         style="stroke:#000000;stroke-linecap:round;stroke-linejoin:round;stroke-opacity:1;fill:#da121a"
         id="g3963">
        <path
           style="fill:#fcdd09;stroke:#000000;stroke-width:1px;stroke-linecap:round;stroke-linejoin:round;stroke-opacity:1"
           d="m 850.60115,-94.356103 c 5.11274,-12.094317 13.13541,-25.238177 27.30376,-25.597267 14.14264,-0.35844 28.33626,1.37667 35.83617,-6.82594 -2.15775,16.75579 -15.39174,24.49181 -31.14334,25.59727 -18.46468,1.295857 -26.99733,2.746607 -30.71673,9.385667 l -1.27986,-2.55973 z"
           id="path3156"
           sodipodi:nodetypes="cscscc" />
        <path
           style="fill:#000000;stroke:#000000;stroke-width:1px;stroke-linecap:round;stroke-linejoin:round;stroke-opacity:1"
           d="m 888.14381,-112.4875 c -15.1028,-1.62742 -28.04324,2.44594 -36.90273,17.278157 9.01665,-9.412297 11.3607,-10.717187 17.26043,-13.480347 6.04004,-2.82889 16.45436,-2.95474 19.6423,-3.79781 z"
           id="path3160"
           sodipodi:nodetypes="ccsc" />
      </g>
      <g
         style="stroke:#000000;stroke-linecap:round;stroke-linejoin:round;stroke-opacity:1;fill:#da121a"
         id="g3967">
        <path
           style="fill:#fcdd09;stroke:#000000;stroke-width:1px;stroke-linecap:round;stroke-linejoin:round;stroke-opacity:1"
           d="m 846.76156,-91.796373 c -18.41448,-7.97993 -24.62815,-4.04257 -29.01024,2.1331 -13.54703,19.09181 -27.2505,27.16099 -41.38225,36.68942 16.98421,5.35689 43.45215,8.4613 53.32764,-26.87713 3.07897,-11.01778 10.35257,-10.63739 17.91809,-9.38567 l -0.85324,-2.55972 z"
           id="path3154"
           sodipodi:nodetypes="cscscc" />
        <path
           style="fill:#000000;stroke:#000000;stroke-width:1px;stroke-linecap:round;stroke-linejoin:round;stroke-opacity:1"
           d="m 846.22828,-90.943135 c -16.71277,-4.339496 -21.47835,-1.597908 -27.62372,10.025602 -5.12744,9.69818 -9.69271,16.16127 -19.19795,21.54436 7.67918,-1.81444 13.18925,-6.4747 20.90443,-21.11774 3.65466,-6.93636 6.38755,-16.187862 25.91724,-10.452222 z"
           id="path3158"
           sodipodi:nodetypes="cscsc" />
      </g>
      <path
         id="path4034"
         d="m 844.28328,-194.11263 c 0,4.24109 -3.43809,7.67918 -7.67919,7.67918 -4.24109,0 -7.67918,-3.43809 -7.67918,-7.67918 0,-4.2411 3.43809,-7.67918 7.67918,-7.67918 4.2411,0 7.67919,3.43808 7.67919,7.67918 z"
         style="color:#000000;fill:#da121a;fill-opacity:1;fill-rule:evenodd;stroke:#000000;stroke-width:1px;stroke-linecap:round;stroke-linejoin:round;stroke-miterlimit:4;stroke-opacity:1;stroke-dashoffset:0;marker:none;visibility:visible;display:inline;overflow:visible;enable-background:accumulate" />
      <path
         id="path4036"
         d="m 834.04437,-196.24573 c 0,4.24109 -3.43809,7.67918 -7.67919,7.67918 -4.24109,0 -7.67918,-3.43809 -7.67918,-7.67918 0,-4.2411 3.43809,-7.67918 7.67918,-7.67918 4.2411,0 7.67919,3.43808 7.67919,7.67918 z"
         style="color:#000000;fill:#da121a;fill-opacity:1;fill-rule:evenodd;stroke:#000000;stroke-width:1px;stroke-linecap:round;stroke-linejoin:round;stroke-miterlimit:4;stroke-opacity:1;stroke-dashoffset:0;marker:none;visibility:visible;display:inline;overflow:visible;enable-background:accumulate" />
      <path
         id="path4030"
         d="m 840.23038,-182.59386 c 0,4.24109 -3.43809,7.67918 -7.67919,7.67918 -4.24109,0 -7.67918,-3.43809 -7.67918,-7.67918 0,-4.2411 3.43809,-7.67918 7.67918,-7.67918 4.2411,0 7.67919,3.43808 7.67919,7.67918 z"
         style="color:#000000;fill:#da121a;fill-opacity:1;fill-rule:evenodd;stroke:#000000;stroke-width:1px;stroke-linecap:round;stroke-linejoin:round;stroke-miterlimit:4;stroke-opacity:1;stroke-dashoffset:0;marker:none;visibility:visible;display:inline;overflow:visible;enable-background:accumulate" />
      <path
         style="color:#000000;fill:#da121a;fill-opacity:1;fill-rule:evenodd;stroke:#000000;stroke-width:1px;stroke-linecap:round;stroke-linejoin:round;stroke-miterlimit:4;stroke-opacity:1;stroke-dashoffset:0;marker:none;visibility:visible;display:inline;overflow:visible;enable-background:accumulate"
         d="m 850.46929,-183.23379 c 0,4.24109 -3.43809,7.67918 -7.67919,7.67918 -4.24109,0 -7.67918,-3.43809 -7.67918,-7.67918 0,-4.2411 3.43809,-7.67918 7.67918,-7.67918 4.2411,0 7.67919,3.43808 7.67919,7.67918 z"
         id="path4032" />
      <path
         style="color:#000000;fill:#da121a;fill-opacity:1;fill-rule:evenodd;stroke:#000000;stroke-width:1px;stroke-linecap:round;stroke-linejoin:round;stroke-miterlimit:4;stroke-opacity:1;stroke-dashoffset:0;marker:none;visibility:visible;display:inline;overflow:visible;enable-background:accumulate"
         d="m 845.13651,-173.42151 c 0,4.24109 -3.43809,7.67918 -7.67919,7.67918 -4.24109,0 -7.67918,-3.43809 -7.67918,-7.67918 0,-4.2411 3.43809,-7.67918 7.67918,-7.67918 4.2411,0 7.67919,3.43808 7.67919,7.67918 z"
         id="path4020" />
      <path
         id="path4014"
         d="m 854.9488,-170.64848 c 0,4.24109 -3.43809,7.67918 -7.67919,7.67918 -4.24109,0 -7.67918,-3.43809 -7.67918,-7.67918 0,-4.2411 3.43809,-7.67918 7.67918,-7.67918 4.2411,0 7.67919,3.43808 7.67919,7.67918 z"
         style="color:#000000;fill:#da121a;fill-opacity:1;fill-rule:evenodd;stroke:#000000;stroke-width:1px;stroke-linecap:round;stroke-linejoin:round;stroke-miterlimit:4;stroke-opacity:1;stroke-dashoffset:0;marker:none;visibility:visible;display:inline;overflow:visible;enable-background:accumulate" />
      <path
         id="path4018"
         d="m 833.19112,-173.84813 c 0,4.24109 -3.43809,7.67918 -7.67919,7.67918 -4.24109,0 -7.67918,-3.43809 -7.67918,-7.67918 0,-4.2411 3.43809,-7.67918 7.67918,-7.67918 4.2411,0 7.67919,3.43808 7.67919,7.67918 z"
         style="color:#000000;fill:#da121a;fill-opacity:1;fill-rule:evenodd;stroke:#000000;stroke-width:1px;stroke-linecap:round;stroke-linejoin:round;stroke-miterlimit:4;stroke-opacity:1;stroke-dashoffset:0;marker:none;visibility:visible;display:inline;overflow:visible;enable-background:accumulate" />
      <path
         style="color:#000000;fill:#da121a;fill-opacity:1;fill-rule:evenodd;stroke:#000000;stroke-width:1px;stroke-linecap:round;stroke-linejoin:round;stroke-miterlimit:4;stroke-opacity:1;stroke-dashoffset:0;marker:none;visibility:visible;display:inline;overflow:visible;enable-background:accumulate"
         d="m 847.05631,-161.04949 c 0,4.24109 -3.43809,7.67918 -7.67919,7.67918 -4.24109,0 -7.67918,-3.43809 -7.67918,-7.67918 0,-4.2411 3.43809,-7.67918 7.67918,-7.67918 4.2411,0 7.67919,3.43808 7.67919,7.67918 z"
         id="path4006" />
      <path
         style="color:#000000;fill:#da121a;fill-opacity:1;fill-rule:evenodd;stroke:#000000;stroke-width:1px;stroke-linecap:round;stroke-linejoin:round;stroke-miterlimit:4;stroke-opacity:1;stroke-dashoffset:0;marker:none;visibility:visible;display:inline;overflow:visible;enable-background:accumulate"
         d="m 850.89591,-149.53072 c 0,4.24109 -3.43809,7.67918 -7.67919,7.67918 -4.24109,0 -7.67918,-3.43809 -7.67918,-7.67918 0,-4.2411 3.43809,-7.67918 7.67918,-7.67918 4.2411,0 7.67919,3.43808 7.67919,7.67918 z"
         id="path3998" />
      <path
         id="path4000"
         d="m 869.88055,-152.51707 c 0,4.24109 -3.43809,7.67918 -7.67919,7.67918 -4.24109,0 -7.67918,-3.43809 -7.67918,-7.67918 0,-4.2411 3.43809,-7.67918 7.67918,-7.67918 4.2411,0 7.67919,3.43808 7.67919,7.67918 z"
         style="color:#000000;fill:#da121a;fill-opacity:1;fill-rule:evenodd;stroke:#000000;stroke-width:1px;stroke-linecap:round;stroke-linejoin:round;stroke-miterlimit:4;stroke-opacity:1;stroke-dashoffset:0;marker:none;visibility:visible;display:inline;overflow:visible;enable-background:accumulate" />
      <path
         style="color:#000000;fill:#da121a;fill-opacity:1;fill-rule:evenodd;stroke:#000000;stroke-width:1px;stroke-linecap:round;stroke-linejoin:round;stroke-miterlimit:4;stroke-opacity:1;stroke-dashoffset:0;marker:none;visibility:visible;display:inline;overflow:visible;enable-background:accumulate"
         d="m 867.53412,-164.67578 c 0,4.24109 -3.43809,7.67918 -7.67919,7.67918 -4.24109,0 -7.67918,-3.43809 -7.67918,-7.67918 0,-4.2411 3.43809,-7.67918 7.67918,-7.67918 4.2411,0 7.67919,3.43808 7.67919,7.67918 z"
         id="path4012" />
      <path
         style="color:#000000;fill:#da121a;fill-opacity:1;fill-rule:evenodd;stroke:#000000;stroke-width:1px;stroke-linecap:round;stroke-linejoin:round;stroke-miterlimit:4;stroke-opacity:1;stroke-dashoffset:0;marker:none;visibility:visible;display:inline;overflow:visible;enable-background:accumulate"
         d="m 858.7884,-157.42321 c 0,4.24109 -3.43809,7.67918 -7.67919,7.67918 -4.24109,0 -7.67918,-3.43809 -7.67918,-7.67918 0,-4.2411 3.43809,-7.67918 7.67918,-7.67918 4.2411,0 7.67919,3.43808 7.67919,7.67918 z"
         id="path4002" />
      <path
         style="color:#000000;fill:#da121a;fill-opacity:1;fill-rule:evenodd;stroke:#000000;stroke-width:1px;stroke-linecap:round;stroke-linejoin:round;stroke-miterlimit:4;stroke-opacity:1;stroke-dashoffset:0;marker:none;visibility:visible;display:inline;overflow:visible;enable-background:accumulate"
         d="m 859.21502,-143.55802 c 0,4.24109 -3.43809,7.67918 -7.67919,7.67918 -4.24109,0 -7.67918,-3.43809 -7.67918,-7.67918 0,-4.2411 3.43809,-7.67918 7.67918,-7.67918 4.2411,0 7.67919,3.43808 7.67919,7.67918 z"
         id="path3994" />
      <path
         id="path3986"
         d="m 858.7884,-130.33276 c 0,4.24109 -3.43809,7.67918 -7.67919,7.67918 -4.24109,0 -7.67918,-3.43809 -7.67918,-7.67918 0,-4.2411 3.43809,-7.67918 7.67918,-7.67918 4.2411,0 7.67919,3.43808 7.67919,7.67918 z"
         style="color:#000000;fill:#da121a;fill-opacity:1;fill-rule:evenodd;stroke:#000000;stroke-width:1px;stroke-linecap:round;stroke-linejoin:round;stroke-miterlimit:4;stroke-opacity:1;stroke-dashoffset:0;marker:none;visibility:visible;display:inline;overflow:visible;enable-background:accumulate" />
      <path
         id="path3973"
         d="m 850.6826,-120.94709 c 0,4.24109 -3.43809,7.67918 -7.67919,7.67918 -4.24109,0 -7.67918,-3.43809 -7.67918,-7.67918 0,-4.2411 3.43809,-7.67918 7.67918,-7.67918 4.2411,0 7.67919,3.43808 7.67919,7.67918 z"
         style="color:#000000;fill:#da121a;fill-opacity:1;fill-rule:evenodd;stroke:#000000;stroke-width:1px;stroke-linecap:round;stroke-linejoin:round;stroke-miterlimit:4;stroke-opacity:1;stroke-dashoffset:0;marker:none;visibility:visible;display:inline;overflow:visible;enable-background:accumulate" />
      <path
         style="color:#000000;fill:#da121a;fill-opacity:1;fill-rule:evenodd;stroke:#000000;stroke-width:1px;stroke-linecap:round;stroke-linejoin:round;stroke-miterlimit:4;stroke-opacity:1;stroke-dashoffset:0;marker:none;visibility:visible;display:inline;overflow:visible;enable-background:accumulate"
         d="m 840.01707,-127.1331 c 0,4.24109 -3.43809,7.67918 -7.67919,7.67918 -4.24109,0 -7.67918,-3.43809 -7.67918,-7.67918 0,-4.2411 3.43809,-7.67918 7.67918,-7.67918 4.2411,0 7.67919,3.43808 7.67919,7.67918 z"
         id="path3976" />
      <path
         style="color:#000000;fill:#da121a;fill-opacity:1;fill-rule:evenodd;stroke:#000000;stroke-width:1px;stroke-linecap:round;stroke-linejoin:round;stroke-miterlimit:4;stroke-opacity:1;stroke-dashoffset:0;marker:none;visibility:visible;display:inline;overflow:visible;enable-background:accumulate"
         d="m 848.33618,-135.66552 c 0,4.24109 -3.43809,7.67918 -7.67919,7.67918 -4.24109,0 -7.67918,-3.43809 -7.67918,-7.67918 0,-4.2411 3.43809,-7.67918 7.67918,-7.67918 4.2411,0 7.67919,3.43808 7.67919,7.67918 z"
         id="path3984" />
      <path
         style="color:#000000;fill:#da121a;fill-opacity:1;fill-rule:evenodd;stroke:#000000;stroke-width:1px;stroke-linecap:round;stroke-linejoin:round;stroke-miterlimit:4;stroke-opacity:1;stroke-dashoffset:0;marker:none;visibility:visible;display:inline;overflow:visible;enable-background:accumulate"
         d="m 824.6587,-163.60922 c 0,4.24109 -3.43809,7.67918 -7.67919,7.67918 -4.24109,0 -7.67918,-3.43809 -7.67918,-7.67918 0,-4.2411 3.43809,-7.67918 7.67918,-7.67918 4.2411,0 7.67919,3.43808 7.67919,7.67918 z"
         id="path4008" />
      <path
         style="color:#000000;fill:#da121a;fill-opacity:1;fill-rule:evenodd;stroke:#000000;stroke-width:1px;stroke-linecap:round;stroke-linejoin:round;stroke-miterlimit:4;stroke-opacity:1;stroke-dashoffset:0;marker:none;visibility:visible;display:inline;overflow:visible;enable-background:accumulate"
         d="m 815.27304,-154.01024 c 0,4.24109 -3.43809,7.67918 -7.67919,7.67918 -4.24109,0 -7.67918,-3.43809 -7.67918,-7.67918 0,-4.2411 3.43809,-7.67918 7.67918,-7.67918 4.2411,0 7.67919,3.43808 7.67919,7.67918 z"
         id="path3990" />
      <path
         id="path3992"
         d="m 828.4983,-150.81058 c 0,4.24109 -3.43809,7.67918 -7.67919,7.67918 -4.24109,0 -7.67918,-3.43809 -7.67918,-7.67918 0,-4.2411 3.43809,-7.67918 7.67918,-7.67918 4.2411,0 7.67919,3.43808 7.67919,7.67918 z"
         style="color:#000000;fill:#da121a;fill-opacity:1;fill-rule:evenodd;stroke:#000000;stroke-width:1px;stroke-linecap:round;stroke-linejoin:round;stroke-miterlimit:4;stroke-opacity:1;stroke-dashoffset:0;marker:none;visibility:visible;display:inline;overflow:visible;enable-background:accumulate" />
      <path
         id="path4010"
         d="m 811.43344,-165.74233 c 0,4.24109 -3.43809,7.67918 -7.67919,7.67918 -4.24109,0 -7.67918,-3.43809 -7.67918,-7.67918 0,-4.2411 3.43809,-7.67918 7.67918,-7.67918 4.2411,0 7.67919,3.43808 7.67919,7.67918 z"
         style="color:#000000;fill:#da121a;fill-opacity:1;fill-rule:evenodd;stroke:#000000;stroke-width:1px;stroke-linecap:round;stroke-linejoin:round;stroke-miterlimit:4;stroke-opacity:1;stroke-dashoffset:0;marker:none;visibility:visible;display:inline;overflow:visible;enable-background:accumulate" />
      <path
         id="path4022"
         d="m 807.59385,-177.68772 c 0,4.24109 -3.43809,7.67918 -7.67919,7.67918 -4.24109,0 -7.67918,-3.43809 -7.67918,-7.67918 0,-4.2411 3.43809,-7.67918 7.67918,-7.67918 4.2411,0 7.67919,3.43808 7.67919,7.67918 z"
         style="color:#000000;fill:#da121a;fill-opacity:1;fill-rule:evenodd;stroke:#000000;stroke-width:1px;stroke-linecap:round;stroke-linejoin:round;stroke-miterlimit:4;stroke-opacity:1;stroke-dashoffset:0;marker:none;visibility:visible;display:inline;overflow:visible;enable-background:accumulate" />
      <path
         style="color:#000000;fill:#da121a;fill-opacity:1;fill-rule:evenodd;stroke:#000000;stroke-width:1px;stroke-linecap:round;stroke-linejoin:round;stroke-miterlimit:4;stroke-opacity:1;stroke-dashoffset:0;marker:none;visibility:visible;display:inline;overflow:visible;enable-background:accumulate"
         d="m 822.5256,-141.85153 c 0,4.24109 -3.43809,7.67918 -7.67919,7.67918 -4.24109,0 -7.67918,-3.43809 -7.67918,-7.67918 0,-4.2411 3.43809,-7.67918 7.67918,-7.67918 4.2411,0 7.67919,3.43808 7.67919,7.67918 z"
         id="path3980" />
      <path
         id="path4004"
         d="m 837.88396,-161.47611 c 0,4.24109 -3.43809,7.67918 -7.67919,7.67918 -4.24109,0 -7.67918,-3.43809 -7.67918,-7.67918 0,-4.2411 3.43809,-7.67918 7.67918,-7.67918 4.2411,0 7.67919,3.43808 7.67919,7.67918 z"
         style="color:#000000;fill:#da121a;fill-opacity:1;fill-rule:evenodd;stroke:#000000;stroke-width:1px;stroke-linecap:round;stroke-linejoin:round;stroke-miterlimit:4;stroke-opacity:1;stroke-dashoffset:0;marker:none;visibility:visible;display:inline;overflow:visible;enable-background:accumulate" />
      <path
         id="path3978"
         d="m 825.72526,-128.83958 c 0,4.24109 -3.43809,7.67918 -7.67919,7.67918 -4.24109,0 -7.67918,-3.43809 -7.67918,-7.67918 0,-4.2411 3.43809,-7.67918 7.67918,-7.67918 4.2411,0 7.67919,3.43808 7.67919,7.67918 z"
         style="color:#000000;fill:#da121a;fill-opacity:1;fill-rule:evenodd;stroke:#000000;stroke-width:1px;stroke-linecap:round;stroke-linejoin:round;stroke-miterlimit:4;stroke-opacity:1;stroke-dashoffset:0;marker:none;visibility:visible;display:inline;overflow:visible;enable-background:accumulate" />
      <path
         id="path3988"
         d="m 809.08703,-143.98464 c 0,4.24109 -3.43809,7.67918 -7.67919,7.67918 -4.24109,0 -7.67918,-3.43809 -7.67918,-7.67918 0,-4.2411 3.43809,-7.67918 7.67918,-7.67918 4.2411,0 7.67919,3.43808 7.67919,7.67918 z"
         style="color:#000000;fill:#da121a;fill-opacity:1;fill-rule:evenodd;stroke:#000000;stroke-width:1px;stroke-linecap:round;stroke-linejoin:round;stroke-miterlimit:4;stroke-opacity:1;stroke-dashoffset:0;marker:none;visibility:visible;display:inline;overflow:visible;enable-background:accumulate" />
      <path
         style="color:#000000;fill:#da121a;fill-opacity:1;fill-rule:evenodd;stroke:#000000;stroke-width:1px;stroke-linecap:round;stroke-linejoin:round;stroke-miterlimit:4;stroke-opacity:1;stroke-dashoffset:0;marker:none;visibility:visible;display:inline;overflow:visible;enable-background:accumulate"
         d="m 864.76109,-178.96759 c 0,4.24109 -3.43809,7.67918 -7.67919,7.67918 -4.24109,0 -7.67918,-3.43809 -7.67918,-7.67918 0,-4.2411 3.43809,-7.67918 7.67918,-7.67918 4.2411,0 7.67919,3.43808 7.67919,7.67918 z"
         id="path4016" />
      <path
         id="path4026"
         d="m 819.75256,-186.22014 c 0,4.24109 -3.43809,7.67918 -7.67919,7.67918 -4.24109,0 -7.67918,-3.43809 -7.67918,-7.67918 0,-4.2411 3.43809,-7.67918 7.67918,-7.67918 4.2411,0 7.67919,3.43808 7.67919,7.67918 z"
         style="color:#000000;fill:#da121a;fill-opacity:1;fill-rule:evenodd;stroke:#000000;stroke-width:1px;stroke-linecap:round;stroke-linejoin:round;stroke-miterlimit:4;stroke-opacity:1;stroke-dashoffset:0;marker:none;visibility:visible;display:inline;overflow:visible;enable-background:accumulate" />
      <path
         id="path4040"
         d="m 823.80546,-204.35154 c 0,4.24109 -3.43809,7.67918 -7.67919,7.67918 -4.24109,0 -7.67918,-3.43809 -7.67918,-7.67918 0,-4.2411 3.43809,-7.67918 7.67918,-7.67918 4.2411,0 7.67919,3.43808 7.67919,7.67918 z"
         style="color:#000000;fill:#da121a;fill-opacity:1;fill-rule:evenodd;stroke:#000000;stroke-width:1px;stroke-linecap:round;stroke-linejoin:round;stroke-miterlimit:4;stroke-opacity:1;stroke-dashoffset:0;marker:none;visibility:visible;display:inline;overflow:visible;enable-background:accumulate" />
      <path
         style="color:#000000;fill:#da121a;fill-opacity:1;fill-rule:evenodd;stroke:#000000;stroke-width:1px;stroke-linecap:round;stroke-linejoin:round;stroke-miterlimit:4;stroke-opacity:1;stroke-dashoffset:0;marker:none;visibility:visible;display:inline;overflow:visible;enable-background:accumulate"
         d="m 822.73891,-194.53925 c 0,4.24109 -3.43809,7.67918 -7.67919,7.67918 -4.24109,0 -7.67918,-3.43809 -7.67918,-7.67918 0,-4.2411 3.43809,-7.67918 7.67918,-7.67918 4.2411,0 7.67919,3.43808 7.67919,7.67918 z"
         id="path4038" />
      <path
         d="m 813.91173,-210.39706 c -7.06058,24.55919 -17.1904,42.31634 -11.46378,61.13981 5.40364,17.76184 26.49042,24.59872 40.47402,34.42333 9.61677,-14.64733 15.37563,-29.24724 17.06485,-43.94198 3.21043,-27.92799 -30.56068,-36.74907 -46.07509,-51.62116 z m -31.38827,-1.03657 c 3.50752,5.24963 5.98462,5.7957 8.64877,8.04413 5.26753,4.44559 -2.18699,10.16834 -7.79553,22.04934 -22.91769,48.54833 6.09704,65.61397 46.8101,67.14673 9.0203,0.33959 14.0069,5.29937 15.08334,14.230097 1.92694,15.98689 0.59796,27.318273 -2.01259,42.358293 l 17.44935,-21.521863 c -12.55839,-16.89334 -16.46086,-32.179697 5.21669,-52.599797 20.72443,-19.52227 22.91811,-64.76681 -25.55331,-83.15022 -2.49201,-0.94513 -2.48948,-2.91548 -1.87693,-6.31984 0.51653,-2.87072 -0.86067,-5.95848 -3.87618,-8.05037 -1.47489,2.75835 -3.04337,5.32953 -5.63703,5.85035 -1.31228,-2.85274 -2.62455,-3.78324 -3.93683,-5.00338 -2.52032,1.731 -3.68101,3.91521 -4.50984,6.21004 -1.77599,-1.67259 -3.41216,-3.4151 -6.28324,-4.54016 -1.96805,2.51895 -2.46608,5.03789 -2.16343,7.55683 -1.48923,-1.26557 -4.04685,-2.53114 -7.24,-3.79671 -1.09672,1.92388 -1.23403,4.32746 -1.20667,6.81338 -2.29149,-1.73074 -5.16579,-2.87866 -9.1598,-2.90687 0.27703,2.01383 0.49107,3.96466 1.31647,6.52687 -4.39208,0.20588 -8.37709,-1.62356 -13.27334,1.10315 z"
         style="fill:#fcdd09;fill-rule:evenodd;stroke:#000000;stroke-width:1px;stroke-linecap:round;stroke-linejoin:round;stroke-opacity:1"
         id="path3149" />
      <path
         id="path3151"
         d="m 860.76381,-78.973303 c 1.97345,1.34816 -0.20267,7.81908 -4.86053,14.45317 -4.65784,6.6341 -10.03355,10.91918 -12.00702,9.57103 -1.97343,-1.34814 0.2027,-7.81906 4.86055,-14.45318 4.65783,-6.63406 10.03354,-10.91918 12.007,-9.57102 z"
         style="color:#000000;fill:#fcdd09;stroke:#000000;stroke-width:0.99999987999999995px;stroke-linecap:round;stroke-linejoin:round;stroke-miterlimit:4;stroke-opacity:1;stroke-dashoffset:0;marker:none;visibility:visible;display:inline;overflow:visible;enable-background:accumulate" />
      <path
         sodipodi:nodetypes="cscsc"
         id="path3158-1"
         d="m 795.12289,-177.84223 c -2.80651,5.16865 -3.40285,18.8504 -0.37077,26.53608 2.89074,7.32741 6.95194,16.66283 16.04882,23.13053 -11.56338,-10.98439 -14.00249,-18.5468 -15.50675,-23.7032 -2.19568,-7.52652 -2.50032,-8.76101 -0.1713,-25.96341 z"
         style="fill:#000000;stroke:#000000;stroke-width:1px;stroke-linecap:round;stroke-linejoin:round;stroke-opacity:1;display:inline" />
      <path
         style="fill:#000000;stroke:#000000;stroke-width:1px;stroke-linecap:round;stroke-linejoin:round;stroke-opacity:1;display:inline"
         d="m 840.85902,-198.40342 c 12.9272,7.09199 16.39779,14.32454 19.29674,18.41103 2.75623,3.88531 10.8349,18.57889 3.30198,33.49501 5.35068,-17.00593 0.006,-26.61975 -2.67927,-31.27164 -3.91968,-6.79012 -5.88081,-10.42346 -19.91945,-20.6344 z"
         id="path3184"
         sodipodi:nodetypes="cscsc" />
      <path
         style="fill:#da121a;stroke:#000000;stroke-width:1px;stroke-linecap:round;stroke-linejoin:round;stroke-opacity:1;display:inline"
         d="m 834.51068,-216.67693 c -4.14795,-0.13875 -11.1749,1.35107 -14.63844,2.40781 4.24579,-0.24272 11.05644,-1.59184 14.63844,-2.40781 z"
         id="path3186"
         sodipodi:nodetypes="ccc" />
      <path
         sodipodi:nodetypes="ccc"
         id="path3188"
         d="m 804.38706,-207.0519 c -3.15702,0.62981 -5.5758,2.3838 -8.27363,4.25659 3.39862,-1.17661 5.54994,-2.77411 8.27363,-4.25659 z"
         style="fill:#da121a;stroke:#000000;stroke-width:1px;stroke-linecap:round;stroke-linejoin:round;stroke-opacity:1;display:inline" />
      <path
         style="fill:#000000;stroke:#000000;stroke-width:1px;stroke-linecap:round;stroke-linejoin:round;stroke-opacity:1;display:inline"
         d="m 856.12243,-129.35458 c 2.6101,-2.93075 3.98778,-4.77091 5.00063,-7.84635 -2.34238,2.72915 -3.39534,5.19318 -5.00063,7.84635 z"
         id="path3971"
         sodipodi:nodetypes="ccc" />
      <path
         id="path3996"
         d="m 840.657,-147.61092 c 0,4.24109 -3.43809,7.67918 -7.67919,7.67918 -4.24109,0 -7.67918,-3.43809 -7.67918,-7.67918 0,-4.2411 3.43809,-7.67918 7.67918,-7.67918 4.2411,0 7.67919,3.43808 7.67919,7.67918 z"
         style="color:#000000;fill:#da121a;fill-opacity:1;fill-rule:evenodd;stroke:#000000;stroke-width:1px;stroke-linecap:round;stroke-linejoin:round;stroke-miterlimit:4;stroke-opacity:1;stroke-dashoffset:0;marker:none;visibility:visible;display:inline;overflow:visible;enable-background:accumulate" />
      <path
         id="path3982"
         d="m 834.6843,-138.86518 c 0,4.24109 -3.43809,7.67918 -7.67919,7.67918 -4.24109,0 -7.67918,-3.43809 -7.67918,-7.67918 0,-4.2411 3.43809,-7.67918 7.67918,-7.67918 4.2411,0 7.67919,3.43808 7.67919,7.67918 z"
         style="color:#000000;fill:#da121a;fill-opacity:1;fill-rule:evenodd;stroke:#000000;stroke-width:1px;stroke-linecap:round;stroke-linejoin:round;stroke-miterlimit:4;stroke-opacity:1;stroke-dashoffset:0;marker:none;visibility:visible;display:inline;overflow:visible;enable-background:accumulate" />
      <path
         style="color:#000000;fill:#da121a;fill-opacity:1;fill-rule:evenodd;stroke:#000000;stroke-width:1px;stroke-linecap:round;stroke-linejoin:round;stroke-miterlimit:4;stroke-opacity:1;stroke-dashoffset:0;marker:none;visibility:visible;display:inline;overflow:visible;enable-background:accumulate"
         d="m 820.39249,-174.48806 c 0,4.24109 -3.43809,7.67918 -7.67919,7.67918 -4.24109,0 -7.67918,-3.43809 -7.67918,-7.67918 0,-4.2411 3.43809,-7.67918 7.67918,-7.67918 4.2411,0 7.67919,3.43808 7.67919,7.67918 z"
         id="path4024" />
      <path
         style="color:#000000;fill:#da121a;fill-opacity:1;fill-rule:evenodd;stroke:#000000;stroke-width:1px;stroke-linecap:round;stroke-linejoin:round;stroke-miterlimit:4;stroke-opacity:1;stroke-dashoffset:0;marker:none;visibility:visible;display:inline;overflow:visible;enable-background:accumulate"
         d="m 830.41809,-183.66041 c 0,4.24109 -3.43809,7.67918 -7.67919,7.67918 -4.24109,0 -7.67918,-3.43809 -7.67918,-7.67918 0,-4.2411 3.43809,-7.67918 7.67918,-7.67918 4.2411,0 7.67919,3.43808 7.67919,7.67918 z"
         id="path4028" />
    </g>
  </g>
</svg>
