<?xml version="1.0" encoding="UTF-8" standalone="no"?>
<!-- Created with Inkscape (http://www.inkscape.org/) -->
<svg
   xmlns:svg="http://www.w3.org/2000/svg"
   xmlns="http://www.w3.org/2000/svg"
   version="1.0"
   width="750"
   height="500"
   id="svg2">
  <defs
     id="defs4" />
  <g
     id="layer1">
    <path
       d="M 0,1.5258789e-05 L 750,1.5258789e-05 L 0,500.00002 L 0,1.5258789e-05 z"
       id="rect2328"
       style="fill:#fcdd09;fill-opacity:1;fill-rule:nonzero;stroke:none;stroke-width:1;stroke-linecap:round;stroke-linejoin:miter;marker:none;marker-start:none;marker-mid:none;marker-end:none;stroke-miterlimit:4;stroke-dashoffset:0;stroke-opacity:1;visibility:visible;display:inline;overflow:visible;enable-background:accumulate" />
    <path
       d="M 750,500.00002 L 0,500.00002 L 750,1.5258789e-05 L 750,500.00002 z"
       id="path2908"
       style="fill:#0f47af;fill-opacity:1;fill-rule:nonzero;stroke:none;stroke-width:1;stroke-linecap:round;stroke-linejoin:miter;marker:none;marker-start:none;marker-mid:none;marker-end:none;stroke-miterlimit:4;stroke-dashoffset:0;stroke-opacity:1;visibility:visible;display:inline;overflow:visible;enable-background:accumulate" />
    <g
       transform="matrix(0.5560767,0,0,0.5560767,-98.72231,-161.23714)"
       id="g3113"
       style="fill:#000000">
      <g
         transform="translate(24.357626,-60.607246)"
         id="layer3"
         style="fill:#000000;display:inline" />
      <g
         transform="translate(24.357626,-60.607246)"
         id="g3116"
         style="fill:#000000;display:inline" />
      <g
         transform="translate(80.786347,-137.24759)"
         id="layer4"
         style="fill:#000000;display:inline" />
      <g
         transform="translate(80.786347,-137.24759)"
         id="layer5"
         style="fill:#000000;display:inline" />
      <g
         transform="translate(80.786347,-137.24759)"
         id="layer2"
         style="fill:#000000" />
      <g
         transform="translate(80.786347,-137.24759)"
         id="layer6"
         style="fill:#000000;display:inline">
        <g
           transform="matrix(-0.7071068,-0.7071068,-0.7071068,0.7071068,1013.5568,419.82899)"
           id="g2652"
           style="fill:#000000">
          <path
             d="M 461.73092,598.61283 C 448.29007,585.06287 432.82307,595.40578 427.76366,600.58303 C 422.75856,605.7047 421.04438,606.16622 417.77675,614.26693 C 414.50912,622.36766 415.67684,623.81027 414.69315,632.98589 C 413.71234,642.13465 391.67624,665.79295 392.09082,666.44081 C 392.78841,666.97194 416.67757,645.06663 426.04753,644.21291 C 435.44498,643.35669 436.25046,643.86512 444.57456,640.76416 C 452.89866,637.66319 454.04731,636.6425 459.34394,631.80908 C 464.69805,626.92322 475.30316,612.29268 461.73092,598.61283 z"
             id="path22648"
             style="fill:#000000;fill-opacity:1;fill-rule:evenodd;stroke:#000000;stroke-width:1.51325071;stroke-linecap:butt;stroke-linejoin:miter;stroke-miterlimit:4;stroke-dasharray:none;stroke-opacity:1" />
          <path
             d="M 87.605314,830.15242 L 105.60238,812.75857 L 135.4488,841.80744 L 122.20785,854.8066 L 131.9928,864.33006 L 145.23373,851.3309 L 158.4832,864.22633 L 168.22741,854.66004 L 154.97794,841.76462 L 168.21888,828.76547 L 158.43393,819.24199 L 145.193,832.24115 L 115.34659,803.19228 L 133.06274,785.52502 L 148.72333,800.76713 L 158.46754,791.20085 L 142.80696,775.95874 L 159.42805,759.64114 L 189.41492,788.8267 L 173.81952,804.13734 L 183.60446,813.6608 L 199.19985,798.35017 L 227.85241,826.23709 L 129.68769,922.60938 L 101.24098,894.92282 L 114.76123,881.64945 L 104.72468,871.88109 L 91.204422,885.15446 L 61.263323,856.01343 L 77.861112,839.7187 L 93.521697,854.96082 L 103.26591,845.39454 L 87.605314,830.15242 z"
             id="path22650"
             style="fill:#000000;fill-opacity:1;stroke:#000000;stroke-width:1.51325071;stroke-miterlimit:4;stroke-dasharray:none;stroke-opacity:1" />
          <path
             d="M 419.07504,669.71044 L 411.37349,662.21469 L 401.86946,652.96462 L 394.14451,645.44609 L 360.41277,678.5619 L 368.13772,686.08043 L 126.2809,923.5211 L 135.78493,932.77117 L 377.64175,695.3305 L 385.3433,702.82625 L 419.07504,669.71044 z"
             id="path22652"
             style="fill:#000000;fill-opacity:1;stroke:#000000;stroke-width:1.51325071;stroke-miterlimit:4;stroke-dasharray:none;stroke-opacity:1" />
          <path
             d="M 109.86431,954.20572 C 106.9815,954.72838 103.28485,950.47808 103.78755,948.29133 C 104.31662,945.98991 105.9216,942.17527 111.9281,933.1713 C 117.83932,924.31021 124.29575,917.5568 124.29575,917.5568 L 141.87163,934.66302 C 141.87163,934.66302 134.54256,941.35564 125.71768,946.59241 C 116.8928,951.82917 112.52811,953.72275 109.86431,954.20572 z"
             id="path22654"
             style="fill:#000000;fill-opacity:1;stroke:#000000;stroke-width:1.51325071;stroke-miterlimit:4;stroke-dasharray:none;stroke-opacity:1" />
          <rect
             width="5.7099838"
             height="18.167072"
             x="433.48215"
             y="-763.1076"
             transform="matrix(-0.7135916,0.7005619,-0.7166165,-0.6974674,0,0)"
             id="rect22656"
             style="fill:#000000;fill-opacity:1;stroke:#000000;stroke-width:1.51344669;stroke-miterlimit:4;stroke-dasharray:none;stroke-opacity:1" />
          <rect
             width="5.7099838"
             height="18.167072"
             x="565.33087"
             y="-763.1076"
             transform="matrix(-0.7135916,0.7005619,-0.7166165,-0.6974674,0,0)"
             id="rect22658"
             style="fill:#000000;fill-opacity:1;stroke:#000000;stroke-width:1.51344669;stroke-miterlimit:4;stroke-dasharray:none;stroke-opacity:1" />
          <rect
             width="5.7099838"
             height="18.167072"
             x="521.38129"
             y="-763.1076"
             transform="matrix(-0.7135916,0.7005619,-0.7166165,-0.6974674,0,0)"
             id="rect22660"
             style="fill:#000000;fill-opacity:1;stroke:#000000;stroke-width:1.51344669;stroke-miterlimit:4;stroke-dasharray:none;stroke-opacity:1" />
          <rect
             width="5.7099838"
             height="18.167072"
             x="477.4317"
             y="-763.1076"
             transform="matrix(-0.7135916,0.7005619,-0.7166165,-0.6974674,0,0)"
             id="rect22662"
             style="fill:#000000;fill-opacity:1;stroke:#000000;stroke-width:1.51344669;stroke-miterlimit:4;stroke-dasharray:none;stroke-opacity:1" />
          <path
             d="M 426.79687,717.47772 C 408.4251,717.56283 398.3163,709.83573 393.81228,701.43805 C 389.40077,693.21283 396.76451,674.69893 407.15928,674.04022 C 417.53724,673.38258 420.41566,678.53896 419.21357,686.99182 C 418.04268,695.22535 407.1857,694.78581 407.1857,694.78581 C 407.1857,694.78581 412.78205,700.02629 420.77039,699.9602 C 428.75871,699.89411 434.13769,699.10755 441.38773,696.12711 C 448.36097,693.26044 458.01944,683.73921 458.01944,683.73921 C 458.01944,683.73921 450.74609,682.25789 447.20426,679.73458 C 443.66242,677.21125 444.81987,673.66494 444.81987,673.66494 C 444.81987,673.66494 460.11915,673.18486 465.94889,667.16512 C 471.77862,661.14538 472.94836,654.25334 470.01913,646.94616 C 467.0899,639.63898 452.66755,636.34419 452.66755,636.34419 C 452.66755,636.34419 454.89717,647.4362 449.18754,650.10585 C 443.38834,652.81738 439.88967,653.00525 435.56126,646.93823 C 431.31092,640.98065 434.90218,629.19158 440.14317,624.05253 C 445.26901,619.02639 450.68144,616.56387 458.51643,618.39082 C 466.40155,620.22947 481.63243,630.14422 485.8786,641.45811 C 490.0956,652.69424 490.11252,667.71925 482.75644,681.99465 C 479.10084,689.08879 472.64973,698.88845 461.86968,705.97505 C 451.08962,713.06164 435.98064,717.43517 426.79687,717.47772 z"
             id="path22664"
             style="fill:#000000;fill-opacity:1;fill-rule:evenodd;stroke:#000000;stroke-width:1.51325071;stroke-linecap:butt;stroke-linejoin:miter;stroke-miterlimit:4;stroke-dasharray:none;stroke-opacity:1" />
          <path
             d="M 404.02366,573.67437 C 422.39543,573.58926 432.50423,581.31636 437.00826,589.71405 C 441.41976,597.93926 434.05602,616.45317 423.66126,617.11187 C 413.2833,617.76951 410.40487,612.61313 411.60696,604.16027 C 412.77786,595.92674 423.63484,596.36628 423.63484,596.36628 C 423.63484,596.36628 418.03848,591.1258 410.05015,591.19189 C 402.06183,591.25798 396.68285,592.04454 389.4328,595.02499 C 382.45956,597.89165 372.80109,607.41288 372.80109,607.41288 C 372.80109,607.41288 380.07445,608.8942 383.61627,611.41751 C 387.15811,613.94084 386.00067,617.48715 386.00067,617.48715 C 386.00067,617.48715 370.70138,617.96723 364.87165,623.98697 C 359.04191,630.00671 357.87217,636.89875 360.8014,644.20593 C 363.73064,651.51311 378.15298,654.8079 378.15298,654.8079 C 378.15298,654.8079 375.92336,643.71589 381.63299,641.04624 C 387.4322,638.33471 390.93087,638.14684 395.25927,644.21386 C 399.50961,650.17144 395.91835,661.96051 390.67737,667.09956 C 385.55152,672.1257 380.1391,674.58822 372.3041,672.76127 C 364.41899,670.92262 349.18811,661.00787 344.94194,649.69398 C 340.72493,638.45785 340.70802,623.43284 348.06409,609.15744 C 351.71969,602.0633 358.17081,592.26364 368.95085,585.17704 C 379.73091,578.09045 394.8399,573.71692 404.02366,573.67437 z"
             id="path22666"
             style="fill:#000000;fill-opacity:1;fill-rule:evenodd;stroke:#000000;stroke-width:1.51325071;stroke-linecap:butt;stroke-linejoin:miter;stroke-miterlimit:4;stroke-dasharray:none;stroke-opacity:1" />
        </g>
      </g>
    </g>
  </g>
</svg>
