<?xml version="1.0" encoding="UTF-8" standalone="no"?>
<!-- Created with Inkscape (http://www.inkscape.org/) -->

<svg
   xmlns:dc="http://purl.org/dc/elements/1.1/"
   xmlns:cc="http://creativecommons.org/ns#"
   xmlns:rdf="http://www.w3.org/1999/02/22-rdf-syntax-ns#"
   xmlns:svg="http://www.w3.org/2000/svg"
   xmlns="http://www.w3.org/2000/svg"
   xmlns:sodipodi="http://sodipodi.sourceforge.net/DTD/sodipodi-0.dtd"
   xmlns:inkscape="http://www.inkscape.org/namespaces/inkscape"
   width="750"
   height="500"
   id="svg3184"
   sodipodi:version="0.32"
   inkscape:version="0.48.4 r9939"
   version="1.0"
   sodipodi:docname="Bandera de Dílar (Granada).svg"
   inkscape:output_extension="org.inkscape.output.svg.inkscape">
  <defs
     id="defs3186" />
  <sodipodi:namedview
     id="base"
     pagecolor="#ffffff"
     bordercolor="#666666"
     borderopacity="1.0"
     gridtolerance="1"
     guidetolerance="1"
     objecttolerance="1"
     inkscape:pageopacity="0.0"
     inkscape:pageshadow="2"
     inkscape:zoom="1.152"
     inkscape:cx="375"
     inkscape:cy="250"
     inkscape:document-units="px"
     inkscape:current-layer="layer2"
     height="500px"
     width="818.18px"
     inkscape:window-width="1280"
     inkscape:window-height="774"
     inkscape:window-x="-4"
     inkscape:window-y="-4"
     showgrid="false"
     inkscape:showpageshadow="false"
     inkscape:window-maximized="1">
    <inkscape:grid
       type="xygrid"
       id="grid7135"
       visible="true"
       enabled="true"
       empspacing="5"
       snapvisiblegridlinesonly="true" />
  </sodipodi:namedview>
  <metadata
     id="metadata3189">
    <rdf:RDF>
      <cc:Work
         rdf:about="">
        <dc:format>image/svg+xml</dc:format>
        <dc:type
           rdf:resource="http://purl.org/dc/dcmitype/StillImage" />
        <dc:title />
      </cc:Work>
    </rdf:RDF>
  </metadata>
  <g
     inkscape:label="Bandera"
     inkscape:groupmode="layer"
     id="layer1"
     style="display:inline">
    <g
       id="g4057">
      <path
         sodipodi:nodetypes="ccccc"
         inkscape:connector-curvature="0"
         id="path3230"
         d="m 0.50002575,0.5 748.99995425,0 0,499 -748.99995425,0 z"
         style="fill:#ffffff;fill-opacity:1;fill-rule:nonzero;stroke:#000000;stroke-width:1;stroke-opacity:1" />
      <path
         sodipodi:nodetypes="ccccc"
         id="rect2383"
         d="M 1.5e-6,166.6665 750,166.6665 750,333.3335 1.5e-6,333.3335 z"
         style="fill:#0f47af;fill-opacity:1;fill-rule:nonzero;stroke:none"
         inkscape:connector-curvature="0" />
    </g>
  </g>
  <g
     inkscape:groupmode="layer"
     id="layer2"
     inkscape:label="Escudo"
     style="display:inline">
    <g
       style="display:inline;stroke:#0f47af;stroke-opacity:1;fill:#ffffff"
       id="g7149"
       transform="translate(45.775141,-975.21885)">
      <path
         inkscape:connector-curvature="0"
         sodipodi:nodetypes="cszscc"
         id="path7089"
         d="m 332.01578,1226.3917 c 1.72736,16.5271 4.60151,30.699 5.4133,37.2474 1.93947,15.6452 -3.50438,21.0798 -8.20421,21.0798 -4.69984,0 -10.14369,-5.4346 -8.20422,-21.0798 0.81179,-6.5484 3.68594,-20.7203 5.4133,-37.2474 z"
         style="fill:#ffffff;stroke:#0f47af;stroke-width:1;stroke-linecap:round;stroke-linejoin:round;stroke-miterlimit:4;stroke-opacity:1;stroke-dasharray:none;display:inline" />
      <path
         style="fill:#ffffff;stroke:#0f47af;stroke-width:1;stroke-linecap:round;stroke-linejoin:round;stroke-miterlimit:4;stroke-opacity:1;stroke-dasharray:none;display:inline"
         d="m 330.39771,1228.0098 c 16.5271,1.7273 30.699,4.6015 37.2474,5.4133 15.6452,1.9394 21.0798,-3.5044 21.0798,-8.2042 0,-4.6999 -5.4346,-10.1437 -21.0798,-8.2043 -6.5484,0.8118 -20.7203,3.686 -37.2474,5.4133 z"
         id="path7093"
         sodipodi:nodetypes="cszscc"
         inkscape:connector-curvature="0" />
      <path
         style="fill:#ffffff;stroke:#0f47af;stroke-width:1;stroke-linecap:round;stroke-linejoin:round;stroke-miterlimit:4;stroke-opacity:1;stroke-dasharray:none;display:inline"
         d="m 332.01578,1224.046 c 1.72736,-16.5271 4.60151,-30.699 5.4133,-37.2474 1.93947,-15.6452 -3.50438,-21.0798 -8.20421,-21.0798 -4.69984,0 -10.14369,5.4346 -8.20422,21.0798 0.81179,6.5484 3.68594,20.7203 5.4133,37.2474 z"
         id="path7087"
         sodipodi:nodetypes="cszscc"
         inkscape:connector-curvature="0" />
      <path
         inkscape:connector-curvature="0"
         sodipodi:nodetypes="cszscc"
         id="path7091"
         d="m 328.05201,1228.0098 c -16.5271,1.7273 -30.699,4.6015 -37.2474,5.4133 -15.6452,1.9394 -21.0798,-3.5044 -21.0798,-8.2042 0,-4.6999 5.4346,-10.1437 21.0798,-8.2043 6.5484,0.8118 20.7203,3.686 37.2474,5.4133 z"
         style="fill:#ffffff;stroke:#0f47af;stroke-width:1;stroke-linecap:round;stroke-linejoin:round;stroke-miterlimit:4;stroke-opacity:1;stroke-dasharray:none;display:inline" />
      <path
         inkscape:connector-curvature="0"
         id="path7103"
         d="m 330.91521,1226.8473 c 11.01187,-9.0595 13.96177,-9.0684 18.63796,-12.6614 12.50099,-9.6053 14.08732,-16.2859 10.53895,-19.8343 -3.54838,-3.5483 -10.22896,-1.962 -19.83426,10.539 -3.593,4.6762 -3.60192,7.6261 -12.66141,18.6379 z"
         style="fill:#ffffff;stroke:#0f47af;stroke-width:1;stroke-linecap:round;stroke-linejoin:round;stroke-miterlimit:4;stroke-opacity:1;stroke-dasharray:none;display:inline"
         sodipodi:nodetypes="cszscc" />
      <path
         sodipodi:nodetypes="cszscc"
         style="fill:#ffffff;stroke:#0f47af;stroke-width:1;stroke-linecap:round;stroke-linejoin:round;stroke-miterlimit:4;stroke-opacity:1;stroke-dasharray:none;display:inline"
         d="m 330.85298,1226.9095 c -9.05949,11.0119 -9.06812,13.9615 -12.66112,18.6377 -9.60531,12.501 -16.28589,14.0873 -19.83426,10.539 -3.54838,-3.5484 -1.96204,-10.229 10.53894,-19.8343 4.67619,-3.593 7.62581,-3.6016 18.63768,-12.6611 z"
         id="path7113"
         inkscape:connector-curvature="0" />
      <path
         sodipodi:nodetypes="cszscc"
         style="fill:#ffffff;stroke:#0f47af;stroke-width:1;stroke-linecap:round;stroke-linejoin:round;stroke-miterlimit:4;stroke-opacity:1;stroke-dasharray:none;display:inline"
         d="m 327.5345,1226.8473 c -11.01186,-9.0595 -13.96177,-9.0684 -18.63796,-12.6614 -12.50097,-9.6053 -14.08732,-16.2859 -10.53895,-19.8343 3.54838,-3.5483 10.22896,-1.962 19.83427,10.539 3.59299,4.6762 3.60191,7.6261 12.6614,18.6379 z"
         id="path7121"
         inkscape:connector-curvature="0" />
      <path
         inkscape:connector-curvature="0"
         id="path7123"
         d="m 327.59673,1226.9095 c 9.05949,11.0119 9.06812,13.9615 12.66112,18.6377 9.60531,12.501 16.2859,14.0873 19.83427,10.539 3.54837,-3.5484 1.96204,-10.229 -10.53895,-19.8343 -4.67619,-3.593 -7.62581,-3.6016 -18.63767,-12.6611 z"
         style="fill:#ffffff;stroke:#0f47af;stroke-width:1;stroke-linecap:round;stroke-linejoin:round;stroke-miterlimit:4;stroke-opacity:1;stroke-dasharray:none;display:inline"
         sodipodi:nodetypes="cszscc" />
      <path
         inkscape:connector-curvature="0"
         style="fill:#ffffff;fill-opacity:1;fill-rule:evenodd;stroke:#0f47af;stroke-width:1;stroke-linecap:round;stroke-linejoin:round;stroke-miterlimit:4;stroke-opacity:1;stroke-dasharray:none"
         d="m 339.72486,1225.2188 c 0,5.799 -4.70072,10.5 -10.49999,10.5 -5.7992,0 -10.50001,-4.701 -10.50001,-10.5 0,-5.7989 4.70081,-10.4999 10.50001,-10.4999 5.79927,0 10.49999,4.701 10.49999,10.4999 z"
         id="path7051" />
    </g>
  </g>
</svg>
