<?xml version="1.0" encoding="UTF-8" standalone="no"?>
<!-- Created with Inkscape (http://www.inkscape.org/) -->

<svg
   xmlns:dc="http://purl.org/dc/elements/1.1/"
   xmlns:cc="http://creativecommons.org/ns#"
   xmlns:rdf="http://www.w3.org/1999/02/22-rdf-syntax-ns#"
   xmlns:svg="http://www.w3.org/2000/svg"
   xmlns="http://www.w3.org/2000/svg"
   xmlns:sodipodi="http://sodipodi.sourceforge.net/DTD/sodipodi-0.dtd"
   xmlns:inkscape="http://www.inkscape.org/namespaces/inkscape"
   width="750"
   height="500"
   id="svg3184"
   sodipodi:version="0.32"
   inkscape:version="0.48.4 r9939"
   version="1.0"
   sodipodi:docname="Bandera de Domingo Pérez (Granada).svg"
   inkscape:output_extension="org.inkscape.output.svg.inkscape">
  <defs
     id="defs3186" />
  <sodipodi:namedview
     id="base"
     pagecolor="#ffffff"
     bordercolor="#666666"
     borderopacity="1.0"
     gridtolerance="1"
     guidetolerance="1"
     objecttolerance="1"
     inkscape:pageopacity="0.0"
     inkscape:pageshadow="2"
     inkscape:zoom="1.152"
     inkscape:cx="375"
     inkscape:cy="250"
     inkscape:document-units="px"
     inkscape:current-layer="layer2"
     height="500px"
     width="818.18px"
     inkscape:window-width="1280"
     inkscape:window-height="774"
     inkscape:window-x="-4"
     inkscape:window-y="-4"
     showgrid="false"
     inkscape:showpageshadow="false"
     inkscape:window-maximized="1">
    <inkscape:grid
       type="xygrid"
       id="grid7135"
       visible="true"
       enabled="true"
       empspacing="5"
       snapvisiblegridlinesonly="true" />
  </sodipodi:namedview>
  <metadata
     id="metadata3189">
    <rdf:RDF>
      <cc:Work
         rdf:about="">
        <dc:format>image/svg+xml</dc:format>
        <dc:type
           rdf:resource="http://purl.org/dc/dcmitype/StillImage" />
        <dc:title />
      </cc:Work>
    </rdf:RDF>
  </metadata>
  <g
     inkscape:label="Bandera"
     inkscape:groupmode="layer"
     id="layer1"
     style="display:inline">
    <g
       id="g5838">
      <path
         style="fill:#fcdd09;fill-opacity:1;fill-rule:nonzero;stroke:none"
         d="M 1.5e-6,0 750,0 750,500 1.5e-6,500 z"
         id="path3231"
         inkscape:connector-curvature="0"
         sodipodi:nodetypes="ccccc" />
      <path
         sodipodi:nodetypes="ccccc"
         inkscape:connector-curvature="0"
         id="path3230"
         d="m 0.50002425,223 748.99995575,0 0,54 -748.99995575,0 z"
         style="fill:#ffffff;fill-opacity:1;fill-rule:nonzero;stroke:#000000;stroke-width:0.99999987999999995;stroke-opacity:1;display:inline" />
      <path
         sodipodi:nodetypes="czzzzzzzzzzzzzcczzzzzzzzzzzzzcc"
         inkscape:connector-curvature="0"
         id="path4914-3"
         d="m 750,208.33333 c -13.70982,6.56047 -32.65055,10.61799 -53.57149,10.61799 -20.92109,0 -39.86167,-4.05752 -53.57134,-10.61799 -13.70967,-6.56032 -32.64995,-10.61798 -53.57135,-10.61798 -20.92169,0 -39.86182,4.05766 -53.57164,10.61798 -13.70967,6.56047 -32.65055,10.61799 -53.57149,10.61799 -20.9211,0 -39.86168,-4.05752 -53.57135,-10.61799 -13.70967,-6.56032 -32.6504,-10.61798 -53.57134,-10.61798 -20.92139,0 -39.86167,4.05766 -53.57149,10.61798 -13.70982,6.56047 -32.6504,10.61799 -53.57165,10.61799 -20.92109,0 -39.86167,-4.05752 -53.57133,-10.61799 -13.70967,-6.56032 -32.64965,-10.61798 -53.57135,-10.61798 -20.92139,0 -39.86167,4.05766 -53.57149,10.61798 -13.709673,6.56047 -32.650403,10.61799 -53.571343,10.61799 -20.921396,0 -39.861677,-4.05752 -53.57134600000007,-10.61799 l 0,27.77778 C 13.70967,242.67158 32.649951,246.72909 53.571347,246.72909 c 20.92094,0 39.86167,-4.05751 53.571343,-10.61798 13.70982,-6.56032 32.6501,-10.61798 53.57149,-10.61798 20.9217,0 39.86168,4.05766 53.57135,10.61798 13.70966,6.56047 32.65024,10.61798 53.57133,10.61798 20.92125,0 39.86183,-4.05751 53.57165,-10.61798 13.70982,-6.56032 32.6501,-10.61798 53.57149,-10.61798 20.92094,0 39.86167,4.05766 53.57134,10.61798 13.70967,6.56047 32.65025,10.61798 53.57135,10.61798 20.92094,0 39.86182,-4.05751 53.57149,-10.61798 13.70982,-6.56032 32.64995,-10.61798 53.57164,-10.61798 20.9214,0 39.86168,4.05766 53.57135,10.61798 13.70967,6.56047 32.65025,10.61798 53.57134,10.61798 20.92094,0 39.86167,-4.05751 53.57149,-10.61798 z"
         style="fill:#0f47af;stroke:none;display:inline" />
      <path
         sodipodi:nodetypes="czzzzzzzzzzzzzcczzzzzzzzzzzzzcc"
         inkscape:connector-curvature="0"
         id="path4767"
         d="m 750,263.88889 c -13.70982,6.56047 -32.65055,10.61798 -53.57149,10.61798 -20.92109,0 -39.86167,-4.05751 -53.57134,-10.61798 -13.70967,-6.56032 -32.64995,-10.61798 -53.57135,-10.61798 -20.92169,0 -39.86182,4.05766 -53.57164,10.61798 -13.70967,6.56047 -32.65055,10.61798 -53.57149,10.61798 -20.9211,0 -39.86168,-4.05751 -53.57135,-10.61798 -13.70967,-6.56032 -32.6504,-10.61798 -53.57134,-10.61798 -20.92139,0 -39.86167,4.05766 -53.57149,10.61798 -13.70982,6.56047 -32.6504,10.61798 -53.57165,10.61798 -20.92109,0 -39.86167,-4.05751 -53.57133,-10.61798 -13.70967,-6.56032 -32.64965,-10.61798 -53.57135,-10.61798 -20.92139,0 -39.86167,4.05766 -53.57149,10.61798 -13.709673,6.56047 -32.650403,10.61798 -53.571343,10.61798 -20.921396,0 -39.861677,-4.05751 -53.57134600000007,-10.61798 l 0,27.77778 C 13.70967,298.22714 32.649951,302.28465 53.571347,302.28465 c 20.92094,0 39.86167,-4.05751 53.571343,-10.61798 13.70982,-6.56032 32.6501,-10.61798 53.57149,-10.61798 20.9217,0 39.86168,4.05766 53.57135,10.61798 13.70966,6.56047 32.65024,10.61798 53.57133,10.61798 20.92125,0 39.86183,-4.05751 53.57165,-10.61798 13.70982,-6.56032 32.6501,-10.61798 53.57149,-10.61798 20.92094,0 39.86167,4.05766 53.57134,10.61798 13.70967,6.56047 32.65025,10.61798 53.57135,10.61798 20.92094,0 39.86182,-4.05751 53.57149,-10.61798 13.70982,-6.56032 32.64995,-10.61798 53.57164,-10.61798 20.9214,0 39.86168,4.05766 53.57135,10.61798 13.70967,6.56047 32.65025,10.61798 53.57134,10.61798 20.92094,0 39.86167,-4.05751 53.57149,-10.61798 z"
         style="fill:#0f47af;stroke:none;display:inline" />
    </g>
  </g>
  <g
     inkscape:groupmode="layer"
     id="layer2"
     inkscape:label="Escudo"
     style="display:inline">
    <g
       id="g4040">
      <g
         transform="translate(142.23245,0)"
         id="g3891"
         style="display:inline">
        <g
           id="g3428"
           style="fill:#008f4c;display:inline"
           transform="matrix(0.83232756,0,0,0.83232756,366.51834,-311.62868)">
          <path
             inkscape:connector-curvature="0"
             sodipodi:nodetypes="sssccsccscsccccccssccssscccccssccccccscsscsscscscsccsccssscsscscccccsccsscssssss"
             id="path6248-2-7"
             d="m -152.80947,871.83395 c 0,1e-5 -0.15977,-3.20032 1.1069,-4.65846 1.94061,-2.23419 9.70316,-9.49987 15.67384,-12.20392 4.59063,-2.07902 17.81129,-2.0203 20.66126,-2.94999 l -0.69496,-2.03591 c -0.78114,-0.75502 -13.96195,0.51296 -16.4696,-0.45474 -3.23056,-1.24664 5.42574,-10.09592 6.45172,-11.10165 l -2.5588,-0.95882 c -6.31524,2.88301 -11.28454,13.78828 -12.52594,14.8342 -3.56116,3.00039 -9.56842,6.52697 -11.42169,6.51489 0.17923,-3.36271 -0.1369,-5.70629 0.4596,-7.64171 1.84129,-5.97387 10.52537,-17.66763 14.38203,-21.30806 l -2.42115,-2.06121 c -2.334,1.45091 -4.45524,5.56017 -7.82087,8.43812 -0.61312,-0.21014 -2.15808,-3.68215 -3.14414,-4.78768 l -2.39146,1.18511 c -0.008,0.98831 2.06119,7.30171 1.95523,8.01405 -1.77201,2.53292 -3.36463,5.01492 -4.33987,6.80454 -1.11365,2.04366 -3.35731,6.75694 -4.78758,10.35577 -0.99737,2.5095 -2.1902,5.08323 -2.02801,8.38879 -0.16144,-3.31219 1.05841,-5.87819 2.02801,-8.38879 -1.5463,-1.43045 -4.07233,-3.55595 -5.5179,-5.56096 -0.53802,-0.74624 0.0191,-8.33488 0.53944,-9.07079 0.92759,-1.3128 0.70321,-5.30362 1.22883,-9.7996 0.26349,-2.25369 8.45935,-7.63932 8.91297,-7.98919 l -1.26751,-1.85663 c -2.33607,0.0656 -9.09028,4.21407 -11.26201,7.18388 -0.88201,0.10202 -8.55874,-5.40203 -10.34131,-7.18388 l -1.83057,1.15386 c 1.3673,1.57935 2.8706,2.85213 4.28948,4.08113 1.29186,1.11915 6.9588,5.93701 6.37503,7.87632 -1.30177,4.32466 -1.96271,11.96439 -2.37973,12.6864 -2.29814,-0.82641 -10.22688,-5.76227 -14.13444,-6.57585 -2.25581,-3.37026 -4.52143,-10.21625 -7.11766,-13.1165 l -2.3137,0.75531 c 1.24755,4.4217 2.54141,8.41597 4.45789,12.69955 l 3.94566,4.90855 c 6.37363,2.31597 14.09094,6.79209 14.99292,13.54209 0.46351,3.4683 0.92052,5.79459 0.79635,8.08903 0.46965,1.79127 1.15631,2.58519 1.79155,4.68286 0.47565,1.57029 0.85773,4.82276 0.70512,7.73477 -0.17474,3.33299 0.53794,12.07048 0.15053,15.60003 -1.36797,2.37059 -0.4081,7.98535 -0.61487,10.18739 -0.90896,9.68008 -2.96633,9.37468 -16.80119,11.44081 -1.83165,0.27355 -7.29665,2.31222 -14.1564,2.12843 10.49967,2.75723 13.22399,1.42869 15.88283,1.23527 5.33259,-0.38797 5.01796,1.79451 11.18733,0.03 -5.56281,5.44187 -1.46088,3.243 -6.96372,3.95588 -3.94383,0.51085 -7.94944,6.66106 -16.03453,3.23312 2.14112,1.92425 4.1263,3.53276 5.2851,3.74522 4.98677,0.91413 9.8344,-4.82184 14.1598,-3.2231 -3.98199,6.02586 -5.91711,9.8131 -1.524,14.6696 -2.21139,-3.45392 1.44158,-9.05646 4.25555,-13.35426 1.49281,-2.27987 4.12064,-5.13965 6.28488,-7.27768 -0.19104,-1.48693 0.73156,-3.11803 1.49439,-4.41983 -0.74478,1.28348 -1.68127,2.93189 -1.49439,4.41983 0.14397,1.1468 0.57021,2.55914 1.79979,3.97427 1.39193,1.60192 4.15608,4.59777 0.77198,5.95419 -9.54829,3.82713 -1.20005,12.09868 0.31912,14.85032 -0.30199,-3.82858 -3.96053,-7.96142 0.0458,-10.23157 3.55766,-2.01599 8.10638,-2.72542 5.98073,-6.60683 -3.39158,-6.19329 -1.56051,-6.56195 -1.89909,-10.25166 1.03347,1.97772 1.6174,3.85257 2.54383,5.06056 8.33618,10.86904 2.43079,13.12062 1.58337,22.0295 11.34759,-18.21323 1.60211,-16.69478 1.86085,-26.42736 6.33919,5.58954 15.91327,14.14037 10.09522,22.69218 6.84852,-3.18274 3.80542,-8.13847 3.91088,-11.61718 4.65684,1.60473 7.9971,1.16167 10.97191,0.28113 -13.97799,-2.45541 -10.51056,-2.91359 -18.11078,-9.79982 -1.14791,-1.04007 -2.41674,-2.30003 -3.18548,-3.45402 0.99006,1.42559 2.61711,3.00523 3.18548,3.45402 2.09797,-0.0763 4.13537,0.015 7.03699,0.16066 4.02599,0.20222 3.70679,-1.88609 6.51443,-1.37558 8.14008,1.48005 11.13169,0.84098 13.14489,-1.70683 -4.09428,1.12145 -7.76281,0.86469 -11.71968,-0.9339 -2.58867,-1.17669 -5.4023,0.97862 -9.70408,-0.33135 -8.32869,-2.53621 -9.23084,-4.74237 -9.53391,-12.30399 -0.0975,-2.43153 0.34108,-9.90603 0.0499,-11.41237 -0.83503,-4.31907 -0.29809,-12.26486 -0.57979,-14.37504 -0.25715,-1.92569 -0.76033,-5.6979 -0.17856,-10.22488 z"
             style="fill:#008f4c;stroke:#000000;stroke-width:1.20144987;stroke-linecap:round;stroke-linejoin:round;stroke-miterlimit:4;stroke-opacity:1;stroke-dasharray:none;display:inline" />
          <path
             inkscape:connector-curvature="0"
             style="fill:#008f4c;fill-opacity:1;fill-rule:evenodd;stroke:#000000;stroke-width:1.20144987;stroke-linecap:round;stroke-linejoin:round;stroke-miterlimit:4;stroke-opacity:1;stroke-dasharray:none;display:inline"
             d="m -199.83184,830.17956 c -1.39277,-0.37435 -2.80969,2.57657 -4.00282,0.0717 -2.28163,-1.48317 -1.47502,5.80618 -3.96793,2.68336 -0.50999,-2.62172 -2.43189,-1.09547 -3.8071,-0.21615 -1.03787,-0.32489 1.03813,-2.31119 -1.37287,-1.41521 -3.01098,1.66334 -1.32067,-3.34056 -4.02871,-1.89493 -2.44745,0.83774 -0.21936,-3.84457 -3.51072,-2.92859 -3.47934,0.80162 -3.14093,-3.69583 -6.62459,-3.0325 -3.17906,0.0585 1.68563,-4.60499 -2.20737,-3.06672 -2.22543,1.12379 -2.50208,-0.6533 -2.32325,-2.19256 -0.9722,-1.05384 -4.11179,-2.3439 -0.89935,-3.01854 3.32641,-0.92523 -0.15976,-2.02363 -1.27739,-3.07311 0.74234,-0.73055 4.89983,-1.4694 1.61772,-1.91014 -0.69423,-0.80087 1.03853,-3.3056 -0.98735,-1.76946 -3.59564,0.77024 0.008,-4.43607 -2.61413,-3.80244 -3.26147,-0.70048 -1.34232,-3.29316 0.36556,-3.81234 -1.44664,0.41785 -5.58607,-0.0179 -2.97727,-1.79315 1.96653,-1.08641 0.12305,-1.40782 -0.7728,-1.64803 -0.96503,-2.28242 6.37551,-2.52264 1.79369,-2.27289 -3.46327,-2.13103 1.95804,-3.48294 4.02505,-2.78012 1.57218,-0.22051 0.21187,-1.69792 2.18364,-1.48363 0.65151,-0.81229 -3.4989,-1.57505 -0.83733,-2.86231 1.53705,0.25927 3.0725,-0.92683 1.1049,-1.80398 -3.43631,0.57009 1.87053,-3.41101 -1.67882,-3.07707 -2.54602,0.20637 -2.61089,-1.16441 -0.40326,-1.8367 1.81709,-1.8068 4.58797,-2.47606 6.1142,-0.16121 1.48301,1.33938 5.30966,-0.92136 3.31999,-1.51964 -2.69813,1.11246 -1.39584,-1.15156 -1.81851,-2.06379 -2.82782,1.61994 -3.68804,-2.98168 -0.58916,-2.72542 2.08949,-0.3213 -0.20137,-2.83152 2.26723,-1.60601 1.43963,0.93787 3.59397,0.14586 4.0406,-0.44913 1.42841,3.19267 5.55193,-0.66729 6.52171,2.29882 -0.70229,2.21032 3.00973,2.25736 2.1014,-0.0951 2.06925,-0.93825 -1.39493,-2.9532 1.11812,-2.4409 2.29736,-0.24145 -1.28421,-3.44308 1.59273,-2.07992 1.21253,0.85254 2.91175,3.24969 2.65824,0.25256 1.39586,-1.84177 3.76106,2.42112 5.64717,0.27162 2.8424,0.58309 0.24009,9.20718 3.99333,5.76714"
             id="path8496-4"
             sodipodi:nodetypes="cccccccccccccccccccccccccccccccccccccc" />
          <path
             inkscape:connector-curvature="0"
             style="fill:#008f4c;fill-opacity:1;fill-rule:evenodd;stroke:#000000;stroke-width:1.20144987;stroke-linecap:round;stroke-linejoin:round;stroke-miterlimit:4;stroke-opacity:1;stroke-dasharray:none;display:inline"
             d="m -236.51077,799.43079 c 0.87488,1.71359 -4.77321,-0.58406 -2.86387,2.13652 1.89419,4.50106 -3.42382,-0.78797 -4.15375,2.43257 2.45046,2.88935 1.38353,3.72697 0,4.82946 0.43107,0.47783 0.93939,0.65528 1.70379,0.97475 -0.8365,0.76842 -1.70379,1.50835 -1.70379,2.16494 0,1.30842 1.73743,2.02455 2.67216,2.97647 -2.1377,1.55181 -0.45671,2.77207 1.21018,3.45775 0.83892,2.41325 -1.36187,6.00482 1.46687,7.53664 1.1073,1.82824 -1.40359,5.81547 1.88036,5.03664 4.08207,-0.60495 -2.63993,4.33709 1.27448,4.72998 2.31708,0.16858 1.75532,6.54822 3.94496,2.94944 1.93089,-3.81824 1.84431,3.01008 2.97334,2.78666 0.91574,-1.05508 2.45128,-4.17722 2.079,-0.74053 0.331,1.53481 3.90757,0.17811 1.39868,2.20691 -1.01981,2.80388 3.40823,2.76181 3.46743,3.00016 -0.97486,3.87044 2.1311,5.40307 3.84031,2.49547 -0.53446,1.14248 -1.90683,6.0784 0.88552,4.93343 1.73119,-2.09751 1.28705,0.0498 1.62838,1.42876 1.7713,2.17841 4.0948,-5.32731 2.77187,-1.11128 -0.249,1.51302 0.17042,3.88578 0.80003,3.88578 1.24975,0 2.89726,-3.27155 2.61397,-5.17651 0.14776,-1.613 0.91865,-3.07697 1.59497,-1.66258 0.53596,-1.49594 1.37287,-2.69199 1.34357,-0.14908 0.8211,2.82204 2.5452,0.87728 2.73209,-1.00083 2.6307,0.0956 -0.15293,4.58014 2.71428,3.17952 3.23858,-1.57719 -0.69181,4.04733 1.89643,4.80948 1.56359,-1.43942 5.59521,-4.15741 3.0327,-6.92745 -0.66841,-2.41886 0.46845,-5.73477 2.55236,-4.0093 -1.15468,1.1195 -1.44072,3.36121 0.59124,2.62904 2.1252,0.25575 -1.6814,2.79369 0.95013,3.45354 1.77738,3.09305 2.35671,-4.16941 4.23824,-0.57728 1.00741,-0.77153 -0.95962,-6.2829 1.89842,-5.15718 -0.66732,-2.01236 -2.09406,-3.92497 -0.0708,-5.33875 1.40027,-3.42184 -2.96826,-2.34145 -2.20227,-5.79623 1.4477,1.2912 3.86086,-0.42148 4.50512,2.07487 0.29463,-2.79941 1.51815,-2.05107 2.61804,-0.13088 1.73226,-1.02614 -3.30343,-6.63855 0.14845,-4.64879 3.16465,1.25645 -1.26616,-5.18029 1.53712,-5.46949 0.0799,-3.12847 -3.55236,-3.1856 -4.076,-4.84293 0.51382,-0.45422 1.12487,-0.7029 1.59915,-1.24097"
             id="path8498-0"
             sodipodi:nodetypes="cccccsccccccccccccccscccccccccccccccccccc" />
          <path
             inkscape:connector-curvature="0"
             style="fill:#008f4c;fill-opacity:1;fill-rule:evenodd;stroke:#000000;stroke-width:1.20144987;stroke-linecap:round;stroke-linejoin:round;stroke-miterlimit:4;stroke-opacity:1;stroke-dasharray:none;display:inline"
             d="m -93.279999,806.30843 c -0.154012,1.39606 7.201519,-0.73655 6.092633,1.80172 -0.439976,3.38741 4.498067,-2.25166 5.302092,0.72823 -2.086488,1.61391 -1.173072,2.64603 1.551276,2.73693 2.376614,0.38116 -3.258228,0.9442 -0.183066,1.74605 3.689878,0.8849 -2.156668,3.47892 2.655668,3.86011 -1.734261,1.27316 -3.652417,2.97368 -1.353643,4.64972 1.80344,1.76399 -1.738087,3.65668 1.353643,5.37442 -0.699632,1.3948 -6.398243,1.33917 0,4.06992 -0.94805,1.44991 -4.33465,1.64559 -2.313595,4.10316 -0.611552,1.75934 -5.580563,-2.17158 -4.023044,1.37294 1.46353,3.24238 -2.791946,0.0782 -3.338481,0.69295 2.191467,1.78353 -1.841068,1.67029 -1.347646,2.6079 4.20228,0.60727 -0.953128,3.55478 -1.443718,3.39626 2.178729,1.76261 0.236179,4.51395 -2.568505,2.86718 -1.889019,0.0446 4.254063,2.51354 0.618713,3.21194 -1.865128,-0.39184 -3.490329,-0.25491 -1.406255,1.29988 -1.293951,1.91731 -4.660071,-0.80041 -4.649998,-0.34657 3.314089,1.53957 -0.09807,3.74539 -2.171325,1.8447 -1.35497,-0.85788 -2.48151,-3.33517 -3.27538,-1.45313 -1.80751,-1.14843 -2.16073,-0.85992 -1.42232,0.86886 -1.25498,2.86622 -3.96194,-2.42988 -4.50422,1.0707 2.13636,2.97436 -0.84291,1.38238 -0.70954,4.72901 -1.06043,-0.17543 -3.47267,-2.55826 -4.57915,-1.97215 -2.39859,-0.37567 -0.29862,-2.03967 -2.68689,-3.23669 -1.03029,-1.64009 -4.88176,0.5144 -1.31259,1.0189 1.03021,1.13815 -4.24233,1.26191 -1.00457,2.20259 1.1903,0.62637 -0.20447,1.78843 -1.57942,1.98735 -1.24559,-1.17991 -2.31193,-0.91175 -3.7465,0 -0.26348,-2.36849 -1.67564,-2.89566 -3.60454,-2.66011 0.31294,-1.48288 0.59232,-3.23587 -1.84056,-3.45241 -2.7753,-1.71067 2.46335,-2.76688 0.15285,-4.47217 -1.41085,1.64439 -4.11772,0.47899 -3.92016,2.60831 -1.12653,-1.13533 -2.41566,-1.47434 -2.74458,0.36379 -1.74742,1.30993 -0.59016,-3.97673 -0.82242,-3.3973 -1.57841,0.94919 -3.19455,1.97276 -3.0446,-0.49207 0.12861,-1.62722 -0.89261,-1.64954 -2.09133,-2.28271 -0.79978,-2.04451 6.74581,-3.87686 6.48832,-5.12816 -0.70421,-0.14291 -4.26447,-1.26517 -4.95602,-1.47738"
             id="path8500-9"
             sodipodi:nodetypes="ccccccccccccccccccccccccccccccccccccccc" />
          <path
             inkscape:connector-curvature="0"
             style="fill:#008f4c;fill-opacity:1;fill-rule:evenodd;stroke:#000000;stroke-width:1.20144987;stroke-linecap:round;stroke-linejoin:round;stroke-miterlimit:4;stroke-opacity:1;stroke-dasharray:none;display:inline"
             d="m -150.34271,833.47175 c 1.67807,-0.33526 -0.30686,3.19746 2.63769,1.96055 4.17963,-0.7212 -2.13452,3.31703 1.13161,4.3139 1.72919,-1.57752 3.36663,-1.84064 3.62377,0.64758 0.5994,2.22661 1.12763,-2.80727 2.31319,-0.0462 1.2385,2.54726 4.16042,-2.93717 4.66973,0.69784 1.65501,-0.26152 2.67273,-3.23028 4.89533,-1.22635 2.57684,1.99186 4.94196,-1.93172 7.54285,0.48043 2.01589,0.97615 1.42515,-5.01352 3.48808,-1.62946 1.83075,3.06566 2.82799,-2.38179 5.89357,-1.17402 2.69414,-0.20985 -2.92913,-4.04869 0.93365,-3.42893 1.79961,0.0283 3.40942,-0.0275 1.66358,-1.53141 -1.36121,-1.43291 -0.74724,-1.42641 1.06577,-1.02781 0.72153,-0.50899 0.93015,-3.18201 1.8041,-0.97735 1.88336,1.91268 3.50774,-2.35031 3.58831,-2.3881 2.30969,1.53621 5.503065,-0.38437 3.25807,-2.47418 -0.20704,-1.6755 3.3856,3.18275 3.9497,0.0857 -0.617879,-1.44903 -0.626454,-2.83498 1.433144,-1.34343 2.250907,-1.29026 -1.331829,-3.66103 -0.805941,-3.73702 2.125533,2.49682 4.548267,-0.56688 2.058851,-2.0109 -1.140689,-0.98585 -4.273543,-1.58007 -2.048444,-2.47222 -1.53421,-1.32353 -1.226685,-1.65198 0.929233,-1.28186 3.136269,-1.27971 -3.266803,-3.5249 1.153675,-3.64727 2.726845,1.88581 0.537628,-4.1227 3.799934,-1.67878 3.577908,1.95596 0.610138,-2.56798 0.252831,-3.85532 -0.636112,-2.01045 -3.865953,0.73291 -5.543685,-1.06532 -2.083324,-0.58753 0.175407,-4.06238 1.085993,-1.22361 1.486757,0.69547 1.235176,-3.70403 2.753153,-0.94042 1.479348,0.40512 4.018464,-1.54103 1.672487,-2.64839 -2.117124,-0.98152 2.694378,-2.28083 -0.70779,-2.45694 -1.723435,-0.4036 -3.460275,-0.49269 -2.572416,-2.225 -1.935473,0.3524 -3.930054,0.96981 -4.523125,-1.10879 -2.47393,-1.95132 -2.74599,2.23934 -5.33489,0.86819 1.73551,-1.23388 0.19263,-3.54364 2.61629,-3.50623 0.13836,-0.74507 -2.69995,-1.64568 -0.0192,-2.22246 2.849055,-1.7195 -4.53561,-0.28961 -3.77371,-0.41209 1.02448,-1.4211 2.10821,-2.86975 -0.85747,-2.41723 -1.94222,0.31554 -2.0889,-0.48872 -2.94047,-1.39981 -2.54494,-0.38635 -3.43696,2.7854 -4.98224,2.77086 -0.23635,-0.55689 -0.26707,-1.15911 -0.59192,-1.69527"
             id="path8502-4" />
          <path
             inkscape:connector-curvature="0"
             style="fill:#008f4c;fill-opacity:1;fill-rule:evenodd;stroke:#000000;stroke-width:1.20144987;stroke-linecap:round;stroke-linejoin:round;stroke-miterlimit:4;stroke-opacity:1;stroke-dasharray:none;display:inline"
             d="m -138.23411,770.43958 c 1.07259,0.4183 0.81751,-2.7881 2.48326,-1.64658 2.67956,0.75608 -0.16616,-2.7639 2.16416,-3.78143 0.8921,1.03776 1.6918,2.12434 2.74199,-0.18857 1.36272,-2.35872 -0.0158,2.32358 1.75698,-0.10956 1.71902,-2.26151 1.88095,2.64783 3.42981,-0.32078 1.19564,-0.49274 0.72269,2.94519 2.78095,1.22262 2.44273,-1.88232 2.90085,1.5076 5.16616,-0.0195 2.77679,-1.90499 -0.22644,4.01152 2.30951,1.487 1.58125,-1.88591 1.84948,-0.57188 2.26906,0.70306 1.00947,0.51971 3.24965,0.22402 1.13319,1.97768 -2.80901,2.1326 1.74701,1.07333 1.49275,2.0076 -0.78013,0.89506 -3.13143,2.66939 -0.74683,1.82532 0.96636,0.0835 -0.35847,3.17179 1.27397,0.81674 1.99325,-1.29222 1.47452,2.42097 1.59281,2.36312 2.74433,-1.41762 3.31884,1.00198 1.20229,2.75392 0.77973,-0.57701 3.94122,-2.42586 2.85107,0.0413 -1.45912,1.53347 -0.4275,1.33486 0.73734,1.04273 1.29753,1.17008 -4.06883,4.28148 -1.08508,2.53166 2.88569,-1.21438 0.70663,2.84236 -1.17241,2.94478 -0.84806,0.39756 -2.25199,1.09706 -1.06751,1.51246 -1.27671,0.85284 -1.89034,1.53537 -0.0699,1.19527 1.47619,0.54175 -0.0748,1.98212 -1.30493,2.31776 -4.2e-4,1.38904 1.35713,0.85844 2.1326,0.60167 -0.46378,1.35119 -0.99233,3.16844 1.23351,1.86612 2.85797,-1.29661 -0.7132,2.31527 -1.25707,3.33806 -1.08649,2.06809 -2.54811,-0.64565 -4.35213,0.90441 -1.52747,0.24236 -1.42332,3.61297 0.11289,1.2983 1.64734,-1.16587 -0.31119,3.27362 1.77738,0.7817 1.4508,-0.54879 2.08433,1.87839 0.0667,2.53237 -1.43956,0.82536 1.29919,1.87196 -1.02173,1.96837 -1.38902,0.28463 -2.71044,0.34612 -2.60846,1.8924 -1.19497,-0.15248 -2.43997,-1.19867 -3.39641,0.69024 -1.46046,0.9799 -2.17058,0.36157 -2.17574,-0.86149 -0.7704,-0.24724 -2.30702,-0.0172 -1.249,0.90208 -0.73242,1.21427 -0.24075,2.41825 0.4578,2.5657 -2.44389,0.73703 -0.70272,1.56938 -0.49418,2.43083 -1.45271,0.83347 -3.85654,-1.87977 -3.0054,0.62272 0.2192,2.30662 -3.33731,-0.22711 -3.91998,2.09851 -2.10388,0.53253 -1.5934,-2.98633 -2.86638,-2.41777 -0.30152,0.43186 -0.48758,0.90535 -0.85805,1.30821"
             id="path8504-8" />
          <path
             inkscape:connector-curvature="0"
             id="path8506-8"
             d="m -185.67731,832.97609 c 1.67807,-0.33534 -0.30686,3.19747 2.63768,1.96065 4.17964,-0.72121 -2.13452,3.31701 1.13163,4.31372 1.72918,-1.57735 3.36669,-1.84037 3.62376,0.64775 0.59941,2.22672 1.12762,-2.80725 2.31318,-0.0473 1.23852,2.54726 4.16049,-2.93707 4.66973,0.69803 1.65501,-0.26154 2.67274,-6.76497 4.89534,-4.76087 2.57683,1.99169 3.70377,-1.9317 6.30467,0.48026 2.01588,0.97622 3.90142,-3.76581 5.96442,-0.38187 1.83075,3.06557 1.58982,-0.0947 4.65541,1.11297 2.69413,-0.20967 -2.92914,-4.04869 0.93365,-3.429 1.79961,0.0283 3.40942,-0.0256 1.66358,-1.53134 -1.36121,-1.43281 -0.74717,-1.42639 1.06576,-1.02779 0.72153,-0.509 0.93016,-3.18182 1.8041,-0.97738 1.88337,1.91278 3.50774,-2.35029 3.58832,-2.3881 2.30969,1.53643 5.50306,-0.38427 3.25806,-2.47418 -0.20704,-1.67529 3.38561,3.18278 3.94979,0.0858 -0.61796,-1.44902 -0.62655,-2.83498 1.43306,-1.34333 2.2509,-1.29036 -1.33184,-3.66111 -0.80594,-3.73712 2.12553,2.49664 4.54827,-0.56677 2.05886,-2.011 -1.14062,-0.98584 -4.27356,-1.57997 -2.04845,-2.47218 -1.53421,-1.32347 -1.22669,-1.65194 0.92923,-1.28189 3.13626,-1.27961 -3.26673,-3.52489 1.15367,-3.64727 2.72685,1.88573 0.53772,-4.12258 3.79994,-1.67858 3.57791,1.95567 0.61013,-2.56818 0.25283,-3.85543 -9.69593,-0.59563 -2.93971,-4.75377 -1.70455,-3.22922 1.47936,0.4049 4.01848,-1.54124 1.6725,-2.64861 -2.11712,-0.98142 2.69438,-2.28073 -0.70779,-2.45683 -1.72345,-0.40342 -3.46027,-0.49252 -2.57242,-2.22501 -1.93547,0.35241 -3.93006,0.96972 -4.52312,-1.1088 -2.47394,-1.95123 -2.74591,2.23945 -5.33489,0.86821 1.7355,-1.23379 0.19263,-3.54377 2.61628,-3.50624 0.13836,-0.74506 -2.69987,-1.64568 -0.0192,-2.22246 2.84906,-1.71942 -4.5356,-0.28962 -3.77371,-0.41216 1.02448,-1.42113 2.10821,-2.86977 -0.85747,-2.41718 -1.94222,0.31566 -2.0889,-0.48862 -2.94046,-1.3998 -2.54495,-0.38644 -3.43688,2.7854 -4.98225,2.77078 -0.23634,-0.55668 -0.26706,-1.15894 -0.59191,-1.69519"
             style="fill:#008f4c;fill-opacity:1;fill-rule:evenodd;stroke:#000000;stroke-width:1.20144987;stroke-linecap:round;stroke-linejoin:round;stroke-miterlimit:4;stroke-opacity:1;stroke-dasharray:none;display:inline"
             sodipodi:nodetypes="cccccccccccccccccccccccccccccccccccccc" />
          <path
             inkscape:connector-curvature="0"
             style="fill:#008f4c;fill-opacity:1;fill-rule:evenodd;stroke:#000000;stroke-width:1.20144987;stroke-linecap:round;stroke-linejoin:round;stroke-miterlimit:4;stroke-opacity:1;stroke-dasharray:none;display:inline"
             d="m -231.64889,805.0542 0.63268,0.39464 -2.43596,1.18853 2.28445,2.65068 c -2.47659,-0.37542 -4.33873,0.0983 -5.4471,1.59137 l 3.39267,1.02149 -2.68848,2.64973 2.62312,-0.46329 -1.16715,2.45205 3.40491,1.03808 -1.37371,1.73617 3.74516,0.59989 0.48252,3.80188 2.89817,1.28526 0.29536,3.07678 4.11279,-0.66822 -1.36062,3.09076 3.59838,0.39916 1.97127,2.25905 2.5417,-2.85036 2.4313,2.85111 1.88811,-2.80368 0.69463,1.81575 2.84481,-0.59403 -1.36146,1.75307 c 1.47135,1.24528 3.11346,1.24538 4.86645,0.32507 0.13594,1.5496 0.40642,2.97149 2.07867,3.27261 l 2.83531,-2.44949 c -0.15618,1.288 -1.53978,2.65774 0.46303,3.81167 l 2.88286,-1.95085 0.0408,1.86262 2.13593,-0.22562 1.5074,-2.89032 -0.44605,2.1003 1.12212,1.06295 2.28912,-1.38897 0.40494,-3.96279 1.20902,0.74835 0.82676,-2.01372 1.07534,1.90239 2.01722,0.082 0.31145,-2.28412 2.09647,0.58753 -0.10573,1.66189 3.45071,-1.13913 0.5695,3.48736 2.82309,-2.46588 1.86088,-1.97395 -2.19663,-1.62769 -0.36288,-2.77152 2.71744,-0.80399 -0.93324,2.33778 3.25715,-0.50023 -0.97353,1.8131 3.00466,0.96114 1.42041,-2.57572 2.09647,0.58774 -1.11654,-3.76502 1.98917,-0.42594 -2.60538,-2.2219 1.25498,-1.42894 -0.42191,-1.94898 -2.28995,0.0519 -1.30918,-1.78832 c 1.58648,0.40633 3.04244,0.43886 3.99765,-0.8616 l 1.63735,1.33335 0.44597,-2.1001 2.91773,1.27547 c -0.82099,-1.22136 -0.71694,-2.66575 -3.47408,-3.40845 l 3.77238,-0.23015 -2.07143,-3.29879 1.31477,-0.91374 -1.35598,-0.94888 c -1.36887,-1.13782 -3.19596,-0.81276 -4.91398,-0.82342 l 1.9955,-1.79011 c -0.0108,0 -0.0208,0 -0.0316,-0.0112"
             id="path8508-2"
             sodipodi:nodetypes="cccccccccccccccccccccccccccccccccccccccccccccccccccccccccccccccccccccccccccc" />
          <path
             inkscape:connector-curvature="0"
             style="fill:#008f4c;fill-opacity:1;fill-rule:evenodd;stroke:#000000;stroke-width:1.20144987;stroke-linecap:round;stroke-linejoin:round;stroke-miterlimit:4;stroke-opacity:1;stroke-dasharray:none;display:inline"
             d="m -206.48691,773.77412 c -0.6208,-6.30383 -3.59506,-5.68392 -4.39968,-5.71331 -0.90075,-0.0328 -1.74258,0.0326 -1.14301,1.38545 0.25492,3.39479 -3.16716,-1.73177 -5.28894,0.0847 0.8141,1.65389 2.38785,3.23641 -1.15584,3.09972 -3.18679,0.14404 3.02464,1.23652 -0.24392,1.83612 -3.62295,0.61957 2.85504,3.70619 -1.4299,3.72052 -0.97611,1.10376 3.66291,2.37377 1.02647,3.76292 -2.02064,1.44819 -1.15916,2.92464 -0.34607,4.62151 -1.42789,1.47186 -2.78803,2.92906 0.35539,3.4077 3.93947,0.95022 -4.78369,1.91984 -0.64892,3.43978 2.44279,0.90098 -0.49084,4.93007 3.19786,3.27881 4.05901,-2.27431 -0.1172,4.27017 3.10131,2.53368 1.4577,-0.59591 2.90857,-1.17185 1.61196,0.54453 -0.3171,1.08645 4.0526,1.28189 0.91351,1.87355 -2.54096,1.30989 2.44079,3.12782 2.45819,3.20446 -2.15767,1.68754 -0.19597,4.50159 2.59664,2.94819 1.90926,0.10072 -4.22185,2.36776 -0.58208,3.18663 1.84607,-0.32703 3.50856,-0.14886 1.43564,1.33807 1.30753,1.96367 4.63794,-0.63712 4.64983,-0.196 -3.30093,1.4279 0.13636,3.74683 2.19272,1.91419 1.3444,-0.80965 2.44954,-3.25584 3.2624,-1.34798 1.79344,-1.08219 2.15849,-0.79351 1.4373,0.91241 1.28471,2.90399 3.93838,-2.29524 4.52304,1.21485 -3.24258,2.01005 4.87011,1.24352 1.20038,3.63669 -2.4498,2.47664 3.34972,0.5636 4.85621,0.49157 2.39933,-0.29876 -0.45321,-3.22914 1.92289,-4.34878 0.99185,-1.60967 4.90233,0.66371 1.33817,1.04298 -0.99801,1.11755 4.35761,1.46176 0.79919,2.34654 -0.65435,1.15119 1.38461,3.44156 3.02023,1.68123 1.4542,-1.5912 2.44129,2.47191 3.0789,-0.27511 0.70096,-1.35738 1.04153,-2.72392 3.0213,-1.80085 -0.0241,-1.36474 -0.88786,-3.39234 1.73384,-3.37952 2.8717,-1.69793 -2.22251,-2.76247 -0.17149,-4.60784 0.9115,1.02789 3.00089,1.50474 3.70953,1.40359 -0.20373,2.37414 1.02388,0.50023 2.25398,0.4215 0.51298,1.14272 1.67774,2.84959 1.77322,0.51117 0.56335,-1.35976 -1.48443,-3.73061 0.95255,-1.87753 2.99623,2.22626 0.86221,-3.56909 3.99056,-3.21594 0.7794,-2.01864 -2.97117,-3.1341 -2.74275,-4.37838 0.70522,-0.12086 3.20762,-5.06065 3.89902,-5.25679"
             id="path8510-4"
             sodipodi:nodetypes="csccccccccccccccccccccccccccccccccccccccc" />
          <path
             sodipodi:nodetypes="ccccccccccccccccccccccccccccccccccccccccc"
             inkscape:connector-curvature="0"
             style="fill:#008f4c;fill-opacity:1;fill-rule:evenodd;stroke:#000000;stroke-width:1.20144987;stroke-linecap:round;stroke-linejoin:round;stroke-miterlimit:4;stroke-opacity:1;stroke-dasharray:none;display:inline"
             d="m -136.7153,781.74591 c -1.11863,-0.94871 3.25698,-1.53961 0.86904,-2.884 -2.41299,-2.44647 3.74383,-0.56265 3.86112,-3.13055 -1.84282,-0.6076 -3.70178,-1.1114 -1.19596,-2.75626 2.402,-1.96499 -3.06526,0.6264 -0.7813,-1.76305 2.08516,-2.29139 -4.49432,-1.16101 -1.38377,-3.4702 0.0216,-1.30987 -4.27696,0.0611 -3.08341,-2.42374 1.20237,-2.90626 -3.52371,-2.46748 -2.69788,-5.10506 1.05645,-3.24178 -5.18704,1.278 -3.1843,-1.88891 1.66125,-2.05683 -0.21837,-1.97595 -2.1262,-2.05523 -1.21977,-0.85971 -2.00957,-3.14882 -3.21361,-0.59857 -1.34048,3.33324 -2.34098,-1.4425 -3.44262,-0.94604 -0.77272,1.00535 -1.88053,3.79282 -2.02073,1.2169 -0.62004,-0.93192 -4.0068,1.18769 -1.75223,-1.04268 0.6585,-2.30733 -3.97984,-0.81937 -3.96577,-0.95133 0.42923,-3.08172 -3.07516,-3.01271 -4.27695,-0.46302 0.35247,-0.92136 1.25048,-2.97745 -0.3668,-3.27586 -1.50574,1.74434 -2.83208,1.73247 -3.13744,0 -2.05352,0.0681 -3.01255,4.50607 -4.05692,0 -1.58159,0.6701 -2.67399,1.80421 -1.81902,3.68654 -0.0781,0.94182 -0.2644,2.51122 -1.43797,1.45138 -0.4552,1.48439 -1.03471,2.2694 -1.54436,0.38295 -1.49484,-1.31486 -2.58241,0.59508 -2.37779,1.89731 -1.83731,0.36549 -1.85155,-1.11407 -1.92048,-1.947 -1.54261,0.81305 -3.66781,1.81238 -3.1187,-0.72723 0.20813,-3.16195 -2.68664,1.3128 -3.75315,2.11838 -2.16307,1.61608 2.19771,2.34549 1.09799,4.53392 0.48492,1.57178 -4.02912,2.35493 -1.77689,0.22977 0.67398,-1.93258 -4.16649,1.16768 -1.97094,-1.54896 -0.0391,-1.5764 -3.58406,-1.56396 -3.38511,0.59978 -0.33199,1.63796 -3.16123,-0.79062 -2.06542,1.52585 0.3554,1.4461 0.97104,2.76663 -1.12845,3.07246 0.83225,1.13951 2.87203,2.09349 0.87762,3.53404 -0.52647,1.69924 0.66625,2.23763 2.28679,1.92155 0.73335,0.69545 1.23851,2.2728 -0.53504,1.46996 -1.22003,1.04221 -3.07201,0.87307 -3.6351,0.22246 0.31318,2.60628 -1.70587,1.10605 -2.95546,1.1269 -0.33732,1.65295 4.51997,3.31276 0.76083,3.13044 -3.16657,0.38991 2.05959,3.23451 -0.70946,4.42109 0.40434,2.21689 4.7906,0.78785 4.70928,2.19407 -0.41235,0.41122 -0.94048,0.71924 -1.27806,1.19081"
             id="path8512-5" />
          <path
             inkscape:connector-curvature="0"
             id="path8514-5"
             d="m -133.98646,797.13177 c -1.01707,-0.94872 2.96136,-1.53963 0.79013,-2.88402 -2.19389,-2.44645 3.404,-0.56265 3.51063,-3.13053 -1.67556,-0.60763 -3.3657,-1.11143 -1.08741,-2.75626 2.18398,-1.965 -2.78694,0.62638 -0.71036,-1.76305 1.89592,-2.29139 -4.08631,-1.16103 -1.25816,-3.47023 0.0191,-1.30986 -3.88867,0.0612 -2.80352,-2.42374 1.09333,-2.90623 -3.20377,-2.46748 -2.45296,-5.10504 0.96055,-3.24179 -4.71609,1.27801 -2.89517,-1.88893 1.5104,-2.05682 -0.19854,-1.97594 -1.93322,-2.05522 -1.10897,-0.85971 -1.82709,-3.14882 -2.92182,-0.59855 -1.21886,3.33322 -2.12853,-1.44252 -3.13011,-0.94605 -0.70263,1.00533 -1.70986,3.7928 -1.83731,1.2169 -0.56378,-0.93192 -3.64301,1.18769 -1.59316,-1.04269 0.59873,-2.30732 -3.61853,-0.81936 -3.60571,-0.95133 0.39027,-3.08171 -2.79602,-3.0127 -3.88877,-0.46301 0.32051,-0.92137 1.02873,-4.52818 -1.41607,-2.80347 -1.14493,1.84347 -1.40076,0.77286 -1.60763,-0.45397 -2.02947,-0.97319 -3.19913,5.14202 -2.5248,1.73677 0.0773,-3.16787 -3.75739,0.049 -2.98001,1.93134 -0.0709,0.94183 -0.24042,2.51123 -1.30753,1.45138 -0.41391,1.48438 -0.94071,2.26943 -1.40417,0.38295 -1.35913,-1.31485 -2.34797,0.59508 -2.16192,1.89731 -1.67056,0.3655 -1.68346,-1.11405 -1.74607,-1.947 -1.40259,0.81306 -3.3349,1.81238 -2.83557,-0.72723 0.18915,-3.16195 -2.44287,1.31281 -3.41249,2.11837 -1.96677,1.61609 1.99825,2.3455 0.99834,4.53394 0.4408,1.57176 -3.66342,2.35492 -1.61564,0.22974 0.6128,-1.93256 -3.78819,1.1677 -1.79194,-1.54895 -0.035,-1.57639 -3.25874,-1.56395 -3.07783,0.59978 -0.30187,1.63797 -2.87428,-0.79059 -1.87796,1.52587 0.3231,1.4461 0.88287,2.76662 -1.02596,3.07246 0.75666,1.13951 2.61129,2.0935 0.79787,3.53405 -0.47869,1.69922 0.60579,2.23762 2.07924,1.92153 0.66675,0.69547 1.12613,2.2728 -0.48651,1.46995 -1.10922,1.04222 -2.79311,0.87309 -3.3051,0.22247 0.2848,2.60628 -1.55103,1.10607 -2.68713,1.1269 -0.30669,1.65295 4.10961,3.31278 0.6918,3.13044 -2.87919,0.38992 1.87263,3.23452 -0.6451,4.42109 0.36763,2.21689 4.35571,0.78785 4.28179,2.19407 -0.37496,0.41122 -0.85514,0.71924 -1.16209,1.1908"
             style="fill:#008f4c;fill-opacity:1;fill-rule:evenodd;stroke:#000000;stroke-width:1.20144987;stroke-linecap:round;stroke-linejoin:round;stroke-miterlimit:4;stroke-opacity:1;stroke-dasharray:none;display:inline" />
        </g>
        <g
           id="g3828"
           transform="translate(584.13849,-69.802276)">
          <path
             inkscape:connector-curvature="0"
             sodipodi:nodetypes="ccssc"
             id="path26696-7"
             d="m -329.08863,492.14985 -5.12566,-2.62646 c -0.93401,-1.56175 -1.34413,-3.5064 0.34709,-5.05827 1.10344,-1.01265 3.50286,-0.49395 5.28076,0.51144 3.55728,2.01184 2.8578,8.07735 -0.50219,7.17329 z"
             style="fill:#ed1c24;fill-rule:evenodd;stroke:#000000;stroke-width:1;stroke-linecap:round;stroke-linejoin:round;stroke-miterlimit:4;stroke-opacity:1;stroke-dasharray:none" />
          <path
             inkscape:connector-curvature="0"
             sodipodi:nodetypes="cssssccssccc"
             id="path26698-4"
             d="m -319.96146,503.10719 c 2.92773,-1.66069 7.17924,-3.85629 9.37763,-6.05277 1.66177,-1.66037 2.57312,-3.65348 8.29837,-3.20786 3.59602,0.27988 6.6014,0.55772 9.14293,-0.0568 1.30605,-0.31581 2.79854,-0.88055 3.37112,-1.94216 1.51142,-2.80818 -1.58457,-3.89223 -3.81159,-1.90069 -2.23376,-0.11066 -3.79451,-0.1548 -5.63461,0.0554 -1.17121,0.21991 -3.84908,-0.32837 -5.80325,-1.30192 -1.75714,-0.87543 -4.41536,-0.4509 -5.2346,1.88506 -0.33868,0.96585 -1.71028,2.7555 -1.71028,2.7555 -3.66111,1.20467 -9.22431,2.16696 -13.06899,2.83364 z"
             style="fill:#ed1c24;fill-rule:evenodd;stroke:#000000;stroke-width:1;stroke-linecap:round;stroke-linejoin:round;stroke-miterlimit:4;stroke-opacity:1;stroke-dasharray:none" />
          <path
             inkscape:connector-curvature="0"
             sodipodi:nodetypes="ccccssccc"
             id="path26700-0"
             d="m -397.88666,520.57384 8.19137,-7.40727 -2.52585,-0.83418 c -2.36454,1.30554 -4.65639,2.13913 -7.15818,3.07706 -3.4629,-0.82203 -8.09042,-1.68905 -10.68625,-0.91515 -0.72962,0.21754 -1.31314,0.82182 -2.01661,1.13197 -1.90724,0.84086 -1.81807,4.17662 1.08131,2.49253 2.01488,0.18767 4.03629,1.11609 6.17312,0.0538 0.96464,1.15338 4.53221,1.56153 6.94109,2.40138 z"
             style="fill:#ed1c24;fill-rule:evenodd;stroke:#000000;stroke-width:1;stroke-linecap:round;stroke-linejoin:round;stroke-miterlimit:4;stroke-opacity:1;stroke-dasharray:none" />
          <path
             inkscape:connector-curvature="0"
             sodipodi:nodetypes="csscscssccccsccsssscccscsssccsssccsscssscsccc"
             id="path26702-9"
             d="m -389.44042,504.61841 c -0.6032,0.6091 -2.9108,5.29321 -3.74625,8.04217 -0.51557,1.69658 -1.85989,2.84212 -2.85657,3.49991 -1.80224,1.18929 -6.49426,4.45825 -7.14182,4.93128 -2.84733,1.01227 -6.52522,1.89968 -9.0867,3.73428 -1.34927,0.96641 -2.4387,3.4229 2.98891,2.6674 0.64403,0.34728 3.72819,0.0951 6.95978,-2.17448 1.80334,-1.26661 4.93353,-2.51546 6.99701,-2.79258 5.95117,-0.79897 8.39682,-3.54481 10.10401,-6.50117 0.72651,-0.46039 1.42849,-1.11128 2.0987,-1.63889 1.79345,-1.34398 3.2621,-2.92094 4.6831,-4.57091 -1.40727,1.64033 -2.88527,3.227 -4.6831,4.57091 5.75259,8.92425 29.4306,4.37108 39.26763,-4.49447 4.1717,-3.75977 5.57019,-1.52014 8.16804,0.0308 -2.60301,-1.54332 -5.77924,-4.15103 -9.02558,-5.25592 3.25656,1.1148 6.42158,3.70412 9.02558,5.25592 4.00591,2.38766 16.86626,4.68168 23.32379,-2.28554 3.49946,-3.77575 4.27569,-3.0334 5.44321,-2.77188 4.15903,0.93167 8.09739,1.62929 12.12112,2.25446 5.05818,0.78588 7.81135,-7.10562 2.71229,-4.47384 -1.69699,-0.0409 -3.39469,-0.0814 -5.35204,-0.007 -1.74414,-0.58323 -3.46119,-1.35648 -5.73404,-1.29176 -2.45086,-1.44598 -3.19764,-2.27592 -3.90505,-2.51285 -2.4351,-0.81557 -3.73714,0.9655 -5.13803,3.74498 -6.53386,1.67596 -8.33388,-0.98885 -11.07702,-5.48208 -4.11092,-6.73353 -10.14194,-13.68842 -23.34091,-7.7323 -7.15926,3.23065 -12.23707,10.27799 -24.15566,5.76018 -2.33939,-0.88676 -4.6161,-1.83859 -7.46079,-2.20121 -1.65133,-1.49376 -1.54526,-2.5194 -7.08523,-3.57945 6.15473,1.21904 12.95463,3.27529 18.44945,0.3077 2.97594,-1.6072 3.235,-3.44107 -0.79115,-4.42361 -2.27449,-0.55506 -4.55154,-0.79209 -6.88822,-0.55376 -3.825,0.39011 -6.6866,0.8412 -12.05849,1.59069 5.37783,-0.76019 8.22753,-1.19886 12.05849,-1.59069 1.47421,-0.50492 2.72009,-1.49851 4.06895,-2.67008 1.22723,-1.06586 2.2385,-2.98272 -0.70732,-3.28713 -7.10443,-0.73416 -14.80481,3.63005 -19.52706,6.42067 -6.92972,-1.26373 -7.87239,3.73182 -10.58226,6.26194 -0.80914,0.75535 -1.45725,1.66002 -1.75641,3.1752 -0.14596,0.73926 -0.40903,1.60908 -0.71631,2.24689 -0.52578,1.09173 0.007,1.90444 0.98107,2.17594 1.35425,3.87738 5.3562,3.73873 6.50704,1.74723 0.47089,-0.81494 1.03555,-1.79286 0.0956,-3.12721 0.93435,1.3388 0.38645,2.31084 -0.0956,3.12721 2.42094,1.30755 4.59047,3.12879 6.85784,3.87389 z"
             style="fill:#ed1c24;fill-rule:nonzero;stroke:#000000;stroke-width:1;stroke-linecap:round;stroke-linejoin:round;stroke-miterlimit:4;stroke-opacity:1;stroke-dasharray:none" />
          <path
             inkscape:connector-curvature="0"
             id="path26704-4"
             d="m -402.8053,498.99761 1.33512,-1.15187"
             style="fill:none;stroke:#000000;stroke-width:1;stroke-linecap:round;stroke-linejoin:round;stroke-miterlimit:4;stroke-opacity:1;stroke-dasharray:none"
             sodipodi:nodetypes="cc" />
          <path
             inkscape:connector-curvature="0"
             sodipodi:nodetypes="cc"
             id="path26706-8"
             d="m -403.83889,496.81895 c -2.0363,-0.8742 -3.29295,-0.48632 -4.74943,-0.23895"
             style="fill:none;stroke:#000000;stroke-width:1;stroke-linecap:round;stroke-linejoin:round;stroke-miterlimit:4;stroke-opacity:1;stroke-dasharray:none" />
          <path
             inkscape:connector-curvature="0"
             sodipodi:nodetypes="cc"
             id="path26708-8"
             d="m -407.25935,492.98135 c 1.35704,0.12917 2.69914,0.36217 3.93576,1.31799"
             style="fill:none;stroke:#000000;stroke-width:1;stroke-linecap:round;stroke-linejoin:round;stroke-miterlimit:4;stroke-opacity:1;stroke-dasharray:none" />
          <path
             inkscape:connector-curvature="0"
             sodipodi:nodetypes="cc"
             id="path26710-2"
             d="m -400.32049,499.95124 c 0.80189,1.97118 1.03367,4.89902 0.53586,6.77772"
             style="fill:none;stroke:#000000;stroke-width:1;stroke-linecap:round;stroke-linejoin:round;stroke-miterlimit:4;stroke-opacity:1;stroke-dasharray:none" />
          <path
             inkscape:connector-curvature="0"
             sodipodi:nodetypes="cc"
             id="path26712-4"
             d="m -398.09002,499.30522 c 1.73584,2.58078 3.06366,6.50099 2.91662,9.9114"
             style="fill:none;stroke:#000000;stroke-width:1;stroke-linecap:round;stroke-linejoin:round;stroke-miterlimit:4;stroke-opacity:1;stroke-dasharray:none" />
          <path
             inkscape:connector-curvature="0"
             id="path26714-5"
             d="m -395.41117,492.80606 c -0.7671,0.33793 -1.56463,0.15984 -1.78141,-0.39795 -0.21678,-0.55775 0.22931,-1.28386 0.99646,-1.62185 0.76709,-0.33798 1.56465,-0.15985 1.78142,0.39792 0.2168,0.55783 -0.22934,1.28391 -0.99647,1.62188 z"
             style="fill:#000000;fill-rule:evenodd;stroke:#000000;stroke-width:1;stroke-linecap:round;stroke-linejoin:round;stroke-miterlimit:4;stroke-opacity:1"
             sodipodi:nodetypes="sssss" />
          <path
             sodipodi:nodetypes="ccc"
             inkscape:connector-curvature="0"
             id="path26716-5"
             d="m -380.89937,487.16118 c 5.70776,-0.56793 11.9643,-1.05531 12.51118,0.239 -1.17206,2.07151 -7.30562,1.44315 -12.13109,1.12257"
             style="fill:none;stroke:#000000;stroke-width:1px;stroke-linecap:round;stroke-linejoin:round;stroke-opacity:1" />
        </g>
      </g>
      <g
         transform="translate(735.30759,-11.461616)"
         id="g3620"
         style="display:inline">
        <path
           sodipodi:nodetypes="ccccccc"
           id="path3752-1"
           d="m -373.35279,33.0375 c 0,6.175641 -2.07914,9.973 -6.49651,12.233076 l 0,22.606365 39.08343,0 0,-22.606365 c -4.41738,-2.260076 -6.47042,-6.057435 -6.47042,-12.233076 z"
           style="fill:#ed1c24;stroke:#000000;stroke-width:1;stroke-linecap:round;stroke-linejoin:round;stroke-miterlimit:4;stroke-opacity:1;stroke-dasharray:none"
           inkscape:connector-curvature="0" />
        <path
           style="fill:#ed1c24;stroke:#000000;stroke-width:1;stroke-linecap:round;stroke-linejoin:round;stroke-miterlimit:4;stroke-opacity:1;stroke-dasharray:none"
           d="m -396.27743,65.488878 71.93967,0 0,52.075292 -71.93967,0 z"
           id="path3750-7"
           inkscape:connector-curvature="0"
           sodipodi:nodetypes="ccccc" />
        <g
           style="display:inline"
           id="g7213"
           transform="matrix(0.83272782,0,0,0.83249858,2631.5874,-32.964752)">
          <path
             sodipodi:nodetypes="cccc"
             id="path6072"
             d="m -3530.598,147.94504 c -2.5367,4.26776 -6.8871,9.20175 -11.1363,12.26342 l -3.5132,-1.66944 c 6.6103,-2.55693 10.7902,-6.5311 14.6495,-10.59398 z"
             style="fill:#eac102;fill-opacity:1;stroke:#000000;stroke-width:1.20103788;stroke-linecap:round;stroke-linejoin:round;stroke-miterlimit:4;stroke-opacity:1;stroke-dasharray:none;display:inline"
             inkscape:connector-curvature="0" />
          <path
             inkscape:connector-curvature="0"
             style="fill:#eac102;fill-opacity:1;stroke:#000000;stroke-width:1.20103788;stroke-linecap:round;stroke-linejoin:round;stroke-miterlimit:4;stroke-opacity:1;stroke-dasharray:none;display:inline"
             d="m -3655.1712,147.94504 c 2.5366,4.26776 6.8871,9.20175 11.1363,12.26342 l 3.5132,-1.66944 c -6.6103,-2.55693 -10.7902,-6.5311 -14.6495,-10.59398 z"
             id="path6074"
             sodipodi:nodetypes="cccc" />
          <path
             sodipodi:nodetypes="sssssssssssssssscccccccsssssssssssssssszs"
             inkscape:connector-curvature="0"
             id="path6076"
             d="m -3591.486,139.53011 c -0.01,0.66302 -1e-4,3.07088 -1e-4,4.60626 0,7.54753 13.3521,10.95165 15.4503,0.0519 0.1224,-0.63615 0.7481,-1.04525 1.3955,-0.96694 0.6475,0.0783 1.1417,0.65398 1.1123,1.30098 -0.4646,10.22611 11.9178,8.79491 13.7937,0.50179 l 1.0976,-4.85232 c 0.1583,-0.69957 0.9774,-1.16787 1.6819,-1.01091 0.7046,0.15696 1.2382,0.92666 1.08,1.62623 l -1.0977,4.85232 c -1.8463,8.1622 5.809,11.01432 13.2157,0.94472 0.4037,-0.54882 1.2286,-0.74487 1.8081,-0.38332 0.5795,0.36155 0.6838,1.17699 0.3953,1.79325 -5.7688,12.32176 2.5484,5.88907 9.0741,-1.94151 0.4828,-0.57937 1.4399,-0.71227 2.0271,-0.23733 0.5872,0.47494 0.641,1.42559 0.1681,2.013 -12.1808,15.1309 -16.6289,9.70306 -15.8979,5.33578 -5.1294,4.11222 -11.44,3.74823 -13.4018,-2.3822 -4.5594,5.10859 -12.8061,5.28509 -15.7954,-1.02846 -4.9316,6.50187 -14.0184,4.73278 -17.5054,-0.72961 -3.487,5.46239 -12.5737,7.23148 -17.5053,0.72961 -2.9893,6.31355 -11.2361,6.13705 -15.7955,1.02846 -1.9619,6.13043 -8.2724,6.49442 -13.4018,2.3822 0.731,4.36728 -3.7171,9.79512 -15.898,-5.33578 -0.4729,-0.58741 -0.419,-1.53806 0.1682,-2.013 0.5872,-0.47494 1.5443,-0.34204 2.0271,0.23733 6.5257,7.83058 14.8429,14.26327 9.0741,1.94151 -0.2885,-0.61626 -0.1842,-1.4317 0.3953,-1.79325 0.5795,-0.36155 1.4044,-0.1655 1.8081,0.38332 7.4067,10.0696 15.062,7.21748 13.2157,-0.94472 l -1.0977,-4.85232 c -0.1582,-0.69957 0.3754,-1.46927 1.08,-1.62623 0.7045,-0.15696 1.5236,0.31134 1.6818,1.01091 l 1.0977,4.85232 c 1.8759,8.29312 14.2584,9.72432 13.7938,-0.50179 -0.029,-0.647 0.4649,-1.22269 1.1123,-1.30098 0.6474,-0.0783 1.2731,0.33079 1.3955,0.96694 2.0982,10.89971 15.45,7.49552 15.45,-0.052 0,-1.5354 0.01,-3.94318 1e-4,-4.60619 -0.01,-0.73642 0.657,-1.42406 1.3986,-1.42406 0.7416,0 1.4078,0.68764 1.3986,1.42406 z"
             style="font-size:medium;font-style:normal;font-variant:normal;font-weight:normal;font-stretch:normal;text-indent:0;text-align:start;text-decoration:none;line-height:normal;letter-spacing:normal;word-spacing:normal;text-transform:none;direction:ltr;block-progression:tb;writing-mode:lr-tb;text-anchor:start;baseline-shift:baseline;color:#000000;fill:#eac102;stroke:#000000;stroke-width:1.20103788;stroke-linecap:round;stroke-linejoin:round;stroke-miterlimit:4;stroke-opacity:1;stroke-dasharray:none;marker:none;visibility:visible;display:inline;overflow:visible;enable-background:accumulate;font-family:Sans;-inkscape-font-specification:Sans" />
          <path
             style="fill:#e3e4e5;fill-opacity:1;fill-rule:evenodd;stroke:#000000;stroke-width:1.20103788;stroke-linecap:round;stroke-linejoin:round;stroke-miterlimit:4;stroke-opacity:1"
             d="m -3627.3501,143.17391 c 0,2.52202 -2.063,4.56652 -4.6077,4.56652 -2.5447,0 -4.6076,-2.0445 -4.6076,-4.56652 0,-2.52202 2.0629,-4.56654 4.6076,-4.56654 2.5447,0 4.6077,2.04452 4.6077,4.56654 z"
             id="path6078"
             inkscape:connector-curvature="0" />
          <path
             inkscape:connector-curvature="0"
             id="path6080"
             d="m -3625.1429,135.70675 c 0,2.57954 -2.1099,4.67067 -4.7127,4.67067 -2.6028,0 -4.7127,-2.09113 -4.7127,-4.67067 0,-2.57954 2.1099,-4.67068 4.7127,-4.67068 2.6028,0 4.7127,2.09114 4.7127,4.67068 z"
             style="fill:#e3e4e5;fill-opacity:1;fill-rule:evenodd;stroke:#000000;stroke-width:1.20103788;stroke-linecap:round;stroke-linejoin:round;stroke-miterlimit:4;stroke-opacity:1" />
          <path
             style="fill:#e3e4e5;fill-opacity:1;fill-rule:evenodd;stroke:#000000;stroke-width:1.20103788;stroke-linecap:round;stroke-linejoin:round;stroke-miterlimit:4;stroke-opacity:1"
             d="m -3619.4256,141.53512 c 0,2.63705 -2.157,4.77482 -4.8178,4.77482 -2.6608,0 -4.8178,-2.13777 -4.8178,-4.77482 0,-2.63705 2.157,-4.77482 4.8178,-4.77482 2.6608,0 4.8178,2.13777 4.8178,4.77482 z"
             id="path6082"
             inkscape:connector-curvature="0" />
          <path
             sodipodi:nodetypes="ccccscc"
             id="path6084"
             d="m -3657.8782,143.81114 c -1.9455,-2.74623 -3.5588,-4.51924 -9.5064,-5.02867 2.0348,-3.04475 6.2724,-3.92608 9.0287,-1.14758 0.2607,-0.76049 0.4215,-1.00814 1.1503,-1.71061 0.6498,1.98294 3.5437,3.48087 2.3955,7.03152 l -1.1282,3.48917 z"
             style="fill:#eac102;stroke:#000000;stroke-width:1.20103788;stroke-linecap:round;stroke-linejoin:round;stroke-miterlimit:4;stroke-opacity:1;stroke-dasharray:none"
             inkscape:connector-curvature="0" />
          <path
             inkscape:connector-curvature="0"
             sodipodi:nodetypes="cccsccsccc"
             id="path6086"
             d="m -3646.7108,142.9301 c -0.4424,1.62275 -1.152,3.11622 -2.4466,3.79109 0.6909,0.54486 1.0039,1.34847 1.2529,2.37354 0,0 -2.9731,-0.23794 -4.2676,0.0563 -1.4782,0.33595 -2.6098,-0.29624 -2.8525,-0.53339 l -1.3951,-2.73986 c 1.073,-1.90482 1.2843,-2.95101 2.0883,-3.98787 0.8027,-1.03526 2.1155,-1.94461 3.0689,-2.75755 0.4184,0.95509 0.6575,1.78927 0.458,2.70223 1.3772,-0.4297 2.7993,0.19078 4.0937,1.09553 z"
             style="fill:#eac102;fill-opacity:1;stroke:#000000;stroke-width:1.20103776;stroke-linecap:round;stroke-linejoin:round;stroke-miterlimit:4;stroke-opacity:1;stroke-dasharray:none" />
          <path
             inkscape:connector-curvature="0"
             style="fill:none;stroke:#000000;stroke-width:1.20103788;stroke-linecap:round;stroke-linejoin:round;stroke-miterlimit:4;stroke-opacity:1;stroke-dasharray:none"
             d="m -3656.7324,145.37514 c -0.1733,-1.45198 0.329,-2.76192 0.2395,-3.92756 -0.1639,-2.13293 -0.8661,-2.83548 -0.7733,-3.95259"
             id="path6088"
             sodipodi:nodetypes="csc" />
          <path
             inkscape:connector-curvature="0"
             sodipodi:nodetypes="cc"
             id="path6090"
             d="m -3655.6872,147.12746 c 2.3134,-1.86196 4.4313,-2.20173 7.2162,-3.77447"
             style="fill:none;stroke:#000000;stroke-width:1.20103776;stroke-linecap:round;stroke-linejoin:round;stroke-miterlimit:4;stroke-opacity:1;stroke-dasharray:none" />
          <path
             sodipodi:nodetypes="csscc"
             inkscape:connector-curvature="0"
             id="path6096"
             d="m -3655.0246,148.61762 c -0.3755,0.18497 -0.7984,0.28893 -1.2457,0.28893 -1.553,0 -2.812,-1.2531 -2.812,-2.79889 0,-0.95072 0.4762,-1.79073 1.2043,-2.29656 1.5243,1.00114 2.6364,3.03539 2.8534,4.80652 z"
             style="fill:#ed1c24;fill-opacity:1;fill-rule:evenodd;stroke:#000000;stroke-width:1.201038;stroke-linecap:round;stroke-linejoin:round;stroke-miterlimit:4;stroke-opacity:1;stroke-dashoffset:0" />
          <path
             inkscape:connector-curvature="0"
             style="fill:#eac102;stroke:#000000;stroke-width:1.20103788;stroke-linecap:round;stroke-linejoin:round;stroke-miterlimit:4;stroke-opacity:1;stroke-dasharray:none"
             d="m -3583.86,136.4156 c 0.7339,-0.78109 0.7948,-1.65862 0.6553,-2.71963 -3.3991,1.40472 -4.8141,0.65443 -6.2453,2.00222 l -1.6775,1.57988 0,3.50389 1.6775,1.57989 c 1.4312,1.34778 2.8462,0.59749 6.2453,2.00223 0.1395,-1.06104 0.079,-1.93856 -0.6553,-2.71965 2.2023,-0.13137 3.9575,-1.26014 5.3891,-2.61444 -1.4316,-1.35421 -3.1868,-2.48299 -5.3891,-2.61439 z"
             id="path6098"
             sodipodi:nodetypes="ccsccscccc" />
          <path
             inkscape:connector-curvature="0"
             sodipodi:nodetypes="cc"
             style="fill:none;stroke:#000000;stroke-width:1.20103788;stroke-linecap:round;stroke-linejoin:round;stroke-miterlimit:4;stroke-opacity:1;stroke-dasharray:none"
             d="m -3590.3089,139.03003 9.8031,0"
             id="path6100" />
          <path
             sodipodi:nodetypes="ccsccscccc"
             id="path6106"
             d="m -3601.9092,136.4156 c -0.734,-0.78109 -0.7949,-1.65862 -0.6553,-2.71963 3.3991,1.40472 4.8141,0.65443 6.2452,2.00222 l 1.6776,1.57988 0,3.50389 -1.6776,1.57989 c -1.4311,1.34778 -2.8461,0.59749 -6.2452,2.00223 -0.1396,-1.06104 -0.079,-1.93856 0.6553,-2.71965 -2.2024,-0.13137 -3.9575,-1.26014 -5.3891,-2.61444 1.4316,-1.35421 3.1867,-2.48299 5.3891,-2.61439 z"
             style="fill:#eac102;stroke:#000000;stroke-width:1.20103788;stroke-linecap:round;stroke-linejoin:round;stroke-miterlimit:4;stroke-opacity:1;stroke-dasharray:none"
             inkscape:connector-curvature="0" />
          <path
             id="path6108"
             d="m -3595.4603,139.03003 -9.8031,0"
             style="fill:none;stroke:#000000;stroke-width:1.20103788;stroke-linecap:round;stroke-linejoin:round;stroke-miterlimit:4;stroke-opacity:1;stroke-dasharray:none"
             sodipodi:nodetypes="cc"
             inkscape:connector-curvature="0" />
          <path
             inkscape:connector-curvature="0"
             style="fill:#eac102;stroke:#000000;stroke-width:1.20103788;stroke-linecap:round;stroke-linejoin:round;stroke-miterlimit:4;stroke-opacity:1;stroke-dasharray:none"
             d="m -3590.2579,130.04763 c 0.7847,-0.73053 1.6664,-0.79113 2.7324,-0.65225 -1.4113,3.38323 -0.6575,4.79163 -2.0116,6.21606 l -1.5874,1.66975 -3.5203,0 -1.5873,-1.66975 c -1.3541,-1.42443 -0.6003,-2.83283 -2.0117,-6.21606 1.0661,-0.13888 1.9477,-0.0783 2.7325,0.65225 0.132,-2.19208 1.266,-3.93897 2.6267,-5.3639 1.3606,1.42493 2.4947,3.17182 2.6267,5.3639 z"
             id="path6114"
             sodipodi:nodetypes="ccsccscccc" />
          <path
             inkscape:connector-curvature="0"
             sodipodi:nodetypes="cc"
             style="fill:none;stroke:#000000;stroke-width:1.20103788;stroke-linecap:round;stroke-linejoin:round;stroke-miterlimit:4;stroke-opacity:1;stroke-dasharray:none"
             d="m -3592.8846,136.4664 0,-9.75725"
             id="path6116" />
          <path
             inkscape:connector-curvature="0"
             id="path6122"
             d="m -3592.8846,136.18896 c 1.5764,0 2.8544,1.27198 2.8544,2.84107 0,1.56908 -1.278,2.84107 -2.8544,2.84107 -1.5765,0 -2.8544,-1.27199 -2.8544,-2.84107 0,-1.56909 1.2779,-2.84107 2.8544,-2.84107 z"
             style="fill:#ed1c24;fill-opacity:1;fill-rule:evenodd;stroke:#000000;stroke-width:1.201038;stroke-linecap:round;stroke-linejoin:round;stroke-miterlimit:4;stroke-opacity:1;stroke-dashoffset:0" />
          <path
             inkscape:connector-curvature="0"
             style="fill:#eac102;stroke:#000000;stroke-width:1.20103788;stroke-linecap:round;stroke-linejoin:round;stroke-miterlimit:4;stroke-opacity:1;stroke-dasharray:none"
             d="m -3527.891,143.81114 c 1.9454,-2.74623 3.5588,-4.51924 9.5064,-5.02867 -2.0348,-3.04475 -6.2724,-3.92608 -9.0287,-1.14758 -0.2608,-0.76049 -0.4215,-1.00814 -1.1503,-1.71061 -0.6498,1.98294 -3.5437,3.48087 -2.3955,7.03152 l 1.1282,3.48917 z"
             id="path6124"
             sodipodi:nodetypes="ccccscc" />
          <path
             sodipodi:nodetypes="csc"
             id="path6126"
             d="m -3529.0368,145.37514 c 0.1733,-1.45198 -0.329,-2.76192 -0.2395,-3.92756 0.1639,-2.13293 0.8661,-2.83548 0.7733,-3.95259"
             style="fill:none;stroke:#000000;stroke-width:1.20103788;stroke-linecap:round;stroke-linejoin:round;stroke-miterlimit:4;stroke-opacity:1;stroke-dasharray:none"
             inkscape:connector-curvature="0" />
          <path
             style="fill:#eac102;fill-opacity:1;stroke:#000000;stroke-width:1.20103776;stroke-linecap:round;stroke-linejoin:round;stroke-miterlimit:4;stroke-opacity:1;stroke-dasharray:none"
             d="m -3539.0584,142.9301 c 0.4424,1.62275 1.152,3.11622 2.4466,3.79109 -0.6909,0.54486 -1.0039,1.34847 -1.2529,2.37354 0,0 2.9731,-0.23794 4.2676,0.0563 1.4782,0.33595 2.6098,-0.29624 2.8525,-0.53339 l 1.3951,-2.73986 c -1.073,-1.90482 -1.2843,-2.95101 -2.0883,-3.98787 -0.8027,-1.03526 -2.1155,-1.94461 -3.0689,-2.75755 -0.4184,0.95509 -0.6575,1.78927 -0.458,2.70223 -1.3772,-0.4297 -2.7994,0.19078 -4.0937,1.09553 z"
             id="path6128"
             sodipodi:nodetypes="cccsccsccc"
             inkscape:connector-curvature="0" />
          <path
             style="fill:none;stroke:#000000;stroke-width:1.20103776;stroke-linecap:round;stroke-linejoin:round;stroke-miterlimit:4;stroke-opacity:1;stroke-dasharray:none"
             d="m -3530.082,147.12746 c -2.3134,-1.86196 -4.4313,-2.20173 -7.2162,-3.77447"
             id="path6130"
             sodipodi:nodetypes="cc"
             inkscape:connector-curvature="0" />
          <path
             style="fill:#ed1c24;fill-opacity:1;fill-rule:evenodd;stroke:#000000;stroke-width:1.201038;stroke-linecap:round;stroke-linejoin:round;stroke-miterlimit:4;stroke-opacity:1;stroke-dashoffset:0"
             d="m -3530.7446,148.61762 c 0.3755,0.18497 0.7983,0.28893 1.2457,0.28893 1.553,0 2.812,-1.2531 2.812,-2.79889 0,-0.95072 -0.4763,-1.79073 -1.2042,-2.29656 -1.5244,1.00114 -2.6365,3.03539 -2.8535,4.80652 z"
             id="path6136"
             inkscape:connector-curvature="0"
             sodipodi:nodetypes="csscc" />
          <path
             inkscape:connector-curvature="0"
             id="path6138"
             d="m -3558.4191,143.17391 c 0,2.52202 2.0629,4.56652 4.6076,4.56652 2.5448,0 4.6077,-2.0445 4.6077,-4.56652 0,-2.52202 -2.0629,-4.56654 -4.6077,-4.56654 -2.5447,0 -4.6076,2.04452 -4.6076,4.56654 z"
             style="fill:#e3e4e5;fill-opacity:1;fill-rule:evenodd;stroke:#000000;stroke-width:1.20103788;stroke-linecap:round;stroke-linejoin:round;stroke-miterlimit:4;stroke-opacity:1" />
          <path
             style="fill:#e3e4e5;fill-opacity:1;fill-rule:evenodd;stroke:#000000;stroke-width:1.20103788;stroke-linecap:round;stroke-linejoin:round;stroke-miterlimit:4;stroke-opacity:1"
             d="m -3560.6264,135.70675 c 0,2.57954 2.11,4.67067 4.7127,4.67067 2.6028,0 4.7128,-2.09113 4.7128,-4.67067 0,-2.57954 -2.11,-4.67068 -4.7128,-4.67068 -2.6027,0 -4.7127,2.09114 -4.7127,4.67068 z"
             id="path6140"
             inkscape:connector-curvature="0" />
          <path
             inkscape:connector-curvature="0"
             id="path6142"
             d="m -3566.3436,141.53512 c 0,2.63705 2.157,4.77482 4.8178,4.77482 2.6608,0 4.8178,-2.13777 4.8178,-4.77482 0,-2.63705 -2.157,-4.77482 -4.8178,-4.77482 -2.6608,0 -4.8178,2.13777 -4.8178,4.77482 z"
             style="fill:#e3e4e5;fill-opacity:1;fill-rule:evenodd;stroke:#000000;stroke-width:1.20103788;stroke-linecap:round;stroke-linejoin:round;stroke-miterlimit:4;stroke-opacity:1" />
          <path
             sodipodi:nodetypes="zzzzz"
             style="font-size:medium;font-style:normal;font-variant:normal;font-weight:normal;font-stretch:normal;text-indent:0;text-align:start;text-decoration:none;line-height:normal;letter-spacing:normal;word-spacing:normal;text-transform:none;direction:ltr;block-progression:tb;writing-mode:lr-tb;text-anchor:start;color:#000000;fill:#eac102;stroke:#000000;stroke-width:1.20103788;stroke-linecap:round;stroke-linejoin:round;stroke-miterlimit:4;stroke-opacity:1;stroke-dasharray:none;marker:none;visibility:visible;display:inline;overflow:visible;enable-background:accumulate;font-family:Bitstream Vera Sans;-inkscape-font-specification:Bitstream Vera Sans"
             d="m -3641.1965,172.43679 c 0,1.93807 10.5919,5.87895 48.3119,5.87895 37.72,0 48.3119,-3.94088 48.3119,-5.87895 0,-1.93806 -10.5919,-5.87895 -48.3119,-5.87895 -37.72,0 -48.3119,3.94089 -48.3119,5.87895 z"
             id="path6148"
             inkscape:connector-curvature="0" />
          <path
             inkscape:connector-curvature="0"
             id="path6996-3-1"
             d="m -3635.5134,169.83083 0,5.21191"
             style="fill:none;stroke:#000000;stroke-width:1.87982953;stroke-linecap:round;stroke-linejoin:round;stroke-miterlimit:4;stroke-opacity:1;stroke-dasharray:none"
             sodipodi:nodetypes="cc" />
          <path
             inkscape:connector-curvature="0"
             style="fill:none;stroke:#000000;stroke-width:1.79438281;stroke-linecap:round;stroke-linejoin:round;stroke-miterlimit:4;stroke-opacity:1;stroke-dasharray:none"
             d="m -3633.6788,169.40781 0,6.05796"
             id="path7000-8-2"
             sodipodi:nodetypes="cc" />
          <path
             inkscape:connector-curvature="0"
             id="path7002-7-3"
             d="m -3631.8443,169.1302 0,6.61318"
             style="fill:none;stroke:#000000;stroke-width:1.70893598;stroke-linecap:round;stroke-linejoin:round;stroke-miterlimit:4;stroke-opacity:1;stroke-dasharray:none"
             sodipodi:nodetypes="cc" />
          <path
             inkscape:connector-curvature="0"
             style="fill:none;stroke:#000000;stroke-width:1.62348926;stroke-linecap:round;stroke-linejoin:round;stroke-miterlimit:4;stroke-opacity:1;stroke-dasharray:none"
             d="m -3630.0097,168.78649 0,7.30059"
             id="path7004-4-3"
             sodipodi:nodetypes="cc" />
          <path
             inkscape:connector-curvature="0"
             style="fill:none;stroke:#000000;stroke-width:1.53804231;stroke-linecap:round;stroke-linejoin:round;stroke-miterlimit:4;stroke-opacity:1;stroke-dasharray:none"
             d="m -3628.1751,168.48244 0,7.90869"
             id="path7006-2-4"
             sodipodi:nodetypes="cc" />
          <path
             inkscape:connector-curvature="0"
             id="path7008-7-1"
             d="m -3626.3405,168.21805 0,8.43747"
             style="fill:none;stroke:#000000;stroke-width:1.45259559;stroke-linecap:round;stroke-linejoin:round;stroke-miterlimit:4;stroke-opacity:1;stroke-dasharray:none"
             sodipodi:nodetypes="cc" />
          <path
             inkscape:connector-curvature="0"
             id="path7010-7-1"
             d="m -3624.506,167.95366 0,8.96625"
             style="fill:none;stroke:#000000;stroke-width:1.367149;stroke-linecap:round;stroke-linejoin:round;stroke-miterlimit:4;stroke-opacity:1;stroke-dasharray:none"
             sodipodi:nodetypes="cc" />
          <path
             inkscape:connector-curvature="0"
             style="fill:none;stroke:#000000;stroke-width:1.28170192;stroke-linecap:round;stroke-linejoin:round;stroke-miterlimit:4;stroke-opacity:1;stroke-dasharray:none"
             d="m -3622.6714,167.72893 0,9.41571"
             id="path7012-9-3"
             sodipodi:nodetypes="cc" />
          <path
             inkscape:connector-curvature="0"
             style="fill:none;stroke:#000000;stroke-width:1.19625533;stroke-linecap:round;stroke-linejoin:round;stroke-miterlimit:4;stroke-opacity:1;stroke-dasharray:none"
             d="m -3620.8368,167.58351 0,9.70655"
             id="path7014-3-8"
             sodipodi:nodetypes="cc" />
          <path
             inkscape:connector-curvature="0"
             id="path7016-1-7"
             d="m -3619.0023,167.41166 0,10.05025"
             style="fill:none;stroke:#000000;stroke-width:1.11080849;stroke-linecap:round;stroke-linejoin:round;stroke-miterlimit:4;stroke-opacity:1;stroke-dasharray:none"
             sodipodi:nodetypes="cc" />
          <path
             inkscape:connector-curvature="0"
             style="fill:none;stroke:#000000;stroke-width:1.02536166;stroke-linecap:round;stroke-linejoin:round;stroke-miterlimit:4;stroke-opacity:1;stroke-dasharray:none"
             d="m -3617.1677,167.14727 0,10.57903"
             id="path7018-9-4"
             sodipodi:nodetypes="cc" />
          <path
             inkscape:connector-curvature="0"
             id="path7020-8-2"
             d="m -3615.3331,167.00185 0,10.86987"
             style="fill:none;stroke:#000000;stroke-width:0.93991476;stroke-linecap:round;stroke-linejoin:round;stroke-miterlimit:4;stroke-opacity:1;stroke-dasharray:none"
             sodipodi:nodetypes="cc" />
          <path
             inkscape:connector-curvature="0"
             id="path7022-6-7"
             d="m -3613.4985,166.93576 0,11.00205"
             style="fill:none;stroke:#000000;stroke-width:0.85446799;stroke-linecap:round;stroke-linejoin:round;stroke-miterlimit:4;stroke-opacity:1;stroke-dasharray:none"
             sodipodi:nodetypes="cc" />
          <path
             inkscape:connector-curvature="0"
             style="fill:none;stroke:#000000;stroke-width:0.76902115;stroke-linecap:round;stroke-linejoin:round;stroke-miterlimit:4;stroke-opacity:1;stroke-dasharray:none"
             d="m -3611.664,166.77713 0,11.31932"
             id="path7024-5-7"
             sodipodi:nodetypes="cc" />
          <path
             inkscape:connector-curvature="0"
             id="path7026-0-9"
             d="m -3609.8294,166.64493 0,11.58371"
             style="fill:none;stroke:#000000;stroke-width:0.6835745;stroke-linecap:round;stroke-linejoin:round;stroke-miterlimit:4;stroke-opacity:1;stroke-dasharray:none"
             sodipodi:nodetypes="cc" />
          <path
             inkscape:connector-curvature="0"
             style="fill:none;stroke:#000000;stroke-width:0.59812766;stroke-linecap:round;stroke-linejoin:round;stroke-miterlimit:4;stroke-opacity:1;stroke-dasharray:none"
             d="m -3607.9948,166.56562 0,11.74234"
             id="path7028-2-3"
             sodipodi:nodetypes="cc" />
          <path
             inkscape:connector-curvature="0"
             style="fill:none;stroke:#000000;stroke-width:0.51268083;stroke-linecap:round;stroke-linejoin:round;stroke-miterlimit:4;stroke-opacity:1;stroke-dasharray:none"
             d="m -3606.1603,166.44664 0,11.9803"
             id="path7032-8-1"
             sodipodi:nodetypes="cc" />
          <path
             inkscape:connector-curvature="0"
             id="path7034-6-9"
             d="m -3604.3257,166.36732 0,12.13893"
             style="fill:none;stroke:#000000;stroke-width:0.42723399;stroke-linecap:round;stroke-linejoin:round;stroke-miterlimit:4;stroke-opacity:1;stroke-dasharray:none"
             sodipodi:nodetypes="cc" />
          <path
             inkscape:connector-curvature="0"
             style="fill:none;stroke:#000000;stroke-width:0.34178725px;stroke-linecap:round;stroke-linejoin:round;stroke-opacity:1"
             d="m -3602.4911,166.12933 0,12.61492"
             id="path7036-0-8" />
          <path
             inkscape:connector-curvature="0"
             id="path7038-2-6"
             d="m -3600.6566,166.12933 0,12.61492"
             style="fill:none;stroke:#000000;stroke-width:0.25634041;stroke-linecap:round;stroke-linejoin:round;stroke-miterlimit:4;stroke-opacity:1;stroke-dasharray:none" />
          <path
             inkscape:connector-curvature="0"
             id="path7040-4-5"
             d="m -3598.822,166.12933 0,12.61492"
             style="fill:none;stroke:#000000;stroke-width:0.17089362;stroke-linecap:round;stroke-linejoin:round;stroke-miterlimit:4;stroke-opacity:1;stroke-dasharray:none" />
          <path
             inkscape:connector-curvature="0"
             style="fill:none;stroke:#000000;stroke-width:0.08544681;stroke-linecap:round;stroke-linejoin:round;stroke-miterlimit:4;stroke-opacity:1;stroke-dasharray:none"
             d="m -3596.9874,166.12933 0,12.61492"
             id="path7042-8-0" />
          <path
             inkscape:connector-curvature="0"
             style="fill:none;stroke:#000000;stroke-width:2.05072331;stroke-linecap:round;stroke-linejoin:round;stroke-miterlimit:4;stroke-opacity:1;stroke-dasharray:none"
             d="m -3639.1826,171.08668 0,2.70021"
             id="path7044-6-2"
             sodipodi:nodetypes="cc" />
          <path
             inkscape:connector-curvature="0"
             style="fill:none;stroke:#000000;stroke-width:1.96527636;stroke-linecap:round;stroke-linejoin:round;stroke-miterlimit:4;stroke-opacity:1;stroke-dasharray:none"
             d="m -3637.348,170.41248 0,4.0486"
             id="path7046-5-8"
             sodipodi:nodetypes="cc" />
          <path
             sodipodi:nodetypes="cc"
             style="fill:none;stroke:#000000;stroke-width:1.87982953;stroke-linecap:round;stroke-linejoin:round;stroke-miterlimit:4;stroke-opacity:1;stroke-dasharray:none"
             d="m -3550.2558,169.83083 0,5.21191"
             id="path7048-0-6"
             inkscape:connector-curvature="0" />
          <path
             sodipodi:nodetypes="cc"
             id="path7050-9-0"
             d="m -3552.0904,169.40781 0,6.05796"
             style="fill:none;stroke:#000000;stroke-width:1.79438281;stroke-linecap:round;stroke-linejoin:round;stroke-miterlimit:4;stroke-opacity:1;stroke-dasharray:none"
             inkscape:connector-curvature="0" />
          <path
             sodipodi:nodetypes="cc"
             style="fill:none;stroke:#000000;stroke-width:1.70893598;stroke-linecap:round;stroke-linejoin:round;stroke-miterlimit:4;stroke-opacity:1;stroke-dasharray:none"
             d="m -3553.9249,169.1302 0,6.61318"
             id="path7052-0-2"
             inkscape:connector-curvature="0" />
          <path
             sodipodi:nodetypes="cc"
             id="path7054-0-4"
             d="m -3555.7595,168.78649 0,7.30059"
             style="fill:none;stroke:#000000;stroke-width:1.62348926;stroke-linecap:round;stroke-linejoin:round;stroke-miterlimit:4;stroke-opacity:1;stroke-dasharray:none"
             inkscape:connector-curvature="0" />
          <path
             sodipodi:nodetypes="cc"
             id="path7056-6-8"
             d="m -3557.5941,168.48244 0,7.90869"
             style="fill:none;stroke:#000000;stroke-width:1.53804231;stroke-linecap:round;stroke-linejoin:round;stroke-miterlimit:4;stroke-opacity:1;stroke-dasharray:none"
             inkscape:connector-curvature="0" />
          <path
             sodipodi:nodetypes="cc"
             style="fill:none;stroke:#000000;stroke-width:1.45259559;stroke-linecap:round;stroke-linejoin:round;stroke-miterlimit:4;stroke-opacity:1;stroke-dasharray:none"
             d="m -3559.4287,168.21805 0,8.43747"
             id="path7058-1-6"
             inkscape:connector-curvature="0" />
          <path
             sodipodi:nodetypes="cc"
             style="fill:none;stroke:#000000;stroke-width:1.367149;stroke-linecap:round;stroke-linejoin:round;stroke-miterlimit:4;stroke-opacity:1;stroke-dasharray:none"
             d="m -3561.2632,167.95366 0,8.96625"
             id="path7060-3-5"
             inkscape:connector-curvature="0" />
          <path
             sodipodi:nodetypes="cc"
             id="path7062-8-0"
             d="m -3563.0978,167.72893 0,9.41571"
             style="fill:none;stroke:#000000;stroke-width:1.28170192;stroke-linecap:round;stroke-linejoin:round;stroke-miterlimit:4;stroke-opacity:1;stroke-dasharray:none"
             inkscape:connector-curvature="0" />
          <path
             sodipodi:nodetypes="cc"
             id="path7064-9-9"
             d="m -3564.9323,167.58351 0,9.70655"
             style="fill:none;stroke:#000000;stroke-width:1.19625533;stroke-linecap:round;stroke-linejoin:round;stroke-miterlimit:4;stroke-opacity:1;stroke-dasharray:none"
             inkscape:connector-curvature="0" />
          <path
             sodipodi:nodetypes="cc"
             style="fill:none;stroke:#000000;stroke-width:1.11080849;stroke-linecap:round;stroke-linejoin:round;stroke-miterlimit:4;stroke-opacity:1;stroke-dasharray:none"
             d="m -3566.767,167.41166 0,10.05025"
             id="path7066-3-0"
             inkscape:connector-curvature="0" />
          <path
             sodipodi:nodetypes="cc"
             id="path7068-4-0"
             d="m -3568.6015,167.14727 0,10.57903"
             style="fill:none;stroke:#000000;stroke-width:1.02536166;stroke-linecap:round;stroke-linejoin:round;stroke-miterlimit:4;stroke-opacity:1;stroke-dasharray:none"
             inkscape:connector-curvature="0" />
          <path
             sodipodi:nodetypes="cc"
             style="fill:none;stroke:#000000;stroke-width:0.93991476;stroke-linecap:round;stroke-linejoin:round;stroke-miterlimit:4;stroke-opacity:1;stroke-dasharray:none"
             d="m -3570.4361,167.00185 0,10.86987"
             id="path7070-4-6"
             inkscape:connector-curvature="0" />
          <path
             sodipodi:nodetypes="cc"
             style="fill:none;stroke:#000000;stroke-width:0.85446799;stroke-linecap:round;stroke-linejoin:round;stroke-miterlimit:4;stroke-opacity:1;stroke-dasharray:none"
             d="m -3572.2706,166.93576 0,11.00205"
             id="path7072-6-1"
             inkscape:connector-curvature="0" />
          <path
             sodipodi:nodetypes="cc"
             id="path7074-0-3"
             d="m -3574.1052,166.77713 0,11.31932"
             style="fill:none;stroke:#000000;stroke-width:0.76902115;stroke-linecap:round;stroke-linejoin:round;stroke-miterlimit:4;stroke-opacity:1;stroke-dasharray:none"
             inkscape:connector-curvature="0" />
          <path
             sodipodi:nodetypes="cc"
             style="fill:none;stroke:#000000;stroke-width:0.6835745;stroke-linecap:round;stroke-linejoin:round;stroke-miterlimit:4;stroke-opacity:1;stroke-dasharray:none"
             d="m -3575.9398,166.64493 0,11.58371"
             id="path7076-6-8"
             inkscape:connector-curvature="0" />
          <path
             sodipodi:nodetypes="cc"
             id="path7078-6-9"
             d="m -3577.7744,166.56562 0,11.74234"
             style="fill:none;stroke:#000000;stroke-width:0.59812766;stroke-linecap:round;stroke-linejoin:round;stroke-miterlimit:4;stroke-opacity:1;stroke-dasharray:none"
             inkscape:connector-curvature="0" />
          <path
             sodipodi:nodetypes="cc"
             id="path7080-1-3"
             d="m -3579.609,166.44664 0,11.9803"
             style="fill:none;stroke:#000000;stroke-width:0.51268083;stroke-linecap:round;stroke-linejoin:round;stroke-miterlimit:4;stroke-opacity:1;stroke-dasharray:none"
             inkscape:connector-curvature="0" />
          <path
             sodipodi:nodetypes="cc"
             style="fill:none;stroke:#000000;stroke-width:0.42723399;stroke-linecap:round;stroke-linejoin:round;stroke-miterlimit:4;stroke-opacity:1;stroke-dasharray:none"
             d="m -3581.4435,166.36732 0,12.13893"
             id="path7082-8-4"
             inkscape:connector-curvature="0" />
          <path
             id="path7084-4-4"
             d="m -3583.2781,166.12933 0,12.61492"
             style="fill:none;stroke:#000000;stroke-width:0.34178725px;stroke-linecap:round;stroke-linejoin:round;stroke-opacity:1"
             inkscape:connector-curvature="0" />
          <path
             style="fill:none;stroke:#000000;stroke-width:0.25634041;stroke-linecap:round;stroke-linejoin:round;stroke-miterlimit:4;stroke-opacity:1;stroke-dasharray:none"
             d="m -3585.1127,166.12933 0,12.61492"
             id="path7086-9-6"
             inkscape:connector-curvature="0" />
          <path
             style="fill:none;stroke:#000000;stroke-width:0.17089362;stroke-linecap:round;stroke-linejoin:round;stroke-miterlimit:4;stroke-opacity:1;stroke-dasharray:none"
             d="m -3586.9472,166.12933 0,12.61492"
             id="path7088-6-0"
             inkscape:connector-curvature="0" />
          <path
             id="path7090-3-6"
             d="m -3588.7818,166.12933 0,12.61492"
             style="fill:none;stroke:#000000;stroke-width:0.08544681;stroke-linecap:round;stroke-linejoin:round;stroke-miterlimit:4;stroke-opacity:1;stroke-dasharray:none"
             inkscape:connector-curvature="0" />
          <path
             sodipodi:nodetypes="cc"
             id="path7092-7-6"
             d="m -3546.5866,171.08668 0,2.70021"
             style="fill:none;stroke:#000000;stroke-width:2.05072331;stroke-linecap:round;stroke-linejoin:round;stroke-miterlimit:4;stroke-opacity:1;stroke-dasharray:none"
             inkscape:connector-curvature="0" />
          <path
             sodipodi:nodetypes="cc"
             id="path7094-8-1"
             d="m -3548.4212,170.41248 0,4.0486"
             style="fill:none;stroke:#000000;stroke-width:1.96527636;stroke-linecap:round;stroke-linejoin:round;stroke-miterlimit:4;stroke-opacity:1;stroke-dasharray:none"
             inkscape:connector-curvature="0" />
          <path
             inkscape:connector-curvature="0"
             d="m -3538.8747,161.32631 c 0,2.89857 -6.8285,4.77086 -16.112,5.95706 l -75.7958,0 c -9.2835,-1.1862 -16.112,-3.05849 -16.112,-5.95706 0,-6.53521 34.7116,-7.85357 54.0099,-7.85357 19.2983,0 54.0099,1.31836 54.0099,7.85357 z m -104.7069,0 c 0,0.63948 11.6259,5.04237 50.697,5.04237 39.0711,0 50.697,-4.40289 50.697,-5.04237 0,-0.63951 -11.6259,-5.04241 -50.697,-5.04241 -39.0711,0 -50.697,4.4029 -50.697,5.04241 z"
             style="font-size:medium;font-style:normal;font-variant:normal;font-weight:normal;font-stretch:normal;text-indent:0;text-align:start;text-decoration:none;line-height:normal;letter-spacing:normal;word-spacing:normal;text-transform:none;direction:ltr;block-progression:tb;writing-mode:lr-tb;text-anchor:start;color:#000000;fill:#eac102;stroke:#000000;stroke-width:1.20103788;stroke-linecap:round;stroke-linejoin:round;stroke-miterlimit:4;stroke-opacity:1;stroke-dasharray:none;marker:none;visibility:visible;display:inline;overflow:visible;enable-background:accumulate;font-family:Bitstream Vera Sans;-inkscape-font-specification:Bitstream Vera Sans"
             id="path6246" />
          <path
             inkscape:connector-curvature="0"
             style="font-size:medium;font-style:normal;font-variant:normal;font-weight:normal;font-stretch:normal;text-indent:0;text-align:start;text-decoration:none;line-height:normal;letter-spacing:normal;word-spacing:normal;text-transform:none;direction:ltr;block-progression:tb;writing-mode:lr-tb;text-anchor:start;color:#000000;fill:#eac102;stroke:#000000;stroke-width:1.20103788;stroke-linecap:round;stroke-linejoin:round;stroke-miterlimit:4;stroke-opacity:1;stroke-dasharray:none;marker:none;visibility:visible;display:inline;overflow:visible;enable-background:accumulate;font-family:Bitstream Vera Sans;-inkscape-font-specification:Bitstream Vera Sans"
             d="m -3564.1435,167.28256 19.1768,4.15913 c 0.7172,-3.43526 1.8384,-6.39237 3.648,-9.5144 0,-2.64316 -20.6953,-5.8656 -51.5659,-5.8656 -30.8706,0 -51.5659,3.22244 -51.5659,5.8656 1.8096,3.12203 2.9308,6.07914 3.648,9.5144 l 19.1768,-4.15913 z"
             id="path6248"
             sodipodi:nodetypes="ccczcccc" />
          <path
             sodipodi:nodetypes="sssssss"
             inkscape:connector-curvature="0"
             style="fill:#008f4c;fill-opacity:1;fill-rule:evenodd;stroke:#000000;stroke-width:1.20103788;stroke-linecap:round;stroke-linejoin:round;stroke-miterlimit:4;stroke-opacity:1;stroke-dasharray:none"
             d="m -3626.8155,160.47851 9.928,-0.94163 c 0.9961,-0.0945 1.8747,0.62742 1.97,1.6186 0.095,0.99117 -0.6298,1.86518 -1.6259,1.95966 l -9.928,0.94164 c -0.9961,0.0945 -1.8747,-0.62743 -1.97,-1.6186 -0.095,-0.99118 0.6298,-1.86519 1.6259,-1.95967 z"
             id="path6252" />
          <path
             inkscape:connector-curvature="0"
             sodipodi:nodetypes="cssss"
             id="path6254"
             d="m -3632.0722,163.2577 c 0,1.20771 -0.9858,2.18676 -2.2018,2.18676 -1.2161,0 -2.2019,-0.97905 -2.2019,-2.18676 0,-1.20772 0.9858,-2.18677 2.2019,-2.18677 1.216,0 2.2018,0.97905 2.2018,2.18677 z"
             style="fill:#e3e4e5;stroke:#000000;stroke-width:1.20103788;stroke-linecap:round;stroke-linejoin:round;stroke-miterlimit:4;stroke-opacity:1;stroke-dasharray:none;display:inline" />
          <path
             inkscape:connector-curvature="0"
             style="fill:#e3e4e5;stroke:#000000;stroke-width:1.20103788;stroke-linecap:round;stroke-linejoin:round;stroke-miterlimit:4;stroke-opacity:1;stroke-dasharray:none;display:inline"
             d="m -3605.5842,160.88121 c 0,1.20771 -0.9858,2.18676 -2.2019,2.18676 -1.2161,0 -2.2019,-0.97905 -2.2019,-2.18676 0,-1.20772 0.9858,-2.18677 2.2019,-2.18677 1.2161,0 2.2019,0.97905 2.2019,2.18677 z"
             id="path6256"
             sodipodi:nodetypes="cssss" />
          <path
             sodipodi:nodetypes="ccccccc"
             inkscape:connector-curvature="0"
             style="fill:#ed1c24;stroke:#000000;stroke-width:1.20103788;stroke-linecap:round;stroke-linejoin:round;stroke-miterlimit:4;stroke-opacity:1;stroke-dasharray:none"
             d="m -3598.2879,158.67128 10.7784,0 2.8289,1.87384 -2.8289,1.87384 -10.7784,0 -2.8007,-1.87384 z"
             id="path6258" />
          <path
             sodipodi:nodetypes="ccccc"
             inkscape:connector-curvature="0"
             id="path6266"
             d="m -3644.072,166.44061 0.7427,-2.40259 3.9759,0.53924 -2.4175,3.20072 z"
             style="fill:#ed1c24;stroke:#000000;stroke-width:1.20103788;stroke-linecap:round;stroke-linejoin:round;stroke-miterlimit:4;stroke-opacity:1;stroke-dasharray:none" />
          <path
             id="path6270"
             d="m -3558.9537,160.47851 -9.928,-0.94163 c -0.9961,-0.0945 -1.8747,0.62742 -1.97,1.6186 -0.095,0.99117 0.6298,1.86518 1.6259,1.95966 l 9.928,0.94164 c 0.996,0.0945 1.8747,-0.62743 1.97,-1.6186 0.095,-0.99118 -0.6298,-1.86519 -1.6259,-1.95967 z"
             style="fill:#008f4c;fill-opacity:1;fill-rule:evenodd;stroke:#000000;stroke-width:1.20103788;stroke-linecap:round;stroke-linejoin:round;stroke-miterlimit:4;stroke-opacity:1;stroke-dasharray:none"
             inkscape:connector-curvature="0"
             sodipodi:nodetypes="sssssss" />
          <path
             style="fill:#e3e4e5;stroke:#000000;stroke-width:1.20103788;stroke-linecap:round;stroke-linejoin:round;stroke-miterlimit:4;stroke-opacity:1;stroke-dasharray:none;display:inline"
             d="m -3553.697,163.2577 c 0,1.20771 0.9858,2.18676 2.2018,2.18676 1.2161,0 2.2019,-0.97905 2.2019,-2.18676 0,-1.20772 -0.9858,-2.18677 -2.2019,-2.18677 -1.216,0 -2.2018,0.97905 -2.2018,2.18677 z"
             id="path6272"
             sodipodi:nodetypes="cssss"
             inkscape:connector-curvature="0" />
          <path
             sodipodi:nodetypes="cssss"
             id="path6274"
             d="m -3580.185,160.88121 c 0,1.20771 0.9858,2.18676 2.2019,2.18676 1.2161,0 2.2019,-0.97905 2.2019,-2.18676 0,-1.20772 -0.9858,-2.18677 -2.2019,-2.18677 -1.2161,0 -2.2019,0.97905 -2.2019,2.18677 z"
             style="fill:#e3e4e5;stroke:#000000;stroke-width:1.20103788;stroke-linecap:round;stroke-linejoin:round;stroke-miterlimit:4;stroke-opacity:1;stroke-dasharray:none;display:inline"
             inkscape:connector-curvature="0" />
          <path
             style="fill:#ed1c24;stroke:#000000;stroke-width:1.20103788;stroke-linecap:round;stroke-linejoin:round;stroke-miterlimit:4;stroke-opacity:1;stroke-dasharray:none"
             d="m -3541.6972,166.44061 -0.7427,-2.40259 -3.9759,0.53924 2.4175,3.20072 z"
             id="path6276"
             inkscape:connector-curvature="0"
             sodipodi:nodetypes="ccccc" />
          <path
             sodipodi:nodetypes="ssssssssss"
             inkscape:connector-curvature="0"
             d="m -3639.6345,172.43679 c 0,-0.6038 10.948,-4.6439 46.7499,-4.6439 35.8019,0 46.7499,4.0401 46.7499,4.6439 0,0.60381 -10.948,4.64391 -46.7499,4.64391 -35.8019,0 -46.7499,-4.0401 -46.7499,-4.64391 z m -3.0549,0 c 0,-6.16281 33.2742,-7.23286 49.8048,-7.23286 16.5306,0 49.8048,1.07005 49.8048,7.23286 0,6.16282 -33.2742,7.23287 -49.8048,7.23287 -16.5306,0 -49.8048,-1.07005 -49.8048,-7.23287 z"
             style="font-size:medium;font-style:normal;font-variant:normal;font-weight:normal;font-stretch:normal;text-indent:0;text-align:start;text-decoration:none;line-height:normal;letter-spacing:normal;word-spacing:normal;text-transform:none;direction:ltr;block-progression:tb;writing-mode:lr-tb;text-anchor:start;color:#000000;fill:#eac102;fill-rule:evenodd;stroke:#000000;stroke-width:1.20103788;stroke-linecap:round;stroke-linejoin:round;stroke-miterlimit:4;stroke-opacity:1;stroke-dasharray:none;marker:none;visibility:visible;display:inline;overflow:visible;enable-background:accumulate;font-family:Bitstream Vera Sans;-inkscape-font-specification:Bitstream Vera Sans"
             id="path6280" />
        </g>
        <path
           sodipodi:nodetypes="cccczc"
           inkscape:connector-curvature="0"
           id="path4758-1"
           d="m -396.27727,109.4845 0,8.07967 71.93935,0 0,-8.07967 c -4.66198,-1.15803 -15.38198,-2.76191 -35.96968,-2.76191 -20.58769,0 -31.30769,1.60388 -35.96967,2.76191 z"
           style="font-size:medium;font-style:normal;font-variant:normal;font-weight:normal;font-stretch:normal;text-indent:0;text-align:start;text-decoration:none;line-height:normal;letter-spacing:normal;word-spacing:normal;text-transform:none;direction:ltr;block-progression:tb;writing-mode:lr-tb;text-anchor:start;color:#000000;fill:#ed1c24;fill-opacity:1;stroke:#000000;stroke-width:1;stroke-linecap:round;stroke-linejoin:round;stroke-miterlimit:4;stroke-opacity:1;stroke-dasharray:none;marker:none;visibility:visible;display:inline;overflow:visible;enable-background:accumulate;font-family:Bitstream Vera Sans;-inkscape-font-specification:Bitstream Vera Sans" />
        <path
           sodipodi:nodetypes="sssccss"
           id="path3938-1"
           d="m -422.17018,114.57512 123.72518,0 c 25.70031,0 46.3906,21.42931 46.3906,47.12273 l 0,3.33007 -216.5064,0 0,-3.33007 c 0,-25.69342 20.69022,-47.12273 46.39062,-47.12273 z"
           style="fill:#ed1c24;stroke:#000000;stroke-width:1;stroke-linecap:round;stroke-linejoin:round;stroke-miterlimit:4;stroke-opacity:1;stroke-dasharray:none"
           inkscape:connector-curvature="0" />
        <path
           id="path3944-5"
           d="m -424.80341,131.0753 c 0,3.43414 -2.78467,6.21805 -6.21977,6.21805 -3.43508,0 -6.21975,-2.78391 -6.21975,-6.21805 0,-3.43418 2.78467,-6.21808 6.21975,-6.21808 3.4351,0 6.21977,2.7839 6.21977,6.21808 z"
           style="fill:#000000;stroke:#000000;stroke-width:1;stroke-linecap:round;stroke-linejoin:round;stroke-miterlimit:4;stroke-opacity:1;stroke-dasharray:none"
           inkscape:connector-curvature="0" />
        <path
           sodipodi:nodetypes="cccccs"
           id="path3946-2"
           d="m -431.02344,131.07615 c 2.49435,0 7.48113,1.39149 4.75322,3.67682 l 3.57277,28.02314 -16.65145,0 3.57259,-28.02314 c -2.81516,-2.89586 2.25851,-3.67682 4.75287,-3.67682 z"
           style="fill:#ffffff;stroke:#000000;stroke-width:1;stroke-linecap:round;stroke-linejoin:round;stroke-miterlimit:4;stroke-opacity:1;stroke-dasharray:none"
           inkscape:connector-curvature="0" />
        <path
           style="fill:#000000;stroke:#000000;stroke-width:1;stroke-linecap:round;stroke-linejoin:round;stroke-miterlimit:4;stroke-opacity:1;stroke-dasharray:none"
           d="m -283.37225,131.0753 c 0,3.43414 -2.78465,6.21805 -6.21982,6.21805 -3.435,0 -6.21973,-2.78391 -6.21973,-6.21805 0,-3.43418 2.78473,-6.21808 6.21973,-6.21808 3.43517,0 6.21982,2.7839 6.21982,6.21808 z"
           id="path3950-7"
           inkscape:connector-curvature="0" />
        <path
           style="fill:#ffffff;stroke:#000000;stroke-width:1;stroke-linecap:round;stroke-linejoin:round;stroke-miterlimit:4;stroke-opacity:1;stroke-dasharray:none"
           d="m -289.59232,131.07615 c 2.49435,0 7.48114,1.39149 4.75329,3.67682 l 3.57274,28.02314 -16.65148,0 3.57265,-28.02314 c -2.8152,-2.89586 2.25844,-3.67682 4.7528,-3.67682 z"
           id="path3952-6"
           sodipodi:nodetypes="cccccs"
           inkscape:connector-curvature="0" />
        <path
           id="path3954-1"
           d="m -474.39129,161.69812 228.16741,0 0,37.00638 -228.16741,0 0,-37.00638 z"
           style="fill:#ed1c24;stroke:#000000;stroke-width:1;stroke-linecap:round;stroke-linejoin:round;stroke-miterlimit:4;stroke-opacity:1;stroke-dasharray:none"
           inkscape:connector-curvature="0" />
      </g>
    </g>
  </g>
</svg>
