<!-- Created with Inkscape (http://www.inkscape.org/) -->
<svg xmlns:rdf="http://www.w3.org/1999/02/22-rdf-syntax-ns#" xmlns="http://www.w3.org/2000/svg" version="1.0" xmlns:cc="http://creativecommons.org/ns#" xmlns:dc="http://purl.org/dc/elements/1.1/" viewBox="0 0 750 500">
<metadata>
<rdf:RDF>
<cc:Work rdf:about="">
<dc:format>image/svg+xml</dc:format>
<dc:type rdf:resource="http://purl.org/dc/dcmitype/StillImage"/>
<dc:title/>
</cc:Work>
</rdf:RDF>
</metadata>
<g>
<path d="m0.5,0.5v499h749v-499z" fill-rule="nonzero" stroke="#000" stroke-width="1" fill="#FFF"/>
<path d="M187.5,0v500h562.5v-500z" fill-rule="nonzero" fill="#078930"/>
<path d="M562.5,0v500h187.5v-500z" fill-rule="nonzero" fill="#da121a"/>
<g stroke-linejoin="round" stroke="#000" stroke-linecap="round" transform="translate(953.48676,-728.56059)">
<g transform="matrix(0.25025024,0,0,0.25025024,-647.30558,853.56057)">
<g>
<path fill="#ed1c24" d="M126.904,160.389c-47.4497-2.054-88.5487,19.505-105.2703,46.096l50.536,73.206,46.9073,30.577,155.923-11.59,155.922,11.59,46.908-30.577,50.536-73.206c-16.721-26.591-57.82-48.15-105.27-46.097-49.777,2.155-74.619-23.708-148.096-23.708-73.478,0-98.32,25.863-148.097,23.708z"/>
<g>
<path fill="#eac102" d="m511.8256,207.248c19.5456-30.647,14.7835-52.773,2.7995-70.692,24.0799,20.568,30.4156,51.655,9.1264,87.081z"/>
<path fill="#eac102" d="m284.62,96.527c32.416,9.776,67.755,20.776,99.77,16.069,148.993-21.91,159.46,60.056,131.251,94.343l8.1105,16.698-7.6257,2.421-9.7328-19.557c32.728-34.367,17.7717-106.98-120.838-86.576-33.376,4.913-70.105-6.31-103.326-16.329z"/>
<path fill="none" d="m515.641,206.939-9.248-0.438"/>
<path fill="#e3e4e5" d="m320.2925,100.4245a7.7835,7.7835,0,0,0,7.783,7.783,7.7835,7.7835,0,0,0,7.784,-7.783,7.7835,7.7835,0,0,0,-7.784,-7.784,7.7835,7.7835,0,0,0,-7.783,7.784z"/>
<path fill="#e3e4e5" d="m397.7925,102.3245a7.7835,7.7835,0,0,0,7.783,7.783,7.7835,7.7835,0,0,0,7.784,-7.783,7.7835,7.7835,0,0,0,-7.784,-7.784,7.7835,7.7835,0,0,0,-7.783,7.784z"/>
<path fill="#e3e4e5" d="m378.5425,104.5745a7.7835,7.7835,0,0,0,7.783,7.783,7.7835,7.7835,0,0,0,7.784,-7.783,7.7835,7.7835,0,0,0,-7.784,-7.784,7.7835,7.7835,0,0,0,-7.783,7.784z"/>
<path fill="#e3e4e5" d="m301.2925,95.6245a7.7835,7.7835,0,0,0,7.783,7.783,7.7835,7.7835,0,0,0,7.784,-7.783,7.7835,7.7835,0,0,0,-7.784,-7.784,7.7835,7.7835,0,0,0,-7.783,7.784z"/>
<path fill="#e3e4e5" d="m282.5425,90.22435a7.7835,7.7835,0,0,0,7.783,7.783,7.7835,7.7835,0,0,0,7.784,-7.783,7.7835,7.7835,0,0,0,-7.784,-7.784,7.7835,7.7835,0,0,0,-7.783,7.784z"/>
<path fill="#e3e4e5" d="m522.7466,212.679a7.7835,7.7835,0,0,0,7.783,7.783,7.7835,7.7835,0,0,0,7.784,-7.783,7.7835,7.7835,0,0,0,-7.784,-7.784,7.7835,7.7835,0,0,0,-7.783,7.784z"/>
<path fill="#e3e4e5" d="m530.2451,195.076a7.7835,7.7835,0,0,0,7.783,7.783,7.7835,7.7835,0,0,0,7.784,-7.783,7.7835,7.7835,0,0,0,-7.784,-7.784,7.7835,7.7835,0,0,0,-7.783,7.784z"/>
<path fill="#e3e4e5" d="m533.933,176.675a7.7835,7.7835,0,0,0,7.783,7.783,7.7835,7.7835,0,0,0,7.784,-7.783,7.7835,7.7835,0,0,0,-7.784,-7.784,7.7835,7.7835,0,0,0,-7.783,7.784z"/>
<path fill="#e3e4e5" d="m530.5421,158.1745a7.7835,7.7835,0,0,0,7.783,7.783,7.7835,7.7835,0,0,0,7.784,-7.783,7.7835,7.7835,0,0,0,-7.784,-7.784,7.7835,7.7835,0,0,0,-7.783,7.784z"/>
<path fill="#e3e4e5" d="m521.0421,141.6745a7.7835,7.7835,0,0,0,7.7829,7.783,7.7835,7.7835,0,0,0,7.7841,-7.783,7.7835,7.7835,0,0,0,-7.7841,-7.784,7.7835,7.7835,0,0,0,-7.7829,7.784z"/>
<path fill="#e3e4e5" d="m508.5421,126.9245a7.7835,7.7835,0,0,0,7.7829,7.783,7.7835,7.7835,0,0,0,7.7841,-7.783,7.7835,7.7835,0,0,0,-7.7841,-7.784,7.7835,7.7835,0,0,0,-7.7829,7.784z"/>
<path fill="#e3e4e5" d="m493.0421,115.9245a7.7835,7.7835,0,0,0,7.7829,7.783,7.7835,7.7835,0,0,0,7.7841,-7.783,7.7835,7.7835,0,0,0,-7.7841,-7.784,7.7835,7.7835,0,0,0,-7.7829,7.784z"/>
<path fill="#e3e4e5" d="m475.2921,107.9245a7.7835,7.7835,0,0,0,7.7829,7.783,7.7835,7.7835,0,0,0,7.7841,-7.783,7.7835,7.7835,0,0,0,-7.7841,-7.784,7.7835,7.7835,0,0,0,-7.7829,7.784z"/>
<path fill="#e3e4e5" d="m456.2922,103.4245a7.7835,7.7835,0,0,0,7.783,7.783,7.7835,7.7835,0,0,0,7.784,-7.783,7.7835,7.7835,0,0,0,-7.784,-7.784,7.7835,7.7835,0,0,0,-7.783,7.784z"/>
<path fill="#e3e4e5" d="m436.7925,101.4245a7.7835,7.7835,0,0,0,7.783,7.783,7.7835,7.7835,0,0,0,7.784,-7.783,7.7835,7.7835,0,0,0,-7.784,-7.784,7.7835,7.7835,0,0,0,-7.783,7.784z"/>
<path fill="#e3e4e5" d="m417.2925,101.1745a7.7835,7.7835,0,0,0,7.783,7.783,7.7835,7.7835,0,0,0,7.784,-7.783,7.7835,7.7835,0,0,0,-7.784,-7.784,7.7835,7.7835,0,0,0,-7.783,7.784z"/>
<path fill="#e3e4e5" d="m359.0425,105.9245a7.7835,7.7835,0,0,0,7.783,7.783,7.7835,7.7835,0,0,0,7.784,-7.783,7.7835,7.7835,0,0,0,-7.784,-7.784,7.7835,7.7835,0,0,0,-7.783,7.784z"/>
<path fill="#e3e4e5" d="m339.5425,104.1745a7.7835,7.7835,0,0,0,7.783,7.783,7.7835,7.7835,0,0,0,7.784,-7.783,7.7835,7.7835,0,0,0,-7.784,-7.784,7.7835,7.7835,0,0,0,-7.783,7.784z"/>
</g>
<g>
<path style="color:#000000;text-transform:none;text-indent:0;" fill="#eac102" d="m360.0098,83.2883c58.73,8.2647,67.559,61.2927,37.213,98.7137l11.164,18.135-7.24,1.157-15.274-19.727c38.556-45.665,16.695-84.586-27.063-89.802-31.409-3.744-51.936,13.675-83.81,10.512v-8.477c24.666,3.635,57.285-14.4134,85.01-10.5117z"/>
<path style="color:#000000;text-transform:none;text-indent:0;" fill="#eac102" d="m408.3868,200.137-14.475-18.51c27.841-29.776,24.557-82.969-20.634-95.507,77.2708,17.892,51.427,72.899,52.518,102.232z"/>
<path fill="none" d="m393.9118,181.627-8.039-0.06"/>
<path fill="#e3e4e5" d="m276.9663,86.3693a7.7835,7.7835,0,0,0,7.783,7.783,7.7835,7.7835,0,0,0,7.784,-7.783,7.7835,7.7835,0,0,0,-7.784,-7.784,7.7835,7.7835,0,0,0,-7.783,7.784z"/>
<path fill="#e3e4e5" d="m286.6228,85.56335a7.7835,7.7835,0,0,0,7.783,7.783,7.7835,7.7835,0,0,0,7.784,-7.783,7.7835,7.7835,0,0,0,-7.784,-7.784,7.7835,7.7835,0,0,0,-7.783,7.784z"/>
<path fill="#e3e4e5" d="m294.6863,83.8243a7.7835,7.7835,0,0,0,7.783,7.783,7.7835,7.7835,0,0,0,7.784,-7.783,7.7835,7.7835,0,0,0,-7.784,-7.784,7.7835,7.7835,0,0,0,-7.783,7.784z"/>
<path fill="#e3e4e5" d="m302.7783,81.5984a7.7835,7.7835,0,0,0,7.783,7.783,7.7835,7.7835,0,0,0,7.784,-7.783,7.7835,7.7835,0,0,0,-7.784,-7.784,7.7835,7.7835,0,0,0,-7.783,7.784z"/>
<path fill="#e3e4e5" d="m403.7763,183.1555a7.7835,7.7835,0,0,0,7.783,7.783,7.7835,7.7835,0,0,0,7.784,-7.783,7.7835,7.7835,0,0,0,-7.784,-7.784,7.7835,7.7835,0,0,0,-7.783,7.784z"/>
<path fill="#e3e4e5" d="m411.5013,165.1275a7.7835,7.7835,0,0,0,7.783,7.783,7.7835,7.7835,0,0,0,7.784,-7.783,7.7835,7.7835,0,0,0,-7.784,-7.784,7.7835,7.7835,0,0,0,-7.783,7.784z"/>
<path fill="#e3e4e5" d="m415.7193,146.2275a7.7835,7.7835,0,0,0,7.783,7.783,7.7835,7.7835,0,0,0,7.784,-7.783,7.7835,7.7835,0,0,0,-7.784,-7.784,7.7835,7.7835,0,0,0,-7.783,7.784z"/>
<path fill="#e3e4e5" d="m415.1433,127.5005a7.7835,7.7835,0,0,0,7.783,7.783,7.7835,7.7835,0,0,0,7.784,-7.783,7.7835,7.7835,0,0,0,-7.784,-7.784,7.7835,7.7835,0,0,0,-7.783,7.784z"/>
<path fill="#e3e4e5" d="m311.2028,79.7154a7.7835,7.7835,0,0,0,7.783,7.783,7.7835,7.7835,0,0,0,7.784,-7.783,7.7835,7.7835,0,0,0,-7.784,-7.784,7.7835,7.7835,0,0,0,-7.783,7.784z"/>
<path fill="#e3e4e5" d="m319.9033,77.77545a7.7835,7.7835,0,0,0,7.783,7.783,7.7835,7.7835,0,0,0,7.784,-7.783,7.7835,7.7835,0,0,0,-7.784,-7.784,7.7835,7.7835,0,0,0,-7.783,7.784z"/>
<path fill="#e3e4e5" d="m329.1353,76.2257a7.7835,7.7835,0,0,0,7.783,7.783,7.7835,7.7835,0,0,0,7.784,-7.783,7.7835,7.7835,0,0,0,-7.784,-7.784,7.7835,7.7835,0,0,0,-7.783,7.784z"/>
<path fill="#e3e4e5" d="m338.6008,75.1477a7.7835,7.7835,0,0,0,7.783,7.783,7.7835,7.7835,0,0,0,7.784,-7.783,7.7835,7.7835,0,0,0,-7.784,-7.784,7.7835,7.7835,0,0,0,-7.783,7.784z"/>
<path fill="#e3e4e5" d="m349.2963,75.1787a7.7835,7.7835,0,0,0,7.783,7.783,7.7835,7.7835,0,0,0,7.784,-7.783,7.7835,7.7835,0,0,0,-7.784,-7.784,7.7835,7.7835,0,0,0,-7.783,7.784z"/>
<path fill="#e3e4e5" d="m361.2313,77.0597a7.7835,7.7835,0,0,0,7.783,7.783,7.7835,7.7835,0,0,0,7.784,-7.783,7.7835,7.7835,0,0,0,-7.784,-7.784,7.7835,7.7835,0,0,0,-7.783,7.784z"/>
<path fill="#e3e4e5" d="m374.0443,80.6423a7.7835,7.7835,0,0,0,7.783,7.783,7.7835,7.7835,0,0,0,7.784,-7.783,7.7835,7.7835,0,0,0,-7.784,-7.784,7.7835,7.7835,0,0,0,-7.783,7.784z"/>
<path fill="#e3e4e5" d="m387.7703,86.74135a7.7835,7.7835,0,0,0,7.783,7.783,7.7835,7.7835,0,0,0,7.784,-7.783,7.7835,7.7835,0,0,0,-7.784,-7.784,7.7835,7.7835,0,0,0,-7.783,7.784z"/>
<path fill="#e3e4e5" d="m400.1513,97.0445a7.7835,7.7835,0,0,0,7.783,7.783,7.7835,7.7835,0,0,0,7.784,-7.783,7.7835,7.7835,0,0,0,-7.784,-7.784,7.7835,7.7835,0,0,0,-7.783,7.784z"/>
<path fill="#e3e4e5" d="m409.5618,110.9545a7.7835,7.7835,0,0,0,7.783,7.783,7.7835,7.7835,0,0,0,7.784,-7.783,7.7835,7.7835,0,0,0,-7.784,-7.784,7.7835,7.7835,0,0,0,-7.783,7.784z"/>
</g>
<g>
<path fill="#eac102" d="M38.1744,207.248c-19.5456-30.647-14.7835-52.773-2.7995-70.692-24.0799,20.568-30.41563,51.655-9.1264,87.081z"/>
<path fill="#eac102" d="m265.38,96.527c-32.416,9.776-67.755,20.776-99.77,16.069-148.993-21.91-159.46,60.056-131.251,94.343l-8.1105,16.698,7.6257,2.421,9.7328-19.557c-32.728-34.367-17.7717-106.98,120.838-86.576,33.376,4.913,70.105-6.31,103.326-16.329z"/>
<path fill="none" d="m34.359,206.939,9.248-0.438"/>
<path fill="#e3e4e5" d="m229.7075,100.4245a7.7835,7.7835,0,0,1,-7.783,7.783,7.7835,7.7835,0,0,1,-7.784,-7.783,7.7835,7.7835,0,0,1,7.784,-7.784,7.7835,7.7835,0,0,1,7.783,7.784z"/>
<path fill="#e3e4e5" d="m152.2075,102.3245a7.7835,7.7835,0,0,1,-7.783,7.783,7.7835,7.7835,0,0,1,-7.784,-7.783,7.7835,7.7835,0,0,1,7.784,-7.784,7.7835,7.7835,0,0,1,7.783,7.784z"/>
<path fill="#e3e4e5" d="m171.4575,104.5745a7.7835,7.7835,0,0,1,-7.783,7.783,7.7835,7.7835,0,0,1,-7.784,-7.783,7.7835,7.7835,0,0,1,7.784,-7.784,7.7835,7.7835,0,0,1,7.783,7.784z"/>
<path fill="#e3e4e5" d="m248.7075,95.6245a7.7835,7.7835,0,0,1,-7.783,7.783,7.7835,7.7835,0,0,1,-7.784,-7.783,7.7835,7.7835,0,0,1,7.784,-7.784,7.7835,7.7835,0,0,1,7.783,7.784z"/>
<path fill="#e3e4e5" d="m267.4575,90.22435a7.7835,7.7835,0,0,1,-7.783,7.783,7.7835,7.7835,0,0,1,-7.784,-7.783,7.7835,7.7835,0,0,1,7.784,-7.784,7.7835,7.7835,0,0,1,7.783,7.784z"/>
<path fill="#e3e4e5" d="m27.2534,212.679a7.7835,7.7835,0,0,1,-7.783,7.783,7.7835,7.7835,0,0,1,-7.784,-7.783,7.7835,7.7835,0,0,1,7.784,-7.784,7.7835,7.7835,0,0,1,7.783,7.784z"/>
<path fill="#e3e4e5" d="m19.7549,195.076a7.7835,7.7835,0,0,1,-7.783,7.783,7.7835,7.7835,0,0,1,-7.78401,-7.783,7.7835,7.7835,0,0,1,7.78401,-7.784,7.7835,7.7835,0,0,1,7.783,7.784z"/>
<path stroke-width="0.99999988" fill="#e3e4e5" d="M16.067,176.6745a7.7835,7.7835,0,0,1,-7.7835,7.7835,7.7835,7.7835,0,0,1,-7.7835,-7.7835,7.7835,7.7835,0,0,1,7.7835,-7.7835,7.7835,7.7835,0,0,1,7.7835,7.7835z"/>
<path fill="#e3e4e5" d="m19.45793,158.1745a7.7835,7.7835,0,0,1,-7.78299,7.783,7.7835,7.7835,0,0,1,-7.784003,-7.783,7.7835,7.7835,0,0,1,7.784003,-7.784,7.7835,7.7835,0,0,1,7.78299,7.784z"/>
<path fill="#e3e4e5" d="m28.95795,141.6745a7.7835,7.7835,0,0,1,-7.78299,7.783,7.7835,7.7835,0,0,1,-7.78401,-7.783,7.7835,7.7835,0,0,1,7.78401,-7.784,7.7835,7.7835,0,0,1,7.78299,7.784z"/>
<path fill="#e3e4e5" d="m41.45795,126.9245a7.7835,7.7835,0,0,1,-7.78299,7.783,7.7835,7.7835,0,0,1,-7.78401,-7.783,7.7835,7.7835,0,0,1,7.78401,-7.784,7.7835,7.7835,0,0,1,7.78299,7.784z"/>
<path fill="#e3e4e5" d="m56.95795,115.9245a7.7835,7.7835,0,0,1,-7.78299,7.783,7.7835,7.7835,0,0,1,-7.78401,-7.783,7.7835,7.7835,0,0,1,7.78401,-7.784,7.7835,7.7835,0,0,1,7.78299,7.784z"/>
<path fill="#e3e4e5" d="m74.70795,107.9245a7.7835,7.7835,0,0,1,-7.78299,7.783,7.7835,7.7835,0,0,1,-7.78401,-7.783,7.7835,7.7835,0,0,1,7.78401,-7.784,7.7835,7.7835,0,0,1,7.78299,7.784z"/>
<path fill="#e3e4e5" d="m93.7078,103.4245a7.7835,7.7835,0,0,1,-7.78299,7.783,7.7835,7.7835,0,0,1,-7.78401,-7.783,7.7835,7.7835,0,0,1,7.78401,-7.784,7.7835,7.7835,0,0,1,7.78299,7.784z"/>
<path fill="#e3e4e5" d="m113.2075,101.4245a7.7835,7.7835,0,0,1,-7.783,7.783,7.7835,7.7835,0,0,1,-7.784,-7.783,7.7835,7.7835,0,0,1,7.784,-7.784,7.7835,7.7835,0,0,1,7.783,7.784z"/>
<path fill="#e3e4e5" d="m132.7075,101.1745a7.7835,7.7835,0,0,1,-7.783,7.783,7.7835,7.7835,0,0,1,-7.784,-7.783,7.7835,7.7835,0,0,1,7.784,-7.784,7.7835,7.7835,0,0,1,7.783,7.784z"/>
<path fill="#e3e4e5" d="m190.9575,105.9245a7.7835,7.7835,0,0,1,-7.783,7.783,7.7835,7.7835,0,0,1,-7.784,-7.783,7.7835,7.7835,0,0,1,7.784,-7.784,7.7835,7.7835,0,0,1,7.783,7.784z"/>
<path fill="#e3e4e5" d="m210.4575,104.1745a7.7835,7.7835,0,0,1,-7.783,7.783,7.7835,7.7835,0,0,1,-7.784,-7.783,7.7835,7.7835,0,0,1,7.784,-7.784,7.7835,7.7835,0,0,1,7.783,7.784z"/>
</g>
<g>
<path style="color:#000000;text-transform:none;text-indent:0;" fill="#eac102" d="m189.9902,83.2883c-58.7299,8.2647-67.5589,61.2927-37.213,98.7137l-11.1639,18.135,7.24,1.157,15.274-19.727c-38.5561-45.665-16.6951-84.586,27.0629-89.802,31.409-3.744,51.936,13.675,83.81,10.512v-8.477c-24.666,3.635-57.285-14.4134-85.01-10.5117z"/>
<path style="color:#000000;text-transform:none;text-indent:0;" fill="#eac102" d="m141.6132,200.137,14.475-18.51c-27.841-29.776-24.557-82.969,20.634-95.507-77.27078,17.892-51.427,72.899-52.518,102.232z"/>
<path fill="none" d="m156.0882,181.627,8.039-0.06"/>
<path fill="#e3e4e5" d="m273.0337,86.3693a7.7835,7.7835,0,0,1,-7.783,7.783,7.7835,7.7835,0,0,1,-7.784,-7.783,7.7835,7.7835,0,0,1,7.784,-7.784,7.7835,7.7835,0,0,1,7.783,7.784z"/>
<path fill="#e3e4e5" d="m263.3772,85.56335a7.7835,7.7835,0,0,1,-7.7829,7.783,7.7835,7.7835,0,0,1,-7.784,-7.783,7.7835,7.7835,0,0,1,7.784,-7.784,7.7835,7.7835,0,0,1,7.7829,7.784z"/>
<path fill="#e3e4e5" d="m255.3137,83.8243a7.7835,7.7835,0,0,1,-7.783,7.783,7.7835,7.7835,0,0,1,-7.7839,-7.783,7.7835,7.7835,0,0,1,7.7839,-7.784,7.7835,7.7835,0,0,1,7.783,7.784z"/>
<path fill="#e3e4e5" d="m247.2217,81.5984a7.7835,7.7835,0,0,1,-7.783,7.783,7.7835,7.7835,0,0,1,-7.784,-7.783,7.7835,7.7835,0,0,1,7.784,-7.784,7.7835,7.7835,0,0,1,7.783,7.784z"/>
<path fill="#e3e4e5" d="m146.2237,183.1555a7.7835,7.7835,0,0,1,-7.783,7.783,7.7835,7.7835,0,0,1,-7.7839,-7.783,7.7835,7.7835,0,0,1,7.7839,-7.784,7.7835,7.7835,0,0,1,7.783,7.784z"/>
<path fill="#e3e4e5" d="m138.4987,165.1275a7.7835,7.7835,0,0,1,-7.7829,7.783,7.7835,7.7835,0,0,1,-7.784,-7.783,7.7835,7.7835,0,0,1,7.784,-7.784,7.7835,7.7835,0,0,1,7.7829,7.784z"/>
<path fill="#e3e4e5" d="m134.2807,146.2275a7.7835,7.7835,0,0,1,-7.783,7.783,7.7835,7.7835,0,0,1,-7.784,-7.783,7.7835,7.7835,0,0,1,7.784,-7.784,7.7835,7.7835,0,0,1,7.783,7.784z"/>
<path fill="#e3e4e5" d="m134.8567,127.5005a7.7835,7.7835,0,0,1,-7.7829,7.783,7.7835,7.7835,0,0,1,-7.7841,-7.783,7.7835,7.7835,0,0,1,7.7841,-7.784,7.7835,7.7835,0,0,1,7.7829,7.784z"/>
<path fill="#e3e4e5" d="m238.7972,79.7154a7.7835,7.7835,0,0,1,-7.783,7.783,7.7835,7.7835,0,0,1,-7.784,-7.783,7.7835,7.7835,0,0,1,7.784,-7.784,7.7835,7.7835,0,0,1,7.783,7.784z"/>
<path fill="#e3e4e5" d="m230.0967,77.77545a7.7835,7.7835,0,0,1,-7.783,7.783,7.7835,7.7835,0,0,1,-7.784,-7.783,7.7835,7.7835,0,0,1,7.784,-7.784,7.7835,7.7835,0,0,1,7.783,7.784z"/>
<path fill="#e3e4e5" d="m220.8647,76.2257a7.7835,7.7835,0,0,1,-7.783,7.783,7.7835,7.7835,0,0,1,-7.784,-7.783,7.7835,7.7835,0,0,1,7.784,-7.784,7.7835,7.7835,0,0,1,7.783,7.784z"/>
<path fill="#e3e4e5" d="m211.3992,75.1477a7.7835,7.7835,0,0,1,-7.783,7.783,7.7835,7.7835,0,0,1,-7.7839,-7.783,7.7835,7.7835,0,0,1,7.7839,-7.784,7.7835,7.7835,0,0,1,7.783,7.784z"/>
<path fill="#e3e4e5" d="m200.7037,75.1787a7.7835,7.7835,0,0,1,-7.783,7.783,7.7835,7.7835,0,0,1,-7.784,-7.783,7.7835,7.7835,0,0,1,7.784,-7.784,7.7835,7.7835,0,0,1,7.783,7.784z"/>
<path fill="#e3e4e5" d="m188.7687,77.0597a7.7835,7.7835,0,0,1,-7.783,7.783,7.7835,7.7835,0,0,1,-7.784,-7.783,7.7835,7.7835,0,0,1,7.784,-7.784,7.7835,7.7835,0,0,1,7.783,7.784z"/>
<path fill="#e3e4e5" d="m175.9557,80.6423a7.7835,7.7835,0,0,1,-7.783,7.783,7.7835,7.7835,0,0,1,-7.7839,-7.783,7.7835,7.7835,0,0,1,7.7839,-7.784,7.7835,7.7835,0,0,1,7.783,7.784z"/>
<path fill="#e3e4e5" d="m162.2297,86.74135a7.7835,7.7835,0,0,1,-7.783,7.783,7.7835,7.7835,0,0,1,-7.7839,-7.783,7.7835,7.7835,0,0,1,7.7839,-7.784,7.7835,7.7835,0,0,1,7.783,7.784z"/>
<path fill="#e3e4e5" d="m149.8487,97.0445a7.7835,7.7835,0,0,1,-7.783,7.783,7.7835,7.7835,0,0,1,-7.7839,-7.783,7.7835,7.7835,0,0,1,7.7839,-7.784,7.7835,7.7835,0,0,1,7.783,7.784z"/>
<path fill="#e3e4e5" d="m140.4382,110.9545a7.7835,7.7835,0,0,1,-7.783,7.783,7.7835,7.7835,0,0,1,-7.784,-7.783,7.7835,7.7835,0,0,1,7.784,-7.784,7.7835,7.7835,0,0,1,7.783,7.784z"/>
</g>
<g>
<path fill="#eac102" d="m271.0505,45.9675,0-26.5354-12.191,0,0-7.8712,12.191,0,0-11.0608,7.899,0,0,11.0608,12.191,0,0,7.8712-12.191,0,0,26.5354z"/>
<path fill-rule="evenodd" fill="#0071bc" d="m296.6135,57.931c0,11.9368-9.676,21.6135-21.613,21.6135s-21.614-9.6767-21.614-21.6135,9.677-21.6135,21.614-21.6135,21.613,9.6767,21.613,21.6135z"/>
<path fill="#eac102" d="m296.89,62.2341c0.853-2.1211,0.321-8.3173,0-8.6153,0-1.4117-7.564-2.5679-17.598-2.8336v-14.8834c-1.436-0.2424-2.863-0.3721-4.292-0.3721s-2.856,0.1297-4.292,0.3721v14.8834c-10.035,0.2657-17.598,1.4219-17.598,2.8336-0.321,0.298-0.853,6.4942,0,8.6153,0-1.6075,9.796-2.9195,21.89-2.9195s21.89,1.312,21.89,2.9195z"/>
<path style="color:#000000;text-transform:none;text-indent:0;" fill="#eac102" d="m300.2535,178.031c-9.227-24.443-5.848-66.016-11.893-88.294-2.443-9.0023-8.669-13.2685-13.36-13.2685-4.692,0-10.918,4.2662-13.361,13.2685-6.044,22.278-2.666,63.851-11.893,88.294l25.254,25.969z"/>
<path style="color:#000000;text-transform:none;text-indent:0;" fill="#eac102" d="m284.233,92.187c5.798,26.85,1.488,56.644,10.3,84.406l-19.533,20.532-19.533-20.532c8.811-27.762,4.502-57.556,10.3-84.406,1.017-4.709,4.687-10.6875,9.233-10.6875s8.216,5.9785,9.233,10.6875z"/>
<path fill="none" d="m249.7465,178.031,5.721-1.438"/>
<path fill="none" d="m300.2535,178.031-5.72-1.438"/>
<path fill="#e3e4e5" d="m282.7835,72.2347a7.7835,7.7835,0,0,1,-7.783,7.783,7.7835,7.7835,0,0,1,-7.784,-7.783,7.7835,7.7835,0,0,1,7.784,-7.784,7.7835,7.7835,0,0,1,7.783,7.784z"/>
<path fill="#e3e4e5" d="m282.7835,74.7567a7.7835,7.7835,0,0,1,-7.783,7.783,7.7835,7.7835,0,0,1,-7.784,-7.783,7.7835,7.7835,0,0,1,7.784,-7.784,7.7835,7.7835,0,0,1,7.783,7.784z"/>
<path fill="#e3e4e5" d="m282.7835,78.50395a7.7835,7.7835,0,0,1,-7.783,7.783,7.7835,7.7835,0,0,1,-7.784,-7.783,7.7835,7.7835,0,0,1,7.784,-7.784,7.7835,7.7835,0,0,1,7.783,7.784z"/>
<path fill="#e3e4e5" d="m282.7835,85.26035a7.7835,7.7835,0,0,1,-7.783,7.783,7.7835,7.7835,0,0,1,-7.784,-7.783,7.7835,7.7835,0,0,1,7.784,-7.784,7.7835,7.7835,0,0,1,7.783,7.784z"/>
<path fill="#e3e4e5" d="m282.7835,177.1995a7.7835,7.7835,0,0,1,-7.783,7.783,7.7835,7.7835,0,0,1,-7.784,-7.783,7.7835,7.7835,0,0,1,7.784,-7.784,7.7835,7.7835,0,0,1,7.783,7.784z"/>
<path fill="#e3e4e5" d="m282.7835,159.9425a7.7835,7.7835,0,0,1,-7.783,7.783,7.7835,7.7835,0,0,1,-7.784,-7.783,7.7835,7.7835,0,0,1,7.784,-7.784,7.7835,7.7835,0,0,1,7.783,7.784z"/>
<path fill="#e3e4e5" d="m282.7835,141.7745a7.7835,7.7835,0,0,1,-7.783,7.783,7.7835,7.7835,0,0,1,-7.784,-7.783,7.7835,7.7835,0,0,1,7.784,-7.784,7.7835,7.7835,0,0,1,7.783,7.784z"/>
<path fill="#e3e4e5" d="m282.7835,93.8715a7.7835,7.7835,0,0,1,-7.783,7.783,7.7835,7.7835,0,0,1,-7.784,-7.783,7.7835,7.7835,0,0,1,7.784,-7.784,7.7835,7.7835,0,0,1,7.783,7.784z"/>
<path fill="#e3e4e5" d="m282.7835,106.1465a7.7835,7.7835,0,0,1,-7.783,7.783,7.7835,7.7835,0,0,1,-7.784,-7.783,7.7835,7.7835,0,0,1,7.784,-7.784,7.7835,7.7835,0,0,1,7.783,7.784z"/>
<path fill="#e3e4e5" d="m282.7835,123.2925a7.7835,7.7835,0,0,1,-7.783,7.783,7.7835,7.7835,0,0,1,-7.784,-7.783,7.7835,7.7835,0,0,1,7.784,-7.784,7.7835,7.7835,0,0,1,7.783,7.784z"/>
</g>
</g>
<g>
<path fill="#eac102" d="m495.393,261.718c-8.975,15.172-24.369,32.712-39.404,43.596l-12.431-5.934c23.39-9.09,38.18-23.218,51.835-37.662z"/>
<path fill="#eac102" d="m54.6066,261.718c8.9757,15.172,24.3692,32.712,39.4046,43.596l12.4308-5.934c-23.3893-9.089-38.1794-23.217-51.8352-37.661z"/>
<path fill="#eac102" d="m197.252,230.116c-3.718,5.274-8.668,9.861-15.822,11.078,2.99,2.509,3.836,5.588,4.156,9.384-10.83-3.633-16.142-0.524-22.035-4.938l-6.684-5.008-2.581-12.406,4.368-6.127c3.71-5.203,11.119-3.905,19.086-9.236,1.239,3.701,1.683,6.822-0.159,9.832,7.348-0.289,13.962,3.126,19.671,7.421z"/>
<path fill="#eac102" d="m352.748,230.116c3.719,5.274,8.668,9.861,15.823,11.078-2.991,2.509-3.836,5.588-4.157,9.384,10.83-3.633,16.142-0.524,22.035-4.938l6.685-5.008,2.58-12.406-4.368-6.127c-3.709-5.203-11.119-3.905-19.085-9.236-1.24,3.701-1.684,6.822,0.158,9.832-7.348-0.289-13.962,3.126-19.671,7.421z"/>
<path style="color:#000000;text-transform:none;text-indent:0;" fill="#eac102" d="m279.949,231.803c-0.03,2.357,0,10.917,0,16.375,0,26.831,47.244,38.933,54.668,0.185,0.433-2.262,2.647-3.716,4.938-3.438,2.291,0.279,4.04,2.325,3.936,4.625-1.644,36.354,42.169,31.266,48.807,1.784l3.884-17.25c0.56-2.487,3.458-4.151,5.951-3.593s4.381,3.294,3.821,5.781l-3.883,17.25c-6.534,29.017,20.554,39.156,46.761,3.358,1.429-1.951,4.348-2.648,6.398-1.362,2.051,1.285,2.42,4.184,1.399,6.375-20.412,43.804,9.017,20.935,32.108-6.902,1.708-2.06,5.095-2.533,7.172-0.844,2.078,1.688,2.269,5.068,0.595,7.156-43.1,53.791-58.839,34.495-56.253,18.969-18.149,14.619-40.479,13.325-47.42-8.469-16.133,18.161-45.313,18.789-55.89-3.656-17.45,23.114-49.603,16.825-61.941-2.594-12.339,19.419-44.491,25.708-61.941,2.594-10.577,22.445-39.757,21.817-55.89,3.656-6.942,21.794-29.271,23.088-47.421,8.469,2.587,15.526-13.1523,34.822-56.2527-18.969-1.6732-2.088-1.4826-5.468,0.5951-7.156,2.0776-1.689,5.4642-1.216,7.1726,0.844,23.0903,27.837,52.52,50.706,32.1075,6.902-1.0209-2.191-0.6516-5.09,1.3988-6.375,2.0505-1.286,4.9694-0.589,6.3977,1.362,26.208,35.798,53.295,25.659,46.762-3.358l-3.884-17.25c-0.56-2.487,1.329-5.223,3.822-5.781,2.492-0.558,5.391,1.106,5.951,3.593l3.883,17.25c6.638,29.482,50.452,34.57,48.808-1.784-0.104-2.3,1.645-4.346,3.936-4.625,2.291-0.278,4.505,1.176,4.938,3.438,7.424,38.748,54.668,26.646,54.668-0.185,0-5.458,0.03-14.018,0-16.375-0.03-2.618,2.325-5.063,4.949-5.063s4.981,2.445,4.949,5.063z"/>
<path fill="#e3e4e5" d="m218.148,245.993c0,4.299-3.485,7.783-7.783,7.783-4.299,0-7.784-3.484-7.784-7.783s3.485-7.783,7.784-7.783c4.298,0,7.783,3.484,7.783,7.783z"/>
<path fill="#eac102" d="m102.336,239.971c5.709,4.295,12.317,7.682,19.665,7.394-1.842,3.01-1.398,6.131-0.158,9.831,9.888-5.904,15.408-4.012,19.091-9.208l4.362-6.155-2.581-12.406-6.678-4.98c-5.751-4.288-11.565-1.418-22.041-4.965,0.321,3.795,1.166,6.875,4.157,9.383-7.155,1.217-12.099,5.832-15.817,11.106z"/>
<path fill="none" d="m141.354,236.122c-15.058-0.18-19.315,1.751-32.576,3.205"/>
<path fill="none" d="m140.887,231.259c-9.561-5.946-16.284-3.45-22.381-7.697"/>
<path fill="none" d="m142.66,241.262c-6.52,6.349-11.51,4.12-17.167,9.492"/>
<path fill="#eac102" d="m137.517,184.801c-1.955,6.672-4.948,12.704-2.046,20.33-3.122-2.311-7.015-3.14-10.425-2.286,6.76,10.344,5.287,16.364,11.193,21.26l6.456,5.353,11.623-1.207,3.976-6.436c3.363-5.442-0.09-11.554,2.087-22.638-3.614-0.126-6.474,0.389-8.523,3.237-2.045-7.695-7.764-14.127-14.341-17.613z"/>
<path fill="none" d="m152.062,225.93c3.05-7.209,0.338-14.167,4.238-22.242"/>
<path fill="none" d="m144.078,227.417c-7.743-7.821-7.297-14.944-13.018-20.705"/>
<path fill="none" d="m147.908,225.978c-4.91-13.066-3.728-23.04-8.243-34.519"/>
<path fill="none" d="m155.601,229.946c6.485-7.138,12.126-5.158,18.639-11.082"/>
<path fill="none" d="m157.194,238.405c9.31,3.696,12.383,1.45,22.346,7.319"/>
<path fill="none" d="m158.315,234.361c14.086-3.851,19.894-1.207,32.749-3.538"/>
<path fill-rule="evenodd" fill="#ed1c24" d="m159.492,235.014c0,5.537-4.488,10.025-10.025,10.025s-10.025-4.488-10.025-10.025,4.488-10.025,10.025-10.025,10.025,4.488,10.025,10.025z"/>
<path fill="#eac102" d="m45.0284,247.022c-6.8839-9.763-12.5925-16.066-33.6374-17.877,7.1999-10.824,22.1943-13.957,31.947-4.08,0.9226-2.703,1.4915-3.584,4.0702-6.081,2.2993,7.049,12.5388,12.375,8.4764,24.997l-3.9921,12.404z"/>
<path fill="#eac102" d="m84.5428,243.89c-1.5655,5.769-4.0762,11.078-8.6571,13.477,2.4447,1.937,3.5521,4.794,4.4334,8.438,0,0-10.52-0.846-15.1004,0.2-5.2304,1.195-9.2345-1.053-10.0933-1.896l-4.9364-9.74c3.7968-6.772,4.5442-10.491,7.3891-14.177,2.8404-3.68,7.4856-6.913,10.8591-9.803,1.4804,3.395,2.3264,6.361,1.6204,9.607,4.8733-1.528,9.9053,0.678,14.4852,3.894z"/>
<path fill="none" d="m49.0826,252.582c-0.6133-5.162,1.1642-9.819,0.8473-13.963-0.58-7.582-3.0646-10.08-2.7362-14.051"/>
<path fill="none" d="m52.7809,258.812c8.1857-6.619,15.6797-7.827,25.5337-13.418"/>
<path fill="none" d="m51.365,255.146c3.5803-6.021,10.9481-9.377,14.9246-18.743"/>
<path fill="none" d="m53.9257,262.217c7.0415,0.963,11.3117-3.118,19.7357-0.06"/>
<path fill-rule="evenodd" fill="#ed1c24" d="m55.125,264.109c-1.3286,0.657-2.8245,1.027-4.4073,1.027-5.4952,0-9.95-4.455-9.95-9.95,0-3.38,1.6844-6.366,4.2603-8.164,5.3937,3.559,9.3292,10.791,10.097,17.087z"/>
<path fill="#eac102" d="m306.932,220.731c2.597-2.777,2.813-5.896,2.319-9.668-12.027,4.993-17.034,2.326-22.098,7.118l-5.936,5.616v12.456l5.936,5.617c5.064,4.791,10.071,2.124,22.098,7.118,0.494-3.772,0.278-6.892-2.319-9.669,7.793-0.467,14.003-4.479,19.069-9.294-5.066-4.814-11.276-8.827-19.069-9.294z"/>
<path fill="none" d="m284.114,230.025h34.687"/>
<path fill="none" d="m282.609,233.998c10.17,6.304,14.353,4.446,21.869,9.7"/>
<path fill="none" d="m282.609,226.052c10.17-6.304,14.353-4.446,21.869-9.7"/>
<path fill="#eac102" d="m243.067,220.731c-2.597-2.777-2.812-5.896-2.319-9.668,12.028,4.993,17.035,2.326,22.099,7.118l5.936,5.616v12.456l-5.936,5.617c-5.064,4.791-10.071,2.124-22.099,7.118-0.493-3.772-0.278-6.892,2.319-9.669-7.793-0.467-14.003-4.479-19.068-9.294,5.065-4.814,11.275-8.827,19.068-9.294z"/>
<path fill="none" d="M265.886,230.025h-34.687"/>
<path fill="none" d="m267.391,233.998c-10.17,6.304-14.353,4.446-21.87,9.7"/>
<path fill="none" d="m267.391,226.052c-10.17-6.304-14.353-4.446-21.87-9.7"/>
<path fill="#eac102" d="m284.294,198.093c2.777-2.597,5.896-2.812,9.668-2.319-4.993,12.028-2.326,17.034-7.118,22.098l-5.616,5.936h-12.456l-5.617-5.936c-4.791-5.064-2.124-10.07-7.118-22.098,3.772-0.493,6.892-0.278,9.669,2.319,0.467-7.793,4.479-14.003,9.294-19.069,4.814,5.066,8.827,11.276,9.294,19.069z"/>
<path fill="none" d="M275,220.912v-34.687"/>
<path fill="none" d="m271.027,222.416c-6.305-10.17-4.446-14.353-9.7-21.869"/>
<path fill="none" d="m278.973,222.416c6.304-10.17,4.446-14.353,9.7-21.869"/>
<path fill-rule="evenodd" fill="#ed1c24" d="m275,219.925c5.578,0,10.1,4.522,10.1,10.1s-4.522,10.1-10.1,10.1-10.1-4.522-10.1-10.1,4.522-10.1,10.1-10.1z"/>
<path fill="#e3e4e5" d="m331.852,245.993c0,4.299,3.485,7.783,7.784,7.783,4.298,0,7.783-3.484,7.783-7.783s-3.485-7.783-7.783-7.783c-4.299,0-7.784,3.484-7.784,7.783z"/>
<path fill="#e3e4e5" d="m446.289,256.907c0,4.299,3.485,7.783,7.784,7.783,4.298,0,7.783-3.484,7.783-7.783s-3.485-7.783-7.783-7.783c-4.299,0-7.784,3.484-7.784,7.783z"/>
<path fill="#eac102" d="m447.665,239.971c-5.709,4.295-12.318,7.682-19.666,7.394,1.843,3.01,1.398,6.131,0.159,9.831-9.889-5.904-15.409-4.012-19.092-9.208l-4.362-6.155,2.581-12.406,6.679-4.98c5.751-4.288,11.564-1.418,22.04-4.965-0.32,3.795-1.166,6.875-4.156,9.383,7.155,1.217,12.098,5.832,15.816,11.106z"/>
<path fill="none" d="m408.646,236.122c15.058-0.18,19.315,1.751,32.576,3.205"/>
<path fill="none" d="m409.113,231.259c9.561-5.946,16.284-3.45,22.381-7.697"/>
<path fill="none" d="m407.34,241.262c6.52,6.349,11.51,4.12,17.167,9.492"/>
<path fill="#eac102" d="m412.483,184.801c1.956,6.672,4.948,12.704,2.046,20.33,3.122-2.311,7.015-3.14,10.425-2.286-6.76,10.344-5.287,16.364-11.193,21.26l-6.456,5.353-11.622-1.207-3.977-6.436c-3.363-5.442,0.09-11.554-2.087-22.638,3.614-0.126,6.474,0.389,8.523,3.237,2.045-7.695,7.764-14.127,14.341-17.613z"/>
<path fill="none" d="m397.938,225.93c-3.051-7.209-0.339-14.167-4.238-22.242"/>
<path fill="none" d="m405.922,227.417c7.743-7.821,7.297-14.944,13.018-20.705"/>
<path fill="none" d="m402.092,225.978c4.911-13.066,3.728-23.04,8.243-34.519"/>
<path fill="none" d="m394.399,229.946c-6.484-7.138-12.126-5.158-18.638-11.082"/>
<path fill="none" d="m392.806,238.405c-9.311,3.696-12.383,1.45-22.346,7.319"/>
<path fill="none" d="m391.685,234.361c-14.086-3.851-19.894-1.207-32.749-3.538"/>
<path fill-rule="evenodd" fill="#ed1c24" d="m390.508,235.014c0,5.537,4.488,10.025,10.025,10.025s10.025-4.488,10.025-10.025-4.488-10.025-10.025-10.025-10.025,4.488-10.025,10.025z"/>
<path fill="#eac102" d="m504.972,247.022c6.884-9.763,12.592-16.066,33.637-17.877-7.2-10.824-22.194-13.957-31.947-4.08-0.923-2.703-1.491-3.584-4.07-6.081-2.299,7.049-12.539,12.375-8.476,24.997l3.992,12.404z"/>
<path fill="none" d="m500.917,252.582c0.614-5.162-1.164-9.819-0.847-13.963,0.58-7.582,3.065-10.08,2.736-14.051"/>
<path fill="#eac102" d="m465.457,243.89c1.566,5.769,4.076,11.078,8.657,13.477-2.444,1.937-3.552,4.794-4.433,8.438,0,0,10.52-0.846,15.1,0.2,5.231,1.195,9.235-1.053,10.094-1.896l4.936-9.74c-3.797-6.772-4.544-10.491-7.389-14.177-2.84-3.68-7.486-6.913-10.859-9.803-1.481,3.395-2.327,6.361-1.621,9.606-4.873-1.527-9.905,0.679-14.485,3.895z"/>
<path fill="none" d="m497.219,258.812c-8.186-6.619-15.68-7.827-25.534-13.418"/>
<path fill="none" d="m498.635,255.146c-3.58-6.021-10.948-9.377-14.925-18.743"/>
<path fill="none" d="m496.074,262.217c-7.041,0.963-11.311-3.118-19.735-0.06"/>
<path fill-rule="evenodd" fill="#ed1c24" d="m494.875,264.109c1.328,0.657,2.825,1.027,4.407,1.027,5.496,0,9.95-4.455,9.95-9.95,0-3.38-1.684-6.366-4.26-8.164-5.393,3.559-9.33,10.791-10.097,17.087z"/>
<path fill="#e3e4e5" d="m103.711,256.907c0,4.299-3.485,7.783-7.7834,7.783-4.2986,0-7.7832-3.484-7.7832-7.783s3.4846-7.783,7.7832-7.783c4.2984,0,7.7834,3.484,7.7834,7.783z"/>
</g>
<g>
<path style="color:#000000;text-transform:none;text-indent:0;" fill="#ed1c24" d="m104.225,348.698c0,6.898,37.441,20.925,170.775,20.925s170.775-14.027,170.775-20.925-37.441-20.925-170.775-20.925-170.775,14.027-170.775,20.925z"/>
<path stroke-width="5.5" fill="none" d="m125.422,339.527v18.341"/>
<path stroke-width="5.25" fill="none" d="m131.859,338.038v21.319"/>
<path stroke-width="5" fill="none" d="m138.296,337.061v23.273"/>
<path stroke-width="4.75" fill="none" d="m144.733,335.852v25.692"/>
<path stroke-width="4.5" fill="none" d="m151.171,334.782v27.832"/>
<path stroke-width="4.25" fill="none" d="m157.608,333.851v29.693"/>
<path stroke-width="4" fill="none" d="m164.045,332.921v31.553"/>
<path stroke-width="3.75" fill="none" d="m170.482,332.13v33.135"/>
<path stroke-width="3.5" fill="none" d="m176.92,331.618v34.159"/>
<path stroke-width="3.25" fill="none" d="m183.357,331.014v35.368"/>
<path stroke-width="3" fill="none" d="m189.794,330.083v37.229"/>
<path stroke-width="2.75" fill="none" d="m196.232,329.571v38.253"/>
<path stroke-width="2.5" fill="none" d="m202.669,329.339v38.718"/>
<path stroke-width="2.25" fill="none" d="m209.106,328.78v39.834"/>
<path stroke-width="2" fill="none" d="M215.543,328.315v40.765"/>
<path stroke-width="1.75" fill="none" d="m221.981,328.036v41.323"/>
<path stroke-width="1.5" fill="none" d="m228.418,327.618v42.16"/>
<path stroke-width="1.25" fill="none" d="m234.855,327.338v42.719"/>
<path stroke-width="1px" fill="none" d="m241.292,326.501v44.394"/>
<path stroke-width="0.75" fill="none" d="m247.73,326.501v44.394"/>
<path stroke-width="0.5" fill="none" d="m254.167,326.501v44.394"/>
<path stroke-width="0.25" fill="none" d="m260.604,326.501v44.394"/>
<path stroke-width="6" fill="none" d="m112.547,343.946v9.502"/>
<path stroke-width="5.75" fill="none" d="m118.984,341.574v14.248"/>
<path stroke-width="5.5" fill="none" d="m424.579,339.527v18.341"/>
<path stroke-width="5.25" fill="none" d="m418.142,338.038v21.319"/>
<path stroke-width="5" fill="none" d="m411.704,337.061v23.273"/>
<path stroke-width="4.75" fill="none" d="m405.267,335.852v25.692"/>
<path stroke-width="4.5" fill="none" d="m398.83,334.782v27.832"/>
<path stroke-width="4.25" fill="none" d="m392.393,333.851v29.693"/>
<path stroke-width="4" fill="none" d="m385.955,332.921v31.553"/>
<path stroke-width="3.75" fill="none" d="m379.518,332.13v33.135"/>
<path stroke-width="3.5" fill="none" d="m373.081,331.618v34.159"/>
<path stroke-width="3.25" fill="none" d="m366.643,331.014v35.368"/>
<path stroke-width="3" fill="none" d="m360.206,330.083v37.229"/>
<path stroke-width="2.75" fill="none" d="m353.769,329.571v38.253"/>
<path stroke-width="2.5" fill="none" d="m347.332,329.339v38.718"/>
<path stroke-width="2.25" fill="none" d="m340.894,328.78v39.834"/>
<path stroke-width="2" fill="none" d="M334.457,328.315v40.765"/>
<path stroke-width="1.75" fill="none" d="m328.02,328.036v41.323"/>
<path stroke-width="1.5" fill="none" d="m321.583,327.618v42.16"/>
<path stroke-width="1.25" fill="none" d="m315.145,327.338v42.719"/>
<path stroke-width="1px" fill="none" d="m308.708,326.501v44.394"/>
<path stroke-width="0.75" fill="none" d="m302.271,326.501v44.394"/>
<path stroke-width="0.5" fill="none" d="m295.834,326.501v44.394"/>
<path stroke-width="0.25" fill="none" d="m289.396,326.501v44.394"/>
<path stroke-width="6" fill="none" d="m437.453,343.946v9.502"/>
<path stroke-width="5.75" fill="none" d="m431.016,341.574v14.248"/>
</g>
<g>
<path style="color:#000000;text-transform:none;text-indent:0;" fill="#eac102" d="m466.107,309.063c0,10.34-24.162,17.019-57.01,21.251h-268.194c-32.849-4.232-57.0102-10.911-57.0102-21.251,0-23.313,122.822-28.016,191.106-28.016,68.285,0,191.107,4.703,191.107,28.016zm-370.491,0c0,2.281,41.1363,17.988,179.384,17.988s179.385-15.707,179.385-17.988-41.137-17.988-179.385-17.988-179.384,15.707-179.384,17.988z"/>
<path style="color:#000000;text-transform:none;text-indent:0;" fill="#eac102" d="m376.697,330.311,67.855,14.837c2.537-12.255,6.504-22.804,12.908-33.941,0-9.429-73.228-20.924-182.46-20.924-109.233,0-182.46,11.495-182.46,20.924,6.4032,11.137,10.37,21.686,12.908,33.941l67.854-14.837z"/>
<path fill-rule="evenodd" fill="#008f4c" d="m154.94,306.039,35.129-3.359c3.525-0.337,6.633,2.238,6.971,5.774,0.337,3.536-2.229,6.654-5.753,6.991l-35.129,3.359c-3.525,0.337-6.634-2.238-6.971-5.774s2.228-6.654,5.753-6.991z"/>
<path fill="#e3e4e5" d="m136.333,315.954a7.7835,7.7835,0,0,1,-7.783,7.783,7.7835,7.7835,0,0,1,-7.784,-7.783,7.7835,7.7835,0,0,1,7.784,-7.784,7.7835,7.7835,0,0,1,7.783,7.784z"/>
<path fill="#e3e4e5" d="m230.057,307.476a7.7835,7.7835,0,0,1,-7.783,7.783,7.7835,7.7835,0,0,1,-7.784,-7.783,7.7835,7.7835,0,0,1,7.784,-7.784,7.7835,7.7835,0,0,1,7.783,7.784z"/>
<path fill="#ed1c24" d="m93.8799,327.308,2.6279-8.571,14.0682,1.924-8.554,11.418z"/>
<path fill="none" d="m93.8799,327.308,16.6961-6.647"/>
<path fill-rule="evenodd" fill="#008f4c" d="m395.06,306.039-35.129-3.359c-3.525-0.337-6.633,2.238-6.971,5.774-0.337,3.536,2.229,6.654,5.753,6.991l35.129,3.359c3.525,0.337,6.634-2.238,6.971-5.774s-2.228-6.654-5.753-6.991z"/>
<path fill="#e3e4e5" d="m429.235,315.954a7.7835,7.7835,0,0,1,-7.783,7.783,7.7835,7.7835,0,0,1,-7.784,-7.783,7.7835,7.7835,0,0,1,7.784,-7.784,7.7835,7.7835,0,0,1,7.783,7.784z"/>
<path fill="#e3e4e5" d="m335.511,307.476a7.7835,7.7835,0,0,1,-7.783,7.783,7.7835,7.7835,0,0,1,-7.784,-7.783,7.7835,7.7835,0,0,1,7.784,-7.784,7.7835,7.7835,0,0,1,7.783,7.784z"/>
<path fill="#ed1c24" d="m456.12,327.308-2.628-8.571-14.068,1.924,8.554,11.418z"/>
<path fill="none" d="m456.12,327.308-16.696-6.647"/>
<path fill="#ed1c24" d="m255.928,299.592-9.91,6.685,9.91,6.684h38.145l9.91-6.684-9.91-6.685z"/>
<path fill="none" d="m255.928,299.592,9.16,5.983-9.16,7.386"/>
<path fill="none" d="m294.073,299.592-9.16,5.983,9.16,7.386"/>
<path fill="none" d="m303.983,306.277-19.07-0.702h-19.825l-19.07,0.702"/>
<path style="color:#000000;text-transform:none;text-indent:0;" fill-rule="evenodd" fill="#eac102" d="m109.582,348.698c0-2.154,38.738-16.566,165.419-16.566s165.418,14.412,165.418,16.566-38.738,16.566-165.418,16.566c-126.681,0-165.419-14.412-165.419-16.566zm-10.8099,0c0-21.985,117.737-25.802,176.228-25.802,58.492,0,176.228,3.817,176.228,25.802s-117.736,25.802-176.228,25.802c-58.491,0-176.228-3.817-176.228-25.802z"/>
</g>
</g>
<g transform="matrix(0.25025024,0,0,0.25025024,-647.30559,853.5606)" stroke-miterlimit="4" stroke-width="1">
<path stroke-dashoffset="0" fill="#008f4c" d="m25.5,360.5v474.25c0,68.8975,55.8525,124.75,124.75,124.75h62.375c27.289,0,50.92,16.163,62.375,39,11.455-22.837,35.086-39,62.375-39h62.375c68.8975,0,124.75-55.8525,124.75-124.75v-474.25z"/>
<path fill="#eac102" d="m25.5,360.5,0,72.1875l234.234,281.1755,70.999-59.145-245.108-294.218z"/>
<path fill="#ed1c24" d="m25.5,360.5,0,61.375,239.559,287.552,60.349-50.274l-248.783-298.653z"/>
<path stroke-dashoffset="0" fill="#eac102" d="m275,998.5c11.455-22.837,35.086-39,62.375-39h62.375c68.8975,0,124.75-55.8525,124.75-124.75v-474.25h-249.5z"/>
<path stroke-dashoffset="0" fill="#e3e4e5" d="m25.5,660,0,174.75c0,68.8975,55.8525,124.75,124.75,124.75h62.375c27.289,0,50.92,16.163,62.375,39,11.455-22.837,35.086-39,62.375-39h62.375c68.8975,0,124.75-55.8525,124.75-124.75v-174.75z"/>
</g>
<g transform="matrix(0.25025024,0,0,0.25025024,-647.30559,853.5606)" stroke-miterlimit="4" stroke-dasharray="none" stroke-width="1">
<g transform="translate(-1664.7585,-536.60352)">
<path fill="#008f4c" d="m2008.747,955.5834-6.345,15.2326,3.8236,11.8917-20.2925,4.8582-4.3575,11.8812-7.0712,13.5208,5.8508,20.7135-11.3467,8.7483,0,16.2689,8.0175,12.6848,12.6559,7.2717,5.583,5.3533,10.3361,3.6693,17.5158,2.6757,11.8882-9.1832,14.5212,0.4876,14.4714,4.5542,12.1473-0.3461,19.7082-0.8693,9.7353,5.3568,16.4019-3.4171,1.9543-13.1438,20.4558,7.4837,15.608-12.1659,0-14.5179-9.0143-9.2655-6.7607-14.8041,9.5179-10.3672-0.049-13.1645-5.3064-9.3759-11.3403-14.2159-8.9151-6.8647-13.2371-16.7079-6.9002-5.7856-11.2354-2.7628-7.6486-11.1807-22.6764-3.7442-15.1482,0-17.7777,2.849-10.9792,7.8202z"/>
<g fill-rule="evenodd" fill="#008f4c" transform="translate(1088.1621,315.03435)">
<path d="m956.94104,756.26465c-5.17089,1.73209,6.79394,2.86696,4.07223,5.82522-1.18035,1.28293-2.07566-0.37272-1.38386,3.2207,0.63359,3.29105-7.34264,1.33031-7.93706,2.62366-1.6244,3.53436-3.72995,1.25033-5.08818,3.17085-1.95062,2.75814-1.74968,2.87768-3.80468,2.87492-2.87061-0.004-3.95397,5.37429-7.49082,4.60073-2.30616-0.5044-3.19266,2.82598-5.62229,1.36447-4.35544-2.61996-0.34264-0.99557-3.32564-4.61389-1.76868-2.14538-7.01418,3.45837-5.24029-1.56119,1.78929-5.06317-6.07527,4.76139-6.21457,3.33825-0.17384-1.77596,2.21264-5.52097-0.78662-2.66923-1.30026,1.23632-1.91099-3.64304-2.85731,0.38068-0.84651,3.59929-0.5913-5.17376-0.75011-4.94342-2.7683,4.0151-5.90963,2.28268-4.77798-1.82223,0.41946-1.52154-4.25533,6.49988-4.42032,2.68239-0.14984-3.46694-0.75276-0.74051-2.34495-0.4745-3.04615,0.50893,2.73435-2.9654-1.62964-4.26791-3.03895-0.90702-0.45224-4.34561-1.18724-5.4583-1.25307-1.89696-2.24547,3.20439-2.92477,2.22743-1.10748-1.59277-0.28252-2.0896-1.51986-0.68837-2.20418,2.49613-1.71549,0.67492-1.92528-1.57695-0.29425-3.15848-3.83479,3.83726-4.59557-0.14966-0.85853-4.49915-3.54272,4.52983-3.85757-1.90707-0.10176-2.08065,0.39213-3.80829-0.50892-4.83464-1.27839-1.45616,0.27593-4.24738-0.85946-4.24578-3.94431,0.006,2.01235-3.39537-2.29322-4.69156-2.22214-0.66898,0.86858-4.2533,0-7.66719-0.59064-2.32143,2.60404-0.7591,3.09693-3.87986,0.2171-1.37456,0.93877-0.69433-0.005-2.58068-0.96115-1.92117-2.37385-1.61996-2.03076-3.21931,0.70791-3.30007,3.77214-0.59201,3.63906-2.55207-0.17416-2.56532,7.82905-1.74909,3.89912-3.88804-3.41845-1.86056,3.06816-2.52195,3.65445-5.93359,0.62813-3.6551,8.43209,3.1276,9.87182,1.79321,0.64312-0.59608-0.16563-1.68723-0.0278-2.59325"/>
<path d="m906.19225,720.41c-0.74031-1.12608-2.28457,1.92561-3.50236-0.10021-1.68038-2.79532-2.22611,3.90339-4.65723,2.16243-1.30112-0.93176-0.094-3.04904-2.75297-1.67327-2.85175,1.47556,1.61538-2.18405-1.75616-1.08271-3.18116,1.03916,2.71566-3.93339-1.07428-2.82397-1.45769,0.42671,1.32786-3.24511-1.82473-3.05259-3.62155,0.22114-1.74449-3.42133-4.95687-3.47426-3.95965-0.0652,2.93226-3.84453-1.19286-2.98739-2.83794,0.58969-1.6082-0.632-1.6903-2.20828-0.0692-1.32891-2.24726-2.42541,0.2682-2.66295,4.13113-0.39011-3.01253-1.15166-2.48204-2.12174,0.67293-1.23059,4.70949-0.11314,1.96315-1.24543-1.04912-0.43254,0.54069-0.81678-0.66051-1.64435-1.95342-1.34581,0.27006-1.00354,2.88976-0.93225,1.47505,0.0402,1.03008-1.4603,4.24517-1.80258,1.13469-0.1208-5.64208-0.76689-2.69958-1.9679,2.30859-0.94227,0.81909-0.34637,0.0165-1.49818-1.16935-1.67812,6.79279-1.10137,2.77-1.694-3.63747-0.53587-0.48308-3.28064,1.51793-2.35555,0.99931,0.46199-0.6615-2.35966,0.27635-3.49031,1.15557-1.39313,2.57939,0.26225,0.88441-1.09886-1.43372-1.1513-1.49124-1.82218-0.0784-2.31477,1.54155-0.53749-1.95283-1.11323-1.62898-2.01895,0.56826-1.58926,3.09741-2.19631,0.0967-2.62336-3.64961-0.51941,2.26805-1.73394,3.48603-2.35087,2.45637-1.24419-0.26105-0.21034,2.51792,0.12583,1.79912,0.21764,3.97765-2.01701,0.78005-1.3213-2.3198,0.50472,2.64537-2.31535-1.16607-1.95114-1.81269,0.17321-0.76646-2.99129,1.66844-2.47321,1.90794,0.40595-0.0487-2.53106,2.32392-1.19677,1.45012,0.81552,4.31183,2.41984,6.05545,1.8987,1.34969-0.4034,1.30923,2.26507,3.72212,1.63498,2.00158-0.52269,2.54541-0.62554,2.35075,0.80353-0.12803,0.93994,1.41397,2.13287,2.15529,0.66942,0.75712-1.49466-0.70964-2.08585,0.11559-1.9654,2.96333,0.43249,1.14956-1.66807,2.1355-1.99711,1.86813-0.62345,2.08758,4.29474,3.30167,1.43507,1.06644-2.51189,2.42195,1.20284,5.18648,0.63841,2.49379-0.50914-0.54657,4.17765,1.08889,4.25625,0.61964,0.0298,1.08579-0.53831,1.71593-0.67411"/>
<path d="m986.42858,646.89258c-1.65536-0.76993,2.96046-2.84999-0.13262-4.14847-3.98225-1.67175,5.61543-3.17374,3.20572-5.73827-1.61471-1.71845-4.51452,0.22221-2.45176-3.10694,2.16212-3.48952-3.61954,2.95515-1.9789-1.16247,1.54137-3.86845-7.60886,6.15436-5.88637,1.35381,0.60576-1.68826-0.26059-4.42323,0.0377-8.19483,0.34106-4.31191-4.54432-1.34649-5.25955-5.36149-0.82365-4.6236-6.6966,3.82057-5.42397-1.12807,0.89019-3.46153-0.91685-1.84888-3.24485-1.79421-1.83925,0.0432-3.65166-3.28627-3.92275,0.5763-0.34601,4.93017-3.55857-1.13037-4.32139,0.21756-0.84521,1.49353-0.20796,5.56297-1.84276,2.45027-0.67138-1.27831-3.32365,3.52001-2.4193-0.62495,0.70478-3.23026-4.89328,0.61206-4.92413,0.43092-0.71877-4.22055-3.76512-0.1942-4.28118,3.64097-0.18108,1.34564-1.03898-6.75461-2.88485-3.01561-1.34371,2.72181-0.70484,0.9046-2.20712,0.15335-2.65079-1.32559-1.65145,8.17705-2.5072,3.45261-0.774-4.27302-4.39054,1.58035-3.00552,3.91905,0.66086,1.11592,0.513,1.34436-1.08234,2.51109-1.72253,1.25974-0.52912,0.51126-2.43159-1.28092-1.80922-1.70435-1.28962,1.85212-1.98611,3.49379-0.91331,2.15276-1.89737-2.11681-2.96631-1.73907-2.1176,0.74833-3.24749,3.89318-3.86409,0.36772-0.74943-4.28488-2.56423,2.86112-3.47809,4.36572-1.84473,3.03721,2.75043,1.10979,2.34869,4.44449-0.14734,1.22296,0.11138,1.3027-1.26284,2.08735-1.14956,0.65637-2.65831-2.8435-2.86852-1.19578-0.67681,5.30502-1.48564,3.27655-1.06148,4.98121,0.55581,2.23375-3.75075,0.15379-1.77317,2.87462,1.1745,1.61594-1.77617-0.73141-2.68078,1.74356-0.62157,1.70061,3.37955,1.18134,2.39072,4.26053-0.74924,2.33313,0.58037,1.93537,2.63343,1.95304,1.15654,0.01,0.36567,1.44201-0.0389,2.15355-1.0518,1.84977-3.53428,0.35232-3.34126,1.42859,0.62907,3.5077-2.37231,1.30612-2.95083,2.72805-0.87552,2.15193,6.35023,2.04988,2.0987,3.78145-3.651,1.48699,1.86206,2.35957,0.91697,6.09652-0.74614,2.9503,6.15573-1.04814,6.26383,0.882,0.0436,0.77835,3.50022,7.27115,3.29744,8.03221"/>
<path d="m1032.1018,675.07631c-0.6927-1.65522,3.8085,0.74726,2.3995-2.33641-1.7345-3.79599,5.8113,2.18836,5.6837-0.69416-0.1068-2.41104-3.3266-3.25887,0.1545-3.51254,3.5635-0.25967-1.9264-1.26263,1.7004-2.25714,3.3911-0.92988-0.4445-1.92708,0.1614-3.2891,0.5984-1.34512-4.9463-3.96147-3.4644-5.42709,2.4898-2.46228-2.4651-4.70935-0.2231-6.81031,2.7664-2.5924-6.2245-2.1953-2.3893-3.9002,2.7289-1.21311,0.4503-1.70509-1.1875-3.39858-1.2748-1.31822-0.5692-4.51204-3.0836-2.62735-3.1978,2.39693-1.7247-3.28503-3.1468-3.12009-1.4192,0.16461-3.4672,2.76888-2.7579-0.0598,0.3246-1.29456-0.7815,0.65538-2.9149,2.44589-2.0635,1.7319-4.3571-1.635-3.696-3.45491,1.1865-3.2667-1.6198-4.83825-4.2757-3.16347-0.9275,0.58492,3.4635-4.44582-0.2025-3.78803-2.4655,0.44237-1.1147-0.24301-1.6328-1.57047-1.0988-2.81604-6.0541,3.1595-3.823-0.0199,2.0427-2.91099-3.5093-0.9023-4.4514-0.13819-0.8204,0.66534,1.247-4.17949-0.089-4.28107-1.7183-0.1306-0.4471-0.0762-0.6826-2.31498-0.2546-2.42002,0.2067-1.96066-2.2262-2.97652-2.09504-0.87475-2.49014-1.89881-3.69302-1.95453-1.03917-0.0482-2.35524,1.00951-2.08051,2.8145,0.33069,2.17271-0.74853,1.46722-2.14884,2.12154-1.08333,0.50621-1.13517,0.15613-2.6524-1.38073-1.08673-1.10078-0.55893-0.70265-2.22097,1.46927-1.15416,1.50823-2.97495,0.0106-1.99345-0.89147,1.67592-1.54022,0.0886-0.015-1.62691-2.14687-0.96478-1.19898-1.32718-1.64412-3.07177-1.29339-1.82055,0.366-2.35286-1.21955-4.01553-0.69285-1.62546,0.51491-3.95153,4.26261-6.41717,5.02797-1.60864,0.49934,3.73619,2.88737,1.05453,3.85941-1.85682,0.67306,2.03993,0.83211,3.37069,2.33233,0.61973,0.69864-0.85059,1.69801-1.89237,1.93668-1.79706,0.41171-3.3525-2.57519-3.95075-1.727-1.7168,2.43405-2.21553-1.13248-3.69804-0.73882-1.8119,0.48113,3.23876,5.88413-0.80607,3.61244-3.39319-1.90571,0.24172,2.50457-3.02115,3.97428-2.33985,1.05394,4.93758,4.03441,3.84202,5.16836-0.46224,0.47844-1.36223,0.12642-1.96088,0.38446"/>
<path d="m1044.2497,724.67684c-1.55-3.63258,3.1075-0.091,3.9088-5.68403,1.1181-7.80369,8.9698-2.89078,9.6227-2.89058,1.1936,0.0001,1.2901,1.40494,2.2954,2.72915,2.5878,3.40824,1.6075,0.98003,3.554,4.35197,1.0349,1.79268-2.5582,3.56361,2.1324,3.72182,4.2809,0.14439-3.796,1.35655,0.6765,2.18555,4.9395,0.91558-2.9702,3.26733,2.6163,4.46922,1.9775,0.42546-0.6111,1.16517,3.0742,3.11232,3.0703,1.62224,1.056,3.39296,1.3452,5.48901,0.2453,1.7776,3.7206,2.16102,1.7894,3.77716-3.9587,3.31288,0.6876,1.30345,0,4.58977-0.6633,3.17015,0.011,6.19917-2.4257,5.93728-6.4663-0.69509,1.0277,7.86822-3.6455,5.78993-2.0058-0.89201-4.2499-1.35234-2.0428,0.5744,0.5901,0.51512,0.2542,2.6932-0.8582,2.17948-3.8327-1.76998-5.8866-2.63033-5.0879-1.67307,2.4508,2.93722,1.3919,4.64063-2.894,3.37873-2.422-0.71308,6.1395,3.57354,1.3848,3.7996-2.561,0.12176-2.7979-2.87245-3.921-1.07723-1.4043,2.24472-6.9806-7.39374-9.3047-6.28366-2.2393,1.06959,0.046,4.33886-2.554,2.17139-1.6879-1.40694-2.3487-2.32661-4.6031-1.73807-2.8338,0.73977-1.7985-1.40642-1.7399,1.0179,0.086,3.5755-2.7984,6.29316-0.4525,9.68952,3.0387,4.39945-3.5687-2.09047-0.9028,3.44265,1.5312,3.17783-4.1992-0.20912-6.2119-0.442-3.2629-0.37753,0.5831-2.47263-3.0696-2.79785-1.3282-0.11827-0.954,0.35227-2.0685,0.36403-2.1659,0.0228-5.2559,0.737-0.6154,2.7443,1.6209,0.70114-1.7451,3.053-3.2155,2.67202-2.8701-0.74365-1.9161,0.0256-4.6388-1.27244-1.8262-0.87068-1.7766-1.67882-4.3683-2.26502-1.5852-0.35855-0.7373,2.4259-4.0887,1.44503-4.4768-1.31023,1.5891-2.67328-2.1095-3.66289-1.5002-0.40138-1.8047-0.10928-2.3257-0.93654-0.5459-0.86664-1.5524-3.49622-3.0024-2.68528-1.22681,0.68606-4.38003,1.24331-5.33794-1.42151-0.65072-1.81026,4.67563-4.17097,1.76988-2.103-3.55013,2.52657-2.09798-2.49636-5.9302-3.98335-2.61514-1.01472,3.66409-3.73565,2.81501-5.06595-0.2506-0.39264-4.21845,0.35824-5.46043-1.10445-1.37315-1.61703-0.23513-5.15459-0.73836-5.29239"/>
<path d="m1022.2247,735.09628c-1.1062-1.55451,3.1402-0.78615,0.86-3.54694-3.0083-3.6422,5.9248,0.18612,3.9963-3.06237-1.354-2.28087-3.3297-2.41668-0.9555-3.9651,2.1794-1.42142-3.3853,0.15438-1.0911-2.32694,2.1596-2.33569-3.7389-1.62352-1.3743-5.04901,1.0601-1.53567-8.1437,0.33012-7.1786-2.85647,1.0487-3.46209-3.2443-2.76885-2.3383-6.6117,0.5695-2.41514-5.7067-2.30076-3.0856-5.88414,2.3622-3.22951-0.061-1.67656-0.9344-5.21871-0.7201-2.91947-2.7175,4.7136-4.0027,0.57351-0.5925-1.90861-1.45-3.40895-2.349-1.00903-0.7726,2.06245-0.6374,1.21346-1.5536-0.62565-0.4448-0.89302-3.30727,0.83051-1.8339-1.39738,1.6483-2.49237-4.12673-2.48349-4.11105-2.58258,0.4809-3.04026-2.13397-5.02881-4.05194-2.20889-1.07694,1.5834,1.59059-5.48509-1.6894-4.04726-1.62046,0.71034-1.02846,1.77299-2.04886-0.85797-1.05724-2.72597-3.73826,3.0337-3.54056,2.476,1.22271-3.44926-2.43363-4.33178-3.0283-1.19747-0.31258,1.64749,1.00503,2.89019-1.65962,3.17603-2.23171,0.2394-0.4083,1.63595-1.75762-0.3745-2.11666-3.15376-3.49924,5.29243-4.32976,0.44719-0.6217-3.62694-4.22538,1.35109-3.4652-3.11213,0.75875-4.45484-4.48325-0.0183-4.1416,1.45402,2.43663,10.50084-3.07544,5.30358-2.6053,3.16247,0.36424-1.65877-3.42993-3.39502-3.52021-0.52246-0.0812,2.58399-3.37373-1.80035-2.24774,1.80827,0.58387,1.87118-0.0533,1.67596-1.16562,3.59788-1.09862,1.89822,2.10028,2.96721,0.87945,5.08271-1.74838,3.0297,5.75977,2.90979,3.31,5.02947-1.81648,1.57171-3.12681,0.97055-4.84132-1.09996-0.55088-0.66525-0.0858,3.09809-2.31308,1.00554-2.73005-2.56494,2.04651,4.37564,1.26938,4.01296-1.80298-0.84145-3.95823-0.85929-2.13881,1.94257,1.19372,1.8383-0.19756,2.21591-0.13713,3.60537,0.12398,2.85094,4.96849,2.119,5.13882,3.82741,0.0676,0.67826-1.09225,0.78279-1.50432,1.35281"/>
<path d="m1022.441,674.15901c1.621,0.5442,1.0188-3.16947,3.7529-2.14178,3.9022,1.46675-0.4894-4.93865,3.2709-4.91839,1.9038,0.0103,2.394,2.67069,4.144-0.24528,1.9018-3.16873-0.057,2.99492,2.6554-0.14238,2.5666-2.96922,3.0971-1.32303,6.1542-4.64131,1.3015-1.41264,1.871,2.42479,3.6366,1.91505,2.4669-0.7122,2.7079-2.31956,3.9496-1.71205,0.8987,0.4397,2.0209,6.42671,3.4536,5.58433,4.201-2.46997-0.2208,5.35575,3.4904,1.93409,2.5173-2.32081,2.2251-0.38688,3.4292,0.91441,1.1351,1.22681,4.9625,0.36585,1.7127,2.57271-4.1955,2.84916,2.9552,1.54681,2.2559,2.6111-0.9106,1.38607-4.8252,3.09693-1.1287,2.3741,1.4374-0.28107-1.0459,3.63507,1.9255,1.06246,2.61-2.25971-0.8441,3.63971-0.6669,3.5611,4.1491-1.84044,5.435-1.71208,2.3024,0.65746-1.1146,0.8431,5.9687,0.0809,3.8235,2.97822-1.7707,2.39157-0.6078,0.8279,1.1142,1.3563,2.3703,0.7273-6.2714,5.30585-1.6397,3.29268,4.2546-1.84924,1.0365,3.38734-1.7719,3.83031-1.3645,0.21522,1.6189-0.39048,1.4607,1.47973-0.1881,2.22472-2.8881,1.40846-0.1051,1.55492,2.3354,0.1229-0.7504,1.54093-1.9721,3.0145-1.1512,1.38858,0.5736,1.00224,0.9579,2.16332,0.5947,1.7967,0.7252-0.2173,1.8642,1.04642,2.1045,2.33514-1.0826,3.00849-1.8999,4.34199-1.6467,2.68686-0.9546-1.80076-3.2605,0.68907-1.184,1.27844-3.0856,0.0344-3.696,1.73059-0.6676,1.85552-0.6172,0.21188,0.1006,3.29369,0.5521,2.3703,1.9521,2.25118-1.5442,2.56025-2.1231,0.18769,2.8494,1.23448,2.3679,3.19268-0.5682,2.3108-3.9502-0.40633-5.9422,1.6286-1.785,1.82326-2.4578,0.23432-3.2881-1.1203-0.633-1.03268-2.2371-0.79679-1.8876,1.17324,0.3374,1.90141,1.676,2.90809,0.6919,3.33726-3.4992,1.52596,0.01,2.27723-0.7469,3.16157-1.5914,1.8659-5.4187-2.57941-4.5423,0.80992,0.7556,2.92166-3.6049,0.60643-5.924,2.72965-2.4044,2.20127-2.5229-4.13396-4.332-3.14473-0.6335,0.34637-0.737,1.17753-1.2968,1.70138"/>
<path d="m919.90572,695.92581s0.63168,0.38673,0.52836,0.6451c-0.38117,0.9532-2.52575-0.51829-3.04718,0.36542-0.66001,1.11859,3.35188,4.60305,1.44872,3.61913-2.50521-1.29518-8.12425-1.5225-6.41456-0.3055,0,0,3.36143,0.98308,3.24238,2.30799-0.12771,1.42138-4.06345,0.39788-3.86367,1.81086,0.14112,0.99809,2.66642-0.49319,2.97588,0.46583,0.31325,0.97072-2.24629,1.13874-2.16443,2.15584,0.10721,1.33207,3.29059,0.99396,3.24942,2.32973-0.0257,0.83509-2.14823,0.49266-2.11727,1.32758,0.0529,1.42698,3.17592,0.69824,3.77669,1.99252,0.59934,1.29122-1.33591,2.81772-0.90686,4.17559,0.35755,1.13161,2.27541,1.26875,2.61544,2.4058,0.3292,1.10086-1.46129,2.38221-0.83548,3.34464,0.85839,1.32011,4.14797-0.70424,4.64383,0.79166,0.39885,1.20322-2.84546,1.51167-2.61007,2.75757,0.25325,1.34042,2.75735,0.7406,3.69507,1.7279,0.76576,0.80625,0.21513,2.72066,1.26075,3.09338,1.35375,0.48256,2.4308-2.56547,3.78175-2.07508,1.30392,0.47332,0.19841,3.49885,1.53094,3.88355,1.21912,0.35195,1.92597-2.82203,3.06603-2.26353,0.64555,0.31625-0.42058,1.62913,0.0626,2.16282,0.73693,0.81403,3.02072-0.66414,3.26133,0.4091,0.18316,0.81697-3.05484-0.22636-2.11021,1.34962,1.10584,1.84495,3.28721,0.75651,5.07745,2.11097,1.38032,1.04431-0.78335,4.89646,0.99623,4.19881l3.94549-1.54673c1.34757-0.52829-3.42718,4.83765-0.93119,4.17917,0,0,2.91132-1.96655,3.80966-1.00504,0.47262,0.50586-0.9926,1.37061-0.65326,1.97478,0.39731,0.7074,1.58488,0.74859,2.3663,0.53901,1.17932-0.3163,1.75021-3.27342,2.69169-2.49325,0.61658,0.51095-1.23448,1.2455-1.26214,2.04776-0.0199,0.57478,0.28251,1.28208,0.80101,1.5264,0.91454,0.43094,2.17117-0.002,2.96515-0.62934,1.16328-0.91891,0.44635-3.84048,1.9153-4.02254,0.52474-0.065,0.48301,1.21528,1.01162,1.22678,0.8134,0.0177,0.85403-2.04146,1.63667-1.81823,0.77678,0.22155-0.0785,1.76865,0.43711,2.39264,0.48441,0.58616,1.4148,1.08939,2.12421,0.81968,0.80158-0.30474,0.35629-2.08003,1.18747-2.29014,0.78976-0.19964,1.79245,0.59499,2.01986,1.38023,0.17265,0.59613-1.07098,1.1892-0.73468,1.71015,0.74573,1.15519,3.2404-1.00731,4.1126,0.0548,0.83185,1.01301-1.70814,3.04481-0.69626,3.87637,1.09297,0.89818,2.65207-0.98327,3.93864-1.56828,0.92998-0.42286,2.47863-0.40625,2.72654-1.40067,0.2465-0.98876-1.53789-1.51169-1.73786-2.51099-0.20384-1.01867-0.16937-2.41278,0.64939-3.04811,0.8459-0.65637,2.78701-0.84606,3.20396,0.14238,0.36686,0.86972-2.18052,1.22825-1.87182,2.12045,0.40752,1.17777,3.32611-0.54116,3.66707,0.65776,0.21167,0.74429-1.75677,0.78081-1.7185,1.55391,0.0585,1.18257,1.67247,2.15571,2.85046,2.1035,1.10091-0.0488,1.38125-2.125,2.48109-2.19383,0.81285-0.0508,1.29087,1.74466,2.01996,1.38023,1.29945-0.64955-0.89373-3.42724,0.21557-4.36732,0.58611-0.4967,1.8667,0.92082,2.28448,0.27499,0.69171-1.06932-2.2817-2.05353-1.95204-3.28491,0.18569-0.69361,1.47456-0.45238,1.87528-1.04731,0.4132-0.61345,0.67647-1.5807,0.27833-2.2041-0.46508-0.72819-1.85759-0.16473-2.4659-0.77731-0.57868-0.58275-2.02338-3.19978-0.72962-2.35765,1.54295,1.00434,3.62609-0.99923,4.59329,0.54659,0,0,0.46691,2.00095,1.25033,1.99831,0.79944-0.003,0.47063-1.93563,1.26224-2.04776,1.17598-0.16657,2.63995,2.40251,2.63995,2.40251,1.20912,1.10037,0.23126-3.06546-2.4364-4.8491-1.50073-1.00341,3.09154,2.11969,4.11628,1.12917,1.03719-1.00256-1.7147-2.98157-0.97875-4.22404,0.3087-0.52117,1.54885,0.0894,1.7465-0.48357,0.20117-0.58321-1.09364-1.49081-1.09364-1.49081-1.17496-1.60166-6.73354-1.91175-4.94182-2.65257l2.80161-1.15838c0.0138-0.006-0.0228-0.014-0.0288-0.0249"/>
<path d="m1006.0256,684.66333c-1.0221-1.0861,4.5458-0.15839,2.3835-2.27718-2.4037-2.35528,6.9812,0.67906,6.3393-1.77168-0.5882-2.2458-4.2405-1.70448-0.3281-2.66255,3.9884-0.97665-4.2034-0.16069-0.2307-1.70676,3.7008-1.44024-5.018-1.31525-0.2562-3.3228,1.1718-0.49401-5.4766-0.90377-2.9013-2.82866,2.8739-2.14809-3.4613-2.9865-1.2283-5.04731,2.7684-2.55496-7.3144-0.29719-3.2656-2.39185,2.9629-1.53283,0.4412-1.29918-1.8322-2.28137-1.446-0.62475-1.2599-3.27496-3.8695-1.287-3.2472,2.47369-2.42771-2.07729-4.01177-1.64126-1.53093,0.42141-3.55577,2.97439-3.13296,0.56394,0.17768-1.01297-5.38958,0.69267-1.79535-1.31891,2.27469-1.27309-4.76205-1.66388-4.68216-1.77128,1.90089-2.55551-2.56649-3.23822-5.2968-1.4252-0.92688,0.61549,3.32179-4.10134-0.77221-2.78987-2.61595,0.83799-1.32182,0.0362-2.07458-0.81539-1.85886-2.10299-6.49307,3.82083-4.33313,0.83045,1.81256-2.50945-4.89414-0.96145-5.06266,0.87821-0.0863,0.94181-0.90338,0.92332-2.48635,0.90602-1.69915-0.0185-1.55649,1.61031-2.154-0.0409-0.68443-1.89138-2.75707,0.64616-3.89058,1.06495-2.37083,0.87594-0.84725-1.98892-1.61484-2.13909-2.32011-0.45388-5.31832,0.83985-3.69129-1.37484,1.86202-2.53455-4.03027,0.4909-5.75633,0.92517-3.49002,0.87806,1.20576,1.91051-0.5781,4.1708-0.9109,1.15418-5.99565,1.59187-2.38596-0.22813,2.03499-1.02604-5.49519,0.68496-1.85442-1.80797,1.2443-0.852-3.61338-2.06403-4.61644-0.29513-0.86744,1.52974-3.46252-1.46972-3.32579,0.81949,0.0801,1.34108-0.17146,1.28477-2.79971,2.37729-1.20808,0.50217,2.57053,1.8949-0.4229,3.25629-1.77598,0.80771-0.0278,1.54226,2.0973,2.2049,0.95641,0.29822,0.875,1.42424-1.33333,1.13834-2.09685-0.27146-4.28897-1.34606-4.77222-0.68029-1.43003,1.97015-2.76239-0.32422-4.29521,0.26222-1.65447,0.63299,4.40967,3.6723-0.39559,2.88041-4.208-0.69347,0.78282,1.74325-2.85314,3.64026-1.81926,0.94917,6.07227,2.03098,5.09285,3.02079-0.53211,0.53777-1.52518,0.39424-2.16643,0.71968"/>
</g>
<path fill="#c87137" d="m2041.021,1162.3534,13.5872,0c1.8779,0,3.7525-1.7514,5.6287-2.2066,0.3153,0.4013,1.0336,2.2066,2.2429,2.2066h6.9821c1.6521,0,2.3056-1.7759,3.4373-2.2066,1.3824,0.716,4.0915,2.2066,6.5684,2.2066h8.5284c-8.1655-2.5987-10.8535-7.3573-11.1547-12.766-0.7897-14.1803-0.2982-21.0071-0.6221-27.5504-0.3239-6.5434-0.8999-13.2262-0.4798-19.6636,0.1896-2.9052,0.058-6.8376,1.5812-8.5897,2.3333-2.6845,9.6667-11.4149,16.8455-14.6641,5.5196-2.4981,21.4156-2.4275,24.8423-3.5446l-0.8356-2.4463c-0.9392-0.9073-16.7873,0.6163-19.8024-0.5465-3.8843-1.4979,6.5237-12.1311,7.7573-13.3396l-3.0766-1.1521c-7.5932,3.4642-13.5681,16.5678-15.0607,17.8246-4.2817,3.6052-11.5046,7.8428-13.7329,7.8282,0.2155-4.0406-0.1646-6.8566,0.5526-9.1822,2.214-7.1781,12.6553-21.2292,17.2923-25.6035l-2.9111-2.4767c-2.8062,1.7434-5.3567,6.681-9.4034,10.1391-0.7372-0.2525-2.5948-4.4244-3.7804-5.7528l-2.8754,1.424c-0.01,1.1876,2.4783,8.7737,2.3509,9.6296-2.1306,3.0436-4.0455,6.0259-5.2181,8.1763-1.339,2.4556-4.0367,8.119-5.7564,12.4434-1.1992,3.0153-2.6334,6.1079-2.4384,10.0798-0.1941-3.9798,1.2726-7.0631,2.4384-10.0798-1.8592-1.7188-4.8964-4.2728-6.6345-6.682-0.6469-0.8967,0.023-10.0151,0.6486-10.8994,1.1153-1.5774,0.8455-6.3728,1.4775-11.7751,0.3168-2.708,10.1712-9.1793,10.7166-9.5997l-1.524-2.2309c-2.8088,0.079-10.9298,5.0636-13.541,8.6321-1.0605,0.1226-10.2907-6.491-12.434-8.6321l-2.201,1.3865c1.644,1.8977,3.4515,3.4271,5.1575,4.9038,1.5533,1.3448,8.367,7.1338,7.6651,9.4641-1.5652,5.1965-2.3599,14.3763-2.8613,15.2438-2.7632-0.993-12.2964-6.9238-16.9947-7.9014-2.7123-4.0497-5.4364-12.2758-8.558-15.7607l-2.7819,0.9076c1.5,5.3131,3.0557,10.1125,5.36,15.2596-1.9748,8.2493-7.6541,9.7345-17.9949,14.2226l0.7117,3.1489c9.3739-2.5367,15.748-4.3851,22.0273-11.4734,7.6634,2.7828,14.9424,8.1613,16.0269,16.272,0.5573,4.1675,1.1068,6.9627,0.9575,9.7197,0.5647,2.1524,1.7983,3.6503,2.1541,5.6271,1.1357,6.3111,1.0313,9.922,0.8478,19.3642-0.2101,10.8075,0.03,16.4061-0.5586,27.8498-0.3649,7.0904-0.7364,9.7244-11.1542,12.7658z"/>
</g>
<g transform="translate(274.3912,1503.8999)">
<path style="color:#000000;enable-background:accumulate;" stroke-dashoffset="0" fill="#808080" d="m33.9608-737.925c5.236,0,9.45,4.188,9.45,9.39v26.61h-18.899v-26.61c0-5.202,4.214-9.39,9.449-9.39zm-66.704,0c5.236,0,9.45,4.188,9.45,9.39v26.61h-18.9v-26.61c0-5.202,4.215-9.39,9.45-9.39zm132.852,163.275v-45.5c-16.582-10.17-32.796-56.402-32.796-92v-61.5l16.12-10v-30h-33.129v15h-33.13v-15h-33.13v15h-33.129v-15h-33.13v30l16.12,10v61.5c0,35.598-16.214,81.83-32.796,92v45.5h81.713v-39.547c0-9.688,7.933-17.487,17.787-17.487,9.855,0,17.788,7.799,17.788,17.487v39.547z"/>
<path fill="none" d="m-82.2992-783.65,165.818,0"/>
<path fill="none" d="m-98.8912-589.817,70.039,0"/>
<path fill="none" d="m-98.8912-604.983,70.039,0"/>
<path fill="none" d="m-98.8912-620.15,70.151,0"/>
<path fill="none" d="m-85.6152-635.5,65.647,0"/>
<path fill="none" d="m-78.3232-650.85,157.864,0"/>
<path fill="none" d="m-16.0672-666.2-2.223,15.35"/>
<path fill="none" d="m-73.0222-666.2,147.263,0"/>
<path fill="none" d="m-69.2862-681.55,139.791,0"/>
<path fill="none" d="m-66.9112-696.9,135.041,0"/>
<path fill="none" d="m-66.0952-712.25,23.903,0"/>
<path fill="none" d="m-66.0952-727.6,23.903,0"/>
<path fill="none" d="m-66.0952-742.95,133.408,0"/>
<path fill="none" d="m-66.0952-758.3,133.408,0"/>
<path fill="none" d="m33.9608-773.65,0,15.35"/>
<path fill="none" d="m0.6088-773.65,0,15.35"/>
<path fill="none" d="m-32.7432-773.65,0,15.35"/>
<path fill="none" d="m-63.8712-681.55-2.224,15.35"/>
<path fill="none" d="m65.0898-681.55,2.223,15.35"/>
<path fill="none" d="m-49.4192-666.2-3.335,15.35"/>
<path fill="none" d="m17.2848-666.2,2.224,15.35"/>
<path fill="none" d="m50.6368-666.2,3.336,15.35"/>
<path fill="none" d="m-32.7432-650.85-3.335,15.35"/>
<path fill="none" d="m33.9608-650.85,3.336,15.35"/>
<path fill="none" d="m-66.0952-650.85-5.558,15.35"/>
<path fill="none" d="m67.3128-650.85,5.559,15.35"/>
<path fill="none" d="m-53.8662-635.5-6.67,15.35"/>
<path fill="none" d="m55.0838-635.5,5.559,15.35"/>
<path fill="none" d="m-44.9722-620.15,0,15.167"/>
<path fill="none" d="m-66.0952-773.65,133.408,0"/>
<path fill="none" d="m43.4108-712.25,23.902,0"/>
<path fill="none" d="m43.4108-727.6,23.902,0"/>
<path fill="none" d="m-23.2932-727.6,47.805,0"/>
<path fill="none" d="m-23.2932-712.25,47.805,0"/>
<path fill="none" d="m29.9588-620.15,70.15,0"/>
<path fill="none" d="m30.0698-589.817,70.039,0"/>
<path fill="none" d="m30.0698-604.983,70.039,0"/>
<path fill="none" d="m50.6368-758.3,0,15.35"/>
<path fill="none" d="m17.2848-758.3,0,15.35"/>
<path fill="none" d="m-49.4192-758.3,0,15.35"/>
<path fill="none" d="m-16.0672-758.3,0,15.35"/>
<path fill="none" d="m33.9608-742.95,0,5.025"/>
<path fill="none" d="m0.6088-742.95,0,15.35"/>
<path fill="none" d="m-32.7432-742.95,0,5.025"/>
<path fill="none" d="m50.6368-727.6,0,15.35"/>
<path fill="none" d="m17.2848-727.6,0,15.35"/>
<path fill="none" d="m-49.4192-727.6,0,15.35"/>
<path fill="none" d="m-16.0672-727.6,0,15.35"/>
<path fill="none" d="m50.6368-696.9,0,15.35"/>
<path fill="none" d="m17.2848-696.9,0,15.35"/>
<path fill="none" d="m-49.4192-696.9,0,15.35"/>
<path fill="none" d="m-16.0672-696.9,0,15.35"/>
<path fill="none" d="m33.9608-701.925,0,5.025"/>
<path fill="none" d="m0.6088-712.25,0,15.35"/>
<path fill="none" d="m-32.7432-701.925,0,5.025"/>
<path fill="none" d="m33.9608-681.55,0,15.35"/>
<path fill="none" d="m0.6088-681.55,0,15.35"/>
<path fill="none" d="m-32.7432-681.55,0,15.35"/>
<path fill="none" d="m0.6088-650.85,0,7.2"/>
<path fill="none" d="m-62.7592-604.983,0,15.166"/>
<path fill="none" d="m-44.9722-589.817,0,15.167"/>
<path fill="none" d="m-80.5472-589.817,0,15.167"/>
<path fill="none" d="m-80.5472-620.15,0,15.167"/>
<path fill="none" d="m46.1898-620.15,0,15.167"/>
<path fill="none" d="m63.9778-604.983,0,15.166"/>
<path fill="none" d="m46.1898-589.817,0,15.167"/>
<path fill="none" d="m81.7658-589.817,0,15.167"/>
<path fill="none" d="m81.7658-620.15,0,15.167"/>
<path style="color:#000000;enable-background:accumulate;" stroke-dashoffset="0" fill="none" d="m-28.8522-574.65,0-39.547c0-16.317,13.14-29.453,29.461-29.453,16.322,0,29.461,13.136,29.461,29.453v39.547"/>
<path style="color:#000000;enable-background:accumulate;" stroke-dashoffset="0" fill="#000" d="m0.6088-631.684c9.855,0,17.788,7.799,17.788,17.487v39.547h-35.575v-39.547c0-9.688,7.933-17.487,17.787-17.487z"/>
<path stroke-dashoffset="0" fill="none" d="m-28.8522-614.197,11.674,0"/>
<path stroke-dashoffset="0" fill="none" d="m18.3968-614.197,11.673,0"/>
<path stroke-dashoffset="0" fill="none" d="m14.9998-624.649,9.444-6.86"/>
<path stroke-dashoffset="0" fill="none" d="m-23.2252-631.509,9.444,6.86"/>
<path stroke-dashoffset="0" fill="none" d="m-8.4952-642.208,3.608,11.099"/>
<path stroke-dashoffset="0" fill="none" d="m6.1058-631.11,3.607-11.098"/>
<path stroke-dashoffset="0" fill="none" d="m-28.8522-604.31,11.674,0"/>
<path stroke-dashoffset="0" fill="none" d="m-28.8522-594.424,11.674,0"/>
<path stroke-dashoffset="0" fill="none" d="m-28.8522-584.537,11.674,0"/>
<path stroke-dashoffset="0" fill="none" d="m18.3968-604.31,11.673,0"/>
<path stroke-dashoffset="0" fill="none" d="m18.3968-594.424,11.673,0"/>
<path stroke-dashoffset="0" fill="none" d="m18.3968-584.537,11.673,0"/>
<path style="color:#000000;enable-background:accumulate;" stroke-dashoffset="0" fill="#000" d="m-32.7432-737.924c5.236,0,9.45,4.187,9.45,9.389v26.61h-18.9v-26.61c0-5.202,4.215-9.389,9.45-9.389z"/>
<path style="color:#000000;enable-background:accumulate;" stroke-dashoffset="0" fill="#000" d="m33.9608-737.925c5.236,0,9.45,4.188,9.45,9.39v26.61h-18.899v-26.61c0-5.202,4.214-9.39,9.449-9.39z"/>
<path fill="none" d="m21.1858-635.5,65.648,0"/>
</g>
</g>
<path d="M-640.67394,944.02606v118.43094c0,17.1046,13.86387,30.9685,30.96847,30.9685h15.60936c6.8018,0,12.75425,4.0675,15.60936,9.7597,2.8551-5.6922,8.80756-9.7597,15.60936-9.7597h15.60936c17.1046,0,30.96846-13.8639,30.96846-30.9685v-118.43094z" stroke-dashoffset="0" stroke-miterlimit="4" stroke-dasharray="none" stroke-width="0.75075072" fill="none"/>
</g>
</g>
</svg>
