<?xml version="1.0" encoding="UTF-8" standalone="no"?>
<!-- Created with Inkscape (http://www.inkscape.org/) -->

<svg
   xmlns:dc="http://purl.org/dc/elements/1.1/"
   xmlns:cc="http://creativecommons.org/ns#"
   xmlns:rdf="http://www.w3.org/1999/02/22-rdf-syntax-ns#"
   xmlns:svg="http://www.w3.org/2000/svg"
   xmlns="http://www.w3.org/2000/svg"
   xmlns:sodipodi="http://sodipodi.sourceforge.net/DTD/sodipodi-0.dtd"
   xmlns:inkscape="http://www.inkscape.org/namespaces/inkscape"
   width="750"
   height="500"
   id="svg3184"
   sodipodi:version="0.32"
   inkscape:version="0.48.5 r10040"
   version="1.0"
   sodipodi:docname="Bandera de Gorafe (Granada).svg"
   inkscape:output_extension="org.inkscape.output.svg.inkscape">
  <defs
     id="defs3186" />
  <sodipodi:namedview
     id="base"
     pagecolor="#ffffff"
     bordercolor="#666666"
     borderopacity="1.0"
     gridtolerance="1"
     guidetolerance="1"
     objecttolerance="1"
     inkscape:pageopacity="0.0"
     inkscape:pageshadow="2"
     inkscape:zoom="1.15"
     inkscape:cx="375"
     inkscape:cy="250"
     inkscape:document-units="px"
     inkscape:current-layer="layer2"
     height="500px"
     width="818.18px"
     inkscape:window-width="1366"
     inkscape:window-height="745"
     inkscape:window-x="-8"
     inkscape:window-y="-8"
     showgrid="false"
     inkscape:showpageshadow="false"
     inkscape:window-maximized="1">
    <inkscape:grid
       type="xygrid"
       id="grid7135"
       visible="true"
       enabled="true"
       empspacing="5"
       snapvisiblegridlinesonly="true" />
  </sodipodi:namedview>
  <metadata
     id="metadata3189">
    <rdf:RDF>
      <cc:Work
         rdf:about="">
        <dc:format>image/svg+xml</dc:format>
        <dc:type
           rdf:resource="http://purl.org/dc/dcmitype/StillImage" />
        <dc:title />
      </cc:Work>
    </rdf:RDF>
  </metadata>
  <g
     inkscape:label="Bandera"
     inkscape:groupmode="layer"
     id="layer1"
     style="display:inline">
    <g
       id="g3176">
      <path
         style="fill:#fcdd09;fill-opacity:1;fill-rule:nonzero;stroke:none"
         d="M 1.5e-6,0 750,0 750,500 1.5e-6,500 z"
         id="path3231"
         inkscape:connector-curvature="0"
         sodipodi:nodetypes="ccccc" />
      <path
         sodipodi:nodetypes="ccccc"
         id="rect2383"
         d="M 1.5e-6,0 375,0 375,500 1.5e-6,500 z"
         style="fill:#078930;fill-opacity:1;fill-rule:nonzero;stroke:none"
         inkscape:connector-curvature="0" />
    </g>
  </g>
  <g
     inkscape:groupmode="layer"
     id="layer2"
     inkscape:label="Escudo"
     style="display:inline">
    <g
       id="g3772"
       transform="translate(-0.4966993,0.4972)">
      <path
         inkscape:connector-curvature="0"
         sodipodi:nodetypes="cssscc"
         id="path3142"
         d="m 302.51,161.514 0,102.6781 c 0,40.4613 32.6989,73.2995 72.9866,73.2995 40.2897,0 72.9867,-32.8382 72.9867,-73.2995 l 0,-102.6781 -145.9733,0 z"
         style="fill:#ffffff;fill-opacity:1;fill-rule:nonzero;stroke:none;display:inline" />
      <path
         id="path3144"
         style="fill:#da121a;fill-opacity:1;fill-rule:evenodd;stroke:none;display:inline"
         d="m 375.4966,327.0077 c -34.518,0 -62.4996,-27.9732 -62.4996,-62.4799 l 0,-92.529 124.9993,0 0,92.529 c 0,34.5067 -27.9826,62.4799 -62.4997,62.4799 z m -74.9999,-167.5049 0,105.025 c 0,41.3865 33.601,74.975 74.9999,74.975 41.4,0 75.0001,-33.5885 75.0001,-74.975 l 0,-105.025 z"
         inkscape:connector-curvature="0"
         sodipodi:nodetypes="ssccsscssscc" />
      <path
         style="fill:#da121a;stroke:#000000;stroke-width:0.9999998;stroke-linecap:round;stroke-linejoin:round;stroke-miterlimit:4;stroke-opacity:1;stroke-dasharray:none"
         d="m 363.5328,253.9783 c -0.4299,4.0618 2.4522,24.6769 0.157,29.1642 -0.6221,1.2176 -1.641,2.089 -6.15,2.089 -4.04,0 -5.5198,-0.817 -5.6748,-3.3455 -0.6373,-10.453 0.8577,-19.0042 1.5976,-27.9077 z"
         id="path3146"
         sodipodi:nodetypes="cssscc"
         inkscape:connector-curvature="0" />
      <path
         style="fill:#da121a;stroke:#000000;stroke-width:0.9999998;stroke-linecap:round;stroke-linejoin:round;stroke-miterlimit:4;stroke-opacity:1;stroke-dasharray:none"
         d="m 332.4475,216.2538 c 0.05,11.4606 -1.7999,39.1824 -2.4181,61.9034 -0.1158,4.2439 1.6852,7.0743 6.5185,7.0743 5.6043,0 7.8966,-2.3192 7.9308,-7.0743 0.1117,-15.4596 1.8966,-54.3063 2.4866,-61.9034 z"
         id="path3148"
         sodipodi:nodetypes="cssscc"
         inkscape:connector-curvature="0" />
      <path
         sodipodi:nodetypes="cssscc"
         id="path3150"
         d="m 412.5948,220.1889 c -0.05,16.9706 2.6024,34.1255 3.6303,55.5756 0.2032,4.2399 -0.7481,9.467 -8.0749,9.467 -5.6386,0 -6.894,-3.5588 -6.9293,-8.3129 -0.1198,-15.4616 -5.3536,-33.1551 -4.5765,-56.7297 z"
         style="fill:#da121a;stroke:#000000;stroke-width:0.9999998;stroke-linecap:round;stroke-linejoin:round;stroke-miterlimit:4;stroke-opacity:1;stroke-dasharray:none"
         inkscape:connector-curvature="0" />
      <path
         style="fill:#da121a;stroke:#000000;stroke-width:0.9999998;stroke-linecap:round;stroke-linejoin:round;stroke-miterlimit:4;stroke-opacity:1;stroke-dasharray:none"
         d="m 325.6472,213.9461 c 0,-2.1991 17.248,-11.9102 26.7463,-11.8126 13.6721,0.1403 22.6771,-7.7118 32.852,-6.2734 8.9124,1.26 12.2426,6.2898 21.6191,9.7669 9.3292,3.4591 18.4812,8.6551 18.4812,14.1574 0,7.1195 -17.1624,4.055 -25.1688,4.5022 -18.1671,1.0148 -31.0218,-1.694 -55.1033,-3.261 -6.5658,-0.427 -19.4265,-0.9783 -19.4265,-7.0795 z"
         id="path3152"
         sodipodi:nodetypes="ssssssss"
         inkscape:connector-curvature="0" />
      <path
         sodipodi:nodetypes="cssscc"
         id="path3154"
         d="m 384.1069,255.4252 c 0.03,4.086 -0.4994,21.8134 -0.07,25.8842 0.1369,1.2879 1.4658,3.9221 5.5611,3.9221 2.7412,0 5.547,-0.6259 5.9738,-3.2811 1.6621,-10.3312 -1.3197,-17.5907 -1.1798,-26.5252 z"
         style="fill:#da121a;stroke:#000000;stroke-width:0.9999998;stroke-linecap:round;stroke-linejoin:round;stroke-miterlimit:4;stroke-opacity:1;stroke-dasharray:none"
         inkscape:connector-curvature="0" />
      <path
         sodipodi:nodetypes="ssssss"
         id="path3156"
         d="m 336.5328,251.3894 c 0,-7.7594 28.1979,-10.8271 38.42,-9.7476 3.9122,0.4126 20.0245,-0.4557 25.9491,0.4458 5.5479,0.8452 6.4923,17.808 -0.9041,18.4689 -11.0416,0.9891 -32.6818,-4.0638 -41.2227,-3.1392 -9.0172,0.975 -22.2423,-2.3796 -22.2423,-6.0279 z"
         style="fill:#da121a;stroke:#000000;stroke-width:0.9999998;stroke-linecap:round;stroke-linejoin:round;stroke-miterlimit:4;stroke-opacity:1;stroke-dasharray:none"
         inkscape:connector-curvature="0" />
    </g>
  </g>
</svg>
