<!-- Created with Inkscape (http://www.inkscape.org/) -->
<svg xmlns:rdf="http://www.w3.org/1999/02/22-rdf-syntax-ns#" xmlns="http://www.w3.org/2000/svg" height="100%" width="100%" version="1.0" xmlns:cc="http://creativecommons.org/ns#" xmlns:dc="http://purl.org/dc/elements/1.1/" viewBox="0 0 750 500">
<metadata>
<rdf:RDF>
<cc:Work rdf:about="">
<dc:format>image/svg+xml</dc:format>
<dc:type rdf:resource="http://purl.org/dc/dcmitype/StillImage"/>
<dc:title/>
</cc:Work>
</rdf:RDF>
</metadata>
<g fill-rule="nonzero">
<path d="m0.5,0.5v499h749v-499z" stroke="#000" stroke-width="1" fill="#FFF"/>
<path d="m500,0,250,0,0,500-250,0z" fill="#078930"/>
<path d="M0.0000015,0,250,0,250,500,0.0000015,500z" fill="#da121a"/>
</g>
<g stroke-linejoin="round" transform="translate(907.74594,-418.0507)" stroke="#000" stroke-linecap="round" stroke-miterlimit="4">
<g transform="matrix(0.28735642,0,0,0.28735642,-634.75747,539.02764)" stroke-dasharray="none" stroke-width="1">
<path fill="#e3e4e5" d="m468.92083,83.88375,240.5794,87.4005c0.8522,26.6678,4.2402,51.1092,14.9998,69.0365-96.563,30.5267-84.232,125.7311-84.232,169.4922,24.8915-10.1827,66.436-3.8049,84.232,12.6307-10.1902,17.9108-19.5197,49.1835-21.6604,69.4734-6.8547-22.8386-39.3839-31.4531-53.7837-10.9874-16.9547,24.0964,11.5595,54.2099,35.6948,35.467,8.9441,19.7974,23.775,48.1565,39.7493,71.6585-29.4233,6.7574-71.0535,27.6361-75.9278,53.4049,8.9518,18.2178,12.4281,37.4385,12.4281,55.6849,0,78.3241-68.5083,142.0194-153.0051,142.0194h-76.4975c-33.4676,0-62.4489,18.3744-76.4977,44.3356-14.049-25.9612-43.0297-44.3356-76.4973-44.3356h-76.498c-84.4968,0-153.00507-63.6953-153.00507-142.0194,0-18.2464,3.47631-37.4671,12.42807-55.6849-4.87426-25.7688-46.504505-46.6475-75.927755-53.4049,15.974266-23.502,30.805125-51.8611,39.749235-71.6585,24.13533,18.7429,52.64954-11.3706,35.69486-35.467-14.39982-20.4657-46.92909-11.8512-53.783719,10.9874-2.140702-20.2899-11.470187-51.5626-21.660376-69.4734,17.795918-16.4356,59.340475-22.8134,84.231945-12.6307,0-43.7611,12.330995-138.9655-84.231945-169.4922,10.759514-17.9273,14.148104-42.3687,15.000255-69.0365l240.5789-87.4005z"/>
<path fill="#eac102" d="m106.07243,64.00815c-10.823,6.2072-12.217,11.1962-10.585,15.6547,9.704,26.5081,17.174,52.9328,21.54,79.3909,0,0,15.497,10.2092,13.667,5.8953-3.199-7.5432-9.029-5.0636,5.858-15.7055,51.821-37.0424,180.111-36.5704,218.448-36.5704,38.336,0,166.627-0.472,218.448,36.5704,14.887,10.6419,9.057,8.1623,5.857,15.7055-1.829,4.3139,13.668-5.8953,13.668-5.8953,4.366-26.4581,11.835-52.8828,21.539-79.3909,1.633-4.4585,0.239-9.4475-10.585-15.6547-66.869-38.3498-163.714-49.5079-248.927-49.5079s-182.059,11.1581-248.928,49.5079z"/>
<path fill="#eac102" d="m14.47743,114.05435c17.7916,12.7215,61.539,16.8606,84.8332,2.463,9.627-5.9502,9.502-15.7218,8.58-20.0269,8.418,37.0276,13.236,45.7461,22.804,68.4586,1.819,4.3183,0.917,9.0994-8.143,15.1144-37.741,25.0565-109.6478,10.9383-122.0514-8.7789,5.6666005-14.1968,12.804-41.9548,13.9772-57.2302z"/>
<path fill="none" d="m95.48743,79.66285c2.205,6.052,11.147,10.9673,12.403,16.8276"/>
<path fill="#eac102" d="m695.52343,114.05435c-17.792,12.7215-61.539,16.8606-84.834,2.463-9.627-5.9502-9.502-15.7218-8.579-20.0269-8.418,37.0276-13.237,45.7461-22.805,68.4586-1.818,4.3183-0.917,9.0994,8.143,15.1144,37.742,25.0565,109.648,10.9383,122.052-8.7789-5.667-14.1968-12.805-41.9548-13.977-57.2302z"/>
<path fill="none" d="m614.51243,79.66285c-2.204,6.052-11.147,10.9673-12.402,16.8276"/>
<path style="text-align:start;" fill="#000" d="m170.20423,105.05035c0.6559,1.85,1.1978,3.181,1.6255,3.9929,0.4278,0.812,0.8748,1.415,1.3409,1.8093,0.4662,0.3942,1.041,0.6566,1.7246,0.7873,0.6835,0.1306,1.7191,0.1364,3.1068,0.017l0.7196,2.0295-17.4787,6.1974-0.7196-2.0295c1.5553-1.0488,2.5274-1.9452,2.9164-2.6893,0.3889-0.744,0.4969-1.6449,0.3239-2.7026s-0.6217-2.6082-1.3462-4.6515l-12.7031-35.8273c-0.6756-1.9052-1.2366-3.2683-1.683-4.0892-0.4465-0.8208-0.9142-1.4165-1.4031-1.7872-0.4888-0.3706-1.047-0.6078-1.6744-0.7118-0.6275-0.1039-1.6399-0.1101-3.0374-0.019l-0.7196-2.0295,17.4788-6.1974,0.7196,2.0296c-1.1073,0.7345-1.8763,1.3491-2.307,1.8437-0.4308,0.4947-0.7242,1.0261-0.8802,1.5943s-0.1484,1.3349,0.023,2.2999c0.1712,0.9651,0.5946,2.4003,1.2701,4.3055z"/>
<path style="text-align:start;" fill="#000" d="m196.95643,104.75845,15.5254-3.2616c1.9209-0.4035,3.3096-0.8824,4.1662-1.4365,0.8565-0.5542,1.506-1.2744,1.9485-2.1607,0.4424-0.8862,0.7628-2.0687,0.9611-3.5473s0.3373-3.738,0.4171-6.7784l4.2146-0.8854,3.3158,15.7834-39.738,8.3483-0.4427-2.1073,18.4007-58.8289-15.6114,3.2796c-1.1182,0.235-1.9802,0.5134-2.5862,0.8352-0.6059,0.322-1.1263,0.7307-1.561,1.2261-0.4348,0.4955-0.8247,1.1687-1.1699,2.0195-0.3451,0.8509-0.6315,1.9813-0.8592,3.3912-0.2277,1.41-0.4091,3.147-0.5443,5.211l-4.2146,0.8854-3.099-14.7512,38.7919-8.1496,0.4337,2.0644z"/>
<path style="text-align:start;" fill="#000" d="m269.02793,73.96165c1.2304,1.6396,2.2706,3.078,3.1207,4.3152,0.8499,1.2373,1.7384,2.6325,2.6654,4.1858l0.5683-0.059c-0.3302-1.7624-0.828-5.2821-1.4932-10.559-0.6654-5.2769-1.2188-10.0426-1.6602-14.2971l-0.9524-9.1792c-0.2086-2.0107-0.4196-3.4762-0.6329-4.3967-0.2133-0.9203-0.4986-1.6123-0.856-2.076-0.3574-0.4636-0.8215-0.8205-1.3923-1.0706-0.5709-0.2499-1.5462-0.4948-2.9259-0.7346l-0.2222-2.1419,15.7358-1.6326,0.2222,2.1418c-1.2751,0.4858-2.167,0.9023-2.6758,1.2496-0.5089,0.3474-0.9067,0.7716-1.1934,1.2725-0.2868,0.5011-0.4692,1.2269-0.5473,2.1775-0.078,0.9507-0.01,2.4896,0.2139,4.6168l5.084,48.9997-5.4638,0.5669-28.5827-38.2996c-1.7784-2.378-3.0486-4.1165-3.8106-5.2157-0.762-1.0991-1.4789-2.1881-2.1504-3.2672l-0.7431,0.077c0.4368,2.2227,1.0035,6.2654,1.7002,12.1281,0.6966,5.8627,1.3473,11.7081,1.952,17.5362l0.9252,8.917c0.2025,1.9524,0.4162,3.3735,0.6411,4.2632,0.2249,0.8898,0.5175,1.581,0.8779,2.0738s0.8574,0.883,1.4911,1.1707c0.6336,0.2877,1.6388,0.5369,3.0156,0.7475l0.2222,2.1418-15.9544,1.6554-0.2222-2.1419c1.7583-0.6536,2.914-1.2964,3.467-1.9281s0.8697-1.4819,0.9503-2.5507c0.081-1.0687,0.01-2.6812-0.2147-4.8376l-3.923-37.8097c-0.2086-2.0107-0.4334-3.4674-0.6743-4.3703-0.241-0.9027-0.5555-1.5917-0.9435-2.067-0.388-0.4751-0.8747-0.837-1.4601-1.0856-0.5855-0.2484-1.5681-0.4926-2.9478-0.7324l-0.2222-2.1418,13.6814-1.4195z"/>
<path style="text-align:start;" fill="#000" d="m327.12313,94.56015-0.073-2.1521c1.4541-0.3422,2.5339-0.7011,3.2395-1.0766,0.7055-0.3756,1.2233-0.884,1.5535-1.5254,0.33-0.6414,0.4773-1.4891,0.4418-2.5432-0.034-0.9955-0.187-2.0676-0.4602-3.2163-0.2733-1.1487-0.6537-2.433-1.1412-3.8529l-1.8161-5.6109-20.4669,0.6901-1.3482,4.3546c-0.6882,2.1924-1.1307,3.8489-1.3274,4.9694-0.1967,1.1206-0.2798,2.1347-0.2491,3.0424,0.059,1.7568,0.5491,3.0301,1.4699,3.8198,0.9206,0.7897,2.3077,1.2853,4.1613,1.4866l0.073,2.1521-18.754,0.6324-0.073-2.1521c1.6308-0.3188,3.0261-1.3186,4.186-2.9993,1.1598-1.6806,2.2594-4.0628,3.2986-7.1464l16.6753-49.2374,6.9394-0.2341,16.5843,48.4677c0.7797,2.2602,1.4606,3.9814,2.0428,5.1636,0.5821,1.1822,1.2652,2.0972,2.0493,2.745,0.7839,0.6477,1.8401,1.1105,3.1687,1.3881l0.072,2.1521zm-17.6652-23.1483,18.3587-0.6191-9.3001-28.0472z"/>
<path style="text-align:start;" fill="#000" d="m366.94173,90.23255,11.512,0.1945c1.2596,0.021,2.3153-0.034,3.1673-0.1662,0.852-0.1321,1.5808-0.3469,2.1865-0.6443s1.1548-0.713,1.6473-1.2468c0.4924-0.5337,0.9658-1.2363,1.4201-2.1076,0.4542-0.8714,0.8903-1.9701,1.3083-3.2963,0.418-1.3261,0.9424-3.317,1.5733-5.9728l4.4379,0.075-1.1773,17.6487-39.5012-0.6676,0.036-2.153c1.824-0.438,3.0485-0.9374,3.6733-1.4982s1.0413-1.3669,1.2495-2.4182,0.3307-2.6608,0.3673-4.8285l0.6423-38.0072c0.034-2.0212-0.014-3.4944-0.145-4.4196-0.1309-0.9252-0.3604-1.6469-0.6886-2.1653-0.3282-0.5183-0.768-0.9359-1.3194-1.2529-0.5513-0.317-1.4975-0.6772-2.8386-1.0809l0.036-2.153,18.4984,0.3126-0.036,2.1531c-1.2949,0.3297-2.2156,0.6292-2.7622,0.8982-0.5466,0.2692-0.9996,0.6351-1.3591,1.0978-0.3594,0.4628-0.6352,1.176-0.8272,2.1397-0.1922,0.9637-0.306,2.5001-0.3417,4.6091z"/>
<path style="text-align:start;" fill="#000" d="m415.45673,91.94745,11.4875,0.7761c1.2569,0.085,2.3141,0.083,3.1717-0.01,0.8575-0.089,1.5963-0.2665,2.2162-0.533,0.62-0.2664,1.1894-0.6537,1.7082-1.1619s1.0271-1.1859,1.5248-2.0332c0.4977-0.8472,0.9888-1.9225,1.4733-3.2259,0.4844-1.3033,1.1088-3.2652,1.8732-5.8856l4.4284,0.2992-2.0678,17.5666-39.417-2.6632,0.1452-2.1484c1.8438-0.3453,3.0919-0.7821,3.7443-1.3107,0.6523-0.5285,1.109-1.3125,1.3701-2.3519,0.2611-1.0395,0.4647-2.6407,0.6109-4.8038l2.5625-37.9262c0.1362-2.0168,0.1624-3.4906,0.078-4.4213-0.084-0.9305-0.2768-1.663-0.5783-2.1973-0.3016-0.5341-0.7198-0.9735-1.2544-1.318-0.5346-0.3444-1.4614-0.752-2.7803-1.2229l0.1451-2.1484,18.4589,1.2471-0.1451,2.1485c-1.3099,0.2639-2.2445,0.5164-2.804,0.7575-0.5596,0.2412-1.0305,0.5838-1.4129,1.0277-0.3823,0.444-0.6938,1.1424-0.9343,2.0951-0.2406,0.9528-0.432,2.4815-0.5742,4.586z"/>
<path style="text-align:start;" fill="#000" d="m473.19543,102.39835c-3.4787-0.5087-6.562-1.5443-9.2499-3.1069s-4.8768-3.7036-6.5665-6.423c-1.6898-2.7194-2.8171-6.0449-3.3821-9.9767-0.565-3.9317-0.4639-8.521,0.3034-13.7679,0.9453-6.4645,2.7426-11.8716,5.3921-16.2216,2.6494-4.3499,5.9847-7.467,10.0057-9.3514,4.021-1.8842,8.452-2.4724,13.2932-1.7646,5.1599,0.7546,9.3345,2.5272,12.5239,5.3178,3.1893,2.7907,5.3522,6.5267,6.4886,11.2081,1.1363,4.6815,1.2403,10.1965,0.312,16.545-0.9919,6.7833-2.8437,12.3602-5.5553,16.7306-2.7118,4.3704-6.0852,7.445-10.1203,9.2236-4.0352,1.7786-8.5168,2.3076-13.4448,1.587zm-9.7596-33.1822c-1.3014,8.8995-0.9939,15.858,0.9223,20.8756,1.9162,5.0175,5.3674,7.8909,10.3534,8.62,3.1598,0.462,5.9885-0.1532,8.4863-1.8458,2.4977-1.6925,4.5813-4.4005,6.251-8.1239,1.6695-3.7234,2.8837-8.1795,3.6425-13.3685,0.9241-6.3195,1.0453-11.6535,0.3636-16.002s-2.0009-7.628-3.9574-9.8387c-1.9567-2.2107-4.4134-3.5322-7.3702-3.9646-2.609-0.3815-4.9374-0.1002-6.9851,0.8439-2.0478,0.9442-3.852,2.4494-5.4125,4.5158-1.5606,2.0666-2.8566,4.6528-3.8882,7.7589s-1.8335,6.6159-2.4057,10.5293z"/>
<path style="text-align:start;" fill="#000" d="m518.20213,105.92435,15.2294,4.4429c1.8844,0.5498,3.3348,0.7822,4.3515,0.6973,1.0165-0.085,1.9289-0.4139,2.7369-0.9869,0.8081-0.573,1.648-1.4647,2.52-2.6752,0.8719-1.2105,2.0598-3.1376,3.5635-5.7812l4.1343,1.2061-4.5168,15.4825-38.9805-11.3719,0.603-2.0671,43.962-43.2062-15.3138-4.4675c-1.0969-0.3199-1.9884-0.4808-2.6745-0.4827-0.6861,0-1.3377,0.1134-1.9547,0.3453-0.617,0.2321-1.2783,0.6419-1.9837,1.2295-0.7056,0.5877-1.4911,1.4495-2.3565,2.5856-0.8656,1.1361-1.8445,2.5824-2.9367,4.339l-4.1343-1.2061,4.2214-14.4701,38.0524,11.1011-0.5907,2.025z"/>
</g>
<path d="M-604.44137,595.20582v136.27878c0,19.79814,16.04958,35.84771,35.84771,35.84771h17.92386c7.84167,0,14.63219,4.64454,17.92386,11.2069,3.29167-6.56236,10.08219-11.2069,17.92385-11.2069h17.92386c19.79814,0,35.84772-16.04957,35.84772-35.84771v-136.27878z" stroke-dashoffset="0" stroke-width="0.28735641" fill="#e3e4e5"/>
<g transform="matrix(0.28735642,0,0,0.28735642,-634.75747,524.65982)" stroke-width="1">
<g stroke-dasharray="none">
<path fill="#eac102" d="m428.0242,602.56185c10.0626-14.4264,18.1349-17.1107,29.0144-12.4669,10.35,4.4176,14.7421,13.8409,7.5274,22.7452-0.069,4.1527,0.2849,8.394,1.0527,13.211-4.0682,3.4014-10.9442,13.8859-15.1285,18.649,15.919,13.2313,34.262,28.1808,41.1552,41.4122l-0.3107,52.9459-73.1201-3.344c-0.6341-36.374-13.6073-84.3128,4.6638-116.021,3.1035-5.3858,0.5137-10.4906,5.1458-17.1314z"/>
<path fill="#eac102" d="m226.9405,748.79025,0-287.7811c0-4.4317,28.1458-6.5101,43.8399-6.5101,15.694,0,43.84,2.0784,43.84,6.5101v287.7811z"/>
<path fill="none" d="m226.9405,537.86485c0-2.9851,28.1458-4.6381,43.8399-4.6381,15.694,0,43.84,1.4722,43.84,4.6381"/>
<path fill="none" d="m314.6204,695.08045-87.6799,0"/>
<path fill="none" d="m314.6204,712.80645-87.6799,0"/>
<path fill="none" d="m314.6204,677.35425-87.6799,0"/>
<path fill="none" d="m226.9405,503.34855c0-4.4317,28.1458-6.5097,43.8399-6.5097,15.694,0,43.84,2.078,43.84,6.5097"/>
<path fill="none" d="m226.9405,520.60675c0-4.4316,28.1458-5.5741,43.8399-5.5741,15.694,0,43.84,1.1424,43.84,5.5741"/>
<path fill="none" d="m226.9405,555.59105c0-2.9853,28.1458-4.6382,43.8399-4.6382,15.694,0,43.84,1.4723,43.84,4.6382"/>
<path fill="none" d="m226.9405,572.84905c0-2.081,29.7544-3.7021,43.8399-3.7021,14.0853,0,43.84,1.4404,43.84,3.7021"/>
<path fill="none" d="m226.9405,607.83315c0-2.0811,33.7766-2.7661,43.8399-2.7661s43.84,0.5043,43.84,2.7661"/>
<path fill="none" d="m226.9405,642.81705c0-0.996,32.9721-1.8298,43.8399-1.8298,10.8676,0,43.84,0.653,43.84,1.8298"/>
<path fill="none" d="m226.9405,660.07515c-0.4363-0.2264,28.548-0.8938,43.8399-0.8938s43.84,0.8938,43.84,0.8938"/>
<path fill="none" d="m270.7804,641.09595,0,17.9205"/>
<path fill="none" d="m226.9405,500.91915c0-4.4316,28.1458-6.5098,43.8399-6.5098,15.694,0,43.84,2.0782,43.84,6.5098"/>
<path fill="none" d="m226.9405,590.10695c0-2.0809,33.7766-2.7659,43.8399-2.7659s43.84,0.5042,43.84,2.7659"/>
<path fill="none" d="m226.9405,625.09105c0-0.9962,32.9721-1.8298,43.8399-1.8298,10.8676,0,43.84,0.6529,43.84,1.8298"/>
<path fill="none" d="m292.8249,623.75385,0,17.6737"/>
<path fill="none" d="m248.7358,623.75385,0,17.6737"/>
<path fill="none" d="m292.8249,587.74895,0,17.4929"/>
<path fill="none" d="m248.7358,587.74895,0,17.4929"/>
<path fill="none" d="m292.8249,551.67555,0,18.2164"/>
<path fill="none" d="m248.7358,551.67555,0,18.2164"/>
<path fill="none" d="m305.1516,641.90985,0,17.8545"/>
<path fill="none" d="m236.409,641.90985,0,17.8545"/>
<path fill="none" d="m305.1516,677.32115,0,17.7639"/>
<path fill="none" d="m236.409,677.32115,0,17.7639"/>
<path fill="none" d="m248.7358,659.59995,0,17.6738"/>
<path fill="none" d="m292.8249,659.59995,0,17.6738"/>
<path fill="none" d="m305.1516,712.76345,0,17.764"/>
<path fill="none" d="m248.7358,695.04225,0,17.5833"/>
<path fill="none" d="m292.8249,695.04225,0,17.5833"/>
<path fill="none" d="m292.8249,730.66535,0,17.5835"/>
<path fill="none" d="m270.7804,605.29195,0,18.0355"/>
<path fill="none" d="m305.1516,606.19615,0,17.7641"/>
<path fill="none" d="m236.409,606.19615,0,17.7641"/>
<path fill="none" d="m270.7804,569.33735,0,18.0355"/>
<path fill="none" d="m305.1516,570.69345,0,17.6739"/>
<path fill="none" d="m236.409,570.69345,0,17.6739"/>
<path fill="none" d="m270.7804,533.43195,0,17.4024"/>
<path fill="none" d="m305.1516,535.14995,0,17.4024"/>
<path fill="none" d="m236.409,535.14995,0,17.4024"/>
<path fill="none" d="m270.7804,496.99695,0,18.0355"/>
<path fill="none" d="m305.1516,499.52875,0,17.2215"/>
<path fill="none" d="m236.409,499.52875,0,17.2215"/>
<path fill="#eac102" d="m424.0763,748.79025,0-287.7811c0-4.4317-28.1455-6.5101-43.8397-6.5101-15.6941,0-43.8401,2.0784-43.8401,6.5101v287.7811z"/>
<path fill="none" d="m424.0763,537.86485c0-2.9851-28.1455-4.6381-43.8397-4.6381-15.6941,0-43.8401,1.4722-43.8401,4.6381"/>
<path fill="none" d="m336.3965,695.08045,87.6798,0"/>
<path fill="none" d="m336.3965,712.80645,87.6798,0"/>
<path fill="none" d="m336.3965,677.35425,87.6798,0"/>
<path fill="none" d="m424.0763,503.34855c0-4.4317-28.1455-6.5097-43.8397-6.5097-15.6941,0-43.8401,2.078-43.8401,6.5097"/>
<path fill="none" d="m424.0763,520.60675c0-4.4316-28.1455-5.5741-43.8397-5.5741-15.6941,0-43.8401,1.1424-43.8401,5.5741"/>
<path fill="none" d="m424.0763,555.59105c0-2.9853-28.1455-4.6382-43.8397-4.6382-15.6941,0-43.8401,1.4723-43.8401,4.6382"/>
<path fill="none" d="m424.0763,572.84905c0-2.081-29.7543-3.7021-43.8397-3.7021s-43.8401,1.4404-43.8401,3.7021"/>
<path fill="none" d="m424.0763,607.83315c0-2.0811-33.7764-2.7661-43.8397-2.7661-10.0632,0-43.8401,0.5043-43.8401,2.7661"/>
<path fill="none" d="m424.0763,642.81705c0-0.996-32.9721-1.8298-43.8397-1.8298-10.8677,0-43.8401,0.653-43.8401,1.8298"/>
<path fill="none" d="m424.0763,660.07515c0.4363-0.2264-28.5478-0.8938-43.8397-0.8938-15.2918,0-43.8401,0.8938-43.8401,0.8938"/>
<path fill="none" d="m380.2366,641.09595,0,17.9205"/>
<path fill="none" d="m424.0763,500.91915c0-4.4316-28.1455-6.5098-43.8397-6.5098-15.6941,0-43.8401,2.0782-43.8401,6.5098"/>
<path fill="none" d="m424.0763,590.10695c0-2.0809-33.7764-2.7659-43.8397-2.7659-10.0632,0-43.8401,0.5042-43.8401,2.7659"/>
<path fill="none" d="m424.0763,625.09105c0-0.9962-32.9721-1.8298-43.8397-1.8298-10.8677,0-43.8401,0.6529-43.8401,1.8298"/>
<path fill="none" d="m358.1919,623.75385,0,17.6737"/>
<path fill="none" d="m402.2813,623.75385,0,17.6737"/>
<path fill="none" d="m358.1919,587.74895,0,17.4929"/>
<path fill="none" d="m402.2813,587.74895,0,17.4929"/>
<path fill="none" d="m358.1919,551.67555,0,18.2164"/>
<path fill="none" d="m402.2813,551.67555,0,18.2164"/>
<path fill="none" d="m345.8653,641.90985,0,17.8545"/>
<path fill="none" d="m414.6079,641.90985,0,17.8545"/>
<path fill="none" d="m345.8653,677.32115,0,17.7639"/>
<path fill="none" d="m414.6079,677.32115,0,17.7639"/>
<path fill="none" d="m402.2813,659.59995,0,17.6738"/>
<path fill="none" d="m358.1919,659.59995,0,17.6738"/>
<path fill="none" d="m345.8653,712.76345,0,17.764"/>
<path fill="none" d="m414.6079,712.80645,0,17.7641"/>
<path fill="none" d="m402.2813,695.04225,0,17.5833"/>
<path fill="none" d="m358.1919,695.04225,0,17.5833"/>
<path fill="none" d="m358.1919,730.66535,0,17.5835"/>
<path fill="none" d="m380.2366,605.29195,0,18.0355"/>
<path fill="none" d="m345.8653,606.19615,0,17.7641"/>
<path fill="none" d="m414.6079,606.19615,0,17.7641"/>
<path fill="none" d="m380.2366,569.33735,0,18.0355"/>
<path fill="none" d="m345.8653,570.69345,0,17.6739"/>
<path fill="none" d="m414.6079,570.69345,0,17.6739"/>
<path fill="none" d="m380.2366,533.43195,0,17.4024"/>
<path fill="none" d="m345.8653,535.14995,0,17.4024"/>
<path fill="none" d="m414.6079,535.14995,0,17.4024"/>
<path fill="none" d="m380.2366,496.99695,0,18.0355"/>
<path fill="none" d="m345.8653,499.52875,0,17.2215"/>
<path fill="none" d="m414.6079,499.52875,0,17.2215"/>
<path fill="#eac102" d="m373.2686,748.79025,0-336.3967c0-4.6931-30.6627-6.8939-47.7602-6.8939s-47.7603,2.2008-47.7603,6.8939v336.3967z"/>
<path fill="none" d="m373.2686,487.82745c0-3.1612-30.6627-4.9119-47.7602-4.9119s-47.7603,1.5592-47.7603,4.9119"/>
<path fill="none" d="m277.7481,654.32185,95.5205,0"/>
<path fill="none" d="m277.7481,673.09415,95.5205,0"/>
<path fill="none" d="m277.7481,691.86645,95.5205,0"/>
<path fill="none" d="m464.566,612.84015c-9.7825-11.229-19.0949-3.9714-16.3614,10.014-1.5993,7.191-0.1565,15.6687,2.2856,21.846"/>
<path fill="none" d="m450.4902,644.70015c-4.3375-9.2203-12.4989-17.3259-9.4237-21.5653,1.0866-1.4982,3.7805-2.8203,7.2016-0.5572l17.3506,3.4735"/>
<path fill="none" d="m438.0446,651.83695c7.0135,24.8009,17.1815,36.5231,13.9429,53.3398-3.2123,16.6836,21.248,7.7085,17.9563-5.3175-4.0915-16.187-13.8455-23.4491-21.2061-51.2185"/>
<path fill="none" d="m277.7481,710.63875,95.5205,0"/>
<path fill="none" d="m277.7481,635.54965,95.5205,0"/>
<path fill="none" d="m373.2686,451.27405c0-4.6933-30.6627-6.8941-47.7602-6.8941s-47.7603,2.2008-47.7603,6.8941"/>
<path fill="none" d="m373.2686,469.55085c0-4.6933-30.6627-5.9032-47.7602-5.9032s-47.7603,1.2099-47.7603,5.9032"/>
<path fill="none" d="m373.2686,506.59965c0-3.1612-30.6627-4.9119-47.7602-4.9119s-47.7603,1.5592-47.7603,4.9119"/>
<path fill="none" d="m373.2686,524.87625c0-2.2037-32.4154-3.9206-47.7602-3.9206-15.3449,0-47.7603,1.5253-47.7603,3.9206"/>
<path fill="none" d="m373.2686,561.92515c0-2.2037-36.7971-2.9292-47.7602-2.9292-10.9632,0-47.7603,0.534-47.7603,2.9292"/>
<path fill="none" d="m373.2686,598.97385c0-1.0547-35.9208-1.9377-47.7602-1.9377-11.8396,0-47.7603,0.6913-47.7603,1.9377"/>
<path fill="none" d="m373.2686,617.25065c0.4752-0.2399-31.1009-0.9466-47.7602-0.9466s-47.7603,0.9466-47.7603,0.9466"/>
<path fill="none" d="m325.5084,597.15115,0,19.3872"/>
<path fill="#ed1c24" d="m325.4922,604.00935c-10.7657,0-19.4821,8.1238-19.4821,18.16,0,5.1653,2.3376,9.8186,6.05,13.1272v10.5806l-3.2202,1.9404v100.7134h33.3045v-100.7134l-3.188-1.9404v-10.5806c3.7123-3.3086,6.0501-7.9619,6.0501-13.1272,0-10.0362-8.7466-18.16-19.5144-18.16z"/>
<path fill="none" d="m373.2686,448.70115c0-4.6932-30.6627-6.8941-47.7602-6.8941s-47.7603,2.2009-47.7603,6.8941"/>
<path fill="none" d="m373.2686,543.15295c0-2.2039-36.7971-2.9293-47.7602-2.9293-10.9632,0-47.7603,0.534-47.7603,2.9293"/>
<path fill="none" d="m373.2686,580.20165c0-1.0548-35.9208-1.9378-47.7602-1.9378-11.8396,0-47.7603,0.6914-47.7603,1.9378"/>
<path fill="none" d="m301.4924,578.78555,0,18.7169"/>
<path fill="none" d="m349.5241,578.78555,0,18.7169"/>
<path fill="none" d="m301.4924,540.65555,0,18.5255"/>
<path fill="none" d="m349.5241,540.65555,0,18.5255"/>
<path fill="none" d="m301.4924,502.45315,0,19.2914"/>
<path fill="none" d="m349.5241,502.45315,0,19.2914"/>
<path fill="none" d="m288.0635,598.01295,0,18.9085"/>
<path fill="none" d="m362.9531,598.01295,0,18.9085"/>
<path fill="none" d="m288.0635,635.51435,0,18.8125"/>
<path fill="none" d="m362.9531,635.51435,0,18.8125"/>
<path fill="none" d="m349.5241,616.74735,0,18.7169"/>
<path fill="none" d="m301.4924,616.74735,0,18.7169"/>
<path fill="none" d="m288.0635,673.04855,0,18.8126"/>
<path fill="none" d="m362.9531,673.09415,0,18.8126"/>
<path fill="none" d="m288.0635,710.69405,0,18.7169"/>
<path fill="none" d="m362.9531,710.69405,0,18.7169"/>
<path fill="none" d="m349.5241,654.28145,0,18.6211"/>
<path fill="none" d="m301.4924,654.28145,0,18.6211"/>
<path fill="none" d="m349.5241,692.00705,0,18.6211"/>
<path fill="none" d="m301.4924,692.00705,0,18.6211"/>
<path fill="none" d="m325.5084,559.23415,0,19.0999"/>
<path fill="none" d="m288.0635,560.19165,0,18.8126"/>
<path fill="none" d="m362.9531,560.19165,0,18.8126"/>
<path fill="none" d="m325.5084,521.15745,0,19.0999"/>
<path fill="none" d="m288.0635,522.59375,0,18.717"/>
<path fill="none" d="m362.9531,522.59375,0,18.717"/>
<path fill="none" d="m325.5084,483.13285,0,18.4296"/>
<path fill="none" d="m288.0635,484.95215,0,18.4296"/>
<path fill="none" d="m362.9531,484.95215,0,18.4296"/>
<path fill="none" d="m325.5084,444.54745,0,19.0999"/>
<path fill="none" d="m288.0635,447.22845,0,18.2383"/>
<path fill="none" d="m362.9531,447.22845,0,18.2383"/>
<path fill="#ed1c24" d="m308.1153,462.56425c-4.9591,0-8.9746,3.5978-8.9746,8.0425,0,2.2876,1.0764,4.3484,2.7869,5.8136v4.6858l-1.4837,0.8593v21.6105l15.3428-0.8002v-20.8103l-1.4689-0.8593v-4.6858c1.7105-1.4652,2.7869-3.526,2.7869-5.8136,0-4.4447-4.029-8.0425-8.9894-8.0425z"/>
<path fill="#ed1c24" d="m342.8865,462.56425c-4.9591,0-8.9746,3.5978-8.9746,8.0425,0,2.2876,1.0764,4.3484,2.787,5.8136v4.6858l-1.4837,0.8593v20.8103l15.3427,0.8002v-21.6105l-1.4689-0.8593v-4.6858c1.7105-1.4652,2.787-3.526,2.787-5.8136,0-4.4447-4.0291-8.0425-8.9895-8.0425z"/>
<path fill="none" d="m277.7481,729.41095,95.5205,0"/>
<path fill="none" d="m248.7358,515.75705,0,18.2164"/>
<path fill="none" d="m402.2813,515.75705,0,18.2164"/>
<path fill="none" d="m270.7804,677.59985,0,17.3411"/>
<path fill="none" d="m380.2366,677.59985,0,17.3411"/>
<path fill="none" d="m270.7804,712.94485,0,17.3411"/>
<path fill="none" d="m380.2366,712.94485,0,17.3411"/>
</g>
<path stroke-dashoffset="0" fill="#ed1c24" d="m230.25,370.25005,0,318.279c0,17.42,14.2201,31.2208,31.5118,31.2208h62.0507c13.6446,0,25.4599,8.085,31.1875,19.508,5.7276-11.423,17.543-19.508,31.1875-19.508h62.0507c17.2917,0,31.5118-13.8008,31.5118-31.2208v-318.279zm374.25,349.4998c0,68.897-55.8525,124.75-124.75,124.75h-62.375c-27.2891,0-50.9198,16.163-62.375,39-11.4552-22.837-35.0859-39-62.375-39h-62.375c-68.8975,0-124.75-55.853-124.75-124.75v-474.2498h499z"/>
<path stroke-dashoffset="0" fill="#e3e4e5" d="m604.5,403.99995,0-158.4999-166.3332,0,0,124.75,41.5832,0,0,33.7499z"/>
<path stroke-dashoffset="0" fill="#e3e4e5" d="m105.5,403.99995,0-158.4999,166.3332,0,0,124.75-41.5832,0,0,33.7499z"/>
<path style="color:#000000;enable-background:accumulate;" d="m271.8332,719.74995,0,124.75,20.792,0c27.2891,0,50.9198,16.163,62.375,39,11.4552-22.837,35.0859-39,62.375-39h20.792v-124.75h-51.9795c-13.6445,0-25.4599,8.085-31.1875,19.508-5.7276-11.423-17.5429-19.508-31.1875-19.508z" stroke-dashoffset="0" stroke-dasharray="none" fill="#e3e4e5"/>
<path style="color:#000000;enable-background:accumulate;" d="m105.5,395.24999,0,299.5,125.375,0c-0.4061-2.0061-0.625-4.0875-0.625-6.221v-293.279z" stroke-dashoffset="0" stroke-dasharray="none" fill="#eac102"/>
<path d="m119.36106,694.74999,0-299.5,13.8612,0,0,299.5z" fill-rule="evenodd" stroke-dasharray="none" fill="#ed1c24"/>
<path d="m160.94446,694.74999,0-299.5-13.8611,0,0,299.5z" fill-rule="evenodd" stroke-dasharray="none" fill="#ed1c24"/>
<path d="m188.66676,694.74999,0-299.5-13.8612,0,0,299.5z" fill-rule="evenodd" stroke-dasharray="none" fill="#ed1c24"/>
<path d="m216.38906,694.74999,0-299.5-13.8612,0,0,299.5z" fill-rule="evenodd" stroke-dasharray="none" fill="#ed1c24"/>
<path style="color:#000000;enable-background:accumulate;" d="m604.49976,395.24999,0,299.5-125.375,0c0.4061-2.0061,0.625-4.0875,0.625-6.221v-293.279z" stroke-dashoffset="0" stroke-dasharray="none" fill="#eac102"/>
<path d="m590.63886,694.74999,0-299.5-13.8612,0,0,299.5z" fill-rule="evenodd" stroke-dasharray="none" fill="#ed1c24"/>
<path d="m549.05546,694.74999,0-299.5,13.8611,0,0,299.5z" fill-rule="evenodd" stroke-dasharray="none" fill="#ed1c24"/>
<path d="m521.33316,694.74999,0-299.5,13.8612,0,0,299.5z" fill-rule="evenodd" stroke-dasharray="none" fill="#ed1c24"/>
<path d="m493.61086,694.74999,0-299.5,13.8612,0,0,299.5z" fill-rule="evenodd" stroke-dasharray="none" fill="#ed1c24"/>
</g>
<g transform="matrix(0.28735642,0,0,0.28735642,-634.75747,524.65982)" stroke-dasharray="none" stroke-width="1">
<g>
<path fill-rule="evenodd" fill="#eac102" d="m364.21441,287.75149-18.4288,0,0-22.4408-3.8507-1.8356,0-5.1001,5.226,0,0,2.5506,5.226,0,0-2.5506,5.2262,0,0,2.5506,5.226,0,0-2.5506,5.226,0,0,5.1001-3.8507,1.8356z"/>
<path fill="none" d="m345.78561,272.79169,5.9137,0"/>
<path fill="none" d="m341.93491,263.47509,26.1302,0"/>
<path fill="none" d="m345.78561,280.27159,18.4288,0"/>
<path fill="none" d="m355.00001,265.31179,0,7.4799"/>
<path fill="#0071bc" d="m355.00001,268.50749c1.8286,0,3.3006,1.0917,3.3006,2.4475v6.1209h-6.6013v-6.1209c0-1.3558,1.4722-2.4475,3.3007-2.4475z"/>
<path fill="none" d="m345.78561,265.31179,18.4288,0"/>
<path fill="none" d="m355.00001,280.27159,0,7.4799"/>
<path fill="none" d="m358.30061,272.79169,5.9138,0"/>
<path fill-rule="evenodd" fill="#eac102" d="m337.53411,295.70799-18.4287,0,0-22.4408-3.8507-1.8355,0-5.1001,5.226,0,0,2.5495,5.226,0,0-2.5495,5.2261,0,0,2.5495,5.226,0,0-2.5495,5.226,0,0,5.1001-3.8507,1.8355z"/>
<path fill="none" d="m319.10541,280.74819,5.9138,0"/>
<path fill="none" d="m315.25471,271.43169,26.1301,0"/>
<path fill="none" d="m319.10541,288.22819,18.4287,0"/>
<path fill="none" d="m328.31981,273.26719,0,7.481"/>
<path fill="#0071bc" d="m328.31971,276.46409c1.8287,0,3.3007,1.0916,3.3007,2.4474v6.1198h-6.6012v-6.1198c0-1.3558,1.4719-2.4474,3.3005-2.4474z"/>
<path fill="none" d="m319.10541,273.26719,18.4287,0"/>
<path fill="none" d="m328.31981,288.22819,0,7.4798"/>
<path fill="none" d="m331.62041,280.74819,5.9137,0"/>
<path fill-rule="evenodd" fill="#eac102" d="m390.89451,295.70799-18.4285,0,0-22.4408-3.8509-1.8355,0-5.1001,5.226,0,0,2.5495,5.2261,0,0-2.5495,5.226,0,0,2.5495,5.226,0,0-2.5495,5.2261,0,0,5.1001-3.8508,1.8355z"/>
<path fill="none" d="m372.46581,280.74819,5.9138,0"/>
<path fill="none" d="m368.61511,271.43169,26.1302,0"/>
<path fill="none" d="m372.46581,288.22819,18.4287,0"/>
<path fill="none" d="m381.68021,273.26719,0,7.481"/>
<path fill="#0071bc" d="m381.68021,276.46409c1.8286,0,3.3008,1.0916,3.3008,2.4474v6.1198h-6.6014v-6.1198c0-1.3558,1.4719-2.4474,3.3006-2.4474z"/>
<path fill="none" d="m372.46581,273.26719,18.4287,0"/>
<path fill="none" d="m381.68021,288.22819,0,7.4798"/>
<path fill="none" d="m384.98101,280.74819,5.9135,0"/>
<path fill="#eac102" d="m404.49996,357.37499,0-17.5217-9.8999-5.8408-0.0001-35.0456,6.5909-2.2662,0-9.9927-16.4909,0,0,4.9968-18.3935,0,0-4.9968-22.6128,0,0,4.9968-18.3934,0,0-4.9968-16.4911,0,0,9.9927,6.591,2.2662-0.0001,35.0456-9.9,5.8408,0,17.5217z"/>
<path fill="none" d="m305.50006,348.61469,98.9997,0"/>
<path fill="none" d="m305.50006,339.85329,98.9997,0"/>
<path fill="none" d="m315.40016,325.25099,79.1999,0"/>
<path fill="none" d="m315.40016,307.72829,79.1999,0"/>
<path fill="none" d="m315.40016,316.48969,14.6983,0"/>
<path fill="none" d="m374.80006,348.61469,0,8.7603"/>
<path fill="none" d="m315.40006,348.61469,0,8.7603"/>
<path fill="none" d="m335.19996,348.61469,0,8.7603"/>
<path fill="none" d="m335.19996,334.01249,0,5.8408"/>
<path fill="none" d="m374.80006,334.01249,0,5.8408"/>
<path fill="none" d="m315.40016,334.01249,79.1999,0"/>
<path fill="none" d="m325.30006,325.25099,0,8.7615"/>
<path fill="none" d="m379.90176,316.48969,14.6983,0"/>
<path fill="none" d="m340.30176,316.48969,29.3967,0"/>
<path fill="none" d="m308.80916,296.70069,92.3817,0"/>
<path fill="none" d="m315.40006,298.96689,79.2,0"/>
<path fill="none" d="m335.19996,316.48969,0,8.7613"/>
<path fill="none" d="m335.19996,298.96689,0,8.7614"/>
<path fill="#0071bc" d="m335.19996,305.00089c2.8265,0,5.1018,1.6999,5.1018,3.8117v10.4045h-10.2033v-10.4045c0-2.1118,2.2754-3.8117,5.1015-3.8117z"/>
<path fill="none" d="m374.80006,316.48969,0,8.7613"/>
<path fill="none" d="m374.80006,298.96689,0,8.7614"/>
<path fill="#0071bc" d="m374.80006,305.00089c2.8264,0,5.1017,1.6999,5.1017,3.8117v10.4045h-10.2033v-10.4045c0-2.1118,2.2754-3.8117,5.1016-3.8117z"/>
<path fill="#0071bc" d="m355.00006,335.98049c5.4627,0,9.8602,3.2615,9.8602,7.3124v14.0821h-19.7205v-14.0821c0-4.0509,4.3976-7.3124,9.8603-7.3124z"/>
<path fill="none" d="m325.30006,339.85439,0,8.7603"/>
<path fill="none" d="m394.60006,348.61469,0,8.7603"/>
<path fill="none" d="m384.70006,339.85439,0,8.7603"/>
<path fill="none" d="m345.10006,325.25099,0,8.7615"/>
<path fill="none" d="m364.90016,325.25099,0,8.7615"/>
<path fill="none" d="m384.70006,325.25099,0,8.7615"/>
<path fill="none" d="m355.00006,316.48969,0,8.7613"/>
<path fill="none" d="m325.30006,307.72829,0,8.7614"/>
<path fill="none" d="m345.10006,307.72829,0,8.7614"/>
<path fill="none" d="m364.90016,307.72829,0,8.7614"/>
<path fill="none" d="m384.70006,307.72829,0,8.7614"/>
<path fill="none" d="m355.00006,298.96689,0,8.7614"/>
</g>
<g transform="translate(-7948.0348,-125.68131)">
<path fill="#ed1c24" d="m8440.959,473.9651c1.359-0.2202,3.096,1.743,3.336,2.2017l2.502-1.2282c-0.748-2.0347-4.763-3.8371-5.838-0.9735z"/>
<path fill="#ed1c24" d="m8435.526,483.0067c0.979-1.1655,3.91-0.5384,4.456-0.2752l0.687-2.8284c-2.267-0.7573-5.194-0.037-5.143,3.1036z"/>
<path fill="#ed1c24" d="m8438.552,490.5482c1.687-1.1939,3.515-1.9513,4.172-2.1587l-2.064-2.4062c-2.103,0.9888-2.897,2.1619-2.108,4.5649z"/>
<path fill="#ed1c24" d="m8451.588,493.1061c0.86-1.1906,0.634-4.2228,0.578-4.7091l3.106,1.0011c0.568,2.083-1.196,4.5445-3.684,3.708z"/>
<path fill="#ed1c24" d="m8464.923,472.3405c0.753,0.7225,0.824,3.8862-0.106,4.4512-2.122,1.2898-3.871,0.714-5.34,1.1141-1.229,0.3345-4.685,2.3392-6.162,2.8748-1.188,0.4305-3.39,0.8404-3.489,0.4608,0.1,0.381,2.284-0.028,3.489-0.4608-1.201,0.4335-2.168-0.8758-2.442-1.1323-0.923-0.863-1.421-1.8169-1.168-3.3041,0.358-2.1014-2.567-3.2039-4.03-1.2532-2.44,0.2944-1.995,1.3818-1.93,3.1538,0.03,0.6973,1.379,1.0956,2.344,1.3979-0.974-0.3108-2.32-0.7045-2.344-1.3979-0.667-0.5-2.715-0.086-3.662,0.9014-0.489,0.5088-0.01,1.4243-0.201,2.0399-0.398,1.2604-0.337,1.9975,1.122,2.7606,0.486-0.2965,1.895-0.7337,2.742-0.9813-0.845,0.2475-2.259,0.6909-2.742,0.9813-0.835,0.5021-1.28,1.169-1.002,2.4757,0.07,0.3425,0.394,0.9132,1.216,1.1288,0.854,1.054,1.414,1.6776,2.595,1.3618,1.961-0.524,2.457-2.9841,3.368-2.9971,1.323-0.018,1.583-1.069,3.188-1.5009,1.311-0.353,2.741,0.6484,2.366,1.2097-0.379,0.5685-1.246,0.8764-1.521,1.5149-0.96,2.2258,5.968,3.8513,6.886,2.3106,0.597-1.0027-1.105-2.9156,1.078-4.1069,2.858-1.5599,2.601,2.5987,6.267,2.4099,2.523-0.1299-3.342-3.7289-0.657-3.5223,2.528,0.1947,4.684,2.6231,6.57,1.0661,1.028-0.8495-3.735-1.9809-1.062-2.4565,1.79-0.3183,5.198,2.0581,6.216,0.3245,0.701-1.1932-2.978-1.5654-2.324-2.7808,0.714-1.3281,5.515,1.2678,6.569-0.927,0.469-0.9758-2.249-1.1737-2.072-1.9002,0.128-0.5241,1.241,0.1397,2.022-0.556,1.58-1.4083,4.262-6.8547,1.92-5.3298-1.476,0.9614-2.246,1.1431-3.032,1.8537,0.736-0.9608,0.93-5.3978,0.859-5.7004-0.31-1.3286,4.071-1.9711,6.696-4.5726,2.188-2.1677,3.589-4.1761,4.473-7.0604l-12.648-6.6112c-0.04,5.466-2.325,6.0265-6.007,6.3539-4.547,0.4043-12.405,2.8206-12.673,7.6759-3.116,0.3278-4.024-0.8984-4.582-1.608-0.361-0.4595-3.553-0.9504-4.859,0.6316-1.44,1.7453-3.274,1.7017-4.112,1.8587,0.55,1.9025,2.796,2.3222,5.066,1.7905,1.747-0.4091,2.979-1.7533,3.796-1.8527,2.008-0.2445,1.997,1.7905,4.699,1.1324,0.489,1.8768,2.037,4.2976,4.62,6.7779z"/>
<path fill="#ed1c24" d="m8437.268,394.0779c0.57,1.4645-0.99,3.7227-1.052,4.4131l2.367,2.5113c1.527-1.593,2.829-6.2801-1.315-6.9244z"/>
<path fill="#ed1c24" d="m8421.896,395.3441c1.793,0.1948,4.151,2.2294,4.341,4.1225l3.076-2.4155c-0.99-1.8612-4.886-4.6119-7.417-1.707z"/>
<path fill="#ed1c24" d="m8420.312,408.3864c1.355-0.943,2.935-1.2483,5.198-1.2557l-0.704-2.9852c-2.067-0.1849-6.317,1.8468-4.494,4.2409z"/>
<path fill="#ed1c24" d="m8424.477,415.3374c1.764-0.465,2.998-1.4538,4.319-3.1126l2.686,2.1977c-1.008,1.6228-5.581,3.6012-7.005,0.9149z"/>
<path fill="#ed1c24" d="m8457.981,422.5027c-16.419-7.172-16.911-15.8973-21.401-17.0566-0.71-0.1836-1.237-0.389-1.681-0.6594-1.209-0.7353-1.733-1.4671-1.802-2.4639,0.07,0.9977,0.592,1.7321,1.802,2.4639-1.965-1.5443,3.626-1.8712,4.878-3.1516,1.875-1.9177-1.213-3.4632-1.626-3.745-0.475-0.3241-2.685-1.9208-4.083-1.3763-1.377,0.5365-0.12,3.1497-1.539,4.1368-1.086-1.8365-0.405-4.3754-2.487-5.1421-1.352-0.4983-3.215,0.6956-4.035,1.9856-0.19,0.2993-1.475,0.9919-1.223,1.8229,0.661,2.1803,3.266,2.1874,4.903,2.8421,0.538,0.2151,0.422,1.0957-0.492,1.3493-1.24,0.3438-2.758-0.7306-3.926-0.5457-1.882,0.2982-2.035,4.1842,0,5.0225,1.724,0.7109,6.101-2.0698,6.311-0.38,0.152,1.2265,0.431,2.386-0.599,2.9065-0.778,0.3934-2.513-0.1704-3.005,1.4529-0.257,0.8513,1.011,1.4354,1.543,2.0154,0.65,0.7092,0.826,2.3913,2.154,2.1927,1.159-0.1733,1.732-3.4155,3.503-0.6823,1.019,1.5735-1.648,3.6222,0.447,5.9192,0.638,0.6984,0.744-2.6018,2.121-3.2931,0.893-0.4484-0.328,5.7231,1.437,5.8537,1.297,0.096,1.051-3.9684,1.638-2.7416,0.811,1.6932-0.03,4.7793,1.051,5.01,0.601,0.1286,1.901-2.5437,2.059-2.2856,0.595,0.9742,0.159,4.1032,1.242,4.6554,0.617,0.3146,1.676-2.4428,2.111-1.7551,0.505,0.798-0.646,3.211,0.249,3.7903,0.562,0.3637,2.302-2.2226,2.483-1.8769,0.639,1.2244,2.012,3.721,2.012,3.721l5.85-3.1181z"/>
<path fill="#ed1c24" d="m8424.753,448.3183c1.732,0.093,2.76,1.7734,3.457,2.0873l3.207-1.7076c-1.245-1.4875-4.85-2.5674-6.664-0.3797z"/>
<path fill="#ed1c24" d="m8419.883,457.3557c1.376-1.0339,3.34-0.342,4.126,0.1702l0.874-3.2126c-2.042-0.3539-5.254,0.1951-5,3.0424z"/>
<path fill="#ed1c24" d="m8430.728,466.0037c-0.428-1.2942,0.276-3.7216,0.396-4.1388l-3.417-0.5097c-0.777,2.1882,0.924,4.2944,3.021,4.6485z"/>
<path fill="#ed1c24" d="m8440.658,465.6239c0.397-1.027,0.469-4.2645,0.349-4.6816l3.331-0.7968c0.485,2.9167-1.003,5.5341-3.68,5.4784z"/>
<path fill="#ed1c24" d="m8503.005,455.4223c3.339,3.1829,8.419,5.0312,10.251,2.9444,4.093-4.662-5.78-12.7123-9.761-19.7349-8.365-14.7537-3.647-25.2503,2.022-29.46,5.412-4.02,6.276-3.7674,8.426-7.3837,0.377,2.5917-0.182,5.3978-2.33,7.0469,3.566,3.7922-2.652,10.5338-4.853,21.2025-0.97,4.7012-2.76,6.6016,3.464,14.0773,2.146,2.5782,3.802,4.5824,5.833,8.6136,2.204-6.9319-9.355-15.0801-2.686-20.781-1.316,4.8355,10.167,16.7607,3.28,24.3104-0.906,5.6347-6.274,7.3686-14.462,1.6315z"/>
<path fill="none" d="m8511.613,408.835c-7.132,5.4217-8.456,14.6288-9.097,22.5798"/>
<path fill="#ed1c24" d="m8484.136,491.4235c2.44-0.633,5.368,1.0897,5.764,1.4456l1.605-2.3937c-1.461-1.6776-5.77-1.8268-7.369,0.9481z"/>
<path fill="#ed1c24" d="m8481.898,499.6191c1.101-1.3512,4.791-1.3393,5.261-1.2846l0.05-2.8861c-1.938-0.4669-5.156,1.2944-5.315,4.1707z"/>
<path fill="#ed1c24" d="m8493.312,505.5563c-0.494-2.2289,1.868-3.5631,2.209-3.9142l-3.146-1.7191c-1.655,1.3282-1.904,4.0783,0.937,5.6333z"/>
<path fill="#ed1c24" d="m8501.662,505.4935c1.831-0.8804,1.767-4.6773,1.808-5.1848l3.565-0.2516c-0.164,4.0577-1.966,5.87-5.373,5.4364z"/>
<path fill="none" d="m8488.883,459.9537c-1.868,2.3922-5.373,2.0502-5.852,0.7733-0.36-0.9584,0.546-1.5392,0.986-1.8125-5.192-1.2708-4.538-3.2148-3.684-4.3502z"/>
<path fill="#ed1c24" d="m8455.614,444.3445c16.384,3.1074,17.655,6.846,22.296,9.3712,21.046,11.4513,10.635,9.0265,10.455,18.4719-0.01,0.7628,0.542,1.5987,1.235,2.4158,0.167,1.8117-2.167,2.4792-1.651,4.4359,0.496,1.8818,1.65,4.7564-0.51,6.04,8.404-1.0078,1.492-5.7642,3.799-8.8344,1.081,0.9589,2.212,1.8008,2.895,2.3574,2.872,2.3398,9.414,1.2128,8.365,4.5014-0.962,3.0186-1.221,6.6184-2.567,8.5193-1.08,1.5255-3.377,3.4357-5.117,3.4803,1.748-0.043,4.039-1.9478,5.117-3.4803-1.364,1.895-5.853-2.1079-6.805-2.2596-1.822-0.2906-3.085,0.5753-3.233,1.9872-0.03,0.2722-0.462,0.6004-0.655,0.868-0.734,1.0194,1.943,1.7521,3.382,1.9839-2.751,0.3206-3.8-0.939-4.203-0.9848-2.61-0.2967-1.919,1.8835-2.137,3.2508-0.05,0.2869-0.496,3.0063,1.953,3.1498,1.576,0.092,2.302-1.5009,2.792-1.5052,0.599-0.01,2.22-0.5115,3.436-1.3223,0.176,0.8258-1.481,1.0581-2.942,1.9448-2.656,1.6127,5.377,5.5081,5.758,2.6893,0.14-1.0411-0.18-1.6092,0.468-2.501,0.971-1.3376,3.037,0.075,4.88-1.6764,0.124,1.0941-1.366,2.4146-0.924,4.0697,0.472,1.7677,6.852,0.2143,6.951-0.848,0.207-2.2314-2.861-3.2408-0.454-6.037,0.557-0.6467,4.281-0.4596,6.172-3.2258,0.68-0.9949-3.51-0.3782-3.59-1.0128-0.148-1.1886,5.543-3.2178,5.492-3.995-0.08-1.1894-3.573-0.013-3.651-0.7314-0.109-1.0079,6.247-3.7563,6.247-4.6705,0-1.0352-3.848-0.1722-4.406-0.7033-0.953-0.9063,4.406-2.7602,4.406-4.9797,0-0.9303-2.704,1.122-3.026-0.1126-0.43-1.6536,0.658-4.1325,0.706-4.8391,0.06-0.9201-2.476,2.0328-2.7,2.7009,0.04-1.3328-5.965-1.7726-6.709-3.8263-0.808-2.2369-1.427-4.6218-1.559-8.5018-0.388-11.4424-18.821-17.5356-26.786-32.3492z"/>
<path fill="#ed1c24" d="m8468.895,430.083-10.721-3.7358c-6.332,13.2932-8.563,10.8995-15.957,21.4996-1.428,2.0482-3.397,3.8325-5.594,4.8097-1.459,0.6494-2.797,1.0415-3.964,1.1534,1.165-0.1117,2.504-0.5021,3.964-1.1534-1.299,0.5661-1.819-0.2472-2.354-0.9779-0.937-1.2805,0.225-3.1616-1.682-3.8983-1.388-0.5363-3.013,0.9364-3.338,1.067-0.479,0.1921-2.443,0.746-2.767,2.3779-0.206,1.0391,0.03,1.8651,0.671,2.1098,0.547,0.1656,1.35,0.4496,2.298,0.909-0.945-0.4585-1.751-0.7463-2.298-0.909-0.583-0.1732-1.123-0.3097-1.578-0.3854-2.165-0.3603-1.619,2.2767-1.611,2.7166,0.01,0.3471-1.632,2.93,1.244,3.4609,1.979,0.3651,3.457-0.4012,4.306-1.1224-1.94,1.5724-3.145,0.591-3.323,2.6217-0.172,1.96,2.985,1.777,3.431,1.7999,0.391,0.02,3.443,0.9044,3.68-0.4891,0.2-1.1722-1.375-2.9295,0.387-3.5521,2.757-0.974,2.697,2.5442,6.298-0.087-0.538,0.902-1.302,2.0604-0.748,2.9038,0.618,0.9395,1.743,0.3583,3.18,0.3939,2.275,0.056,3.18-0.921,3.241-1.7691,0.145-2.0226-1.305-3.5392-0.922-3.9852,0.408-0.4767,6.132,0.6039,6.789-0.4928,0.123-0.2058-1.103-0.5194-1.997-0.9686-0.802-0.4034-1.299-0.9508-0.947-1.0457,2.729-0.7364,5.414,0.9282,7.488-0.6531,1.017-0.7758-4.635-1.471-4.225-1.8611,1.385-1.3163,6.762,0.6457,7.761-1.4711,0.405-0.8572-4.343-0.6785-4.163-1.5578,0.269-1.3151,6.932,0.6584,8.462-1.7919,0.458-0.7344-3.56-1.4569-3.403-1.7042,0.167-0.2629,4.425,1.42,7.412-1.2927,0.717-0.6515-2.248-0.5236-2.628-1.3814z"/>
<path fill="#ed1c24" d="m8456.951,399.9996c-0.1,1.0633,1.059,2.7391,2.057,2.3637,0.854-0.3212,1.015-2.802-0.282-4.0521-0.97-0.935-3.066-1.2089-4.184-0.2846-2.834,2.3435-0.207,6.7,4.433,7.7795,2.777,0.6457,5.033,0.8251,7.68,1.0579,2.433,0.2141,5.649,0.09,10.405,2.4395-2.572-2.1486-5.113-3.7928-9.538-4.2434-2.464-0.251-5.301-0.01-7.341-0.9783-2.909-1.392-3.299-3.0133-3.23-4.0822z"/>
<path fill="#e3e4e5" d="m8465.979,406.5962c-1.691,0.087-1.322,3.5442-1.341,4.3213l2.163-0.053c-0.333-0.7697-0.978-2.9876-0.822-4.268z"/>
<path fill="#e3e4e5" d="m8465.343,402.2889c-0.445,2.052-0.516,3.9912,1.098,4.6378-0.05-0.7738,0.251-2.2291,1.309-3.933z"/>
<path fill="#ed1c24" d="m8476.434,394.783c-2.415-0.1646-5.031-0.2011-7.55-0.6504-1.815-0.3241-2.72,0.901-2.447,2.0258-1.435,1.2129-1.519,3.7975-1.755,5.443-0.289,2.0099,2.251,2.9534,3.458,2.2151,1.635-1.0004,3.557-1.6897,4.669-0.7757l1.444,1.1868c1.042,0.8556,1.124,1.883,0.317,2.5146-2.229,1.7473-2.78,1.9928-2.62,3.065,0.239,1.6092-4.693,0.6052-5.266-0.3391-0.385-0.634-1.9-1.0484-2.471,0.7185-1.496,4.6298,3.328,3.7267,6.625,3.3068,2.658-0.3384,2.419,0.7719,0.32,1.3468-2.186,0.5984-5.006,0.7356-7.192,0.8242-2.252,0.091-4.936,2.0709-6.435,2.7784-2.765,1.3052-3.525,2.0746-5.693,2.2871-0.389,0.5779-0.03,1.3068,0.218,1.4987-5.102,3.7896-6.202,6.8456-11.838,6.5672-0.07,3.7156,6.316,3.2485,8.563,2.0245,1.571-0.8558,4.333-2.3043,6.237-2.9159-0.793,0.9875-3.009,1.0855-5.872,5.1478-1.567,2.2221-4.67,5.8098-7.188,5.5627,0.164,3.0605,5.34,4.5373,10.835-0.8815,2.638-2.6008,4.548-4.7627,6.103-5.6485-1.121,0.8215-3.08,3.3487-3.555,6.054-0.663,3.7822-3.007,5.0906-3.74,5.561,2.091,1.8506,6.304,0.1871,8.322-3.7823,1.155-2.2702,3.357-5.9506,5.391-7.1682-0.456,1.0337-1.304,2.3749-1.192,6.3069,0.07,2.4555-1.938,5.1436-3.924,5.2271,1.637,0.4406,4.91-0.2776,7.09-2.851,1.13-1.3336,2.648-4.6157,3.468-6.7494,1.141,2.7217,1.752,8.0855,0.217,9.7304,8.059-0.9122,4.444-6.7344,7.079-10.4292-0.16,3.6342,3.555,3.9461,2.029,8.6239,6.807-1.8449,2.675-10.2189,3.984-11.5246,0.03,2.7993,3.056,4.1643,3.05,7.788,3.758-4.5707,0.391-5.4554,0.873-12.2589,0.525,1.8259,2.644,3.3247,2.868,6.0057,2.976-5.1921-1.254-8.7055-0.852-12.472,0.851,1.4376,1.755,2.0222,2.867,5.2431,0.245-6.7369-0.875-6.7297-2.029-11.8432,1.049,0.8985,1.445,1.7789,2.178,3.0822-0.1-1.9306-0.954-5.7986-0.954-5.7986s0.485-4.6041-0.699-7.0947c-2.297-4.8329-12.086-11.9255-14.933-8.9521z"/>
<path fill="none" d="m8452.056,422.2286c0.717,0.7829,3.818,0.9958,6.655-0.3355,1.738-0.8153,3.802-1.8998,5.908-2.2819-1.901,2.1238-2.994,2.9397-5.013,4.0404,4.994,4.946,8.649-4.6018,16.806-4.8902-2.111,1.7116-1.845,4.6477-4.364,6.7769,8.016,1.0479,7.267-7.3996,12.766-9.3305"/>
<path fill="#e3e4e5" d="m8476.858,396.2856c0.898,0.463,1.742,1.0511,2.715,1.2391,1.104,0.2135,1.655,0.7838,2.568,1.5753-0.594,1.5482-0.431,3.4573-2.251,3.4595-1.515,0-2.075-1.3481-2.235-2.7359-0.105-0.908-1.188-1.3205-0.797-3.538z"/>
<path fill="#000" d="m8479.573,397.5247c-0.08,0.5971-1.196,2.3099-1.829,2.8724-0.06-0.1312-0.04-0.365-0.09-0.5735-0.281-1.2701-1.119-1.2837-0.783-3.5498,0.969,0.519,1.649,1.0403,2.701,1.2509z"/>
<path fill="#ed1c24" d="m8466.437,396.1584c0.647-0.5334,1.631-0.2224,2.406-0.3455"/>
<path fill="#ed1c24" d="m8487.934,403.7775c1.707,0.086,3.413,0.046,5.12-0.08-1.245,2.8265-2.69,5.2636-4.513,7.2414"/>
<path fill="#eac102" d="m8479.543,394.2265,0.678-2.2097,0.173-2.0532c1,2.2385,1.387,2.3747,3.531,2.4165,1.259,2.0046,1.671,2.3071,4.083,2.5647,0.891,2.2583,1.292,2.5751,3.558,3.2556,0.611,2.0567,0.845,2.3943,3.267,2.7619l-1.931,0.714-1.947,1.2429c-1.536-1.9539-3.12-3.7322-5.014-5.1749-1.894-1.4426-4.107-2.557-6.398-3.5178z"/>
<path fill="#eac102" d="m8481.659,387.5176,0.56,1.982-0.837,1.0118-1.022,0.01-0.251-1.146,0.214-2.8191,1.336,0.9655z"/>
<path fill="#eac102" d="m8484.715,388.6074,1.01-0.1849,0.522,0.9802-0.13,2.0065-1.844,1.3289-0.57-0.021-0.459-0.4924-0.07-2.3799,1.545-1.2371z"/>
<path fill="#eac102" d="m8489.324,391.5555,1.169,0.124,0.481,1.1667-0.378,2.0171-2.248,0.79-0.687-0.2502-0.424-0.5959,0.189-2.4631,1.898-0.7886z"/>
<path fill="#eac102" d="m8496.852,399.0908-2.058-0.013-0.751,1.0776,0.266,0.9871,1.171-0.063,2.657-0.9577-1.285-1.0312z"/>
<path fill="#eac102" d="m8494.988,396.4325-0.09-1.0233-1.083-0.2425-1.898,0.6602-0.788,2.1324,0.172,0.5448,0.597,0.3112,2.311-0.563,0.78-1.8198z"/>
</g>
<g transform="matrix(-1,0,0,1,8658.0352,-125.68131)">
<path fill="#ed1c24" d="m8440.959,473.9651c1.359-0.2202,3.096,1.743,3.336,2.2017l2.502-1.2282c-0.748-2.0347-4.763-3.8371-5.838-0.9735z"/>
<path fill="#ed1c24" d="m8435.526,483.0067c0.979-1.1655,3.91-0.5384,4.456-0.2752l0.687-2.8284c-2.267-0.7573-5.194-0.037-5.143,3.1036z"/>
<path fill="#ed1c24" d="m8438.552,490.5482c1.687-1.1939,3.515-1.9513,4.172-2.1587l-2.064-2.4062c-2.103,0.9888-2.897,2.1619-2.108,4.5649z"/>
<path fill="#ed1c24" d="m8451.588,493.1061c0.86-1.1906,0.634-4.2228,0.578-4.7091l3.106,1.0011c0.568,2.083-1.196,4.5445-3.684,3.708z"/>
<path fill="#ed1c24" d="m8464.923,472.3405c0.753,0.7225,0.824,3.8862-0.106,4.4512-2.122,1.2898-3.871,0.714-5.34,1.1141-1.229,0.3345-4.685,2.3392-6.162,2.8748-1.188,0.4305-3.39,0.8404-3.489,0.4608,0.1,0.381,2.284-0.028,3.489-0.4608-1.201,0.4335-2.168-0.8758-2.442-1.1323-0.923-0.863-1.421-1.8169-1.168-3.3041,0.358-2.1014-2.567-3.2039-4.03-1.2532-2.44,0.2944-1.995,1.3818-1.93,3.1538,0.03,0.6973,1.379,1.0956,2.344,1.3979-0.974-0.3108-2.32-0.7045-2.344-1.3979-0.667-0.5-2.715-0.086-3.662,0.9014-0.489,0.5088-0.01,1.4243-0.201,2.0399-0.398,1.2604-0.337,1.9975,1.122,2.7606,0.486-0.2965,1.895-0.7337,2.742-0.9813-0.845,0.2475-2.259,0.6909-2.742,0.9813-0.835,0.5021-1.28,1.169-1.002,2.4757,0.07,0.3425,0.394,0.9132,1.216,1.1288,0.854,1.054,1.414,1.6776,2.595,1.3618,1.961-0.524,2.457-2.9841,3.368-2.9971,1.323-0.018,1.583-1.069,3.188-1.5009,1.311-0.353,2.741,0.6484,2.366,1.2097-0.379,0.5685-1.246,0.8764-1.521,1.5149-0.96,2.2258,5.968,3.8513,6.886,2.3106,0.597-1.0027-1.105-2.9156,1.078-4.1069,2.858-1.5599,2.601,2.5987,6.267,2.4099,2.523-0.1299-3.342-3.7289-0.657-3.5223,2.528,0.1947,4.684,2.6231,6.57,1.0661,1.028-0.8495-3.735-1.9809-1.062-2.4565,1.79-0.3183,5.198,2.0581,6.216,0.3245,0.701-1.1932-2.978-1.5654-2.324-2.7808,0.714-1.3281,5.515,1.2678,6.569-0.927,0.469-0.9758-2.249-1.1737-2.072-1.9002,0.128-0.5241,1.241,0.1397,2.022-0.556,1.58-1.4083,4.262-6.8547,1.92-5.3298-1.476,0.9614-2.246,1.1431-3.032,1.8537,0.736-0.9608,0.93-5.3978,0.859-5.7004-0.31-1.3286,4.071-1.9711,6.696-4.5726,2.188-2.1677,3.589-4.1761,4.473-7.0604l-12.648-6.6112c-0.04,5.466-2.325,6.0265-6.007,6.3539-4.547,0.4043-12.405,2.8206-12.673,7.6759-3.116,0.3278-4.024-0.8984-4.582-1.608-0.361-0.4595-3.553-0.9504-4.859,0.6316-1.44,1.7453-3.274,1.7017-4.112,1.8587,0.55,1.9025,2.796,2.3222,5.066,1.7905,1.747-0.4091,2.979-1.7533,3.796-1.8527,2.008-0.2445,1.997,1.7905,4.699,1.1324,0.489,1.8768,2.037,4.2976,4.62,6.7779z"/>
<path fill="#ed1c24" d="m8437.268,394.0779c0.57,1.4645-0.99,3.7227-1.052,4.4131l2.367,2.5113c1.527-1.593,2.829-6.2801-1.315-6.9244z"/>
<path fill="#ed1c24" d="m8421.896,395.3441c1.793,0.1948,4.151,2.2294,4.341,4.1225l3.076-2.4155c-0.99-1.8612-4.886-4.6119-7.417-1.707z"/>
<path fill="#ed1c24" d="m8420.312,408.3864c1.355-0.943,2.935-1.2483,5.198-1.2557l-0.704-2.9852c-2.067-0.1849-6.317,1.8468-4.494,4.2409z"/>
<path fill="#ed1c24" d="m8424.477,415.3374c1.764-0.465,2.998-1.4538,4.319-3.1126l2.686,2.1977c-1.008,1.6228-5.581,3.6012-7.005,0.9149z"/>
<path fill="#ed1c24" d="m8457.981,422.5027c-16.419-7.172-16.911-15.8973-21.401-17.0566-0.71-0.1836-1.237-0.389-1.681-0.6594-1.209-0.7353-1.733-1.4671-1.802-2.4639,0.07,0.9977,0.592,1.7321,1.802,2.4639-1.965-1.5443,3.626-1.8712,4.878-3.1516,1.875-1.9177-1.213-3.4632-1.626-3.745-0.475-0.3241-2.685-1.9208-4.083-1.3763-1.377,0.5365-0.12,3.1497-1.539,4.1368-1.086-1.8365-0.405-4.3754-2.487-5.1421-1.352-0.4983-3.215,0.6956-4.035,1.9856-0.19,0.2993-1.475,0.9919-1.223,1.8229,0.661,2.1803,3.266,2.1874,4.903,2.8421,0.538,0.2151,0.422,1.0957-0.492,1.3493-1.24,0.3438-2.758-0.7306-3.926-0.5457-1.882,0.2982-2.035,4.1842,0,5.0225,1.724,0.7109,6.101-2.0698,6.311-0.38,0.152,1.2265,0.431,2.386-0.599,2.9065-0.778,0.3934-2.513-0.1704-3.005,1.4529-0.257,0.8513,1.011,1.4354,1.543,2.0154,0.65,0.7092,0.826,2.3913,2.154,2.1927,1.159-0.1733,1.732-3.4155,3.503-0.6823,1.019,1.5735-1.648,3.6222,0.447,5.9192,0.638,0.6984,0.744-2.6018,2.121-3.2931,0.893-0.4484-0.328,5.7231,1.437,5.8537,1.297,0.096,1.051-3.9684,1.638-2.7416,0.811,1.6932-0.03,4.7793,1.051,5.01,0.601,0.1286,1.901-2.5437,2.059-2.2856,0.595,0.9742,0.159,4.1032,1.242,4.6554,0.617,0.3146,1.676-2.4428,2.111-1.7551,0.505,0.798-0.646,3.211,0.249,3.7903,0.562,0.3637,2.302-2.2226,2.483-1.8769,0.639,1.2244,2.012,3.721,2.012,3.721l5.85-3.1181z"/>
<path fill="#ed1c24" d="m8424.753,448.3183c1.732,0.093,2.76,1.7734,3.457,2.0873l3.207-1.7076c-1.245-1.4875-4.85-2.5674-6.664-0.3797z"/>
<path fill="#ed1c24" d="m8419.883,457.3557c1.376-1.0339,3.34-0.342,4.126,0.1702l0.874-3.2126c-2.042-0.3539-5.254,0.1951-5,3.0424z"/>
<path fill="#ed1c24" d="m8430.728,466.0037c-0.428-1.2942,0.276-3.7216,0.396-4.1388l-3.417-0.5097c-0.777,2.1882,0.924,4.2944,3.021,4.6485z"/>
<path fill="#ed1c24" d="m8440.658,465.6239c0.397-1.027,0.469-4.2645,0.349-4.6816l3.331-0.7968c0.485,2.9167-1.003,5.5341-3.68,5.4784z"/>
<path fill="#ed1c24" d="m8503.005,455.4223c3.339,3.1829,8.419,5.0312,10.251,2.9444,4.093-4.662-5.78-12.7123-9.761-19.7349-8.365-14.7537-3.647-25.2503,2.022-29.46,5.412-4.02,6.276-3.7674,8.426-7.3837,0.377,2.5917-0.182,5.3978-2.33,7.0469,3.566,3.7922-2.652,10.5338-4.853,21.2025-0.97,4.7012-2.76,6.6016,3.464,14.0773,2.146,2.5782,3.802,4.5824,5.833,8.6136,2.204-6.9319-9.355-15.0801-2.686-20.781-1.316,4.8355,10.167,16.7607,3.28,24.3104-0.906,5.6347-6.274,7.3686-14.462,1.6315z"/>
<path fill="none" d="m8511.613,408.835c-7.132,5.4217-8.456,14.6288-9.097,22.5798"/>
<path fill="#ed1c24" d="m8484.136,491.4235c2.44-0.633,5.368,1.0897,5.764,1.4456l1.605-2.3937c-1.461-1.6776-5.77-1.8268-7.369,0.9481z"/>
<path fill="#ed1c24" d="m8481.898,499.6191c1.101-1.3512,4.791-1.3393,5.261-1.2846l0.05-2.8861c-1.938-0.4669-5.156,1.2944-5.315,4.1707z"/>
<path fill="#ed1c24" d="m8493.312,505.5563c-0.494-2.2289,1.868-3.5631,2.209-3.9142l-3.146-1.7191c-1.655,1.3282-1.904,4.0783,0.937,5.6333z"/>
<path fill="#ed1c24" d="m8501.662,505.4935c1.831-0.8804,1.767-4.6773,1.808-5.1848l3.565-0.2516c-0.164,4.0577-1.966,5.87-5.373,5.4364z"/>
<path fill="none" d="m8488.883,459.9537c-1.868,2.3922-5.373,2.0502-5.852,0.7733-0.36-0.9584,0.546-1.5392,0.986-1.8125-5.192-1.2708-4.538-3.2148-3.684-4.3502z"/>
<path fill="#ed1c24" d="m8455.614,444.3445c16.384,3.1074,17.655,6.846,22.296,9.3712,21.046,11.4513,10.635,9.0265,10.455,18.4719-0.01,0.7628,0.542,1.5987,1.235,2.4158,0.167,1.8117-2.167,2.4792-1.651,4.4359,0.496,1.8818,1.65,4.7564-0.51,6.04,8.404-1.0078,1.492-5.7642,3.799-8.8344,1.081,0.9589,2.212,1.8008,2.895,2.3574,2.872,2.3398,9.414,1.2128,8.365,4.5014-0.962,3.0186-1.221,6.6184-2.567,8.5193-1.08,1.5255-3.377,3.4357-5.117,3.4803,1.748-0.043,4.039-1.9478,5.117-3.4803-1.364,1.895-5.853-2.1079-6.805-2.2596-1.822-0.2906-3.085,0.5753-3.233,1.9872-0.03,0.2722-0.462,0.6004-0.655,0.868-0.734,1.0194,1.943,1.7521,3.382,1.9839-2.751,0.3206-3.8-0.939-4.203-0.9848-2.61-0.2967-1.919,1.8835-2.137,3.2508-0.05,0.2869-0.496,3.0063,1.953,3.1498,1.576,0.092,2.302-1.5009,2.792-1.5052,0.599-0.01,2.22-0.5115,3.436-1.3223,0.176,0.8258-1.481,1.0581-2.942,1.9448-2.656,1.6127,5.377,5.5081,5.758,2.6893,0.14-1.0411-0.18-1.6092,0.468-2.501,0.971-1.3376,3.037,0.075,4.88-1.6764,0.124,1.0941-1.366,2.4146-0.924,4.0697,0.472,1.7677,6.852,0.2143,6.951-0.848,0.207-2.2314-2.861-3.2408-0.454-6.037,0.557-0.6467,4.281-0.4596,6.172-3.2258,0.68-0.9949-3.51-0.3782-3.59-1.0128-0.148-1.1886,5.543-3.2178,5.492-3.995-0.08-1.1894-3.573-0.013-3.651-0.7314-0.109-1.0079,6.247-3.7563,6.247-4.6705,0-1.0352-3.848-0.1722-4.406-0.7033-0.953-0.9063,4.406-2.7602,4.406-4.9797,0-0.9303-2.704,1.122-3.026-0.1126-0.43-1.6536,0.658-4.1325,0.706-4.8391,0.06-0.9201-2.476,2.0328-2.7,2.7009,0.04-1.3328-5.965-1.7726-6.709-3.8263-0.808-2.2369-1.427-4.6218-1.559-8.5018-0.388-11.4424-18.821-17.5356-26.786-32.3492z"/>
<path fill="#ed1c24" d="m8468.895,430.083-10.721-3.7358c-6.332,13.2932-8.563,10.8995-15.957,21.4996-1.428,2.0482-3.397,3.8325-5.594,4.8097-1.459,0.6494-2.797,1.0415-3.964,1.1534,1.165-0.1117,2.504-0.5021,3.964-1.1534-1.299,0.5661-1.819-0.2472-2.354-0.9779-0.937-1.2805,0.225-3.1616-1.682-3.8983-1.388-0.5363-3.013,0.9364-3.338,1.067-0.479,0.1921-2.443,0.746-2.767,2.3779-0.206,1.0391,0.03,1.8651,0.671,2.1098,0.547,0.1656,1.35,0.4496,2.298,0.909-0.945-0.4585-1.751-0.7463-2.298-0.909-0.583-0.1732-1.123-0.3097-1.578-0.3854-2.165-0.3603-1.619,2.2767-1.611,2.7166,0.01,0.3471-1.632,2.93,1.244,3.4609,1.979,0.3651,3.457-0.4012,4.306-1.1224-1.94,1.5724-3.145,0.591-3.323,2.6217-0.172,1.96,2.985,1.777,3.431,1.7999,0.391,0.02,3.443,0.9044,3.68-0.4891,0.2-1.1722-1.375-2.9295,0.387-3.5521,2.757-0.974,2.697,2.5442,6.298-0.087-0.538,0.902-1.302,2.0604-0.748,2.9038,0.618,0.9395,1.743,0.3583,3.18,0.3939,2.275,0.056,3.18-0.921,3.241-1.7691,0.145-2.0226-1.305-3.5392-0.922-3.9852,0.408-0.4767,6.132,0.6039,6.789-0.4928,0.123-0.2058-1.103-0.5194-1.997-0.9686-0.802-0.4034-1.299-0.9508-0.947-1.0457,2.729-0.7364,5.414,0.9282,7.488-0.6531,1.017-0.7758-4.635-1.471-4.225-1.8611,1.385-1.3163,6.762,0.6457,7.761-1.4711,0.405-0.8572-4.343-0.6785-4.163-1.5578,0.269-1.3151,6.932,0.6584,8.462-1.7919,0.458-0.7344-3.56-1.4569-3.403-1.7042,0.167-0.2629,4.425,1.42,7.412-1.2927,0.717-0.6515-2.248-0.5236-2.628-1.3814z"/>
<path fill="#ed1c24" d="m8456.951,399.9996c-0.1,1.0633,1.059,2.7391,2.057,2.3637,0.854-0.3212,1.015-2.802-0.282-4.0521-0.97-0.935-3.066-1.2089-4.184-0.2846-2.834,2.3435-0.207,6.7,4.433,7.7795,2.777,0.6457,5.033,0.8251,7.68,1.0579,2.433,0.2141,5.649,0.09,10.405,2.4395-2.572-2.1486-5.113-3.7928-9.538-4.2434-2.464-0.251-5.301-0.01-7.341-0.9783-2.909-1.392-3.299-3.0133-3.23-4.0822z"/>
<path fill="#e3e4e5" d="m8465.979,406.5962c-1.691,0.087-1.322,3.5442-1.341,4.3213l2.163-0.053c-0.333-0.7697-0.978-2.9876-0.822-4.268z"/>
<path fill="#e3e4e5" d="m8465.343,402.2889c-0.445,2.052-0.516,3.9912,1.098,4.6378-0.05-0.7738,0.251-2.2291,1.309-3.933z"/>
<path fill="#ed1c24" d="m8476.434,394.783c-2.415-0.1646-5.031-0.2011-7.55-0.6504-1.815-0.3241-2.72,0.901-2.447,2.0258-1.435,1.2129-1.519,3.7975-1.755,5.443-0.289,2.0099,2.251,2.9534,3.458,2.2151,1.635-1.0004,3.557-1.6897,4.669-0.7757l1.444,1.1868c1.042,0.8556,1.124,1.883,0.317,2.5146-2.229,1.7473-2.78,1.9928-2.62,3.065,0.239,1.6092-4.693,0.6052-5.266-0.3391-0.385-0.634-1.9-1.0484-2.471,0.7185-1.496,4.6298,3.328,3.7267,6.625,3.3068,2.658-0.3384,2.419,0.7719,0.32,1.3468-2.186,0.5984-5.006,0.7356-7.192,0.8242-2.252,0.091-4.936,2.0709-6.435,2.7784-2.765,1.3052-3.525,2.0746-5.693,2.2871-0.389,0.5779-0.03,1.3068,0.218,1.4987-5.102,3.7896-6.202,6.8456-11.838,6.5672-0.07,3.7156,6.316,3.2485,8.563,2.0245,1.571-0.8558,4.333-2.3043,6.237-2.9159-0.793,0.9875-3.009,1.0855-5.872,5.1478-1.567,2.2221-4.67,5.8098-7.188,5.5627,0.164,3.0605,5.34,4.5373,10.835-0.8815,2.638-2.6008,4.548-4.7627,6.103-5.6485-1.121,0.8215-3.08,3.3487-3.555,6.054-0.663,3.7822-3.007,5.0906-3.74,5.561,2.091,1.8506,6.304,0.1871,8.322-3.7823,1.155-2.2702,3.357-5.9506,5.391-7.1682-0.456,1.0337-1.304,2.3749-1.192,6.3069,0.07,2.4555-1.938,5.1436-3.924,5.2271,1.637,0.4406,4.91-0.2776,7.09-2.851,1.13-1.3336,2.648-4.6157,3.468-6.7494,1.141,2.7217,1.752,8.0855,0.217,9.7304,8.059-0.9122,4.444-6.7344,7.079-10.4292-0.16,3.6342,3.555,3.9461,2.029,8.6239,6.807-1.8449,2.675-10.2189,3.984-11.5246,0.03,2.7993,3.056,4.1643,3.05,7.788,3.758-4.5707,0.391-5.4554,0.873-12.2589,0.525,1.8259,2.644,3.3247,2.868,6.0057,2.976-5.1921-1.254-8.7055-0.852-12.472,0.851,1.4376,1.755,2.0222,2.867,5.2431,0.245-6.7369-0.875-6.7297-2.029-11.8432,1.049,0.8985,1.445,1.7789,2.178,3.0822-0.1-1.9306-0.954-5.7986-0.954-5.7986s0.485-4.6041-0.699-7.0947c-2.297-4.8329-12.086-11.9255-14.933-8.9521z"/>
<path fill="none" d="m8452.056,422.2286c0.717,0.7829,3.818,0.9958,6.655-0.3355,1.738-0.8153,3.802-1.8998,5.908-2.2819-1.901,2.1238-2.994,2.9397-5.013,4.0404,4.994,4.946,8.649-4.6018,16.806-4.8902-2.111,1.7116-1.845,4.6477-4.364,6.7769,8.016,1.0479,7.267-7.3996,12.766-9.3305"/>
<path fill="#e3e4e5" d="m8476.858,396.2856c0.898,0.463,1.742,1.0511,2.715,1.2391,1.104,0.2135,1.655,0.7838,2.568,1.5753-0.594,1.5482-0.431,3.4573-2.251,3.4595-1.515,0-2.075-1.3481-2.235-2.7359-0.105-0.908-1.188-1.3205-0.797-3.538z"/>
<path fill="#000" d="m8479.573,397.5247c-0.08,0.5971-1.196,2.3099-1.829,2.8724-0.06-0.1312-0.04-0.365-0.09-0.5735-0.281-1.2701-1.119-1.2837-0.783-3.5498,0.969,0.519,1.649,1.0403,2.701,1.2509z"/>
<path fill="#ed1c24" d="m8466.437,396.1584c0.647-0.5334,1.631-0.2224,2.406-0.3455"/>
<path fill="#ed1c24" d="m8487.934,403.7775c1.707,0.086,3.413,0.046,5.12-0.08-1.245,2.8265-2.69,5.2636-4.513,7.2414"/>
<path fill="#eac102" d="m8479.543,394.2265,0.678-2.2097,0.173-2.0532c1,2.2385,1.387,2.3747,3.531,2.4165,1.259,2.0046,1.671,2.3071,4.083,2.5647,0.891,2.2583,1.292,2.5751,3.558,3.2556,0.611,2.0567,0.845,2.3943,3.267,2.7619l-1.931,0.714-1.947,1.2429c-1.536-1.9539-3.12-3.7322-5.014-5.1749-1.894-1.4426-4.107-2.557-6.398-3.5178z"/>
<path fill="#eac102" d="m8481.659,387.5176,0.56,1.982-0.837,1.0118-1.022,0.01-0.251-1.146,0.214-2.8191,1.336,0.9655z"/>
<path fill="#eac102" d="m8484.715,388.6074,1.01-0.1849,0.522,0.9802-0.13,2.0065-1.844,1.3289-0.57-0.021-0.459-0.4924-0.07-2.3799,1.545-1.2371z"/>
<path fill="#eac102" d="m8489.324,391.5555,1.169,0.124,0.481,1.1667-0.378,2.0171-2.248,0.79-0.687-0.2502-0.424-0.5959,0.189-2.4631,1.898-0.7886z"/>
<path fill="#eac102" d="m8496.852,399.0908-2.058-0.013-0.751,1.0776,0.266,0.9871,1.171-0.063,2.657-0.9577-1.285-1.0312z"/>
<path fill="#eac102" d="m8494.988,396.4325-0.09-1.0233-1.083-0.2425-1.898,0.6602-0.788,2.1324,0.172,0.5448,0.597,0.3112,2.311-0.563,0.78-1.8198z"/>
</g>
<g transform="translate(-855.28094,-1572.867)">
<path fill="#008f4c" d="m1160.781,2361.772c13.725,18.08,45.559,17.29,41.415,36.156-21.015,20.858-41.308-24.956-41.415-36.156z"/>
<path fill="#008f4c" d="m1217.478,2406.718c-22.827-16.994-30.139-13.71-49.091-33.197,16.316,20.272,34.717,23.968,49.034,37.002z"/>
<path fill="#008f4c" d="m1257.188,2354.695c-4.234,27.123-41.677,19.797-35.05,45.409,16.398,11.438,46.675-16.532,35.05-45.409z"/>
<path fill="#008f4c" d="m1215.652,2405.639c13.956-16.446,23.283-15.258,35.553-28.823-7.666,12.366-21.465,13.071-34.018,31.612z"/>
<path fill="#008f4c" d="m1204.568,2369.892c0.861,5.415,1.439,10.736,2.519,15.961,2.127,10.297,5.844,20.393,14.998,31.286l5.622-3.369c-7.516-7.516-13.2-17.356-16.645-28.145-1.666-5.209-2.86-10.671-3.388-16.142z"/>
<path fill="#008f4c" d="m1227.707,2413.77c0.46,0.497-0.398,1.685-1.952,2.606-1.555,0.921-3.209,1.259-3.67,0.763-0.462-0.496,0.445-1.641,2-2.562,1.554-0.922,3.16-1.303,3.622-0.807z"/>
<path fill="#da121a" d="m1208.611,2325.299-12.154,12.817-0.387,27.184,12.865,17.528,14.055-18.117-0.749-22.694z"/>
<path fill="#ed1c24" d="m1213.551,2334.102c-0.03,2.891-2.397,5.212-5.293,5.184-2.894-0.03-5.22-2.397-5.191-5.289,0.03-2.893,2.396-5.213,5.292-5.184,2.895,0.03,5.219,2.396,5.192,5.289z"/>
<path fill="#ed1c24" d="m1209.836,2342.945c-0.03,2.892-2.396,5.214-5.291,5.185-2.895-0.03-5.22-2.396-5.192-5.289,0.03-2.891,2.397-5.213,5.292-5.184,2.896,0.03,5.22,2.396,5.191,5.288z"/>
<path fill="#ed1c24" d="m1219.907,2346.094c-0.03,2.892-2.396,5.214-5.291,5.185-2.896-0.03-5.22-2.396-5.193-5.288,0.03-2.893,2.398-5.213,5.293-5.185,2.894,0.03,5.218,2.395,5.191,5.288z"/>
<path fill="#ed1c24" d="m1214.151,2352.413c-0.03,2.892-2.398,5.213-5.293,5.184-2.895-0.03-5.22-2.396-5.191-5.289,0.03-2.893,2.396-5.214,5.291-5.185,2.896,0.03,5.22,2.397,5.193,5.29z"/>
<path fill="#ed1c24" d="m1202.888,2349.598c-0.03,2.892-2.396,5.214-5.292,5.185-2.895-0.03-5.219-2.396-5.192-5.289,0.03-2.892,2.397-5.214,5.293-5.185,2.894,0.03,5.218,2.396,5.191,5.289z"/>
<path fill="#ed1c24" d="m1207.284,2360.459c-0.03,2.893-2.396,5.214-5.292,5.186-2.895-0.03-5.219-2.398-5.192-5.29,0.03-2.891,2.398-5.212,5.293-5.183,2.894,0.03,5.218,2.395,5.191,5.287z"/>
<path fill="#ed1c24" d="m1224.859,2356.09c-0.03,2.893-2.398,5.214-5.293,5.186-2.894-0.03-5.22-2.396-5.191-5.289,0.03-2.891,2.396-5.213,5.291-5.184,2.895,0.03,5.22,2.396,5.193,5.287z"/>
<path fill="#ed1c24" d="m1217.198,2362.899c-0.03,2.892-2.396,5.213-5.291,5.185-2.896-0.03-5.22-2.396-5.193-5.289,0.03-2.892,2.398-5.214,5.293-5.185,2.894,0.03,5.22,2.397,5.191,5.289z"/>
<path fill="#ed1c24" d="m1211.763,2372.716c-0.03,2.892-2.396,5.214-5.291,5.185-2.896-0.03-5.22-2.398-5.193-5.29,0.03-2.893,2.398-5.213,5.292-5.184,2.895,0.03,5.22,2.396,5.192,5.289z"/>
<path fill="#ffb380" d="m1195.223,2319.303c2.524,4.499,1.841,9.368-0.129,12.784l11.887-3.246c-1.495-4.905-5.218-7.808-11.765-9.538z"/>
<path fill="#ffb380" d="m1217.458,2318.716c-7.467,2.515-7.81,8.732-7.652,11.229l9.158,0.36c-1.1-3.959-1.578-8.041-1.506-11.589z"/>
<path fill="#ffb380" d="m1210.31,2318.375c-4.18,5.297-5.098,4.865-5.023,8.475l6.994,0.07c-0.423-2.089-1.561-4.402-1.971-8.553z"/>
<path fill-rule="evenodd" fill="#ffb380" d="m1208.331,2327.125c-3.677,3.34-7.126,7.762-9.35,13.379-2.706,6.835,0.96,11.539-0.247,20.02-0.732,5.144,5.7,14.512,10.201,20.618,3.147-4.594,2.429-10.128,7.884-16.431,7.734-8.938,4.797-18.198-1.73-25.083-4.09-4.312-5.519-9.478-6.758-12.503zm-16.775-4.628c-0.07,2.618-0.244,4.806-0.337,6.995-1.656,2.435-7.287,2.841-9.949,12.015-1.459,5.027-2.263,15.46-0.227,23.684,1.62,6.539,5.242,11.211,14.418,13.872,2.455,0.712,10.806,2.769,11.625,6.79l1.968-1.568,2.006,1.34c-0.281-3.483,4.795-5.243,8.237-5.654,3.231-0.384,5.355-1.13,8.507-1.934,7.445-1.898,9.683-7.425,11.167-12.54,1.74-6.01,2.181-13.667,1.405-20.175-0.876-7.339-4.405-10.052-8.632-13.14-4.105-3-12.062-3.358-7.95-13.807-9.031,2.188-9.015,7.637-10.718,7.835-1.691-2.818-6.528-3.567-7.468-7.835-2.293,4.201-3.263,7.346-4.801,8.791-4.08,0.176-5.579-2.643-9.251-4.669z"/>
</g>
<g stroke-dashoffset="0">
<path style="color:#000000;enable-background:accumulate;" fill-rule="evenodd" fill="#eac102" d="m510.02226,718.02729c0,2.5656,2.0795,4.6454,4.6446,4.6454s4.6446-2.0798,4.6446-4.6454c0-2.5655-2.0795-4.6453-4.6446-4.6453s-4.6446,2.0798-4.6446,4.6453zm-3.2564,0c0,4.3644,3.5374,7.9024,7.901,7.9024s7.901-3.538,7.901-7.9024c0-4.3643-3.5374-7.9023-7.901-7.9023s-7.901,3.538-7.901,7.9023z"/>
<path style="color:#000000;enable-background:accumulate;" fill-rule="evenodd" fill="#eac102" d="m516.84196,748.80199c0,1.2016-0.9739,2.1755-2.1751,2.1755-1.2013,0-2.1751-0.9739-2.1751-2.1755v-9.9518c0-1.2014,0.9738-2.1755,2.1751-2.1755,1.2012,0,2.1751,0.9741,2.1751,2.1755zm3.2566,0c0,3.0004-2.4318,5.4327-5.4317,5.4327s-5.4317-2.4323-5.4317-5.4327v-9.9518c0-3.0004,2.4318-5.4326,5.4317-5.4326s5.4317,2.4322,5.4317,5.4326z"/>
<path fill="#eac102" d="m513.03876,721.08619,0,17.4888c0,0.9222,0.7262,1.6645,1.6281,1.6645s1.6281-0.7423,1.6281-1.6645v-17.4888c0-0.9222-0.7262-1.6645-1.6281-1.6645s-1.6281,0.7423-1.6281,1.6645z"/>
<path style="color:#000000;enable-background:accumulate;" fill-rule="evenodd" fill="#eac102" d="m524.56746,769.62499c0,5.4689-4.4327,9.9023-9.9006,9.9023s-9.9006-4.4334-9.9006-9.9023,4.4327-9.9023,9.9006-9.9023,9.9006,4.4334,9.9006,9.9023z"/>
<path fill="#eac102" d="m516.29496,766.56609,0-17.4889c0-0.9221-0.7262-1.6645-1.6281-1.6645s-1.6281,0.7424-1.6281,1.6645v17.4889c0,0.9222,0.7262,1.6646,1.6281,1.6646s1.6281-0.7424,1.6281-1.6646z"/>
<path style="color:#000000;enable-background:accumulate;" fill-rule="evenodd" fill="#eac102" d="m510.02226,821.22269c0-2.5656,2.0795-4.6454,4.6446-4.6454s4.6446,2.0798,4.6446,4.6454c0,2.5655-2.0795,4.6453-4.6446,4.6453s-4.6446-2.0798-4.6446-4.6453zm-3.2564,0c0-4.3644,3.5374-7.9024,7.901-7.9024s7.901,3.538,7.901,7.9024c0,4.3643-3.5374,7.9023-7.901,7.9023s-7.901-3.538-7.901-7.9023z"/>
<path style="color:#000000;enable-background:accumulate;" fill-rule="evenodd" fill="#eac102" d="m516.84196,790.44799c0-1.2016-0.9739-2.1755-2.1751-2.1755-1.2013,0-2.1751,0.9739-2.1751,2.1755v9.9518c0,1.2014,0.9738,2.1755,2.1751,2.1755,1.2012,0,2.1751-0.9741,2.1751-2.1755zm3.2566,0c0-3.0004-2.4318-5.4327-5.4317-5.4327s-5.4317,2.4323-5.4317,5.4327v9.9518c0,3.0004,2.4318,5.4326,5.4317,5.4326s5.4317-2.4322,5.4317-5.4326z"/>
<path fill="#eac102" d="m513.03876,818.16379,0-17.4889c0-0.9221,0.7262-1.6644,1.6281-1.6644s1.6281,0.7423,1.6281,1.6644v17.4889c0,0.9222-0.7262,1.6645-1.6281,1.6645s-1.6281-0.7423-1.6281-1.6645z"/>
<path fill="#eac102" d="m516.29496,772.68389,0,17.4889c0,0.9221-0.7262,1.6645-1.6281,1.6645s-1.6281-0.7424-1.6281-1.6645v-17.4889c0-0.9222,0.7262-1.6646,1.6281-1.6646s1.6281,0.7424,1.6281,1.6646z"/>
<path style="color:#000000;enable-background:accumulate;" fill-rule="evenodd" fill="#eac102" d="m463.06916,774.26939c2.5656,0,4.6454-2.0795,4.6454-4.6446s-2.0798-4.6446-4.6454-4.6446c-2.5655,0-4.6453,2.0795-4.6453,4.6446s2.0798,4.6446,4.6453,4.6446zm0,3.2564c4.3644,0,7.9024-3.5374,7.9024-7.901s-3.538-7.901-7.9024-7.901c-4.3643,0-7.9023,3.5374-7.9023,7.901s3.538,7.901,7.9023,7.901z"/>
<path style="color:#000000;enable-background:accumulate;" fill-rule="evenodd" fill="#eac102" d="m493.84386,767.44969c1.2016,0,2.1755,0.9739,2.1755,2.1751,0,1.2013-0.9739,2.1751-2.1755,2.1751h-9.9518c-1.2014,0-2.1755-0.9738-2.1755-2.1751,0-1.2012,0.9741-2.1751,2.1755-2.1751zm0-3.2566c3.0004,0,5.4327,2.4318,5.4327,5.4317s-2.4323,5.4317-5.4327,5.4317h-9.9518c-3.0004,0-5.4326-2.4318-5.4326-5.4317s2.4322-5.4317,5.4326-5.4317z"/>
<path fill="#eac102" d="m466.12806,771.25289,17.4888,0c0.9222,0,1.6645-0.7262,1.6645-1.6281s-0.7423-1.6281-1.6645-1.6281h-17.4888c-0.9222,0-1.6645,0.7262-1.6645,1.6281s0.7423,1.6281,1.6645,1.6281z"/>
<path fill="#eac102" d="m511.60796,767.99669-17.4889,0c-0.9221,0-1.6645,0.7262-1.6645,1.6281s0.7424,1.6281,1.6645,1.6281h17.4889c0.9222,0,1.6646-0.7262,1.6646-1.6281s-0.7424-1.6281-1.6646-1.6281z"/>
<path style="color:#000000;enable-background:accumulate;" fill-rule="evenodd" fill="#eac102" d="m566.26456,774.26939c-2.5656,0-4.6454-2.0795-4.6454-4.6446s2.0798-4.6446,4.6454-4.6446c2.5655,0,4.6453,2.0795,4.6453,4.6446s-2.0798,4.6446-4.6453,4.6446zm0,3.2564c-4.3644,0-7.9024-3.5374-7.9024-7.901s3.538-7.901,7.9024-7.901c4.3643,0,7.9023,3.5374,7.9023,7.901s-3.538,7.901-7.9023,7.901z"/>
<path style="color:#000000;enable-background:accumulate;" fill-rule="evenodd" fill="#eac102" d="m535.48986,767.44969c-1.2016,0-2.1755,0.9739-2.1755,2.1751,0,1.2013,0.9739,2.1751,2.1755,2.1751h9.9518c1.2014,0,2.1755-0.9738,2.1755-2.1751,0-1.2012-0.9741-2.1751-2.1755-2.1751zm0-3.2566c-3.0004,0-5.4327,2.4318-5.4327,5.4317s2.4323,5.4317,5.4327,5.4317h9.9518c3.0004,0,5.4326-2.4318,5.4326-5.4317s-2.4322-5.4317-5.4326-5.4317z"/>
<path fill="#eac102" d="m563.20566,771.25289-17.4889,0c-0.9221,0-1.6644-0.7262-1.6644-1.6281s0.7423-1.6281,1.6644-1.6281h17.4889c0.9222,0,1.6645,0.7262,1.6645,1.6281s-0.7423,1.6281-1.6645,1.6281z"/>
<path fill="#eac102" d="m517.72576,767.99669,17.4889,0c0.9221,0,1.6645,0.7262,1.6645,1.6281s-0.7424,1.6281-1.6645,1.6281h-17.4889c-0.9222,0-1.6646-0.7262-1.6646-1.6281s0.7424-1.6281,1.6646-1.6281z"/>
<path style="color:#000000;enable-background:accumulate;" fill-rule="evenodd" fill="#eac102" d="m561.61986,718.02729c0,2.5656,2.0796,4.6454,4.6446,4.6454,2.5651,0,4.6446-2.0798,4.6446-4.6454,0-2.5655-2.0796-4.6453-4.6446-4.6453-2.5651,0-4.6446,2.0798-4.6446,4.6453zm-3.2564,0c0,4.3644,3.5375,7.9024,7.901,7.9024,4.3636,0,7.901-3.538,7.901-7.9024,0-4.3643-3.5375-7.9023-7.901-7.9023-4.3636,0-7.901,3.538-7.901,7.9023z"/>
<path style="color:#000000;enable-background:accumulate;" fill-rule="evenodd" fill="#eac102" d="m568.43956,748.80199c0,1.2016-0.9739,2.1755-2.1752,2.1755-1.2012,0-2.1751-0.9739-2.1751-2.1755v-9.9518c0-1.2014,0.9738-2.1755,2.1751-2.1755,1.2012,0,2.1752,0.9741,2.1752,2.1755zm3.2566,0c0,3.0004-2.4318,5.4327-5.4317,5.4327s-5.4317-2.4323-5.4317-5.4327v-9.9518c0-3.0004,2.4318-5.4326,5.4317-5.4326s5.4317,2.4322,5.4317,5.4326z"/>
<path fill="#eac102" d="m564.63636,721.08619,0,17.4888c0,0.9222,0.7262,1.6645,1.6281,1.6645s1.6281-0.7423,1.6281-1.6645v-17.4888c0-0.9222-0.7261-1.6645-1.6281-1.6645-0.9019,0-1.6281,0.7423-1.6281,1.6645z"/>
<path fill="#eac102" d="m567.89256,766.56609,0-17.4889c0-0.9221-0.7261-1.6645-1.6281-1.6645-0.9019,0-1.6281,0.7424-1.6281,1.6645v17.4889c0,0.9222,0.7262,1.6646,1.6281,1.6646s1.6281-0.7424,1.6281-1.6646z"/>
<path style="color:#000000;enable-background:accumulate;" fill-rule="evenodd" fill="#eac102" d="m458.42466,821.22269c0-2.5656,2.0795-4.6454,4.6446-4.6454s4.6446,2.0798,4.6446,4.6454c0,2.5655-2.0796,4.6453-4.6446,4.6453-2.5651,0-4.6446-2.0798-4.6446-4.6453zm-3.2564,0c0-4.3644,3.5374-7.9024,7.901-7.9024s7.901,3.538,7.901,7.9024c0,4.3643-3.5375,7.9023-7.901,7.9023-4.3636,0-7.901-3.538-7.901-7.9023z"/>
<path style="color:#000000;enable-background:accumulate;" fill-rule="evenodd" fill="#eac102" d="m465.24436,790.44799c0-1.2016-0.9739-2.1755-2.1752-2.1755-1.2012,0-2.1751,0.9739-2.1751,2.1755v9.9518c0,1.2014,0.9738,2.1755,2.1751,2.1755,1.2012,0,2.1752-0.9741,2.1752-2.1755zm3.2566,0c0-3.0004-2.4318-5.4327-5.4317-5.4327s-5.4317,2.4323-5.4317,5.4327v9.9518c0,3.0004,2.4318,5.4326,5.4317,5.4326s5.4317-2.4322,5.4317-5.4326z"/>
<path fill="#eac102" d="m461.44116,818.16379,0-17.4889c0-0.9221,0.7262-1.6644,1.6281-1.6644s1.6281,0.7423,1.6281,1.6644v17.4889c0,0.9222-0.7262,1.6645-1.6281,1.6645s-1.6281-0.7423-1.6281-1.6645z"/>
<path fill="#eac102" d="m464.69736,772.68389,0,17.4889c0,0.9221-0.7262,1.6645-1.6281,1.6645s-1.6281-0.7424-1.6281-1.6645v-17.4889c0-0.9222,0.7262-1.6646,1.6281-1.6646s1.6281,0.7424,1.6281,1.6646z"/>
<path style="color:#000000;enable-background:accumulate;" fill-rule="evenodd" fill="#eac102" d="m535.48986,715.85229c-1.2016,0-2.1755,0.9738-2.1755,2.1751,0,1.2012,0.9739,2.1751,2.1755,2.1751h9.9518c1.2014,0,2.1755-0.9738,2.1755-2.1751,0-1.2012-0.9741-2.1751-2.1755-2.1751zm0-3.2567c-3.0004,0-5.4327,2.4318-5.4327,5.4317s2.4323,5.4317,5.4327,5.4317h9.9518c3.0004,0,5.4326-2.4318,5.4326-5.4317s-2.4322-5.4317-5.4326-5.4317z"/>
<path fill="#eac102" d="m563.20566,719.65539-17.4889,0c-0.9221,0-1.6644-0.7261-1.6644-1.6281,0-0.9019,0.7423-1.6281,1.6644-1.6281h17.4889c0.9222,0,1.6645,0.7262,1.6645,1.6281s-0.7423,1.6281-1.6645,1.6281z"/>
<path style="color:#000000;enable-background:accumulate;" fill-rule="evenodd" fill="#eac102" d="m534.47366,746.74209c0.8496-0.8497,2.2269-0.8497,3.0763-0.0003s0.8494,2.2267-0.0003,3.0763l-6.3302,6.3302c-0.8495,0.8495-2.2268,0.8497-3.0763,0.0003-0.8494-0.8494-0.8492-2.2269,0.0003-3.0764zm-2.3028-2.3028c2.1216-2.1216,5.561-2.122,7.6823-0.0007,2.1212,2.1212,2.1209,5.5607-0.0007,7.6823l-6.3302,6.3301c-2.1216,2.1216-5.561,2.1219-7.6822,0.0007-2.1213-2.1213-2.121-5.5606,0.0006-7.6822z"/>
<path fill="#eac102" d="m518.97846,767.61569,11.6597-11.6596c0.6521-0.6521,0.6634-1.6905,0.026-2.3282-0.6377-0.6378-1.6761-0.6264-2.3282,0.026l-11.6596,11.6596c-0.6521,0.652-0.6634,1.6904-0.026,2.3282,0.6377,0.6377,1.6761,0.6263,2.3281-0.026z"/>
<path style="color:#000000;enable-background:accumulate;" fill-rule="evenodd" fill="#eac102" d="m552.85236,728.36329c0.8497-0.8497,2.227-0.8497,3.0764-0.0003,0.8494,0.8495,0.8493,2.2267-0.0003,3.0763l-6.3301,6.3301c-0.8495,0.8496-2.2269,0.8498-3.0764,0.0003-0.8493-0.8494-0.8492-2.2268,0.0003-3.0763zm-2.3027-2.3028c2.1216-2.1216,5.561-2.1219,7.6822-0.0007,2.1213,2.1213,2.1209,5.5607-0.0007,7.6823l-6.3301,6.3301c-2.1216,2.1216-5.5609,2.1219-7.6822,0.0006-2.1212-2.1212-2.1209-5.5606,0.0007-7.6822z"/>
<path fill="#eac102" d="m565.09336,716.89589-11.6596,11.6596c-0.652,0.652-0.6635,1.6905-0.026,2.3282,0.6377,0.6377,1.6762,0.6263,2.3282-0.026l11.6596-11.6597c0.6521-0.6521,0.6636-1.6905,0.026-2.3283-0.6377-0.6377-1.6762-0.6262-2.3283,0.026z"/>
<path fill="#eac102" d="m546.71456,735.27469-11.6596,11.6595c-0.652,0.6521-0.6634,1.6905-0.026,2.3283,0.6377,0.6377,1.6762,0.6263,2.3282-0.026l11.6596-11.6595c0.6521-0.6521,0.6635-1.6906,0.026-2.3283-0.6378-0.6378-1.6762-0.6263-2.3283,0.026z"/>
<path fill="#eac102" d="m517.72576,716.39919,17.4889,0c0.9221,0,1.6645,0.7262,1.6645,1.6281s-0.7424,1.6281-1.6645,1.6281h-17.4889c-0.9222,0-1.6646-0.7261-1.6646-1.6281,0-0.9019,0.7424-1.6281,1.6646-1.6281z"/>
<path style="color:#000000;enable-background:accumulate;" fill-rule="evenodd" fill="#eac102" d="m493.84386,819.04759c1.2016,0,2.1755,0.9739,2.1755,2.1751,0,1.2013-0.9739,2.1751-2.1755,2.1751h-9.9518c-1.2014,0-2.1755-0.9738-2.1755-2.1751,0-1.2012,0.9741-2.1751,2.1755-2.1751zm0-3.2566c3.0004,0,5.4327,2.4317,5.4327,5.4317,0,2.9999-2.4323,5.4317-5.4327,5.4317h-9.9518c-3.0004,0-5.4326-2.4318-5.4326-5.4317,0-3,2.4322-5.4317,5.4326-5.4317z"/>
<path fill="#eac102" d="m466.12806,822.85079,17.4888,0c0.9222,0,1.6645-0.7262,1.6645-1.6281s-0.7423-1.6281-1.6645-1.6281h-17.4888c-0.9222,0-1.6645,0.7261-1.6645,1.6281,0,0.9018,0.7423,1.6281,1.6645,1.6281z"/>
<path fill="#eac102" d="m511.60796,819.59459-17.4889,0c-0.9221,0-1.6645,0.7261-1.6645,1.6281,0,0.9018,0.7424,1.6281,1.6645,1.6281h17.4889c0.9222,0,1.6646-0.7262,1.6646-1.6281s-0.7424-1.6281-1.6646-1.6281z"/>
<path style="color:#000000;enable-background:accumulate;" fill-rule="evenodd" fill="#eac102" d="m479.73536,746.74209c0.8497-0.8497,2.227-0.8497,3.0763-0.0003,0.8495,0.8494,0.8494,2.2267-0.0003,3.0763l-6.3301,6.3302c-0.8495,0.8495-2.2269,0.8497-3.0764,0.0003-0.8493-0.8494-0.8492-2.2269,0.0003-3.0764zm-2.3028-2.3028c2.1216-2.1216,5.5611-2.122,7.6823-0.0007,2.1213,2.1212,2.1209,5.5607-0.0007,7.6823l-6.3301,6.3301c-2.1217,2.1216-5.561,2.1219-7.6823,0.0007-2.1212-2.1213-2.1209-5.5606,0.0007-7.6822z"/>
<path fill="#eac102" d="m464.24026,767.61569,11.6596-11.6596c0.6521-0.6521,0.6635-1.6905,0.026-2.3282-0.6377-0.6378-1.6761-0.6264-2.3282,0.026l-11.6596,11.6596c-0.652,0.652-0.6634,1.6904-0.026,2.3282,0.6378,0.6377,1.6762,0.6263,2.3282-0.026z"/>
<path style="color:#000000;enable-background:accumulate;" fill-rule="evenodd" fill="#eac102" d="m498.11416,728.36329c0.8496-0.8497,2.2269-0.8497,3.0763-0.0003,0.8494,0.8495,0.8494,2.2267-0.0003,3.0763l-6.3301,6.3301c-0.8495,0.8496-2.2269,0.8498-3.0763,0.0003-0.8494-0.8494-0.8492-2.2268,0.0003-3.0763zm-2.3028-2.3028c2.1216-2.1216,5.561-2.1219,7.6823-0.0007,2.1212,2.1213,2.1209,5.5607-0.0007,7.6823l-6.3301,6.3301c-2.1216,2.1216-5.561,2.1219-7.6822,0.0006-2.1213-2.1212-2.121-5.5606,0.0006-7.6822z"/>
<path fill="#eac102" d="m510.35516,716.89589-11.6597,11.6596c-0.652,0.652-0.6634,1.6905-0.026,2.3282,0.6377,0.6377,1.6762,0.6263,2.3282-0.026l11.6596-11.6597c0.6521-0.6521,0.6636-1.6905,0.026-2.3283-0.6378-0.6377-1.6762-0.6262-2.3283,0.026z"/>
<path fill="#eac102" d="m491.97626,735.27469-11.6595,11.6595c-0.652,0.6521-0.6635,1.6905-0.026,2.3283,0.6378,0.6377,1.6762,0.6263,2.3283-0.026l11.6595-11.6595c0.6521-0.6521,0.6636-1.6906,0.026-2.3283-0.6377-0.6378-1.6762-0.6263-2.3283,0.026z"/>
<path style="color:#000000;enable-background:accumulate;" fill-rule="evenodd" fill="#eac102" d="m549.59836,792.50789c-0.8497,0.8497-2.227,0.8497-3.0763,0.0003-0.8495-0.8494-0.8494-2.2267,0.0003-3.0763l6.3301-6.3302c0.8495-0.8495,2.2269-0.8497,3.0764-0.0003,0.8493,0.8494,0.8492,2.2269-0.0003,3.0764zm2.3028,2.3028c-2.1216,2.1216-5.5611,2.122-7.6823,0.0007-2.1213-2.1212-2.1209-5.5607,0.0007-7.6823l6.3301-6.3301c2.1217-2.1216,5.561-2.1219,7.6823-0.0007,2.1212,2.1213,2.1209,5.5606-0.0007,7.6822z"/>
<path fill="#eac102" d="m565.09346,771.63429-11.6596,11.6596c-0.6521,0.6521-0.6635,1.6905-0.026,2.3282,0.6377,0.6378,1.6761,0.6264,2.3282-0.026l11.6596-11.6596c0.652-0.652,0.6634-1.6904,0.026-2.3282-0.6378-0.6377-1.6762-0.6263-2.3282,0.026z"/>
<path style="color:#000000;enable-background:accumulate;" fill-rule="evenodd" fill="#eac102" d="m531.21956,810.88669c-0.8496,0.8497-2.2269,0.8497-3.0763,0.0003-0.8494-0.8495-0.8494-2.2267,0.0003-3.0763l6.3301-6.3301c0.8495-0.8496,2.2269-0.8498,3.0763-0.0003,0.8494,0.8494,0.8492,2.2268-0.0003,3.0763zm2.3028,2.3028c-2.1216,2.1216-5.561,2.1219-7.6823,0.0007-2.1212-2.1213-2.1209-5.5607,0.0007-7.6823l6.3301-6.3301c2.1216-2.1216,5.561-2.1219,7.6822-0.0006,2.1213,2.1212,2.121,5.5606-0.0006,7.6822z"/>
<path fill="#eac102" d="m518.97856,822.35409,11.6597-11.6596c0.652-0.652,0.6634-1.6905,0.026-2.3282-0.6377-0.6377-1.6762-0.6263-2.3282,0.026l-11.6596,11.6597c-0.6521,0.6521-0.6636,1.6905-0.026,2.3283,0.6378,0.6377,1.6762,0.6262,2.3283-0.026z"/>
<path fill="#eac102" d="m537.35746,803.97529,11.6595-11.6595c0.652-0.6521,0.6635-1.6905,0.026-2.3283-0.6378-0.6377-1.6762-0.6263-2.3283,0.026l-11.6595,11.6595c-0.6521,0.6521-0.6636,1.6906-0.026,2.3283,0.6377,0.6378,1.6762,0.6263,2.3283-0.026z"/>
<path style="color:#000000;enable-background:accumulate;" fill-rule="evenodd" fill="#eac102" d="m494.86036,792.50789c-0.8497,0.8497-2.227,0.8497-3.0763,0.0003-0.8495-0.8494-0.8494-2.2267,0.0003-3.0763l6.3301-6.3302c0.8495-0.8495,2.2269-0.8497,3.0764-0.0003,0.8493,0.8494,0.8492,2.2269-0.0003,3.0764zm2.3028,2.3028c-2.1216,2.1216-5.5611,2.122-7.6823,0.0007-2.1213-2.1212-2.1209-5.5607,0.0007-7.6823l6.3301-6.3301c2.1217-2.1216,5.561-2.1219,7.6823-0.0007,2.1212,2.1213,2.1209,5.5606-0.0007,7.6822z"/>
<path fill="#eac102" d="m510.35546,771.63429-11.6596,11.6596c-0.6521,0.6521-0.6635,1.6905-0.026,2.3282,0.6377,0.6378,1.6761,0.6264,2.3282-0.026l11.6596-11.6596c0.652-0.652,0.6634-1.6904,0.026-2.3282-0.6378-0.6377-1.6762-0.6263-2.3282,0.026z"/>
<path style="color:#000000;enable-background:accumulate;" fill-rule="evenodd" fill="#eac102" d="m476.48156,810.88669c-0.8496,0.8497-2.2269,0.8497-3.0763,0.0003-0.8494-0.8495-0.8494-2.2267,0.0003-3.0763l6.3301-6.3301c0.8495-0.8496,2.2269-0.8498,3.0763-0.0003,0.8494,0.8494,0.8492,2.2268-0.0003,3.0763zm2.3028,2.3028c-2.1216,2.1216-5.561,2.1219-7.6823,0.0007-2.1212-2.1213-2.1209-5.5607,0.0007-7.6823l6.3301-6.3301c2.1216-2.1216,5.561-2.1219,7.6822-0.0006,2.1213,2.1212,2.121,5.5606-0.0006,7.6822z"/>
<path fill="#eac102" d="m464.24056,822.35409,11.6597-11.6596c0.652-0.652,0.6634-1.6905,0.026-2.3282-0.6377-0.6377-1.6762-0.6263-2.3282,0.026l-11.6596,11.6597c-0.6521,0.6521-0.6636,1.6905-0.026,2.3283,0.6378,0.6377,1.6762,0.6262,2.3283-0.026z"/>
<path fill="#eac102" d="m482.61946,803.97529,11.6595-11.6595c0.652-0.6521,0.6635-1.6905,0.026-2.3283-0.6378-0.6377-1.6762-0.6263-2.3283,0.026l-11.6595,11.6595c-0.6521,0.6521-0.6636,1.6906-0.026,2.3283,0.6377,0.6378,1.6762,0.6263,2.3283-0.026z"/>
<path fill-rule="evenodd" fill="#008f4c" d="m511.41576,762.73169,6.5018,0,3.6414,3.6418,0,6.5029-3.6414,3.6418-6.5018,0-3.641-3.6418,0-6.5029z"/>
<path fill="none" d="m512.84196,765.75559,3.6496,0,2.0439,2.0442,0,3.6503-2.0439,2.0442-3.6496,0-2.0438-2.0442,0-3.6503z"/>
<path style="color:#000000;enable-background:accumulate;" fill="none" d="m511.41576,762.73169,1.4262,3.0238"/>
<path style="color:#000000;enable-background:accumulate;" fill="none" d="m517.91756,762.73169-1.4261,3.0238"/>
<path style="color:#000000;enable-background:accumulate;" fill="none" d="m521.55866,766.37349-3.0232,1.4264"/>
<path style="color:#000000;enable-background:accumulate;" fill="none" d="m521.55866,772.87639-3.0232-1.4264"/>
<path style="color:#000000;enable-background:accumulate;" fill="none" d="m517.91756,776.51819-1.4261-3.0237"/>
<path style="color:#000000;enable-background:accumulate;" fill="none" d="m511.41576,776.51819,1.4262-3.0237"/>
<path style="color:#000000;enable-background:accumulate;" fill="none" d="m507.77476,772.87639,3.0237-1.4264"/>
<path style="color:#000000;enable-background:accumulate;" fill="none" d="m507.77476,766.37349,3.0237,1.4264"/>
</g>
<g stroke-dashoffset="0" transform="matrix(-1,0,0,1,710,0)">
<path style="color:#000000;enable-background:accumulate;" fill-rule="evenodd" fill="#eac102" d="m510.02226,718.02729c0,2.5656,2.0795,4.6454,4.6446,4.6454s4.6446-2.0798,4.6446-4.6454c0-2.5655-2.0795-4.6453-4.6446-4.6453s-4.6446,2.0798-4.6446,4.6453zm-3.2564,0c0,4.3644,3.5374,7.9024,7.901,7.9024s7.901-3.538,7.901-7.9024c0-4.3643-3.5374-7.9023-7.901-7.9023s-7.901,3.538-7.901,7.9023z"/>
<path style="color:#000000;enable-background:accumulate;" fill-rule="evenodd" fill="#eac102" d="m516.84196,748.80199c0,1.2016-0.9739,2.1755-2.1751,2.1755-1.2013,0-2.1751-0.9739-2.1751-2.1755v-9.9518c0-1.2014,0.9738-2.1755,2.1751-2.1755,1.2012,0,2.1751,0.9741,2.1751,2.1755zm3.2566,0c0,3.0004-2.4318,5.4327-5.4317,5.4327s-5.4317-2.4323-5.4317-5.4327v-9.9518c0-3.0004,2.4318-5.4326,5.4317-5.4326s5.4317,2.4322,5.4317,5.4326z"/>
<path fill="#eac102" d="m513.03876,721.08619,0,17.4888c0,0.9222,0.7262,1.6645,1.6281,1.6645s1.6281-0.7423,1.6281-1.6645v-17.4888c0-0.9222-0.7262-1.6645-1.6281-1.6645s-1.6281,0.7423-1.6281,1.6645z"/>
<path style="color:#000000;enable-background:accumulate;" fill-rule="evenodd" fill="#eac102" d="m524.56746,769.62499c0,5.4689-4.4327,9.9023-9.9006,9.9023s-9.9006-4.4334-9.9006-9.9023,4.4327-9.9023,9.9006-9.9023,9.9006,4.4334,9.9006,9.9023z"/>
<path fill="#eac102" d="m516.29496,766.56609,0-17.4889c0-0.9221-0.7262-1.6645-1.6281-1.6645s-1.6281,0.7424-1.6281,1.6645v17.4889c0,0.9222,0.7262,1.6646,1.6281,1.6646s1.6281-0.7424,1.6281-1.6646z"/>
<path style="color:#000000;enable-background:accumulate;" fill-rule="evenodd" fill="#eac102" d="m510.02226,821.22269c0-2.5656,2.0795-4.6454,4.6446-4.6454s4.6446,2.0798,4.6446,4.6454c0,2.5655-2.0795,4.6453-4.6446,4.6453s-4.6446-2.0798-4.6446-4.6453zm-3.2564,0c0-4.3644,3.5374-7.9024,7.901-7.9024s7.901,3.538,7.901,7.9024c0,4.3643-3.5374,7.9023-7.901,7.9023s-7.901-3.538-7.901-7.9023z"/>
<path style="color:#000000;enable-background:accumulate;" fill-rule="evenodd" fill="#eac102" d="m516.84196,790.44799c0-1.2016-0.9739-2.1755-2.1751-2.1755-1.2013,0-2.1751,0.9739-2.1751,2.1755v9.9518c0,1.2014,0.9738,2.1755,2.1751,2.1755,1.2012,0,2.1751-0.9741,2.1751-2.1755zm3.2566,0c0-3.0004-2.4318-5.4327-5.4317-5.4327s-5.4317,2.4323-5.4317,5.4327v9.9518c0,3.0004,2.4318,5.4326,5.4317,5.4326s5.4317-2.4322,5.4317-5.4326z"/>
<path fill="#eac102" d="m513.03876,818.16379,0-17.4889c0-0.9221,0.7262-1.6644,1.6281-1.6644s1.6281,0.7423,1.6281,1.6644v17.4889c0,0.9222-0.7262,1.6645-1.6281,1.6645s-1.6281-0.7423-1.6281-1.6645z"/>
<path fill="#eac102" d="m516.29496,772.68389,0,17.4889c0,0.9221-0.7262,1.6645-1.6281,1.6645s-1.6281-0.7424-1.6281-1.6645v-17.4889c0-0.9222,0.7262-1.6646,1.6281-1.6646s1.6281,0.7424,1.6281,1.6646z"/>
<path style="color:#000000;enable-background:accumulate;" fill-rule="evenodd" fill="#eac102" d="m463.06916,774.26939c2.5656,0,4.6454-2.0795,4.6454-4.6446s-2.0798-4.6446-4.6454-4.6446c-2.5655,0-4.6453,2.0795-4.6453,4.6446s2.0798,4.6446,4.6453,4.6446zm0,3.2564c4.3644,0,7.9024-3.5374,7.9024-7.901s-3.538-7.901-7.9024-7.901c-4.3643,0-7.9023,3.5374-7.9023,7.901s3.538,7.901,7.9023,7.901z"/>
<path style="color:#000000;enable-background:accumulate;" fill-rule="evenodd" fill="#eac102" d="m493.84386,767.44969c1.2016,0,2.1755,0.9739,2.1755,2.1751,0,1.2013-0.9739,2.1751-2.1755,2.1751h-9.9518c-1.2014,0-2.1755-0.9738-2.1755-2.1751,0-1.2012,0.9741-2.1751,2.1755-2.1751zm0-3.2566c3.0004,0,5.4327,2.4318,5.4327,5.4317s-2.4323,5.4317-5.4327,5.4317h-9.9518c-3.0004,0-5.4326-2.4318-5.4326-5.4317s2.4322-5.4317,5.4326-5.4317z"/>
<path fill="#eac102" d="m466.12806,771.25289,17.4888,0c0.9222,0,1.6645-0.7262,1.6645-1.6281s-0.7423-1.6281-1.6645-1.6281h-17.4888c-0.9222,0-1.6645,0.7262-1.6645,1.6281s0.7423,1.6281,1.6645,1.6281z"/>
<path fill="#eac102" d="m511.60796,767.99669-17.4889,0c-0.9221,0-1.6645,0.7262-1.6645,1.6281s0.7424,1.6281,1.6645,1.6281h17.4889c0.9222,0,1.6646-0.7262,1.6646-1.6281s-0.7424-1.6281-1.6646-1.6281z"/>
<path style="color:#000000;enable-background:accumulate;" fill-rule="evenodd" fill="#eac102" d="m566.26456,774.26939c-2.5656,0-4.6454-2.0795-4.6454-4.6446s2.0798-4.6446,4.6454-4.6446c2.5655,0,4.6453,2.0795,4.6453,4.6446s-2.0798,4.6446-4.6453,4.6446zm0,3.2564c-4.3644,0-7.9024-3.5374-7.9024-7.901s3.538-7.901,7.9024-7.901c4.3643,0,7.9023,3.5374,7.9023,7.901s-3.538,7.901-7.9023,7.901z"/>
<path style="color:#000000;enable-background:accumulate;" fill-rule="evenodd" fill="#eac102" d="m535.48986,767.44969c-1.2016,0-2.1755,0.9739-2.1755,2.1751,0,1.2013,0.9739,2.1751,2.1755,2.1751h9.9518c1.2014,0,2.1755-0.9738,2.1755-2.1751,0-1.2012-0.9741-2.1751-2.1755-2.1751zm0-3.2566c-3.0004,0-5.4327,2.4318-5.4327,5.4317s2.4323,5.4317,5.4327,5.4317h9.9518c3.0004,0,5.4326-2.4318,5.4326-5.4317s-2.4322-5.4317-5.4326-5.4317z"/>
<path fill="#eac102" d="m563.20566,771.25289-17.4889,0c-0.9221,0-1.6644-0.7262-1.6644-1.6281s0.7423-1.6281,1.6644-1.6281h17.4889c0.9222,0,1.6645,0.7262,1.6645,1.6281s-0.7423,1.6281-1.6645,1.6281z"/>
<path fill="#eac102" d="m517.72576,767.99669,17.4889,0c0.9221,0,1.6645,0.7262,1.6645,1.6281s-0.7424,1.6281-1.6645,1.6281h-17.4889c-0.9222,0-1.6646-0.7262-1.6646-1.6281s0.7424-1.6281,1.6646-1.6281z"/>
<path style="color:#000000;enable-background:accumulate;" fill-rule="evenodd" fill="#eac102" d="m561.61986,718.02729c0,2.5656,2.0796,4.6454,4.6446,4.6454,2.5651,0,4.6446-2.0798,4.6446-4.6454,0-2.5655-2.0796-4.6453-4.6446-4.6453-2.5651,0-4.6446,2.0798-4.6446,4.6453zm-3.2564,0c0,4.3644,3.5375,7.9024,7.901,7.9024,4.3636,0,7.901-3.538,7.901-7.9024,0-4.3643-3.5375-7.9023-7.901-7.9023-4.3636,0-7.901,3.538-7.901,7.9023z"/>
<path style="color:#000000;enable-background:accumulate;" fill-rule="evenodd" fill="#eac102" d="m568.43956,748.80199c0,1.2016-0.9739,2.1755-2.1752,2.1755-1.2012,0-2.1751-0.9739-2.1751-2.1755v-9.9518c0-1.2014,0.9738-2.1755,2.1751-2.1755,1.2012,0,2.1752,0.9741,2.1752,2.1755zm3.2566,0c0,3.0004-2.4318,5.4327-5.4317,5.4327s-5.4317-2.4323-5.4317-5.4327v-9.9518c0-3.0004,2.4318-5.4326,5.4317-5.4326s5.4317,2.4322,5.4317,5.4326z"/>
<path fill="#eac102" d="m564.63636,721.08619,0,17.4888c0,0.9222,0.7262,1.6645,1.6281,1.6645s1.6281-0.7423,1.6281-1.6645v-17.4888c0-0.9222-0.7261-1.6645-1.6281-1.6645-0.9019,0-1.6281,0.7423-1.6281,1.6645z"/>
<path fill="#eac102" d="m567.89256,766.56609,0-17.4889c0-0.9221-0.7261-1.6645-1.6281-1.6645-0.9019,0-1.6281,0.7424-1.6281,1.6645v17.4889c0,0.9222,0.7262,1.6646,1.6281,1.6646s1.6281-0.7424,1.6281-1.6646z"/>
<path style="color:#000000;enable-background:accumulate;" fill-rule="evenodd" fill="#eac102" d="m458.42466,821.22269c0-2.5656,2.0795-4.6454,4.6446-4.6454s4.6446,2.0798,4.6446,4.6454c0,2.5655-2.0796,4.6453-4.6446,4.6453-2.5651,0-4.6446-2.0798-4.6446-4.6453zm-3.2564,0c0-4.3644,3.5374-7.9024,7.901-7.9024s7.901,3.538,7.901,7.9024c0,4.3643-3.5375,7.9023-7.901,7.9023-4.3636,0-7.901-3.538-7.901-7.9023z"/>
<path style="color:#000000;enable-background:accumulate;" fill-rule="evenodd" fill="#eac102" d="m465.24436,790.44799c0-1.2016-0.9739-2.1755-2.1752-2.1755-1.2012,0-2.1751,0.9739-2.1751,2.1755v9.9518c0,1.2014,0.9738,2.1755,2.1751,2.1755,1.2012,0,2.1752-0.9741,2.1752-2.1755zm3.2566,0c0-3.0004-2.4318-5.4327-5.4317-5.4327s-5.4317,2.4323-5.4317,5.4327v9.9518c0,3.0004,2.4318,5.4326,5.4317,5.4326s5.4317-2.4322,5.4317-5.4326z"/>
<path fill="#eac102" d="m461.44116,818.16379,0-17.4889c0-0.9221,0.7262-1.6644,1.6281-1.6644s1.6281,0.7423,1.6281,1.6644v17.4889c0,0.9222-0.7262,1.6645-1.6281,1.6645s-1.6281-0.7423-1.6281-1.6645z"/>
<path fill="#eac102" d="m464.69736,772.68389,0,17.4889c0,0.9221-0.7262,1.6645-1.6281,1.6645s-1.6281-0.7424-1.6281-1.6645v-17.4889c0-0.9222,0.7262-1.6646,1.6281-1.6646s1.6281,0.7424,1.6281,1.6646z"/>
<path style="color:#000000;enable-background:accumulate;" fill-rule="evenodd" fill="#eac102" d="m535.48986,715.85229c-1.2016,0-2.1755,0.9738-2.1755,2.1751,0,1.2012,0.9739,2.1751,2.1755,2.1751h9.9518c1.2014,0,2.1755-0.9738,2.1755-2.1751,0-1.2012-0.9741-2.1751-2.1755-2.1751zm0-3.2567c-3.0004,0-5.4327,2.4318-5.4327,5.4317s2.4323,5.4317,5.4327,5.4317h9.9518c3.0004,0,5.4326-2.4318,5.4326-5.4317s-2.4322-5.4317-5.4326-5.4317z"/>
<path fill="#eac102" d="m563.20566,719.65539-17.4889,0c-0.9221,0-1.6644-0.7261-1.6644-1.6281,0-0.9019,0.7423-1.6281,1.6644-1.6281h17.4889c0.9222,0,1.6645,0.7262,1.6645,1.6281s-0.7423,1.6281-1.6645,1.6281z"/>
<path style="color:#000000;enable-background:accumulate;" fill-rule="evenodd" fill="#eac102" d="m534.47366,746.74209c0.8496-0.8497,2.2269-0.8497,3.0763-0.0003s0.8494,2.2267-0.0003,3.0763l-6.3302,6.3302c-0.8495,0.8495-2.2268,0.8497-3.0763,0.0003-0.8494-0.8494-0.8492-2.2269,0.0003-3.0764zm-2.3028-2.3028c2.1216-2.1216,5.561-2.122,7.6823-0.0007,2.1212,2.1212,2.1209,5.5607-0.0007,7.6823l-6.3302,6.3301c-2.1216,2.1216-5.561,2.1219-7.6822,0.0007-2.1213-2.1213-2.121-5.5606,0.0006-7.6822z"/>
<path fill="#eac102" d="m518.97846,767.61569,11.6597-11.6596c0.6521-0.6521,0.6634-1.6905,0.026-2.3282-0.6377-0.6378-1.6761-0.6264-2.3282,0.026l-11.6596,11.6596c-0.6521,0.652-0.6634,1.6904-0.026,2.3282,0.6377,0.6377,1.6761,0.6263,2.3281-0.026z"/>
<path style="color:#000000;enable-background:accumulate;" fill-rule="evenodd" fill="#eac102" d="m552.85236,728.36329c0.8497-0.8497,2.227-0.8497,3.0764-0.0003,0.8494,0.8495,0.8493,2.2267-0.0003,3.0763l-6.3301,6.3301c-0.8495,0.8496-2.2269,0.8498-3.0764,0.0003-0.8493-0.8494-0.8492-2.2268,0.0003-3.0763zm-2.3027-2.3028c2.1216-2.1216,5.561-2.1219,7.6822-0.0007,2.1213,2.1213,2.1209,5.5607-0.0007,7.6823l-6.3301,6.3301c-2.1216,2.1216-5.5609,2.1219-7.6822,0.0006-2.1212-2.1212-2.1209-5.5606,0.0007-7.6822z"/>
<path fill="#eac102" d="m565.09336,716.89589-11.6596,11.6596c-0.652,0.652-0.6635,1.6905-0.026,2.3282,0.6377,0.6377,1.6762,0.6263,2.3282-0.026l11.6596-11.6597c0.6521-0.6521,0.6636-1.6905,0.026-2.3283-0.6377-0.6377-1.6762-0.6262-2.3283,0.026z"/>
<path fill="#eac102" d="m546.71456,735.27469-11.6596,11.6595c-0.652,0.6521-0.6634,1.6905-0.026,2.3283,0.6377,0.6377,1.6762,0.6263,2.3282-0.026l11.6596-11.6595c0.6521-0.6521,0.6635-1.6906,0.026-2.3283-0.6378-0.6378-1.6762-0.6263-2.3283,0.026z"/>
<path fill="#eac102" d="m517.72576,716.39919,17.4889,0c0.9221,0,1.6645,0.7262,1.6645,1.6281s-0.7424,1.6281-1.6645,1.6281h-17.4889c-0.9222,0-1.6646-0.7261-1.6646-1.6281,0-0.9019,0.7424-1.6281,1.6646-1.6281z"/>
<path style="color:#000000;enable-background:accumulate;" fill-rule="evenodd" fill="#eac102" d="m493.84386,819.04759c1.2016,0,2.1755,0.9739,2.1755,2.1751,0,1.2013-0.9739,2.1751-2.1755,2.1751h-9.9518c-1.2014,0-2.1755-0.9738-2.1755-2.1751,0-1.2012,0.9741-2.1751,2.1755-2.1751zm0-3.2566c3.0004,0,5.4327,2.4317,5.4327,5.4317,0,2.9999-2.4323,5.4317-5.4327,5.4317h-9.9518c-3.0004,0-5.4326-2.4318-5.4326-5.4317,0-3,2.4322-5.4317,5.4326-5.4317z"/>
<path fill="#eac102" d="m466.12806,822.85079,17.4888,0c0.9222,0,1.6645-0.7262,1.6645-1.6281s-0.7423-1.6281-1.6645-1.6281h-17.4888c-0.9222,0-1.6645,0.7261-1.6645,1.6281,0,0.9018,0.7423,1.6281,1.6645,1.6281z"/>
<path fill="#eac102" d="m511.60796,819.59459-17.4889,0c-0.9221,0-1.6645,0.7261-1.6645,1.6281,0,0.9018,0.7424,1.6281,1.6645,1.6281h17.4889c0.9222,0,1.6646-0.7262,1.6646-1.6281s-0.7424-1.6281-1.6646-1.6281z"/>
<path style="color:#000000;enable-background:accumulate;" fill-rule="evenodd" fill="#eac102" d="m479.73536,746.74209c0.8497-0.8497,2.227-0.8497,3.0763-0.0003,0.8495,0.8494,0.8494,2.2267-0.0003,3.0763l-6.3301,6.3302c-0.8495,0.8495-2.2269,0.8497-3.0764,0.0003-0.8493-0.8494-0.8492-2.2269,0.0003-3.0764zm-2.3028-2.3028c2.1216-2.1216,5.5611-2.122,7.6823-0.0007,2.1213,2.1212,2.1209,5.5607-0.0007,7.6823l-6.3301,6.3301c-2.1217,2.1216-5.561,2.1219-7.6823,0.0007-2.1212-2.1213-2.1209-5.5606,0.0007-7.6822z"/>
<path fill="#eac102" d="m464.24026,767.61569,11.6596-11.6596c0.6521-0.6521,0.6635-1.6905,0.026-2.3282-0.6377-0.6378-1.6761-0.6264-2.3282,0.026l-11.6596,11.6596c-0.652,0.652-0.6634,1.6904-0.026,2.3282,0.6378,0.6377,1.6762,0.6263,2.3282-0.026z"/>
<path style="color:#000000;enable-background:accumulate;" fill-rule="evenodd" fill="#eac102" d="m498.11416,728.36329c0.8496-0.8497,2.2269-0.8497,3.0763-0.0003,0.8494,0.8495,0.8494,2.2267-0.0003,3.0763l-6.3301,6.3301c-0.8495,0.8496-2.2269,0.8498-3.0763,0.0003-0.8494-0.8494-0.8492-2.2268,0.0003-3.0763zm-2.3028-2.3028c2.1216-2.1216,5.561-2.1219,7.6823-0.0007,2.1212,2.1213,2.1209,5.5607-0.0007,7.6823l-6.3301,6.3301c-2.1216,2.1216-5.561,2.1219-7.6822,0.0006-2.1213-2.1212-2.121-5.5606,0.0006-7.6822z"/>
<path fill="#eac102" d="m510.35516,716.89589-11.6597,11.6596c-0.652,0.652-0.6634,1.6905-0.026,2.3282,0.6377,0.6377,1.6762,0.6263,2.3282-0.026l11.6596-11.6597c0.6521-0.6521,0.6636-1.6905,0.026-2.3283-0.6378-0.6377-1.6762-0.6262-2.3283,0.026z"/>
<path fill="#eac102" d="m491.97626,735.27469-11.6595,11.6595c-0.652,0.6521-0.6635,1.6905-0.026,2.3283,0.6378,0.6377,1.6762,0.6263,2.3283-0.026l11.6595-11.6595c0.6521-0.6521,0.6636-1.6906,0.026-2.3283-0.6377-0.6378-1.6762-0.6263-2.3283,0.026z"/>
<path style="color:#000000;enable-background:accumulate;" fill-rule="evenodd" fill="#eac102" d="m549.59836,792.50789c-0.8497,0.8497-2.227,0.8497-3.0763,0.0003-0.8495-0.8494-0.8494-2.2267,0.0003-3.0763l6.3301-6.3302c0.8495-0.8495,2.2269-0.8497,3.0764-0.0003,0.8493,0.8494,0.8492,2.2269-0.0003,3.0764zm2.3028,2.3028c-2.1216,2.1216-5.5611,2.122-7.6823,0.0007-2.1213-2.1212-2.1209-5.5607,0.0007-7.6823l6.3301-6.3301c2.1217-2.1216,5.561-2.1219,7.6823-0.0007,2.1212,2.1213,2.1209,5.5606-0.0007,7.6822z"/>
<path fill="#eac102" d="m565.09346,771.63429-11.6596,11.6596c-0.6521,0.6521-0.6635,1.6905-0.026,2.3282,0.6377,0.6378,1.6761,0.6264,2.3282-0.026l11.6596-11.6596c0.652-0.652,0.6634-1.6904,0.026-2.3282-0.6378-0.6377-1.6762-0.6263-2.3282,0.026z"/>
<path style="color:#000000;enable-background:accumulate;" fill-rule="evenodd" fill="#eac102" d="m531.21956,810.88669c-0.8496,0.8497-2.2269,0.8497-3.0763,0.0003-0.8494-0.8495-0.8494-2.2267,0.0003-3.0763l6.3301-6.3301c0.8495-0.8496,2.2269-0.8498,3.0763-0.0003,0.8494,0.8494,0.8492,2.2268-0.0003,3.0763zm2.3028,2.3028c-2.1216,2.1216-5.561,2.1219-7.6823,0.0007-2.1212-2.1213-2.1209-5.5607,0.0007-7.6823l6.3301-6.3301c2.1216-2.1216,5.561-2.1219,7.6822-0.0006,2.1213,2.1212,2.121,5.5606-0.0006,7.6822z"/>
<path fill="#eac102" d="m518.97856,822.35409,11.6597-11.6596c0.652-0.652,0.6634-1.6905,0.026-2.3282-0.6377-0.6377-1.6762-0.6263-2.3282,0.026l-11.6596,11.6597c-0.6521,0.6521-0.6636,1.6905-0.026,2.3283,0.6378,0.6377,1.6762,0.6262,2.3283-0.026z"/>
<path fill="#eac102" d="m537.35746,803.97529,11.6595-11.6595c0.652-0.6521,0.6635-1.6905,0.026-2.3283-0.6378-0.6377-1.6762-0.6263-2.3283,0.026l-11.6595,11.6595c-0.6521,0.6521-0.6636,1.6906-0.026,2.3283,0.6377,0.6378,1.6762,0.6263,2.3283-0.026z"/>
<path style="color:#000000;enable-background:accumulate;" fill-rule="evenodd" fill="#eac102" d="m494.86036,792.50789c-0.8497,0.8497-2.227,0.8497-3.0763,0.0003-0.8495-0.8494-0.8494-2.2267,0.0003-3.0763l6.3301-6.3302c0.8495-0.8495,2.2269-0.8497,3.0764-0.0003,0.8493,0.8494,0.8492,2.2269-0.0003,3.0764zm2.3028,2.3028c-2.1216,2.1216-5.5611,2.122-7.6823,0.0007-2.1213-2.1212-2.1209-5.5607,0.0007-7.6823l6.3301-6.3301c2.1217-2.1216,5.561-2.1219,7.6823-0.0007,2.1212,2.1213,2.1209,5.5606-0.0007,7.6822z"/>
<path fill="#eac102" d="m510.35546,771.63429-11.6596,11.6596c-0.6521,0.6521-0.6635,1.6905-0.026,2.3282,0.6377,0.6378,1.6761,0.6264,2.3282-0.026l11.6596-11.6596c0.652-0.652,0.6634-1.6904,0.026-2.3282-0.6378-0.6377-1.6762-0.6263-2.3282,0.026z"/>
<path style="color:#000000;enable-background:accumulate;" fill-rule="evenodd" fill="#eac102" d="m476.48156,810.88669c-0.8496,0.8497-2.2269,0.8497-3.0763,0.0003-0.8494-0.8495-0.8494-2.2267,0.0003-3.0763l6.3301-6.3301c0.8495-0.8496,2.2269-0.8498,3.0763-0.0003,0.8494,0.8494,0.8492,2.2268-0.0003,3.0763zm2.3028,2.3028c-2.1216,2.1216-5.561,2.1219-7.6823,0.0007-2.1212-2.1213-2.1209-5.5607,0.0007-7.6823l6.3301-6.3301c2.1216-2.1216,5.561-2.1219,7.6822-0.0006,2.1213,2.1212,2.121,5.5606-0.0006,7.6822z"/>
<path fill="#eac102" d="m464.24056,822.35409,11.6597-11.6596c0.652-0.652,0.6634-1.6905,0.026-2.3282-0.6377-0.6377-1.6762-0.6263-2.3282,0.026l-11.6596,11.6597c-0.6521,0.6521-0.6636,1.6905-0.026,2.3283,0.6378,0.6377,1.6762,0.6262,2.3283-0.026z"/>
<path fill="#eac102" d="m482.61946,803.97529,11.6595-11.6595c0.652-0.6521,0.6635-1.6905,0.026-2.3283-0.6378-0.6377-1.6762-0.6263-2.3283,0.026l-11.6595,11.6595c-0.6521,0.6521-0.6636,1.6906-0.026,2.3283,0.6377,0.6378,1.6762,0.6263,2.3283-0.026z"/>
<path fill-rule="evenodd" fill="#008f4c" d="m511.41576,762.73169,6.5018,0,3.6414,3.6418,0,6.5029-3.6414,3.6418-6.5018,0-3.641-3.6418,0-6.5029z"/>
<path fill="none" d="m512.84196,765.75559,3.6496,0,2.0439,2.0442,0,3.6503-2.0439,2.0442-3.6496,0-2.0438-2.0442,0-3.6503z"/>
<path style="color:#000000;enable-background:accumulate;" fill="none" d="m511.41576,762.73169,1.4262,3.0238"/>
<path style="color:#000000;enable-background:accumulate;" fill="none" d="m517.91756,762.73169-1.4261,3.0238"/>
<path style="color:#000000;enable-background:accumulate;" fill="none" d="m521.55866,766.37349-3.0232,1.4264"/>
<path style="color:#000000;enable-background:accumulate;" fill="none" d="m521.55866,772.87639-3.0232-1.4264"/>
<path style="color:#000000;enable-background:accumulate;" fill="none" d="m517.91756,776.51819-1.4261-3.0237"/>
<path style="color:#000000;enable-background:accumulate;" fill="none" d="m511.41576,776.51819,1.4262-3.0237"/>
<path style="color:#000000;enable-background:accumulate;" fill="none" d="m507.77476,772.87639,3.0237-1.4264"/>
<path style="color:#000000;enable-background:accumulate;" fill="none" d="m507.77476,766.37349,3.0237,1.4264"/>
</g>
</g>
<path d="M-604.15401,595.49317v135.99143c0,19.64081,15.91954,35.56036,35.56035,35.56036h17.92386c7.81035,0,14.64541,4.67069,17.92386,11.2069,3.27845-6.53621,10.11351-11.2069,17.92385-11.2069h17.92386c19.64081,0,35.56036-15.91955,35.56036-35.56036v-135.99143z" stroke-dashoffset="0" stroke-dasharray="none" stroke-width="0.86206925" fill="none"/>
</g>
</svg>
