<?xml version="1.0" encoding="UTF-8" standalone="no"?>
<!-- Created with Inkscape (http://www.inkscape.org/) -->

<svg
   xmlns:dc="http://purl.org/dc/elements/1.1/"
   xmlns:cc="http://creativecommons.org/ns#"
   xmlns:rdf="http://www.w3.org/1999/02/22-rdf-syntax-ns#"
   xmlns:svg="http://www.w3.org/2000/svg"
   xmlns="http://www.w3.org/2000/svg"
   xmlns:sodipodi="http://sodipodi.sourceforge.net/DTD/sodipodi-0.dtd"
   xmlns:inkscape="http://www.inkscape.org/namespaces/inkscape"
   width="750"
   height="500"
   id="svg3184"
   sodipodi:version="0.32"
   inkscape:version="0.48.4 r9939"
   version="1.0"
   sodipodi:docname="Proyecto bandera 2x3.svg"
   inkscape:output_extension="org.inkscape.output.svg.inkscape">
  <defs
     id="defs3186" />
  <sodipodi:namedview
     id="base"
     pagecolor="#ffffff"
     bordercolor="#666666"
     borderopacity="1.0"
     gridtolerance="1"
     guidetolerance="1"
     objecttolerance="1"
     inkscape:pageopacity="0.0"
     inkscape:pageshadow="2"
     inkscape:zoom="1.152"
     inkscape:cx="375"
     inkscape:cy="250"
     inkscape:document-units="px"
     inkscape:current-layer="layer2"
     height="500px"
     width="818.18px"
     inkscape:window-width="1280"
     inkscape:window-height="774"
     inkscape:window-x="-4"
     inkscape:window-y="-4"
     showgrid="false"
     inkscape:showpageshadow="false"
     inkscape:window-maximized="1">
    <inkscape:grid
       type="xygrid"
       id="grid7135"
       visible="true"
       enabled="true"
       empspacing="5"
       snapvisiblegridlinesonly="true" />
  </sodipodi:namedview>
  <metadata
     id="metadata3189">
    <rdf:RDF>
      <cc:Work
         rdf:about="">
        <dc:format>image/svg+xml</dc:format>
        <dc:type
           rdf:resource="http://purl.org/dc/dcmitype/StillImage" />
        <dc:title></dc:title>
      </cc:Work>
    </rdf:RDF>
  </metadata>
  <g
     inkscape:label="Bandera"
     inkscape:groupmode="layer"
     id="layer1"
     style="display:inline">
    <g
       id="g3048">
      <path
         sodipodi:nodetypes="ccccc"
         inkscape:connector-curvature="0"
         id="path3230"
         d="m 0.50002575,0.5 748.99995425,0 0,499 -748.99995425,0 z"
         style="fill:#ffffff;fill-opacity:1;fill-rule:nonzero;stroke:#000000;stroke-width:1;stroke-opacity:1" />
      <path
         sodipodi:nodetypes="ccccc"
         id="rect2383"
         d="M 1.5e-6,0 375,0 375,500 1.5e-6,500 z"
         style="fill:#0f47af;fill-opacity:1;fill-rule:nonzero;stroke:none"
         inkscape:connector-curvature="0" />
    </g>
  </g>
  <g
     inkscape:groupmode="layer"
     id="layer2"
     inkscape:label="Escudo"
     style="display:inline">
    <g
       id="g3953">
      <path
         inkscape:connector-curvature="0"
         id="path3682"
         d="m 187.5,168 59.49072,37.99774 -59.49072,5.31194 -59.49072,-5.31194 z"
         style="fill:#fcdd09;stroke:#0f47af;stroke-width:1;stroke-linecap:round;stroke-linejoin:round;stroke-miterlimit:4;stroke-opacity:1;stroke-dasharray:none"
         sodipodi:nodetypes="ccccc" />
      <path
         sodipodi:nodetypes="cccccccccccccccccc"
         inkscape:connector-curvature="0"
         style="fill:#fcdd09;stroke:#0f47af;stroke-width:1;stroke-linecap:round;stroke-linejoin:round;stroke-miterlimit:4;stroke-opacity:1;stroke-dasharray:none"
         d="m 128.00926,205.99774 0,16.18155 9.58326,0 0,60.355 15.32957,0 0,-60.355 26.91311,0 0,60.355 15.32957,0 0,-60.355 26.91312,0 0,60.355 15.34775,0 -0.0181,-60.355 9.58325,0 0,-16.18155 -118.98144,0 z"
         id="path3678" />
      <path
         inkscape:connector-curvature="0"
         sodipodi:nodetypes="cccccc"
         id="path3680"
         d="m 130.97871,275.0524 113.04257,0 0,12.72652 -56.52128,4.37454 -56.52129,-4.37454 z"
         style="fill:#fcdd09;stroke:#0f47af;stroke-width:1;stroke-linecap:round;stroke-linejoin:round;stroke-miterlimit:4;stroke-opacity:1;stroke-dasharray:none" />
      <path
         inkscape:connector-curvature="0"
         style="fill:#fcdd09;stroke:#0f47af;stroke-width:1;stroke-linecap:round;stroke-linejoin:round;stroke-miterlimit:4;stroke-opacity:1;stroke-dasharray:none"
         d="m 113,287.779 149,0 0,15.72092 -149,0 z"
         id="path3676"
         sodipodi:nodetypes="ccccc" />
      <path
         inkscape:connector-curvature="0"
         d="m 117.02392,324.62754 c 0,-1.70841 0.17602,-3.08336 0.52804,-4.12484 0.35203,-1.04146 0.87514,-1.84475 1.56933,-2.40986 0.69418,-0.56508 1.56768,-0.84763 2.62048,-0.84763 0.77643,0 1.45747,0.15606 2.04309,0.46817 0.58562,0.31211 1.06925,0.76222 1.45089,1.35031 0.38164,0.5881 0.68102,1.30431 0.89816,2.14866 0.21714,0.84436 0.32571,1.98276 0.32571,3.41519 0,1.69527 -0.17438,3.06365 -0.52311,4.10512 -0.34874,1.04148 -0.87021,1.84641 -1.56439,2.41479 -0.69419,0.56838 -1.57098,0.85255 -2.63035,0.85255 -1.39496,0 -2.49176,-0.49839 -3.2867,-1.49814 -0.95534,-1.20148 -1.43115,-3.16057 -1.43115,-5.87432 z m 1.82595,0 c 0,2.37207 0.278,3.95071 0.83401,4.73592 0.55601,0.78522 1.24197,1.17782 2.05789,1.17782 0.81591,0 1.50188,-0.39424 2.05789,-1.18274 0.55601,-0.7885 0.83401,-2.3655 0.83401,-4.731 0,-2.37863 -0.278,-3.95892 -0.83401,-4.74085 -0.55601,-0.78193 -1.24855,-1.1729 -2.07763,-1.1729 -0.81593,0 -1.47013,0.34302 -1.95426,1.03491 -0.61473,0.87855 -0.9179,2.50678 -0.9179,4.87884 z"
         style="font-size:33.40414429px;font-style:normal;font-weight:normal;fill:#ffffff;fill-opacity:1;stroke:#ffffff;stroke-width:1;stroke-miterlimit:4;stroke-opacity:1;stroke-dasharray:none;font-family:Vivaldi;-inkscape-font-specification:Vivaldi"
         id="path3104"
         sodipodi:nodetypes="ssssssssssssssssssssss" />
      <path
         inkscape:connector-curvature="0"
         d="m 134.96754,331.7536 -1.7766,0 0,-11.30511 c 0,-0.59068 -0.98865,0.81478 -1.68283,1.22217 -0.69419,0.4074 -1.31764,0.71295 -1.87036,0.91663 l 0,-1.71498 c 0.99358,-0.46652 1.86213,-1.03162 2.60567,-1.69528 0.74354,-0.66364 1.26994,-1.30758 1.5792,-1.93182 l 1.14492,0 z"
         style="font-size:33.40414429px;font-style:normal;font-weight:normal;fill:#ffffff;fill-opacity:1;stroke:#ffffff;stroke-width:1;stroke-miterlimit:4;stroke-opacity:1;stroke-dasharray:none;font-family:Vivaldi;-inkscape-font-specification:Vivaldi"
         id="path3106"
         sodipodi:nodetypes="ccssccsccc" />
      <path
         inkscape:connector-curvature="0"
         d="m 156.88755,331.7536 -1.7766,0 0,-11.30511 c 0,-0.59068 -0.98865,0.81478 -1.68283,1.22217 -0.69419,0.4074 -1.31764,0.71295 -1.87036,0.91663 l 0,-1.71498 c 0.99358,-0.46652 1.86212,-1.03162 2.60568,-1.69528 0.74352,-0.66364 1.26992,-1.30758 1.57919,-1.93182 l 1.14492,0 z"
         style="font-size:33.40414429px;font-style:normal;font-weight:normal;fill:#ffffff;fill-opacity:1;stroke:#ffffff;stroke-width:1;stroke-miterlimit:4;stroke-opacity:1;stroke-dasharray:none;font-family:Vivaldi;-inkscape-font-specification:Vivaldi"
         id="path3108"
         sodipodi:nodetypes="ccssccsccc" />
      <path
         inkscape:connector-curvature="0"
         d="m 168.13932,331.7536 -1.7766,0 0,-11.30511 c 0,-0.59068 -0.98865,0.81478 -1.68283,1.22217 -0.69419,0.4074 -1.31764,0.71295 -1.87036,0.91663 l 0,-1.71498 c 0.99358,-0.46652 1.86213,-1.03162 2.60568,-1.69528 0.74353,-0.66364 1.26993,-1.30758 1.57919,-1.93182 l 1.14492,0 z"
         style="font-size:33.40414429px;font-style:normal;font-weight:normal;fill:#ffffff;fill-opacity:1;stroke:#ffffff;stroke-width:1;stroke-miterlimit:4;stroke-opacity:1;stroke-dasharray:none;font-family:Vivaldi;-inkscape-font-specification:Vivaldi"
         id="path3110"
         sodipodi:nodetypes="ccssccsccc" />
      <path
         inkscape:connector-curvature="0"
         d="m 189.33359,331.7536 -1.77659,0 0,-11.30511 c 0,-0.59069 -0.98865,0.81478 -1.68284,1.22217 -0.69419,0.4074 -1.31765,0.71295 -1.87036,0.91663 l 0,-1.71498 c 0.99357,-0.46652 1.86213,-1.03162 2.60568,-1.69528 0.74352,-0.66364 1.26993,-1.30758 1.57919,-1.93182 l 1.14492,0 z"
         style="font-size:33.40414429px;font-style:normal;font-weight:normal;fill:#ffffff;fill-opacity:1;stroke:#ffffff;stroke-width:1;stroke-miterlimit:4;stroke-opacity:1;stroke-dasharray:none;font-family:Vivaldi;-inkscape-font-specification:Vivaldi"
         id="path3112"
         sodipodi:nodetypes="ccssccsccc" />
      <path
         inkscape:connector-curvature="0"
         d="m 200.58536,331.7536 -1.77659,0 0,-11.30511 c 0,-0.59069 -0.98865,0.81478 -1.68284,1.22217 -0.69419,0.4074 -1.31764,0.71295 -1.87035,0.91663 l 0,-1.71498 c 0.99357,-0.46652 1.86212,-1.03162 2.60567,-1.69528 0.74352,-0.66364 1.26993,-1.30758 1.57919,-1.93182 l 1.14492,0 z"
         style="font-size:33.40414429px;font-style:normal;font-weight:normal;fill:#ffffff;fill-opacity:1;stroke:#ffffff;stroke-width:1;stroke-miterlimit:4;stroke-opacity:1;stroke-dasharray:none;font-family:Vivaldi;-inkscape-font-specification:Vivaldi"
         id="path3114"
         sodipodi:nodetypes="ccssccsccc" />
      <path
         inkscape:connector-curvature="0"
         d="m 211.83713,331.7536 -1.77659,0 0,-11.30511 c 0,-0.59069 -0.98865,0.81478 -1.68283,1.22217 -0.6942,0.4074 -1.31765,0.71295 -1.87036,0.91663 l 0,-1.71498 c 0.99357,-0.46652 1.86212,-1.03162 2.60567,-1.69528 0.74353,-0.66364 1.26993,-1.30758 1.57919,-1.93182 l 1.14492,0 z"
         style="font-size:33.40414429px;font-style:normal;font-weight:normal;fill:#ffffff;fill-opacity:1;stroke:#ffffff;stroke-width:1;stroke-miterlimit:4;stroke-opacity:1;stroke-dasharray:none;font-family:Vivaldi;-inkscape-font-specification:Vivaldi"
         id="path3116"
         sodipodi:nodetypes="ccssccsccc" />
      <path
         inkscape:connector-curvature="0"
         d="m 226.03682,324.62754 c 0,-1.70841 0.17601,-3.08336 0.52804,-4.12484 0.35203,-1.04146 0.87514,-1.84475 1.56933,-2.40986 0.69418,-0.56508 1.56768,-0.84763 2.62048,-0.84763 0.77643,0 1.45747,0.15606 2.04309,0.46817 0.58562,0.31211 1.06925,0.76222 1.45089,1.35031 0.38164,0.5881 0.68102,1.30431 0.89816,2.14866 0.21714,0.84436 0.3257,1.98276 0.32571,3.41519 -1e-5,1.69527 -0.17438,3.06365 -0.52311,4.10512 -0.34875,1.04148 -0.87021,1.84641 -1.56439,2.41479 -0.69418,0.56838 -1.57098,0.85255 -2.63035,0.85255 -1.39496,0 -2.49177,-0.49839 -3.28671,-1.49814 -0.95533,-1.20148 -1.43114,-3.16057 -1.43114,-5.87432 z m 1.82595,0 c -1e-5,2.37207 0.278,3.95071 0.83401,4.73592 0.55601,0.78522 1.24197,1.17782 2.05789,1.17782 0.81591,0 1.50188,-0.39424 2.05789,-1.18274 0.55601,-0.7885 0.83401,-2.3655 0.83402,-4.731 -1e-5,-2.37863 -0.27801,-3.95892 -0.83402,-4.74085 -0.55601,-0.78193 -1.24856,-1.1729 -2.07763,-1.1729 -0.81593,0 -1.47013,0.34302 -1.95426,1.03491 -0.61474,0.87855 -0.91791,2.50678 -0.9179,4.87884 z"
         style="font-size:33.40414429px;font-style:normal;font-weight:normal;fill:#ffffff;fill-opacity:1;stroke:#ffffff;stroke-width:1;stroke-miterlimit:4;stroke-opacity:1;stroke-dasharray:none;font-family:Vivaldi;-inkscape-font-specification:Vivaldi"
         id="path3118"
         sodipodi:nodetypes="ssssssssssssssssssssss" />
      <path
         inkscape:connector-curvature="0"
         d="m 243.98045,331.7536 -1.7766,0 0,-11.30511 c 0,-0.59069 -0.98864,0.81478 -1.68283,1.22217 -0.69419,0.4074 -1.31765,0.71295 -1.87037,0.91663 l 0,-1.71498 c 0.99358,-0.46652 1.86214,-1.03162 2.60568,-1.69528 0.74353,-0.66364 1.26994,-1.30758 1.5792,-1.93182 l 1.14492,0 z"
         style="font-size:33.40414429px;font-style:normal;font-weight:normal;fill:#ffffff;fill-opacity:1;stroke:#ffffff;stroke-width:1;stroke-miterlimit:4;stroke-opacity:1;stroke-dasharray:none;font-family:Vivaldi;-inkscape-font-specification:Vivaldi"
         id="path3120"
         sodipodi:nodetypes="ccssccsccc" />
      <path
         inkscape:connector-curvature="0"
         d="m 248.54038,324.62754 c 0,-1.70841 0.17601,-3.08336 0.52804,-4.12484 0.35202,-1.04146 0.87512,-1.84475 1.56933,-2.40986 0.69417,-0.56508 1.56767,-0.84763 2.62048,-0.84763 0.77643,0 1.45746,0.15606 2.04308,0.46817 0.58561,0.31211 1.06925,0.76222 1.45088,1.35031 0.38165,0.5881 0.68103,1.30431 0.89817,2.14866 0.21714,0.84436 0.32571,1.98276 0.32571,3.41519 0,1.69527 -0.17436,3.06366 -0.5231,4.10512 -0.34875,1.04149 -0.87022,1.84642 -1.56439,2.41479 -0.6942,0.56838 -1.57098,0.85255 -2.63035,0.85255 -1.39497,0 -2.49177,-0.49839 -3.28671,-1.49814 -0.95533,-1.20149 -1.43114,-3.16057 -1.43114,-5.87432 z m 1.82594,0 c 0,2.37207 0.278,3.95071 0.83401,4.73592 0.55601,0.78522 1.24197,1.17782 2.0579,1.17782 0.81591,0 1.50188,-0.39424 2.05789,-1.18274 0.556,-0.7885 0.83401,-2.3655 0.83401,-4.731 0,-2.37863 -0.27801,-3.95892 -0.83401,-4.74085 -0.55601,-0.78193 -1.24856,-1.1729 -2.07764,-1.1729 -0.81592,0 -1.47012,0.34302 -1.95425,1.03491 -0.61474,0.87855 -0.91791,2.50678 -0.91791,4.87884 z"
         style="font-size:33.40414429px;font-style:normal;font-weight:normal;fill:#ffffff;fill-opacity:1;stroke:#ffffff;stroke-width:1;stroke-miterlimit:4;stroke-opacity:1;stroke-dasharray:none;font-family:Vivaldi;-inkscape-font-specification:Vivaldi"
         id="path3122"
         sodipodi:nodetypes="ssssssssssssssssssssss" />
    </g>
  </g>
</svg>
