<?xml version="1.0" encoding="UTF-8" standalone="no"?>
<!-- Created with Inkscape (http://www.inkscape.org/) -->

<svg
   xmlns:dc="http://purl.org/dc/elements/1.1/"
   xmlns:cc="http://creativecommons.org/ns#"
   xmlns:rdf="http://www.w3.org/1999/02/22-rdf-syntax-ns#"
   xmlns:svg="http://www.w3.org/2000/svg"
   xmlns="http://www.w3.org/2000/svg"
   xmlns:sodipodi="http://sodipodi.sourceforge.net/DTD/sodipodi-0.dtd"
   xmlns:inkscape="http://www.inkscape.org/namespaces/inkscape"
   width="750"
   height="500"
   id="svg3184"
   sodipodi:version="0.32"
   inkscape:version="0.48.1 "
   version="1.0"
   sodipodi:docname="Bandera de Lentegí (Granada).svg"
   inkscape:output_extension="org.inkscape.output.svg.inkscape">
  <defs
     id="defs3186" />
  <sodipodi:namedview
     id="base"
     pagecolor="#ffffff"
     bordercolor="#666666"
     borderopacity="1.0"
     gridtolerance="1"
     guidetolerance="1"
     objecttolerance="1"
     inkscape:pageopacity="0.0"
     inkscape:pageshadow="2"
     inkscape:zoom="1.15"
     inkscape:cx="375"
     inkscape:cy="250"
     inkscape:document-units="px"
     inkscape:current-layer="layer1"
     height="500px"
     width="818.18px"
     inkscape:window-width="1366"
     inkscape:window-height="748"
     inkscape:window-x="-4"
     inkscape:window-y="-4"
     showgrid="false"
     inkscape:showpageshadow="false"
     inkscape:window-maximized="1">
    <inkscape:grid
       type="xygrid"
       id="grid7135"
       visible="true"
       enabled="true"
       empspacing="5"
       snapvisiblegridlinesonly="true" />
  </sodipodi:namedview>
  <metadata
     id="metadata3189">
    <rdf:RDF>
      <cc:Work
         rdf:about="">
        <dc:format>image/svg+xml</dc:format>
        <dc:type
           rdf:resource="http://purl.org/dc/dcmitype/StillImage" />
        <dc:title />
      </cc:Work>
    </rdf:RDF>
  </metadata>
  <g
     inkscape:label="Bandera"
     inkscape:groupmode="layer"
     id="layer1"
     style="display:inline">
    <g
       id="g3766">
      <path
         sodipodi:nodetypes="ccccc"
         inkscape:connector-curvature="0"
         id="path3230"
         d="m 0.50002575,0.5 748.99995425,0 0,499 -748.99995425,0 z"
         style="fill:#ffffff;fill-opacity:1;fill-rule:nonzero;stroke:#000000;stroke-width:1;stroke-opacity:1" />
      <path
         sodipodi:nodetypes="ccssscscssssscsscc"
         id="rect2383"
         d="M 1.5e-6,500 7.5e-7,32.43725 C 11.123001,36.25603 22.9372,42.10398 34.5,49.8125 c 18.3062,12.20412 32.5183,26.79365 40.6875,40.53125 8.1692,13.73779 22.3812,28.35839 40.6875,40.5625 18.3058,12.20386 37.2396,19.68065 53.0625,21.93745 15.8229,2.2572 34.7563,9.7646 53.0625,21.9688 18.3065,12.2043 32.5183,26.7938 40.6875,40.5313 8.169,13.7377 22.3815,28.3585 40.6875,40.5625 18.3061,12.204 37.2395,19.6805 53.0625,21.9375 15.8229,2.2571 34.7562,9.7646 53.0625,21.9687 18.3058,12.2038 32.5184,26.7938 40.6875,40.5313 8.1691,13.7377 22.3815,28.3586 40.6875,40.5625 18.3058,12.2039 37.2396,19.6806 53.0625,21.9375 15.8229,2.2571 34.756,9.7644 53.0625,21.9687 18.3062,12.2041 32.5184,26.7937 40.6875,40.5313 6.8883,11.5837 18.0634,23.7999 32.37525,34.6562 z"
         style="fill:#078930;fill-opacity:1;fill-rule:nonzero;stroke:none"
         inkscape:connector-curvature="0" />
      <path
         inkscape:connector-curvature="0"
         style="fill:#fcdd09;fill-opacity:1;fill-rule:nonzero;stroke:none"
         d="M 1.5e-6,500 7.5e-7,107.34388 C 17.0296,119.16782 30.26,132.99434 38.0312,146.0625 c 8.1692,13.7378 22.3814,28.3272 40.6876,40.5313 18.3058,12.2039 37.2395,19.7118 53.0624,21.9687 15.823,2.2571 34.7876,9.7647 53.0938,21.9688 18.3065,12.2042 32.4871,26.7937 40.6562,40.5312 8.1692,13.7377 22.3817,28.3273 40.6876,40.5313 18.306,12.204 37.2394,19.7117 53.0624,21.9687 15.823,2.2571 34.7876,9.7645 53.0938,21.9688 18.3059,12.2038 32.4871,26.7937 40.6562,40.5312 8.1692,13.7377 22.3817,28.3273 40.6876,40.5313 18.3058,12.2038 37.2395,19.7118 53.0624,21.9687 15.823,2.2571 34.7873,9.7645 53.0938,21.9688 9.0566,6.0377 17.0913,12.653 23.9061,19.4687 z"
         id="path4099"
         sodipodi:nodetypes="ccsscssssssscscc" />
      <path
         inkscape:connector-curvature="0"
         style="fill:#078930;fill-opacity:1;fill-rule:nonzero;stroke:none"
         d="m 749.99998,0 0,467.56275 c -11.123,-3.81878 -22.9372,-9.66673 -34.5,-17.37525 -18.3062,-12.20412 -32.5183,-26.79365 -40.6875,-40.53125 -8.1692,-13.73779 -22.3812,-28.35839 -40.6875,-40.5625 -18.3058,-12.20386 -37.2396,-19.68065 -53.0625,-21.93745 -15.8229,-2.2572 -34.7563,-9.7646 -53.0625,-21.9688 -18.3065,-12.2043 -32.5183,-26.7938 -40.6875,-40.5313 -8.169,-13.7377 -22.3815,-28.3585 -40.6875,-40.5625 -18.3061,-12.204 -37.2395,-19.6805 -53.0625,-21.9375 -15.8229,-2.2571 -34.7562,-9.7646 -53.0625,-21.9687 -18.3058,-12.2038 -32.5184,-26.7938 -40.6875,-40.5313 -8.1691,-13.7377 -22.3815,-28.3586 -40.6875,-40.5625 -18.3058,-12.2039 -37.2396,-19.6806 -53.0625,-21.9375 -15.8229,-2.2571 -34.756,-9.7644 -53.0625,-21.9687 C 134.69378,62.9834 120.48158,48.3938 112.31248,34.6562 105.42418,23.0725 94.249081,10.8563 79.937231,0 z"
         id="path3762"
         sodipodi:nodetypes="ccssscscssssscsscc" />
      <path
         sodipodi:nodetypes="ccsscssssssscscc"
         id="path3764"
         d="m 749.99998,0 0,392.65612 c -17.0296,-11.82394 -30.26,-25.65046 -38.0312,-38.71862 -8.1692,-13.7378 -22.3814,-28.3272 -40.6876,-40.5313 -18.3058,-12.2039 -37.2395,-19.7118 -53.0624,-21.9687 -15.823,-2.2571 -34.7876,-9.7647 -53.0938,-21.9688 -18.3065,-12.2042 -32.4871,-26.7937 -40.6562,-40.5312 -8.1692,-13.7377 -22.3817,-28.3273 -40.6876,-40.5313 -18.306,-12.204 -37.2394,-19.7117 -53.0624,-21.9687 -15.823,-2.2571 -34.7876,-9.7645 -53.0938,-21.9688 -18.3059,-12.2038 -32.4871,-26.7937 -40.6562,-40.5312 -8.1692,-13.7377 -22.3817,-28.3273 -40.6876,-40.5313 -18.3058,-12.2038 -37.2395,-19.7118 -53.0624,-21.9687 -15.823,-2.2571 -34.7873,-9.7645 -53.0938,-21.9688 C 181.06838,13.431 173.03368,6.8157 166.21888,0 z"
         style="fill:#fcdd09;fill-opacity:1;fill-rule:nonzero;stroke:none"
         inkscape:connector-curvature="0" />
    </g>
  </g>
  <g
     inkscape:groupmode="layer"
     id="layer2"
     inkscape:label="Escudo"
     style="display:inline" />
</svg>
