<?xml version="1.0" encoding="UTF-8" standalone="no"?>
<!-- Created with Inkscape (http://www.inkscape.org/) -->

<svg
   xmlns:dc="http://purl.org/dc/elements/1.1/"
   xmlns:cc="http://creativecommons.org/ns#"
   xmlns:rdf="http://www.w3.org/1999/02/22-rdf-syntax-ns#"
   xmlns:svg="http://www.w3.org/2000/svg"
   xmlns="http://www.w3.org/2000/svg"
   xmlns:sodipodi="http://sodipodi.sourceforge.net/DTD/sodipodi-0.dtd"
   xmlns:inkscape="http://www.inkscape.org/namespaces/inkscape"
   width="750"
   height="500"
   id="svg3184"
   sodipodi:version="0.32"
   inkscape:version="0.48.1 "
   version="1.0"
   sodipodi:docname="Bandera de Otívar (Granada).svg"
   inkscape:output_extension="org.inkscape.output.svg.inkscape">
  <defs
     id="defs3186" />
  <sodipodi:namedview
     id="base"
     pagecolor="#ffffff"
     bordercolor="#666666"
     borderopacity="1.0"
     gridtolerance="1"
     guidetolerance="1"
     objecttolerance="1"
     inkscape:pageopacity="0.0"
     inkscape:pageshadow="2"
     inkscape:zoom="1.15"
     inkscape:cx="375"
     inkscape:cy="250"
     inkscape:document-units="px"
     inkscape:current-layer="layer1"
     height="500px"
     width="818.18px"
     inkscape:window-width="1366"
     inkscape:window-height="748"
     inkscape:window-x="-4"
     inkscape:window-y="-4"
     showgrid="false"
     inkscape:showpageshadow="false"
     inkscape:window-maximized="1">
    <inkscape:grid
       type="xygrid"
       id="grid7135"
       visible="true"
       enabled="true"
       empspacing="5"
       snapvisiblegridlinesonly="true" />
  </sodipodi:namedview>
  <metadata
     id="metadata3189">
    <rdf:RDF>
      <cc:Work
         rdf:about="">
        <dc:format>image/svg+xml</dc:format>
        <dc:type
           rdf:resource="http://purl.org/dc/dcmitype/StillImage" />
        <dc:title />
      </cc:Work>
    </rdf:RDF>
  </metadata>
  <g
     inkscape:label="Bandera"
     inkscape:groupmode="layer"
     id="layer1"
     style="display:inline">
    <g
       id="g3313">
      <path
         sodipodi:nodetypes="ccccc"
         inkscape:connector-curvature="0"
         id="path3230"
         d="m 0.50002575,0.5 748.99995425,0 0,499 -748.99995425,0 z"
         style="fill:#ffffff;fill-opacity:1;fill-rule:nonzero;stroke:#000000;stroke-width:1;stroke-opacity:1" />
      <path
         sodipodi:nodetypes="cccc"
         id="rect2383-1"
         d="m 750,200.31201 0,299.68797 -449.531,0 z"
         style="fill:#078930;fill-opacity:1;fill-rule:nonzero;stroke:none;display:inline"
         inkscape:connector-curvature="0" />
      <path
         sodipodi:nodetypes="cccc"
         style="fill:#078930;fill-opacity:1;fill-rule:nonzero;stroke:none;display:inline"
         d="m 0,1e-5 449.531,0 L 0,299.68796 z"
         id="path2485-7"
         inkscape:connector-curvature="0" />
      <path
         sodipodi:nodetypes="ccsssssssssssssscccssscssssssscsscc"
         inkscape:connector-curvature="0"
         id="path3172"
         d="m 750,0 0,55.5485 c -7.3905,3.3677 -14.8974,7.5449 -22.33,12.5 -18.3063,12.2042 -32.5182,26.7937 -40.6875,40.5313 -8.1692,13.7376 -22.3813,28.3584 -40.6875,40.5624 -18.3058,12.2039 -37.2396,19.6806 -53.0625,21.9376 -15.8229,2.2571 -34.7563,9.7646 -53.0625,21.9687 -18.3065,12.2043 -32.5184,26.7938 -40.6875,40.5313 -8.1691,13.7375 -22.3816,28.3585 -40.6875,40.5624 -18.3061,12.204 -37.2394,19.6805 -53.0625,21.9376 -15.8229,2.2571 -34.7563,9.7646 -53.0625,21.9687 -18.3058,12.2039 -32.5183,26.7938 -40.6875,40.5313 -8.1691,13.7375 -22.3816,28.3585 -40.6875,40.5624 -18.3059,12.2039 -37.2396,19.6806 -53.0625,21.9376 -15.8229,2.2571 -34.756,9.7644 -53.0625,21.9687 -18.3062,12.2041 -32.5183,26.7937 -40.6875,40.5313 -3.2111,5.3999 -7.3847,10.9518 -12.3437,16.4202 L 2.8749999e-6,500 l 0,-55.5765 C 7.3783029,441.0587 14.937803,436.9012 22.357503,431.9548 c 18.306,-12.204 32.4871,-26.7937 40.6563,-40.5313 8.1691,-13.7375 22.3813,-28.3584 40.687397,-40.5625 18.3066,-12.2043 37.2396,-19.6804 53.0626,-21.9375 15.8229,-2.2569 34.7878,-9.7649 53.0937,-21.9687 18.3059,-12.204 32.4871,-26.7937 40.6563,-40.5313 8.1691,-13.7375 22.3816,-28.3586 40.6874,-40.5625 18.3062,-12.2041 37.2396,-19.6804 53.0626,-21.9375 15.8231,-2.257 34.7876,-9.7648 53.0937,-21.9687 18.3059,-12.204 32.4871,-26.7937 40.6563,-40.5313 8.1691,-13.7375 22.3809,-28.3582 40.6874,-40.5625 18.3062,-12.2041 37.2396,-19.6804 53.0626,-21.9375 15.8229,-2.2569 34.7879,-9.7649 53.0937,-21.9687 C 603.1637,44.7507 617.3446,30.1612 625.5138,16.4235 628.7314,11.0127 632.9165,5.4791 637.8888,0 z"
         style="fill:#078930;stroke:none;display:inline;fill-opacity:1" />
    </g>
  </g>
  <g
     inkscape:groupmode="layer"
     id="layer2"
     inkscape:label="Escudo"
     style="display:inline" />
</svg>
