<?xml version="1.0" encoding="UTF-8" standalone="no"?>
<!-- Created with Inkscape (http://www.inkscape.org/) -->

<svg
   xmlns:dc="http://purl.org/dc/elements/1.1/"
   xmlns:cc="http://creativecommons.org/ns#"
   xmlns:rdf="http://www.w3.org/1999/02/22-rdf-syntax-ns#"
   xmlns:svg="http://www.w3.org/2000/svg"
   xmlns="http://www.w3.org/2000/svg"
   xmlns:sodipodi="http://sodipodi.sourceforge.net/DTD/sodipodi-0.dtd"
   xmlns:inkscape="http://www.inkscape.org/namespaces/inkscape"
   width="750"
   height="500"
   id="svg3184"
   sodipodi:version="0.32"
   inkscape:version="0.47 r22583"
   version="1.0"
   sodipodi:docname="Bandera de Sorvilán (Granada).svg"
   inkscape:output_extension="org.inkscape.output.svg.inkscape">
  <defs
     id="defs3186" />
  <sodipodi:namedview
     id="base"
     pagecolor="#ffffff"
     bordercolor="#666666"
     borderopacity="1.0"
     gridtolerance="1"
     guidetolerance="1"
     objecttolerance="1"
     inkscape:pageopacity="0.0"
     inkscape:pageshadow="2"
     inkscape:zoom="1.054"
     inkscape:cx="375"
     inkscape:cy="250"
     inkscape:document-units="px"
     inkscape:current-layer="layer1"
     height="500px"
     width="818.18px"
     inkscape:window-width="1366"
     inkscape:window-height="744"
     inkscape:window-x="-4"
     inkscape:window-y="-4"
     showgrid="false"
     inkscape:showpageshadow="false"
     inkscape:window-maximized="1">
    <inkscape:grid
       type="xygrid"
       id="grid7135"
       visible="true"
       enabled="true" />
  </sodipodi:namedview>
  <metadata
     id="metadata3189">
    <rdf:RDF>
      <cc:Work
         rdf:about="">
        <dc:format>image/svg+xml</dc:format>
        <dc:type
           rdf:resource="http://purl.org/dc/dcmitype/StillImage" />
        <dc:title></dc:title>
      </cc:Work>
    </rdf:RDF>
  </metadata>
  <g
     inkscape:label="Bandera"
     inkscape:groupmode="layer"
     id="layer1"
     style="display:inline">
    <g
       id="g4182">
      <path
         id="rect3192"
         d="m 0,-0.02662985 750,0 0,499.99999985 -750,0 0,-499.99999985 z"
         style="fill:#078930;fill-opacity:1;stroke:none" />
      <path
         id="rect2383"
         d="M 1.5e-6,416.64037 750,416.64037 l 0,83.333 -749.9999984999999,0 0,-83.333 z"
         style="fill:#0f47af;fill-opacity:1;fill-rule:nonzero;stroke:none"
         sodipodi:nodetypes="ccccc" />
      <path
         sodipodi:nodetypes="ccccc"
         style="fill:#ffffff;fill-opacity:1;fill-rule:nonzero;stroke:none"
         d="M 1.5e-6,333.30737 750,333.30737 l 0,83.333 -749.9999984999999,0 0,-83.333 z"
         id="path3062" />
    </g>
  </g>
  <g
     inkscape:groupmode="layer"
     id="layer2"
     inkscape:label="Escudo"
     style="display:inline">
    <g
       style="display:inline"
       id="g4060">
      <g
         transform="translate(184.54687,-0.02662985)"
         style="fill:#ffffff;stroke:#000000;stroke-width:1;stroke-linecap:round;stroke-linejoin:round;stroke-opacity:1"
         id="g4099">
        <path
           style="fill:#ffffff;stroke:#000000;stroke-width:1px;stroke-linecap:round;stroke-linejoin:round;stroke-opacity:1"
           d="m 190.4375,20.84375 c -4.96354,0.01732 -9.91146,0.278997 -14.875,0.71875 l 0.0625,18 c -8.01511,0.241141 -16.16483,1.064815 -24.3125,1.96875 l -1.5,-18.15625 c -7.74908,0.77756 -15.59201,1.930537 -23.71875,4.21875 l 7.25,54.90625 c 10.41209,1.185575 13.13351,10.272821 13.28125,13.875 2.38661,58.19162 -13.65757,84.38211 -24.75,121.875 l 1.8125,94.125 52.125,0 0,-42.375 c 0,-8.03476 6.51875,-14.53125 14.625,-14.53125 8.10625,0 14.65625,6.49649 14.65625,14.53125 l 0,42.375 52.125,0 1.8125,-94.125 C 247.93882,180.75711 231.92589,154.56662 234.3125,96.375 c 0.14774,-3.602179 2.83791,-12.689425 13.25,-13.875 l 7.25,-54.90625 C 247.10149,25.406528 239.18463,24.042713 231.09375,23.375 L 229.625,41.1875 c -7.97817,-0.791651 -15.99846,-1.520761 -24.375,-1.78125 l 0.0937,-17.84375 c -4.96354,-0.509037 -9.94271,-0.736071 -14.90625,-0.71875 z"
           id="path3135" />
        <path
           style="fill:#ffffff;stroke:#000000;stroke-width:1px;stroke-linecap:round;stroke-linejoin:round;stroke-opacity:1"
           d="m 128.549,45.130098 c 41.59606,-7.799606 83.68558,-8.232995 123.923,0"
           id="path3153"
           sodipodi:nodetypes="cc" />
        <path
           style="fill:#ffffff;stroke:#000000;stroke-width:1px;stroke-linecap:round;stroke-linejoin:round;stroke-opacity:1"
           d="m 131.334,64.020699 c 42.05581,-4.520922 81.91825,-4.597468 118.655,0"
           id="path3155"
           sodipodi:nodetypes="cc" />
        <path
           style="fill:#ffffff;stroke:#000000;stroke-width:1px;stroke-linecap:round;stroke-linejoin:round;stroke-opacity:1"
           d="m 133.428,81.972788 c 38.06587,-2.141916 76.72044,-2.413966 114.027,0"
           id="path3157"
           sodipodi:nodetypes="cc" />
        <path
           style="fill:#ffffff;stroke:#000000;stroke-width:1px;stroke-linecap:round;stroke-linejoin:round;stroke-opacity:1"
           d="m 145.681,91.661217 c 29.82516,-3.039508 59.85084,-3.039506 89.676,0"
           id="path3159"
           sodipodi:nodetypes="cc" />
        <path
           style="fill:#ffffff;stroke:#000000;stroke-width:1px;stroke-linecap:round;stroke-linejoin:round;stroke-opacity:1"
           d="m 146.806,99.354969 c 28.87532,-2.703164 58.5507,-3.360802 87.42602,0"
           id="path3161"
           sodipodi:nodetypes="cc" />
        <path
           style="fill:#ffffff;stroke:#000000;stroke-width:1px;stroke-linecap:round;stroke-linejoin:round;stroke-opacity:1"
           d="m 146.821,114.45752 c 28.9703,-2.93482 58.44072,-3.87639 87.41102,0"
           id="path3163"
           sodipodi:nodetypes="cc" />
        <path
           style="fill:#ffffff;stroke:#000000;stroke-width:1px;stroke-linecap:round;stroke-linejoin:round;stroke-opacity:1"
           d="m 145.61139,134.68924 c 30.35456,-2.37602 60.44897,-2.93089 90.0454,0"
           id="path3165"
           sodipodi:nodetypes="cc" />
        <path
           style="fill:#ffffff;stroke:#000000;stroke-width:1px;stroke-linecap:round;stroke-linejoin:round;stroke-opacity:1"
           d="m 141.677,156.06077 c 32.48473,-2.85679 65.16927,-3.21776 97.654,0"
           id="path3167"
           sodipodi:nodetypes="cc" />
        <path
           style="fill:#ffffff;stroke:#000000;stroke-width:1px;stroke-linecap:round;stroke-linejoin:round;stroke-opacity:1"
           d="m 134.568,180.5668 c 37.38451,-3.06461 75.0058,-3.75939 111.63208,0"
           id="path3169"
           sodipodi:nodetypes="cc" />
        <path
           style="fill:#ffffff;stroke:#000000;stroke-width:1px;stroke-linecap:round;stroke-linejoin:round;stroke-opacity:1"
           d="m 127.94425,200.51357 c 39.1203,-2.98885 80.05473,-3.85405 125.24975,0"
           id="path3171"
           sodipodi:nodetypes="cc" />
        <path
           style="fill:#ffffff;stroke:#000000;stroke-width:1px;stroke-linecap:round;stroke-linejoin:round;stroke-opacity:1"
           d="m 122.03,218.1807 c 45.21267,-3.55422 91.72533,-3.2789 136.938,0"
           id="path3173"
           sodipodi:nodetypes="cc" />
        <path
           style="fill:#ffffff;stroke:#000000;stroke-width:1px;stroke-linecap:round;stroke-linejoin:round;stroke-opacity:1"
           d="m 122.385,243.54159 c 48.4206,-2.30699 92.15553,-3.04903 136.048,0"
           id="path3175"
           sodipodi:nodetypes="cc" />
        <path
           style="fill:#ffffff;stroke:#000000;stroke-width:1px;stroke-linecap:round;stroke-linejoin:round;stroke-opacity:1"
           d="m 207.48691,266.33789 50.68123,0 m -135.35306,0 51.08719,0"
           id="path3177"
           sodipodi:nodetypes="cccc" />
        <path
           style="fill:#ffffff;stroke:#000000;stroke-width:1px;stroke-linecap:round;stroke-linejoin:round;stroke-opacity:1"
           d="m 209.77677,291.41382 47.82146,0 m -134.21324,0 47.97299,0"
           id="path3179"
           sodipodi:nodetypes="cccc" />
        <path
           style="fill:#ffffff;stroke:#000000;stroke-width:1px;stroke-linecap:round;stroke-linejoin:round;stroke-opacity:1"
           d="m 165.84311,40.154 0,21.017161"
           id="path3181"
           sodipodi:nodetypes="cc" />
        <path
           style="fill:#ffffff;stroke:#000000;stroke-width:1px;stroke-linecap:round;stroke-linejoin:round;stroke-opacity:1"
           d="m 215.71002,40 0,21.026"
           id="path3183"
           sodipodi:nodetypes="cc" />
        <path
           sodipodi:nodetypes="cc"
           style="fill:#ffffff;stroke:#000000;stroke-width:1px;stroke-linecap:round;stroke-linejoin:round;stroke-opacity:1"
           d="m 149.03083,62.511 0,18.577"
           id="path3185" />
        <path
           sodipodi:nodetypes="cc"
           style="fill:#ffffff;stroke:#000000;stroke-width:1px;stroke-linecap:round;stroke-linejoin:round;stroke-opacity:1"
           d="M 231.95239,62.59593 231.66743,81.003"
           id="path3187" />
        <path
           sodipodi:nodetypes="cc"
           style="fill:#ffffff;stroke:#000000;stroke-width:1px;stroke-linecap:round;stroke-linejoin:round;stroke-opacity:1"
           d="m 164.98825,98.215154 0,56.105846"
           id="path3193" />
        <path
           style="fill:#078930;stroke:#000000;stroke-width:1;stroke-linecap:round;stroke-linejoin:round;stroke-miterlimit:4;stroke-opacity:1"
           d="m 165.90313,110.313 c 5.69298,0 10.27612,4.58316 10.27612,10.27613 l 0,24.56887 -20.55225,0 0,-24.56887 c 0,-5.69297 4.58314,-10.27613 10.27613,-10.27613 z"
           id="rect3140"
           sodipodi:nodetypes="cccccc" />
        <path
           sodipodi:nodetypes="cc"
           style="fill:#ffffff;stroke:#000000;stroke-width:1px;stroke-linecap:round;stroke-linejoin:round;stroke-opacity:1"
           d="m 216.27993,97.9302 0,56.3058"
           id="path3195" />
        <path
           sodipodi:nodetypes="cccccc"
           id="path3145"
           d="m 215.00312,110.313 c 5.69299,0 10.27613,4.58316 10.27613,10.27613 l 0,24.56887 -20.55225,0 0,-24.56887 c 0,-5.69297 4.58314,-10.27613 10.27612,-10.27613 z"
           style="fill:#078930;stroke:#000000;stroke-width:1;stroke-linecap:round;stroke-linejoin:round;stroke-miterlimit:4;stroke-opacity:1" />
        <path
           style="fill:#ffffff;stroke:#000000;stroke-width:1px;stroke-linecap:round;stroke-linejoin:round;stroke-opacity:1"
           d="m 154.44495,155.261 -2.56458,24.051"
           id="path3199"
           sodipodi:nodetypes="cc" />
        <path
           style="fill:#ffffff;stroke:#000000;stroke-width:1px;stroke-linecap:round;stroke-linejoin:round;stroke-opacity:1"
           d="m 225.6834,154.92096 2.84954,24.14604"
           id="path3201"
           sodipodi:nodetypes="cc" />
        <path
           style="fill:#ffffff;stroke:#000000;stroke-width:1px;stroke-linecap:round;stroke-linejoin:round;stroke-opacity:1"
           d="m 140.48222,180.352 -4.27431,19.237"
           id="path3203"
           sodipodi:nodetypes="cc" />
        <path
           style="fill:#ffffff;stroke:#000000;stroke-width:1px;stroke-linecap:round;stroke-linejoin:round;stroke-opacity:1"
           d="m 240.21605,179.99689 6.83889,19.77711"
           id="path3205"
           sodipodi:nodetypes="cc" />
        <path
           style="fill:#ffffff;stroke:#000000;stroke-width:1px;stroke-linecap:round;stroke-linejoin:round;stroke-opacity:1"
           d="m 172.39704,178.57212 0,19.39188"
           id="path3207"
           sodipodi:nodetypes="cc" />
        <path
           style="fill:#ffffff;stroke:#000000;stroke-width:1px;stroke-linecap:round;stroke-linejoin:round;stroke-opacity:1"
           d="m 209.72599,178.28717 0,19.66181"
           id="path3209" />
        <path
           style="fill:#ffffff;stroke:#000000;stroke-width:1px;stroke-linecap:round;stroke-linejoin:round;stroke-opacity:1"
           d="m 146.7512,199.314 -4.2743,17.44193"
           id="path3211"
           sodipodi:nodetypes="cc" />
        <path
           style="fill:#ffffff;stroke:#000000;stroke-width:1px;stroke-linecap:round;stroke-linejoin:round;stroke-opacity:1"
           d="m 234.51697,199.244 2.84954,17.457"
           id="path3213"
           sodipodi:nodetypes="cc" />
        <path
           style="fill:#ffffff;stroke:#000000;stroke-width:1px;stroke-linecap:round;stroke-linejoin:round;stroke-opacity:1"
           d="m 153.59009,216.401 0,25.776"
           id="path3215"
           sodipodi:nodetypes="cc" />
        <path
           style="fill:#ffffff;stroke:#000000;stroke-width:1px;stroke-linecap:round;stroke-linejoin:round;stroke-opacity:1"
           d="m 228.24799,216.47098 0,25.41602"
           id="path3217"
           sodipodi:nodetypes="cc" />
        <path
           style="fill:#ffffff;stroke:#000000;stroke-width:1px;stroke-linecap:round;stroke-linejoin:round;stroke-opacity:1"
           d="m 137.63268,242.887 0,23.421"
           id="path3219"
           sodipodi:nodetypes="cc" />
        <path
           style="fill:#ffffff;stroke:#000000;stroke-width:1px;stroke-linecap:round;stroke-linejoin:round;stroke-opacity:1"
           d="m 244.49035,242.702 0,23.576"
           id="path3221"
           sodipodi:nodetypes="cc" />
        <path
           style="fill:#ffffff;stroke:#000000;stroke-width:1px;stroke-linecap:round;stroke-linejoin:round;stroke-opacity:1"
           d="m 153.02019,266.368 0,25.031"
           id="path3223"
           sodipodi:nodetypes="cc" />
        <path
           style="fill:#ffffff;stroke:#000000;stroke-width:1px;stroke-linecap:round;stroke-linejoin:round;stroke-opacity:1"
           d="m 227.67808,266.33789 0,25.10611"
           id="path3225"
           sodipodi:nodetypes="cc" />
        <path
           style="fill:#ffffff;stroke:#000000;stroke-width:1px;stroke-linecap:round;stroke-linejoin:round;stroke-opacity:1"
           d="m 139.688,291.484 0,20.73145"
           id="path3227"
           sodipodi:nodetypes="cc" />
        <path
           style="fill:#ffffff;stroke:#000000;stroke-width:1px;stroke-linecap:round;stroke-linejoin:round;stroke-opacity:1"
           d="m 242.21072,291.41382 0,20.96218"
           id="path3229"
           sodipodi:nodetypes="cc" />
        <g
           id="g3305"
           style="fill:#ffffff;stroke:#000000;stroke-width:1;stroke-linecap:round;stroke-linejoin:round;stroke-opacity:1">
          <path
             sodipodi:nodetypes="cczc"
             id="path3236"
             d="m 175.821,279.74123 0,11.2486 c -4.80148,0 -8.765,1.44378 -8.765,-5.62429 0,-7.06807 3.96352,-5.62431 8.765,-5.62431 z"
             style="fill:#ffffff;stroke:#000000;stroke-width:0.99999994;stroke-linecap:round;stroke-linejoin:round;stroke-miterlimit:4;stroke-opacity:1" />
          <path
             style="fill:#ffffff;stroke:#000000;stroke-width:0.99999994;stroke-linecap:round;stroke-linejoin:round;stroke-miterlimit:4;stroke-opacity:1"
             d="m 175.821,301.00494 0,11.2486 c -4.80148,0 -8.765,1.44378 -8.765,-5.62429 0,-7.06807 3.96352,-5.62431 8.765,-5.62431 z"
             id="path3242"
             sodipodi:nodetypes="cczc" />
          <path
             sodipodi:nodetypes="cccczc"
             id="rect3231"
             d="m 170.98657,290.8439 4.83456,0 0,10.54329 -4.83456,0 c -4.50448,0 -8.13083,1.35325 -8.13083,-5.27164 0,-6.62489 3.62635,-5.27165 8.13083,-5.27165 z"
             style="fill:#ffffff;stroke:#000000;stroke-width:0.99999994;stroke-linecap:round;stroke-linejoin:round;stroke-miterlimit:4;stroke-opacity:1" />
          <path
             id="path3252"
             d="m 171.875,260.78125 c -1.8868,0.11446 -3.42788,1.144 -4.25,4.125 -1.74302,6.32013 3.68981,7.28347 8.1875,8.40625 l 0,-3.3125 c 0,-2.88119 0.86223,-5.56017 2.3125,-7.8125 -2.1228,-0.70408 -4.35452,-1.52123 -6.25,-1.40625 z"
             style="fill:#ffffff;stroke:#000000;stroke-width:0.99999994;stroke-linecap:round;stroke-linejoin:round;stroke-miterlimit:4;stroke-opacity:1" />
          <path
             style="fill:#ffffff;stroke:#000000;stroke-width:0.99999994;stroke-linecap:round;stroke-linejoin:round;stroke-miterlimit:4;stroke-opacity:1"
             d="m 170.98657,269.34387 4.83456,0 0,10.54329 -4.83456,0 c -4.50448,0 -8.13083,1.35325 -8.13083,-5.27164 0,-6.62489 3.62635,-5.27165 8.13083,-5.27165 z"
             id="path3234"
             sodipodi:nodetypes="cccczc" />
          <path
             id="path3262"
             d="m 183.28125,248.1875 c -0.79365,0.002 -1.713,0.20511 -2.78125,0.65625 -5.22251,2.20553 -2.95155,7.4089 -1,11.53125 2.55423,-2.86013 6.21113,-4.71183 10.34375,-4.875 -0.98691,-2.1352 -2.48734,-4.77676 -3.46875,-5.875 -0.78722,-0.88093 -1.771,-1.44007 -3.09375,-1.4375 z"
             style="fill:#ffffff;stroke:#000000;stroke-width:0.99999994;stroke-linecap:round;stroke-linejoin:round;stroke-miterlimit:4;stroke-opacity:1" />
          <path
             id="path3246"
             d="m 171.875,249.6875 c -1.13907,0.0691 -2.36726,0.87703 -3.84375,2.875 -3.93731,5.32793 -0.21639,6.38541 3.40625,9.0625 l 5.125,3.75 c 1.16343,-3.46549 3.60962,-6.3516 6.78125,-8.09375 l -5.625,-4.125 c -2.26414,-1.67319 -3.9453,-3.58397 -5.84375,-3.46875 z"
             style="fill:#ffffff;stroke:#000000;stroke-width:0.99999994;stroke-linecap:round;stroke-linejoin:round;stroke-miterlimit:4;stroke-opacity:1" />
          <path
             style="fill:#ffffff;stroke:#000000;stroke-width:0.99999994;stroke-linecap:round;stroke-linejoin:round;stroke-miterlimit:4;stroke-opacity:1"
             d="m 205.08513,279.74123 0,11.2486 c 4.80148,0 8.765,1.44378 8.765,-5.62429 0,-7.06807 -3.96352,-5.62431 -8.765,-5.62431 z"
             id="path3271"
             sodipodi:nodetypes="cczc" />
          <path
             sodipodi:nodetypes="cczc"
             id="path3273"
             d="m 205.08513,301.00494 0,11.2486 c 4.80148,0 8.765,1.44378 8.765,-5.62429 0,-7.06807 -3.96352,-5.62431 -8.765,-5.62431 z"
             style="fill:#ffffff;stroke:#000000;stroke-width:0.99999994;stroke-linecap:round;stroke-linejoin:round;stroke-miterlimit:4;stroke-opacity:1" />
          <path
             style="fill:#ffffff;stroke:#000000;stroke-width:0.99999994;stroke-linecap:round;stroke-linejoin:round;stroke-miterlimit:4;stroke-opacity:1"
             d="m 209.91956,290.8439 -4.83456,0 0,10.54329 4.83456,0 c 4.50448,0 8.13083,1.35325 8.13083,-5.27164 0,-6.62489 -3.62635,-5.27165 -8.13083,-5.27165 z"
             id="path3267"
             sodipodi:nodetypes="cccczc" />
          <path
             style="fill:#ffffff;stroke:#000000;stroke-width:0.99999994;stroke-linecap:round;stroke-linejoin:round;stroke-miterlimit:4;stroke-opacity:1"
             d="m 209.03113,260.78125 c 1.8868,0.11446 3.42788,1.144 4.25,4.125 1.74302,6.32013 -3.68981,7.28347 -8.1875,8.40625 l 0,-3.3125 c 0,-2.88119 -0.86223,-5.56017 -2.3125,-7.8125 2.1228,-0.70408 4.35452,-1.52123 6.25,-1.40625 z"
             id="path3287" />
          <path
             sodipodi:nodetypes="cccczc"
             id="path3269"
             d="m 209.91956,269.34387 -4.83456,0 0,10.54329 4.83456,0 c 4.50448,0 8.13083,1.35325 8.13083,-5.27164 0,-6.62489 -3.62635,-5.27165 -8.13083,-5.27165 z"
             style="fill:#ffffff;stroke:#000000;stroke-width:0.99999994;stroke-linecap:round;stroke-linejoin:round;stroke-miterlimit:4;stroke-opacity:1" />
          <path
             style="fill:#ffffff;stroke:#000000;stroke-width:0.99999994;stroke-linecap:round;stroke-linejoin:round;stroke-miterlimit:4;stroke-opacity:1"
             d="m 197.62488,248.1875 c 0.79365,0.002 1.713,0.20511 2.78125,0.65625 5.22251,2.20553 2.95155,7.4089 1,11.53125 -2.55423,-2.86013 -6.21113,-4.71183 -10.34375,-4.875 0.98691,-2.1352 2.48734,-4.77676 3.46875,-5.875 0.78722,-0.88093 1.771,-1.44007 3.09375,-1.4375 z"
             id="path3289" />
          <path
             style="fill:#ffffff;stroke:#000000;stroke-width:0.99999994;stroke-linecap:round;stroke-linejoin:round;stroke-miterlimit:4;stroke-opacity:1"
             d="m 209.03113,249.6875 c 1.13907,0.0691 2.36726,0.87703 3.84375,2.875 3.93731,5.32793 0.21639,6.38541 -3.40625,9.0625 l -5.125,3.75 c -1.16343,-3.46549 -3.60962,-6.3516 -6.78125,-8.09375 l 5.625,-4.125 c 2.26414,-1.67319 3.9453,-3.58397 5.84375,-3.46875 z"
             id="path3285" />
          <path
             id="path3257"
             d="m 190.4375,242.34375 c -6.62486,0.0218 -5.26484,3.62055 -5.25,8.125 l 0.0625,5.96875 c 1.61776,-0.60786 3.34963,-0.96875 5.1875,-0.96875 1.88311,0 3.6932,0.36331 5.34375,1 l -0.0312,-6 c -0.009,-2.81528 0.507,-5.29572 -0.71875,-6.75 -0.73542,-0.87259 -2.10943,-1.38318 -4.59375,-1.375 z"
             style="fill:#ffffff;stroke:#000000;stroke-width:0.99999994;stroke-linecap:round;stroke-linejoin:round;stroke-miterlimit:4;stroke-opacity:1" />
        </g>
      </g>
      <g
         transform="translate(-790.0645,0)"
         id="g3833">
        <path
           style="fill:#fcdd09;stroke:#000000;stroke-width:1px;stroke-linecap:round;stroke-linejoin:round;stroke-opacity:1"
           d="m 1334.4805,243.02664 c -1.4555,-21.03587 -23.86,-19.73154 -46.139,-22.89862 -0.3985,-0.0566 -1.8952,0.77453 -0.598,1.73307 7.7613,5.7351 17.0296,10.57241 21.7592,18.19971 0.8858,1.42848 1.5499,3.15725 5.0886,3.05314 6.6184,-0.19472 15.3094,-1.52112 19.1259,1.6937 l 0.7633,-1.781 z"
           id="path4158"
           sodipodi:nodetypes="csssscc" />
        <path
           style="fill:#fcdd09;stroke:#000000;stroke-width:1px;stroke-linecap:round;stroke-linejoin:round;stroke-opacity:1"
           d="m 1341.3501,206.64328 c -1.0273,-2.57097 -4.1423,-7.40101 -10.1772,-5.85186 -13.6824,3.51226 -16.5826,1.61717 -28.2416,4.32529 -5.6246,0.88251 -3.28,2.40853 0.7633,3.05315 11.8647,1.89158 21.9102,10.27537 28.2416,7.8873 2.8208,-1.06393 6.1612,-3.55714 9.6683,-6.61516 l -0.2544,-2.79872 z"
           id="path4160"
           sodipodi:nodetypes="cscsscc" />
        <path
           style="fill:#fcdd09;stroke:#000000;stroke-width:1px;stroke-linecap:round;stroke-linejoin:round;stroke-opacity:1"
           d="m 1339.8235,185.27124 c -4.2501,-14.52456 -25.9559,-4.65106 -41.9808,-2.03543 -4.0042,0.65358 -7.2953,2.78601 -0.2544,4.83415 15.9847,4.64984 31.4266,5.55149 42.9985,0.50886 l -0.7633,-3.30758 z"
           id="path4162"
           sodipodi:nodetypes="csscc" />
        <path
           sodipodi:nodetypes="csscc"
           id="path4164"
           d="m 1333.9716,160.84605 c -9.0842,-9.18155 -19.3407,-1.08905 -35.3656,1.52658 -4.0042,0.65358 -7.2953,2.78601 -0.2544,4.83415 15.9847,4.64984 30.6633,4.27934 35.8745,-3.56201 l -0.2545,-2.79872 z"
           style="fill:#fcdd09;stroke:#000000;stroke-width:1px;stroke-linecap:round;stroke-linejoin:round;stroke-opacity:1" />
        <path
           style="fill:#fcdd09;stroke:#000000;stroke-width:1px;stroke-linecap:round;stroke-linejoin:round;stroke-opacity:1"
           d="m 1324.3542,139.63397 c -10.1344,-8.00732 -19.3294,1.27363 -34.9167,5.82071 -3.8949,1.1362 -6.9019,3.65344 0.336,4.82917 16.4319,2.66924 30.9562,0.51449 35.174,-7.90296 l -0.5933,-2.74692 z"
           id="path4166"
           sodipodi:nodetypes="csscc" />
        <path
           sodipodi:nodetypes="csscc"
           id="path4168"
           d="m 1313.1411,119.76293 c -10.1344,-8.00732 -23.8038,-1.69221 -39.3911,2.85487 -3.8949,1.1362 -8.3411,2.21417 -1.1032,3.3899 16.4319,2.66924 36.8698,4.9196 41.0876,-3.49785 l -0.5933,-2.74692 z"
           style="fill:#fcdd09;stroke:#000000;stroke-width:1px;stroke-linecap:round;stroke-linejoin:round;stroke-opacity:1" />
        <path
           style="fill:#fcdd09;stroke:#000000;stroke-width:1px;stroke-linecap:round;stroke-linejoin:round;stroke-opacity:1"
           d="m 1374.54,221.82236 c 3.7482,-1.45638 5.2121,-4.37601 -1.9856,-2.97557 -16.3409,3.17932 -29.2233,10.22504 -30.2692,19.58181 10.9991,11.49773 17.4234,-10.84342 32.2548,-16.60624 z"
           id="path2885"
           sodipodi:nodetypes="cscs" />
        <path
           sodipodi:nodetypes="cscs"
           id="path2887"
           d="m 1375.1087,191.90239 c 4.4254,-2.03185 6.8892,-5.97229 -0.1245,-3.83311 -15.9232,4.85649 -28.0057,13.19994 -28.0758,22.61472 11.3687,8.13268 13.6225,-12.08839 28.2003,-18.78161 z"
           style="fill:#fcdd09;stroke:#000000;stroke-width:1px;stroke-linecap:round;stroke-linejoin:round;stroke-opacity:1" />
        <path
           style="fill:#fcdd09;stroke:#000000;stroke-width:1px;stroke-linecap:round;stroke-linejoin:round;stroke-opacity:1"
           d="m 1373.0808,162.94991 c 4.4254,-2.03185 5.0901,-6.33211 -1.9236,-4.19293 -15.9232,4.85649 -25.487,16.07848 -25.5571,25.49326 11.3687,8.13268 12.9029,-14.60711 27.4807,-21.30033 z"
           id="path2889"
           sodipodi:nodetypes="cscs" />
        <path
           sodipodi:nodetypes="cscs"
           id="path2891"
           d="m 1361.2182,129.95822 c 2.8445,-3.95233 2.1442,-8.59545 -3.0718,-3.44168 -12.3511,12.20368 -24.377,27.33524 -18.4365,32.75601 10.0195,1.55054 12.7823,-17.19017 21.5083,-29.31433 z"
           style="fill:#fcdd09;stroke:#000000;stroke-width:1px;stroke-linecap:round;stroke-linejoin:round;stroke-opacity:1" />
        <path
           style="fill:#fcdd09;stroke:#000000;stroke-width:1px;stroke-linecap:round;stroke-linejoin:round;stroke-opacity:1"
           d="m 1347.6255,106.13127 c 2.7654,-4.00809 1.4678,-8.736413 -3.3307,-3.1918 -11.3624,13.12918 -22.1724,29.15199 -15.8275,34.09328 10.1099,0.76492 9.6046,-17.05466 19.1582,-30.90148 z"
           id="path2893"
           sodipodi:nodetypes="cscs" />
        <path
           sodipodi:nodetypes="cscs"
           id="path2895"
           d="m 1326.3098,85.546983 c 0.1813,-4.866137 -0.7388,-8.378155 -3.4692,-1.572738 -6.4651,16.114635 -17.5822,30.467255 -5.296,35.590585 14.1253,-2.93034 8.2019,-18.89346 8.7652,-34.017847 z"
           style="fill:#fcdd09;stroke:#000000;stroke-width:1px;stroke-linecap:round;stroke-linejoin:round;stroke-opacity:1" />
        <path
           style="fill:#fcdd09;stroke:#000000;stroke-width:1px;stroke-linecap:round;stroke-linejoin:round;stroke-opacity:1"
           d="m 1310.3287,61.737323 c 0.1813,-4.866137 -0.7388,-8.378155 -3.4692,-1.572738 -6.4651,16.114635 -18.3018,34.065425 -6.0156,39.188755 11.6066,-5.808876 8.9215,-22.49163 9.4848,-37.616017 z"
           id="path2897"
           sodipodi:nodetypes="cscs" />
        <path
           sodipodi:nodetypes="cscs"
           id="path2899"
           d="m 1266.0303,52.759654 c -3.7481,-3.108811 -6.5399,-5.288491 -3.5412,1.403027 7.1009,15.844752 16.4688,39.347736 26.8898,35.148169 3.884,-12.384283 -11.0613,-26.35937 -23.3486,-36.551196 z"
           style="fill:#fcdd09;stroke:#000000;stroke-width:1px;stroke-linecap:round;stroke-linejoin:round;stroke-opacity:1" />
        <path
           style="fill:#fcdd09;stroke:#000000;stroke-width:1px;stroke-linecap:round;stroke-linejoin:round;stroke-opacity:1"
           d="m 1296.1425,98.42834 c -7.9755,-6.927869 -22.7243,-2.052025 -38.3116,2.49505 -3.8949,1.1362 -5.4626,2.57399 0.336,3.03008 14.0144,0.18164 36.8486,14.24576 37.9756,-5.52513 z"
           id="path2901"
           sodipodi:nodetypes="cscc" />
        <path
           style="fill:#fcdd09;stroke:#000000;stroke-width:1px;stroke-linecap:round;stroke-linejoin:round;stroke-opacity:1"
           d="m 1261.6502,50.233009 27.2875,38.864041"
           id="path2903"
           sodipodi:nodetypes="cc" />
        <path
           style="fill:#fcdd09;stroke:#000000;stroke-width:1px;stroke-linecap:round;stroke-linejoin:round;stroke-opacity:1"
           d="m 1254.7806,102.77261 c 13.9301,-0.80773 33.4574,0.43887 41.2811,-4.643328"
           id="path2905"
           sodipodi:nodetypes="cc" />
        <path
           style="fill:#fcdd09;stroke:#000000;stroke-width:1px;stroke-linecap:round;stroke-linejoin:round;stroke-opacity:1"
           d="m 1309.292,56.657343 c -2.9212,13.922924 -5.006,29.045624 -10.4316,41.090296"
           id="path2907"
           sodipodi:nodetypes="cc" />
        <path
           style="fill:#fcdd09;stroke:#000000;stroke-width:1px;stroke-linecap:round;stroke-linejoin:round;stroke-opacity:1"
           d="m 1325.4482,80.573676 c -2.3609,12.897978 -5.0585,28.744324 -8.6506,41.026684"
           id="path2909"
           sodipodi:nodetypes="cc" />
        <path
           style="fill:#fcdd09;stroke:#000000;stroke-width:1px;stroke-linecap:round;stroke-linejoin:round;stroke-opacity:1"
           d="m 1269.1559,124.65351 c 15.0145,-0.65959 32.5805,-0.7042 44.4614,-3.24397"
           id="path2911"
           sodipodi:nodetypes="cc" />
        <path
           style="fill:#fcdd09;stroke:#000000;stroke-width:1px;stroke-linecap:round;stroke-linejoin:round;stroke-opacity:1"
           d="m 1348.4741,100.54636 c -7.0827,11.49067 -15.6071,22.81176 -20.7996,36.19254"
           id="path2913"
           sodipodi:nodetypes="cc" />
        <path
           style="fill:#fcdd09;stroke:#000000;stroke-width:1px;stroke-linecap:round;stroke-linejoin:round;stroke-opacity:1"
           d="m 1285.6301,148.37902 c 13.2303,-1.8471 26.4606,-2.2533 39.6909,-7.8873"
           id="path2915"
           sodipodi:nodetypes="cc" />
        <path
           style="fill:#fcdd09;stroke:#000000;stroke-width:1px;stroke-linecap:round;stroke-linejoin:round;stroke-opacity:1"
           d="m 1362.3404,124.78073 c -7.3604,11.61468 -17.4411,22.93123 -23.9163,35.30204"
           id="path2917"
           sodipodi:nodetypes="cc" />
        <path
           style="fill:#fcdd09;stroke:#000000;stroke-width:1px;stroke-linecap:round;stroke-linejoin:round;stroke-opacity:1"
           d="m 1334.7349,162.11819 -40.1998,2.79872"
           id="path2919"
           sodipodi:nodetypes="cc" />
        <path
           style="fill:#fcdd09;stroke:#000000;stroke-width:1px;stroke-linecap:round;stroke-linejoin:round;stroke-opacity:1"
           d="m 1340.8412,188.06996 c -10.0412,-5.00242 -29.8748,-2.6056 -46.8786,-2.54429"
           id="path2921"
           sodipodi:nodetypes="cc" />
        <path
           style="fill:#fcdd09;stroke:#000000;stroke-width:1px;stroke-linecap:round;stroke-linejoin:round;stroke-opacity:1"
           d="m 1376.4613,159.06504 c -9.6297,4.75642 -20.4624,10.45797 -31.422,25.18848"
           id="path2923"
           sodipodi:nodetypes="cc" />
        <path
           style="fill:#fcdd09;stroke:#000000;stroke-width:1px;stroke-linecap:round;stroke-linejoin:round;stroke-opacity:1"
           d="m 1341.8589,208.67871 c -10.9005,-2.26744 -27.0412,-1.91473 -41.7263,-2.28986"
           id="path2925"
           sodipodi:nodetypes="cc" />
        <path
           style="fill:#fcdd09;stroke:#000000;stroke-width:1px;stroke-linecap:round;stroke-linejoin:round;stroke-opacity:1"
           d="m 1378.8783,188.13357 c -10.3468,5.57051 -21.902,10.02843 -32.2488,22.00811"
           id="path2927"
           sodipodi:nodetypes="cc" />
        <path
           style="fill:#fcdd09;stroke:#000000;stroke-width:1px;stroke-linecap:round;stroke-linejoin:round;stroke-opacity:1"
           d="m 1335.053,245.06207 c -9.8079,-12.33654 -29.4806,-18.43495 -47.1331,-24.23437"
           id="path2929"
           sodipodi:nodetypes="cc" />
        <path
           style="fill:#fcdd09;stroke:#000000;stroke-width:1px;stroke-linecap:round;stroke-linejoin:round;stroke-opacity:1"
           d="m 1377.2246,219.11031 c -11.3122,5.9421 -23.3869,8.18954 -35.302,18.95497"
           id="path2931"
           sodipodi:nodetypes="cc" />
        <path
           style="fill:#fcdd09;stroke:#000000;stroke-width:1px;stroke-linecap:round;stroke-linejoin:round;stroke-opacity:1"
           d="m 1312.854,285.26187 9.1594,2.54429 c 50.0593,-91.19767 14.729,-151.85975 -33.0757,-198.454677 67.6126,76.906027 64.9179,136.744067 23.9163,195.910387 z"
           id="path4156"
           sodipodi:nodetypes="cccc" />
      </g>
      <g
         transform="matrix(-1,0,0,1,1540.0645,0)"
         id="g3866">
        <path
           sodipodi:nodetypes="csssscc"
           id="path3868"
           d="m 1334.4805,243.02664 c -1.4555,-21.03587 -23.86,-19.73154 -46.139,-22.89862 -0.3985,-0.0566 -1.8952,0.77453 -0.598,1.73307 7.7613,5.7351 17.0296,10.57241 21.7592,18.19971 0.8858,1.42848 1.5499,3.15725 5.0886,3.05314 6.6184,-0.19472 15.3094,-1.52112 19.1259,1.6937 l 0.7633,-1.781 z"
           style="fill:#fcdd09;stroke:#000000;stroke-width:1px;stroke-linecap:round;stroke-linejoin:round;stroke-opacity:1" />
        <path
           sodipodi:nodetypes="cscsscc"
           id="path3870"
           d="m 1341.3501,206.64328 c -1.0273,-2.57097 -4.1423,-7.40101 -10.1772,-5.85186 -13.6824,3.51226 -16.5826,1.61717 -28.2416,4.32529 -5.6246,0.88251 -3.28,2.40853 0.7633,3.05315 11.8647,1.89158 21.9102,10.27537 28.2416,7.8873 2.8208,-1.06393 6.1612,-3.55714 9.6683,-6.61516 l -0.2544,-2.79872 z"
           style="fill:#fcdd09;stroke:#000000;stroke-width:1px;stroke-linecap:round;stroke-linejoin:round;stroke-opacity:1" />
        <path
           sodipodi:nodetypes="csscc"
           id="path3872"
           d="m 1339.8235,185.27124 c -4.2501,-14.52456 -25.9559,-4.65106 -41.9808,-2.03543 -4.0042,0.65358 -7.2953,2.78601 -0.2544,4.83415 15.9847,4.64984 31.4266,5.55149 42.9985,0.50886 l -0.7633,-3.30758 z"
           style="fill:#fcdd09;stroke:#000000;stroke-width:1px;stroke-linecap:round;stroke-linejoin:round;stroke-opacity:1" />
        <path
           style="fill:#fcdd09;stroke:#000000;stroke-width:1px;stroke-linecap:round;stroke-linejoin:round;stroke-opacity:1"
           d="m 1333.9716,160.84605 c -9.0842,-9.18155 -19.3407,-1.08905 -35.3656,1.52658 -4.0042,0.65358 -7.2953,2.78601 -0.2544,4.83415 15.9847,4.64984 30.6633,4.27934 35.8745,-3.56201 l -0.2545,-2.79872 z"
           id="path3874"
           sodipodi:nodetypes="csscc" />
        <path
           sodipodi:nodetypes="csscc"
           id="path3876"
           d="m 1324.3542,139.63397 c -10.1344,-8.00732 -19.3294,1.27363 -34.9167,5.82071 -3.8949,1.1362 -6.9019,3.65344 0.336,4.82917 16.4319,2.66924 30.9562,0.51449 35.174,-7.90296 l -0.5933,-2.74692 z"
           style="fill:#fcdd09;stroke:#000000;stroke-width:1px;stroke-linecap:round;stroke-linejoin:round;stroke-opacity:1" />
        <path
           style="fill:#fcdd09;stroke:#000000;stroke-width:1px;stroke-linecap:round;stroke-linejoin:round;stroke-opacity:1"
           d="m 1313.1411,119.76293 c -10.1344,-8.00732 -23.8038,-1.69221 -39.3911,2.85487 -3.8949,1.1362 -8.3411,2.21417 -1.1032,3.3899 16.4319,2.66924 36.8698,4.9196 41.0876,-3.49785 l -0.5933,-2.74692 z"
           id="path3878"
           sodipodi:nodetypes="csscc" />
        <path
           sodipodi:nodetypes="cscs"
           id="path3880"
           d="m 1374.54,221.82236 c 3.7482,-1.45638 5.2121,-4.37601 -1.9856,-2.97557 -16.3409,3.17932 -29.2233,10.22504 -30.2692,19.58181 10.9991,11.49773 17.4234,-10.84342 32.2548,-16.60624 z"
           style="fill:#fcdd09;stroke:#000000;stroke-width:1px;stroke-linecap:round;stroke-linejoin:round;stroke-opacity:1" />
        <path
           style="fill:#fcdd09;stroke:#000000;stroke-width:1px;stroke-linecap:round;stroke-linejoin:round;stroke-opacity:1"
           d="m 1375.1087,191.90239 c 4.4254,-2.03185 6.8892,-5.97229 -0.1245,-3.83311 -15.9232,4.85649 -28.0057,13.19994 -28.0758,22.61472 11.3687,8.13268 13.6225,-12.08839 28.2003,-18.78161 z"
           id="path3882"
           sodipodi:nodetypes="cscs" />
        <path
           sodipodi:nodetypes="cscs"
           id="path3884"
           d="m 1373.0808,162.94991 c 4.4254,-2.03185 5.0901,-6.33211 -1.9236,-4.19293 -15.9232,4.85649 -25.487,16.07848 -25.5571,25.49326 11.3687,8.13268 12.9029,-14.60711 27.4807,-21.30033 z"
           style="fill:#fcdd09;stroke:#000000;stroke-width:1px;stroke-linecap:round;stroke-linejoin:round;stroke-opacity:1" />
        <path
           style="fill:#fcdd09;stroke:#000000;stroke-width:1px;stroke-linecap:round;stroke-linejoin:round;stroke-opacity:1"
           d="m 1361.2182,129.95822 c 2.8445,-3.95233 2.1442,-8.59545 -3.0718,-3.44168 -12.3511,12.20368 -24.377,27.33524 -18.4365,32.75601 10.0195,1.55054 12.7823,-17.19017 21.5083,-29.31433 z"
           id="path3886"
           sodipodi:nodetypes="cscs" />
        <path
           sodipodi:nodetypes="cscs"
           id="path3888"
           d="m 1347.6255,106.13127 c 2.7654,-4.00809 1.4678,-8.736413 -3.3307,-3.1918 -11.3624,13.12918 -22.1724,29.15199 -15.8275,34.09328 10.1099,0.76492 9.6046,-17.05466 19.1582,-30.90148 z"
           style="fill:#fcdd09;stroke:#000000;stroke-width:1px;stroke-linecap:round;stroke-linejoin:round;stroke-opacity:1" />
        <path
           style="fill:#fcdd09;stroke:#000000;stroke-width:1px;stroke-linecap:round;stroke-linejoin:round;stroke-opacity:1"
           d="m 1326.3098,85.546983 c 0.1813,-4.866137 -0.7388,-8.378155 -3.4692,-1.572738 -6.4651,16.114635 -17.5822,30.467255 -5.296,35.590585 14.1253,-2.93034 8.2019,-18.89346 8.7652,-34.017847 z"
           id="path3890"
           sodipodi:nodetypes="cscs" />
        <path
           sodipodi:nodetypes="cscs"
           id="path3892"
           d="m 1310.3287,61.737323 c 0.1813,-4.866137 -0.7388,-8.378155 -3.4692,-1.572738 -6.4651,16.114635 -18.3018,34.065425 -6.0156,39.188755 11.6066,-5.808876 8.9215,-22.49163 9.4848,-37.616017 z"
           style="fill:#fcdd09;stroke:#000000;stroke-width:1px;stroke-linecap:round;stroke-linejoin:round;stroke-opacity:1" />
        <path
           style="fill:#fcdd09;stroke:#000000;stroke-width:1px;stroke-linecap:round;stroke-linejoin:round;stroke-opacity:1"
           d="m 1266.0303,52.759654 c -3.7481,-3.108811 -6.5399,-5.288491 -3.5412,1.403027 7.1009,15.844752 16.4688,39.347736 26.8898,35.148169 3.884,-12.384283 -11.0613,-26.35937 -23.3486,-36.551196 z"
           id="path3894"
           sodipodi:nodetypes="cscs" />
        <path
           sodipodi:nodetypes="cscc"
           id="path3896"
           d="m 1296.1425,98.42834 c -7.9755,-6.927869 -22.7243,-2.052025 -38.3116,2.49505 -3.8949,1.1362 -5.4626,2.57399 0.336,3.03008 14.0144,0.18164 36.8486,14.24576 37.9756,-5.52513 z"
           style="fill:#fcdd09;stroke:#000000;stroke-width:1px;stroke-linecap:round;stroke-linejoin:round;stroke-opacity:1" />
        <path
           sodipodi:nodetypes="cc"
           id="path3898"
           d="m 1261.6502,50.233009 27.2875,38.864041"
           style="fill:#fcdd09;stroke:#000000;stroke-width:1px;stroke-linecap:round;stroke-linejoin:round;stroke-opacity:1" />
        <path
           sodipodi:nodetypes="cc"
           id="path3900"
           d="m 1254.7806,102.77261 c 13.9301,-0.80773 33.4574,0.43887 41.2811,-4.643328"
           style="fill:#fcdd09;stroke:#000000;stroke-width:1px;stroke-linecap:round;stroke-linejoin:round;stroke-opacity:1" />
        <path
           sodipodi:nodetypes="cc"
           id="path3902"
           d="m 1309.292,56.657343 c -2.9212,13.922924 -5.006,29.045624 -10.4316,41.090296"
           style="fill:#fcdd09;stroke:#000000;stroke-width:1px;stroke-linecap:round;stroke-linejoin:round;stroke-opacity:1" />
        <path
           sodipodi:nodetypes="cc"
           id="path3904"
           d="m 1325.4482,80.573676 c -2.3609,12.897978 -5.0585,28.744324 -8.6506,41.026684"
           style="fill:#fcdd09;stroke:#000000;stroke-width:1px;stroke-linecap:round;stroke-linejoin:round;stroke-opacity:1" />
        <path
           sodipodi:nodetypes="cc"
           id="path3906"
           d="m 1269.1559,124.65351 c 15.0145,-0.65959 32.5805,-0.7042 44.4614,-3.24397"
           style="fill:#fcdd09;stroke:#000000;stroke-width:1px;stroke-linecap:round;stroke-linejoin:round;stroke-opacity:1" />
        <path
           sodipodi:nodetypes="cc"
           id="path3908"
           d="m 1348.4741,100.54636 c -7.0827,11.49067 -15.6071,22.81176 -20.7996,36.19254"
           style="fill:#fcdd09;stroke:#000000;stroke-width:1px;stroke-linecap:round;stroke-linejoin:round;stroke-opacity:1" />
        <path
           sodipodi:nodetypes="cc"
           id="path3910"
           d="m 1285.6301,148.37902 c 13.2303,-1.8471 26.4606,-2.2533 39.6909,-7.8873"
           style="fill:#fcdd09;stroke:#000000;stroke-width:1px;stroke-linecap:round;stroke-linejoin:round;stroke-opacity:1" />
        <path
           sodipodi:nodetypes="cc"
           id="path3912"
           d="m 1362.3404,124.78073 c -7.3604,11.61468 -17.4411,22.93123 -23.9163,35.30204"
           style="fill:#fcdd09;stroke:#000000;stroke-width:1px;stroke-linecap:round;stroke-linejoin:round;stroke-opacity:1" />
        <path
           sodipodi:nodetypes="cc"
           id="path3914"
           d="m 1334.7349,162.11819 -40.1998,2.79872"
           style="fill:#fcdd09;stroke:#000000;stroke-width:1px;stroke-linecap:round;stroke-linejoin:round;stroke-opacity:1" />
        <path
           sodipodi:nodetypes="cc"
           id="path3916"
           d="m 1340.8412,188.06996 c -10.0412,-5.00242 -29.8748,-2.6056 -46.8786,-2.54429"
           style="fill:#fcdd09;stroke:#000000;stroke-width:1px;stroke-linecap:round;stroke-linejoin:round;stroke-opacity:1" />
        <path
           sodipodi:nodetypes="cc"
           id="path3918"
           d="m 1376.4613,159.06504 c -9.6297,4.75642 -20.4624,10.45797 -31.422,25.18848"
           style="fill:#fcdd09;stroke:#000000;stroke-width:1px;stroke-linecap:round;stroke-linejoin:round;stroke-opacity:1" />
        <path
           sodipodi:nodetypes="cc"
           id="path3920"
           d="m 1341.8589,208.67871 c -10.9005,-2.26744 -27.0412,-1.91473 -41.7263,-2.28986"
           style="fill:#fcdd09;stroke:#000000;stroke-width:1px;stroke-linecap:round;stroke-linejoin:round;stroke-opacity:1" />
        <path
           sodipodi:nodetypes="cc"
           id="path3922"
           d="m 1378.8783,188.13357 c -10.3468,5.57051 -21.902,10.02843 -32.2488,22.00811"
           style="fill:#fcdd09;stroke:#000000;stroke-width:1px;stroke-linecap:round;stroke-linejoin:round;stroke-opacity:1" />
        <path
           sodipodi:nodetypes="cc"
           id="path3924"
           d="m 1335.053,245.06207 c -9.8079,-12.33654 -29.4806,-18.43495 -47.1331,-24.23437"
           style="fill:#fcdd09;stroke:#000000;stroke-width:1px;stroke-linecap:round;stroke-linejoin:round;stroke-opacity:1" />
        <path
           sodipodi:nodetypes="cc"
           id="path3926"
           d="m 1377.2246,219.11031 c -11.3122,5.9421 -23.3869,8.18954 -35.302,18.95497"
           style="fill:#fcdd09;stroke:#000000;stroke-width:1px;stroke-linecap:round;stroke-linejoin:round;stroke-opacity:1" />
        <path
           sodipodi:nodetypes="cccc"
           id="path3928"
           d="m 1312.854,285.26187 9.1594,2.54429 c 50.0593,-91.19767 14.729,-151.85975 -33.0757,-198.454677 67.6126,76.906027 64.9179,136.744067 23.9163,195.910387 z"
           style="fill:#fcdd09;stroke:#000000;stroke-width:1px;stroke-linecap:round;stroke-linejoin:round;stroke-opacity:1" />
      </g>
    </g>
  </g>
</svg>
