<?xml version="1.0" encoding="UTF-8" standalone="no"?>
<!-- Created with Inkscape (http://www.inkscape.org/) -->

<svg
   xmlns:dc="http://purl.org/dc/elements/1.1/"
   xmlns:cc="http://creativecommons.org/ns#"
   xmlns:rdf="http://www.w3.org/1999/02/22-rdf-syntax-ns#"
   xmlns:svg="http://www.w3.org/2000/svg"
   xmlns="http://www.w3.org/2000/svg"
   xmlns:sodipodi="http://sodipodi.sourceforge.net/DTD/sodipodi-0.dtd"
   xmlns:inkscape="http://www.inkscape.org/namespaces/inkscape"
   width="750"
   height="500"
   id="svg3184"
   sodipodi:version="0.32"
   inkscape:version="0.48.5 r10040"
   version="1.0"
   sodipodi:docname="Bandera de Turón (Granada).svg"
   inkscape:output_extension="org.inkscape.output.svg.inkscape">
  <defs
     id="defs3186" />
  <sodipodi:namedview
     id="base"
     pagecolor="#ffffff"
     bordercolor="#666666"
     borderopacity="1.0"
     gridtolerance="1"
     guidetolerance="1"
     objecttolerance="1"
     inkscape:pageopacity="0.0"
     inkscape:pageshadow="2"
     inkscape:zoom="1.714"
     inkscape:cx="375"
     inkscape:cy="250"
     inkscape:document-units="px"
     inkscape:current-layer="layer2"
     height="500px"
     width="818.18px"
     inkscape:window-width="1920"
     inkscape:window-height="1027"
     inkscape:window-x="-8"
     inkscape:window-y="-8"
     showgrid="false"
     inkscape:showpageshadow="false"
     inkscape:window-maximized="1">
    <inkscape:grid
       type="xygrid"
       id="grid7135"
       visible="true"
       enabled="true" />
  </sodipodi:namedview>
  <metadata
     id="metadata3189">
    <rdf:RDF>
      <cc:Work
         rdf:about="">
        <dc:format>image/svg+xml</dc:format>
        <dc:type
           rdf:resource="http://purl.org/dc/dcmitype/StillImage" />
      </cc:Work>
    </rdf:RDF>
  </metadata>
  <g
     inkscape:label="Bandera"
     inkscape:groupmode="layer"
     id="layer1"
     style="display:inline">
    <g
       id="g10173">
      <path
         id="rect3192"
         d="M 0,0 L 750,0 L 750,500 L 0,500 L 0,0 z"
         style="fill:#da121a;fill-opacity:1;stroke:none;stroke-opacity:1" />
      <path
         id="rect2383"
         d="M 1.5e-6,250 750,250 750,500 1.5e-6,500 l 0,-250 z"
         style="fill:#078930;fill-opacity:1;fill-rule:nonzero;stroke:none;stroke-width:1;stroke-linecap:butt;stroke-linejoin:miter;stroke-miterlimit:4;stroke-opacity:1"
         sodipodi:nodetypes="ccccc" />
      <path
         style="fill:#fcdd09;fill-opacity:1;fill-rule:nonzero;stroke:none;stroke-width:1;stroke-linecap:butt;stroke-linejoin:miter;stroke-miterlimit:4;stroke-opacity:1"
         d="M 1.5e-6,0 250,0 250,500 1.5e-6,500 l 0,-500 z"
         id="path2485"
         sodipodi:nodetypes="ccccc" />
    </g>
  </g>
  <g
     inkscape:groupmode="layer"
     id="layer2"
     inkscape:label="Escudo"
     style="display:inline">
    <g
       style="display:inline"
       id="g3805"
       transform="translate(312.87409,-49.278201)">
      <path
         sodipodi:nodetypes="cc"
         id="path4294"
         d="m -215.34107,240.78471 c 4.16799,-0.42095 12.95582,19.69606 11.67462,27.07671"
         style="fill:#000000;stroke:#fcdd09;stroke-width:1;stroke-linecap:round;stroke-linejoin:round;stroke-miterlimit:4;stroke-opacity:1;stroke-dasharray:none"
         inkscape:connector-curvature="0" />
      <path
         style="fill:#000000;stroke:#fcdd09;stroke-width:1;stroke-linecap:round;stroke-linejoin:round;stroke-miterlimit:4;stroke-opacity:1;stroke-dasharray:none"
         d="m -224.74933,259.76581 c 2.62249,-9.48107 6.78938,-18.71328 9.40826,-18.9811 2.02032,-0.20661 3.84809,4.60873 5.77841,12.87543 0.65364,2.79911 1.48037,11.80234 -2.0998,18.44827"
         id="path4296"
         sodipodi:nodetypes="cssc"
         inkscape:connector-curvature="0" />
      <path
         inkscape:connector-curvature="0"
         sodipodi:nodetypes="cccsccssssccc"
         id="path4033-1"
         d="m -261.02508,298.95715 c 3.8792,-5.74986 8.13018,-8.47221 11.66078,-11.06702 4.9272,-10.36631 7.64712,-20.56213 21.71134,-28.30102 21.92307,-17.89105 45.80766,-24.69502 69.60716,-13.02102 6.55638,3.21604 21.01858,15.53095 45.6718,8.91231 l -60.68307,102.2978 c -1.15456,-1.22952 -1.78562,-1.98773 -2.05304,-3.77206 -0.76783,-5.12149 7.92979,-17.86226 4.09143,-25.83825 -3.78889,-7.87325 -15.84874,-15.8645 -37.09689,-12.76676 l -26.66723,3.88766 c -4.39437,0.6407 -9.81485,1.94066 -12.44728,-1.18969 -6.79449,1.30659 -10.58359,-2.74934 -13.73599,-8.15652 z"
         style="fill:#000000;stroke:#fcdd09;stroke-width:1;stroke-linecap:round;stroke-linejoin:round;stroke-miterlimit:4;stroke-opacity:1;stroke-dasharray:none;display:inline" />
      <path
         inkscape:connector-curvature="0"
         sodipodi:nodetypes="cc"
         id="path4037-7"
         d="m -247.23008,318.0991 c 7.34569,-1.44025 17.94724,-7.93777 24.57927,-8.37226"
         style="fill:#000000;stroke:#fcdd09;stroke-width:1;stroke-linecap:round;stroke-linejoin:round;stroke-miterlimit:4;stroke-opacity:1;stroke-dasharray:none;display:inline" />
      <path
         inkscape:connector-curvature="0"
         style="fill:#000000;stroke:#fcdd09;stroke-width:1;stroke-linecap:round;stroke-linejoin:round;stroke-miterlimit:4;stroke-opacity:1;stroke-dasharray:none"
         d="m -190.52553,240.78471 c 4.16799,-0.42095 12.95582,19.69606 11.67463,27.07671"
         id="path4039-4"
         sodipodi:nodetypes="cc" />
      <path
         inkscape:connector-curvature="0"
         sodipodi:nodetypes="cssc"
         id="path4035-0"
         d="m -198.78204,254.84461 c 3.25075,-9.69049 5.63763,-13.79208 8.25651,-14.0599 2.02033,-0.20661 3.84809,4.60873 5.77841,12.87543 0.65364,2.79911 1.48038,11.80234 -2.0998,18.44827"
         style="fill:#000000;stroke:#fcdd09;stroke-width:1;stroke-linecap:round;stroke-linejoin:round;stroke-miterlimit:4;stroke-opacity:1;stroke-dasharray:none" />
      <path
         inkscape:connector-curvature="0"
         style="fill:#000000;stroke:#fcdd09;stroke-width:1;stroke-linecap:round;stroke-linejoin:round;stroke-miterlimit:4;stroke-opacity:1;stroke-dasharray:none"
         d="m -188.63033,266.46683 c 0.76211,-3.91525 -0.0692,-8.85391 -0.43188,-8.47612 -0.57789,0.60157 0.20992,3.08942 -0.4366,7.044 -0.27585,1.687 -0.012,5.95686 0.86848,1.43212 z"
         id="path4068-9"
         sodipodi:nodetypes="csss" />
      <path
         style="fill:#000000;stroke:#fcdd09;stroke-width:1;stroke-linecap:round;stroke-linejoin:round;stroke-miterlimit:4;stroke-opacity:1;stroke-dasharray:none;display:inline"
         d="m -261.02518,298.95715 c 1.87222,1.12948 6.03811,-0.13828 5.6284,3.74125 -4.20251,2.11235 -3.59422,4.27839 -5.56929,7.24418 -3.40909,-5.84738 -2.98765,-6.64462 -0.0592,-10.98543 z"
         id="path4292"
         sodipodi:nodetypes="cccc"
         inkscape:connector-curvature="0" />
      <path
         sodipodi:nodetypes="csc"
         id="path4317-1"
         d="m -222.07718,278.43987 c -2.81061,-3.75409 -12.37713,-2.58712 -9.14577,4.02979 3.36585,6.89228 9.56434,-1.25018 9.14577,-4.02979 z"
         style="fill:#000000;stroke:#fcdd09;stroke-width:1.00000024;stroke-linecap:round;stroke-linejoin:round;stroke-miterlimit:4;stroke-opacity:1;stroke-dasharray:none;display:inline"
         inkscape:connector-curvature="0" />
      <path
         id="path4319-7"
         d="m -226.38937,280.00898 c 0.68083,1.44964 0.24502,3.08689 -0.97355,3.65678 -1.21838,0.57009 -2.75824,-0.14322 -3.43888,-1.5925 -0.68084,-1.44946 -0.24521,-3.08652 0.97315,-3.6566 1.21838,-0.56989 2.75845,0.14322 3.43928,1.59232 z"
         style="fill:#000000;stroke:#fcdd09;stroke-width:1.00000012;stroke-linecap:round;stroke-linejoin:round;stroke-miterlimit:4;stroke-opacity:1;stroke-dasharray:none;display:inline"
         inkscape:connector-curvature="0"
         sodipodi:nodetypes="sssss" />
    </g>
  </g>
</svg>
