<?xml version="1.0" encoding="UTF-8" standalone="no"?>
<!-- Created with Inkscape (http://www.inkscape.org/) -->

<svg
   xmlns:dc="http://purl.org/dc/elements/1.1/"
   xmlns:cc="http://creativecommons.org/ns#"
   xmlns:rdf="http://www.w3.org/1999/02/22-rdf-syntax-ns#"
   xmlns:svg="http://www.w3.org/2000/svg"
   xmlns="http://www.w3.org/2000/svg"
   xmlns:sodipodi="http://sodipodi.sourceforge.net/DTD/sodipodi-0.dtd"
   xmlns:inkscape="http://www.inkscape.org/namespaces/inkscape"
   width="750"
   height="500"
   id="svg3184"
   sodipodi:version="0.32"
   inkscape:version="0.47 r22583"
   version="1.0"
   sodipodi:docname="Bandera de Vegas del Genil (Granada).svg"
   inkscape:output_extension="org.inkscape.output.svg.inkscape">
  <defs
     id="defs3186" />
  <sodipodi:namedview
     id="base"
     pagecolor="#ffffff"
     bordercolor="#666666"
     borderopacity="1.0"
     gridtolerance="1"
     guidetolerance="1"
     objecttolerance="1"
     inkscape:pageopacity="0.0"
     inkscape:pageshadow="2"
     inkscape:zoom="1.054"
     inkscape:cx="375"
     inkscape:cy="250"
     inkscape:document-units="px"
     inkscape:current-layer="layer2"
     height="500px"
     width="818.18px"
     inkscape:window-width="1366"
     inkscape:window-height="744"
     inkscape:window-x="-4"
     inkscape:window-y="-4"
     showgrid="false"
     inkscape:showpageshadow="false"
     inkscape:window-maximized="1"
     showguides="true"
     inkscape:guide-bbox="true">
    <inkscape:grid
       type="xygrid"
       id="grid7135"
       visible="true"
       enabled="true" />
  </sodipodi:namedview>
  <metadata
     id="metadata3189">
    <rdf:RDF>
      <cc:Work
         rdf:about="">
        <dc:format>image/svg+xml</dc:format>
        <dc:type
           rdf:resource="http://purl.org/dc/dcmitype/StillImage" />
        <dc:title />
      </cc:Work>
    </rdf:RDF>
  </metadata>
  <g
     inkscape:label="Bandera"
     inkscape:groupmode="layer"
     id="layer1"
     style="display:inline" />
  <g
     inkscape:groupmode="layer"
     id="layer2"
     inkscape:label="Escudo"
     style="display:inline">
    <g
       id="g4053">
      <path
         id="rect3192"
         d="M 0,0 750,0 750,500 0,500 0,0 z"
         style="display:inline;fill:#ffffff;fill-opacity:1;stroke:none" />
      <path
         sodipodi:nodetypes="ccccc"
         id="rect2383"
         d="M 1.5e-6,0 250,0 250,500 1.5e-6,500 l 0,-500 z"
         style="display:inline;fill:#3db0ff;fill-opacity:1;fill-rule:nonzero;stroke:none" />
      <path
         style="display:inline;fill:#3db0ff;fill-opacity:1;fill-rule:nonzero;stroke:none"
         d="m 500,0 250,0 0,500 -250,0 0,-500 z"
         id="path6561"
         sodipodi:nodetypes="ccccc" />
      <g
         transform="translate(972.67228,18.660265)"
         id="g3694">
        <path
           sodipodi:nodetypes="ccc"
           id="path17336"
           d="m -492.25816,277.68359 c -21.07383,15.34973 -23.9102,51.8944 -91.66989,29.38338 11.70753,-22.80693 35.08539,-37.63091 91.66989,-29.38338 z"
           style="fill:#078930;stroke:#000000;stroke-width:2;stroke-linecap:round;stroke-linejoin:round;stroke-miterlimit:4;stroke-opacity:1;stroke-dasharray:none" />
        <path
           id="path17398"
           d="m -584.47402,189.60662 c 4.32655,6.04743 9.22813,5.49202 12.37208,7.5047 17.0795,10.9339 -0.94348,14.83128 4.59704,22.1553 10.9597,14.48763 2.69867,21.76867 3.35323,25.2617 0.80691,4.30602 11.99925,17.19133 -2.59165,23.53701 -12.95407,5.63381 -17.98847,12.86429 -26.37931,27.12135 -2.67061,-11.96441 0.56745,-25.25527 -9.89213,-30.54651 -6.42336,-3.24942 -16.34711,-12.70272 -15.89786,-19.66976 0.69562,-10.78766 8.00483,-12.43391 8.54957,-19.59929 0.44956,-5.91332 -7.03739,-7.97824 -5.89572,-11.80254 2.35714,-7.89586 7.68308,-7.77872 12.21945,-10.54631 10.47828,-6.39269 14.40309,-4.80404 19.5653,-13.41565 z"
           style="fill:#000000;stroke:#000000;stroke-width:2;stroke-linecap:round;stroke-linejoin:round;stroke-miterlimit:4;stroke-opacity:1;stroke-dasharray:none" />
        <path
           style="fill:#078930;stroke:#000000;stroke-width:2;stroke-linecap:round;stroke-linejoin:round;stroke-miterlimit:4;stroke-opacity:1;stroke-dasharray:none"
           d="m -703.0864,284.92359 c 44.60383,-0.94027 32.0552,46.4644 90.76489,15.20504 -4.7692,-22.80692 -59.52039,-46.37924 -90.76489,-15.20504 z"
           id="path10757"
           sodipodi:nodetypes="ccc" />
        <path
           style="fill:#da121a;stroke:#000000;stroke-width:2;stroke-linecap:round;stroke-linejoin:round;stroke-miterlimit:4;stroke-opacity:1;stroke-dasharray:none"
           d="m -593.38232,232.04183 c -0.0427,3.66458 2.8645,6.66937 6.49345,6.71139 3.62891,0.042 6.60536,-2.89464 6.64804,-6.5592 0.0427,-3.66458 -2.86457,-6.66937 -6.49348,-6.71139 -3.62896,-0.042 -6.60532,2.89464 -6.64801,6.5592 z"
           id="path10735" />
        <path
           sodipodi:nodetypes="ccssssss"
           id="path17338"
           d="m -646.97639,293.37026 c 0.37325,1.73984 32.25407,5.21373 37.65836,11.60636 2.25812,8.04274 -10.82874,11.16736 -10.63565,13.32804 0.12485,1.39703 24.34299,-1.10936 31.60153,-5.32602 11.17013,-6.489 40.65063,-14.77673 40.88898,-15.86668 0.92829,-4.24483 -30.4586,10.22434 -47.74266,3.0384 -5.36485,-2.23046 -11.24057,-1.08048 -17.41774,-2.145 -17.18574,-2.96166 -34.6483,-6.01243 -34.35282,-4.6351 z"
           style="fill:#000000;stroke:#000000;stroke-width:2;stroke-linecap:round;stroke-linejoin:round;stroke-miterlimit:4;stroke-opacity:1;stroke-dasharray:none" />
        <path
           id="path10747"
           style="fill:#eb7711;fill-rule:evenodd;stroke:#000000;stroke-width:2;stroke-linecap:round;stroke-linejoin:round;stroke-miterlimit:4;stroke-opacity:1;stroke-dasharray:none"
           d="m -562.31716,162.65027 c -8.02674,9.76292 -1.21347,20.45972 9.3324,22.23212 4.97792,0.83662 13.55003,7.34068 22.33145,23.38605 4.63369,8.46664 6.12052,37.67463 -1.40984,50.77739 -6.77032,11.78031 -17.76337,17.11371 -30.21704,22.93931 -4.62668,2.16428 -23.21536,4.93642 -22.55678,22.42459 l -14.84307,0 c -0.96284,-7.90765 -3.43348,-16.35259 -10.21131,-18.90303 -6.88925,-2.59236 -14.86876,-6.41861 -18.17313,-8.10886 -6.69643,-3.42537 -16.7151,-6.56654 -20.47266,-21.94051 -3.01322,-12.32853 -4.55306,-23.9216 -2.79905,-36.49284 1.1116,-7.96698 10.82748,-21.42959 17.35868,-28.27008 14.69506,-15.39098 33.1759,-15.21316 20.29621,-27.51026 10.57299,-2.84661 16.81234,0.43558 20.62993,8.58767 -3.75696,-14.57112 4.22696,-14.09654 4.15285,-27.78563 1.30814,11.65876 11.55723,16.76572 13.19001,23.00576 1.78296,-2.19402 6.81218,-0.58655 13.39135,-4.34168 z m -22.15686,26.95635 c 4.32655,6.04743 7.3138,7.14116 10.6656,8.78456 17.0795,8.37418 0.763,13.55142 6.30352,20.87544 10.9597,14.48763 2.69867,21.76867 3.35323,25.2617 0.80691,4.30602 11.99925,17.19133 -2.59165,23.53701 -12.95407,5.63381 -17.98847,12.86429 -26.37931,27.12135 -2.67061,-11.96441 0.56745,-25.25527 -9.89213,-30.54651 -6.42336,-3.24942 -16.34711,-12.70272 -15.89786,-19.66976 0.69562,-10.78766 8.00483,-12.43391 8.54957,-19.59929 0.44956,-5.91332 -7.03739,-7.97824 -5.89572,-11.80254 2.35714,-7.89586 7.68308,-7.77872 12.21945,-10.54631 10.47828,-6.39269 14.40309,-4.80404 19.5653,-13.41565 z"
           sodipodi:nodetypes="cssssccsssssccccccsssscsssssc" />
        <path
           id="path17300"
           d="m -606.65566,231.13683 c -0.0427,3.66458 2.8645,6.66937 6.49345,6.71139 3.62891,0.042 6.60536,-2.89464 6.64804,-6.5592 0.0427,-3.66458 -2.86457,-6.66937 -6.49348,-6.71139 -3.62896,-0.042 -6.60532,2.89464 -6.64801,6.5592 z"
           style="fill:#da121a;stroke:#000000;stroke-width:2;stroke-linecap:round;stroke-linejoin:round;stroke-miterlimit:4;stroke-opacity:1;stroke-dasharray:none" />
        <path
           style="fill:#da121a;stroke:#000000;stroke-width:2;stroke-linecap:round;stroke-linejoin:round;stroke-miterlimit:4;stroke-opacity:1;stroke-dasharray:none"
           d="m -610.87899,216.35516 c -0.0427,3.66458 2.8645,6.66937 6.49345,6.71139 3.62891,0.042 6.60536,-2.89464 6.64804,-6.5592 0.0427,-3.66458 -2.86457,-6.66937 -6.49348,-6.71139 -3.62896,-0.042 -6.60532,2.89464 -6.64801,6.5592 z"
           id="path17302" />
        <path
           id="path17304"
           d="m -597.00232,217.56183 c -0.0427,3.66458 2.8645,6.66937 6.49345,6.71139 3.62891,0.042 6.60536,-2.89464 6.64804,-6.5592 0.0427,-3.66458 -2.86457,-6.66937 -6.49348,-6.71139 -3.62896,-0.042 -6.60532,2.89464 -6.64801,6.5592 z"
           style="fill:#da121a;stroke:#000000;stroke-width:2;stroke-linecap:round;stroke-linejoin:round;stroke-miterlimit:4;stroke-opacity:1;stroke-dasharray:none" />
        <path
           style="fill:#da121a;stroke:#000000;stroke-width:2;stroke-linecap:round;stroke-linejoin:round;stroke-miterlimit:4;stroke-opacity:1;stroke-dasharray:none"
           d="m -589.76232,204.59016 c -0.0427,3.66458 2.8645,6.66937 6.49345,6.71139 3.62891,0.042 6.60536,-2.89464 6.64804,-6.5592 0.0427,-3.66458 -2.86457,-6.66937 -6.49348,-6.71139 -3.62896,-0.042 -6.60532,2.89464 -6.64801,6.5592 z"
           id="path17306" />
        <path
           id="path17308"
           d="m -583.12565,218.7685 c -0.0427,3.66458 2.8645,6.66937 6.49345,6.71139 3.62891,0.042 6.60536,-2.89464 6.64804,-6.5592 0.0427,-3.66458 -2.86457,-6.66937 -6.49348,-6.71139 -3.62896,-0.042 -6.60532,2.89464 -6.64801,6.5592 z"
           style="fill:#da121a;stroke:#000000;stroke-width:2;stroke-linecap:round;stroke-linejoin:round;stroke-miterlimit:4;stroke-opacity:1;stroke-dasharray:none" />
        <path
           style="fill:#da121a;stroke:#000000;stroke-width:2;stroke-linecap:round;stroke-linejoin:round;stroke-miterlimit:4;stroke-opacity:1;stroke-dasharray:none"
           d="m -578.60065,231.74017 c -0.0427,3.66458 2.8645,6.66937 6.49345,6.71139 3.62891,0.042 6.60536,-2.89464 6.64804,-6.5592 0.0427,-3.66458 -2.86457,-6.66937 -6.49348,-6.71139 -3.62896,-0.042 -6.60532,2.89464 -6.64801,6.5592 z"
           id="path17310" />
        <path
           id="path17312"
           d="m -587.04732,245.31517 c -0.0427,3.66458 2.8645,6.66937 6.49345,6.71139 3.62891,0.042 6.60536,-2.89464 6.64804,-6.5592 0.0427,-3.66458 -2.86457,-6.66937 -6.49348,-6.71139 -3.62896,-0.042 -6.60532,2.89464 -6.64801,6.5592 z"
           style="fill:#da121a;stroke:#000000;stroke-width:2;stroke-linecap:round;stroke-linejoin:round;stroke-miterlimit:4;stroke-opacity:1;stroke-dasharray:none" />
        <path
           style="fill:#da121a;stroke:#000000;stroke-width:2;stroke-linecap:round;stroke-linejoin:round;stroke-miterlimit:4;stroke-opacity:1;stroke-dasharray:none"
           d="m -601.22566,245.61684 c -0.0427,3.66458 2.8645,6.66937 6.49345,6.71139 3.62891,0.042 6.60536,-2.89464 6.64804,-6.5592 0.0427,-3.66458 -2.86457,-6.66937 -6.49348,-6.71139 -3.62896,-0.042 -6.60532,2.89464 -6.64801,6.5592 z"
           id="path17314" />
        <path
           id="path17316"
           d="m -615.404,244.71184 c -0.0427,3.66458 2.8645,6.66937 6.49345,6.71139 3.62891,0.042 6.60536,-2.89464 6.64804,-6.5592 0.0427,-3.66458 -2.86457,-6.66937 -6.49348,-6.71139 -3.62896,-0.042 -6.60532,2.89464 -6.64801,6.5592 z"
           style="fill:#da121a;stroke:#000000;stroke-width:2;stroke-linecap:round;stroke-linejoin:round;stroke-miterlimit:4;stroke-opacity:1;stroke-dasharray:none" />
        <path
           style="fill:#da121a;stroke:#000000;stroke-width:2;stroke-linecap:round;stroke-linejoin:round;stroke-miterlimit:4;stroke-opacity:1;stroke-dasharray:none"
           d="m -605.14733,259.79518 c -0.0427,3.66458 2.8645,6.66937 6.49345,6.71139 3.62891,0.042 6.60536,-2.89464 6.64804,-6.5592 0.0427,-3.66458 -2.86457,-6.66937 -6.49348,-6.71139 -3.62896,-0.042 -6.60532,2.89464 -6.64801,6.5592 z"
           id="path17318" />
        <path
           style="fill:#da121a;stroke:#000000;stroke-width:2;stroke-linecap:round;stroke-linejoin:round;stroke-miterlimit:4;stroke-opacity:1;stroke-dasharray:none"
           d="m -578.299,258.58852 c -0.0427,3.66458 2.8645,6.66937 6.49345,6.71139 3.62891,0.042 6.60536,-2.89464 6.64804,-6.5592 0.0427,-3.66458 -2.86457,-6.66937 -6.49348,-6.71139 -3.62896,-0.042 -6.60532,2.89464 -6.64801,6.5592 z"
           id="path17322" />
        <path
           style="fill:#da121a;stroke:#000000;stroke-width:2;stroke-linecap:round;stroke-linejoin:round;stroke-miterlimit:4;stroke-opacity:1;stroke-dasharray:none"
           d="m -588.254,269.44853 c -0.0427,3.66458 2.8645,6.66937 6.49345,6.71139 3.62891,0.042 6.60536,-2.89464 6.64804,-6.5592 0.0427,-3.66458 -2.86457,-6.66937 -6.49348,-6.71139 -3.62896,-0.042 -6.60532,2.89464 -6.64801,6.5592 z"
           id="path17326" />
        <path
           id="path17320"
           d="m -592.47733,258.89018 c -0.0427,3.66458 2.8645,6.66937 6.49345,6.71139 3.62891,0.042 6.60536,-2.89464 6.64804,-6.5592 0.0427,-3.66458 -2.86457,-6.66937 -6.49348,-6.71139 -3.62896,-0.042 -6.60532,2.89464 -6.64801,6.5592 z"
           style="fill:#da121a;stroke:#000000;stroke-width:2;stroke-linecap:round;stroke-linejoin:round;stroke-miterlimit:4;stroke-opacity:1;stroke-dasharray:none" />
        <path
           id="path17324"
           d="m -595.494,272.46519 c -0.0427,3.66458 2.8645,6.66937 6.49345,6.71139 3.62891,0.042 6.60536,-2.89464 6.64804,-6.5592 0.0427,-3.66458 -2.86457,-6.66937 -6.49348,-6.71139 -3.62896,-0.042 -6.60532,2.89464 -6.64801,6.5592 z"
           style="fill:#da121a;stroke:#000000;stroke-width:2;stroke-linecap:round;stroke-linejoin:round;stroke-miterlimit:4;stroke-opacity:1;stroke-dasharray:none" />
        <path
           style="fill:#000000;stroke:#000000;stroke-width:2;stroke-linecap:round;stroke-linejoin:round;stroke-miterlimit:4;stroke-opacity:1;stroke-dasharray:none"
           d="m -641.54638,250.53358 c 6.78819,32.97473 34.75246,23.86124 40.89937,35.79441 1.69101,-12.65645 -30.2697,-3.02795 -40.89937,-35.79441 z"
           id="path17340"
           sodipodi:nodetypes="ccc" />
        <path
           sodipodi:nodetypes="ccc"
           id="path17342"
           d="m -536.62174,250.53358 c -9.50319,23.01973 -22.08246,19.03457 -36.9777,30.36441 24.25233,-22.61145 27.46006,-16.8743 36.9777,-30.36441 z"
           style="fill:#000000;stroke:#000000;stroke-width:2;stroke-linecap:round;stroke-linejoin:round;stroke-miterlimit:4;stroke-opacity:1;stroke-dasharray:none" />
        <path
           style="fill:#000000;stroke:#000000;stroke-width:2;stroke-linecap:round;stroke-linejoin:round;stroke-miterlimit:4;stroke-opacity:1;stroke-dasharray:none"
           d="m -575.62243,167.05758 c 3.01599,4.76889 -12.64511,19.70306 -13.96535,18.51373 0.42065,-4.20978 12.74356,-11.81112 13.96535,-18.51373 z"
           id="path17344"
           sodipodi:nodetypes="ccc" />
        <path
           sodipodi:nodetypes="ccc"
           id="path17346"
           d="m -602.28736,170.12711 c 0.87844,2.45908 -1.00028,6.76949 -3.0854,7.97833 -1.41079,-1.60902 1.04696,-6.87171 3.0854,-7.97833 z"
           style="fill:#000000;stroke:#000000;stroke-width:2;stroke-linecap:round;stroke-linejoin:round;stroke-miterlimit:4;stroke-opacity:1;stroke-dasharray:none" />
      </g>
      <g
         style="fill:#ffffff"
         id="g4037">
        <path
           sodipodi:nodetypes="ccscsccscsccc"
           d="m 250,111.21941 c -25.2679,-15.932797 -50.0001,0 -50.0001,0 0,0 -24.8506,15.8582 -50,0 -25.2676,-15.932797 -49.9999,0 -49.9999,0 0,0 -24.850599,15.8582 -49.999999,0 -25.2677,-15.932797 -49.9999997,0 -49.9999997,0 l 0,-55.738997 c 0,0 24.7322997,-15.932801 49.9999997,0 25.1494,15.8582 49.999999,0 49.999999,0 0,0 24.7323,-15.932801 49.9999,0 25.1494,15.8582 50,0 50,0 0,0 24.7322,-15.932801 50.0001,0 l 0,55.738997 z"
           style="fill:#ffffff;stroke:none;display:inline"
           id="path24871" />
        <path
           id="path4033"
           style="fill:#ffffff;stroke:none;display:inline"
           d="m 250,277.88608 c -25.2679,-15.9328 -50.0001,0 -50.0001,0 0,0 -24.8506,15.8582 -50,0 -25.2676,-15.9328 -49.9999,0 -49.9999,0 0,0 -24.850599,15.8582 -49.999999,0 -25.2677,-15.9328 -49.9999997,0 -49.9999997,0 l 0,-55.739 c 0,0 24.7322997,-15.9328 49.9999997,0 25.1494,15.8582 49.999999,0 49.999999,0 0,0 24.7323,-15.9328 49.9999,0 25.1494,15.8582 50,0 50,0 0,0 24.7322,-15.9328 50.0001,0 l 0,55.739 z"
           sodipodi:nodetypes="ccscsccscsccc" />
        <path
           sodipodi:nodetypes="ccscsccscsccc"
           d="m 250,444.55275 c -25.2679,-15.9328 -50.0001,0 -50.0001,0 0,0 -24.8506,15.8582 -50,0 -25.2676,-15.9328 -49.9999,0 -49.9999,0 0,0 -24.850599,15.8582 -49.999999,0 -25.2677,-15.9328 -49.9999997,0 -49.9999997,0 l 0,-55.739 c 0,0 24.7322997,-15.9328 49.9999997,0 25.1494,15.8582 49.999999,0 49.999999,0 0,0 24.7323,-15.9328 49.9999,0 25.1494,15.8582 50,0 50,0 0,0 24.7322,-15.9328 50.0001,0 l 0,55.739 z"
           style="fill:#ffffff;stroke:none;display:inline"
           id="path4035" />
      </g>
      <g
         style="fill:#ffffff"
         transform="translate(500,0)"
         id="g4042">
        <path
           id="path4044"
           style="fill:#ffffff;stroke:none;display:inline"
           d="m 250,111.21941 c -25.2679,-15.932797 -50.0001,0 -50.0001,0 0,0 -24.8506,15.8582 -50,0 -25.2676,-15.932797 -49.9999,0 -49.9999,0 0,0 -24.850599,15.8582 -49.999999,0 -25.2677,-15.932797 -49.9999997,0 -49.9999997,0 l 0,-55.738997 c 0,0 24.7322997,-15.932801 49.9999997,0 25.1494,15.8582 49.999999,0 49.999999,0 0,0 24.7323,-15.932801 49.9999,0 25.1494,15.8582 50,0 50,0 0,0 24.7322,-15.932801 50.0001,0 l 0,55.738997 z"
           sodipodi:nodetypes="ccscsccscsccc" />
        <path
           sodipodi:nodetypes="ccscsccscsccc"
           d="m 250,277.88608 c -25.2679,-15.9328 -50.0001,0 -50.0001,0 0,0 -24.8506,15.8582 -50,0 -25.2676,-15.9328 -49.9999,0 -49.9999,0 0,0 -24.850599,15.8582 -49.999999,0 -25.2677,-15.9328 -49.9999997,0 -49.9999997,0 l 0,-55.739 c 0,0 24.7322997,-15.9328 49.9999997,0 25.1494,15.8582 49.999999,0 49.999999,0 0,0 24.7323,-15.9328 49.9999,0 25.1494,15.8582 50,0 50,0 0,0 24.7322,-15.9328 50.0001,0 l 0,55.739 z"
           style="fill:#ffffff;stroke:none;display:inline"
           id="path4046" />
        <path
           id="path4048"
           style="fill:#ffffff;stroke:none;display:inline"
           d="m 250,444.55275 c -25.2679,-15.9328 -50.0001,0 -50.0001,0 0,0 -24.8506,15.8582 -50,0 -25.2676,-15.9328 -49.9999,0 -49.9999,0 0,0 -24.850599,15.8582 -49.999999,0 -25.2677,-15.9328 -49.9999997,0 -49.9999997,0 l 0,-55.739 c 0,0 24.7322997,-15.9328 49.9999997,0 25.1494,15.8582 49.999999,0 49.999999,0 0,0 24.7323,-15.9328 49.9999,0 25.1494,15.8582 50,0 50,0 0,0 24.7322,-15.9328 50.0001,0 l 0,55.739 z"
           sodipodi:nodetypes="ccscsccscsccc" />
      </g>
    </g>
  </g>
</svg>
