<?xml version="1.0" encoding="UTF-8" standalone="no"?>
<!-- Created with Inkscape (http://www.inkscape.org/) -->

<svg
   xmlns:dc="http://purl.org/dc/elements/1.1/"
   xmlns:cc="http://creativecommons.org/ns#"
   xmlns:rdf="http://www.w3.org/1999/02/22-rdf-syntax-ns#"
   xmlns:svg="http://www.w3.org/2000/svg"
   xmlns="http://www.w3.org/2000/svg"
   xmlns:sodipodi="http://sodipodi.sourceforge.net/DTD/sodipodi-0.dtd"
   xmlns:inkscape="http://www.inkscape.org/namespaces/inkscape"
   width="750"
   height="500"
   id="svg3184"
   sodipodi:version="0.32"
   inkscape:version="0.48.1 "
   version="1.0"
   sodipodi:docname="Proyecto bandera 2x3.svg"
   inkscape:output_extension="org.inkscape.output.svg.inkscape">
  <defs
     id="defs3186" />
  <sodipodi:namedview
     id="base"
     pagecolor="#ffffff"
     bordercolor="#666666"
     borderopacity="1.0"
     gridtolerance="1"
     guidetolerance="1"
     objecttolerance="1"
     inkscape:pageopacity="0.0"
     inkscape:pageshadow="2"
     inkscape:zoom="1.15"
     inkscape:cx="375"
     inkscape:cy="250"
     inkscape:document-units="px"
     inkscape:current-layer="layer2"
     height="500px"
     width="818.18px"
     inkscape:window-width="1366"
     inkscape:window-height="748"
     inkscape:window-x="-4"
     inkscape:window-y="-4"
     showgrid="false"
     inkscape:showpageshadow="false"
     inkscape:window-maximized="1">
    <inkscape:grid
       type="xygrid"
       id="grid7135"
       visible="true"
       enabled="true"
       empspacing="5"
       snapvisiblegridlinesonly="true" />
  </sodipodi:namedview>
  <metadata
     id="metadata3189">
    <rdf:RDF>
      <cc:Work
         rdf:about="">
        <dc:format>image/svg+xml</dc:format>
        <dc:type
           rdf:resource="http://purl.org/dc/dcmitype/StillImage" />
        <dc:title></dc:title>
      </cc:Work>
    </rdf:RDF>
  </metadata>
  <g
     inkscape:label="Bandera"
     inkscape:groupmode="layer"
     id="layer1"
     style="display:inline">
    <g
       id="g3321">
      <path
         sodipodi:nodetypes="ccccc"
         inkscape:connector-curvature="0"
         id="path3230"
         d="m 0.50002575,0.5 748.99995425,0 0,499 -748.99995425,0 z"
         style="fill:#ffffff;fill-opacity:1;fill-rule:nonzero;stroke:#000000;stroke-width:1;stroke-opacity:1" />
      <path
         sodipodi:nodetypes="ccccc"
         id="rect2383"
         d="M 1.5e-6,437.5 750,437.5 750,500 1.5e-6,500 z"
         style="fill:#0f47af;fill-opacity:1;fill-rule:nonzero;stroke:none"
         inkscape:connector-curvature="0" />
      <path
         sodipodi:nodetypes="ccccc"
         style="fill:#078930;fill-opacity:1;fill-rule:nonzero;stroke:none"
         d="M 1.5e-6,125 750,125 750,375 1.5e-6,375 z"
         id="path2485"
         inkscape:connector-curvature="0" />
      <path
         inkscape:connector-curvature="0"
         style="fill:#0f47af;fill-opacity:1;fill-rule:nonzero;stroke:none"
         d="M 1.5e-6,0 750,0 750,62.5 1.5e-6,62.5 z"
         id="path3264"
         sodipodi:nodetypes="ccccc" />
    </g>
  </g>
  <g
     inkscape:groupmode="layer"
     id="layer2"
     inkscape:label="Escudo"
     style="display:inline">
    <g
       transform="matrix(0.93880534,0,0,0.93880534,516.13174,18.187608)"
       style="display:inline;stroke:none"
       id="g3287">
      <path
         inkscape:connector-curvature="0"
         style="fill:#ffffff;stroke:none"
         d="m -323.20477,167.25273 c 0,30.88164 -23.96519,19.31355 -26.04027,78.43335 -1.12771,0 -1.53893,0.135 -2.63011,0 -4.90399,-32.57723 -19.05434,-56.68902 -22.98538,-68.14732 -1.11309,-3.24447 -2.04092,-6.64224 -2.04092,-10.28603 0,-14.82792 12.02042,-26.84834 26.84834,-26.84834 14.82792,0 26.84834,12.02042 26.84834,26.84834 z"
         id="path3289"
         sodipodi:nodetypes="cccssss" />
      <path
         inkscape:connector-curvature="0"
         sodipodi:nodetypes="cccssss"
         id="path3291"
         d="m -376.90145,326.59276 c 0,-30.88164 23.96519,-19.31355 26.04027,-78.43335 1.12771,0 1.53893,-0.135 2.63011,0 4.90399,32.57723 19.05434,56.68902 22.98538,68.14732 1.11309,3.24447 2.04092,6.64224 2.04092,10.28603 0,14.82792 -12.02042,26.84834 -26.84834,26.84834 -14.82792,0 -26.84834,-12.02042 -26.84834,-26.84834 z"
         style="fill:#ffffff;stroke:none" />
      <path
         inkscape:connector-curvature="0"
         sodipodi:nodetypes="cccssss"
         id="path3293"
         d="m -270.3831,273.77109 c -30.88164,0 -19.31355,-23.96519 -78.43335,-26.04027 0,-1.12771 -0.135,-1.53893 0,-2.63011 32.57723,-4.90399 56.68902,-19.05434 68.14732,-22.98538 3.24447,-1.11309 6.64224,-2.04092 10.28603,-2.04092 14.82792,0 26.84834,12.02042 26.84834,26.84834 0,14.82792 -12.02042,26.84834 -26.84834,26.84834 z"
         style="fill:#ffffff;stroke:none" />
      <path
         inkscape:connector-curvature="0"
         style="fill:#ffffff;stroke:none"
         d="m -429.72313,220.07441 c 30.88164,0 19.31355,23.96519 78.43335,26.04027 0,1.12771 0.135,1.53893 0,2.63011 -32.57723,4.90399 -56.68902,19.05434 -68.14732,22.98538 -3.24447,1.11309 -6.64224,2.04092 -10.28603,2.04092 -14.82792,0 -26.84834,-12.02042 -26.84834,-26.84834 0,-14.82792 12.02042,-26.84834 26.84834,-26.84834 z"
         id="path3295"
         sodipodi:nodetypes="cccssss" />
      <path
         inkscape:connector-curvature="0"
         sodipodi:nodetypes="cccssss"
         id="path3297"
         d="m -387.40367,171.60289 c 21.83661,21.83662 -3.28921,30.60269 37.0475,73.87401 -0.79741,0.79741 -0.99273,1.18365 -1.85977,1.85977 -26.50322,-19.56794 -53.55864,-26.61174 -64.44055,-31.93432 -3.08126,-1.50711 -6.13992,-3.25362 -8.71647,-5.83017 -10.48492,-10.48492 -10.48492,-27.48436 0,-37.96929 10.48492,-10.48492 27.48437,-10.48492 37.96929,0 z"
         style="fill:#ffffff;stroke:none" />
      <path
         inkscape:connector-curvature="0"
         style="fill:#ffffff;stroke:none"
         d="m -312.70254,322.2426 c -21.83662,-21.83662 3.2892,-30.6027 -37.04751,-73.87401 0.79742,-0.79741 0.99273,-1.18365 1.85977,-1.85977 26.50323,19.56794 53.55865,26.61174 64.44055,31.93432 3.08126,1.50711 6.13992,3.25362 8.71647,5.83017 10.48493,10.48492 10.48493,27.48436 0,37.96929 -10.48492,10.48492 -27.48436,10.48492 -37.96928,0 z"
         id="path3299"
         sodipodi:nodetypes="cccssss" />
      <path
         inkscape:connector-curvature="0"
         style="fill:#ffffff;stroke:none"
         d="m -274.73326,209.57219 c -21.83661,21.83661 -30.60269,-3.28921 -73.874,37.0475 -0.79741,-0.79741 -1.18365,-0.99273 -1.85977,-1.85977 19.56794,-26.50322 26.61174,-53.55864 31.93431,-64.44055 1.50712,-3.08126 3.25363,-6.13992 5.83018,-8.71647 10.48492,-10.48492 27.48436,-10.48492 37.96928,0 10.48493,10.48492 10.48493,27.48437 0,37.96929 z"
         id="path3301"
         sodipodi:nodetypes="cccssss" />
      <path
         inkscape:connector-curvature="0"
         sodipodi:nodetypes="cccssss"
         id="path3303"
         d="m -425.37296,284.27332 c 21.83662,-21.83662 30.60269,3.2892 73.87401,-37.04751 0.79741,0.79742 1.18364,0.99273 1.85976,1.85977 -19.56793,26.50323 -26.61173,53.55865 -31.93431,64.44055 -1.50711,3.08126 -3.25362,6.13992 -5.83017,8.71647 -10.48492,10.48493 -27.48437,10.48493 -37.96929,0 -10.48492,-10.48492 -10.48492,-27.48436 0,-37.96928 z"
         style="fill:#ffffff;stroke:none" />
      <path
         inkscape:connector-curvature="0"
         style="fill:#ffffff;fill-opacity:1;fill-rule:evenodd;stroke:none"
         d="m -343.86711,246.92274 c 0,3.41644 -2.76957,6.18601 -6.18601,6.18601 -3.41644,0 -6.18601,-2.76957 -6.18601,-6.18601 0,-3.41644 2.76957,-6.18601 6.18601,-6.18601 3.41644,0 6.18601,2.76957 6.18601,6.18601 z"
         id="path3305" />
    </g>
  </g>
</svg>
