<!-- Created with Inkscape (http://www.inkscape.org/) -->
<svg xmlns:rdf="http://www.w3.org/1999/02/22-rdf-syntax-ns#" xmlns="http://www.w3.org/2000/svg" height="100%" width="100%" version="1.0" xmlns:cc="http://creativecommons.org/ns#" xmlns:dc="http://purl.org/dc/elements/1.1/" viewBox="0 0 710 884">
<metadata>
<rdf:RDF>
<cc:Work rdf:about="">
<dc:format>image/svg+xml</dc:format>
<dc:type rdf:resource="http://purl.org/dc/dcmitype/StillImage"/>
<dc:title/>
</cc:Work>
</rdf:RDF>
</metadata>
<g stroke-linejoin="round" stroke-linecap="round" stroke="#000">
<g stroke-dasharray="none" stroke-width="1" stroke-miterlimit="4">
<path fill="#eac102" d="m651.375,112.182c-12.069,20.4904-32.7708,44.1797-52.9897,58.8793l-16.7169-8.0152c31.4548-12.2765,51.3437-31.3573,69.7066-50.8641z"/>
<path fill="#eac102" d="m58.615,112.182c12.0704,20.4904,32.7714,44.1797,52.9908,58.8793l16.7171-8.0152c-31.4541-12.275-51.3437-31.355-69.7078-50.863z"/>
<path style="direction:ltr;enable-background:accumulate;baseline-shift:baseline;block-progression:tb;text-indent:0;color:#000000;text-transform:none;text-align:start;" fill="#eac102" d="m361.653,71.7802c-0.04,3.1832,0,14.7436,0,22.1152,0,36.2374,63.5326,52.5816,73.5165,0.2498,0.583-3.0543,3.559-5.0184,6.641-4.6426,3.0809,0.376,5.4329,3.1401,5.2939,6.2463-2.211,49.0979,56.7077,42.2264,65.6346,2.4093l5.223-23.297c0.753-3.3588,4.65-5.6073,8.0029-4.8536,3.353,0.7536,5.892,4.4491,5.137,7.8079l-5.221,23.2971c-8.7869,39.1885,27.6409,52.8821,62.8837,4.5356,1.9219-2.6349,5.8469-3.5761,8.6039-1.8402,2.759,1.7358,3.255,5.6509,1.882,8.6097-27.4498,59.1594,12.1259,28.2748,43.1777-9.3216,2.297-2.7818,6.852-3.4198,9.644-1.1395,2.7959,2.2803,3.0519,6.8446,0.8,9.6649-57.9597,72.6468-79.1256,46.5865-75.6466,25.6183-24.4068,19.7436-54.4356,17.996-63.7696-11.4375-21.6958,24.5273-60.9366,25.3748-75.1615-4.9379-23.4669,31.2169-66.7049,22.7231-83.2969-3.5031-16.5933,26.2262-59.8308,34.72-83.2969,3.5031-14.2242,30.3127-53.4652,29.4652-75.1607,4.9379-9.3352,29.4335-39.363,31.1811-63.7705,11.4375,3.4782,20.9682-17.6876,47.0285-75.6484-25.6183-2.25009-2.8203-1.99379-7.3846,0.80029-9.6649,2.79399-2.2803,7.34826-1.6423,9.64564,1.1395,31.0515,37.5964,70.6276,68.481,43.1777,9.3216-1.3729-2.9588-0.8763-6.8739,1.8811-8.6097,2.7575-1.7359,6.6828-0.7947,8.6039,1.8402,35.2434,48.3465,71.6703,34.6529,62.8847-4.5356l-5.2229-23.2971c-0.7531-3.3588,1.7863-7.0543,5.1388-7.8079,3.3523-0.7537,7.2496,1.4948,8.0027,4.8536l5.2231,23.297c8.9265,39.8171,67.8466,46.6886,65.6359-2.4093-0.1398-3.1062,2.2121-5.8703,5.2928-6.2463,3.0806-0.3758,6.0579,1.5883,6.6406,4.6426,9.9839,52.3318,73.5169,35.9876,73.5169-0.2498,0-7.3716,0.04-18.932,0-22.1152-0.04-3.5358,3.1266-6.8372,6.6553-6.8372,3.5288,0,6.6985,3.3014,6.6554,6.8372z"/>
<path fill="#eac102" d="M45.7351,92.3342c-9.2573-13.1854-16.9342-21.698-45.2351-24.1437,9.6823-14.6187,29.8466-18.8501,42.9619-5.5099,1.2407-3.6512,2.00569-4.8404,5.47347-8.2131,3.09208,9.5206,16.8621,16.7123,11.399,33.76l-5.36857,16.7522z"/>
<path fill="#eac102" d="m98.8728,88.1042c-2.10529,7.7912-5.48167,14.9617-11.642,18.2018,3.28768,2.616,4.77687,6.4742,5.96197,11.396,0,0-14.1471-1.1425-20.3068,0.27-7.03376,1.6132-12.4184-1.4222-13.5733-2.5609l-6.63846-13.1544c5.10596-9.1454,6.11106-14.1685,9.93683-19.1466,3.81968-4.9706,10.0665-9.3365,14.6031-13.2396,1.99089,4.5855,3.12858,8.5907,2.17909,12.9741,6.55356-2.0631,13.3205,0.916,19.4796,5.2599z"/>
<path fill="none" d="M51.1871,99.8432c-0.8248-6.9713,1.5656-13.2605,1.1394-18.8571-0.78-10.2406-4.1213-13.6137-3.6796-18.9773"/>
<path fill="none" d="M56.16,108.257c11.0081-8.9394,21.0859-10.5707,34.3374-18.1219"/>
<path fill="none" d="M54.2561,103.306c4.8147-8.1312,14.7229-12.6637,20.0703-25.3136"/>
<path fill="none" d="m57.699,112.856c9.46934,1.3013,15.2119-4.2108,26.5403-0.085"/>
<path d="m59.313,115.411c-1.78669,0.888-3.79898,1.387-5.92757,1.387-7.38985,0-13.3806-6.0163-13.3806-13.438,0-4.5646,2.26628-8.5976,5.73026-11.0263,7.25345,4.8068,12.5454,14.5737,13.5779,23.0773z" fill-rule="evenodd" stroke-dashoffset="0" fill="#ed1c24"/>
<path fill="#eac102" d="m397.939,56.8272c3.4925-3.7502,3.783-7.9634,3.1186-13.0575-16.1737,6.7444-22.907,3.1421-29.7171,9.6131l-7.9826,7.5854v16.8229l7.9826,7.5853c6.8101,6.4711,13.5434,2.8688,29.7171,9.6133,0.6644-5.0943,0.3739-9.3075-3.1186-13.0577,10.48-0.6307,18.8309-6.0502,25.6439-12.5525-6.813-6.5019-15.1639-11.9214-25.6439-12.5523z"/>
<path fill="none" d="m367.254,69.3792,46.6467,0"/>
<path fill="none" d="m365.23,74.7452c13.6766,8.514,19.3017,6.0041,29.4092,13.1002"/>
<path fill="none" d="m365.23,64.0132c13.6766-8.514,19.3017-6.0041,29.4092-13.1003"/>
<path fill="#eac102" d="m312.054,56.8272c-3.4924-3.7502-3.7816-7.9634-3.1186-13.0575,16.1751,6.7444,22.9084,3.1421,29.7185,9.6131l7.9827,7.5854v16.8229l-7.9827,7.5853c-6.8101,6.4711-13.5434,2.8688-29.7185,9.6133-0.663-5.0943-0.3738-9.3075,3.1186-13.0577-10.48-0.6307-18.8308-6.0502-25.643-12.5525,6.8122-6.5019,15.163-11.9214,25.643-12.5523z"/>
<path fill="none" d="m342.741,69.3792-46.6466,0"/>
<path fill="none" d="m344.765,74.7452c-13.6765,8.514-19.3017,6.0041-29.4106,13.1002"/>
<path fill="none" d="m344.765,64.0132c-13.676-8.514-19.301-6.0041-29.41-13.1003"/>
<path fill="#eac102" d="m367.496,26.2532c3.7345-3.5074,7.9289-3.7984,13.0014-3.1316-6.7145,16.2436-3.1279,23.0056-9.5722,29.8447l-7.5523,8.0167h-16.7506l-7.5537-8.0167c-6.443-6.8391-2.8564-13.6011-9.5722-29.8447,5.0725-0.6668,9.2682-0.3758,13.0027,3.1316,0.628-10.5246,6.0233-18.9118,12.4984-25.7533,6.4739,6.8415,11.8705,15.2287,12.4985,25.7533z"/>
<path fill="none" d="m354.997,57.0712,0-46.8467"/>
<path fill="none" d="M349.654,59.1032c-8.479-13.7353-5.979-19.3843-13.044-29.5358"/>
<path fill="none" d="m360.34,59.1032c8.478-13.7353,5.979-19.3843,13.045-29.5358"/>
<path d="m354.997,55.7382c7.5013,0,13.5824,6.1071,13.5824,13.6405,0,7.5336-6.0811,13.6407-13.5824,13.6407-7.5012,0-13.5823-6.1071-13.5823-13.6407,0-7.5334,6.0811-13.6405,13.5823-13.6405z" fill-rule="evenodd" stroke-dashoffset="0" fill="#ed1c24"/>
<path fill="#eac102" d="m664.265,92.3342c9.2579-13.1854,16.9339-21.698,45.2347-24.1437-9.6819-14.6187-29.8458-18.8501-42.9617-5.5099-1.241-3.6512-2.005-4.8404-5.473-8.2131-3.092,9.5206-16.8629,16.7123-11.3989,33.76l5.3689,16.7522z"/>
<path fill="none" d="m658.805,99.8432c0.826-6.9713-1.565-13.2605-1.139-18.8571,0.78-10.2406,4.122-13.6137,3.679-18.9773"/>
<path fill="#eac102" d="m611.126,88.1042c2.106,7.7912,5.481,14.9617,11.6419,18.2018-3.2869,2.616-4.7769,6.4742-5.9619,11.396,0,0,14.1469-1.1425,20.3059,0.27,7.0349,1.6132,12.4199-1.4222,13.5749-2.5609l6.6379-13.1546c-5.1059-9.1454-6.1109-14.1686-9.9369-19.1467-3.819-4.9705-10.0669-9.3364-14.6029-13.2396-1.992,4.5856-3.129,8.5908-2.18,12.9741-6.553-2.0631-13.3199,0.9159-19.4789,5.2599z"/>
<path fill="none" d="M653.835,108.257c-11.008-8.9394-21.085-10.5707-34.337-18.1219"/>
<path fill="none" d="M655.735,103.306c-4.814-8.1312-14.723-12.6637-20.071-25.3136"/>
<path fill="none" d="m652.295,112.856c-9.468,1.3013-15.2109-4.2108-26.5389-0.085"/>
<path d="m650.685,115.411c1.786,0.888,3.7989,1.387,5.9259,1.387,7.391,0,13.3809-6.0163,13.3809-13.438,0-4.5646-2.2659-8.5976-5.7299-11.0263-7.253,4.8068-12.5459,14.5737-13.5769,23.0773z" fill-rule="evenodd" stroke-dashoffset="0" fill="#ed1c24"/>
<path d="m191,89.2755c0,12.1088-9.8162,21.9249-21.925,21.9249-12.1089,0-21.925-9.8161-21.925-21.9249s9.8161-21.925,21.925-21.925c12.1088,0,21.925,9.8162,21.925,21.925z" fill-rule="evenodd" fill="#e3e4e5"/>
<path d="m201.503,53.4239c0,12.385-10.04,22.425-22.425,22.425s-22.425-10.04-22.425-22.425,10.04-22.425,22.425-22.425,22.425,10.04,22.425,22.425z" fill-rule="evenodd" fill="#e3e4e5"/>
<path d="m228.708,81.4073c0,12.6611-10.2639,22.925-22.925,22.925s-22.925-10.2639-22.925-22.925,10.2639-22.925,22.925-22.925,22.925,10.2639,22.925,22.925z" fill-rule="evenodd" fill="#e3e4e5"/>
<path d="m519,89.2755c0,12.1088,9.8162,21.9249,21.925,21.9249,12.1089,0,21.925-9.8161,21.925-21.9249s-9.8161-21.925-21.925-21.925c-12.1088,0-21.925,9.8162-21.925,21.925z" fill-rule="evenodd" fill="#e3e4e5"/>
<path d="m508.497,53.4239c0,12.385,10.04,22.425,22.425,22.425s22.425-10.04,22.425-22.425-10.04-22.425-22.425-22.425-22.425,10.04-22.425,22.425z" fill-rule="evenodd" fill="#e3e4e5"/>
<path d="m481.292,81.4073c0,12.6611,10.2639,22.925,22.925,22.925s22.925-10.2639,22.925-22.925-10.2639-22.925-22.925-22.925-22.925,10.2639-22.925,22.925z" fill-rule="evenodd" fill="#e3e4e5"/>
</g>
<g transform="translate(0,-1e-4)">
<path style="direction:ltr;block-progression:tb;text-indent:0;color:#000000;enable-background:accumulate;text-transform:none;text-align:start;" d="m125.34,229.653c0,9.3163,50.3503,28.26,229.657,28.26s229.657-18.9437,229.657-28.26c0-9.3162-50.35-28.26-229.657-28.26s-229.657,18.9438-229.657,28.26z" stroke-miterlimit="4" stroke-dasharray="none" stroke-width="1" fill="#eac102"/>
<g fill="none" transform="translate(0.0034,0)">
<path d="m153.996,217.329,0,24.6469" stroke-dasharray="none" stroke-miterlimit="4" stroke-width="7.39083815"/>
<path d="m162.646,215.328,0,28.6479" stroke-dasharray="none" stroke-miterlimit="4" stroke-width="7.05489111"/>
<path d="m171.296,214.016,0,31.2736" stroke-dasharray="none" stroke-miterlimit="4" stroke-width="6.71894407"/>
<path d="m179.946,212.391,0,34.5244" stroke-dasharray="none" stroke-miterlimit="4" stroke-width="6.38299704"/>
<path d="m188.598,210.953,0,37.4001" stroke-dasharray="none" stroke-miterlimit="4" stroke-width="6.04704952"/>
<path d="m197.248,209.702,0,39.9006" stroke-dasharray="none" stroke-miterlimit="4" stroke-width="5.71110249"/>
<path d="m205.898,208.452,0,42.4011" stroke-dasharray="none" stroke-miterlimit="4" stroke-width="5.37515545"/>
<path d="m214.548,207.389,0,44.5265" stroke-dasharray="none" stroke-miterlimit="4" stroke-width="5.03920794"/>
<path d="m223.2,206.701,0,45.902" stroke-dasharray="none" stroke-miterlimit="4" stroke-width="4.7032609"/>
<path d="m231.85,205.89,0,47.5274" stroke-dasharray="none" stroke-miterlimit="4" stroke-width="4.36731386"/>
<path d="m240.5,204.638,0,50.0279" stroke-dasharray="none" stroke-miterlimit="4" stroke-width="4.03136635"/>
<path d="m249.15,203.95,0,51.4033" stroke-dasharray="none" stroke-miterlimit="4" stroke-width="3.69541907"/>
<path d="m257.8,203.639,0,52.0285" stroke-dasharray="none" stroke-miterlimit="4" stroke-width="3.35947204"/>
<path d="m266.45,202.888,0,53.5287" stroke-dasharray="none" stroke-miterlimit="4" stroke-width="3.02352476"/>
<path d="m275.1,202.263,0,54.779" stroke-dasharray="none" stroke-miterlimit="4" stroke-width="2.68757772"/>
<path d="m283.752,201.888,0,55.5292" stroke-dasharray="none" stroke-miterlimit="4" stroke-width="2.35163045"/>
<path d="m292.402,201.326,0,56.6545" stroke-dasharray="none" stroke-miterlimit="4" stroke-width="2.01568317"/>
<path d="m301.052,200.95,0,57.4047" stroke-dasharray="none" stroke-miterlimit="4" stroke-width="1.67973602"/>
<path stroke-width="1.34378886px" d="m309.702,199.825,0,59.6556"/>
<path d="m318.353,199.825,0,59.6556" stroke-dasharray="none" stroke-miterlimit="4" stroke-width="1.00784159"/>
<path d="m327.003,199.825,0,59.6556" stroke-dasharray="none" stroke-miterlimit="4" stroke-width="0.67189437"/>
<path d="m335.653,199.825,0,59.6556" stroke-dasharray="none" stroke-miterlimit="4" stroke-width="0.3359473"/>
<path d="m136.695,223.268,0,12.7692" stroke-dasharray="none" stroke-miterlimit="4" stroke-width="8.0627327"/>
<path d="m145.345,220.08,0,19.1458" stroke-dasharray="none" stroke-miterlimit="4" stroke-width="7.72678566"/>
<path d="m555.998,217.329,0,24.6469" stroke-dasharray="none" stroke-miterlimit="4" stroke-width="7.39083815"/>
<path d="m547.348,215.328,0,28.6479" stroke-dasharray="none" stroke-miterlimit="4" stroke-width="7.05489111"/>
<path d="m538.698,214.016,0,31.2736" stroke-dasharray="none" stroke-miterlimit="4" stroke-width="6.71894407"/>
<path d="m530.048,212.391,0,34.5244" stroke-dasharray="none" stroke-miterlimit="4" stroke-width="6.38299704"/>
<path d="m521.398,210.953,0,37.4001" stroke-dasharray="none" stroke-miterlimit="4" stroke-width="6.04704952"/>
<path d="m512.748,209.702,0,39.9006" stroke-dasharray="none" stroke-miterlimit="4" stroke-width="5.71110249"/>
<path d="m504.098,208.452,0,42.4011" stroke-dasharray="none" stroke-miterlimit="4" stroke-width="5.37515545"/>
<path d="m495.448,207.389,0,44.5265" stroke-dasharray="none" stroke-miterlimit="4" stroke-width="5.03920794"/>
<path d="m486.798,206.701,0,45.902" stroke-dasharray="none" stroke-miterlimit="4" stroke-width="4.7032609"/>
<path d="m478.148,205.89,0,47.5274" stroke-dasharray="none" stroke-miterlimit="4" stroke-width="4.36731386"/>
<path d="m469.498,204.638,0,50.0279" stroke-dasharray="none" stroke-miterlimit="4" stroke-width="4.03136635"/>
<path d="m460.848,203.95,0,51.4033" stroke-dasharray="none" stroke-miterlimit="4" stroke-width="3.69541907"/>
<path d="m452.198,203.639,0,52.0285" stroke-dasharray="none" stroke-miterlimit="4" stroke-width="3.35947204"/>
<path d="m443.548,202.888,0,53.5287" stroke-dasharray="none" stroke-miterlimit="4" stroke-width="3.02352476"/>
<path d="m434.898,202.263,0,54.779" stroke-dasharray="none" stroke-miterlimit="4" stroke-width="2.68757772"/>
<path d="m426.248,201.888,0,55.5292" stroke-dasharray="none" stroke-miterlimit="4" stroke-width="2.35163045"/>
<path d="m417.598,201.326,0,56.6545" stroke-dasharray="none" stroke-miterlimit="4" stroke-width="2.01568317"/>
<path d="m408.945,200.95,0,57.4047" stroke-dasharray="none" stroke-miterlimit="4" stroke-width="1.67973602"/>
<path stroke-width="1.34378886px" d="m400.295,199.825,0,59.6556"/>
<path d="m391.645,199.825,0,59.6556" stroke-dasharray="none" stroke-miterlimit="4" stroke-width="1.00784159"/>
<path d="m382.995,199.825,0,59.6556" stroke-dasharray="none" stroke-miterlimit="4" stroke-width="0.67189437"/>
<path d="m374.344,199.825,0,59.6556" stroke-dasharray="none" stroke-miterlimit="4" stroke-width="0.3359473"/>
<path d="m573.298,223.268,0,12.7692" stroke-dasharray="none" stroke-miterlimit="4" stroke-width="8.0627327"/>
<path d="m564.648,220.08,0,19.1458" stroke-dasharray="none" stroke-miterlimit="4" stroke-width="7.72678566"/>
</g>
<path style="direction:ltr;block-progression:tb;text-indent:0;color:#000000;enable-background:accumulate;text-transform:none;text-align:start;" d="m611.998,176.124c0,13.9648-32.4931,22.9852-76.6671,28.7002h-360.664c-44.1746-5.7156-76.6673-14.7359-76.6673-28.7006,0-31.4856,165.172-37.8372,257-37.8372,91.8284,0,257,6.3516,257,37.8372zm-498.236,0c0,3.0809,55.3205,24.2933,241.236,24.2933s241.236-21.2124,241.236-24.2933c0-3.081-55.3201-24.2934-241.236-24.2934s-241.236,21.2124-241.236,24.2934z" stroke-miterlimit="4" stroke-dasharray="none" stroke-width="1" fill="#eac102"/>
<path style="direction:ltr;block-progression:tb;text-indent:0;color:#000000;enable-background:accumulate;text-transform:none;text-align:start;" d="m491.758,204.82,91.251,20.0379c3.4131-16.5504,8.7481-30.7974,17.3581-45.8388,0-12.7343-98.4761-28.2594-245.371-28.2594s-245.371,15.5251-245.371,28.2594c8.611,15.0414,13.946,29.2884,17.3586,45.8388l91.25-20.038z" stroke-miterlimit="4" stroke-dasharray="none" stroke-width="1" fill="#eac102"/>
<path d="m193.542,172.04,47.2413-4.5366c4.7398-0.4552,8.9206,3.0228,9.3742,7.798,0.4536,4.7755-2.9971,8.9863-7.7369,9.4415l-47.2411,4.5367c-4.7398,0.4551-8.9207-3.0228-9.3742-7.7983-0.4537-4.7752,2.997-8.986,7.7367-9.4413z" fill-rule="evenodd" stroke-miterlimit="4" stroke-dasharray="none" stroke-width="1" fill="#008f4c"/>
<path d="m168.528,185.429c0,5.8185-4.6909,10.5355-10.4774,10.5355s-10.4772-4.717-10.4772-10.5355c0-5.8186,4.6907-10.5356,10.4772-10.5356s10.4774,4.717,10.4774,10.5356z" stroke-dasharray="none" stroke-miterlimit="4" stroke-width="1" fill="#e3e4e5"/>
<path d="m294.569,173.979c0,5.8186-4.6902,10.5356-10.4768,10.5356s-10.4773-4.717-10.4773-10.5356c0-5.8185,4.6907-10.5355,10.4773-10.5355s10.4768,4.717,10.4768,10.5355z" stroke-dasharray="none" stroke-miterlimit="4" stroke-width="1" fill="#e3e4e5"/>
<path d="m329.287,163.333,51.2878,0,13.4615,9.0279-13.4615,9.0278-51.2878,0-13.3268-9.0278z" stroke-dasharray="none" stroke-miterlimit="4" stroke-width="1" fill="#ed1c24"/>
<path d="m380.71,163.333-12.3185,8.0797,12.3185,9.976" stroke-dasharray="none" stroke-miterlimit="4" stroke-width="1" fill="none"/>
<path d="m329.287,163.333,12.3184,8.0797-12.3184,9.976" stroke-dasharray="none" stroke-miterlimit="4" stroke-width="1" fill="none"/>
<path d="m315.96,172.361,25.6452-0.9481,26.7855,0,25.6453,0.9481" stroke-dasharray="none" stroke-miterlimit="4" stroke-width="1" fill="none"/>
<path d="m111.428,200.765,3.534-11.5753,18.9187,2.5979-11.5031,15.4205z" stroke-dasharray="none" stroke-miterlimit="4" stroke-width="1" fill="#ed1c24"/>
<path d="m111.428,200.765,22.4528-8.9774" stroke-dasharray="none" stroke-miterlimit="4" stroke-width="1" fill="none"/>
<path d="m516.458,172.04-47.2421-4.5366c-4.74-0.4552-8.921,3.0228-9.373,7.798-0.454,4.7755,2.997,8.9863,7.736,9.4415l47.2421,4.5367c4.739,0.4551,8.92-3.0228,9.374-7.7983,0.454-4.7752-2.998-8.986-7.737-9.4413z" fill-rule="evenodd" stroke-miterlimit="4" stroke-dasharray="none" stroke-width="1" fill="#008f4c"/>
<path d="m541.468,185.429c0,5.8185,4.69,10.5355,10.477,10.5355s10.477-4.717,10.477-10.5355c0-5.8186-4.69-10.5356-10.477-10.5356s-10.477,4.717-10.477,10.5356z" stroke-dasharray="none" stroke-miterlimit="4" stroke-width="1" fill="#e3e4e5"/>
<path d="m415.428,173.979c0,5.8186,4.691,10.5356,10.477,10.5356,5.787,0,10.478-4.717,10.478-10.5356,0-5.8185-4.691-10.5355-10.478-10.5355-5.786,0-10.477,4.717-10.477,10.5355z" stroke-dasharray="none" stroke-miterlimit="4" stroke-width="1" fill="#e3e4e5"/>
<path d="m598.568,200.765-3.532-11.5753-18.9191,2.5979,11.5021,15.4205z" stroke-dasharray="none" stroke-miterlimit="4" stroke-width="1" fill="#ed1c24"/>
<path d="m598.568,200.765-22.4511-8.9774" stroke-dasharray="none" stroke-miterlimit="4" stroke-width="1" fill="none"/>
<path style="direction:ltr;block-progression:tb;text-indent:0;color:#000000;enable-background:accumulate;text-transform:none;text-align:start;" d="m132.543,229.653c0-2.909,52.0945-22.3735,222.455-22.3735,170.361,0,222.453,19.4645,222.453,22.3735,0,2.9091-52.094,22.3736-222.453,22.3736-170.36,0-222.455-19.4645-222.455-22.3736zm-14.5367,0c0-29.6914,158.332-34.8466,236.99-34.8466,78.6598,0,236.991,5.1552,236.991,34.8466,0,29.6915-158.332,34.8468-236.991,34.8468-78.6594,0-236.99-5.1553-236.99-34.8468z" fill-rule="evenodd" stroke-miterlimit="4" stroke-dasharray="none" stroke-width="1" fill="#eac102"/>
</g>
</g>
<g stroke-linejoin="round" stroke="#000" stroke-linecap="round" stroke-miterlimit="4" stroke-width="1">
<path d="m105.5,245.5,0,474.25c0,68.8975,55.8525,124.75,124.75,124.75h62.375c27.289,0,50.92,16.163,62.375,39,11.455-22.837,35.086-39,62.375-39h62.375c68.8975,0,124.75-55.8525,124.75-124.75v-474.25z" stroke-dashoffset="0" fill="#008f4c"/>
<path d="m255.2,534,0,310.5,37.425,0c4.2534,0,8.43159,0.40686,12.475,1.15625v-311.65625z" stroke-dasharray="none" fill="#e3e4e5"/>
<path d="m155.4,534,0,285.5625c14.51338,10.90232,31.45403,18.69696,49.9,22.4375v-308z" stroke-dasharray="none" fill="#e3e4e5"/>
<path d="m454.79999,554,0-308.5-49.89999,0,0,308.5z" stroke-dasharray="none" fill="#e3e4e5"/>
<path d="m504.70001,554,0-308.5,49.90001,0,0,308.5z" stroke-dasharray="none" fill="#e3e4e5"/>
<path d="m105.5,245.5,0,299.5,249.5,0,0-299.5z" stroke-dashoffset="0" fill="#0071bc"/>
<path d="m355,883.5c11.455-22.837,35.086-39,62.375-39h62.375c68.8975,0,124.75-55.8525,124.75-124.75v-174.75h-249.5z" stroke-dashoffset="0" fill="#0071bc"/>
</g>
<g stroke-miterlimit="4" stroke-width="1" stroke-dasharray="none">
<g transform="translate(17.88129,554.4343)" stroke="#000">
<path stroke-linejoin="miter" d="m251.17589-234.0593c-14.11367,0-45.20344,38.6273-55.31036,49.01123-10.77041-7.44442-15.32291-32.11176-31.49682-32.11176-15.57008,0-46.97253,35.63203-76.75,59.25v148.47553h249.5v-149.78803c-9.78079-22.53171-30.31438-54.76182-53.76191-40.33698-13.38732-18.4269-18.40284-34.49999-32.18091-34.49999z" stroke-linecap="butt" fill="#c87137"/>
<path stroke-linejoin="round" style="enable-background:accumulate;color:#000000;" d="m195.85873-185.03644c-19.39988,20.54681-49.73471,36.72717-66.74126,56.39997" stroke-dashoffset="0" stroke-linecap="round" fill="none"/>
<path stroke-linejoin="round" d="m283.3568-199.55931c-24.72671,15.91967-40.7545,33.80002-47.842,41.28134" stroke-linecap="round" fill="none"/>
</g>
<g stroke-linejoin="round" stroke-dashoffset="0" transform="translate(308.61721,-543.2926)" stroke-linecap="round">
<path d="m-28.61281,979.47002c0.35861-1.53846-2.61364-5.67921-5.20872-3.89357-1.88688,1.29857-6.006169,7.18548-6.62959,8.01-1.032779,1.36593-9.614665,2.79385-14.033595,4.47648l0.381197,4.15643c5.14299-0.5355,17.144164-2.28125,18.274368-3.41799,0.840306-0.84516,6.16208-4.80856,7.21634-9.33135z" style="color:#000000;enable-background:accumulate;" fill="#000" stroke="#c87137"/>
<path d="m-136.60432,988.90802c7.95624-6.67178,9.34346-11.32403,16.59889-15.44596,7.57381-4.30284,19.8701-14.45283,26.9551-14.41953,8.05751,0.0378,13.11904,8.55267,22.82438,13.86423,5.87171,3.21348,10.67471,12.56364,18.62695,16.00126l-42.50266,3.04343z" style="color:#000000;enable-background:accumulate;" fill="#ed1c24" stroke="#000"/>
<path d="m-136.60432,988.90802,29.74562,40.91978,25.51402,0,29.74568-40.91978z" style="color:#000000;enable-background:accumulate;" fill="#000" stroke="#000"/>
<path d="m-32.10551,973.14491c-1.24061-1.59677-2.49881-3.70853-2.15856-7.06424,0.29247-2.88462-1.296989-5.8541-4.43237-6.58242-2.732089-0.63464-5.619973-0.0202-7.25291,2.6868-1.267753,2.10158-0.19381,5.01523,1.00734,6.31369l0.26863,3.49282,1.14167,0.0668c0.20718,1.32003,0.903007,2.40757,1.67892,3.0897,0.294717,0.25909,1.09688-0.10489,1.94754-0.33576l2.01471,1.61192z" style="color:#000000;enable-background:accumulate;" fill="#000" stroke="#c87137"/>
<path d="m-11.2293,1052.9961c-0.9893-0.8065-0.168183-3.0678,1.27599-3.0898,1.5857573-0.024,2.18436-1.2878,2.28331-2.0822l6.17843-3.1569c1.0878,0.6045,2.9452717,2.9056,1.61176,4.0301-1.8309383,1.5439-5.71185,4.2988-6.58135,4.2988z" style="color:#000000;enable-background:accumulate;" fill="#000" stroke="#c87137"/>
<path d="m-31.71212,1049.1003c0.46212,0.8737,0.64289,3.8958-0.80588,3.8958h-12.08823c-0.499-0.7117,0.111953-3.0803,1.8804-3.3584,1.228413-0.1931,2.36948-0.1241,3.76079-0.806z" style="color:#000000;enable-background:accumulate;" fill="#000" stroke="#c87137"/>
<path d="m-34.73152,1003.3844c5.60741-0.7351,12.08967-2.8064,16.98403-6.39428,7.3872,7.97248,3.35449,14.15928,6.53692,23.52498,2.95724,8.7031,6.63296,14.8236,10.62358,23.8481l-7.50293,4.7888c-6.68944-12.085-11.119075-20.4785-16.796915-32.8164-2.15273,2.3601-4.183614,5.3034-6.507125,8.2152-2.586229,3.241-2.52729,4.2917-2.27935,6.4593,0.83551,7.3049,1.49028,11.9204,2.60641,18.0115h-8.5409c-1.04168-4.0344-1.89588-10.9973-2.6132-14.8768-1.28621-6.9562-2.085073-9.9719,2.70817-19.093,2.046957-3.8952,6.28806-7.2913,4.78131-11.6674z" style="color:#000000;enable-background:accumulate;" fill="#000" stroke="#c87137"/>
<path d="m-24.886835,1016.3356c-1.78314-3.767-5.379775-8.7924-6.268275-13.4887" style="color:#000000;enable-background:accumulate;" fill="#000" stroke="#c87137"/>
<path d="m-14.15356,999.22515c-4.88008-7.74674-4.09887-23.70796-18.23012-27.36796l-6.58136,4.83612c-0.24138,1.62659,1.59562,9.96568,2.29239,16.60021,0.71929,6.84898,0.96902,12.68368,2.11689,12.45848,5.66892,0.057,13.21638-1.5265,20.4022-6.52685z" style="color:#000000;enable-background:accumulate;" fill="#000" stroke="#c87137"/>
<path d="m-52.90908,994.93906c-1.419546,1.99502-3.44746,1.47154-5.678187,2.19466-1.998756,0.64793-2.421549-2.91848-0.506983-3.69592,2.007046-0.81499,2.467304-2.76762,5.982407-1.27058z" style="color:#000000;enable-background:accumulate;" fill="#000" stroke="#c87137"/>
<path d="m-25.00994,983.36385c0.742926-1.39397-2.3915-6.92093-5.35906-5.86452-2.1577,0.76811-8.184116,11.99145-8.99899,12.62746-1.349836,1.05354-9.35579,0.41798-14.23725,1.82793l0.13433,4.2172c5.41732-0.0894,17.271166,0.22356,18.65609-0.5834,1.029746-0.6,7.620736-8.1265,9.80488-12.22467z" style="color:#000000;enable-background:accumulate;" fill="#000" stroke="#c87137"/>
<path d="m-48.97696,968.38372,18.86567-3.73864c-2.04624-0.57564-3.639159-2.15565-4.612771-3.52222-3.043535-4.27193-12.029087-1.39436-11.82621,2.09357,0.07575,1.3023-1.614239,3.82141-2.426689,5.16729z" style="color:#000000;enable-background:accumulate;" fill="#000" stroke="#c87137"/>
<path d="m-133.25533,1027.8396,78.3132,0c1.85677,0,3.35161,0.9221,3.35161,2.0673v5.0348c0,1.1454-1.49484,2.0674-3.35161,2.0674h-78.3132c-1.85677,0-3.35158-0.922-3.35158-2.0674v-5.0348c0-1.1452,1.49481-2.0673,3.35158-2.0673z" fill="#000" stroke="#c87137"/>
<path d="m-65.27705,1042.1116c0,6.0113-4.87239,10.8845-10.88278,10.8845s-10.88277-4.8732-10.88277-10.8845c0-6.0115,4.87238-10.8847,10.88277-10.8847s10.88278,4.8732,10.88278,10.8847z" style="color:#000000;enable-background:accumulate;" fill="#000" stroke="#c87137"/>
<path d="m-101.16078,1042.1116c0,6.0113-4.87239,10.8845-10.88278,10.8845-6.01038,0-10.88276-4.8732-10.88276-10.8845,0-6.0115,4.87238-10.8847,10.88276-10.8847,6.01039,0,10.88278,4.8732,10.88278,10.8847z" style="color:#000000;enable-background:accumulate;" fill="#000" stroke="#c87137"/>
<path d="m-161.20056,1052.9964,165.66669,0,0,5.0461-165.66669,0z" fill-rule="evenodd" stroke="#000" fill="#000"/>
</g>
<g stroke-linejoin="round" stroke="#000" stroke-linecap="round">
<path style="enable-background:accumulate;color:#000000;" d="m454.25,744.6669c-6.49384,5.58557,7.55922,12.78056,0.41304,15.64405-6.91244,2.76982-26.54991,1.59842-37.46448,2.79287-12.15608,1.33021-5.00975,7.43586-12.36329,9.77474-8.20168,2.60867-24.58537,2.85793-24.58537,6.98205,0,9.00288,40.14181,6.17429,38.07259,9.42582-2.86506,4.50211-30.73341,1.79576-31.55328,7.33106-0.30254,2.04266-6.51931,4.6302-6.51931,7.04205,0,3.25425,2.69851,6.55842,13.72068,8.31852,22.27669,3.55725,43.35903,2.03458,63.31497,1.39639,17.62705-0.56374,11.85531-8.24042-1.49858-15.36048-15.23369-8.12231,58.23265,1.71347,46.72411-11.88777-4.72393-5.58293,42.7028-2.37872,33.82454-11.66504-5.79249-6.05869-47.01467-2.00083-48.32919-6.81915-2.93441-10.75586,37.49658-11.3843,17.24357-22.97511z" stroke-dashoffset="0" fill="#ed1c24"/>
<g transform="translate(605.46591,-771.79034)">
<path d="m-154.48593,1427.7515-16.24608,0,0.00007,88.7055,90.03179,0,0.00014-88.7055-16.24618,0,0-10.1492-11.50794,0,0,10.1492-11.50795,0,0-10.1492-11.50794,0,0,10.1492-11.50795,0,0-10.1492-11.50796,0z" fill-rule="nonzero" fill="#c87137"/>
<path d="m-168.43325,1457.3196,84.37484,0" fill-rule="nonzero" fill="#c87137"/>
<path d="m-167.86745,1447.4633,83.26186,0" fill-rule="nonzero" fill="#c87137"/>
<path d="m-167.96922,1437.6072,83.26188,0" fill-rule="nonzero" fill="#c87137"/>
<path d="m-157.52461,1427.7511,63.55152,0" fill-rule="nonzero" fill="#c87137"/>
<path d="m-125.70598,1427.7511,0,9.8561" fill-rule="nonzero" fill="#c87137"/>
<path d="m-136.24662,1437.6072,0,9.8561" fill-rule="nonzero" fill="#c87137"/>
<path d="m-115.16532,1437.6072,0,9.8561" fill-rule="nonzero" fill="#c87137"/>
<path d="m-125.70598,1447.4633,0,9.8563" fill-rule="nonzero" fill="#c87137"/>
<path d="m-136.24662,1457.3196,0,9.8561" fill-rule="nonzero" fill="#c87137"/>
<path d="m-115.16532,1457.3196,0,9.8561" fill-rule="nonzero" fill="#c87137"/>
<path d="m-146.78729,1427.7511,0,9.8561" fill-rule="nonzero" fill="#c87137"/>
<path d="m-104.62466,1427.7511,0,9.8561" fill-rule="nonzero" fill="#c87137"/>
<path d="m-146.78729,1447.4633,0,9.8563" fill-rule="nonzero" fill="#c87137"/>
<path d="m-104.62466,1447.4633,0,9.8563" fill-rule="nonzero" fill="#c87137"/>
<path d="m-157.32792,1437.6072,0,9.8561" fill-rule="nonzero" fill="#c87137"/>
<path d="m-157.32792,1457.3196,0,9.8561" fill-rule="nonzero" fill="#c87137"/>
<path d="m-94.08402,1437.6072,0,9.8561" fill-rule="nonzero" fill="#c87137"/>
<path d="m-94.08402,1457.3196,0,9.8561" fill-rule="nonzero" fill="#c87137"/>
<path d="m-168.43325,1467.1757,84.37484,0" fill-rule="nonzero" fill="#c87137"/>
<path d="m-167.86745,1477.032,83.26186,0" fill-rule="nonzero" fill="#c87137"/>
<path d="m-157.37266,1486.8881,63.12842,0" fill-rule="nonzero" fill="#c87137"/>
<path d="m-157.52461,1496.7443,63.55152,0" fill-rule="nonzero" fill="#c87137"/>
<path d="m-125.70598,1496.7443,0-9.8562" fill-rule="nonzero" fill="#c87137"/>
<path d="m-136.24662,1486.8881,0-9.8561" fill-rule="nonzero" fill="#c87137"/>
<path d="m-115.16532,1486.8881,0-9.8561" fill-rule="nonzero" fill="#c87137"/>
<path d="m-125.70598,1477.032,0-9.8563" fill-rule="nonzero" fill="#c87137"/>
<path d="m-146.78729,1496.7443,0-9.8562" fill-rule="nonzero" fill="#c87137"/>
<path d="m-104.62466,1496.7443,0-9.8562" fill-rule="nonzero" fill="#c87137"/>
<path d="m-146.78729,1477.032,0-9.8563" fill-rule="nonzero" fill="#c87137"/>
<path d="m-104.62466,1477.032,0-9.8563" fill-rule="nonzero" fill="#c87137"/>
<path d="m-157.33981,1506.6004,63.12841,0" fill-rule="nonzero" fill="#c87137"/>
<path d="m-146.75444,1516.4566,0-9.8562" fill-rule="nonzero" fill="#c87137"/>
<path d="m-104.59181,1516.4566,0-9.8562" fill-rule="nonzero" fill="#c87137"/>
<path d="m-138.45515,1516.457,0-28.6887c0-7.0754,5.67331-12.7761,12.73231-12.7761,7.05901,0,12.74597,5.7007,12.74597,12.7761v28.6887z" fill="#c87137"/>
<path d="m-125.72285,1480.1913c4.25829,0,7.68775,3.3803,7.68775,7.577l-0.00024,28.6887h-15.37535l0.0001-28.6887c0.00001-4.1967,3.42948-7.577,7.68775-7.577z" fill-rule="nonzero" fill="#000"/>
<path d="m-138.45476,1487.7683,5.04417,0" fill="none"/>
<path d="m-118.0351,1487.7683,5.04419,0" fill="none"/>
<path d="m-119.49263,1483.2278,4.07251-2.9648" fill="none"/>
<path d="m-136.02556,1480.263,4.08678,2.9648" fill="none"/>
<path d="m-129.65245,1475.6224,1.55756,4.8125" fill="none"/>
<path d="m-123.33651,1480.4349,1.55756-4.8125" fill="none"/>
<path d="m-138.45476,1494.5432,5.04417,0" fill="none"/>
<path d="m-138.45476,1501.3323,5.04417,0" fill="none"/>
<path d="m-138.45476,1508.1071,5.04417,0" fill="none"/>
<path d="m-118.0351,1494.5432,5.04419,0" fill="none"/>
<path d="m-118.0351,1501.3323,5.04419,0" fill="none"/>
<path d="m-118.0351,1508.1071,5.04419,0" fill="none"/>
</g>
<g transform="translate(824.07102,-618.16844)">
<path d="m-406.82112,1261.9063c2.27187,0,4.08651,1.8111,4.08651,4.0639v16.6553h-8.173v-16.6553c0-2.2528,1.82892-4.0639,4.08649-4.0639zm37,100.9288,0-28.37c-6.16667-6.3317-12.18839-35.1651-12.18839-57.3575v-38.331l5.99537-6.2393v-18.7022h-12.32016v9.3435h-12.32015v-9.3435h-12.32016v9.3435h-12.32015v-9.3435h-12.32016v18.7022l5.99537,6.2393v38.331c0,22.1924-6.03489,51.0258-12.20157,57.3575v28.3699h29.305l0.0001-28.6887c0.00001-4.1967,3.42949-7.577,7.68775-7.577,4.25828,0,7.68779,3.3803,7.68775,7.577l-0.00024,28.6888z" fill-rule="nonzero" fill="#c87137"/>
<path d="m-437.65444,1232.5373,61.66665,0" fill="none"/>
<path d="m-443.82112,1353.3836,24.26054,0" fill="none"/>
<path d="m-443.82112,1343.9167,24.26054,0" fill="none"/>
<path d="m-443.82112,1334.4651,24.26054,0" fill="none"/>
<path d="m-438.87987,1324.9055,22.91417,0" fill="none"/>
<path d="m-436.16548,1315.3305,58.70191,0" fill="none"/>
<path d="m-413.01414,1305.7554-0.83013,9.5751" fill="none"/>
<path d="m-434.20216,1305.7554,54.7621,0" fill="none"/>
<path d="m-432.80544,1296.1958,51.98182,0" fill="none"/>
<path d="m-431.9226,1286.6209,50.21615,0" fill="none"/>
<path d="m-431.61955,1277.0458,20.71205,0" fill="none"/>
<path d="m-431.61955,1267.4862,20.71205,0" fill="none"/>
<path d="m-431.61955,1257.9111,49.61004,0" fill="none"/>
<path d="m-431.61955,1248.3362,49.61004,0" fill="none"/>
<path d="m-394.42191,1238.7766,0,9.5596" fill="none"/>
<path d="m-406.82112,1238.7766,0,9.5596" fill="none"/>
<path d="m-419.22033,1238.7766,0,9.5596" fill="none"/>
<path d="m-430.80259,1296.1958-0.81696,9.5596" fill="none"/>
<path d="m-382.83964,1296.1958,0.83013,9.5596" fill="none"/>
<path d="m-425.42653,1305.7554-1.2386,9.5751" fill="none"/>
<path d="m-400.61492,1305.7554,0.83012,9.5751" fill="none"/>
<path d="m-388.21571,1305.7554,1.23861,9.5751" fill="none"/>
<path d="m-419.22033,1315.3305-1.23861,9.575" fill="none"/>
<path d="m-394.42191,1315.3305,1.25179,9.575" fill="none"/>
<path d="m-431.61955,1315.3305-2.06874,9.575" fill="none"/>
<path d="m-382.00951,1315.3305,2.06873,9.575" fill="none"/>
<path d="m-427.07361,1324.9055-2.47721,9.5596" fill="none"/>
<path d="m-386.55545,1324.9055,2.05555,9.5596" fill="none"/>
<path d="m-423.76627,1334.4651,0,9.4516" fill="none"/>
<path d="m-431.61955,1238.7766,49.61004,0" fill="none"/>
<path d="m-402.73437,1277.0458,20.72486,0" fill="none"/>
<path d="m-402.73437,1267.4862,20.72486,0" fill="none"/>
<path d="m-394.08229,1334.4651,24.26117,0" fill="none"/>
<path d="m-394.08229,1353.3836,24.26117,0" fill="none"/>
<path d="m-394.08229,1343.9167,24.26117,0" fill="none"/>
<path d="m-388.21571,1248.3362,0,9.5749" fill="none"/>
<path d="m-400.61492,1248.3362,0,9.5749" fill="none"/>
<path d="m-425.42653,1248.3362,0,9.5749" fill="none"/>
<path d="m-413.01414,1248.3362,0,9.5749" fill="none"/>
<path d="m-406.82112,1257.9111,0,3.9952" fill="none"/>
<path d="m-388.21571,1267.4862,0,9.5596" fill="none"/>
<path d="m-400.61492,1267.4862,0,9.5596" fill="none"/>
<path d="m-425.42653,1267.4862,0,9.5596" fill="none"/>
<path d="m-413.01414,1267.4862,0,9.5596" fill="none"/>
<path d="m-388.21571,1286.6209,0,9.5749" fill="none"/>
<path d="m-400.61492,1286.6209,0,9.5749" fill="none"/>
<path d="m-425.42653,1286.6209,0,9.5749" fill="none"/>
<path d="m-413.01414,1286.6209,0,9.5749" fill="none"/>
<path d="m-406.82112,1282.6252,0,3.9957" fill="none"/>
<path d="m-394.42191,1296.1958,0,9.5596" fill="none"/>
<path d="m-406.82112,1296.1958,0,9.5596" fill="none"/>
<path d="m-419.22033,1296.1958,0,9.5596" fill="none"/>
<path d="m-406.82112,1315.3305,0,6.0397" fill="none"/>
<path d="m-430.38095,1343.9167,0,9.4669" fill="none"/>
<path d="m-423.76627,1353.3836,0,9.4515" fill="none"/>
<path d="m-436.99561,1353.3836,0,9.4515" fill="none"/>
<path d="m-436.99561,1334.4651,0,9.4516" fill="none"/>
<path d="m-389.86278,1334.4651,0,9.4516" fill="none"/>
<path d="m-383.24812,1343.9167,0,9.4669" fill="none"/>
<path d="m-389.86278,1353.3836,0,9.4515" fill="none"/>
<path d="m-376.63344,1353.3836,0,9.4515" fill="none"/>
<path d="m-376.63344,1334.4651,0,9.4516" fill="none"/>
<path d="m-397.66335,1324.9055,22.91417,0" fill="none"/>
<path d="m-394.42191,1257.9111,0,9.5751" fill="none"/>
<path d="m-419.22033,1257.9111,0,9.5751" fill="none"/>
<path d="m-394.42191,1277.0458,0,9.5751" fill="none"/>
<path d="m-419.22033,1277.0458,0,9.5751" fill="none"/>
<path d="m-406.82112,1261.9065c2.27187,0,4.08678,1.8109,4.08675,4.0637l-0.00024,16.655-8.173,0.0003,0.00011-16.6553c0.00001-2.2528,1.82881-4.0637,4.08638-4.0637z" fill-rule="nonzero" fill="#000"/>
<path d="m-406.82827,1326.5693c4.25828,0,7.68775,3.3803,7.68775,7.577l-0.00024,28.6887h-15.37536l0.0001-28.6887c0.00001-4.1967,3.42949-7.577,7.68776-7.577z" fill-rule="nonzero" fill="#000"/>
<path d="m-419.56058,1362.835,0-28.6887c0-7.0754,5.67331-12.7761,12.73232-12.7761s12.74597,5.7007,12.74597,12.7761v28.6887" fill="none"/>
<path d="m-419.56019,1334.1463,5.04417,0" fill="none"/>
<path d="m-399.14052,1334.1463,5.04419,0" fill="none"/>
<path d="m-400.59805,1329.6058,4.07251-2.9648" fill="none"/>
<path d="m-417.13099,1326.641,4.08678,2.9648" fill="none"/>
<path d="m-410.75788,1322.0004,1.55756,4.8125" fill="none"/>
<path d="m-404.44193,1326.8129,1.55756-4.8125" fill="none"/>
<path d="m-419.56019,1340.9212,5.04417,0" fill="none"/>
<path d="m-419.56019,1347.7103,5.04417,0" fill="none"/>
<path d="m-419.56019,1354.4851,5.04417,0" fill="none"/>
<path d="m-399.14052,1340.9212,5.04419,0" fill="none"/>
<path d="m-399.14052,1347.7103,5.04419,0" fill="none"/>
<path d="m-399.14052,1354.4851,5.04419,0" fill="none"/>
</g>
<g transform="translate(949.07102,-618.16844)">
<path d="m-406.82112,1261.9063c2.27187,0,4.08651,1.8111,4.08651,4.0639v16.6553h-8.173v-16.6553c0-2.2528,1.82892-4.0639,4.08649-4.0639zm37,100.9288,0-28.37c-6.16667-6.3317-12.18839-35.1651-12.18839-57.3575v-38.331l5.99537-6.2393v-18.7022h-12.32016v9.3435h-12.32015v-9.3435h-12.32016v9.3435h-12.32015v-9.3435h-12.32016v18.7022l5.99537,6.2393v38.331c0,22.1924-6.03489,51.0258-12.20157,57.3575v28.3699h29.305l0.0001-28.6887c0.00001-4.1967,3.42949-7.577,7.68775-7.577,4.25828,0,7.68779,3.3803,7.68775,7.577l-0.00024,28.6888z" fill-rule="nonzero" fill="#c87137"/>
<path d="m-437.65444,1232.5373,61.66665,0" fill="none"/>
<path d="m-443.82112,1353.3836,24.26054,0" fill="none"/>
<path d="m-443.82112,1343.9167,24.26054,0" fill="none"/>
<path d="m-443.82112,1334.4651,24.26054,0" fill="none"/>
<path d="m-438.87987,1324.9055,22.91417,0" fill="none"/>
<path d="m-436.16548,1315.3305,58.70191,0" fill="none"/>
<path d="m-413.01414,1305.7554-0.83013,9.5751" fill="none"/>
<path d="m-434.20216,1305.7554,54.7621,0" fill="none"/>
<path d="m-432.80544,1296.1958,51.98182,0" fill="none"/>
<path d="m-431.9226,1286.6209,50.21615,0" fill="none"/>
<path d="m-431.61955,1277.0458,20.71205,0" fill="none"/>
<path d="m-431.61955,1267.4862,20.71205,0" fill="none"/>
<path d="m-431.61955,1257.9111,49.61004,0" fill="none"/>
<path d="m-431.61955,1248.3362,49.61004,0" fill="none"/>
<path d="m-394.42191,1238.7766,0,9.5596" fill="none"/>
<path d="m-406.82112,1238.7766,0,9.5596" fill="none"/>
<path d="m-419.22033,1238.7766,0,9.5596" fill="none"/>
<path d="m-430.80259,1296.1958-0.81696,9.5596" fill="none"/>
<path d="m-382.83964,1296.1958,0.83013,9.5596" fill="none"/>
<path d="m-425.42653,1305.7554-1.2386,9.5751" fill="none"/>
<path d="m-400.61492,1305.7554,0.83012,9.5751" fill="none"/>
<path d="m-388.21571,1305.7554,1.23861,9.5751" fill="none"/>
<path d="m-419.22033,1315.3305-1.23861,9.575" fill="none"/>
<path d="m-394.42191,1315.3305,1.25179,9.575" fill="none"/>
<path d="m-431.61955,1315.3305-2.06874,9.575" fill="none"/>
<path d="m-382.00951,1315.3305,2.06873,9.575" fill="none"/>
<path d="m-427.07361,1324.9055-2.47721,9.5596" fill="none"/>
<path d="m-386.55545,1324.9055,2.05555,9.5596" fill="none"/>
<path d="m-423.76627,1334.4651,0,9.4516" fill="none"/>
<path d="m-431.61955,1238.7766,49.61004,0" fill="none"/>
<path d="m-402.73437,1277.0458,20.72486,0" fill="none"/>
<path d="m-402.73437,1267.4862,20.72486,0" fill="none"/>
<path d="m-394.08229,1334.4651,24.26117,0" fill="none"/>
<path d="m-394.08229,1353.3836,24.26117,0" fill="none"/>
<path d="m-394.08229,1343.9167,24.26117,0" fill="none"/>
<path d="m-388.21571,1248.3362,0,9.5749" fill="none"/>
<path d="m-400.61492,1248.3362,0,9.5749" fill="none"/>
<path d="m-425.42653,1248.3362,0,9.5749" fill="none"/>
<path d="m-413.01414,1248.3362,0,9.5749" fill="none"/>
<path d="m-406.82112,1257.9111,0,3.9952" fill="none"/>
<path d="m-388.21571,1267.4862,0,9.5596" fill="none"/>
<path d="m-400.61492,1267.4862,0,9.5596" fill="none"/>
<path d="m-425.42653,1267.4862,0,9.5596" fill="none"/>
<path d="m-413.01414,1267.4862,0,9.5596" fill="none"/>
<path d="m-388.21571,1286.6209,0,9.5749" fill="none"/>
<path d="m-400.61492,1286.6209,0,9.5749" fill="none"/>
<path d="m-425.42653,1286.6209,0,9.5749" fill="none"/>
<path d="m-413.01414,1286.6209,0,9.5749" fill="none"/>
<path d="m-406.82112,1282.6252,0,3.9957" fill="none"/>
<path d="m-394.42191,1296.1958,0,9.5596" fill="none"/>
<path d="m-406.82112,1296.1958,0,9.5596" fill="none"/>
<path d="m-419.22033,1296.1958,0,9.5596" fill="none"/>
<path d="m-406.82112,1315.3305,0,6.0397" fill="none"/>
<path d="m-430.38095,1343.9167,0,9.4669" fill="none"/>
<path d="m-423.76627,1353.3836,0,9.4515" fill="none"/>
<path d="m-436.99561,1353.3836,0,9.4515" fill="none"/>
<path d="m-436.99561,1334.4651,0,9.4516" fill="none"/>
<path d="m-389.86278,1334.4651,0,9.4516" fill="none"/>
<path d="m-383.24812,1343.9167,0,9.4669" fill="none"/>
<path d="m-389.86278,1353.3836,0,9.4515" fill="none"/>
<path d="m-376.63344,1353.3836,0,9.4515" fill="none"/>
<path d="m-376.63344,1334.4651,0,9.4516" fill="none"/>
<path d="m-397.66335,1324.9055,22.91417,0" fill="none"/>
<path d="m-394.42191,1257.9111,0,9.5751" fill="none"/>
<path d="m-419.22033,1257.9111,0,9.5751" fill="none"/>
<path d="m-394.42191,1277.0458,0,9.5751" fill="none"/>
<path d="m-419.22033,1277.0458,0,9.5751" fill="none"/>
<path d="m-406.82112,1261.9065c2.27187,0,4.08678,1.8109,4.08675,4.0637l-0.00024,16.655-8.173,0.0003,0.00011-16.6553c0.00001-2.2528,1.82881-4.0637,4.08638-4.0637z" fill-rule="nonzero" fill="#000"/>
<path d="m-406.82827,1326.5693c4.25828,0,7.68775,3.3803,7.68775,7.577l-0.00024,28.6887h-15.37536l0.0001-28.6887c0.00001-4.1967,3.42949-7.577,7.68776-7.577z" fill-rule="nonzero" fill="#000"/>
<path d="m-419.56058,1362.835,0-28.6887c0-7.0754,5.67331-12.7761,12.73232-12.7761s12.74597,5.7007,12.74597,12.7761v28.6887" fill="none"/>
<path d="m-419.56019,1334.1463,5.04417,0" fill="none"/>
<path d="m-399.14052,1334.1463,5.04419,0" fill="none"/>
<path d="m-400.59805,1329.6058,4.07251-2.9648" fill="none"/>
<path d="m-417.13099,1326.641,4.08678,2.9648" fill="none"/>
<path d="m-410.75788,1322.0004,1.55756,4.8125" fill="none"/>
<path d="m-404.44193,1326.8129,1.55756-4.8125" fill="none"/>
<path d="m-419.56019,1340.9212,5.04417,0" fill="none"/>
<path d="m-419.56019,1347.7103,5.04417,0" fill="none"/>
<path d="m-419.56019,1354.4851,5.04417,0" fill="none"/>
<path d="m-399.14052,1340.9212,5.04419,0" fill="none"/>
<path d="m-399.14052,1347.7103,5.04419,0" fill="none"/>
<path d="m-399.14052,1354.4851,5.04419,0" fill="none"/>
</g>
</g>
</g>
<path stroke-linejoin="round" d="m106.5,246.5v473.25c0,68.35,55.4,123.75,123.75,123.75h62.375c27.18,0,50.966,16.254,62.375,39,11.409-22.746,35.195-39,62.375-39h62.375c68.35,0,123.75-55.4,123.75-123.75v-473.25z" stroke-dashoffset="0" stroke="#000" stroke-linecap="round" stroke-miterlimit="4" stroke-dasharray="none" stroke-width="3" fill="none"/>
</svg>
