<!-- Created with Inkscape (http://www.inkscape.org/) -->
<svg xmlns:rdf="http://www.w3.org/1999/02/22-rdf-syntax-ns#" xmlns="http://www.w3.org/2000/svg" height="960" width="550" version="1.0" xmlns:cc="http://creativecommons.org/ns#" xmlns:dc="http://purl.org/dc/elements/1.1/">
<metadata>
<rdf:RDF>
<cc:Work rdf:about="">
<dc:format>image/svg+xml</dc:format>
<dc:type rdf:resource="http://purl.org/dc/dcmitype/StillImage"/>
<dc:title/>
</cc:Work>
</rdf:RDF>
</metadata>
<g stroke-linejoin="round" transform="translate(1.2e-4,-15)" stroke="#000" stroke-linecap="round">
<path d="m126.903,175.389c-47.4495-2.054-88.5485,19.505-105.27,46.096l50.536,73.2062,46.9081,30.5769,155.923-11.5901,155.922,11.5901,46.908-30.5769,50.536-73.2062c-16.721-26.5912-57.82-48.1504-105.27-46.0965-49.777,2.1546-74.619-23.7087-148.096-23.7087-73.4778,0-98.3198,25.8633-148.097,23.7087z" stroke-miterlimit="4" stroke-dasharray="none" stroke-width="1" fill="#ed1c24"/>
<g stroke-dasharray="none" stroke-width="1" stroke-miterlimit="4">
<g transform="translate(-1.45e-4,0)">
<path d="M38.1744,222.248c-19.5456-30.647-14.7835-52.773-2.7995-70.692-24.0799,20.568-30.4156,51.655-9.1264,87.081z" fill="#eac102"/>
<path d="m265.38,111.527c-32.416,9.776-67.755,20.7763-99.77,16.0685-148.993-21.91-159.46,60.057-131.251,94.344l-8.1109,16.6966,7.6261,2.4216,9.7328-19.5565c-32.728-34.3674-17.7717-106.98,120.838-86.5759,33.376,4.913,70.105-6.3107,103.326-16.3293z" fill="#eac102"/>
<path d="m34.3594,221.94,9.248-0.4383" fill="none"/>
<path d="m229.707,115.424c0,4.2986-3.484,7.7833-7.783,7.7833-4.298,0-7.783-3.4847-7.783-7.7833s3.485-7.7833,7.783-7.7833c4.299,0,7.783,3.4847,7.783,7.7833z" fill="#e3e4e5"/>
<path d="m152.207,117.324c0,4.2986-3.484,7.7833-7.783,7.7833-4.298,0-7.783-3.4847-7.783-7.7833s3.485-7.7833,7.783-7.7833c4.299,0,7.783,3.4847,7.783,7.7833z" fill="#e3e4e5"/>
<path d="m171.457,119.574c0,4.2986-3.484,7.7833-7.783,7.7833-4.298,0-7.783-3.4847-7.783-7.7833s3.485-7.7833,7.783-7.7833c4.299,0,7.783,3.4847,7.783,7.7833z" fill="#e3e4e5"/>
<path d="m248.707,110.624c0,4.2986-3.484,7.7833-7.783,7.7833-4.298,0-7.783-3.4847-7.783-7.7833s3.485-7.7833,7.783-7.7833c4.299,0,7.783,3.4847,7.783,7.7833z" fill="#e3e4e5"/>
<path d="m267.457,105.224c0,4.2986-3.484,7.7833-7.783,7.7833-4.298,0-7.783-3.4847-7.783-7.7833s3.485-7.7833,7.783-7.7833c4.299,0,7.783,3.4847,7.783,7.7833z" fill="#e3e4e5"/>
<path d="m27.2531,227.678c0,4.2986-3.4847,7.7833-7.7833,7.7833s-7.7832-3.4847-7.7832-7.7833,3.4846-7.7833,7.7832-7.7833,7.7833,3.4847,7.7833,7.7833z" fill="#e3e4e5"/>
<path d="m19.7547,210.075c0,4.2986-3.4847,7.7833-7.7833,7.7833s-7.7833-3.4847-7.7833-7.7833,3.4847-7.7833,7.7833-7.7833,7.7833,3.4847,7.7833,7.7833z" fill="#e3e4e5"/>
<path d="m16.0667,191.674c0,4.2986-3.4847,7.7833-7.7833,7.7833s-7.78326-3.4847-7.78326-7.7833,3.48466-7.7833,7.78326-7.7833,7.7833,3.4847,7.7833,7.7833z" fill="#e3e4e5"/>
<path d="m19.4577,173.174c0,4.2986-3.4847,7.7833-7.7833,7.7833s-7.7832-3.4847-7.7832-7.7833,3.4846-7.7833,7.7832-7.7833,7.7833,3.4847,7.7833,7.7833z" fill="#e3e4e5"/>
<path d="m28.9577,156.674c0,4.2986-3.4847,7.7833-7.7833,7.7833s-7.7832-3.4847-7.7832-7.7833,3.4846-7.7833,7.7832-7.7833,7.7833,3.4847,7.7833,7.7833z" fill="#e3e4e5"/>
<path d="m41.4577,141.924c0,4.2986-3.4847,7.7833-7.7833,7.7833s-7.7832-3.4847-7.7832-7.7833,3.4846-7.7833,7.7832-7.7833,7.7833,3.4847,7.7833,7.7833z" fill="#e3e4e5"/>
<path d="m56.9577,130.924c0,4.2986-3.4847,7.7833-7.7833,7.7833s-7.7832-3.4847-7.7832-7.7833,3.4846-7.7833,7.7832-7.7833,7.7833,3.4847,7.7833,7.7833z" fill="#e3e4e5"/>
<path d="m74.7077,122.924c0,4.2986-3.4847,7.7833-7.7833,7.7833s-7.7832-3.4847-7.7832-7.7833,3.4846-7.7833,7.7832-7.7833,7.7833,3.4847,7.7833,7.7833z" fill="#e3e4e5"/>
<path d="m93.7073,118.424c0,4.2986-3.484,7.7833-7.783,7.7833s-7.783-3.4847-7.783-7.7833,3.484-7.7833,7.783-7.7833,7.783,3.4847,7.783,7.7833z" fill="#e3e4e5"/>
<path d="m113.207,116.424c0,4.2986-3.484,7.7833-7.783,7.7833-4.298,0-7.783-3.4847-7.783-7.7833s3.485-7.7833,7.783-7.7833c4.299,0,7.783,3.4847,7.783,7.7833z" fill="#e3e4e5"/>
<path d="m132.707,116.174c0,4.2986-3.484,7.7833-7.783,7.7833-4.298,0-7.783-3.4847-7.783-7.7833s3.485-7.7833,7.783-7.7833c4.299,0,7.783,3.4847,7.783,7.7833z" fill="#e3e4e5"/>
<path d="m190.957,120.924c0,4.2986-3.484,7.7833-7.783,7.7833-4.298,0-7.783-3.4847-7.783-7.7833s3.485-7.7833,7.783-7.7833c4.299,0,7.783,3.4847,7.783,7.7833z" fill="#e3e4e5"/>
<path d="m210.457,119.174c0,4.2986-3.484,7.7833-7.783,7.7833-4.298,0-7.783-3.4847-7.783-7.7833s3.485-7.7833,7.783-7.7833c4.299,0,7.783,3.4847,7.783,7.7833z" fill="#e3e4e5"/>
</g>
<g transform="translate(-1.45e-4,0)">
<path d="m189.99,98.2883c-58.73,8.265-67.5589,61.293-37.213,98.7136l-11.164,18.1353,7.24,1.157,15.274-19.7261c-38.5558-45.6653-16.695-84.5872,27.063-89.8034,31.409-3.744,51.936,13.6751,83.81,10.5121v-8.4765c-24.666,3.6348-57.285-14.4137-85.01-10.512z" style="direction:ltr;enable-background:accumulate;block-progression:tb;text-indent:0;color:#000000;text-transform:none;text-align:start;" fill="#eac102"/>
<path d="m141.613,215.137,14.475-18.5104c-27.841-29.7755-24.557-82.9691,20.634-95.507-77.2708,17.8926-51.4273,72.8991-52.5184,102.232z" style="direction:ltr;enable-background:accumulate;block-progression:tb;text-indent:0;color:#000000;text-transform:none;text-align:start;" fill="#eac102"/>
<path d="m156.088,196.627,8.039-0.059" fill="none"/>
<path d="m273.033,101.369c0,4.2985-3.485,7.7832-7.783,7.7832-4.299,0-7.783-3.4847-7.783-7.7832,0-4.2986,3.484-7.7834,7.783-7.7834,4.298,0,7.783,3.4847,7.783,7.7834z" fill="#e3e4e5"/>
<path d="m263.377,100.563c0,4.2986-3.485,7.7833-7.783,7.7833-4.299,0-7.784-3.4847-7.784-7.7833s3.485-7.7833,7.784-7.7833c4.298,0,7.783,3.4847,7.783,7.7833z" fill="#e3e4e5"/>
<path d="m255.313,98.8239c0,4.2985-3.484,7.7832-7.783,7.7832s-7.783-3.4847-7.783-7.7832c0-4.2986,3.484-7.7833,7.783-7.7833s7.783,3.4847,7.783,7.7833z" fill="#e3e4e5"/>
<path d="m247.221,96.5981c0,4.2986-3.484,7.7833-7.783,7.7833s-7.783-3.4847-7.783-7.7833,3.484-7.7833,7.783-7.7833,7.783,3.4847,7.783,7.7833z" fill="#e3e4e5"/>
<path d="m146.223,198.155c0,4.2986-3.484,7.7833-7.783,7.7833s-7.783-3.4847-7.783-7.7833,3.484-7.7833,7.783-7.7833,7.783,3.4847,7.783,7.7833z" fill="#e3e4e5"/>
<path d="m138.498,180.127c0,4.2986-3.484,7.7833-7.783,7.7833s-7.7832-3.4847-7.7832-7.7833,3.4842-7.7833,7.7832-7.7833,7.783,3.4847,7.783,7.7833z" fill="#e3e4e5"/>
<path d="m134.28,161.227c0,4.2986-3.484,7.7833-7.783,7.7833-4.2985,0-7.7832-3.4847-7.7832-7.7833s3.4847-7.7833,7.7832-7.7833c4.299,0,7.783,3.4847,7.783,7.7833z" fill="#e3e4e5"/>
<path d="m134.856,142.5c0,4.2986-3.484,7.7833-7.783,7.7833-4.2985,0-7.7832-3.4847-7.7832-7.7833s3.4847-7.7833,7.7832-7.7833c4.299,0,7.783,3.4847,7.783,7.7833z" fill="#e3e4e5"/>
<path d="m238.797,94.7151c0,4.2986-3.485,7.7833-7.783,7.7833-4.299,0-7.784-3.4847-7.784-7.7833s3.485-7.7833,7.784-7.7833c4.298,0,7.783,3.4847,7.783,7.7833z" fill="#e3e4e5"/>
<path d="m230.096,92.7752c0,4.2986-3.484,7.7833-7.783,7.7833-4.298,0-7.783-3.4847-7.783-7.7833s3.485-7.7833,7.783-7.7833c4.299,0,7.783,3.4847,7.783,7.7833z" fill="#e3e4e5"/>
<path d="m220.864,91.2252c0,4.2986-3.484,7.7833-7.783,7.7833-4.298,0-7.783-3.4847-7.783-7.7833s3.485-7.7833,7.783-7.7833c4.299,0,7.783,3.4847,7.783,7.7833z" fill="#e3e4e5"/>
<path d="m211.399,90.1472c0,4.2986-3.485,7.7833-7.784,7.7833-4.298,0-7.783-3.4847-7.783-7.7833s3.485-7.7833,7.783-7.7833c4.299,0,7.784,3.4847,7.784,7.7833z" fill="#e3e4e5"/>
<path d="m200.703,90.1782c0,4.2986-3.484,7.7833-7.783,7.7833s-7.783-3.4847-7.783-7.7833,3.484-7.7833,7.783-7.7833,7.783,3.4847,7.783,7.7833z" fill="#e3e4e5"/>
<path d="m188.768,92.0592c0,4.2986-3.485,7.7833-7.783,7.7833-4.299,0-7.783-3.4847-7.783-7.7833s3.484-7.7833,7.783-7.7833c4.298,0,7.783,3.4847,7.783,7.7833z" fill="#e3e4e5"/>
<path d="m175.955,95.6419c0,4.2985-3.484,7.7832-7.783,7.7832s-7.783-3.4847-7.783-7.7832c0-4.2986,3.484-7.7833,7.783-7.7833s7.783,3.4847,7.783,7.7833z" fill="#e3e4e5"/>
<path d="m162.229,101.741c0,4.2986-3.484,7.7833-7.783,7.7833s-7.783-3.4847-7.783-7.7833,3.484-7.7833,7.783-7.7833,7.783,3.4847,7.783,7.7833z" fill="#e3e4e5"/>
<path d="m149.848,112.044c0,4.2986-3.484,7.7833-7.783,7.7833s-7.783-3.4847-7.783-7.7833,3.484-7.7833,7.783-7.7833,7.783,3.4847,7.783,7.7833z" fill="#e3e4e5"/>
<path d="m140.438,125.954c0,4.2986-3.485,7.7833-7.783,7.7833-4.299,0-7.7836-3.4847-7.7836-7.7833s3.4846-7.7833,7.7836-7.7833c4.298,0,7.783,3.4847,7.783,7.7833z" fill="#e3e4e5"/>
</g>
<g transform="matrix(-1,0,0,1,550.00016,0)">
<path d="M38.1744,222.248c-19.5456-30.647-14.7835-52.773-2.7995-70.692-24.0799,20.568-30.4156,51.655-9.1264,87.081z" fill="#eac102"/>
<path d="m265.38,111.527c-32.416,9.776-67.755,20.7763-99.77,16.0685-148.993-21.91-159.46,60.057-131.251,94.344l-8.1109,16.6966,7.6261,2.4216,9.7328-19.5565c-32.728-34.3674-17.7717-106.98,120.838-86.5759,33.376,4.913,70.105-6.3107,103.326-16.3293z" fill="#eac102"/>
<path d="m34.3594,221.94,9.248-0.4383" fill="none"/>
<path d="m229.707,115.424c0,4.2986-3.484,7.7833-7.783,7.7833-4.298,0-7.783-3.4847-7.783-7.7833s3.485-7.7833,7.783-7.7833c4.299,0,7.783,3.4847,7.783,7.7833z" fill="#e3e4e5"/>
<path d="m152.207,117.324c0,4.2986-3.484,7.7833-7.783,7.7833-4.298,0-7.783-3.4847-7.783-7.7833s3.485-7.7833,7.783-7.7833c4.299,0,7.783,3.4847,7.783,7.7833z" fill="#e3e4e5"/>
<path d="m171.457,119.574c0,4.2986-3.484,7.7833-7.783,7.7833-4.298,0-7.783-3.4847-7.783-7.7833s3.485-7.7833,7.783-7.7833c4.299,0,7.783,3.4847,7.783,7.7833z" fill="#e3e4e5"/>
<path d="m248.707,110.624c0,4.2986-3.484,7.7833-7.783,7.7833-4.298,0-7.783-3.4847-7.783-7.7833s3.485-7.7833,7.783-7.7833c4.299,0,7.783,3.4847,7.783,7.7833z" fill="#e3e4e5"/>
<path d="m267.457,105.224c0,4.2986-3.484,7.7833-7.783,7.7833-4.298,0-7.783-3.4847-7.783-7.7833s3.485-7.7833,7.783-7.7833c4.299,0,7.783,3.4847,7.783,7.7833z" fill="#e3e4e5"/>
<path d="m27.2531,227.678c0,4.2986-3.4847,7.7833-7.7833,7.7833s-7.7832-3.4847-7.7832-7.7833,3.4846-7.7833,7.7832-7.7833,7.7833,3.4847,7.7833,7.7833z" fill="#e3e4e5"/>
<path d="m19.7547,210.075c0,4.2986-3.4847,7.7833-7.7833,7.7833s-7.7833-3.4847-7.7833-7.7833,3.4847-7.7833,7.7833-7.7833,7.7833,3.4847,7.7833,7.7833z" fill="#e3e4e5"/>
<path d="m16.0667,191.674c0,4.2986-3.4847,7.7833-7.7833,7.7833s-7.7833-3.4847-7.7833-7.7833,3.4847-7.7833,7.7833-7.7833,7.7833,3.4847,7.7833,7.7833z" fill="#e3e4e5"/>
<path d="m19.4577,173.174c0,4.2986-3.4847,7.7833-7.7833,7.7833s-7.7832-3.4847-7.7832-7.7833,3.4846-7.7833,7.7832-7.7833,7.7833,3.4847,7.7833,7.7833z" fill="#e3e4e5"/>
<path d="m28.9577,156.674c0,4.2986-3.4847,7.7833-7.7833,7.7833s-7.7832-3.4847-7.7832-7.7833,3.4846-7.7833,7.7832-7.7833,7.7833,3.4847,7.7833,7.7833z" fill="#e3e4e5"/>
<path d="m41.4577,141.924c0,4.2986-3.4847,7.7833-7.7833,7.7833s-7.7832-3.4847-7.7832-7.7833,3.4846-7.7833,7.7832-7.7833,7.7833,3.4847,7.7833,7.7833z" fill="#e3e4e5"/>
<path d="m56.9577,130.924c0,4.2986-3.4847,7.7833-7.7833,7.7833s-7.7832-3.4847-7.7832-7.7833,3.4846-7.7833,7.7832-7.7833,7.7833,3.4847,7.7833,7.7833z" fill="#e3e4e5"/>
<path d="m74.7077,122.924c0,4.2986-3.4847,7.7833-7.7833,7.7833s-7.7832-3.4847-7.7832-7.7833,3.4846-7.7833,7.7832-7.7833,7.7833,3.4847,7.7833,7.7833z" fill="#e3e4e5"/>
<path d="m93.7073,118.424c0,4.2986-3.484,7.7833-7.783,7.7833s-7.783-3.4847-7.783-7.7833,3.484-7.7833,7.783-7.7833,7.783,3.4847,7.783,7.7833z" fill="#e3e4e5"/>
<path d="m113.207,116.424c0,4.2986-3.484,7.7833-7.783,7.7833-4.298,0-7.783-3.4847-7.783-7.7833s3.485-7.7833,7.783-7.7833c4.299,0,7.783,3.4847,7.783,7.7833z" fill="#e3e4e5"/>
<path d="m132.707,116.174c0,4.2986-3.484,7.7833-7.783,7.7833-4.298,0-7.783-3.4847-7.783-7.7833s3.485-7.7833,7.783-7.7833c4.299,0,7.783,3.4847,7.783,7.7833z" fill="#e3e4e5"/>
<path d="m190.957,120.924c0,4.2986-3.484,7.7833-7.783,7.7833-4.298,0-7.783-3.4847-7.783-7.7833s3.485-7.7833,7.783-7.7833c4.299,0,7.783,3.4847,7.783,7.7833z" fill="#e3e4e5"/>
<path d="m210.457,119.174c0,4.2986-3.484,7.7833-7.783,7.7833-4.298,0-7.783-3.4847-7.783-7.7833s3.485-7.7833,7.783-7.7833c4.299,0,7.783,3.4847,7.783,7.7833z" fill="#e3e4e5"/>
</g>
<g transform="matrix(-1,0,0,1,550.00016,0)">
<path d="m189.99,98.2883c-58.73,8.265-67.5589,61.293-37.213,98.7136l-11.164,18.1353,7.24,1.157,15.274-19.7261c-38.5558-45.6653-16.695-84.5872,27.063-89.8034,31.409-3.744,51.936,13.6751,83.81,10.5121v-8.4765c-24.666,3.6348-57.285-14.4137-85.01-10.512z" style="direction:ltr;enable-background:accumulate;block-progression:tb;text-indent:0;color:#000000;text-transform:none;text-align:start;" fill="#eac102"/>
<path d="m141.613,215.137,14.475-18.5104c-27.841-29.7755-24.557-82.9691,20.634-95.507-77.2708,17.8926-51.4273,72.8991-52.5184,102.232z" style="direction:ltr;enable-background:accumulate;block-progression:tb;text-indent:0;color:#000000;text-transform:none;text-align:start;" fill="#eac102"/>
<path d="m156.088,196.627,8.039-0.059" fill="none"/>
<path d="m273.033,101.369c0,4.2985-3.485,7.7832-7.783,7.7832-4.299,0-7.783-3.4847-7.783-7.7832,0-4.2986,3.484-7.7834,7.783-7.7834,4.298,0,7.783,3.4847,7.783,7.7834z" fill="#e3e4e5"/>
<path d="m263.377,100.563c0,4.2986-3.485,7.7833-7.783,7.7833-4.299,0-7.784-3.4847-7.784-7.7833s3.485-7.7833,7.784-7.7833c4.298,0,7.783,3.4847,7.783,7.7833z" fill="#e3e4e5"/>
<path d="m255.313,98.8239c0,4.2985-3.484,7.7832-7.783,7.7832s-7.783-3.4847-7.783-7.7832c0-4.2986,3.484-7.7833,7.783-7.7833s7.783,3.4847,7.783,7.7833z" fill="#e3e4e5"/>
<path d="m247.221,96.5981c0,4.2986-3.484,7.7833-7.783,7.7833s-7.783-3.4847-7.783-7.7833,3.484-7.7833,7.783-7.7833,7.783,3.4847,7.783,7.7833z" fill="#e3e4e5"/>
<path d="m146.223,198.155c0,4.2986-3.484,7.7833-7.783,7.7833s-7.783-3.4847-7.783-7.7833,3.484-7.7833,7.783-7.7833,7.783,3.4847,7.783,7.7833z" fill="#e3e4e5"/>
<path d="m138.498,180.127c0,4.2986-3.484,7.7833-7.783,7.7833s-7.7832-3.4847-7.7832-7.7833,3.4842-7.7833,7.7832-7.7833,7.783,3.4847,7.783,7.7833z" fill="#e3e4e5"/>
<path d="m134.28,161.227c0,4.2986-3.484,7.7833-7.783,7.7833-4.2985,0-7.7832-3.4847-7.7832-7.7833s3.4847-7.7833,7.7832-7.7833c4.299,0,7.783,3.4847,7.783,7.7833z" fill="#e3e4e5"/>
<path d="m134.856,142.5c0,4.2986-3.484,7.7833-7.783,7.7833-4.2985,0-7.7832-3.4847-7.7832-7.7833s3.4847-7.7833,7.7832-7.7833c4.299,0,7.783,3.4847,7.783,7.7833z" fill="#e3e4e5"/>
<path d="m238.797,94.7151c0,4.2986-3.485,7.7833-7.783,7.7833-4.299,0-7.784-3.4847-7.784-7.7833s3.485-7.7833,7.784-7.7833c4.298,0,7.783,3.4847,7.783,7.7833z" fill="#e3e4e5"/>
<path d="m230.096,92.7752c0,4.2986-3.484,7.7833-7.783,7.7833-4.298,0-7.783-3.4847-7.783-7.7833s3.485-7.7833,7.783-7.7833c4.299,0,7.783,3.4847,7.783,7.7833z" fill="#e3e4e5"/>
<path d="m220.864,91.2252c0,4.2986-3.484,7.7833-7.783,7.7833-4.298,0-7.783-3.4847-7.783-7.7833s3.485-7.7833,7.783-7.7833c4.299,0,7.783,3.4847,7.783,7.7833z" fill="#e3e4e5"/>
<path d="m211.399,90.1472c0,4.2986-3.485,7.7833-7.784,7.7833-4.298,0-7.783-3.4847-7.783-7.7833s3.485-7.7833,7.783-7.7833c4.299,0,7.784,3.4847,7.784,7.7833z" fill="#e3e4e5"/>
<path d="m200.703,90.1782c0,4.2986-3.484,7.7833-7.783,7.7833s-7.783-3.4847-7.783-7.7833,3.484-7.7833,7.783-7.7833,7.783,3.4847,7.783,7.7833z" fill="#e3e4e5"/>
<path d="m188.768,92.0592c0,4.2986-3.485,7.7833-7.783,7.7833-4.299,0-7.783-3.4847-7.783-7.7833s3.484-7.7833,7.783-7.7833c4.298,0,7.783,3.4847,7.783,7.7833z" fill="#e3e4e5"/>
<path d="m175.955,95.6419c0,4.2985-3.484,7.7832-7.783,7.7832s-7.783-3.4847-7.783-7.7832c0-4.2986,3.484-7.7833,7.783-7.7833s7.783,3.4847,7.783,7.7833z" fill="#e3e4e5"/>
<path d="m162.229,101.741c0,4.2986-3.484,7.7833-7.783,7.7833s-7.783-3.4847-7.783-7.7833,3.484-7.7833,7.783-7.7833,7.783,3.4847,7.783,7.7833z" fill="#e3e4e5"/>
<path d="m149.848,112.044c0,4.2986-3.484,7.7833-7.783,7.7833s-7.783-3.4847-7.783-7.7833,3.484-7.7833,7.783-7.7833,7.783,3.4847,7.783,7.7833z" fill="#e3e4e5"/>
<path d="m140.438,125.954c0,4.2986-3.485,7.7833-7.783,7.7833-4.299,0-7.7836-3.4847-7.7836-7.7833s3.4846-7.7833,7.7836-7.7833c4.298,0,7.783,3.4847,7.783,7.7833z" fill="#e3e4e5"/>
</g>
<g transform="translate(-1.45e-4,0)">
<path d="m271.05,60.9675,0-26.5354-12.191,0,0-7.8712,12.191,0,0-11.0614,7.899,0,0,11.0614,12.191,0,0,7.8712-12.191,0,0,26.5354z" fill="#eac102"/>
<path d="m296.614,72.931c0,11.9368-9.676,21.6135-21.613,21.6135s-21.614-9.6767-21.614-21.6135,9.677-21.6135,21.614-21.6135,21.613,9.6767,21.613,21.6135z" fill-rule="evenodd" fill="#0071bc"/>
<path d="m296.89,77.2341c0.853-2.1211,0.321-8.3173,0-8.6153,0-1.4117-7.564-2.5679-17.598-2.8336v-14.8834c-1.436-0.2424-2.863-0.3721-4.292-0.3721-1.42899,0-2.856,0.1297-4.29199,0.3721v14.8834c-10.035,0.2657-17.598,1.4219-17.598,2.8336-0.321,0.298-0.853,6.4942,0,8.6153,0-1.6075,9.796-2.9195,21.89-2.9195s21.89,1.312,21.89,2.9195z" fill="#eac102"/>
<path d="m300.254,193.031c-9.227-24.4431-5.848-66.0159-11.893-88.2943-2.443-9.002-8.669-13.2682-13.36-13.2682-4.692,0-10.918,4.2662-13.361,13.2682-6.044,22.2784-2.666,63.8512-11.893,88.2943l25.254,25.9688z" style="direction:ltr;enable-background:accumulate;block-progression:tb;text-indent:0;color:#000000;text-transform:none;text-align:start;" fill="#eac102"/>
<path d="m284.234,107.187c5.798,26.8503,1.488,56.6442,10.3,84.4065l-19.533,20.531-19.533-20.531c8.811-27.7623,4.502-57.5562,10.3-84.4065,1.017-4.7095,4.687-10.6875,9.233-10.6875s8.216,5.978,9.233,10.6875z" style="direction:ltr;enable-background:accumulate;block-progression:tb;text-indent:0;color:#000000;text-transform:none;text-align:start;" fill="#eac102"/>
<path d="m249.747,193.031,5.721-1.437" fill="none"/>
<path d="m300.254,193.031-5.72-1.437" fill="none"/>
<path d="m282.784,87.2342c0,4.2986-3.485,7.7833-7.784,7.7833-4.298,0-7.783-3.4847-7.783-7.7833s3.485-7.7833,7.783-7.7833c4.299,0,7.784,3.4847,7.784,7.7833z" fill="#e3e4e5"/>
<path d="m282.784,89.7562c0,4.2986-3.485,7.7833-7.784,7.7833-4.298,0-7.783-3.4847-7.783-7.7833s3.485-7.7833,7.783-7.7833c4.299,0,7.784,3.4847,7.784,7.7833z" fill="#e3e4e5"/>
<path d="m282.784,93.5032c0,4.2986-3.485,7.7833-7.784,7.7833-4.298,0-7.783-3.4847-7.783-7.7833s3.485-7.7833,7.783-7.7833c4.299,0,7.784,3.4847,7.784,7.7833z" fill="#e3e4e5"/>
<path d="m282.784,100.26c0,4.2986-3.485,7.7833-7.784,7.7833-4.298,0-7.783-3.4847-7.783-7.7833s3.485-7.7833,7.783-7.7833c4.299,0,7.784,3.4847,7.784,7.7833z" fill="#e3e4e5"/>
<path d="m282.784,192.199c0,4.2986-3.485,7.7833-7.784,7.7833-4.298,0-7.783-3.4847-7.783-7.7833s3.485-7.7833,7.783-7.7833c4.299,0,7.784,3.4847,7.784,7.7833z" fill="#e3e4e5"/>
<path d="m282.784,174.942c0,4.2986-3.485,7.7833-7.784,7.7833-4.298,0-7.783-3.4847-7.783-7.7833s3.485-7.7833,7.783-7.7833c4.299,0,7.784,3.4847,7.784,7.7833z" fill="#e3e4e5"/>
<path d="m282.784,156.774c0,4.2986-3.485,7.7833-7.784,7.7833-4.298,0-7.783-3.4847-7.783-7.7833s3.485-7.7833,7.783-7.7833c4.299,0,7.784,3.4847,7.784,7.7833z" fill="#e3e4e5"/>
<path d="m282.784,108.871c0,4.2986-3.485,7.7833-7.784,7.7833-4.298,0-7.783-3.4847-7.783-7.7833s3.485-7.7833,7.783-7.7833c4.299,0,7.784,3.4847,7.784,7.7833z" fill="#e3e4e5"/>
<path d="m282.784,121.146c0,4.2986-3.485,7.7833-7.784,7.7833-4.298,0-7.783-3.4847-7.783-7.7833s3.485-7.7833,7.783-7.7833c4.299,0,7.784,3.4847,7.784,7.7833z" fill="#e3e4e5"/>
<path d="m282.784,138.292c0,4.2986-3.485,7.7833-7.784,7.7833-4.298,0-7.783-3.4847-7.783-7.7833s3.485-7.7833,7.783-7.7833c4.299,0,7.784,3.4847,7.784,7.7833z" fill="#e3e4e5"/>
</g>
</g>
<g transform="translate(-1.95e-4,0)" stroke-dasharray="none" stroke-miterlimit="4" stroke-width="1">
<path d="m495.393,276.718c-8.975,15.1719-24.369,32.7123-39.404,43.5965l-12.431-5.9348c23.39-9.09,38.18-23.2181,51.835-37.6617z" fill="#eac102"/>
<path d="m54.6066,276.718c8.9757,15.1719,24.3692,32.7123,39.4046,43.5965l12.431-5.9348c-23.3895-9.089-38.1796-23.217-51.8354-37.661z" fill="#eac102"/>
<path d="m197.252,245.116c-3.7184,5.2736-8.6676,9.8613-15.8225,11.0783,2.9907,2.5085,3.8361,5.5877,4.1564,9.3835-10.8296-3.6326-16.1415-0.5234-22.0345-4.938l-6.6847-5.0077-2.5809-12.4057,4.3682-6.1271c3.7097-5.2035,11.1191-3.9049,19.0857-9.236,1.2392,3.7005,1.6837,6.8215-0.1589,9.8318,7.3481-0.2889,13.9622,3.1262,19.6712,7.4209z" fill="#eac102"/>
<path d="m352.748,245.116c3.719,5.2736,8.668,9.8613,15.823,11.0783-2.991,2.5085-3.836,5.5877-4.157,9.3835,10.83-3.6326,16.142-0.5234,22.035-4.938l6.685-5.0077,2.58-12.4057-4.368-6.1271c-3.709-5.2035-11.119-3.9049-19.085-9.236-1.24,3.7005-1.684,6.8215,0.158,9.8318-7.348-0.2889-13.962,3.1262-19.671,7.4209z" fill="#eac102"/>
<path d="m279.949,246.803c-0.03,2.357,0,10.9167,0,16.375,0,26.8315,47.244,38.9334,54.668,0.1849,0.433-2.2615,2.647-3.7158,4.938-3.4375,2.291,0.2784,4.04,2.325,3.936,4.625-1.644,36.3539,42.169,31.266,48.807,1.7839l3.884-17.25c0.56-2.487,3.458-4.1518,5.951-3.5938s4.381,3.2943,3.821,5.7813l-3.883,17.25c-6.534,29.0167,20.554,39.156,46.761,3.3584,1.429-1.951,4.348-2.6479,6.398-1.3626,2.051,1.2853,2.42,4.1842,1.399,6.375-20.412,43.8039,9.017,20.9357,32.108-6.9021,1.708-2.0597,5.095-2.5321,7.172-0.8437,2.078,1.6884,2.269,5.068,0.595,7.1562-43.1,53.7905-58.839,34.4945-56.253,18.9688-18.149,14.6189-40.479,13.3249-47.42-8.4688-16.133,18.161-45.313,18.7885-55.89-3.6562-17.45,23.1142-49.603,16.8251-61.941-2.5938-12.339,19.4189-44.491,25.708-61.9406,2.5938-10.5773,22.4447-39.7575,21.8172-55.8905,3.6562-6.9417,21.7937-29.2708,23.0877-47.4205,8.4688,2.5864,15.5257-13.1527,34.8217-56.2531-18.9688-1.6732-2.0882-1.4826-5.4678,0.5951-7.1562,2.0776-1.6884,5.4642-1.216,7.1726,0.8437,23.0903,27.8378,52.5196,50.706,32.1075,6.9021-1.0209-2.1908-0.6516-5.0897,1.3988-6.375,2.0505-1.2853,4.9694-0.5884,6.3979,1.3626,26.2075,35.7976,53.295,25.6583,46.7619-3.3584l-3.8838-17.25c-0.56-2.487,1.3283-5.2233,3.8212-5.7813s5.391,1.1068,5.951,3.5938l3.8839,17.25c6.6379,29.4821,50.4516,34.57,48.8077-1.7839-0.104-2.3,1.6449-4.3466,3.9358-4.625,2.2908-0.2783,4.5047,1.176,4.938,3.4375,7.4242,38.7485,54.6681,26.6466,54.6681-0.1849,0-5.4583,0.03-14.018,0-16.375-0.03-2.618,2.325-5.0625,4.949-5.0625s4.981,2.4445,4.949,5.0625z" style="direction:ltr;enable-background:accumulate;baseline-shift:baseline;block-progression:tb;text-indent:0;color:#000000;text-transform:none;text-align:start;" fill="#eac102"/>
<path d="m218.148,260.993c0,4.2986-3.4847,7.7833-7.7834,7.7833-4.2986,0-7.7832-3.4847-7.7832-7.7833s3.4846-7.7833,7.7832-7.7833c4.2987,0,7.7834,3.4847,7.7834,7.7833z" fill="#e3e4e5"/>
<path d="m102.336,254.971c5.709,4.2947,12.3174,7.6824,19.6654,7.3935-1.8425,3.0103-1.398,6.1311-0.1589,9.8316,9.8887-5.9042,15.4085-4.0122,19.0915-9.2083l4.3624-6.1548-2.5809-12.4057-6.6789-4.98c-5.751-4.2881-11.5644-1.418-22.0403-4.9657,0.3203,3.7958,1.1658,6.8752,4.1565,9.3837-7.155,1.217-12.0984,5.8321-15.8168,11.1057z" fill="#eac102"/>
<path d="m141.354,251.122c-15.0583-0.1803-19.3149,1.7509-32.5757,3.2053" fill="none"/>
<path d="m140.887,246.259c-9.5605-5.9455-16.2842-3.4499-22.3812-7.6965" fill="none"/>
<path d="m142.66,256.262c-6.5199,6.3489-11.5103,4.1196-17.1673,9.4916" fill="none"/>
<path d="m137.517,199.801c-1.9554,6.6722-4.9479,12.7039-2.046,20.3303-3.1219-2.3109-7.0152-3.1407-10.4248-2.2858,6.7597,10.3431,5.2872,16.3631,11.1929,21.2599l6.4556,5.3526,11.6229-1.2068,3.9766-6.4359c3.363-5.4427-0.089-11.5545,2.0866-22.6387-3.6136-0.1257-6.4736,0.3899-8.5223,3.2377-2.045-7.6948-7.7646-14.1275-14.3415-17.6133z" fill="#eac102"/>
<path d="m152.062,240.93c3.0504-7.2093,0.3384-14.1669,4.2377-22.2424" fill="none"/>
<path d="m144.078,242.417c-7.7426-7.8209-7.2971-14.9444-13.0184-20.7053" fill="none"/>
<path d="m147.908,240.978c-4.9101-13.0663-3.728-23.0395-8.243-34.519" fill="none"/>
<path d="m155.601,244.946c6.4846-7.1375,12.126-5.1582,18.6388-11.0823" fill="none"/>
<path d="m157.194,253.405c9.3105,3.6956,12.383,1.4504,22.3457,7.3195" fill="none"/>
<path d="m158.315,249.361c14.0856-3.8507,19.8943-1.2065,32.7492-3.5376" fill="none"/>
<path d="m159.492,250.014c0,5.5367-4.4884,10.025-10.025,10.025-5.5367,0-10.025-4.4883-10.025-10.025,0-5.5366,4.4883-10.025,10.025-10.025,5.5366,0,10.025,4.4884,10.025,10.025z" fill-rule="evenodd" stroke-dashoffset="0" fill="#ed1c24"/>
<path d="m45.0284,262.022c-6.8839-9.7629-12.5925-16.066-33.6374-17.8769,7.1999-10.8242,22.1943-13.9573,31.947-4.0797,0.9226-2.7035,1.4915-3.584,4.0702-6.0813,2.2993,7.0494,12.5388,12.3745,8.4764,24.9972l-3.9921,12.404z" fill="#eac102"/>
<path d="m84.5428,258.89c-1.5655,5.7689-4.0762,11.0782-8.6571,13.4773,2.4447,1.937,3.5521,4.7938,4.4334,8.438,0,0-10.52-0.8459-15.1004,0.2-5.2304,1.1944-9.2345-1.0531-10.0933-1.8962l-4.9364-9.74c3.7968-6.7716,4.5442-10.4909,7.3891-14.1769,2.8404-3.6804,7.4856-6.9131,10.8591-9.8031,1.4804,3.3953,2.3264,6.3609,1.6204,9.6065,4.8733-1.5276,9.9053,0.6782,14.4852,3.8946z" fill="#eac102"/>
<path d="m49.0826,267.582c-0.6133-5.1618,1.1642-9.8186,0.8473-13.9625-0.58-7.5826-3.0646-10.0801-2.7362-14.0515" fill="none"/>
<path d="m52.7809,273.812c8.1857-6.6192,15.6797-7.8271,25.5337-13.4183" fill="none"/>
<path d="m51.365,270.146c3.5803-6.0208,10.9481-9.3768,14.9246-18.7433" fill="none"/>
<path d="m53.9257,277.217c7.0415,0.9635,11.3117-3.1179,19.7357-0.063" fill="none"/>
<path d="m55.1255,279.109c-1.3286,0.6575-2.825,1.027-4.4078,1.027-5.4952,0-9.95-4.4547-9.95-9.95,0-3.3798,1.6852-6.366,4.2611-8.1643,5.3937,3.5591,9.3289,10.7909,10.0967,17.0873z" fill-rule="evenodd" stroke-dashoffset="0" fill="#ed1c24"/>
<path d="m306.932,235.731c2.597-2.7768,2.813-5.8964,2.319-9.6683-12.027,4.9938-17.034,2.3265-22.098,7.1179l-5.936,5.6165v12.4563l5.936,5.6165c5.064,4.7914,10.071,2.1241,22.098,7.118,0.494-3.772,0.278-6.8916-2.319-9.6684,7.793-0.467,14.003-4.4798,19.069-9.2943-5.066-4.8143-11.276-8.8271-19.069-9.2942z" fill="#eac102"/>
<path d="m284.114,245.025,34.687,0" fill="none"/>
<path d="m282.609,248.998c10.17,6.3041,14.353,4.4456,21.869,9.6999" fill="none"/>
<path d="m282.609,241.052c10.17-6.3041,14.353-4.4456,21.869-9.6999" fill="none"/>
<path d="m243.067,235.731c-2.597-2.7768-2.812-5.8964-2.319-9.6683,12.028,4.9938,17.035,2.3265,22.099,7.1179l5.936,5.6165v12.4563l-5.936,5.6165c-5.064,4.7914-10.071,2.1241-22.099,7.118-0.493-3.772-0.278-6.8916,2.319-9.6684-7.793-0.467-14.0028-4.4798-19.0684-9.2943,5.0656-4.8143,11.2754-8.8271,19.0684-9.2942z" fill="#eac102"/>
<path d="m265.886,245.025-34.687,0" fill="none"/>
<path d="m267.391,248.998c-10.17,6.3041-14.353,4.4456-21.87,9.6999" fill="none"/>
<path d="m267.391,241.052c-10.17-6.3041-14.353-4.4456-21.87-9.6999" fill="none"/>
<path d="m284.294,213.093c2.777-2.597,5.896-2.8124,9.668-2.3187-4.993,12.0274-2.326,17.0342-7.118,22.0981l-5.616,5.9359h-12.456l-5.617-5.9359c-4.791-5.0639-2.124-10.0707-7.118-22.0981,3.772-0.4937,6.892-0.2783,9.669,2.3187,0.467-7.7928,4.479-14.003,9.294-19.0687,4.814,5.0657,8.827,11.2759,9.294,19.0687z" fill="#eac102"/>
<path d="m275,235.912,0-34.6871" fill="none"/>
<path d="m271.027,237.416c-6.305-10.1701-4.446-14.3529-9.7-21.8694" fill="none"/>
<path d="m278.973,237.416c6.304-10.1701,4.446-14.3529,9.7-21.8694" fill="none"/>
<path d="m275,234.925c5.578,0,10.1,4.5219,10.1,10.1s-4.522,10.1-10.1,10.1-10.1-4.5219-10.1-10.1,4.522-10.1,10.1-10.1z" fill-rule="evenodd" stroke-dashoffset="0" fill="#ed1c24"/>
<path d="m331.852,260.993c0,4.2986,3.485,7.7833,7.784,7.7833,4.298,0,7.783-3.4847,7.783-7.7833s-3.485-7.7833-7.783-7.7833c-4.299,0-7.784,3.4847-7.784,7.7833z" fill="#e3e4e5"/>
<path d="m446.289,271.907c0,4.2986,3.485,7.7833,7.784,7.7833,4.298,0,7.783-3.4847,7.783-7.7833s-3.485-7.7833-7.783-7.7833c-4.299,0-7.784,3.4847-7.784,7.7833z" fill="#e3e4e5"/>
<path d="m447.665,254.971c-5.709,4.2947-12.318,7.6824-19.666,7.3935,1.843,3.0103,1.398,6.1311,0.159,9.8316-9.889-5.9042-15.409-4.0122-19.092-9.2083l-4.362-6.1548,2.581-12.4057,6.679-4.98c5.751-4.2881,11.564-1.418,22.04-4.9657-0.32,3.7958-1.166,6.8752-4.156,9.3837,7.155,1.217,12.098,5.8321,15.816,11.1057z" fill="#eac102"/>
<path d="m408.646,251.122c15.058-0.1803,19.315,1.7509,32.576,3.2053" fill="none"/>
<path d="m409.113,246.259c9.561-5.9455,16.284-3.4499,22.381-7.6965" fill="none"/>
<path d="m407.34,256.262c6.52,6.3489,11.51,4.1196,17.167,9.4916" fill="none"/>
<path d="m412.483,199.801c1.956,6.6722,4.948,12.7039,2.046,20.3303,3.122-2.3109,7.015-3.1407,10.425-2.2858-6.76,10.3431-5.287,16.3631-11.193,21.2599l-6.456,5.3526-11.622-1.2068-3.977-6.4359c-3.363-5.4427,0.09-11.5545-2.087-22.6387,3.614-0.1257,6.474,0.3899,8.523,3.2377,2.045-7.6948,7.764-14.1275,14.341-17.6133z" fill="#eac102"/>
<path d="m397.938,240.93c-3.051-7.2093-0.339-14.1669-4.238-22.2424" fill="none"/>
<path d="m405.922,242.417c7.743-7.8209,7.297-14.9444,13.018-20.7053" fill="none"/>
<path d="m402.092,240.978c4.911-13.0663,3.728-23.0395,8.243-34.519" fill="none"/>
<path d="m394.399,244.946c-6.484-7.1375-12.126-5.1582-18.638-11.0823" fill="none"/>
<path d="m392.806,253.405c-9.311,3.6956-12.383,1.4504-22.346,7.3195" fill="none"/>
<path d="m391.685,249.361c-14.086-3.8507-19.894-1.2065-32.749-3.5376" fill="none"/>
<path d="m390.508,250.014c0,5.5367,4.488,10.025,10.025,10.025s10.025-4.4883,10.025-10.025c0-5.5366-4.488-10.025-10.025-10.025s-10.025,4.4884-10.025,10.025z" fill-rule="evenodd" stroke-dashoffset="0" fill="#ed1c24"/>
<path d="m504.972,262.022c6.884-9.7629,12.592-16.066,33.637-17.8769-7.2-10.8242-22.194-13.9573-31.947-4.0797-0.923-2.7035-1.491-3.584-4.07-6.0813-2.299,7.0494-12.539,12.3745-8.476,24.9972l3.992,12.404z" fill="#eac102"/>
<path d="m500.917,267.582c0.614-5.1618-1.164-9.8186-0.847-13.9625,0.58-7.5826,3.065-10.0801,2.736-14.0515" fill="none"/>
<path d="m465.457,258.89c1.566,5.7689,4.076,11.0782,8.657,13.4773-2.444,1.937-3.552,4.7938-4.433,8.438,0,0,10.52-0.8459,15.1,0.2,5.231,1.1944,9.235-1.0531,10.094-1.8962l4.936-9.7402c-3.797-6.7716-4.544-10.4909-7.389-14.1769-2.84-3.6804-7.486-6.9131-10.859-9.8031-1.481,3.3953-2.327,6.3609-1.621,9.6065-4.873-1.5276-9.905,0.6782-14.485,3.8946z" fill="#eac102"/>
<path d="m497.219,273.812c-8.186-6.6192-15.68-7.8271-25.534-13.4183" fill="none"/>
<path d="m498.635,270.146c-3.58-6.0208-10.948-9.3768-14.925-18.7433" fill="none"/>
<path d="m496.074,277.217c-7.041,0.9635-11.311-3.1179-19.735-0.063" fill="none"/>
<path d="m494.875,279.109c1.328,0.6575,2.825,1.027,4.407,1.027,5.496,0,9.95-4.4547,9.95-9.95,0-3.3798-1.685-6.366-4.261-8.1643-5.393,3.5591-9.329,10.7909-10.096,17.0873z" fill-rule="evenodd" stroke-dashoffset="0" fill="#ed1c24"/>
<path d="m103.711,271.907c0,4.2986-3.4847,7.7833-7.7834,7.7833-4.2986,0-7.7832-3.4847-7.7832-7.7833s3.4846-7.7833,7.7832-7.7833c4.2987,0,7.7834,3.4847,7.7834,7.7833z" fill="#e3e4e5"/>
</g>
<g transform="translate(-2.5e-6,0)">
<path style="direction:ltr;block-progression:tb;text-indent:0;color:#000000;enable-background:accumulate;text-transform:none;text-align:start;" d="m104.225,363.698c0,6.8981,37.4409,20.9248,170.775,20.9248s170.775-14.0267,170.775-20.9248-37.4409-20.9248-170.775-20.9248-170.775,14.0267-170.775,20.9248z" stroke-miterlimit="4" stroke-dasharray="none" stroke-width="1" fill="#ed1c24"/>
<path d="m125.422,354.527,0,18.3414" stroke-miterlimit="4" stroke-dasharray="none" stroke-width="5.49999952" fill="none"/>
<path d="m131.859,353.038,0,21.3188" stroke-miterlimit="4" stroke-dasharray="none" stroke-width="5.24999952" fill="none"/>
<path d="m138.296,352.061,0,23.2727" stroke-miterlimit="4" stroke-dasharray="none" stroke-width="4.99999952" fill="none"/>
<path d="m144.733,350.852,0,25.6918" stroke-miterlimit="4" stroke-dasharray="none" stroke-width="4.74999952" fill="none"/>
<path d="m151.171,349.782,0,27.8318" stroke-miterlimit="4" stroke-dasharray="none" stroke-width="4.49999952" fill="none"/>
<path d="m157.608,348.851,0,29.6926" stroke-miterlimit="4" stroke-dasharray="none" stroke-width="4.24999952" fill="none"/>
<path d="m164.045,347.921,0,31.5534" stroke-miterlimit="4" stroke-dasharray="none" stroke-width="4" fill="none"/>
<path d="m170.482,347.13,0,33.1351" stroke-miterlimit="4" stroke-dasharray="none" stroke-width="3.74999976" fill="none"/>
<path d="m176.92,346.618,0,34.1586" stroke-miterlimit="4" stroke-dasharray="none" stroke-width="3.5" fill="none"/>
<path d="m183.357,346.014,0,35.3682" stroke-miterlimit="4" stroke-dasharray="none" stroke-width="3.25" fill="none"/>
<path d="m189.794,345.083,0,37.229" stroke-miterlimit="4" stroke-dasharray="none" stroke-width="2.99999976" fill="none"/>
<path d="m196.232,344.571,0,38.2525" stroke-miterlimit="4" stroke-dasharray="none" stroke-width="2.74999976" fill="none"/>
<path d="m202.669,344.339,0,38.7177" stroke-miterlimit="4" stroke-dasharray="none" stroke-width="2.49999976" fill="none"/>
<path d="m209.106,343.78,0,39.8342" stroke-miterlimit="4" stroke-dasharray="none" stroke-width="2.24999976" fill="none"/>
<path d="m215.543,343.315,0,40.7646" stroke-miterlimit="4" stroke-dasharray="none" stroke-width="2" fill="none"/>
<path d="m221.981,343.036,0,41.3229" stroke-miterlimit="4" stroke-dasharray="none" stroke-width="1.75" fill="none"/>
<path d="m228.418,342.618,0,42.1603" stroke-miterlimit="4" stroke-dasharray="none" stroke-width="1.49999988" fill="none"/>
<path d="m234.855,342.338,0,42.7185" stroke-miterlimit="4" stroke-dasharray="none" stroke-width="1.24999988" fill="none"/>
<path d="m241.292,341.501,0,44.3936" stroke-width="1px" fill="none"/>
<path d="m247.73,341.501,0,44.3936" stroke-miterlimit="4" stroke-dasharray="none" stroke-width="0.74999988" fill="none"/>
<path d="m254.167,341.501,0,44.3936" stroke-miterlimit="4" stroke-dasharray="none" stroke-width="0.5" fill="none"/>
<path d="m260.604,341.501,0,44.3936" stroke-miterlimit="4" stroke-dasharray="none" stroke-width="0.25" fill="none"/>
<path d="m112.547,358.946,0,9.5024" stroke-miterlimit="4" stroke-dasharray="none" stroke-width="5.99999952" fill="none"/>
<path d="m118.984,356.574,0,14.2476" stroke-miterlimit="4" stroke-dasharray="none" stroke-width="5.74999952" fill="none"/>
<path d="m424.579,354.527,0,18.3414" stroke-miterlimit="4" stroke-dasharray="none" stroke-width="5.49999952" fill="none"/>
<path d="m418.142,353.038,0,21.3188" stroke-miterlimit="4" stroke-dasharray="none" stroke-width="5.24999952" fill="none"/>
<path d="m411.704,352.061,0,23.2727" stroke-miterlimit="4" stroke-dasharray="none" stroke-width="4.99999952" fill="none"/>
<path d="m405.267,350.852,0,25.6918" stroke-miterlimit="4" stroke-dasharray="none" stroke-width="4.74999952" fill="none"/>
<path d="m398.83,349.782,0,27.8318" stroke-miterlimit="4" stroke-dasharray="none" stroke-width="4.49999952" fill="none"/>
<path d="m392.393,348.851,0,29.6926" stroke-miterlimit="4" stroke-dasharray="none" stroke-width="4.24999952" fill="none"/>
<path d="m385.955,347.921,0,31.5534" stroke-miterlimit="4" stroke-dasharray="none" stroke-width="4" fill="none"/>
<path d="m379.518,347.13,0,33.1351" stroke-miterlimit="4" stroke-dasharray="none" stroke-width="3.74999976" fill="none"/>
<path d="m373.081,346.618,0,34.1586" stroke-miterlimit="4" stroke-dasharray="none" stroke-width="3.5" fill="none"/>
<path d="m366.643,346.014,0,35.3682" stroke-miterlimit="4" stroke-dasharray="none" stroke-width="3.25" fill="none"/>
<path d="m360.206,345.083,0,37.229" stroke-miterlimit="4" stroke-dasharray="none" stroke-width="2.99999976" fill="none"/>
<path d="m353.769,344.571,0,38.2525" stroke-miterlimit="4" stroke-dasharray="none" stroke-width="2.74999976" fill="none"/>
<path d="m347.332,344.339,0,38.7177" stroke-miterlimit="4" stroke-dasharray="none" stroke-width="2.49999976" fill="none"/>
<path d="m340.894,343.78,0,39.8342" stroke-miterlimit="4" stroke-dasharray="none" stroke-width="2.24999976" fill="none"/>
<path d="m334.457,343.315,0,40.7646" stroke-miterlimit="4" stroke-dasharray="none" stroke-width="2" fill="none"/>
<path d="m328.02,343.036,0,41.3229" stroke-miterlimit="4" stroke-dasharray="none" stroke-width="1.75" fill="none"/>
<path d="m321.583,342.618,0,42.1603" stroke-miterlimit="4" stroke-dasharray="none" stroke-width="1.49999988" fill="none"/>
<path d="m315.145,342.338,0,42.7185" stroke-miterlimit="4" stroke-dasharray="none" stroke-width="1.24999988" fill="none"/>
<path d="m308.708,341.501,0,44.3936" stroke-width="1px" fill="none"/>
<path d="m302.271,341.501,0,44.3936" stroke-miterlimit="4" stroke-dasharray="none" stroke-width="0.74999988" fill="none"/>
<path d="m295.834,341.501,0,44.3936" stroke-miterlimit="4" stroke-dasharray="none" stroke-width="0.5" fill="none"/>
<path d="m289.396,341.501,0,44.3936" stroke-miterlimit="4" stroke-dasharray="none" stroke-width="0.25" fill="none"/>
<path d="m437.453,358.946,0,9.5024" stroke-miterlimit="4" stroke-dasharray="none" stroke-width="5.99999952" fill="none"/>
<path d="m431.016,356.574,0,14.2476" stroke-miterlimit="4" stroke-dasharray="none" stroke-width="5.74999952" fill="none"/>
<path style="direction:ltr;block-progression:tb;text-indent:0;color:#000000;enable-background:accumulate;text-transform:none;text-align:start;" d="m466.107,324.063c0,10.3401-24.1618,17.0191-57.0104,21.2507h-268.194c-32.8486-4.232-57.0104-10.911-57.0104-21.251,0-23.3131,122.823-28.0161,191.107-28.0161,68.2845,0,191.107,4.703,191.107,28.0161zm-370.492,0c0,2.2812,41.1368,17.9877,179.385,17.9877s179.385-15.7065,179.385-17.9877c0-2.2813-41.1368-17.9878-179.385-17.9878s-179.385,15.7065-179.385,17.9878z" stroke-miterlimit="4" stroke-dasharray="none" stroke-width="1" fill="#eac102"/>
<path style="direction:ltr;block-progression:tb;text-indent:0;color:#000000;enable-background:accumulate;text-transform:none;text-align:start;" d="m376.697,345.311,67.8547,14.8369c2.5376-12.2546,6.5047-22.8036,12.9079-33.9408,0-9.429-73.2278-20.9244-182.46-20.9244s-182.46,11.4954-182.46,20.9244c6.40321,11.1372,10.3704,21.6862,12.908,33.9408l67.8547-14.8369z" stroke-miterlimit="4" stroke-dasharray="none" stroke-width="1" fill="#eac102"/>
<path d="m154.94,321.039,35.129-3.35906c3.52452-0.33706,6.63342,2.23814,6.97075,5.77401,0.33724,3.53586-2.22872,6.65369-5.75323,6.99074l-35.1289,3.35907c-3.52451,0.33706-6.63351-2.23814-6.97075-5.77401-0.33723-3.53586,2.22863-6.65369,5.75314-6.99075z" fill-rule="evenodd" stroke-miterlimit="4" stroke-dasharray="none" stroke-width="1" fill="#008f4c"/>
<path d="m136.34,330.953c0,4.30831-3.48818,7.80088-7.79107,7.80088s-7.79097-3.49257-7.79097-7.80088,3.48808-7.80087,7.79097-7.80087,7.79107,3.49256,7.79107,7.80087z" stroke-miterlimit="4" stroke-dasharray="none" stroke-width="1" fill="#e3e4e5"/>
<path d="m230.064,322.475c0,4.30831-3.48768,7.80088-7.79057,7.80088s-7.79107-3.49257-7.79107-7.80088,3.48818-7.80087,7.79107-7.80087,7.79057,3.49256,7.79057,7.80087z" stroke-miterlimit="4" stroke-dasharray="none" stroke-width="1" fill="#e3e4e5"/>
<path d="m255.881,314.592,38.138,0,10.01,6.68456-10.01,6.68456-38.138,0-9.90987-6.68456z" stroke-miterlimit="4" stroke-dasharray="none" stroke-width="1" fill="#ed1c24"/>
<path d="m294.119,314.592-9.16013,5.98248,9.16013,7.38664" stroke-miterlimit="4" stroke-dasharray="none" stroke-width="1" fill="none"/>
<path d="m255.881,314.592,9.16013,5.98248-9.16013,7.38664" stroke-miterlimit="4" stroke-dasharray="none" stroke-width="1" fill="none"/>
<path d="m245.971,321.277,19.07-0.70208,19.9179,0,19.07,0.70208" stroke-miterlimit="4" stroke-dasharray="none" stroke-width="1" fill="none"/>
<path d="m93.8798,342.308,2.62792-8.57081,14.0681,1.92364-8.55384,11.4179z" stroke-miterlimit="4" stroke-dasharray="none" stroke-width="1" fill="#ed1c24"/>
<path d="m93.8798,342.308,16.6961-6.64717" stroke-miterlimit="4" stroke-dasharray="none" stroke-width="1" fill="none"/>
<path d="m395.06,321.039-35.129-3.35906c-3.52452-0.33706-6.63362,2.23814-6.96995,5.77401-0.33734,3.53586,2.22822,6.65369,5.75273,6.99074l35.129,3.35907c3.52451,0.33706,6.63361-2.23814,6.97095-5.77401,0.33733-3.53586-2.22923-6.65369-5.75374-6.99075z" fill-rule="evenodd" stroke-miterlimit="4" stroke-dasharray="none" stroke-width="1" fill="#008f4c"/>
<path d="m413.661,330.953c0,4.30831,3.48747,7.80088,7.79076,7.80088s7.79077-3.49257,7.79077-7.80088-3.48748-7.80087-7.79077-7.80087-7.79076,3.49256-7.79076,7.80087z" stroke-miterlimit="4" stroke-dasharray="none" stroke-width="1" fill="#e3e4e5"/>
<path d="m319.936,322.475c0,4.30831,3.48848,7.80088,7.79077,7.80088,4.30329,0,7.79177-3.49257,7.79177-7.80088s-3.48848-7.80087-7.79177-7.80087c-4.30229,0-7.79077,3.49256-7.79077,7.80087z" stroke-miterlimit="4" stroke-dasharray="none" stroke-width="1" fill="#e3e4e5"/>
<path d="m456.12,342.308-2.62762-8.57081-14.068,1.92364,8.55353,11.4179z" stroke-miterlimit="4" stroke-dasharray="none" stroke-width="1" fill="#ed1c24"/>
<path d="m456.12,342.308-16.6956-6.64717" stroke-miterlimit="4" stroke-dasharray="none" stroke-width="1" fill="none"/>
<path style="direction:ltr;block-progression:tb;text-indent:0;color:#000000;enable-background:accumulate;text-transform:none;text-align:start;" d="m109.581,363.698c0-2.1539,38.7379-16.5662,165.419-16.5662s165.418,14.4123,165.418,16.5662c0,2.154-38.7379,16.5663-165.418,16.5663-126.681,0-165.419-14.4123-165.419-16.5663zm-10.8096,0c0-21.9846,117.737-25.8018,176.228-25.8018,58.4916,0,176.228,3.8172,176.228,25.8018,0,21.9847-117.736,25.8019-176.228,25.8019-58.4917,0-176.228-3.8172-176.228-25.8019z" fill-rule="evenodd" stroke-miterlimit="4" stroke-dasharray="none" stroke-width="1" fill="#eac102"/>
</g>
</g>
<g stroke-linejoin="round" stroke="#000" stroke-linecap="round" stroke-miterlimit="4">
<path d="M25.5,360.5v349.5c0,137.724,111.776,249.5,249.5,249.5s249.5-111.776,249.5-249.5v-349.5z" fill="#e3e4e5"/>
<path d="m25.5,360.5,0,349.5c0,137.724,111.776,249.5,249.5,249.5v-599z" fill="#ed1c24"/>
<path d="m25.5,650,0,60c0,137.724,111.776,249.5,249.5,249.5s249.5-111.776,249.5-249.5v-60z" fill="#0071bc"/>
</g>
<path stroke-linejoin="round" d="M395.757,928.346c-46.288-20.882-87.371-51.238-120.757-88.646-33.385,37.408-74.468,67.764-120.756,88.646,35.791,19.851,76.956,31.154,120.756,31.154,43.801,0,84.966-11.303,120.757-31.154z" fill-rule="nonzero" stroke="#000" stroke-linecap="round" stroke-miterlimit="4" stroke-dasharray="none" stroke-width="1" fill="#e3e4e5"/>
<g stroke-linejoin="round" stroke="#000" stroke-linecap="round" stroke-miterlimit="4">
<g stroke-width="1.00000012" stroke-dasharray="none" transform="translate(-583.3303,-704.838)">
<path d="m992.236,1235.73s-0.1856-3.715,1.2862-5.409c2.2525-2.594,11.2672-11.031,18.2002-14.17,5.33-2.414,20.684-2.346,23.994-3.426l-0.808-2.364c-0.907-0.878-16.212,0.595-19.125-0.529-3.751-1.448,6.302-11.724,7.491-12.89l-2.971-1.113c-7.333,3.346-13.102,16.01-14.544,17.225-4.136,3.484-11.1124,7.578-13.2645,7.564,0.2078-3.903-0.1594-6.625,0.5345-8.873,2.1374-6.937,12.222-20.516,16.701-24.743l-2.812-2.393c-2.709,1.683-5.173,6.456-9.0829,9.798-0.7112-0.243-2.5043-4.276-3.6504-5.56l-2.7764,1.376c-0.01,1.149,2.3927,8.479,2.2691,9.306-2.0564,2.941-3.906,5.824-5.0396,7.901-1.293,2.374-3.8983,7.848-5.5595,12.025-1.1578,2.915-2.5425,5.903-2.3541,9.742-0.1884-3.846,1.2282-6.826,2.3541-9.742-1.7955-1.659-4.7284-4.127-6.4079-6.456-0.6243-0.867,0.019-9.679,0.6271-10.534,1.0766-1.524,0.8166-6.158,1.4273-11.379,0.3054-2.617,9.8231-8.87,10.3498-9.277l-1.4717-2.157c-2.7136,0.08-10.5566,4.895-13.0786,8.343-1.0235,0.118-9.9391-6.273-12.009-8.343l-2.126,1.341c1.5877,1.834,3.3339,3.312,4.9816,4.739,1.4997,1.3,8.0816,6.895,7.4032,9.147-1.5113,5.02-2.2796,13.892-2.7638,14.731-2.669-0.96-11.8765-6.691-16.4135-7.637-2.6207-3.913-5.2511-11.863-8.2663-15.23l-2.6865,0.876c1.4486,5.136,2.9513,9.774,5.1769,14.748l4.5823,5.699c7.4005,2.69,16.3624,7.888,17.4109,15.726,0.5383,4.027,1.0688,6.729,0.9238,9.393,0.5462,2.079,1.3443,3.001,2.0807,5.437,0.5527,1.824,0.9973,5.6,0.8195,8.982-0.203,3.871,0.6242,14.017,0.1749,18.115-1.5897,2.754-0.4735,9.272-0.7141,11.83-1.0553,11.241-3.4452,10.887-19.5108,13.286-2.1269,0.318-8.4731,2.686-16.4396,2.472,12.1925,3.202,15.3562,1.659,18.4447,1.434,6.1915-0.45,5.8263,2.084,12.9908,0.04-6.4601,6.319-1.697,3.765-8.0865,4.594-4.5796,0.592-9.2315,7.734-18.6208,3.754,2.4866,2.235,4.7923,4.102,6.1375,4.349,5.7912,1.06,11.4213-5.599,16.4434-3.742-4.624,6.995-6.8708,11.394-1.7693,17.034-2.5686-4.011,1.6737-10.518,4.9419-15.507,1.7337-2.647,4.7845-5.968,7.298-8.45-0.2214-1.728,0.8493-3.622,1.7354-5.134-0.8648,1.491-1.9519,3.405-1.7354,5.134,0.168,1.33,0.6628,2.971,2.0901,4.614,1.6166,1.86,4.827,5.34,0.8968,6.913-11.089,4.444-1.3935,14.05,0.3701,17.245-0.3508-4.446-4.5988-9.245,0.058-11.881,4.1321-2.341,9.4143-3.166,6.9452-7.671-3.939-7.193-1.8119-7.621-2.2053-11.905,1.2013,2.297,1.8787,4.474,2.9552,5.876,9.6799,12.621,2.8218,15.236,1.838,25.581,13.1767-21.149,1.8613-19.386,2.1617-30.687,7.3604,6.49,18.478,16.419,11.722,26.349,7.953-3.695,4.419-9.45,4.541-13.49,5.407,1.863,9.287,1.349,12.74,0.327-16.23-2.85-12.204-3.383-21.029-11.379-1.3336-1.208-2.8059-2.671-3.6988-4.012,1.149,1.656,3.0378,3.49,3.6988,4.012,2.436-0.09,4.802,0.02,8.172,0.187,4.674,0.235,4.304-2.191,7.563-1.598,9.454,1.719,12.927,0.976,15.265-1.982-4.755,1.302-9.014,1.004-13.61-1.085-3.006-1.366-6.272,1.137-11.267-0.384-9.6721-2.946-10.7195-5.509-11.0714-14.289-0.1129-2.824,0.3963-11.503,0.058-13.252-0.9701-5.015-0.3459-14.242-0.6735-16.693-0.2986-2.236-0.8822-6.616-0.2077-11.874z" fill="#c87137"/>
<path d="m937.644,1187.48c-1.6169-0.435-3.2619,2.992-4.648,0.09-2.6482-1.723-1.7117,6.743-4.6062,3.116-0.5915-3.045-2.8232-1.272-4.4198-0.251-1.2052-0.377,1.2052-2.684-1.5938-1.644-3.4959,1.932-1.5329-3.879-4.677-2.2-2.8415,0.973-0.2551-4.467-4.0757-3.403-4.04,0.932-3.6466-4.292-7.6915-3.522-3.691,0.07,1.9572-5.348-2.5621-3.561-2.5844,1.306-2.9053-0.759-2.6975-2.547-1.1289-1.225-4.7735-2.723-1.0438-3.506,3.8612-1.074-0.1856-2.35-1.4836-3.57,0.8621-0.848,5.6888-1.707,1.8779-2.218-0.806-0.931,1.2062-3.839-1.1462-2.056-4.1744,0.895,0.01-5.152-3.0349-4.416-3.7858-0.814-1.558-3.825,0.4244-4.429-1.679,0.486-6.4854-0.02-3.4564-2.081,2.2829-1.263,0.1431-1.636-0.8969-1.915-1.1201-2.651,7.4016-2.931,2.0819-2.641-4.0207-2.475,2.2733-4.045,4.6731-3.229,1.8257-0.255,0.2465-1.971,2.5351-1.722,0.7568-0.943-4.0622-1.83-0.9723-3.325,1.7852,0.302,3.5674-1.077,1.2835-2.095-3.9897,0.662,2.1718-3.962-1.9494-3.574-2.9555,0.24-3.0309-1.353-0.4678-2.134,2.1089-2.098,5.3264-2.876,7.0979-0.187,1.7213,1.556,6.1644-1.07,3.8545-1.765-3.1325,1.292-1.6208-1.338-2.1109-2.397-3.2831,1.881-4.2825-3.463-0.6843-3.165,2.426-0.373-0.2339-3.29,2.6319-1.866,1.672,1.089,4.1723,0.169,4.6913-0.522,1.6586,3.709,6.4457-0.775,7.5717,2.671-0.8157,2.566,3.4939,2.621,2.4394-0.111,2.4028-1.09-1.6198-3.431,1.2981-2.835,2.6675-0.28-1.4914-3.999,1.8489-2.417,1.4081,0.991,3.3807,3.776,3.0859,0.294,1.6208-2.139,4.3667,2.812,6.5568,0.315,3.2997,0.678,0.2784,10.695,4.6363,6.699" fill-rule="evenodd" fill="#008f4c"/>
<path d="m895.061,1151.76c1.0159,1.99-5.5419-0.679-3.3247,2.481,2.1988,5.229-3.9752-0.915-4.8229,2.826,2.8454,3.356,1.6064,4.328,0,5.609,0.5007,0.554,1.0912,0.761,1.9785,1.132-0.9714,0.893-1.9785,1.752-1.9785,2.515,0,1.52,2.0171,2.352,3.1025,3.458-2.482,1.801-0.5306,3.219,1.4053,4.016,0.9733,2.802-1.5812,6.974,1.703,8.753,1.2854,2.124-1.6296,6.754,2.1823,5.85,4.7398-0.702-3.0648,5.038,1.4798,5.494,2.6908,0.196,2.0384,7.606,4.5803,3.426,2.2413-4.435,2.1408,3.496,3.4523,3.237,1.0631-1.226,2.8453-4.852,2.4133-0.861,0.3837,1.784,4.5368,0.207,1.6238,2.564-1.1841,3.257,3.9568,3.209,4.0254,3.485-1.1317,4.495,2.4743,6.276,4.4585,2.898-0.6205,1.327-2.2133,7.06,1.0284,5.731,2.0093-2.437,1.4942,0.06,1.8904,1.659,2.0559,2.529,4.7534-6.188,3.2176-1.292-0.289,1.758,0.1981,4.513,0.9288,4.513,1.4517,0,3.3644-3.799,3.0348-6.011,0.1721-1.874,1.067-3.574,1.8517-1.931,0.6225-1.738,1.5938-3.128,1.56-0.173,0.9529,3.278,2.9546,1.019,3.1721-1.163,3.0541,0.112-0.1778,5.319,3.1508,3.693,3.7597-1.832-0.8032,4.7,2.2017,5.585,1.8151-1.671,6.4958-4.827,3.5209-8.044-0.7761-2.811,0.5442-6.662,2.9633-4.658-1.3405,1.3-1.673,3.905,0.6863,3.054,2.4675,0.297-1.9514,3.245,1.1038,4.011,2.0635,3.593,2.7352-4.843,4.9203-0.67,1.1695-0.896-1.1142-7.298,2.2036-5.991-0.7751-2.336-2.4307-4.558-0.087-6.2,1.6256-3.975-3.4465-2.72-2.5564-6.732,1.6807,1.499,4.4816-0.49,5.2297,2.409,0.3421-3.251,1.763-2.382,3.0397-0.151,2.0113-1.192-3.8351-7.712,0.1721-5.4,3.6746,1.459-1.4701-6.017,1.7851-6.353,0.097-3.634-4.1242-3.701-4.7321-5.624,0.5963-0.528,1.3059-0.817,1.8558-1.442" fill-rule="evenodd" fill="#008f4c"/>
<path d="m1061.35,1159.75c-0.179,1.621,8.361-0.855,7.074,2.093-0.512,3.934,5.222-2.615,6.155,0.845-2.423,1.875-1.361,3.074,1.801,3.179,2.759,0.443-3.783,1.097-0.213,2.029,4.284,1.027-2.503,4.04,3.083,4.483-2.013,1.478-4.24,3.454-1.571,5.402,2.093,2.048-2.018,4.246,1.571,6.241-0.811,1.62-7.427,1.556,0,4.727-1.1,1.684-5.032,1.911-2.686,4.767-0.71,2.043-6.478-2.523-4.67,1.594,1.699,3.766-3.241,0.09-3.876,0.805,2.545,2.071-2.137,1.939-1.565,3.029,4.879,0.705-1.106,4.13-1.676,3.945,2.529,2.047,0.275,5.242-2.982,3.33-2.193,0.05,4.939,2.919,0.719,3.73-2.165-0.455-4.052-0.295-1.633,1.511-1.502,2.227-5.41-0.93-5.399-0.403,3.848,1.788-0.113,4.35-2.52,2.143-1.574-0.997-2.883-3.874-3.804-1.688-2.098-1.335-2.509-0.999-1.651,1.009-1.457,3.329-4.6-2.822-5.229,1.244,2.48,3.455-0.979,1.605-0.825,5.491-1.23-0.203-4.031-2.97-5.315-2.29-2.785-0.436-0.347-2.368-3.12-3.758-1.196-1.905-5.668,0.597-1.523,1.184,1.195,1.321-4.926,1.464-1.167,2.557,1.382,0.728-0.238,2.076-1.833,2.307-1.446-1.37-2.684-1.057-4.35,0-0.306-2.75-1.945-3.363-4.185-3.089,0.364-1.721,0.688-3.758-2.136-4.009-3.223-1.987,2.859-3.214,0.176-5.195-1.637,1.91-4.78,0.557-4.55,3.03-1.309-1.319-2.805-1.713-3.186,0.422-2.028,1.522-0.685-4.619-0.954-3.946-1.833,1.103-3.709,2.292-3.535-0.571,0.149-1.89-1.037-1.916-2.428-2.651-0.928-2.375,7.831-4.503,7.531-5.957-0.817-0.166-4.949-1.469-5.752-1.716" fill-rule="evenodd" fill="#008f4c"/>
<path d="m995.099,1191.3c1.9481-0.389-0.3556,3.715,3.0625,2.277,4.8523-0.837-2.4777,3.853,1.3134,5.011,2.0079-1.832,3.9089-2.137,4.2079,0.752,0.696,2.586,1.308-3.26,2.685-0.06,1.438,2.959,4.829-3.411,5.421,0.811,1.921-0.304,3.102-3.751,5.683-1.425,2.991,2.314,5.737-2.243,8.756,0.559,2.341,1.134,1.655-5.824,4.05-1.894,2.125,3.562,3.283-2.765,6.843-1.362,3.127-0.244-3.402-4.704,1.083-3.983,2.09,0.03,3.959-0.03,1.932-1.78-1.58-1.664-0.868-1.656,1.237-1.194,0.838-0.591,1.08-3.695,2.095-1.133,2.186,2.22,4.071-2.731,4.165-2.775,2.682,1.785,6.391-0.447,3.783-2.874-0.241-1.946,3.932,3.697,4.586,0.1-0.717-1.684-0.727-3.292,1.664-1.561,2.614-1.499-1.546-4.252-0.935-4.34,2.467,2.9,5.28-0.659,2.39-2.336-1.324-1.145-4.962-1.835-2.379-2.871-1.781-1.537-1.423-1.919,1.079-1.489,3.642-1.486-3.792-4.094,1.34-4.236,3.166,2.19,0.624-4.788,4.412-1.95,4.153,2.272,0.708-2.983,0.293-4.478-0.739-2.336-4.488,0.851-6.436-1.238-2.419-0.682,0.204-4.719,1.261-1.421,1.726,0.808,1.433-4.301,3.196-1.092,1.718,0.47,4.665-1.79,1.942-3.076-2.458-1.14,3.127-2.649-0.822-2.854-2.001-0.469-4.017-0.572-2.986-2.585-2.247,0.409-4.563,1.127-5.252-1.288-2.873-2.265-3.189,2.602-6.194,1.009,2.015-1.433,0.224-4.115,3.037-4.072,0.161-0.866-3.134-1.912-0.02-2.581,3.308-1.998-5.266-0.337-4.381-0.48,1.189-1.651,2.447-3.333-0.996-2.808-2.255,0.367-2.425-0.567-3.413-1.625-2.955-0.449-3.991,3.235-5.785,3.218-0.274-0.646-0.31-1.346-0.687-1.97" fill-rule="evenodd" fill="#008f4c"/>
<path d="m1009.16,1118.09c1.245,0.485,0.948-3.238,2.882-1.912,3.111,0.877-0.193-3.21,2.513-4.393,1.035,1.206,1.964,2.468,3.183-0.219,1.582-2.74-0.02,2.7,2.04-0.127,1.996-2.627,2.183,3.076,3.982-0.373,1.388-0.572,0.839,3.422,3.228,1.421,2.836-2.187,3.368,1.751,5.998-0.02,3.223-2.214-0.263,4.658,2.681,1.727,1.835-2.191,2.148-0.665,2.635,0.817,1.171,0.603,3.772,0.26,1.315,2.296-3.261,2.477,2.028,1.247,1.733,2.331-0.906,1.04-3.636,3.102-0.867,2.121,1.122,0.1-0.416,3.684,1.479,0.949,2.314-1.501,1.712,2.813,1.849,2.745,3.186-1.647,3.853,1.163,1.396,3.198,0.905-0.671,4.576-2.818,3.31,0.05-1.694,1.781-0.496,1.55,0.856,1.211,1.507,1.359-4.724,4.972-1.259,2.941,3.35-1.411,0.819,3.3-1.362,3.419-0.984,0.462-2.615,1.275-1.239,1.757-1.483,0.991-2.195,1.784-0.08,1.388,1.714,0.631-0.09,2.304-1.515,2.693,0,1.612,1.576,0.998,2.476,0.699-0.538,1.569-1.152,3.679,1.433,2.167,3.317-1.506-0.829,2.69-1.46,3.878-1.261,2.401-2.958-0.75-5.053,1.05-1.773,0.281-1.652,4.196,0.132,1.508,1.911-1.354-0.362,3.802,2.063,0.909,1.684-0.638,2.419,2.18,0.08,2.94-1.672,0.958,1.508,2.174-1.186,2.286-1.613,0.331-3.146,0.403-3.028,2.198-1.387-0.177-2.833-1.391-3.944,0.803-1.695,1.137-2.519,0.42-2.525-1.001-0.895-0.288-2.678-0.02-1.451,1.048-0.849,1.409-0.279,2.808,0.532,2.979-2.837,0.856-0.816,1.824-0.573,2.824-1.687,0.968-4.478-2.183-3.49,0.723,0.255,2.68-3.874-0.264-4.551,2.438-2.442,0.618-1.85-3.469-3.327-2.808-0.35,0.501-0.567,1.051-0.997,1.519" fill-rule="evenodd" fill="#008f4c"/>
<path d="m954.077,1190.72c1.9485-0.389-0.3556,3.715,3.0629,2.278,4.8519-0.838-2.4781,3.853,1.3135,5.01,2.0075-1.832,3.9086-2.137,4.2072,0.753,0.6959,2.586,1.3087-3.26,2.6849-0.06,1.4382,2.958,4.8306-3.411,5.4221,0.811,1.9215-0.305,3.1026-7.858,5.683-5.53,2.9913,2.314,4.3-2.244,7.3194,0.558,2.3409,1.134,4.529-4.375,6.925-0.444,2.1253,3.56,1.845-0.11,5.4048,1.293,3.127-0.243-3.4013-4.703,1.0829-3.984,2.0895,0.03,3.9594-0.03,1.9319-1.778-1.581-1.664-0.8678-1.657,1.2375-1.194,0.837-0.59,1.08-3.695,2.094-1.134,2.187,2.221,4.072-2.731,4.166-2.774,2.682,1.784,6.388-0.447,3.782-2.875-0.241-1.945,3.931,3.697,4.585,0.1-0.717-1.683-0.727-3.292,1.664-1.56,2.613-1.498-1.546-4.252-0.936-4.341,2.468,2.901,5.281-0.658,2.391-2.336-1.325-1.144-4.962-1.834-2.379-2.871-1.781-1.536-1.423-1.918,1.079-1.488,3.642-1.486-3.793-4.095,1.34-4.237,3.166,2.19,0.624-4.788,4.412-1.95,4.153,2.272,0.707-2.982,0.292-4.477-11.256-0.692-3.412-5.523-1.978-3.752,1.718,0.47,4.665-1.791,1.942-3.075-2.458-1.141,3.127-2.65-0.822-2.854-2.001-0.469-4.018-0.572-2.987-2.585-2.246,0.409-4.562,1.126-5.251-1.288-2.872-2.266-3.188,2.601-6.193,1.008,2.016-1.432,0.224-4.115,3.037-4.072,0.161-0.865-3.133-1.912-0.02-2.581,3.307-1.997-5.266-0.337-4.38-0.479,1.188-1.651,2.447-3.333-0.996-2.808-2.255,0.367-2.426-0.567-3.413-1.625-2.9555-0.449-3.9915,3.235-5.7848,3.217-0.2746-0.646-0.3103-1.345-0.6873-1.969" fill-rule="evenodd" fill="#008f4c"/>
<path d="m900.706,1158.29s0.749,0.17,0.7345,0.458c-0.058,1.047-2.6173,0.353-2.828,1.381-0.2725,1.326,2.6521,3.077,2.6521,3.077,1.8982,2.204-5.0374,0.115-6.3239,1.849-1.3086,1.764,3.609-0.144,3.9386,1.187,0.3508,1.418-3.7907,1.779-3.1209,3.078,0.4727,0.915,2.4212-1.358,3.0455-0.538,0.6369,0.837-1.7803,1.886-1.356,2.847,0.5558,1.261,3.5432-0.11,3.954,1.206,0.2561,0.818-1.9069,1.218-1.5957,2.017,0.5325,1.368,3.3276-0.358,4.3483,0.697,1.0322,1.066-0.3248,3.225,0.5605,4.415,0.7325,0.984,2.6472,0.498,3.3643,1.493,0.6998,0.971-0.605,2.844,0.3432,3.574,1.2768,0.985,3.7877-2.051,4.7745-0.776,0.8003,1.034-2.2316,2.457-1.5792,3.59,0.6997,1.213,2.9362-0.186,4.1772,0.463,1.0283,0.538,1.1279,2.618,2.2886,2.624,1.4788,0,1.472-3.327,2.9509-3.31,1.4507,0.02,1.3743,3.393,2.8231,3.311,1.3067-0.08,0.8921-3.405,2.192-3.256,0.7481,0.09,0.145,1.748,0.8061,2.109,0.9868,0.539,2.7061-1.644,3.3024-0.69,0.4552,0.728-1.5802,2.036-1.5802,2.036-1.3714,1.768,3.4688-0.35,5.6493,0.377,1.7145,0.571,0.921,5.092,2.4133,3.802l3.2919-2.845c1.1405-0.986-1.787,3.087,0.5374,4.426,1.2874,0.743,2.1495-2.884,3.347-2.265,0.6408,0.331-0.4929,1.688,0.048,2.164,0.6244,0.548,1.7929,0.205,2.4801-0.262,1.0429-0.71,0.5625-3.785,1.7504-3.358,0.7819,0.282-0.7645,1.646-0.5181,2.44,0.1779,0.571,0.7075,1.171,1.3029,1.235,1.0303,0.109,2.1031-0.738,2.6569-1.614,0.8233-1.304-0.9134-3.922,0.4706-4.603,0.4938-0.242,0.8795,1.039,1.4033,0.869,0.8012-0.26,0.1189-2.286,0.9597-2.339,0.8448-0.06,0.5268,1.768,1.2488,2.21,0.6669,0.408,1.7426,0.598,2.3418,0.1,0.6844-0.573-0.3847-2.163,0.3615-2.653,0.7046-0.462,1.9466,0,2.4337,0.683,0.3731,0.525-0.633,1.536-0.1227,1.93,1.1134,0.859,2.8038-2.052,4.0061-1.323,1.1704,0.709-0.6253,3.588,0.6621,4.051,1.3656,0.491,2.2326-1.857,3.2774-2.864,0.7558-0.729,2.2529-1.247,2.1601-2.293-0.097-1.054-2.0142-0.979-2.5506-1.891-0.548-0.932-1.011-2.311-0.4214-3.219,0.5983-0.92,2.4162-1.745,3.1557-0.934,0.6572,0.72-1.6905,1.954-1.0835,2.716,0.7935,0.999,3.0445-1.622,3.781-0.581,0.4601,0.651-1.4285,1.368-1.1298,2.106,0.4581,1.131,2.3534,1.567,3.488,1.116,1.0583-0.421,0.5982-2.552,1.6488-2.992,0.7771-0.325,1.8422,1.284,2.4337,0.684,1.0679-1.084-2.0732-3.067-1.2961-4.375,0.4021-0.676,2.1166,0.27,2.3099-0.494,0.3257-1.285-2.9304-1.259-3.0251-2.58-0.058-0.735,1.2729-0.947,1.4575-1.66,0.1942-0.747,0.1159-1.786-0.4901-2.264-0.6958-0.549-1.8643,0.45-2.6588,0.06-0.7693-0.38-3.0531-2.47-1.5202-2.077,1.8421,0.471,3.5325,0.509,4.641-1.002,0.9366-1.276,1.1299,1.821,1.9011,1.55,0.7839-0.277-0.2213-2.06,0.5181-2.44,1.096-0.563,3.3877,1.482,3.3877,1.482,1.5657,0.685-0.8322-3.096-4.0333-3.959-1.819-0.49,3.7104,1.034,4.3793-0.267,0.6891-1.341-2.7063-2.354-2.4048-3.832,0.1237-0.607,1.5253-0.442,1.5262-1.061,0-0.641-0.087,0.129-1.5745-1.103-1.5889-1.32-7.1879,0.376-5.7043-0.955l2.3167-2.08-0.039-0.01" fill-rule="evenodd" fill="#008f4c"/>
<path d="m929.918,1121.96c-0.721-7.321-4.1742-6.601-5.1078-6.635-1.0458-0.04-2.0239,0.04-1.327,1.608,0.2957,3.943-3.6777-2.01-6.1403,0.1,0.9443,1.921,2.7719,3.758-1.3425,3.6-3.6997,0.167,3.5113,1.436-0.2832,2.133-4.2062,0.72,3.3151,4.304-1.6594,4.321-1.1337,1.282,4.2516,2.758,1.1917,4.371-2.3467,1.683-1.3464,3.396-0.4021,5.368-1.6575,1.71-3.2368,3.402,0.4127,3.958,4.5735,1.104-5.5535,2.231-0.7539,3.995,2.8367,1.046-0.5692,5.727,3.7133,3.809,4.7118-2.642-0.1363,4.959,3.6003,2.943,1.6924-0.692,3.377-1.361,1.8712,0.633-0.3683,1.26,4.7049,1.487,1.0602,2.175-2.9497,1.522,2.8338,3.634,2.8541,3.723-2.5052,1.96-0.2271,5.227,3.0144,3.423,2.2171,0.117-4.901,2.751-0.6756,3.702,2.1437-0.38,4.0739-0.173,1.6672,1.554,1.5174,2.281,5.3845-0.74,5.398-0.227-3.8322,1.658,0.1585,4.351,2.5458,2.223,1.5609-0.941,2.8434-3.782,3.7877-1.566,2.0818-1.257,2.5052-0.922,1.6682,1.06,1.4914,3.373,4.5726-2.666,5.2511,1.411-3.7646,2.335,5.6539,1.443,1.3937,4.224-2.8445,2.877,3.889,0.654,5.6374,0.57,2.7866-0.347-0.5257-3.751,2.2328-5.05,1.152-1.87,5.6917,0.77,1.5541,1.21-1.1588,1.298,5.0586,1.699,0.9278,2.726-0.7596,1.338,1.6073,3.999,3.5065,1.953,1.6875-1.848,2.8338,2.872,3.5741-0.32,0.8138-1.576,1.2091-3.163,3.5075-2.091-0.029-1.585-1.0303-3.94,2.0132-3.925,3.3334-1.972-2.5805-3.209-0.1991-5.353,1.0583,1.195,3.4842,1.749,4.3067,1.631-0.2368,2.758,1.1888,0.581,2.6163,0.49,0.5953,1.327,1.9484,3.31,2.0587,0.593,0.6543-1.579-1.7233-4.334,1.1057-2.18,3.4794,2.585,1.0013-4.146,4.6334-3.736,0.9046-2.345-3.4494-3.64-3.1846-5.086,0.8186-0.14,3.7239-5.877,4.5271-6.105" fill-rule="evenodd" fill="#008f4c"/>
<path d="m1010.92,1131.22c-1.298-1.102,3.781-1.788,1.008-3.35-2.8-2.84,4.347-0.653,4.482-3.635-2.138-0.706-4.297-1.291-1.387-3.202,2.788-2.283-3.559,0.728-0.908-2.048,2.421-2.661-5.216-1.348-1.606-4.03,0.03-1.522-4.964,0.07-3.579-2.816,1.395-3.376-4.09-2.866-3.132-5.929,1.227-3.765-6.0224,1.485-3.697-2.194,1.929-2.389-0.254-2.295-2.4684-2.388-1.4168-0.998-2.333-3.656-3.7311-0.695-1.5561,3.872-2.7179-1.676-3.9966-1.099-0.8969,1.168-2.1833,4.406-2.3456,1.414-0.7201-1.082-4.6518,1.38-2.0345-1.212,0.7645-2.679-4.621-0.951-4.6045-1.104,0.4988-3.579-3.5703-3.499-4.9649-0.537,0.4088-1.071,1.4516-3.459-0.4263-3.806-1.7474,2.027-3.2879,2.013-3.6416,0-2.3844,0.08-3.4979,5.234-4.7108,0-1.8354,0.779-3.1044,2.096-2.1118,4.283-0.087,1.093-0.3064,2.916-1.6692,1.685-0.5287,1.725-1.2014,2.636-1.7928,0.445-1.7359-1.528-2.9981,0.691-2.7604,2.204-2.133,0.424-2.1495-1.295-2.2297-2.262-1.791,0.944-4.2585,2.105-3.6206-0.845,0.2416-3.672-3.1199,1.525-4.3578,2.461-2.511,1.877,2.5514,2.725,1.2747,5.266,0.5634,1.825-4.6778,2.736-2.0624,0.266,0.7819-2.243-4.8375,1.357-2.2887-1.797-0.048-1.832-4.1609-1.817-3.9299,0.696-0.3856,1.902-3.6698-0.919-2.3979,1.771,0.4127,1.68,1.1279,3.215-1.3096,3.569,0.9656,1.325,3.3344,2.432,1.0187,4.106-0.6118,1.973,0.7732,2.598,2.655,2.231,0.8515,0.808,1.4372,2.641-0.6215,1.708-1.4159,1.21-3.5664,1.014-4.2197,0.258,0.3634,3.027-1.9813,1.284-3.432,1.309-0.3915,1.92,5.248,3.847,0.8833,3.637-3.6757,0.451,2.3911,3.756-0.8234,5.134,0.4697,2.576,5.5622,0.915,5.4675,2.549-0.4785,0.478-1.0922,0.836-1.4836,1.383" fill-rule="evenodd" fill="#008f4c"/>
<path d="m1014.09,1149.09c-1.18-1.102,3.439-1.788,0.918-3.35-2.548-2.84,3.951-0.653,4.076-3.636-1.946-0.705-3.908-1.29-1.263-3.201,2.536-2.283-3.235,0.728-0.825-2.048,2.201-2.661-4.744-1.349-1.46-4.03,0.02-1.522-4.515,0.07-3.255-2.816,1.269-3.376-3.718-2.866-2.847-5.928,1.114-3.767-5.475,1.484-3.361-2.195,1.753-2.39-0.231-2.296-2.244-2.388-1.288-0.998-2.122-3.656-3.393-0.695-1.4151,3.872-2.4714-1.676-3.6341-1.099-0.8152,1.168-1.9848,4.406-2.1327,1.413-0.6543-1.082-4.2294,1.381-1.8498-1.211,0.6958-2.679-4.2005-0.952-4.186-1.104,0.4533-3.579-3.2455-3.499-4.5145-0.538,0.3721-1.07,1.1946-5.26-1.6441-3.256-1.3289,2.142-1.6266,0.898-1.8663-0.528-2.3563-1.13-3.7143,5.972-2.9314,2.018,0.087-3.68-4.3617,0.06-3.46,2.243-0.087,1.094-0.2783,2.917-1.5174,1.685-0.4803,1.725-1.0921,2.637-1.6304,0.445-1.5775-1.527-2.7257,0.692-2.5101,2.205-1.9388,0.424-1.9543-1.295-2.0268-2.262-1.6285,0.944-3.8718,2.105-3.2919-0.845,0.2194-3.672-2.8367,1.525-3.9617,2.461-2.2839,1.877,2.3196,2.725,1.1589,5.266,0.5112,1.825-4.2537,2.735-1.876,0.266,0.7113-2.244-4.3977,1.356-2.08-1.798-0.039-1.831-3.7839-1.816-3.5732,0.696-0.3508,1.903-3.3372-0.918-2.1803,1.772,0.375,1.68,1.0245,3.214-1.1917,3.569,0.8786,1.324,3.0318,2.432,0.9269,4.105-0.5557,1.974,0.7026,2.599,2.4132,2.232,0.7742,0.808,1.3077,2.64-0.5644,1.707-1.2873,1.211-3.2425,1.015-3.8369,0.259,0.3305,3.027-1.8006,1.284-3.12,1.309-0.3556,1.92,4.7718,3.847,0.8033,3.636-3.3422,0.452,2.1737,3.757-0.7491,5.135,0.4272,2.576,5.0568,0.915,4.9708,2.549-0.4349,0.477-0.9926,0.836-1.3483,1.382" fill-rule="evenodd" fill="#008f4c"/>
</g>
<g stroke-width="1" stroke-dasharray="none" transform="translate(-938.1458,234.338)">
<path d="m1071.36,176.412,0,6.2112" fill="none"/>
<path d="m1135.6,243.424,25.697-4.3744,25.696,4.3744-25.696-42.4763z" fill="#e3e4e5"/>
<path d="m1161.3,278.026,3.934-20.1708-3.934-18.9097-25.024,3.6802,0,32.7177z" fill="#e3e4e5"/>
<path d="m1161.3,242.835-25.024,3.3952-1.578-1.6256,26.602-5.5298,1.375,1.8631z" fill="#e3e4e5"/>
<path d="m1161.3,240.861-26.602,3.743,0-5.0553,3.831-0.588,0,2.1817,3.83-0.5603,0-2.1379,3.831-0.5732,0,2.1545,3.831-0.5184,0-2.2343,3.831-0.5696,0,2.2217,3.831-0.5643,0-2.2556,3.617-0.483,1.562,2.6278z" fill="#e3e4e5"/>
<path d="m1043.2,238.438-26.323-3.0893-3.541,22.7674,3.541,20.4937,26.323-1.8512z" fill="#e3e4e5"/>
<path d="m1079.85,253.986,25.697-4.3744,25.696,4.3744-25.696-42.4763z" fill="#e3e4e5"/>
<path d="m1043.91,238.671-27.03-42.8726-27.0299,44.3242,27.0299-4.5948z" fill="#e3e4e5"/>
<path d="m1019.57,239.086,0,31.2083" fill="none"/>
<path d="m1043.04,242.237,1.817-1.7181-27.981-4.8915-1.187,1.9351,1.187,2.037z" fill="#e3e4e5"/>
<path d="m1020.68,232.543,0,2.3097,4.03,0.4308,0-2.2741,4.029,0.5259,0,2.2878,4.03,0.4407,0-2.263,4.03,0.4857,0,2.2453,4.029,0.4724,0-2.2094,4.03,0.4564,0,5.0676-27.981-2.9925-0.937-2.9014,0.937-2.6006z" fill="#e3e4e5"/>
<path d="m1101.86,231.587-30.5-50.1751-30.5,50.1746,30.5-5.1672z" fill="#e3e4e5"/>
<path d="m1015.64,272.615,28.058-1.9215,0-26.9827z" fill="#e3e4e5"/>
<path d="m1105.54,249.612,0-38.1019" fill="none"/>
<path d="m1163.29,275.762-65.152-7.351-3.04-14.7541,3.04-22.2484,27.503,3.8349,14.436,9.8446z" fill="#e3e4e5"/>
<path d="m990.554,356.222,0-116.444,26.3225-4.4293,0,37.3242,24.771-2.1082,0-39.3655,29.708-4.9812,29.701,4.2118,0,39.6448,60.238,4.289,0-35.4179,25.023,3.6802,0,111.931-114.962,10.8553z" fill="#e3e4e5"/>
<path d="m1068.32,230.082,0,127.971" fill="none"/>
<path d="m1074.39,230.082,0,127.971" fill="none"/>
<path d="m1017.06,274.726,0,78.1533" fill="none"/>
<path d="m1041.65,270.565,0,84.8332" fill="none"/>
<path d="m1048.99,324.96,15.373,0.5324-0.81,8.9965,0,23.191-13.753-1.424,0-22.5889z" fill="none"/>
<path d="m1051.74,333.986,9.874,0.479,0,23.0053-9.874-1.0693z" fill="#000"/>
<path d="m1044.68,234.033,0,121.733" fill="none"/>
<path d="m1098.03,234.034,0,122.091" fill="none"/>
<path d="m1039.78,233.749,1.865,1.823,29.708-4.8005,29.701,3.9798,1.872-1.9116-31.573-5.6501z" fill="#e3e4e5"/>
<path d="m1039.78,233.749,0-5.7849,4.547-0.8146,0,2.4848,4.546-0.8073,0-2.5254,4.547-0.7973,0,2.5451,4.547-0.7969,0-2.5734,4.547-0.7924,0,2.5579,4.547-0.7857,0-2.5981,4.292-0.8091,4.292,0.6518,0,2.598,4.547,0.6595,0-2.558,4.547,0.6661,0,2.5733,4.547,0.6389,0-2.5451,4.547,0.6711,0,2.5253,4.546,0.6495,0-2.4849,4.547,0.6567,0,5.8858-31.573-4.3995z" fill="#e3e4e5"/>
<path d="m1161.3,274.364,0,76.6352" fill="none"/>
<path d="m1163.61,275.315-60.94-6.2146-1.613,4.294,60.238,3.8189z" fill="#e3e4e5"/>
<path d="m1015.22,273.631,24.643-3.909,1.789,4.0805-24.771,1.9003z" fill="#e3e4e5"/>
<path d="m1041.65,266.338,0,7.4652-2.626-2.1261-1.072-3.2969,1.072-2.2162z" fill="#e3e4e5"/>
<path d="m1015.22,268.396,3.366-0.294,0,2.4639,3.406-0.2871,0-2.4864,3.407-0.3266,0,2.4972,3.407-0.3347,0-2.516,3.407-0.2948,0,2.5547,3.407-0.2732,0-2.6063,3.406-0.3296,0,5.5131-23.806,1.9546z" fill="#e3e4e5"/>
<path d="m1104.04,265.667,1.802,1.8073-1.802,3.7243-2.978,2.1951,0-7.9531z" fill="#e3e4e5"/>
<path d="m1104.04,271.199,59.575,4.1155,0-4.9994-4.081-0.2851,0,2.3009-3.866-0.2731,0-2.3357-3.896-0.32,0,2.3986-3.897-0.2851,0-2.4335-3.895-0.2799,0,2.4022-3.897-0.2415,0-2.4431-3.988-0.3461,0,2.4626-4.029-0.2786,0-2.4974-4.078-0.3057,0,2.4719-4.014-0.2839,0-2.5068-3.984-0.3192,0,2.5541-4.013-0.2649,0-2.5856-3.983-0.2915,0,2.5982-4.014-0.3988,0-2.5253-3.94-0.3355z" fill="#e3e4e5"/>
<path d="m1048.99,277.912,15.373-1.0603-0.81,7.9733,0,23.6706-13.753,0.053,0-23.0287z" fill="none"/>
<path d="m1051.74,285.435,9.874-0.5029,0,23.5737-9.874,0.035z" fill="#000"/>
<path d="m1048.99,240.487,15.373-2.2566-0.81,6.605,0,15.9772-13.753,1.4202,0-15.5068z" fill="none"/>
<path d="m1051.74,246.337,9.874-1.2947,0,15.9692-9.874,1.0158z" fill="#000"/>
<path d="m1022.1,279.735,14.498-0.9973-0.764,7.4994,0,22.342-12.971,0.05,0-21.7383z" fill="none"/>
<path d="m1024.7,286.751,9.313-0.4731,0,22.3173-9.313,0.033z" fill="#000"/>
<path d="m1021.08,359.685,0-32.3297-0.971-8.8926,18.456,0.3598-0.972,9.5141,0,33.1941" fill="none"/>
<path d="m1023.41,327.931,11.855,0.6166,0,32.7484-11.855-1.3194z" fill="#000"/>
<path d="m997.056,323.253,13.6243,0.4728-0.718,7.9972,0,20.5561-12.1888-1.2077,0-20.0792z" fill="none"/>
<path d="m999.492,331.165,8.7509,0.4259,0,20.4921-8.7509-0.897z" fill="#000"/>
<path d="m997.056,281.517,13.6243-0.9428-0.718,7.0893,0,20.9629-12.1888,0.048,0-20.3915z" fill="none"/>
<path d="m999.492,288.094,8.7509-0.4472,0,20.9713-8.7509,0.031z" fill="#000"/>
<path d="m997.056,248.238,13.6243-2.0065-0.718,5.8732,0,14.2068-12.1888,1.263,0-13.7889z" fill="none"/>
<path d="m999.492,253.33,8.7509-1.1512,0,14.3108-8.7509,0.9033z" fill="#000"/>
<path d="m1014.19,239.367,0,113.312" fill="none"/>
<path d="m993.244,242.627,0,107.91" fill="none"/>
<path d="m1016.88,235.628-27.9812,6.6199,1.6582,1.621,26.323-4.2688z" fill="#e3e4e5"/>
<path d="m1016.88,237.527-27.9812,4.7209,0-5.1434,4.0299-0.7245,0,2.2095,4.0287-0.7178,0-2.2454,4.0306-0.7091,0,2.2629,4.03-0.7086,0-2.2878,4.029-0.7047,0,2.2743,4.03-0.6988,0-2.3097,3.803-0.7198z" fill="#e3e4e5"/>
<path d="m1016.88,232.025,0-36.2268" fill="none"/>
<path d="m1093.72,325.106-15.372,0.4076,0.809,8.9758,0,23.3247,13.753-1.1764,0-22.686z" fill="none"/>
<path d="m1090.97,334.152-9.874,0.4159,0,23.0614,9.874-0.8333z" fill="#000"/>
<path d="m1093.72,277.629-15.372-0.8392,0.809,7.9357,0,23.7706,13.753,0.05,0-23.3097z" fill="none"/>
<path d="m1090.97,285.246-9.874-0.4081,0,23.6686,9.874,0.035z" fill="#000"/>
<path d="m1093.72,240.014-15.372-1.9217,0.809,6.4596,0,16.0719,13.753,1.1992,0-15.7023z" fill="none"/>
<path d="m1090.97,245.896-9.874-1.0735,0,15.9538,9.874,0.8727z" fill="#000"/>
<path d="m1101.06,270.075,0,85.7817" fill="none"/>
<path d="m1119.86,279.166-14.498-0.8394,0.763,7.6289,0,22.5997,12.972,0.027,0-22.1299z" fill="none"/>
<path d="m1117.27,286.358-9.312-0.3839,0,22.5929,9.312,0.017z" fill="#000"/>
<path d="m1180.14,322.768-12.952,0.357,0.682,7.5711,0,19.785,11.588-0.9561,0-19.3034z" fill="none"/>
<path d="m1177.82,330.29-8.319,0.3582,0,19.7018,8.319-0.7052z" fill="#000"/>
<path d="m1163.85,242.15,0,108.588" fill="none"/>
<path d="m1183.77,244.927,0,104.129" fill="none"/>
<path d="m1187.9,244.604-1.578,1.6256-25.023-3.3952,0-3.7602z" fill="#e3e4e5"/>
<path d="m1180.14,282.575-12.952-0.7188,0.682,6.7275,0,20.1052,11.588,0.042,0-19.6495z" fill="none"/>
<path d="m1177.82,288.856-8.319-0.315,0,20.1346,8.319,0.05z" fill="#000"/>
<path d="m1180.14,250.675-12.952-1.626,0.682,5.4908,0,13.6265,11.588,0.9812,0-13.3486z" fill="none"/>
<path d="m1177.82,255.535-8.319-0.9621,0,13.7614,8.319,0.6703z" fill="#000"/>
<path d="m1157.96,281.319-13.776-0.7897,0.726,7.0363,0,21.0833,12.324,0.029,0-20.5357z" fill="none"/>
<path d="m1155.5,287.959-8.848-0.3602,0,21.0455,8.848,0.031z" fill="#000"/>
<path d="m1141.57,280.412-19.092-1.1023,1.005,7.3498,0,40.92,17.082-0.5205,0-37.4789z" fill="none"/>
<path d="m1138.76,287.245-13.478-0.5437,0,37.561,13.478-0.3594z" fill="#000"/>
<path d="m1119.86,324.417-14.498,0.3666,0.763,8.6081,0,22.1741,12.972-1.0589,0-21.7809z" fill="none"/>
<path d="m1117.27,332.967-9.312,0.4202,0,22.0378,9.312-0.7701z" fill="#000"/>
<path d="m1157.96,323.386-13.776,0.3595,0.726,7.8982,0,20.7275,12.324-1.0239,0-20.1995z" fill="none"/>
<path d="m1155.5,331.289-8.848,0.3794,0,20.5517,8.848-0.7421z" fill="#000"/>
<path d="m1161.3,235.622,0-34.6742" fill="none"/>
<path d="m1164.91,236.105,0,2.2556,3.831,0.5643,0-2.2217,3.831,0.5696,0,2.2343,3.831,0.5184,0-2.1545,3.831,0.5732,0,2.1379,3.83,0.5603,0-2.1817,3.831,0.588,0,5.0553-26.601-3.743,0-5.239z" fill="#e3e4e5"/>
<path d="m1071.36,181.412,0,184" fill="none"/>
<path d="m1183.72,308.742-4.156-0.011" fill="none"/>
<path d="m1167.81,308.689-3.906,0.01" fill="none"/>
<path d="m1161.25,308.689-4-0.01" fill="none"/>
<path d="m1144.88,308.65-4.25-0.012" fill="none"/>
<path d="m1123.44,308.598-4.312-0.013" fill="none"/>
<path d="m1106.06,308.558-4.968-0.011" fill="none"/>
<path d="m1097.97,308.537-5.031,0.012" fill="none"/>
<path d="m1079.06,308.499-4.656-0.017" fill="none"/>
<path d="m1068.25,308.482-4.657,0.017" fill="none"/>
<path d="m1049.75,308.552-5.063-0.01" fill="none"/>
<path d="m1041.59,308.552-5.718,0.027" fill="none"/>
<path d="m1022.81,308.629-5.687-0.012" fill="none"/>
<path d="m1014.06,308.627-4.062-0.0009" fill="none"/>
<path d="m997.687,308.674-4.4063,0.01" fill="none"/>
<path d="m1183.7,322.678-3.558,0.09" fill="none"/>
<path d="m1167.06,323.125-3.248,0.09" fill="none"/>
<path d="m1161.22,323.285-3.225,0.1015" fill="none"/>
<path d="m1144.14,323.746-3.578,0.096" fill="none"/>
<path d="m1123.46,324.303-3.647,0.1141" fill="none"/>
<path d="m1105.34,324.784-4.242,0.1221" fill="none"/>
<path d="m1098,324.99-4.286,0.1163" fill="none"/>
<path d="m1078.29,325.514-3.911,0.1133" fill="none"/>
<path d="m1068.26,325.607-3.887-0.1148" fill="none"/>
<path d="m1048.9,324.96-4.221-0.127" fill="none"/>
<path d="m1041.61,324.732-3.645-0.1197" fill="none"/>
<path d="m1020.69,324.045-3.669-0.1205" fill="none"/>
<path d="m1014.12,323.829-3.444-0.1041" fill="none"/>
<path d="m996.955,323.252-3.7355-0.1096" fill="none"/>
<path d="m1186.32,348.956-6.847,0.5683" fill="none"/>
<path d="m1167.86,350.481-10.61,0.867" fill="none"/>
<path d="m1144.89,352.372-25.765,2.1355" fill="none"/>
<path d="m1106.16,355.566-13.235,1.0719" fill="none"/>
<path d="m1079.16,357.814-7.78,0.6239-7.834-0.7581" fill="none"/>
<path d="m1049.76,356.256-12.156-1.1925" fill="none"/>
<path d="m1021.04,353.405-11.123-1.1264" fill="none"/>
<path d="m997.721,351.071-7.1666-0.7149" fill="none"/>
<path d="m1073.29,181.313c0,1.07-0.868,1.9375-1.939,1.9375-1.069,0-1.936-0.8675-1.936-1.9375,0-1.0701,0.867-1.9375,1.936-1.9375,1.07,0,1.939,0.8674,1.939,1.9375z" fill-rule="evenodd" fill="#e3e4e5"/>
<path d="m1016.88,191.173,0,5.6492" fill="none"/>
<path d="m1018.62,195.63c0,0.9732-0.782,1.7622-1.746,1.7622-0.963,0-1.744-0.789-1.744-1.7622,0-0.9733,0.781-1.7622,1.744-1.7622,0.964,0,1.746,0.7889,1.746,1.7622z" fill-rule="evenodd" fill="#e3e4e5"/>
<path d="m1161.3,196.548,0,5.6492" fill="none"/>
<path d="m1163.04,201.005c0,0.9732-0.782,1.7622-1.746,1.7622-0.963,0-1.744-0.789-1.744-1.7622,0-0.9733,0.781-1.7622,1.744-1.7622,0.964,0,1.746,0.7889,1.746,1.7622z" fill-rule="evenodd" fill="#e3e4e5"/>
<path d="m1105.54,207.833,0,4.8865" fill="none"/>
<path d="m1107.03,211.689c0,0.8418-0.665,1.5243-1.485,1.5243-0.819,0-1.483-0.6825-1.483-1.5243,0-0.8419,0.664-1.5243,1.483-1.5243,0.82,0,1.485,0.6824,1.485,1.5243z" fill-rule="evenodd" fill="#e3e4e5"/>
</g>
<g stroke-dasharray="none" transform="translate(-62.7341,-383.029)">
<path d="m200.734,1180.53,36.5334-36.218,100.467-4.596,100.467,4.596,36.5333,36.218-137,7.425z" stroke-width="0.99999988" fill="#e3e4e5"/>
<path d="m200.734,1221.28,0-40.745,274,0,0,40.745-274,0z" stroke-width="0.99999988" fill="#e3e4e5"/>
<path d="m200.734,1207.7,274,0" stroke-width="0.99999988" fill="none"/>
<path d="m200.734,1194.12,274,0" stroke-width="0.99999988" fill="none"/>
<path d="m228.134,1180.53,0,13.581" stroke-width="0.99999988" fill="none"/>
<path d="m214.434,1194.12,0,13.582" stroke-width="0.99999988" fill="none"/>
<path d="m228.134,1207.7,0,13.582" stroke-width="0.99999988" fill="none"/>
<path d="m255.534,1180.53,0,13.581" stroke-width="0.99999988" fill="none"/>
<path d="m255.534,1207.7,0,13.582" stroke-width="0.99999988" fill="none"/>
<path d="m241.834,1194.12,0,13.582" stroke-width="0.99999988" fill="none"/>
<path d="m269.234,1194.12,0,13.582" stroke-width="0.99999988" fill="none"/>
<path d="m282.934,1180.53,0,13.581" stroke-width="0.99999988" fill="none"/>
<path d="m282.934,1207.7,0,13.582" stroke-width="0.99999988" fill="none"/>
<path d="m324.034,1194.12,0,13.582" stroke-width="0.99999988" fill="none"/>
<path d="m337.734,1180.53,0,13.581" stroke-width="0.99999988" fill="none"/>
<path d="m337.734,1207.7,0,13.582" stroke-width="0.99999988" fill="none"/>
<path d="m351.434,1194.12,0,13.582" stroke-width="0.99999988" fill="none"/>
<path d="m365.134,1180.53,0,13.581" stroke-width="0.99999988" fill="none"/>
<path d="m365.134,1207.7,0,13.582" stroke-width="0.99999988" fill="none"/>
<path d="m378.834,1194.12,0,13.582" stroke-width="0.99999988" fill="none"/>
<path d="m392.534,1180.53,0,13.581" stroke-width="0.99999988" fill="none"/>
<path d="m392.534,1207.7,0,13.582" stroke-width="0.99999988" fill="none"/>
<path d="m406.234,1194.12,0,13.582" stroke-width="0.99999988" fill="none"/>
<path d="m419.934,1180.53,0,13.581" stroke-width="0.99999988" fill="none"/>
<path d="m419.934,1207.7,0,13.582" stroke-width="0.99999988" fill="none"/>
<path d="m433.634,1194.12,0,13.582" stroke-width="0.99999988" fill="none"/>
<path d="m447.334,1180.53,0,13.581" stroke-width="0.99999988" fill="none"/>
<path d="m447.334,1207.7,0,13.582" stroke-width="0.99999988" fill="none"/>
<path d="m461.034,1194.12,0,13.582" stroke-width="0.99999988" fill="none"/>
<path d="m228.134,1171.48,9.1679,0,100.492-6.5,100.492,6.5,9.0491,0-22.8333-27.163-173.533,0z" stroke-width="0.99999988" fill="#e3e4e5"/>
<path d="m438.285,1171.58-13.7839-16.398-86.7667-6.75-86.7666,6.75-13.6656,16.257z" stroke-width="0.99999988" fill="#0071bc"/>
<path d="m246.401,1062.28,182.667,0c5.0599,0,9.1334,4.039,9.1334,9.055v72.982h-13.7v10.865h-173.533v-10.865h-13.7v-72.982c0-5.016,4.0734-9.055,9.1333-9.055z" fill-rule="evenodd" stroke-width="0.99999988" fill="#e3e4e5"/>
<path d="m296.634,1194.12,0,13.582" stroke-width="0.99999988" fill="none"/>
<path d="m310.334,1180.53,0,13.581" stroke-width="0.99999988" fill="none"/>
<path d="m310.334,1207.7,0,13.582" stroke-width="0.99999988" fill="none"/>
<path style="color:#000000;enable-background:accumulate;" d="m276.25,1129.7c0,0.263,0.011,0.532-0.092,0.765l-3.4995,7.85-7.4089-2.485,3.9082-7.646c0.5882-1.151,1.8827-1.926,3.3557-1.926,2.0638,0,3.7369,1.541,3.7369,3.442z" stroke-dashoffset="0" stroke-width="0.99999988" fill="#e3e4e5"/>
<path style="color:#000000;enable-background:accumulate;" d="m273.094,1136.74c0,2.033-1.7886,3.68-3.9948,3.68-2.2064,0-3.995-1.647-3.995-3.681,0-2.032,1.7886-3.68,3.995-3.68,2.2062,0,3.9948,1.648,3.9948,3.681z" stroke-dashoffset="0" stroke-width="0.99999988" fill="#000"/>
<path d="m269.099,1136.3c1.5123,0,4.952,1.278,2.7401,2.367l1.0196,24.2c0.084,2.002-2.613,2.308-3.9689,2.257-1.3558-0.05-3.6311-0.348-3.5507-2.257l1.0196-24.2c-2.0021-1.572,1.1516-2.367,2.7403-2.367z" stroke-width="0.99999988" fill="#0071bc"/>
<path style="color:#000000;enable-background:accumulate;" d="m310.72,1129.7c0,0.263-0.061,0.513-0.092,0.764l-0.8672,6.986-7.7954-1.623,1.6624-7.643c0.2743-1.262,1.8827-1.925,3.3557-1.925,2.0638,0,3.7369,1.54,3.7369,3.441z" stroke-dashoffset="0" stroke-width="0.99999988" fill="#e3e4e5"/>
<path style="color:#000000;enable-background:accumulate;" d="m309.81,1136.74c0,2.033-1.7886,3.68-3.9948,3.68-2.2064,0-3.995-1.647-3.995-3.681,0-2.032,1.7886-3.68,3.995-3.68,2.2062,0,3.9948,1.648,3.9948,3.681z" stroke-dashoffset="0" stroke-width="0.99999988" fill="#000"/>
<path d="m305.815,1136.3c1.5123,0,4.952,1.278,2.7401,2.367l1.0196,24.2c0.084,2.002-2.613,2.308-3.9689,2.257-1.3558-0.05-3.6311-0.348-3.5507-2.257l1.0196-24.2c-2.0021-1.572,1.1515-2.367,2.7403-2.367z" stroke-width="0.99999988" fill="#0071bc"/>
<path style="color:#000000;enable-background:accumulate;" d="m399.218,1129.7c0,0.263-0.011,0.532,0.092,0.765l3.4995,7.85,7.4089-2.485-3.9082-7.646c-0.5882-1.151-1.8827-1.926-3.3557-1.926-2.0638,0-3.7369,1.541-3.7369,3.442z" stroke-dashoffset="0" stroke-width="0.99999988" fill="#e3e4e5"/>
<path style="color:#000000;enable-background:accumulate;" d="m402.374,1136.74c0,2.033,1.7886,3.68,3.9948,3.68,2.2064,0,3.995-1.647,3.995-3.681,0-2.032-1.7886-3.68-3.995-3.68-2.2062,0-3.9948,1.648-3.9948,3.681z" stroke-dashoffset="0" stroke-width="0.99999988" fill="#000"/>
<path d="m406.369,1136.3c-1.5123,0-4.9524,1.278-2.7405,2.367l-1.0196,24.2c0,2.004,2.6134,2.308,3.9693,2.257,1.3558-0.05,3.5503-0.346,3.5503-2.257l-1.0196-24.2c2.0021-1.572-1.1512-2.367-2.7399-2.367z" stroke-width="0.99999988" fill="#0071bc"/>
<path style="color:#000000;enable-background:accumulate;" d="m364.748,1129.7c0,0.263,0.061,0.513,0.092,0.764l0.8672,6.986,7.7954-1.623-1.6624-7.643c-0.2743-1.262-1.8827-1.925-3.3557-1.925-2.0638,0-3.7369,1.54-3.7369,3.441z" stroke-dashoffset="0" stroke-width="0.99999988" fill="#e3e4e5"/>
<path style="color:#000000;enable-background:accumulate;" d="m365.658,1136.74c0,2.033,1.7886,3.68,3.9948,3.68,2.2064,0,3.995-1.647,3.995-3.681,0-2.032-1.7886-3.68-3.995-3.68-2.2062,0-3.9948,1.648-3.9948,3.681z" stroke-dashoffset="0" stroke-width="0.99999988" fill="#000"/>
<path d="m369.653,1136.3c-1.5123,0-4.9524,1.278-2.7405,2.367l-1.0196,24.2c-0.084,2.002,2.6134,2.308,3.9693,2.257,1.3558-0.05,3.6307-0.348,3.5503-2.257l-1.0196-24.2c2.0021-1.572-1.1511-2.367-2.7399-2.367z" stroke-width="0.99999988" fill="#0071bc"/>
<path d="m237.36,1076.28,200.774,0" stroke-width="0.99999988" fill="none"/>
<path d="m365.716,1091.28,72.4174,0" stroke-width="0.99999988" fill="none"/>
<path d="m237.297,1091.28,72.3137,0" stroke-width="0.99999988" fill="none"/>
<path d="m362.874,1106.28,75.2601,0" stroke-width="0.99999988" fill="none"/>
<path d="m237.297,1106.28,75.4556,0" stroke-width="0.99999988" fill="none"/>
<path d="m366.165,1121.28,71.8685,0" stroke-width="0.99999988" fill="none"/>
<path d="m237.309,1121.28,71.8529,0" stroke-width="0.99999988" fill="none"/>
<path d="m344.77,1136.28,93.3636,0" stroke-width="0.99999988" fill="none"/>
<path d="m237.309,1136.28,93.248,0" stroke-width="0.99999988" fill="none"/>
<path d="m322.734,1062.65,0,13.63" stroke-width="0.99999988" fill="none"/>
<path d="m352.734,1062.44,0,13.841" stroke-width="0.99999988" fill="none"/>
<path d="m292.734,1062.44,0,13.841" stroke-width="0.99999988" fill="none"/>
<path d="m262.734,1062.44,0,13.841" stroke-width="0.99999988" fill="none"/>
<path d="m382.734,1062.28,0,14" stroke-width="0.99999988" fill="none"/>
<path d="m412.734,1062.28,0,14" stroke-width="0.99999988" fill="none"/>
<path d="m277.734,1076.28,0,15" stroke-width="0.99999988" fill="none"/>
<path d="m247.734,1076.28,0,15" stroke-width="0.99999988" fill="none"/>
<path d="m307.734,1076.28,0,15" stroke-width="0.99999988" fill="none"/>
<path d="m367.734,1076.28,0,15" stroke-width="0.99999988" fill="none"/>
<path d="m397.734,1076.28,0,15" stroke-width="0.99999988" fill="none"/>
<path d="m427.734,1076.28,0,15" stroke-width="0.99999988" fill="none"/>
<path d="m292.734,1091.28,0,15" stroke-width="0.99999988" fill="none"/>
<path d="m262.734,1091.28,0,15" stroke-width="0.99999988" fill="none"/>
<path d="m382.734,1091.28,0,15" stroke-width="0.99999988" fill="none"/>
<path d="m412.734,1091.28,0,15" stroke-width="0.99999988" fill="none"/>
<path d="m247.734,1106.28,0,15" stroke-width="0.99999988" fill="none"/>
<path d="m277.734,1106.28,0,15" stroke-width="0.99999988" fill="none"/>
<path d="m307.734,1106.28,0,15" stroke-width="0.99999988" fill="none"/>
<path d="m367.734,1106.28,0,15" stroke-width="0.99999988" fill="none"/>
<path d="m397.734,1106.28,0,15" stroke-width="0.99999988" fill="none"/>
<path d="m427.734,1106.28,0,15" stroke-width="0.99999988" fill="none"/>
<path d="m262.734,1121.28,0,15" stroke-width="0.99999988" fill="none"/>
<path d="m292.734,1121.28,0,15" stroke-width="0.99999988" fill="none"/>
<path d="m322.734,1126.28,0,10" stroke-width="0.99999988" fill="none"/>
<path d="m352.734,1126.28,0,10" stroke-width="0.99999988" fill="none"/>
<path d="m382.734,1121.28,0,15" stroke-width="0.99999988" fill="none"/>
<path d="m412.734,1121.28,0,15" stroke-width="0.99999988" fill="none"/>
<path d="m277.734,1136.28,0,18.622" stroke-width="0.99999988" fill="none"/>
<path d="m247.734,1136.28,0,8.043" stroke-width="0.99999988" fill="none"/>
<path d="m337.734,1141.28,0,14" stroke-width="0.99999988" fill="none"/>
<path d="m397.734,1136.28,0,18.834" stroke-width="0.99999988" fill="none"/>
<path d="m427.734,1136.28,0,8.043" stroke-width="0.99999988" fill="none"/>
<path d="m337.733,1080.57,23.5245,40.745-47.0489,0,23.5244-40.745z" stroke-width="3" fill="none"/>
<path d="m337.733,1134.9-23.5244-40.745,47.0489,0-23.5245,40.745z" stroke-width="3" fill="none"/>
</g>
<g transform="translate(-74.5679,46.1404)">
<path d="m359.52,859.891c0,3.1777-2.5764,5.7535-5.7546,5.7535s-5.7546-2.5758-5.7546-5.7535c0-3.1775,2.5764-5.7536,5.7546-5.7536s5.7546,2.5761,5.7546,5.7536z" fill-rule="evenodd" stroke-width="1" fill="#ed1c24"/>
<path d="m354.799,867.813c0,3.1777-2.5765,5.7535-5.7547,5.7535s-5.7546-2.5758-5.7546-5.7535c0-3.1775,2.5764-5.7535,5.7546-5.7535s5.7547,2.576,5.7547,5.7535z" fill-rule="evenodd" stroke-width="1" fill="#ed1c24"/>
<path d="m356.878,834.55c0,3.1778-2.5765,5.7535-5.7547,5.7535-3.1781,0-5.7546-2.5757-5.7546-5.7535,0-3.1775,2.5764-5.7535,5.7546-5.7535s5.7547,2.576,5.7547,5.7535z" fill-rule="evenodd" stroke-width="1" fill="#ed1c24"/>
<path d="m360.7,844.271c0,3.1778-2.5765,5.7536-5.7546,5.7536-3.1782,0-5.7547-2.5758-5.7547-5.7536,0-3.1774,2.5765-5.7535,5.7547-5.7535,3.1781,0,5.7546,2.5761,5.7546,5.7535z" fill-rule="evenodd" stroke-width="1" fill="#ed1c24"/>
<path d="m350.022,853.036c0,3.1777-2.5765,5.7535-5.7546,5.7535-3.1782,0-5.7547-2.5758-5.7547-5.7535,0-3.1775,2.5765-5.7536,5.7547-5.7536,3.1781,0,5.7546,2.5761,5.7546,5.7536z" fill-rule="evenodd" stroke-width="1" fill="#ed1c24"/>
<path d="m358.958,852.474c0,3.1777-2.5765,5.7535-5.7547,5.7535s-5.7546-2.5758-5.7546-5.7535c0-3.1775,2.5764-5.7535,5.7546-5.7535s5.7547,2.576,5.7547,5.7535z" fill-rule="evenodd" stroke-width="1" fill="#ed1c24"/>
<path d="m351.09,859.947c0,3.1777-2.5764,5.7535-5.7546,5.7535s-5.7546-2.5758-5.7546-5.7535c0-3.1775,2.5764-5.7536,5.7546-5.7536s5.7546,2.5761,5.7546,5.7536z" fill-rule="evenodd" stroke-width="1" fill="#ed1c24"/>
<path d="m350.55,895.269-0.1009-1.7926c2.5387-3.5417,13.2571-15.0422,23.3417-17.7519,14.0778-3.7824,23.6173-0.7545,29.2736,0.4922,0.1281-0.013-4.325,3.1317-6.6649,5.4606-2.3486,2.3376-8.306,9.5292-18.1026,10.6412-9.351,1.0615-18.703-0.1917-27.7469,2.9505z" stroke-dasharray="none" stroke-width="1" fill="#008f4c"/>
<path d="m350.751,894.153c14.0599-8.6781,33.313-16.4777,52.3141-17.9362" stroke-dasharray="none" stroke-width="1" fill="none"/>
<path d="m317.647,890.147c4.227,1.7732,24.5393,5.3433,29.4385,3.9223l0.322-1.4324s-18.2055-17.0371-25.6981-19.7461c-9.5816-3.4642-20.8999-1.8133-25.6416-2.6287,0.1183,0.1747,5.6126,6.7471,7.8361,9.8231,3.1642,4.3776,9.4562,8.2635,13.7431,10.0618z" stroke-dasharray="none" stroke-width="1" fill="#008f4c"/>
<path d="m296.068,870.262c15.7042,5.6208,36.6366,14.6592,51.0616,23.1404" stroke-dasharray="none" stroke-width="1" fill="none"/>
<path d="m349.834,905.36-7.3093,0c4.7568-11.5774,4.6783-20.3951,4.6371-30.8934h3.9368c1.2991,10.37,0.3165,20.6467-1.2646,30.8934z" stroke-dasharray="none" stroke-width="0.99999988" fill="#008f4c"/>
<path d="m352.551,838.484c0,3.1777-2.5765,5.7535-5.7547,5.7535-3.1781,0-5.7546-2.5758-5.7546-5.7535,0-3.1775,2.5765-5.7535,5.7546-5.7535,3.1782,0,5.7547,2.576,5.7547,5.7535z" fill-rule="evenodd" stroke-width="1" fill="#ed1c24"/>
<path d="m350.978,846.013c0,3.1778-2.5764,5.7535-5.7546,5.7535s-5.7546-2.5757-5.7546-5.7535c0-3.1775,2.5764-5.7535,5.7546-5.7535s5.7546,2.576,5.7546,5.7535z" fill-rule="evenodd" stroke-width="1" fill="#ed1c24"/>
<path d="m357.818,851.056c0,8.6014-3.8824,16.8991-8.6365,21.8559-5.3453-5.47-8.6701-13.2368-8.6701-21.8559,0-8.6016,3.3471-16.3683,8.6858-21.8146,5.323,5.4463,8.6208,13.213,8.6208,21.8146zm3.18-23.5727c11.1618,3.6999,16.8177,12.8637,16.8177,23.5905,0,13.9706-12.2953,24.573-28.2585,24.573-15.9588,0-28.9034-10.6024-28.9034-24.573,0-10.5611,5.323-22.3592,16.4207-23.2115-0.8138-2.8196-2.8582-4.7299-4.7163-6.8079,4.1701-1.0405,7.5326,0.1656,10.7581,2.8828,1.4221-3.2911,3.7377-5.6329,6.5429-7.5774,2.3454,1.8921,3.6329,4.3554,4.5817,7.2222,2.4634-2.4158,5.5438-3.4584,8.6959-4.4043-0.8259,2.7869-1.7893,5.3791-1.9388,8.3056z" fill-rule="evenodd" stroke-dasharray="none" stroke-width="0.99999988" fill="#008f4c"/>
</g>
</g>
<path stroke-linejoin="round" d="M26.5,361.5v348.5c0,137.172,111.328,248.5,248.5,248.5s248.5-111.328,248.5-248.5v-348.5z" stroke="#000" stroke-linecap="round" stroke-miterlimit="4" stroke-width="3" fill="none"/>
</svg>
