<?xml version="1.0" encoding="UTF-8" standalone="no"?>
<!-- Created with Inkscape (http://www.inkscape.org/) -->

<svg
   xmlns:dc="http://purl.org/dc/elements/1.1/"
   xmlns:cc="http://creativecommons.org/ns#"
   xmlns:rdf="http://www.w3.org/1999/02/22-rdf-syntax-ns#"
   xmlns:svg="http://www.w3.org/2000/svg"
   xmlns="http://www.w3.org/2000/svg"
   xmlns:sodipodi="http://sodipodi.sourceforge.net/DTD/sodipodi-0.dtd"
   xmlns:inkscape="http://www.inkscape.org/namespaces/inkscape"
   width="500"
   height="610"
   id="svg3507"
   sodipodi:version="0.32"
   inkscape:version="0.48.1 "
   version="1.0"
   sodipodi:docname="Escudo de Guadix (Granada) 2.svg"
   inkscape:output_extension="org.inkscape.output.svg.inkscape">
  <defs
     id="defs3509" />
  <sodipodi:namedview
     id="base"
     pagecolor="#ffffff"
     bordercolor="#666666"
     borderopacity="1.0"
     inkscape:pageopacity="0"
     inkscape:pageshadow="2"
     inkscape:zoom="0.94098361"
     inkscape:cx="250"
     inkscape:cy="305"
     inkscape:document-units="px"
     inkscape:current-layer="layer6"
     showgrid="false"
     inkscape:showpageshadow="false"
     inkscape:window-width="1280"
     inkscape:window-height="774"
     inkscape:window-x="-4"
     inkscape:window-y="-4"
     showguides="true"
     inkscape:guide-bbox="true"
     gridtolerance="5"
     inkscape:window-maximized="1">
    <inkscape:grid
       type="xygrid"
       id="grid3709"
       visible="true"
       enabled="true"
       empspacing="5"
       snapvisiblegridlinesonly="true" />
  </sodipodi:namedview>
  <metadata
     id="metadata3512">
    <rdf:RDF>
      <cc:Work
         rdf:about="">
        <dc:format>image/svg+xml</dc:format>
        <dc:type
           rdf:resource="http://purl.org/dc/dcmitype/StillImage" />
        <dc:title />
      </cc:Work>
    </rdf:RDF>
  </metadata>
  <g
     inkscape:label="Ornamentos"
     inkscape:groupmode="layer"
     id="layer1"
     style="display:inline"
     transform="translate(0,-365)" />
  <g
     inkscape:groupmode="layer"
     id="layer2"
     inkscape:label="Timbre"
     style="display:inline"
     transform="translate(0,-365)" />
  <g
     inkscape:groupmode="layer"
     id="layer3"
     inkscape:label="Escudo"
     style="display:inline"
     transform="translate(0,-365)">
    <g
       id="g14297"
       transform="translate(-25,0)">
      <path
         sodipodi:nodetypes="cssscc"
         id="path4101"
         d="m 25.5,375.49999 0,349.5 C 25.5,862.7239 137.276,974.5 275,974.5 c 137.72401,0 249.50001,-111.7761 249.50001,-249.50001 l 0,-349.5 -499.00001,0 z"
         style="fill:#eac102;fill-opacity:1;fill-rule:nonzero;stroke:#000000;stroke-width:1;stroke-linecap:butt;stroke-linejoin:miter;stroke-miterlimit:4;stroke-opacity:1;stroke-dasharray:none;display:inline"
         inkscape:connector-curvature="0" />
      <path
         style="fill:#ed1c24;fill-opacity:1;fill-rule:nonzero;stroke:#000000;stroke-width:1;stroke-linecap:butt;stroke-linejoin:miter;stroke-miterlimit:4;stroke-opacity:1;stroke-dasharray:none;display:inline"
         d="m 275,974.5 c 137.72401,0 249.50001,-111.7761 249.50001,-249.50001 L 524.50001,675 275,675 l 0,299.5 z"
         id="path3071"
         sodipodi:nodetypes="csccc"
         inkscape:connector-curvature="0" />
      <path
         style="fill:#ed1c24;fill-opacity:1;fill-rule:nonzero;stroke:#000000;stroke-width:1;stroke-linecap:butt;stroke-linejoin:miter;stroke-miterlimit:4;stroke-opacity:1;stroke-dasharray:none;display:inline"
         d="M 25.5,375.49999 25.5,675 l 249.5,0 0,-299.50001 -249.5,0 z"
         id="path3073"
         sodipodi:nodetypes="ccccc"
         inkscape:connector-curvature="0" />
    </g>
  </g>
  <g
     inkscape:groupmode="layer"
     id="layer4"
     inkscape:label="Piezas"
     style="display:inline"
     transform="translate(0,-365)" />
  <g
     inkscape:groupmode="layer"
     id="layer5"
     inkscape:label="Muebles"
     style="display:inline"
     transform="translate(0,-365)">
    <g
       id="g33521"
       inkscape:label="Meubles"
       sodipodi:insensitive="true"
       transform="matrix(-0.6335151,0,0,0.6335151,532.93805,1217.4823)" />
    <g
       id="g14265"
       transform="translate(-25,0)">
      <g
         transform="translate(1.35283,-4.429305)"
         id="g4196">
        <path
           inkscape:connector-curvature="0"
           style="fill:#000000;fill-rule:evenodd;stroke:#000000;stroke-width:0.99999994;stroke-linecap:round;stroke-linejoin:round;stroke-opacity:1;display:inline"
           d="m 398.3972,644.1793 -6.00323,-24.02116 4.27142,2.28343 0,-180.63233 -4.27142,-6.4571 0,-20.17284 6.0031,9.03998 6.00331,-9.03998 0,20.17284 -4.27151,6.4571 0,180.63233 4.27137,-2.28343 z"
           id="path6174-76"
           sodipodi:nodetypes="ccccccccccccc" />
        <path
           sodipodi:nodetypes="ccccccccccccc"
           id="path6227-1"
           d="m 374.60933,641.6772 -0.88155,-24.74533 3.70367,3.12229 37.52716,-176.68511 -2.8366,-7.20473 4.19099,-19.73202 3.99387,10.09155 7.75024,-7.5934 -4.19106,19.73202 -5.5196,5.42723 -37.52716,176.6851 4.65239,-1.34478 z"
           style="fill:#000000;fill-rule:evenodd;stroke:#000000;stroke-width:0.99999994;stroke-linecap:round;stroke-linejoin:round;stroke-opacity:1;display:inline"
           inkscape:connector-curvature="0" />
        <path
           inkscape:connector-curvature="0"
           style="fill:#000000;fill-rule:evenodd;stroke:#000000;stroke-width:0.99999994;stroke-linecap:round;stroke-linejoin:round;stroke-opacity:1;display:inline"
           d="m 351.78584,633.74742 4.27871,-24.38801 2.97404,3.82468 73.41425,-165.01587 -1.27783,-7.63751 8.19885,-18.42883 1.80999,10.70207 9.15843,-5.81491 -8.19884,18.42878 -6.52651,4.16018 -73.41425,165.0159 4.83015,-0.34739 z"
           id="path6229-8"
           sodipodi:nodetypes="ccccccccccccc" />
        <path
           sodipodi:nodetypes="ccccccccccccc"
           id="path6231-92"
           d="m 330.87757,621.18168 9.25188,-22.9648 2.11446,4.35989 106.09275,-146.13465 0.33682,-7.73645 11.84834,-16.32021 -0.45292,10.84478 10.16634,-3.78225 -11.84836,16.32013 -7.24815,2.71132 -106.09275,146.13466 4.79674,0.66522 z"
           style="fill:#000000;fill-rule:evenodd;stroke:#000000;stroke-width:0.99999994;stroke-linecap:round;stroke-linejoin:round;stroke-opacity:1;display:inline"
           inkscape:connector-curvature="0" />
        <path
           sodipodi:nodetypes="ccccccccccccc"
           id="path6235-7"
           d="m 422.18509,641.67719 -10.86256,-22.24715 4.65245,1.34477 -37.52715,-176.68505 -5.51953,-5.4273 -4.19106,-19.73202 7.75002,7.5934 3.99409,-10.09155 4.19099,19.73202 -2.83668,7.20481 37.52716,176.68504 3.7036,-3.12226 z"
           style="fill:#000000;fill-rule:evenodd;stroke:#000000;stroke-width:0.99999994;stroke-linecap:round;stroke-linejoin:round;stroke-opacity:1;display:inline"
           inkscape:connector-curvature="0" />
        <path
           inkscape:connector-curvature="0"
           style="fill:#000000;fill-rule:evenodd;stroke:#000000;stroke-width:0.99999994;stroke-linecap:round;stroke-linejoin:round;stroke-opacity:1;display:inline"
           d="m 445.00858,633.74739 -15.24714,-19.50084 4.83015,0.34735 -73.41418,-165.01584 -6.5265,-4.16024 -8.19885,-18.42877 9.15822,5.81491 1.8102,-10.70208 8.19886,18.42884 -1.27784,7.63757 73.41419,165.01581 2.97397,-3.82464 z"
           id="path6237-9"
           sodipodi:nodetypes="ccccccccccccc" />
        <path
           sodipodi:nodetypes="ccccccccccccc"
           id="path6239-5"
           d="m 465.91685,621.18163 -18.9653,-15.90223 4.79675,-0.66525 -106.09268,-146.13464 -7.24816,-2.71139 -11.84835,-16.32013 10.16612,3.78232 -0.45271,-10.84485 11.84835,16.32021 0.33681,7.73653 106.09269,146.13461 2.11439,-4.35986 z"
           style="fill:#000000;fill-rule:evenodd;stroke:#000000;stroke-width:0.99999994;stroke-linecap:round;stroke-linejoin:round;stroke-opacity:1;display:inline"
           inkscape:connector-curvature="0" />
        <path
           sodipodi:nodetypes="ssssscssccsccsccscscssscssssccssscc"
           inkscape:connector-curvature="0"
           id="path3277"
           d="m 355.38852,497.26529 c -1.31083,0.0425 -2.57884,0.37753 -3.71246,0.95816 -2.26725,1.16128 -4.0547,3.16856 -5.47888,5.5693 -2.84836,4.80149 -4.34401,11.3538 -4.31125,17.75588 0.0328,6.40209 1.57861,12.76768 5.80821,16.7079 0.53179,0.49541 1.21537,0.77624 1.82629,1.16776 -0.62156,2.67777 -1.02309,5.34995 -1.04787,7.96469 -0.0603,6.35309 3.51377,10.65851 7.87402,11.73745 4.36024,1.07895 9.29848,-0.89989 11.76612,-5.47947 l -3.80229,-2.06603 c -1.59302,2.95642 -4.49365,3.96037 -6.9459,3.35356 -2.45225,-0.60682 -4.62675,-2.65752 -4.5807,-7.51556 0.0191,-2.00788 0.3121,-4.13499 0.80836,-6.34781 3.76,0.81849 8.27433,0.32194 13.53253,-2.24568 7.68591,-3.75309 21.31851,-8.45474 26.73942,-10.21325 l -1.31733,-4.10212 c -5.4142,1.75633 -19.17563,6.48157 -27.30826,10.45279 -4.61101,2.2516 -7.89178,2.6327 -10.47873,2.09597 1.75552,-5.77238 4.32551,-11.81468 6.49681,-17.36663 1.76854,-4.52211 3.20679,-8.70002 3.38314,-12.48601 0.0881,-1.893 -0.15861,-3.71985 -1.01794,-5.3597 -0.85933,-1.63985 -2.34701,-2.98389 -4.25137,-3.80269 -1.32078,-0.5679 -2.67109,-0.82105 -3.98192,-0.77851 z m 0.1497,4.28177 c 0.64849,-0.021 1.31899,0.10229 2.12568,0.44914 1.16429,0.5006 1.76053,1.07253 2.15563,1.82649 0.3951,0.75397 0.57337,1.79124 0.50897,3.1739 -0.12881,2.76532 -1.39243,6.7374 -3.11368,11.1386 -2.04266,5.22299 -4.61113,11.07739 -6.46688,17.03727 -0.0371,-0.0334 -0.0832,-0.0558 -0.11976,-0.0898 -2.85315,-2.65796 -4.40197,-7.85967 -4.431,-13.534 -0.029,-5.67433 1.42506,-11.71419 3.71246,-15.57008 1.14371,-1.92795 2.48428,-3.27806 3.74241,-3.92247 0.62907,-0.32221 1.23768,-0.488 1.88617,-0.50902 z"
           style="font-size:medium;font-style:normal;font-variant:normal;font-weight:normal;font-stretch:normal;text-indent:0;text-align:start;text-decoration:none;line-height:normal;letter-spacing:normal;word-spacing:normal;text-transform:none;direction:ltr;block-progression:tb;writing-mode:lr-tb;text-anchor:start;baseline-shift:baseline;color:#000000;fill:#000000;fill-opacity:1;stroke:#eac102;stroke-width:1;stroke-linecap:round;stroke-linejoin:round;stroke-miterlimit:4;stroke-opacity:1;stroke-dasharray:none;marker:none;visibility:visible;display:inline;overflow:visible;enable-background:accumulate;font-family:Sans;-inkscape-font-specification:Sans" />
        <path
           style="font-size:medium;font-style:normal;font-variant:normal;font-weight:normal;font-stretch:normal;text-indent:0;text-align:start;text-decoration:none;line-height:normal;letter-spacing:normal;word-spacing:normal;text-transform:none;direction:ltr;block-progression:tb;writing-mode:lr-tb;text-anchor:start;baseline-shift:baseline;color:#000000;fill:#000000;fill-opacity:1;stroke:#eac102;stroke-width:1;stroke-linecap:round;stroke-linejoin:round;stroke-miterlimit:4;stroke-opacity:1;stroke-dasharray:none;marker:none;visibility:visible;display:inline;overflow:visible;enable-background:accumulate;font-family:Sans;-inkscape-font-specification:Sans"
           d="m 441.40582,559.40994 c 1.31083,-0.0425 2.57885,-0.37752 3.71246,-0.95816 2.26725,-1.16128 4.05471,-3.16855 5.47888,-5.5693 2.84836,-4.80148 4.34401,-11.3538 4.31125,-17.75588 -0.0328,-6.40208 -1.57861,-12.76768 -5.80821,-16.7079 -0.53179,-0.4954 -1.21537,-0.77624 -1.82629,-1.16775 0.62156,-2.67778 1.02309,-5.34996 1.04787,-7.9647 0.0603,-6.35308 -3.51377,-10.6585 -7.87402,-11.73745 -4.36024,-1.07894 -9.29848,0.89989 -11.76612,5.47947 l 3.80229,2.06603 c 1.59302,-2.95642 4.49365,-3.96037 6.9459,-3.35355 2.45225,0.60681 4.62675,2.65752 4.5807,7.51556 -0.0191,2.00788 -0.3121,4.13498 -0.80836,6.3478 -3.76,-0.81849 -8.27433,-0.32194 -13.53253,2.24568 -7.6859,3.75309 -21.31851,8.45474 -26.73942,10.21325 l 1.31733,4.10212 c 5.4142,-1.75632 19.17563,-6.48156 27.30826,-10.45279 4.61101,-2.25159 7.89178,-2.6327 10.47873,-2.09597 -1.75552,5.77238 -4.32551,11.81469 -6.49681,17.36663 -1.76854,4.52211 -3.20678,8.70002 -3.38313,12.48601 -0.0882,1.893 0.1586,3.71985 1.01793,5.3597 0.85933,1.63985 2.34702,2.98389 4.25137,3.8027 1.32079,0.56789 2.67109,0.82104 3.98192,0.7785 z m -0.1497,-4.28177 c -0.64849,0.021 -1.31899,-0.10229 -2.12568,-0.44914 -1.16429,-0.5006 -1.76053,-1.07252 -2.15563,-1.82649 -0.3951,-0.75397 -0.57336,-1.79124 -0.50896,-3.1739 0.1288,-2.76531 1.39242,-6.7374 3.11368,-11.1386 2.04265,-5.22299 4.61112,-11.07739 6.46687,-17.03726 0.0371,0.0334 0.0832,0.0558 0.11976,0.0898 2.85315,2.65795 4.40198,7.85966 4.431,13.53399 0.029,5.67433 -1.42506,11.71419 -3.71246,15.57009 -1.14371,1.92795 -2.48428,3.27805 -3.74241,3.92246 -0.62906,0.32221 -1.23768,0.488 -1.88617,0.50902 z"
           id="path4100"
           inkscape:connector-curvature="0"
           sodipodi:nodetypes="ssssscssccsccsccscscssscssssccssscc" />
        <path
           transform="matrix(0.88904662,-0.45781668,0.4577385,0.88908687,0,0)"
           style="fill:#000000;fill-opacity:1;fill-rule:evenodd;stroke:#eac102;stroke-width:1;stroke-linecap:round;stroke-linejoin:round;stroke-miterlimit:4;stroke-opacity:1;stroke-dashoffset:0;display:inline"
           d="m 102.58815,649.74463 19.53094,0 c 1.32702,0 2.39534,1.06832 2.39534,2.39534 0,1.32702 -1.06832,2.39535 -2.39534,2.39535 l -19.53094,0 c -1.32702,0 -2.39534,-1.06833 -2.39534,-2.39535 0,-1.32702 1.06832,-2.39534 2.39534,-2.39534 z"
           id="rect3281-1"
           inkscape:connector-curvature="0" />
        <path
           transform="matrix(-0.88904662,-0.45781668,-0.4577385,0.88908687,0,0)"
           style="fill:#000000;fill-opacity:1;fill-rule:evenodd;stroke:#eac102;stroke-width:1;stroke-linecap:round;stroke-linejoin:round;stroke-miterlimit:4;stroke-opacity:1;stroke-dashoffset:0;display:inline"
           d="m -605.83128,284.95886 19.53094,0 c 1.32702,0 2.39534,1.06833 2.39534,2.39535 0,1.32702 -1.06832,2.39534 -2.39534,2.39534 l -19.53094,0 c -1.32702,0 -2.39534,-1.06832 -2.39534,-2.39534 0,-1.32702 1.06832,-2.39535 2.39534,-2.39535 z"
           id="rect4086"
           inkscape:connector-curvature="0" />
      </g>
      <g
         id="g4278">
        <path
           inkscape:connector-curvature="0"
           style="fill:#000000;fill-rule:evenodd;stroke:#000000;stroke-width:0.99999994;stroke-linecap:round;stroke-linejoin:round;stroke-opacity:1;display:inline"
           d="m 162.33809,934.49992 -6.00323,-24.02116 4.27142,2.28343 0,-180.63233 -4.27142,-6.4571 0,-20.17284 6.0031,9.03998 6.00331,-9.03998 0,20.17284 -4.27151,6.4571 0,180.63233 4.27137,-2.28343 z"
           id="path6174-1"
           sodipodi:nodetypes="ccccccccccccc" />
        <path
           sodipodi:nodetypes="ccccccccccccc"
           id="path6227-42"
           d="m 140.07205,924.36811 -0.88155,-24.74532 3.70367,3.12228 36.00533,-169.0554 -2.8366,-7.20473 4.19099,-19.73202 3.99387,10.09155 7.75024,-7.5934 -4.19106,19.73202 -5.5196,5.42723 -36.00533,169.05539 4.65238,-1.34478 z"
           style="fill:#000000;fill-rule:evenodd;stroke:#000000;stroke-width:0.99999994;stroke-linecap:round;stroke-linejoin:round;stroke-opacity:1;display:inline"
           inkscape:connector-curvature="0" />
        <path
           inkscape:connector-curvature="0"
           style="fill:#000000;fill-rule:evenodd;stroke:#000000;stroke-width:0.99999994;stroke-linecap:round;stroke-linejoin:round;stroke-opacity:1;display:inline"
           d="m 121.19788,912.03567 4.2787,-24.38802 2.97404,3.82468 67.94311,-152.98348 -1.27783,-7.63751 8.19885,-18.42883 1.80999,10.70207 9.15843,-5.81491 -8.19884,18.42877 -6.52651,4.16018 -67.9431,152.98351 4.83015,-0.34738 z"
           id="path6229-3"
           sodipodi:nodetypes="ccccccccccccc" />
        <path
           sodipodi:nodetypes="ccccccccccccc"
           id="path6231-2"
           d="m 104.92299,897.43693 9.25188,-22.9648 2.11446,4.35989 95.98822,-132.06928 0.33682,-7.73645 11.84834,-16.32021 -0.45292,10.84478 10.16634,-3.78225 -11.84836,16.32014 -7.24815,2.71132 -95.98822,132.06929 4.79674,0.66523 z"
           style="fill:#000000;fill-rule:evenodd;stroke:#000000;stroke-width:0.99999994;stroke-linecap:round;stroke-linejoin:round;stroke-opacity:1;display:inline"
           inkscape:connector-curvature="0" />
        <path
           sodipodi:nodetypes="ccccccccccccc"
           id="path6235-2"
           d="m 186.12598,931.99782 -10.86256,-22.24715 4.65245,1.34477 -37.52715,-176.68505 -5.51953,-5.4273 -4.19106,-19.73202 7.75002,7.5934 3.99409,-10.09155 4.19099,19.73202 -2.83668,7.20481 37.52716,176.68504 3.7036,-3.12226 z"
           style="fill:#000000;fill-rule:evenodd;stroke:#000000;stroke-width:0.99999994;stroke-linecap:round;stroke-linejoin:round;stroke-opacity:1;display:inline"
           inkscape:connector-curvature="0" />
        <path
           inkscape:connector-curvature="0"
           style="fill:#000000;fill-rule:evenodd;stroke:#000000;stroke-width:0.99999994;stroke-linecap:round;stroke-linejoin:round;stroke-opacity:1;display:inline"
           d="m 208.94947,924.06802 -15.24714,-19.50084 4.83015,0.34735 -73.41418,-165.01585 -6.5265,-4.16024 -8.19885,-18.42877 9.15822,5.81491 1.8102,-10.70207 8.19886,18.42883 -1.27784,7.63758 73.41419,165.01582 2.97397,-3.82465 z"
           id="path6237-1"
           sodipodi:nodetypes="ccccccccccccc" />
        <path
           sodipodi:nodetypes="ccccccccccccc"
           id="path6239-6"
           d="m 229.85774,911.50225 -18.9653,-15.90223 4.79675,-0.66525 L 109.59651,748.80013 102.34835,746.08875 90.5,729.76861 l 10.16612,3.78232 -0.45271,-10.84485 11.84835,16.32021 0.33681,7.73653 106.09269,146.13461 2.11439,-4.35986 z"
           style="fill:#000000;fill-rule:evenodd;stroke:#000000;stroke-width:0.99999994;stroke-linecap:round;stroke-linejoin:round;stroke-opacity:1;display:inline"
           inkscape:connector-curvature="0" />
        <path
           style="font-size:medium;font-style:normal;font-variant:normal;font-weight:normal;font-stretch:normal;text-indent:0;text-align:start;text-decoration:none;line-height:normal;letter-spacing:normal;word-spacing:normal;text-transform:none;direction:ltr;block-progression:tb;writing-mode:lr-tb;text-anchor:start;baseline-shift:baseline;color:#000000;fill:#000000;fill-opacity:1;stroke:#eac102;stroke-width:1;stroke-linecap:round;stroke-linejoin:round;stroke-miterlimit:4;stroke-opacity:1;stroke-dasharray:none;marker:none;visibility:visible;display:inline;overflow:visible;enable-background:accumulate;font-family:Sans;-inkscape-font-specification:Sans"
           d="m 119.32941,787.58591 c -1.31083,0.0425 -2.57884,0.37753 -3.71246,0.95816 -2.26725,1.16128 -4.0547,3.16856 -5.47888,5.5693 -2.84836,4.80149 -4.34401,11.3538 -4.31125,17.75588 0.0328,6.40209 1.57861,12.76768 5.80821,16.7079 0.53179,0.49541 1.21537,0.77624 1.82629,1.16776 -0.62156,2.67777 -1.02309,5.34995 -1.04787,7.96469 -0.0603,6.35309 3.51377,10.65851 7.87402,11.73745 4.36024,1.07895 9.29848,-0.89989 11.76612,-5.47947 l -3.80229,-2.06603 c -1.59302,2.95642 -4.49365,3.96037 -6.9459,3.35356 -2.45225,-0.60682 -4.62675,-2.65752 -4.5807,-7.51556 0.0191,-2.00788 0.3121,-4.13499 0.80836,-6.34781 3.76,0.81849 8.27433,0.32194 13.53253,-2.24568 7.68591,-3.75309 21.31851,-8.45474 26.73942,-10.21325 l -1.31733,-4.10212 c -5.4142,1.75633 -19.17563,6.48157 -27.30826,10.45279 -4.61101,2.2516 -7.89178,2.6327 -10.47873,2.09597 1.75552,-5.77238 4.32551,-11.81468 6.49681,-17.36663 1.76854,-4.52211 3.20679,-8.70002 3.38314,-12.48601 0.0881,-1.893 -0.15861,-3.71985 -1.01794,-5.3597 -0.85933,-1.63985 -2.34701,-2.98389 -4.25137,-3.80269 -1.32078,-0.5679 -2.67109,-0.82105 -3.98192,-0.77851 z m 0.1497,4.28177 c 0.64849,-0.021 1.31899,0.10229 2.12568,0.44914 1.16429,0.5006 1.76053,1.07253 2.15563,1.82649 0.3951,0.75397 0.57337,1.79124 0.50897,3.1739 -0.12881,2.76532 -1.39243,6.7374 -3.11368,11.1386 -2.04266,5.22299 -4.61113,11.07739 -6.46688,17.03727 -0.0371,-0.0334 -0.0832,-0.0558 -0.11976,-0.0898 -2.85315,-2.65796 -4.40197,-7.85967 -4.431,-13.534 -0.029,-5.67433 1.42506,-11.71419 3.71246,-15.57008 1.14371,-1.92795 2.48428,-3.27806 3.74241,-3.92247 0.62907,-0.32221 1.23768,-0.488 1.88617,-0.50902 z"
           id="path4225"
           inkscape:connector-curvature="0"
           sodipodi:nodetypes="ssssscssccsccsccscscssscssssccssscc" />
        <path
           sodipodi:nodetypes="ssssscssccsccsccscscssscssssccssscc"
           inkscape:connector-curvature="0"
           id="path4227"
           d="m 205.34671,849.73056 c 1.31083,-0.0425 2.57885,-0.37752 3.71246,-0.95816 2.26725,-1.16128 4.05471,-3.16855 5.47888,-5.5693 2.84836,-4.80148 4.34401,-11.3538 4.31125,-17.75588 -0.0328,-6.40208 -1.57861,-12.76768 -5.80821,-16.7079 -0.53179,-0.4954 -1.21537,-0.77624 -1.82629,-1.16775 0.62156,-2.67778 1.02309,-5.34996 1.04787,-7.9647 0.0603,-6.35308 -3.51377,-10.6585 -7.87402,-11.73745 -4.36024,-1.07894 -9.29848,0.89989 -11.76612,5.47947 l 3.80229,2.06603 c 1.59302,-2.95642 4.49365,-3.96037 6.9459,-3.35355 2.45225,0.60681 4.62675,2.65752 4.5807,7.51556 -0.0191,2.00788 -0.3121,4.13498 -0.80836,6.3478 -3.76,-0.81849 -8.27433,-0.32194 -13.53253,2.24568 -7.6859,3.75309 -21.31851,8.45474 -26.73942,10.21325 l 1.31733,4.10212 c 5.4142,-1.75632 19.17563,-6.48156 27.30826,-10.45279 4.61101,-2.25159 7.89178,-2.6327 10.47873,-2.09597 -1.75552,5.77238 -4.32551,11.81469 -6.49681,17.36663 -1.76854,4.52211 -3.20678,8.70002 -3.38313,12.48601 -0.0882,1.893 0.1586,3.71985 1.01793,5.3597 0.85933,1.63985 2.34702,2.98389 4.25137,3.8027 1.32079,0.56789 2.67109,0.82104 3.98192,0.7785 z m -0.1497,-4.28177 c -0.64849,0.021 -1.31899,-0.10229 -2.12568,-0.44914 -1.16429,-0.5006 -1.76053,-1.07252 -2.15563,-1.82649 -0.3951,-0.75397 -0.57336,-1.79124 -0.50896,-3.1739 0.1288,-2.76531 1.39242,-6.7374 3.11368,-11.1386 2.04265,-5.22299 4.61112,-11.07739 6.46687,-17.03726 0.0371,0.0334 0.0832,0.0558 0.11976,0.0898 2.85315,2.65795 4.40198,7.85966 4.431,13.53399 0.029,5.67433 -1.42506,11.71419 -3.71246,15.57009 -1.14371,1.92795 -2.48428,3.27805 -3.74241,3.92246 -0.62906,0.32221 -1.23768,0.488 -1.88617,0.50902 z"
           style="font-size:medium;font-style:normal;font-variant:normal;font-weight:normal;font-stretch:normal;text-indent:0;text-align:start;text-decoration:none;line-height:normal;letter-spacing:normal;word-spacing:normal;text-transform:none;direction:ltr;block-progression:tb;writing-mode:lr-tb;text-anchor:start;baseline-shift:baseline;color:#000000;fill:#000000;fill-opacity:1;stroke:#eac102;stroke-width:1;stroke-linecap:round;stroke-linejoin:round;stroke-miterlimit:4;stroke-opacity:1;stroke-dasharray:none;marker:none;visibility:visible;display:inline;overflow:visible;enable-background:accumulate;font-family:Sans;-inkscape-font-specification:Sans" />
        <path
           transform="matrix(0.88904662,-0.45781668,0.4577385,0.88908687,0,0)"
           style="fill:#000000;fill-opacity:1;fill-rule:evenodd;stroke:#eac102;stroke-width:1;stroke-linecap:round;stroke-linejoin:round;stroke-miterlimit:4;stroke-opacity:1;stroke-dashoffset:0;display:inline"
           d="m -240.17984,799.78137 19.53094,0 c 1.32702,0 2.39534,1.06833 2.39534,2.39535 0,1.32702 -1.06832,2.39534 -2.39534,2.39534 l -19.53094,0 c -1.32702,0 -2.39534,-1.06832 -2.39534,-2.39534 0,-1.32702 1.06832,-2.39535 2.39534,-2.39535 z"
           id="rect4229"
           inkscape:connector-curvature="0" />
        <path
           transform="matrix(-0.88904662,-0.45781668,-0.4577385,0.88908687,0,0)"
           style="fill:#000000;fill-opacity:1;fill-rule:evenodd;stroke:#eac102;stroke-width:1;stroke-linecap:round;stroke-linejoin:round;stroke-miterlimit:4;stroke-opacity:1;stroke-dashoffset:0;display:inline"
           d="m -528.84514,651.13922 19.53094,0 c 1.32702,0 2.39535,1.06832 2.39535,2.39534 0,1.32702 -1.06833,2.39535 -2.39535,2.39535 l -19.53094,0 c -1.32702,0 -2.39534,-1.06833 -2.39534,-2.39535 0,-1.32702 1.06832,-2.39534 2.39534,-2.39534 z"
           id="rect4231"
           inkscape:connector-curvature="0" />
      </g>
      <g
         transform="translate(0.01892089,-0.24714753)"
         id="g14261">
        <path
           inkscape:connector-curvature="0"
           style="fill:#e3e4e5;fill-opacity:1;fill-rule:evenodd;stroke:#000000;stroke-width:0.99999994;stroke-linecap:round;stroke-linejoin:round;stroke-miterlimit:4;stroke-opacity:1;stroke-dasharray:none;display:inline"
           d="M 123.83496,467.39665 C 115.84947,458.0865 103.96562,452.32276 91.660258,452.9494 77.06157,453.69292 73.960979,447.49632 73.505602,441.4769 l 5.584491,-7.5115 -0.795527,-11.89355 -9.152941,-1.07471 c -4.918106,8.01505 -11.452968,19.1992 -7.515727,32.79682 3.161466,10.91872 6.441343,13.87459 11.795395,21.23297 l -1.978935,4.82047 2.384122,2.86493 c 26.03934,-19.67371 50.06914,7.26521 26.89633,32.32064 l 2.76958,3.32815 5.64435,-0.87005 c 5.09196,8.68853 10.67664,19.3715 19.51698,26.7377 5.6156,10.00515 15.13292,17.46988 22.76908,24.07639 l -1.93255,5.33042 2.76958,3.32815 c 29.20466,-17.80712 51.33084,10.71845 26.91061,32.33779 l 2.38411,2.86495 5.13398,-1.02914 c 6.26943,6.60927 8.58815,10.38053 18.79847,15.53092 12.71572,6.41381 25.01489,2.1565 33.88384,-1.11093 l 0.67287,-9.11556 -11.62473,-3.03158 -8.49684,4.0118 c -5.87337,-1.58567 -11.40591,-5.76327 -7.89938,-19.83596 6.30541,-25.30574 -16.57166,-54.34024 -47.6552,-48.66969 -6.09825,-10.53412 -9.68374,-15.11245 -19.19333,-18.20694 -1.25921,-9.84611 -5.11176,-14.2059 -14.38426,-22.14239 6.11629,-15.50608 2.09522,-30.61886 -6.95501,-41.17035 z"
           id="path14235" />
        <path
           inkscape:connector-curvature="0"
           style="font-size:medium;font-style:normal;font-variant:normal;font-weight:normal;font-stretch:normal;text-indent:0;text-align:start;text-decoration:none;line-height:normal;letter-spacing:normal;word-spacing:normal;text-transform:none;direction:ltr;block-progression:tb;writing-mode:lr-tb;text-anchor:start;baseline-shift:baseline;color:#000000;fill:#e3e4e5;fill-opacity:1;fill-rule:evenodd;stroke:#000000;stroke-width:0.99999994;stroke-linecap:round;stroke-linejoin:round;stroke-miterlimit:4;stroke-opacity:1;stroke-dasharray:none;marker:none;visibility:visible;display:inline;overflow:visible;enable-background:accumulate;font-family:Sans;-inkscape-font-specification:Sans"
           d="m 119.74031,470.86282 c 7.91646,9.22967 11.42019,22.08673 6.02772,35.75784 l -1.37534,3.51905 2.8685,2.46855 c 4.54629,3.89129 7.48174,6.72133 9.27966,9.33405 1.79793,2.61272 2.73847,5.09845 3.29436,9.44493 l 0.42611,3.34258 3.22859,1.04919 c 4.19794,1.36608 6.48055,2.75351 8.72619,4.99984 2.24564,2.24635 4.49059,5.64145 7.48057,10.80634 l 1.89975,3.26131 3.74518,-0.67126 c 27.40574,-4.99961 46.80017,20.66047 41.45207,42.12419 -1.94117,7.79044 -1.62242,13.87132 0.95619,18.48135 2.57861,4.61005 7.07229,6.78996 10.75179,7.78331 l 1.92438,0.53037 1.81906,-0.85417 6.70938,-3.15466 5.40944,1.39853 -0.0976,1.17568 c -8.0205,2.78959 -16.9909,4.96483 -26.34411,0.24707 -9.55753,-4.82072 -10.81176,-7.55837 -17.32766,-14.42749 l -1.44581,-1.52761 c 7.42001,-10.75788 7.38361,-22.87958 0.88443,-30.94609 -6.78373,-8.41988 -19.50924,-11.4157 -33.06441,-6.22125 l 0.75962,-2.09237 -2.76252,-2.4111 C 147.17372,557.53949 138.262,550.37703 133.3501,541.62553 l -0.47549,-0.85094 -0.75226,-0.62442 c -7.73266,-6.44316 -13.133,-16.47913 -18.329,-25.34514 l -1.86297,-3.14724 -2.2158,0.34254 c 7.71611,-12.21044 7.16208,-25.1731 0.11498,-33.37326 -6.75132,-7.85616 -18.735193,-10.17849 -30.793033,-4.99433 l -1.252337,-1.71475 c -5.564227,-7.64716 -8.021979,-9.36853 -10.98201,-19.59154 -2.896621,-10.00379 0.950255,-18.34076 5.229631,-25.6198 l 1.182531,0.12813 0.358136,5.53222 -4.396634,5.93382 -1.190907,1.60902 0.15994,1.97428 c 0.285511,3.77479 1.603918,8.57407 5.680102,11.9625 4.076183,3.38844 10.03294,4.84989 18.116789,4.43816 10.439762,-0.53164 20.810352,4.43068 27.798532,12.57804 z"
           id="path14237" />
      </g>
      <g
         transform="matrix(0.99997193,0.00749265,-0.00749265,0.99997193,5.4920353,-2.3101846)"
         id="g14253">
        <path
           id="path14247"
           d="m 360.77408,744.39038 c -7.07727,-8.09207 -18.22986,-12.43153 -30.28364,-10.64667 -14.30023,2.11758 -16.85024,-3.48213 -16.83304,-9.16861 l 6.0244,-7.69018 0.13569,-11.24577 -8.84768,-0.13923 c -5.41285,8.1052 -12.64605,19.3835 -9.84717,31.94814 2.24738,10.08927 5.22077,12.5865 9.88031,19.07461 l -2.30032,4.78016 2.10642,2.49717 c 26.91364,-21.24381 48.293,2.08139 23.76349,28.17175 l 2.44698,2.90092 5.57362,-1.37334 c 4.30185,7.77972 8.93152,17.41054 16.99185,23.56943 4.7118,8.98255 13.42509,15.16987 20.36881,20.72183 l -2.29417,5.26116 2.44699,2.90091 c 29.85877,-19.77248 49.25922,5.24702 23.7761,28.18671 l 2.10641,2.49718 5.08788,-1.47551 c 5.61006,5.68656 7.58318,9.05287 17.15002,12.97002 11.91438,4.878 24.24047,-0.36264 33.14397,-4.32966 l 1.35536,-8.74294 -11.10926,-1.76348 -8.59752,4.63973 c -5.6088,-0.94237 -10.68633,-4.38516 -6.18626,-18.12089 8.092,-24.69981 -12.00204,-50.1313 -42.76347,-41.73132 -5.14213,-9.43953 -8.28932,-13.45183 -17.33011,-15.47945 -0.47367,-9.25183 -3.89817,-13.0303 -12.33641,-19.69037 7.15617,-15.35233 4.39166,-29.3513 -3.62925,-38.5223 z"
           style="fill:#e3e4e5;fill-opacity:1;fill-rule:evenodd;stroke:#000000;stroke-width:1;stroke-linecap:round;stroke-linejoin:round;stroke-miterlimit:4;stroke-opacity:1;stroke-dasharray:none;display:inline"
           inkscape:connector-curvature="0" />
        <path
           id="path14249"
           d="m 356.51339,748.08556 c 7.01609,8.02212 9.44879,19.92362 3.13949,33.45917 l -1.61165,3.48293 2.60941,2.07303 c 4.13725,3.26547 6.78425,5.67618 8.33808,7.98985 1.55384,2.31368 2.28091,4.58925 2.49003,8.6734 l 0.15947,3.14096 3.06954,0.68705 c 3.99098,0.89511 6.11164,1.99552 8.13039,3.91716 2.01874,1.92165 3.94873,4.93698 6.46993,9.56518 l 1.60346,2.9213 3.70545,-1.0007 c 27.12174,-7.4061 44.07665,15.14927 37.21319,36.09905 -2.49117,7.60392 -2.64639,13.3621 -0.484,17.50181 2.16238,4.13972 6.37952,5.78104 9.89326,6.37139 l 1.83686,0.31908 1.84026,-0.98882 6.78787,-3.65113 5.1705,0.80902 -0.18531,1.12865 c -8.03907,3.43019 -16.95782,6.36726 -25.7216,2.77919 -8.95522,-3.66634 -9.96902,-6.15146 -15.79962,-12.06159 l -1.29349,-1.31466 c 8.06411,-10.95797 8.95794,-22.49424 3.23545,-29.5459 -5.97302,-7.36059 -18.15899,-8.98372 -31.78236,-2.72965 l 0.90155,-2.06528 -2.5104,-2.02859 c -7.08555,-5.6654 -15.23115,-11.62345 -19.3525,-19.48049 l -0.39867,-0.76417 -0.68607,-0.5218 c -7.0504,-5.38713 -11.54981,-14.41983 -15.93956,-22.35844 l -1.57631,-2.81626 -2.18811,0.54007 c 8.46437,-12.36938 8.91764,-24.65626 2.67082,-31.78224 -5.98462,-6.82706 -17.49865,-7.88065 -29.66035,-1.78098 l -1.09043,-1.51148 c -4.84245,-6.74273 -7.10839,-8.14412 -9.21258,-17.59053 -2.05912,-9.24383 2.33326,-17.55205 7.0665,-24.89491 l 1.14392,0.008 -0.0747,5.23206 -4.74451,6.07353 -1.28527,1.64677 0.005,1.86407 c -0.0108,3.566 0.90752,8.00757 4.62467,10.83971 3.71715,2.83215 9.41682,3.64821 17.3354,2.47562 10.22632,-1.51427 19.96394,2.20837 26.15733,9.28978 z"
           style="font-size:medium;font-style:normal;font-variant:normal;font-weight:normal;font-stretch:normal;text-indent:0;text-align:start;text-decoration:none;line-height:normal;letter-spacing:normal;word-spacing:normal;text-transform:none;direction:ltr;block-progression:tb;writing-mode:lr-tb;text-anchor:start;baseline-shift:baseline;color:#000000;fill:#e3e4e5;fill-opacity:1;fill-rule:evenodd;stroke:#000000;stroke-width:1;stroke-linecap:round;stroke-linejoin:round;stroke-miterlimit:4;stroke-opacity:1;stroke-dasharray:none;marker:none;visibility:visible;display:inline;overflow:visible;enable-background:accumulate;font-family:Sans;-inkscape-font-specification:Sans"
           inkscape:connector-curvature="0" />
      </g>
    </g>
  </g>
  <g
     inkscape:groupmode="layer"
     id="layer6"
     inkscape:label="Borde 3px"
     style="display:inline"
     transform="translate(0,-365)">
    <path
       style="fill:none;stroke:#000000;stroke-width:3;stroke-linecap:butt;stroke-linejoin:miter;stroke-miterlimit:4;stroke-opacity:1;stroke-dasharray:none;display:inline"
       d="m 1.5,376.5 0,348.5 c 0,137.1721 111.32794,248.5 248.50005,248.5 137.1722,0 248.5,-111.3279 248.5,-248.5 l 0,-348.5 L 1.5,376.5 z"
       id="path6574"
       sodipodi:nodetypes="cssscc"
       inkscape:connector-curvature="0" />
  </g>
</svg>
