<svg xmlns:rdf="http://www.w3.org/1999/02/22-rdf-syntax-ns#" xmlns="http://www.w3.org/2000/svg" height="100%" width="100%" version="1.0" xmlns:cc="http://creativecommons.org/ns#" xmlns:dc="http://purl.org/dc/elements/1.1/" viewBox="0 0 550 960">
<metadata>
<rdf:RDF>
<cc:Work rdf:about="">
<dc:format>image/svg+xml</dc:format>
<dc:type rdf:resource="http://purl.org/dc/dcmitype/StillImage"/>
<dc:title/>
</cc:Work>
</rdf:RDF>
</metadata>
<g stroke-linejoin="round" stroke="#000" stroke-linecap="round">
<g>
<path d="m126.904,160.389c-47.4497-2.054-88.5487,19.505-105.2703,46.096l50.536,73.206,46.9073,30.577,155.923-11.59,155.922,11.59,46.908-30.577,50.536-73.206c-16.721-26.591-57.82-48.15-105.27-46.097-49.777,2.155-74.619-23.708-148.096-23.708-73.478,0-98.32,25.863-148.097,23.708z" fill="#ed1c24"/>
<g>
<path d="m511.8256,207.248c19.5456-30.647,14.7835-52.773,2.7995-70.692,24.0799,20.568,30.4156,51.655,9.1264,87.081z" fill="#eac102"/>
<path d="m284.62,96.527c32.416,9.776,67.755,20.776,99.77,16.069,148.993-21.91,159.46,60.056,131.251,94.343l8.1105,16.698-7.6257,2.421-9.7328-19.557c32.728-34.367,17.7717-106.98-120.838-86.576-33.376,4.913-70.105-6.31-103.326-16.329z" fill="#eac102"/>
<path d="m515.641,206.939-9.248-0.438" fill="none"/>
<path d="m320.2925,100.4245a7.7835,7.7835,0,0,0,7.783,7.783,7.7835,7.7835,0,0,0,7.784,-7.783,7.7835,7.7835,0,0,0,-7.784,-7.784,7.7835,7.7835,0,0,0,-7.783,7.784z" fill="#e3e4e5"/>
<path d="m397.7925,102.3245a7.7835,7.7835,0,0,0,7.783,7.783,7.7835,7.7835,0,0,0,7.784,-7.783,7.7835,7.7835,0,0,0,-7.784,-7.784,7.7835,7.7835,0,0,0,-7.783,7.784z" fill="#e3e4e5"/>
<path d="m378.5425,104.5745a7.7835,7.7835,0,0,0,7.783,7.783,7.7835,7.7835,0,0,0,7.784,-7.783,7.7835,7.7835,0,0,0,-7.784,-7.784,7.7835,7.7835,0,0,0,-7.783,7.784z" fill="#e3e4e5"/>
<path d="m301.2925,95.6245a7.7835,7.7835,0,0,0,7.783,7.783,7.7835,7.7835,0,0,0,7.784,-7.783,7.7835,7.7835,0,0,0,-7.784,-7.784,7.7835,7.7835,0,0,0,-7.783,7.784z" fill="#e3e4e5"/>
<path d="m282.5425,90.22435a7.7835,7.7835,0,0,0,7.783,7.783,7.7835,7.7835,0,0,0,7.784,-7.783,7.7835,7.7835,0,0,0,-7.784,-7.784,7.7835,7.7835,0,0,0,-7.783,7.784z" fill="#e3e4e5"/>
<path d="m522.7466,212.679a7.7835,7.7835,0,0,0,7.783,7.783,7.7835,7.7835,0,0,0,7.784,-7.783,7.7835,7.7835,0,0,0,-7.784,-7.784,7.7835,7.7835,0,0,0,-7.783,7.784z" fill="#e3e4e5"/>
<path d="m530.2451,195.076a7.7835,7.7835,0,0,0,7.783,7.783,7.7835,7.7835,0,0,0,7.784,-7.783,7.7835,7.7835,0,0,0,-7.784,-7.784,7.7835,7.7835,0,0,0,-7.783,7.784z" fill="#e3e4e5"/>
<path d="m533.933,176.675a7.7835,7.7835,0,0,0,7.783,7.783,7.7835,7.7835,0,0,0,7.784,-7.783,7.7835,7.7835,0,0,0,-7.784,-7.784,7.7835,7.7835,0,0,0,-7.783,7.784z" fill="#e3e4e5"/>
<path d="m530.5421,158.1745a7.7835,7.7835,0,0,0,7.783,7.783,7.7835,7.7835,0,0,0,7.784,-7.783,7.7835,7.7835,0,0,0,-7.784,-7.784,7.7835,7.7835,0,0,0,-7.783,7.784z" fill="#e3e4e5"/>
<path d="m521.0421,141.6745a7.7835,7.7835,0,0,0,7.7829,7.783,7.7835,7.7835,0,0,0,7.7841,-7.783,7.7835,7.7835,0,0,0,-7.7841,-7.784,7.7835,7.7835,0,0,0,-7.7829,7.784z" fill="#e3e4e5"/>
<path d="m508.5421,126.9245a7.7835,7.7835,0,0,0,7.7829,7.783,7.7835,7.7835,0,0,0,7.7841,-7.783,7.7835,7.7835,0,0,0,-7.7841,-7.784,7.7835,7.7835,0,0,0,-7.7829,7.784z" fill="#e3e4e5"/>
<path d="m493.0421,115.9245a7.7835,7.7835,0,0,0,7.7829,7.783,7.7835,7.7835,0,0,0,7.7841,-7.783,7.7835,7.7835,0,0,0,-7.7841,-7.784,7.7835,7.7835,0,0,0,-7.7829,7.784z" fill="#e3e4e5"/>
<path d="m475.2921,107.9245a7.7835,7.7835,0,0,0,7.7829,7.783,7.7835,7.7835,0,0,0,7.7841,-7.783,7.7835,7.7835,0,0,0,-7.7841,-7.784,7.7835,7.7835,0,0,0,-7.7829,7.784z" fill="#e3e4e5"/>
<path d="m456.2922,103.4245a7.7835,7.7835,0,0,0,7.783,7.783,7.7835,7.7835,0,0,0,7.784,-7.783,7.7835,7.7835,0,0,0,-7.784,-7.784,7.7835,7.7835,0,0,0,-7.783,7.784z" fill="#e3e4e5"/>
<path d="m436.7925,101.4245a7.7835,7.7835,0,0,0,7.783,7.783,7.7835,7.7835,0,0,0,7.784,-7.783,7.7835,7.7835,0,0,0,-7.784,-7.784,7.7835,7.7835,0,0,0,-7.783,7.784z" fill="#e3e4e5"/>
<path d="m417.2925,101.1745a7.7835,7.7835,0,0,0,7.783,7.783,7.7835,7.7835,0,0,0,7.784,-7.783,7.7835,7.7835,0,0,0,-7.784,-7.784,7.7835,7.7835,0,0,0,-7.783,7.784z" fill="#e3e4e5"/>
<path d="m359.0425,105.9245a7.7835,7.7835,0,0,0,7.783,7.783,7.7835,7.7835,0,0,0,7.784,-7.783,7.7835,7.7835,0,0,0,-7.784,-7.784,7.7835,7.7835,0,0,0,-7.783,7.784z" fill="#e3e4e5"/>
<path d="m339.5425,104.1745a7.7835,7.7835,0,0,0,7.783,7.783,7.7835,7.7835,0,0,0,7.784,-7.783,7.7835,7.7835,0,0,0,-7.784,-7.784,7.7835,7.7835,0,0,0,-7.783,7.784z" fill="#e3e4e5"/>
</g>
<g>
<path color="#000000" style="text-transform:none;text-indent:0;" d="m360.0098,83.2883c58.73,8.2647,67.559,61.2927,37.213,98.7137l11.164,18.135-7.24,1.157-15.274-19.727c38.556-45.665,16.695-84.586-27.063-89.802-31.409-3.744-51.936,13.675-83.81,10.512v-8.477c24.666,3.635,57.285-14.4134,85.01-10.5117z" fill="#eac102"/>
<path color="#000000" style="text-transform:none;text-indent:0;" d="m408.3868,200.137-14.475-18.51c27.841-29.776,24.557-82.969-20.634-95.507,77.2708,17.892,51.427,72.899,52.518,102.232z" fill="#eac102"/>
<path d="m393.9118,181.627-8.039-0.06" fill="none"/>
<path d="m276.9663,86.3693a7.7835,7.7835,0,0,0,7.783,7.783,7.7835,7.7835,0,0,0,7.784,-7.783,7.7835,7.7835,0,0,0,-7.784,-7.784,7.7835,7.7835,0,0,0,-7.783,7.784z" fill="#e3e4e5"/>
<path d="m286.6228,85.56335a7.7835,7.7835,0,0,0,7.783,7.783,7.7835,7.7835,0,0,0,7.784,-7.783,7.7835,7.7835,0,0,0,-7.784,-7.784,7.7835,7.7835,0,0,0,-7.783,7.784z" fill="#e3e4e5"/>
<path d="m294.6863,83.8243a7.7835,7.7835,0,0,0,7.783,7.783,7.7835,7.7835,0,0,0,7.784,-7.783,7.7835,7.7835,0,0,0,-7.784,-7.784,7.7835,7.7835,0,0,0,-7.783,7.784z" fill="#e3e4e5"/>
<path d="m302.7783,81.5984a7.7835,7.7835,0,0,0,7.783,7.783,7.7835,7.7835,0,0,0,7.784,-7.783,7.7835,7.7835,0,0,0,-7.784,-7.784,7.7835,7.7835,0,0,0,-7.783,7.784z" fill="#e3e4e5"/>
<path d="m403.7763,183.1555a7.7835,7.7835,0,0,0,7.783,7.783,7.7835,7.7835,0,0,0,7.784,-7.783,7.7835,7.7835,0,0,0,-7.784,-7.784,7.7835,7.7835,0,0,0,-7.783,7.784z" fill="#e3e4e5"/>
<path d="m411.5013,165.1275a7.7835,7.7835,0,0,0,7.783,7.783,7.7835,7.7835,0,0,0,7.784,-7.783,7.7835,7.7835,0,0,0,-7.784,-7.784,7.7835,7.7835,0,0,0,-7.783,7.784z" fill="#e3e4e5"/>
<path d="m415.7193,146.2275a7.7835,7.7835,0,0,0,7.783,7.783,7.7835,7.7835,0,0,0,7.784,-7.783,7.7835,7.7835,0,0,0,-7.784,-7.784,7.7835,7.7835,0,0,0,-7.783,7.784z" fill="#e3e4e5"/>
<path d="m415.1433,127.5005a7.7835,7.7835,0,0,0,7.783,7.783,7.7835,7.7835,0,0,0,7.784,-7.783,7.7835,7.7835,0,0,0,-7.784,-7.784,7.7835,7.7835,0,0,0,-7.783,7.784z" fill="#e3e4e5"/>
<path d="m311.2028,79.7154a7.7835,7.7835,0,0,0,7.783,7.783,7.7835,7.7835,0,0,0,7.784,-7.783,7.7835,7.7835,0,0,0,-7.784,-7.784,7.7835,7.7835,0,0,0,-7.783,7.784z" fill="#e3e4e5"/>
<path d="m319.9033,77.77545a7.7835,7.7835,0,0,0,7.783,7.783,7.7835,7.7835,0,0,0,7.784,-7.783,7.7835,7.7835,0,0,0,-7.784,-7.784,7.7835,7.7835,0,0,0,-7.783,7.784z" fill="#e3e4e5"/>
<path d="m329.1353,76.2257a7.7835,7.7835,0,0,0,7.783,7.783,7.7835,7.7835,0,0,0,7.784,-7.783,7.7835,7.7835,0,0,0,-7.784,-7.784,7.7835,7.7835,0,0,0,-7.783,7.784z" fill="#e3e4e5"/>
<path d="m338.6008,75.1477a7.7835,7.7835,0,0,0,7.783,7.783,7.7835,7.7835,0,0,0,7.784,-7.783,7.7835,7.7835,0,0,0,-7.784,-7.784,7.7835,7.7835,0,0,0,-7.783,7.784z" fill="#e3e4e5"/>
<path d="m349.2963,75.1787a7.7835,7.7835,0,0,0,7.783,7.783,7.7835,7.7835,0,0,0,7.784,-7.783,7.7835,7.7835,0,0,0,-7.784,-7.784,7.7835,7.7835,0,0,0,-7.783,7.784z" fill="#e3e4e5"/>
<path d="m361.2313,77.0597a7.7835,7.7835,0,0,0,7.783,7.783,7.7835,7.7835,0,0,0,7.784,-7.783,7.7835,7.7835,0,0,0,-7.784,-7.784,7.7835,7.7835,0,0,0,-7.783,7.784z" fill="#e3e4e5"/>
<path d="m374.0443,80.6423a7.7835,7.7835,0,0,0,7.783,7.783,7.7835,7.7835,0,0,0,7.784,-7.783,7.7835,7.7835,0,0,0,-7.784,-7.784,7.7835,7.7835,0,0,0,-7.783,7.784z" fill="#e3e4e5"/>
<path d="m387.7703,86.74135a7.7835,7.7835,0,0,0,7.783,7.783,7.7835,7.7835,0,0,0,7.784,-7.783,7.7835,7.7835,0,0,0,-7.784,-7.784,7.7835,7.7835,0,0,0,-7.783,7.784z" fill="#e3e4e5"/>
<path d="m400.1513,97.0445a7.7835,7.7835,0,0,0,7.783,7.783,7.7835,7.7835,0,0,0,7.784,-7.783,7.7835,7.7835,0,0,0,-7.784,-7.784,7.7835,7.7835,0,0,0,-7.783,7.784z" fill="#e3e4e5"/>
<path d="m409.5618,110.9545a7.7835,7.7835,0,0,0,7.783,7.783,7.7835,7.7835,0,0,0,7.784,-7.783,7.7835,7.7835,0,0,0,-7.784,-7.784,7.7835,7.7835,0,0,0,-7.783,7.784z" fill="#e3e4e5"/>
</g>
<g>
<path d="m38.1744,207.248c-19.5456-30.647-14.7835-52.773-2.7995-70.692-24.0799,20.568-30.41563,51.655-9.1264,87.081z" fill="#eac102"/>
<path d="m265.38,96.527c-32.416,9.776-67.755,20.776-99.77,16.069-148.993-21.91-159.46,60.056-131.251,94.343l-8.1105,16.698,7.6257,2.421,9.7328-19.557c-32.728-34.367-17.7717-106.98,120.838-86.576,33.376,4.913,70.105-6.31,103.326-16.329z" fill="#eac102"/>
<path d="m34.359,206.939,9.248-0.438" fill="none"/>
<path d="m229.7075,100.4245a7.7835,7.7835,0,0,1,-7.783,7.783,7.7835,7.7835,0,0,1,-7.784,-7.783,7.7835,7.7835,0,0,1,7.784,-7.784,7.7835,7.7835,0,0,1,7.783,7.784z" fill="#e3e4e5"/>
<path d="m152.2075,102.3245a7.7835,7.7835,0,0,1,-7.783,7.783,7.7835,7.7835,0,0,1,-7.784,-7.783,7.7835,7.7835,0,0,1,7.784,-7.784,7.7835,7.7835,0,0,1,7.783,7.784z" fill="#e3e4e5"/>
<path d="m171.4575,104.5745a7.7835,7.7835,0,0,1,-7.783,7.783,7.7835,7.7835,0,0,1,-7.784,-7.783,7.7835,7.7835,0,0,1,7.784,-7.784,7.7835,7.7835,0,0,1,7.783,7.784z" fill="#e3e4e5"/>
<path d="m248.7075,95.6245a7.7835,7.7835,0,0,1,-7.783,7.783,7.7835,7.7835,0,0,1,-7.784,-7.783,7.7835,7.7835,0,0,1,7.784,-7.784,7.7835,7.7835,0,0,1,7.783,7.784z" fill="#e3e4e5"/>
<path d="m267.4575,90.22435a7.7835,7.7835,0,0,1,-7.783,7.783,7.7835,7.7835,0,0,1,-7.784,-7.783,7.7835,7.7835,0,0,1,7.784,-7.784,7.7835,7.7835,0,0,1,7.783,7.784z" fill="#e3e4e5"/>
<path d="m27.2534,212.679a7.7835,7.7835,0,0,1,-7.783,7.783,7.7835,7.7835,0,0,1,-7.784,-7.783,7.7835,7.7835,0,0,1,7.784,-7.784,7.7835,7.7835,0,0,1,7.783,7.784z" fill="#e3e4e5"/>
<path d="m19.7549,195.076a7.7835,7.7835,0,0,1,-7.783,7.783,7.7835,7.7835,0,0,1,-7.78401,-7.783,7.7835,7.7835,0,0,1,7.78401,-7.784,7.7835,7.7835,0,0,1,7.783,7.784z" fill="#e3e4e5"/>
<path stroke-width=".9999999" d="m16.067,176.6745a7.7835,7.7835,0,0,1,-7.7835,7.7835,7.7835,7.7835,0,0,1,-7.7835,-7.7835,7.7835,7.7835,0,0,1,7.7835,-7.7835,7.7835,7.7835,0,0,1,7.7835,7.7835z" fill="#e3e4e5"/>
<path d="m19.45793,158.1745a7.7835,7.7835,0,0,1,-7.78299,7.783,7.7835,7.7835,0,0,1,-7.784003,-7.783,7.7835,7.7835,0,0,1,7.784003,-7.784,7.7835,7.7835,0,0,1,7.78299,7.784z" fill="#e3e4e5"/>
<path d="m28.95795,141.6745a7.7835,7.7835,0,0,1,-7.78299,7.783,7.7835,7.7835,0,0,1,-7.78401,-7.783,7.7835,7.7835,0,0,1,7.78401,-7.784,7.7835,7.7835,0,0,1,7.78299,7.784z" fill="#e3e4e5"/>
<path d="m41.45795,126.9245a7.7835,7.7835,0,0,1,-7.78299,7.783,7.7835,7.7835,0,0,1,-7.78401,-7.783,7.7835,7.7835,0,0,1,7.78401,-7.784,7.7835,7.7835,0,0,1,7.78299,7.784z" fill="#e3e4e5"/>
<path d="m56.95795,115.9245a7.7835,7.7835,0,0,1,-7.78299,7.783,7.7835,7.7835,0,0,1,-7.78401,-7.783,7.7835,7.7835,0,0,1,7.78401,-7.784,7.7835,7.7835,0,0,1,7.78299,7.784z" fill="#e3e4e5"/>
<path d="m74.70795,107.9245a7.7835,7.7835,0,0,1,-7.78299,7.783,7.7835,7.7835,0,0,1,-7.78401,-7.783,7.7835,7.7835,0,0,1,7.78401,-7.784,7.7835,7.7835,0,0,1,7.78299,7.784z" fill="#e3e4e5"/>
<path d="m93.7078,103.4245a7.7835,7.7835,0,0,1,-7.78299,7.783,7.7835,7.7835,0,0,1,-7.78401,-7.783,7.7835,7.7835,0,0,1,7.78401,-7.784,7.7835,7.7835,0,0,1,7.78299,7.784z" fill="#e3e4e5"/>
<path d="m113.2075,101.4245a7.7835,7.7835,0,0,1,-7.783,7.783,7.7835,7.7835,0,0,1,-7.784,-7.783,7.7835,7.7835,0,0,1,7.784,-7.784,7.7835,7.7835,0,0,1,7.783,7.784z" fill="#e3e4e5"/>
<path d="m132.7075,101.1745a7.7835,7.7835,0,0,1,-7.783,7.783,7.7835,7.7835,0,0,1,-7.784,-7.783,7.7835,7.7835,0,0,1,7.784,-7.784,7.7835,7.7835,0,0,1,7.783,7.784z" fill="#e3e4e5"/>
<path d="m190.9575,105.9245a7.7835,7.7835,0,0,1,-7.783,7.783,7.7835,7.7835,0,0,1,-7.784,-7.783,7.7835,7.7835,0,0,1,7.784,-7.784,7.7835,7.7835,0,0,1,7.783,7.784z" fill="#e3e4e5"/>
<path d="m210.4575,104.1745a7.7835,7.7835,0,0,1,-7.783,7.783,7.7835,7.7835,0,0,1,-7.784,-7.783,7.7835,7.7835,0,0,1,7.784,-7.784,7.7835,7.7835,0,0,1,7.783,7.784z" fill="#e3e4e5"/>
</g>
<g>
<path color="#000000" style="text-transform:none;text-indent:0;" d="m189.9902,83.2883c-58.7299,8.2647-67.5589,61.2927-37.213,98.7137l-11.1639,18.135,7.24,1.157,15.274-19.727c-38.5561-45.665-16.6951-84.586,27.0629-89.802,31.409-3.744,51.936,13.675,83.81,10.512v-8.477c-24.666,3.635-57.285-14.4134-85.01-10.5117z" fill="#eac102"/>
<path color="#000000" style="text-transform:none;text-indent:0;" d="m141.6132,200.137,14.475-18.51c-27.841-29.776-24.557-82.969,20.634-95.507-77.27078,17.892-51.427,72.899-52.518,102.232z" fill="#eac102"/>
<path d="m156.0882,181.627,8.039-0.06" fill="none"/>
<path d="m273.0337,86.3693a7.7835,7.7835,0,0,1,-7.783,7.783,7.7835,7.7835,0,0,1,-7.784,-7.783,7.7835,7.7835,0,0,1,7.784,-7.784,7.7835,7.7835,0,0,1,7.783,7.784z" fill="#e3e4e5"/>
<path d="m263.3772,85.56335a7.7835,7.7835,0,0,1,-7.7829,7.783,7.7835,7.7835,0,0,1,-7.784,-7.783,7.7835,7.7835,0,0,1,7.784,-7.784,7.7835,7.7835,0,0,1,7.7829,7.784z" fill="#e3e4e5"/>
<path d="m255.3137,83.8243a7.7835,7.7835,0,0,1,-7.783,7.783,7.7835,7.7835,0,0,1,-7.7839,-7.783,7.7835,7.7835,0,0,1,7.7839,-7.784,7.7835,7.7835,0,0,1,7.783,7.784z" fill="#e3e4e5"/>
<path d="m247.2217,81.5984a7.7835,7.7835,0,0,1,-7.783,7.783,7.7835,7.7835,0,0,1,-7.784,-7.783,7.7835,7.7835,0,0,1,7.784,-7.784,7.7835,7.7835,0,0,1,7.783,7.784z" fill="#e3e4e5"/>
<path d="m146.2237,183.1555a7.7835,7.7835,0,0,1,-7.783,7.783,7.7835,7.7835,0,0,1,-7.7839,-7.783,7.7835,7.7835,0,0,1,7.7839,-7.784,7.7835,7.7835,0,0,1,7.783,7.784z" fill="#e3e4e5"/>
<path d="m138.4987,165.1275a7.7835,7.7835,0,0,1,-7.7829,7.783,7.7835,7.7835,0,0,1,-7.784,-7.783,7.7835,7.7835,0,0,1,7.784,-7.784,7.7835,7.7835,0,0,1,7.7829,7.784z" fill="#e3e4e5"/>
<path d="m134.2807,146.2275a7.7835,7.7835,0,0,1,-7.783,7.783,7.7835,7.7835,0,0,1,-7.784,-7.783,7.7835,7.7835,0,0,1,7.784,-7.784,7.7835,7.7835,0,0,1,7.783,7.784z" fill="#e3e4e5"/>
<path d="m134.8567,127.5005a7.7835,7.7835,0,0,1,-7.7829,7.783,7.7835,7.7835,0,0,1,-7.7841,-7.783,7.7835,7.7835,0,0,1,7.7841,-7.784,7.7835,7.7835,0,0,1,7.7829,7.784z" fill="#e3e4e5"/>
<path d="m238.7972,79.7154a7.7835,7.7835,0,0,1,-7.783,7.783,7.7835,7.7835,0,0,1,-7.784,-7.783,7.7835,7.7835,0,0,1,7.784,-7.784,7.7835,7.7835,0,0,1,7.783,7.784z" fill="#e3e4e5"/>
<path d="m230.0967,77.77545a7.7835,7.7835,0,0,1,-7.783,7.783,7.7835,7.7835,0,0,1,-7.784,-7.783,7.7835,7.7835,0,0,1,7.784,-7.784,7.7835,7.7835,0,0,1,7.783,7.784z" fill="#e3e4e5"/>
<path d="m220.8647,76.2257a7.7835,7.7835,0,0,1,-7.783,7.783,7.7835,7.7835,0,0,1,-7.784,-7.783,7.7835,7.7835,0,0,1,7.784,-7.784,7.7835,7.7835,0,0,1,7.783,7.784z" fill="#e3e4e5"/>
<path d="m211.3992,75.1477a7.7835,7.7835,0,0,1,-7.783,7.783,7.7835,7.7835,0,0,1,-7.7839,-7.783,7.7835,7.7835,0,0,1,7.7839,-7.784,7.7835,7.7835,0,0,1,7.783,7.784z" fill="#e3e4e5"/>
<path d="m200.7037,75.1787a7.7835,7.7835,0,0,1,-7.783,7.783,7.7835,7.7835,0,0,1,-7.784,-7.783,7.7835,7.7835,0,0,1,7.784,-7.784,7.7835,7.7835,0,0,1,7.783,7.784z" fill="#e3e4e5"/>
<path d="m188.7687,77.0597a7.7835,7.7835,0,0,1,-7.783,7.783,7.7835,7.7835,0,0,1,-7.784,-7.783,7.7835,7.7835,0,0,1,7.784,-7.784,7.7835,7.7835,0,0,1,7.783,7.784z" fill="#e3e4e5"/>
<path d="m175.9557,80.6423a7.7835,7.7835,0,0,1,-7.783,7.783,7.7835,7.7835,0,0,1,-7.7839,-7.783,7.7835,7.7835,0,0,1,7.7839,-7.784,7.7835,7.7835,0,0,1,7.783,7.784z" fill="#e3e4e5"/>
<path d="m162.2297,86.74135a7.7835,7.7835,0,0,1,-7.783,7.783,7.7835,7.7835,0,0,1,-7.7839,-7.783,7.7835,7.7835,0,0,1,7.7839,-7.784,7.7835,7.7835,0,0,1,7.783,7.784z" fill="#e3e4e5"/>
<path d="m149.8487,97.0445a7.7835,7.7835,0,0,1,-7.783,7.783,7.7835,7.7835,0,0,1,-7.7839,-7.783,7.7835,7.7835,0,0,1,7.7839,-7.784,7.7835,7.7835,0,0,1,7.783,7.784z" fill="#e3e4e5"/>
<path d="m140.4382,110.9545a7.7835,7.7835,0,0,1,-7.783,7.783,7.7835,7.7835,0,0,1,-7.784,-7.783,7.7835,7.7835,0,0,1,7.784,-7.784,7.7835,7.7835,0,0,1,7.783,7.784z" fill="#e3e4e5"/>
</g>
<g>
<path d="m271.0505,45.9675v-26.5354h-12.191v-7.8712h12.191v-11.0614h7.899v11.0614h12.191v7.8712h-12.191v26.5354z" fill="#eac102"/>
<path fill-rule="evenodd" d="m296.6135,57.931c0,11.9368-9.676,21.6135-21.613,21.6135s-21.614-9.6767-21.614-21.6135,9.677-21.6135,21.614-21.6135,21.613,9.6767,21.613,21.6135z" fill="#0071bc"/>
<path d="m296.89,62.2341c0.853-2.1211,0.321-8.3173,0-8.6153,0-1.4117-7.564-2.5679-17.598-2.8336v-14.8834c-1.436-0.2424-2.863-0.3721-4.292-0.3721s-2.856,0.1297-4.292,0.3721v14.8834c-10.035,0.2657-17.598,1.4219-17.598,2.8336-0.321,0.298-0.853,6.4942,0,8.6153,0-1.6075,9.796-2.9195,21.89-2.9195s21.89,1.312,21.89,2.9195z" fill="#eac102"/>
<path color="#000000" style="text-transform:none;text-indent:0;" d="m300.2535,178.031c-9.227-24.443-5.848-66.016-11.893-88.294-2.443-9.0023-8.669-13.2685-13.36-13.2685-4.692,0-10.918,4.2662-13.361,13.2685-6.044,22.278-2.666,63.851-11.893,88.294l25.254,25.969z" fill="#eac102"/>
<path color="#000000" style="text-transform:none;text-indent:0;" d="m284.233,92.187c5.798,26.85,1.488,56.644,10.3,84.406l-19.533,20.532-19.533-20.532c8.811-27.762,4.502-57.556,10.3-84.406,1.017-4.709,4.687-10.6875,9.233-10.6875s8.216,5.9785,9.233,10.6875z" fill="#eac102"/>
<path d="m249.7465,178.031,5.721-1.438" fill="none"/>
<path d="m300.2535,178.031-5.72-1.438" fill="none"/>
<path d="m282.7835,72.2347a7.7835,7.7835,0,0,1,-7.783,7.783,7.7835,7.7835,0,0,1,-7.784,-7.783,7.7835,7.7835,0,0,1,7.784,-7.784,7.7835,7.7835,0,0,1,7.783,7.784z" fill="#e3e4e5"/>
<path d="m282.7835,74.7567a7.7835,7.7835,0,0,1,-7.783,7.783,7.7835,7.7835,0,0,1,-7.784,-7.783,7.7835,7.7835,0,0,1,7.784,-7.784,7.7835,7.7835,0,0,1,7.783,7.784z" fill="#e3e4e5"/>
<path d="m282.7835,78.50395a7.7835,7.7835,0,0,1,-7.783,7.783,7.7835,7.7835,0,0,1,-7.784,-7.783,7.7835,7.7835,0,0,1,7.784,-7.784,7.7835,7.7835,0,0,1,7.783,7.784z" fill="#e3e4e5"/>
<path d="m282.7835,85.26035a7.7835,7.7835,0,0,1,-7.783,7.783,7.7835,7.7835,0,0,1,-7.784,-7.783,7.7835,7.7835,0,0,1,7.784,-7.784,7.7835,7.7835,0,0,1,7.783,7.784z" fill="#e3e4e5"/>
<path d="m282.7835,177.1995a7.7835,7.7835,0,0,1,-7.783,7.783,7.7835,7.7835,0,0,1,-7.784,-7.783,7.7835,7.7835,0,0,1,7.784,-7.784,7.7835,7.7835,0,0,1,7.783,7.784z" fill="#e3e4e5"/>
<path d="m282.7835,159.9425a7.7835,7.7835,0,0,1,-7.783,7.783,7.7835,7.7835,0,0,1,-7.784,-7.783,7.7835,7.7835,0,0,1,7.784,-7.784,7.7835,7.7835,0,0,1,7.783,7.784z" fill="#e3e4e5"/>
<path d="m282.7835,141.7745a7.7835,7.7835,0,0,1,-7.783,7.783,7.7835,7.7835,0,0,1,-7.784,-7.783,7.7835,7.7835,0,0,1,7.784,-7.784,7.7835,7.7835,0,0,1,7.783,7.784z" fill="#e3e4e5"/>
<path d="m282.7835,93.8715a7.7835,7.7835,0,0,1,-7.783,7.783,7.7835,7.7835,0,0,1,-7.784,-7.783,7.7835,7.7835,0,0,1,7.784,-7.784,7.7835,7.7835,0,0,1,7.783,7.784z" fill="#e3e4e5"/>
<path d="m282.7835,106.1465a7.7835,7.7835,0,0,1,-7.783,7.783,7.7835,7.7835,0,0,1,-7.784,-7.783,7.7835,7.7835,0,0,1,7.784,-7.784,7.7835,7.7835,0,0,1,7.783,7.784z" fill="#e3e4e5"/>
<path d="m282.7835,123.2925a7.7835,7.7835,0,0,1,-7.783,7.783,7.7835,7.7835,0,0,1,-7.784,-7.783,7.7835,7.7835,0,0,1,7.784,-7.784,7.7835,7.7835,0,0,1,7.783,7.784z" fill="#e3e4e5"/>
</g>
</g>
<g>
<path d="m495.393,261.718c-8.975,15.172-24.369,32.712-39.404,43.596l-12.431-5.934c23.39-9.09,38.18-23.218,51.835-37.662z" fill="#eac102"/>
<path d="m54.6066,261.718c8.9757,15.172,24.3692,32.712,39.4046,43.596l12.4308-5.934c-23.3893-9.089-38.1794-23.217-51.8352-37.661z" fill="#eac102"/>
<path d="m197.252,230.116c-3.718,5.274-8.668,9.861-15.822,11.078,2.99,2.509,3.836,5.588,4.156,9.384-10.83-3.633-16.142-0.524-22.035-4.938l-6.684-5.008-2.581-12.406,4.368-6.127c3.71-5.203,11.119-3.905,19.086-9.236,1.239,3.701,1.683,6.822-0.159,9.832,7.348-0.289,13.962,3.126,19.671,7.421z" fill="#eac102"/>
<path d="m352.748,230.116c3.719,5.274,8.668,9.861,15.823,11.078-2.991,2.509-3.836,5.588-4.157,9.384,10.83-3.633,16.142-0.524,22.035-4.938l6.685-5.008,2.58-12.406-4.368-6.127c-3.709-5.203-11.119-3.905-19.085-9.236-1.24,3.701-1.684,6.822,0.158,9.832-7.348-0.289-13.962,3.126-19.671,7.421z" fill="#eac102"/>
<path color="#000000" style="text-transform:none;text-indent:0;" d="m279.949,231.803c-0.03,2.357,0,10.917,0,16.375,0,26.831,47.244,38.933,54.668,0.185,0.433-2.262,2.647-3.716,4.938-3.438,2.291,0.279,4.04,2.325,3.936,4.625-1.644,36.354,42.169,31.266,48.807,1.784l3.884-17.25c0.56-2.487,3.458-4.151,5.951-3.593s4.381,3.294,3.821,5.781l-3.883,17.25c-6.534,29.017,20.554,39.156,46.761,3.358,1.429-1.951,4.348-2.648,6.398-1.362,2.051,1.285,2.42,4.184,1.399,6.375-20.412,43.804,9.017,20.935,32.108-6.902,1.708-2.06,5.095-2.533,7.172-0.844,2.078,1.688,2.269,5.068,0.595,7.156-43.1,53.791-58.839,34.495-56.253,18.969-18.149,14.619-40.479,13.325-47.42-8.469-16.133,18.161-45.313,18.789-55.89-3.656-17.45,23.114-49.603,16.825-61.941-2.594-12.339,19.419-44.491,25.708-61.941,2.594-10.577,22.445-39.757,21.817-55.89,3.656-6.942,21.794-29.271,23.088-47.421,8.469,2.587,15.526-13.1523,34.822-56.2527-18.969-1.6732-2.088-1.4826-5.468,0.5951-7.156,2.0776-1.689,5.4642-1.216,7.1726,0.844,23.0903,27.837,52.52,50.706,32.1075,6.902-1.0209-2.191-0.6516-5.09,1.3988-6.375,2.0505-1.286,4.9694-0.589,6.3977,1.362,26.208,35.798,53.295,25.659,46.762-3.358l-3.884-17.25c-0.56-2.487,1.329-5.223,3.822-5.781,2.492-0.558,5.391,1.106,5.951,3.593l3.883,17.25c6.638,29.482,50.452,34.57,48.808-1.784-0.104-2.3,1.645-4.346,3.936-4.625,2.291-0.278,4.505,1.176,4.938,3.438,7.424,38.748,54.668,26.646,54.668-0.185,0-5.458,0.03-14.018,0-16.375-0.03-2.618,2.325-5.063,4.949-5.063s4.981,2.445,4.949,5.063z" fill="#eac102"/>
<path d="m218.148,245.993c0,4.299-3.485,7.783-7.783,7.783-4.299,0-7.784-3.484-7.784-7.783s3.485-7.783,7.784-7.783c4.298,0,7.783,3.484,7.783,7.783z" fill="#e3e4e5"/>
<path d="m102.336,239.971c5.709,4.295,12.317,7.682,19.665,7.394-1.842,3.01-1.398,6.131-0.158,9.831,9.888-5.904,15.408-4.012,19.091-9.208l4.362-6.155-2.581-12.406-6.678-4.98c-5.751-4.288-11.565-1.418-22.041-4.965,0.321,3.795,1.166,6.875,4.157,9.383-7.155,1.217-12.099,5.832-15.817,11.106z" fill="#eac102"/>
<path d="m141.354,236.122c-15.058-0.18-19.315,1.751-32.576,3.205" fill="none"/>
<path d="m140.887,231.259c-9.561-5.946-16.284-3.45-22.381-7.697" fill="none"/>
<path d="m142.66,241.262c-6.52,6.349-11.51,4.12-17.167,9.492" fill="none"/>
<path d="m137.517,184.801c-1.955,6.672-4.948,12.704-2.046,20.33-3.122-2.311-7.015-3.14-10.425-2.286,6.76,10.344,5.287,16.364,11.193,21.26l6.456,5.353,11.623-1.207,3.976-6.436c3.363-5.442-0.09-11.554,2.087-22.638-3.614-0.126-6.474,0.389-8.523,3.237-2.045-7.695-7.764-14.127-14.341-17.613z" fill="#eac102"/>
<path d="m152.062,225.93c3.05-7.209,0.338-14.167,4.238-22.242" fill="none"/>
<path d="m144.078,227.417c-7.743-7.821-7.297-14.944-13.018-20.705" fill="none"/>
<path d="m147.908,225.978c-4.91-13.066-3.728-23.04-8.243-34.519" fill="none"/>
<path d="m155.601,229.946c6.485-7.138,12.126-5.158,18.639-11.082" fill="none"/>
<path d="m157.194,238.405c9.31,3.696,12.383,1.45,22.346,7.319" fill="none"/>
<path d="m158.315,234.361c14.086-3.851,19.894-1.207,32.749-3.538" fill="none"/>
<path fill-rule="evenodd" d="m159.492,235.014c0,5.537-4.488,10.025-10.025,10.025s-10.025-4.488-10.025-10.025,4.488-10.025,10.025-10.025,10.025,4.488,10.025,10.025z" fill="#ed1c24"/>
<path d="m45.0284,247.022c-6.8839-9.763-12.5925-16.066-33.6374-17.877,7.1999-10.824,22.1943-13.957,31.947-4.08,0.9226-2.703,1.4915-3.584,4.0702-6.081,2.2993,7.049,12.5388,12.375,8.4764,24.997l-3.9921,12.404z" fill="#eac102"/>
<path d="m84.5428,243.89c-1.5655,5.769-4.0762,11.078-8.6571,13.477,2.4447,1.937,3.5521,4.794,4.4334,8.438,0,0-10.52-0.846-15.1004,0.2-5.2304,1.195-9.2345-1.053-10.0933-1.896l-4.9364-9.74c3.7968-6.772,4.5442-10.491,7.3891-14.177,2.8404-3.68,7.4856-6.913,10.8591-9.803,1.4804,3.395,2.3264,6.361,1.6204,9.607,4.8733-1.528,9.9053,0.678,14.4852,3.894z" fill="#eac102"/>
<path d="m49.0826,252.582c-0.6133-5.162,1.1642-9.819,0.8473-13.963-0.58-7.582-3.0646-10.08-2.7362-14.051" fill="none"/>
<path d="m52.7809,258.812c8.1857-6.619,15.6797-7.827,25.5337-13.418" fill="none"/>
<path d="m51.365,255.146c3.5803-6.021,10.9481-9.377,14.9246-18.743" fill="none"/>
<path d="m53.9257,262.217c7.0415,0.963,11.3117-3.118,19.7357-0.06" fill="none"/>
<path fill-rule="evenodd" d="m55.125,264.109c-1.3286,0.657-2.8245,1.027-4.4073,1.027-5.4952,0-9.95-4.455-9.95-9.95,0-3.38,1.6844-6.366,4.2603-8.164,5.3937,3.559,9.3292,10.791,10.097,17.087z" fill="#ed1c24"/>
<path d="m306.932,220.731c2.597-2.777,2.813-5.896,2.319-9.668-12.027,4.993-17.034,2.326-22.098,7.118l-5.936,5.616v12.456l5.936,5.617c5.064,4.791,10.071,2.124,22.098,7.118,0.494-3.772,0.278-6.892-2.319-9.669,7.793-0.467,14.003-4.479,19.069-9.294-5.066-4.814-11.276-8.827-19.069-9.294z" fill="#eac102"/>
<path d="m284.114,230.025h34.687" fill="none"/>
<path d="m282.609,233.998c10.17,6.304,14.353,4.446,21.869,9.7" fill="none"/>
<path d="m282.609,226.052c10.17-6.304,14.353-4.446,21.869-9.7" fill="none"/>
<path d="m243.067,220.731c-2.597-2.777-2.812-5.896-2.319-9.668,12.028,4.993,17.035,2.326,22.099,7.118l5.936,5.616v12.456l-5.936,5.617c-5.064,4.791-10.071,2.124-22.099,7.118-0.493-3.772-0.278-6.892,2.319-9.669-7.793-0.467-14.003-4.479-19.068-9.294,5.065-4.814,11.275-8.827,19.068-9.294z" fill="#eac102"/>
<path d="m265.886,230.025h-34.687" fill="none"/>
<path d="m267.391,233.998c-10.17,6.304-14.353,4.446-21.87,9.7" fill="none"/>
<path d="m267.391,226.052c-10.17-6.304-14.353-4.446-21.87-9.7" fill="none"/>
<path d="m284.294,198.093c2.777-2.597,5.896-2.812,9.668-2.319-4.993,12.028-2.326,17.034-7.118,22.098l-5.616,5.936h-12.456l-5.617-5.936c-4.791-5.064-2.124-10.07-7.118-22.098,3.772-0.493,6.892-0.278,9.669,2.319,0.467-7.793,4.479-14.003,9.294-19.069,4.814,5.066,8.827,11.276,9.294,19.069z" fill="#eac102"/>
<path d="m275,220.912v-34.687" fill="none"/>
<path d="m271.027,222.416c-6.305-10.17-4.446-14.353-9.7-21.869" fill="none"/>
<path d="m278.973,222.416c6.304-10.17,4.446-14.353,9.7-21.869" fill="none"/>
<path fill-rule="evenodd" d="m275,219.925c5.578,0,10.1,4.522,10.1,10.1s-4.522,10.1-10.1,10.1-10.1-4.522-10.1-10.1,4.522-10.1,10.1-10.1z" fill="#ed1c24"/>
<path d="m331.852,245.993c0,4.299,3.485,7.783,7.784,7.783,4.298,0,7.783-3.484,7.783-7.783s-3.485-7.783-7.783-7.783c-4.299,0-7.784,3.484-7.784,7.783z" fill="#e3e4e5"/>
<path d="m446.289,256.907c0,4.299,3.485,7.783,7.784,7.783,4.298,0,7.783-3.484,7.783-7.783s-3.485-7.783-7.783-7.783c-4.299,0-7.784,3.484-7.784,7.783z" fill="#e3e4e5"/>
<path d="m447.665,239.971c-5.709,4.295-12.318,7.682-19.666,7.394,1.843,3.01,1.398,6.131,0.159,9.831-9.889-5.904-15.409-4.012-19.092-9.208l-4.362-6.155,2.581-12.406,6.679-4.98c5.751-4.288,11.564-1.418,22.04-4.965-0.32,3.795-1.166,6.875-4.156,9.383,7.155,1.217,12.098,5.832,15.816,11.106z" fill="#eac102"/>
<path d="m408.646,236.122c15.058-0.18,19.315,1.751,32.576,3.205" fill="none"/>
<path d="m409.113,231.259c9.561-5.946,16.284-3.45,22.381-7.697" fill="none"/>
<path d="m407.34,241.262c6.52,6.349,11.51,4.12,17.167,9.492" fill="none"/>
<path d="m412.483,184.801c1.956,6.672,4.948,12.704,2.046,20.33,3.122-2.311,7.015-3.14,10.425-2.286-6.76,10.344-5.287,16.364-11.193,21.26l-6.456,5.353-11.622-1.207-3.977-6.436c-3.363-5.442,0.09-11.554-2.087-22.638,3.614-0.126,6.474,0.389,8.523,3.237,2.045-7.695,7.764-14.127,14.341-17.613z" fill="#eac102"/>
<path d="m397.938,225.93c-3.051-7.209-0.339-14.167-4.238-22.242" fill="none"/>
<path d="m405.922,227.417c7.743-7.821,7.297-14.944,13.018-20.705" fill="none"/>
<path d="m402.092,225.978c4.911-13.066,3.728-23.04,8.243-34.519" fill="none"/>
<path d="m394.399,229.946c-6.484-7.138-12.126-5.158-18.638-11.082" fill="none"/>
<path d="m392.806,238.405c-9.311,3.696-12.383,1.45-22.346,7.319" fill="none"/>
<path d="m391.685,234.361c-14.086-3.851-19.894-1.207-32.749-3.538" fill="none"/>
<path fill-rule="evenodd" d="m390.508,235.014c0,5.537,4.488,10.025,10.025,10.025s10.025-4.488,10.025-10.025-4.488-10.025-10.025-10.025-10.025,4.488-10.025,10.025z" fill="#ed1c24"/>
<path d="m504.972,247.022c6.884-9.763,12.592-16.066,33.637-17.877-7.2-10.824-22.194-13.957-31.947-4.08-0.923-2.703-1.491-3.584-4.07-6.081-2.299,7.049-12.539,12.375-8.476,24.997l3.992,12.404z" fill="#eac102"/>
<path d="m500.917,252.582c0.614-5.162-1.164-9.819-0.847-13.963,0.58-7.582,3.065-10.08,2.736-14.051" fill="none"/>
<path d="m465.457,243.89c1.566,5.769,4.076,11.078,8.657,13.477-2.444,1.937-3.552,4.794-4.433,8.438,0,0,10.52-0.846,15.1,0.2,5.231,1.195,9.235-1.053,10.094-1.896l4.936-9.74c-3.797-6.772-4.544-10.491-7.389-14.177-2.84-3.68-7.486-6.913-10.859-9.803-1.481,3.395-2.327,6.361-1.621,9.606-4.873-1.527-9.905,0.679-14.485,3.895z" fill="#eac102"/>
<path d="m497.219,258.812c-8.186-6.619-15.68-7.827-25.534-13.418" fill="none"/>
<path d="m498.635,255.146c-3.58-6.021-10.948-9.377-14.925-18.743" fill="none"/>
<path d="m496.074,262.217c-7.041,0.963-11.311-3.118-19.735-0.06" fill="none"/>
<path fill-rule="evenodd" d="m494.875,264.109c1.328,0.657,2.825,1.027,4.407,1.027,5.496,0,9.95-4.455,9.95-9.95,0-3.38-1.684-6.366-4.26-8.164-5.393,3.559-9.33,10.791-10.097,17.087z" fill="#ed1c24"/>
<path d="m103.711,256.907c0,4.299-3.485,7.783-7.7834,7.783-4.2986,0-7.7832-3.484-7.7832-7.783s3.4846-7.783,7.7832-7.783c4.2984,0,7.7834,3.484,7.7834,7.783z" fill="#e3e4e5"/>
</g>
<g>
<path color="#000000" style="text-transform:none;text-indent:0;" d="m104.225,348.698c0,6.898,37.441,20.925,170.775,20.925s170.775-14.027,170.775-20.925-37.441-20.925-170.775-20.925-170.775,14.027-170.775,20.925z" fill="#ed1c24"/>
<path stroke-width="5.5" d="m125.422,339.527v18.341" fill="none"/>
<path stroke-width="5.25" d="m131.859,338.038v21.319" fill="none"/>
<path stroke-width="5" d="m138.296,337.061v23.273" fill="none"/>
<path stroke-width="4.75" d="m144.733,335.852v25.692" fill="none"/>
<path stroke-width="4.5" d="m151.171,334.782v27.832" fill="none"/>
<path stroke-width="4.25" d="m157.608,333.851v29.693" fill="none"/>
<path stroke-width="4" d="m164.045,332.921v31.553" fill="none"/>
<path stroke-width="3.75" d="m170.482,332.13v33.135" fill="none"/>
<path stroke-width="3.5" d="m176.92,331.618v34.159" fill="none"/>
<path stroke-width="3.25" d="m183.357,331.014v35.368" fill="none"/>
<path stroke-width="3" d="m189.794,330.083v37.229" fill="none"/>
<path stroke-width="2.75" d="m196.232,329.571v38.253" fill="none"/>
<path stroke-width="2.5" d="m202.669,329.339v38.718" fill="none"/>
<path stroke-width="2.25" d="m209.106,328.78v39.834" fill="none"/>
<path stroke-width="2" d="m215.543,328.315v40.765" fill="none"/>
<path stroke-width="1.75" d="m221.981,328.036v41.323" fill="none"/>
<path stroke-width="1.5" d="m228.418,327.618v42.16" fill="none"/>
<path stroke-width="1.25" d="m234.855,327.338v42.719" fill="none"/>
<path stroke-width="1px" d="m241.292,326.501v44.394" fill="none"/>
<path stroke-width=".75" d="m247.73,326.501v44.394" fill="none"/>
<path stroke-width=".5" d="m254.167,326.501v44.394" fill="none"/>
<path stroke-width=".25" d="m260.604,326.501v44.394" fill="none"/>
<path stroke-width="6" d="m112.547,343.946v9.502" fill="none"/>
<path stroke-width="5.75" d="m118.984,341.574v14.248" fill="none"/>
<path stroke-width="5.5" d="m424.579,339.527v18.341" fill="none"/>
<path stroke-width="5.25" d="m418.142,338.038v21.319" fill="none"/>
<path stroke-width="5" d="m411.704,337.061v23.273" fill="none"/>
<path stroke-width="4.75" d="m405.267,335.852v25.692" fill="none"/>
<path stroke-width="4.5" d="m398.83,334.782v27.832" fill="none"/>
<path stroke-width="4.25" d="m392.393,333.851v29.693" fill="none"/>
<path stroke-width="4" d="m385.955,332.921v31.553" fill="none"/>
<path stroke-width="3.75" d="m379.518,332.13v33.135" fill="none"/>
<path stroke-width="3.5" d="m373.081,331.618v34.159" fill="none"/>
<path stroke-width="3.25" d="m366.643,331.014v35.368" fill="none"/>
<path stroke-width="3" d="m360.206,330.083v37.229" fill="none"/>
<path stroke-width="2.75" d="m353.769,329.571v38.253" fill="none"/>
<path stroke-width="2.5" d="m347.332,329.339v38.718" fill="none"/>
<path stroke-width="2.25" d="m340.894,328.78v39.834" fill="none"/>
<path stroke-width="2" d="m334.457,328.315v40.765" fill="none"/>
<path stroke-width="1.75" d="m328.02,328.036v41.323" fill="none"/>
<path stroke-width="1.5" d="m321.583,327.618v42.16" fill="none"/>
<path stroke-width="1.25" d="m315.145,327.338v42.719" fill="none"/>
<path stroke-width="1px" d="m308.708,326.501v44.394" fill="none"/>
<path stroke-width=".75" d="m302.271,326.501v44.394" fill="none"/>
<path stroke-width=".5" d="m295.834,326.501v44.394" fill="none"/>
<path stroke-width=".25" d="m289.396,326.501v44.394" fill="none"/>
<path stroke-width="6" d="m437.453,343.946v9.502" fill="none"/>
<path stroke-width="5.75" d="m431.016,341.574v14.248" fill="none"/>
</g>
<g>
<path color="#000000" style="text-transform:none;text-indent:0;" d="m466.107,309.063c0,10.34-24.162,17.019-57.01,21.251h-268.194c-32.849-4.232-57.0102-10.911-57.0102-21.251,0-23.313,122.822-28.016,191.106-28.016,68.285,0,191.107,4.703,191.107,28.016zm-370.491,0c0,2.281,41.1363,17.988,179.384,17.988s179.385-15.707,179.385-17.988-41.137-17.988-179.385-17.988-179.384,15.707-179.384,17.988z" fill="#eac102"/>
<path color="#000000" style="text-transform:none;text-indent:0;" d="m376.697,330.311,67.855,14.837c2.537-12.255,6.504-22.804,12.908-33.941,0-9.429-73.228-20.924-182.46-20.924-109.233,0-182.46,11.495-182.46,20.924,6.4032,11.137,10.37,21.686,12.908,33.941l67.854-14.837z" fill="#eac102"/>
<path fill-rule="evenodd" d="m154.94,306.039,35.129-3.359c3.525-0.337,6.633,2.238,6.971,5.774,0.337,3.536-2.229,6.654-5.753,6.991l-35.129,3.359c-3.525,0.337-6.634-2.238-6.971-5.774s2.228-6.654,5.753-6.991z" fill="#008f4c"/>
<path d="m136.333,315.954a7.7835,7.7835,0,0,1,-7.783,7.783,7.7835,7.7835,0,0,1,-7.784,-7.783,7.7835,7.7835,0,0,1,7.784,-7.784,7.7835,7.7835,0,0,1,7.783,7.784z" fill="#e3e4e5"/>
<path d="m230.057,307.476a7.7835,7.7835,0,0,1,-7.783,7.783,7.7835,7.7835,0,0,1,-7.784,-7.783,7.7835,7.7835,0,0,1,7.784,-7.784,7.7835,7.7835,0,0,1,7.783,7.784z" fill="#e3e4e5"/>
<path d="m93.8799,327.308,2.6279-8.571,14.0682,1.924-8.554,11.418z" fill="#ed1c24"/>
<path d="m93.8799,327.308,16.6961-6.647" fill="none"/>
<path fill-rule="evenodd" d="m395.06,306.039-35.129-3.359c-3.525-0.337-6.633,2.238-6.971,5.774-0.337,3.536,2.229,6.654,5.753,6.991l35.129,3.359c3.525,0.337,6.634-2.238,6.971-5.774s-2.228-6.654-5.753-6.991z" fill="#008f4c"/>
<path d="m429.235,315.954a7.7835,7.7835,0,0,1,-7.783,7.783,7.7835,7.7835,0,0,1,-7.784,-7.783,7.7835,7.7835,0,0,1,7.784,-7.784,7.7835,7.7835,0,0,1,7.783,7.784z" fill="#e3e4e5"/>
<path d="m335.511,307.476a7.7835,7.7835,0,0,1,-7.783,7.783,7.7835,7.7835,0,0,1,-7.784,-7.783,7.7835,7.7835,0,0,1,7.784,-7.784,7.7835,7.7835,0,0,1,7.783,7.784z" fill="#e3e4e5"/>
<path d="m456.12,327.308-2.628-8.571-14.068,1.924,8.554,11.418z" fill="#ed1c24"/>
<path d="m456.12,327.308-16.696-6.647" fill="none"/>
<path d="m255.928,299.592-9.91,6.685,9.91,6.684h38.145l9.91-6.684-9.91-6.685z" fill="#ed1c24"/>
<path d="m255.928,299.592,9.16,5.983-9.16,7.386" fill="none"/>
<path d="m294.073,299.592-9.16,5.983,9.16,7.386" fill="none"/>
<path d="m303.983,306.277-19.07-0.702h-19.825l-19.07,0.702" fill="none"/>
<path style="text-transform:none;text-indent:0;" d="m109.582,348.698c0-2.154,38.738-16.566,165.419-16.566s165.418,14.412,165.418,16.566-38.738,16.566-165.418,16.566c-126.681,0-165.419-14.412-165.419-16.566zm-10.8099,0c0-21.985,117.737-25.802,176.228-25.802,58.492,0,176.228,3.817,176.228,25.802s-117.736,25.802-176.228,25.802c-58.491,0-176.228-3.817-176.228-25.802z" fill-rule="evenodd" color="#000000" fill="#eac102"/>
</g>
</g>
<g stroke-linejoin="round" stroke="#000" stroke-linecap="round">
<path d="m25.5,360.5v349.5c0,137.724,111.776,249.5,249.5,249.5s249.5-111.776,249.5-249.5v-349.5z" fill="#008f4c"/>
<path d="M445.9537,360.5,510.9928,482.2367,478.2962,594,353.5462,360.5z" stroke-dasharray="none" stroke-miterlimit="4" stroke-width="1" fill="#eac102"/>
<path d="M511.3232,495.8273,439.0231,360.5h-78.5463l124.75,233.5z" stroke-dasharray="none" stroke-miterlimit="4" stroke-width="1" fill="#ed1c24"/>
<path d="m321.204,594.0149-32.697,111.763,108.029,202.203,20.5265,7.394c19.0595-13.1783,36.166-28.9542,50.8438-46.8125z" stroke-dasharray="none" stroke-miterlimit="4" stroke-width="1" fill="#eac102"/>
<path d="m314.273,594.0149-26.096,98.1731,117.63,220.1729,11.6618,2.7329c17.0835-11.8623,32.5989-25.8002,46.1875-41.4688z" stroke-dasharray="none" stroke-miterlimit="4" stroke-width="1" fill="#ed1c24"/>
<path d="M275,360.5,275,827.5149,399.75,594z" stroke-dasharray="none" stroke-miterlimit="4" stroke-width="1" fill="#eac102"/>
<path d="m524.5,360.5,0,349.5c0,30.9596-5.5949,60.5666-15.8125,87.875l-108.9375-203.875z" stroke-dasharray="none" stroke-miterlimit="4" stroke-width="1" fill="#eac102"/>
<path d="m25.5,360.5,0,349.5c0,137.724,111.776,249.5,249.5,249.5v-599z" fill="#ed1c24"/>
</g>
<g stroke-linejoin="round" stroke="#000" stroke-linecap="round">
<g stroke-miterlimit="4" stroke-dasharray="none" stroke-width="1">
<path d="m60.75,699.833c-11.523839,0-15.589644,13.79016-33.3125,41.417,12.389432,98.96916,82.83694,179.97908,176.125,207.84375l144.25-119.53125c-90.67637-86.56978-87.67558-129.7295-108.0625-129.7295z" fill-rule="nonzero" fill="#eac102"/>
<path d="m81.333193,703.15876c-5.952202,23.99272-15.84857,38.21536-24.814938,54.40273" fill="none"/>
<path d="m115.20268,705.57171c-4.02748,16.99152-6.94085,48.38431-17.254881,70.462" fill="none"/>
<path d="m148.63696,718.75995c-0.80805,18.75633-8.59847,79.10288-11.96172,103.20445" fill="none"/>
<path d="m200.86348,706.80293c3.392,16.93554,41.71165,75.95649,43.03788,113.02184" fill="none"/>
<path d="m233.55476,710.28523c5.41344,19.24353,21.21943,44.27622,29.26461,57.4553" fill="none"/>
<path d="m182.16139,734.73174c0.81524,10.92264,4.45869,30.75833,8.73374,43.01919" fill="none"/>
<path d="m83.47199,747.89475c-2.32946,5.73722-25.500871,47.65692-35.180936,65.20264" fill="none"/>
<path d="M110.47079,803.83281c-2.83567,12.99463-12.693065,45.95779-20.843108,72.31299" fill="none"/>
<path d="m179.21,812.93791c0.8152,10.9227,4.4587,30.7584,8.7337,43.0192" fill="none"/>
</g>
<path d="m114,900.53135c74.8818-62.0895,131.5905-145.3138,161-240.5313,29.4095,95.2175,86.1182,178.4418,161,240.5313-43.4645,36.7689-99.65389,58.9686-161,58.9686-61.346,0-117.5355-22.1997-161-58.9686z" fill-rule="nonzero" stroke-miterlimit="4" stroke-dasharray="none" stroke-width="1" fill="#e3e4e5"/>
<path d="M257,921.5001c0,12.1502-9.8497,21.9999-21.9999,21.9999-12.1503,0-22.0001-9.8497-22.0001-21.9999,0-12.1504,9.8498-22.0002,22.0001-22.0002,12.1502,0,21.9999,9.8498,21.9999,22.0002z" fill-rule="evenodd" stroke-miterlimit="4" stroke-width="1" fill="#ed1c24"/>
<path d="m337,921.5001c0,12.1502-9.8497,21.9999-22,21.9999-12.1502,0-22-9.8497-22-21.9999,0-12.1504,9.8498-22.0002,22-22.0002,12.1503,0,22,9.8498,22,22.0002z" fill-rule="evenodd" stroke-miterlimit="4" stroke-width="1" fill="#ed1c24"/>
<path d="m257,819.3487c0,12.1502-9.8497,22-21.9999,22-12.1503,0-22.0001-9.8498-22.0001-22,0-12.1503,9.8498-22.0002,22.0001-22.0002,12.1502,0,21.9999,9.8499,21.9999,22.0002z" fill-rule="evenodd" stroke-miterlimit="4" stroke-width="1" fill="#ed1c24"/>
<path d="m337,819.3487c0,12.1502-9.8497,22-22,22-12.1502,0-22-9.8498-22-22,0-12.1503,9.8498-22.0002,22-22.0002,12.1503,0,22,9.8499,22,22.0002z" fill-rule="evenodd" stroke-miterlimit="4" stroke-width="1" fill="#ed1c24"/>
<path d="m207.3954,880.1914c0,12.1502-9.8497,21.9999-22,21.9999-12.1502,0-22-9.8497-22-21.9999,0-12.1504,9.8498-22.0002,22-22.0002,12.1503,0,22,9.8498,22,22.0002z" fill-rule="evenodd" stroke-miterlimit="4" stroke-width="1" fill="#ed1c24"/>
<path d="m297,870.4244c0,12.1502-9.8497,21.9999-22,21.9999-12.1502,0-22-9.8497-22-21.9999,0-12.1504,9.8498-22.0002,22-22.0002,12.1503,0,22,9.8498,22,22.0002z" fill-rule="evenodd" stroke-miterlimit="4" stroke-width="1" fill="#ed1c24"/>
<path d="m297,751.8127c0,12.1502-9.8497,21.9999-22,21.9999-12.1502,0-22-9.8497-22-21.9999,0-12.1504,9.8498-22.0002,22-22.0002,12.1503,0,22,9.8498,22,22.0002z" fill-rule="evenodd" stroke-miterlimit="4" stroke-width="1" fill="#ed1c24"/>
<path d="m342.6046,880.1914c0,12.1502,9.8497,21.9999,22,21.9999,12.1502,0,22-9.8497,22-21.9999,0-12.1504-9.8498-22.0002-22-22.0002-12.1503,0-22,9.8498-22,22.0002z" fill-rule="evenodd" stroke-miterlimit="4" stroke-width="1" fill="#ed1c24"/>
<g transform="translate(2.9802326e-8,-28.032)" fill="#0071bc">
<path style="text-align:start;" stroke-width="1" d="m287.875,663.6765,0-2.185c6.1192-2.786,15.7472-6.724,28.8839-11.811,6.0337-2.343,9.6869-3.958,10.96-4.843,1.273-0.888,2.0486-2.292,2.3269-4.213,0.085-0.632,0.3636-0.949,0.8343-0.949,0.6632,0,0.9949,0.412,0.9949,1.234,0,0.444-0.075,1.593-0.2247,3.452-0.1926,2.195-0.2888,4.042-0.2888,5.541,0,1.456,0.085,3.357,0.2567,5.699,0.1284,1.752,0.1927,2.903,0.1927,3.452,0,0.972-0.3103,1.456-0.9307,1.456-0.4708,0-0.7382-0.338-0.8024-1.013-0.2354-2.596-1.2623-3.895-3.081-3.895-0.8557,0-2.4336,0.381-4.7338,1.14-2.2999,0.76-4.3914,1.573-6.2741,2.438-0.021,1.373-0.032,2.438-0.032,3.199,0,4.242,0.01,7.546,0.032,9.91,5.0707,1.836,8.4298,2.755,10.0772,2.755,1.1769,0,2.0914-0.454,2.744-1.361,0.6526-0.908,1.0323-1.89,1.1394-2.945,0.086-0.802,0.4172-1.204,0.9948-1.204,0.5777,0,0.8665,0.433,0.8665,1.299,0,0.338-0.054,1.225-0.1605,2.659-0.1497,1.858-0.2247,3.209-0.2247,4.053,0,1.668,0.1074,3.251,0.321,4.75,0.065,0.381,0.097,0.696,0.097,0.949,0,0.782-0.321,1.172-0.9628,1.172-0.4707,0-0.7809-0.253-0.9307-0.76-0.3638-1.266-0.813-2.259-1.3479-2.975-0.535-0.719-1.562-1.495-3.081-2.329-1.5191-0.833-3.9475-1.83-7.2852-2.991-7.4884-2.617-17.6085-6.513-30.3603-11.684zm11.2006,2.217,14.3137,5.446-0.1606-11.147c-1.6687,0.591-3.9581,1.5-6.8678,2.724-3.1666,1.33-5.595,2.322-7.2853,2.977z"/>
<path style="text-align:start;" stroke-width="1" d="m331.7306,622.2125,0,2.502-15.4047,5.826c-3.894,1.456-8.6492,3.303-14.2655,5.541-5.6164,2.237-8.8738,3.674-9.7724,4.307-0.8986,0.632-1.4923,1.208-1.7813,1.725-0.2886,0.517-0.4759,1.303-0.5615,2.359-0.021,0.676-0.3103,1.013-0.8666,1.013-0.6204,0-0.9306-0.401-0.9307-1.204l0.2888-8.548c0.0001-2.976-0.1069-5.922-0.3209-8.835-0.043-0.801-0.064-1.287-0.064-1.456,0-1.013,0.3531-1.519,1.0591-1.519,0.4708,0,0.7596,0.453,0.8665,1.361,0.2996,2.406,1.4014,3.609,3.3056,3.609,3.295,0,12.1527-2.775,26.5734-8.328-4.7285-1.857-9.4997-3.63-14.3137-5.318l-8.8257-3.103c-1.0697-0.36-2.0967-0.539-3.081-0.539-1.0055,0-1.8613,0.343-2.5674,1.029-0.706,0.686-1.0697,1.462-1.0912,2.327-0.042,0.971-0.3316,1.457-0.8665,1.457-0.6846,0-1.0269-0.391-1.027-1.171,0.0001-0.591,0.032-1.33,0.096-2.217,0.1498-1.794,0.2247-3.408,0.2247-4.845,0-1.499-0.075-2.829-0.2247-3.988-0.107-0.867-0.1604-1.584-0.1604-2.154,0-0.739,0.3317-1.108,0.9948-1.108,0.5563,0,0.888,0.369,0.9949,1.108,0.1713,1.118,0.5617,2.079,1.1714,2.881,0.6098,0.802,1.5887,1.589,2.9366,2.359,1.348,0.77,4.3861,2.053,9.1145,3.848l14.7309,5.635c7.1889,2.703,11.7782,4.517,13.7679,5.446z"/>
<path style="text-align:start;" stroke-width="1" d="m288.7251,564.1415c3.3377-0.675,6.6755-1.34,10.0131-1.995,0.6206,0,0.9308,0.307,0.9308,0.919,0,0.337-0.2996,0.718-0.8987,1.14-3.2093,2.174-5.3274,4.163-6.3544,5.969-1.027,1.804-1.5406,4.406-1.5406,7.805,0,1.899,0.1605,3.735,0.4815,5.509,3.787,0.38,7.9378,0.571,12.4522,0.571,0.7703,0,2.0647-0.03,3.8833-0.07l0.032-2.409c0-1.497-0.2085-2.79-0.6258-3.877-0.4172-1.087-1.3051-2.011-2.6638-2.771-1.3586-0.76-2.2305-1.192-2.6157-1.297-0.6845-0.192-1.0268-0.519-1.0269-0.982,0.0001-0.591,0.2567-0.888,0.7703-0.888,0.1498,0,0.321,0.01,0.5134,0.08,1.3266,0.253,5.2954,0.38,11.9067,0.38,0.92,0,1.7544-0.07,2.5032-0.222,0.214-0.04,0.396-0.07,0.5457-0.07,0.599,0,0.8986,0.338,0.8986,1.013,0,0.465-0.567,0.823-1.701,1.077-1.9898,0.422-3.5035,1.383-4.5412,2.882s-1.5779,3.862-1.6208,7.093c3.5945,0.103,5.9588,0.157,7.0927,0.157,4.8782,0,7.7774-0.07,8.6973-0.221,0.92-0.148,1.6636-0.687,2.2305-1.614,0.567-0.931,0.8505-2.503,0.8505-4.719,0-8.042-2.5889-13.331-7.7666-15.864-0.7275-0.358-1.0912-0.749-1.0912-1.171,0-0.612,0.2567-0.918,0.7703-0.918,0.3423,0,0.7809,0.07,1.3159,0.189l9.2107,2.059-0.032,11.462c-0.022,3.23-0.096,6.242-0.2246,9.04-0.1285,2.798-0.1926,4.987-0.1926,6.57,0,1.773,0.1074,4.443,0.321,8.011,0.043,0.443,0.065,0.77,0.065,0.982,0,0.992-0.3317,1.488-0.9949,1.488-0.5991,0-0.8986-0.401-0.8986-1.204,0-2.047-0.5616-3.424-1.6849-4.132-1.1232-0.706-3.418-1.06-6.884-1.06l-16.5281-0.19c-5.6484,0-9.1199,0.06-10.4143,0.206-1.2944,0.133-2.1716,0.501-2.6317,1.092-0.46,0.591-0.8076,1.7-1.043,3.325-0.086,0.675-0.3851,1.013-0.8986,1.013-0.6418,0-0.9628-0.391-0.9628-1.172l0.2567-7.63z"/>
<path style="text-align:start;" stroke-width="0.99999988" d="m510.7101,527.478c-1.3265,0.549-3.4288,1.56-6.3064,3.036-2.8778,1.474-5.7982,2.934-8.7614,4.378-2.9634,1.443-6.0818,3.071-9.3553,4.884-2.5888,1.454-4.108,2.276-4.5572,2.465,12.0029,5.29,21.6629,9.294,28.9803,12.012,0,5.058,0.1283,9.726,0.3851,14.006,0.021,0.399,0.033,0.695,0.033,0.884-0.0002,0.865-0.3425,1.297-1.0271,1.297-0.5992,0-0.8985-0.338-0.8985-1.013,0-2.402-0.8293-3.978-2.4873-4.726-1.6583-0.748-5.6966-1.122-12.1152-1.122l-15.7257-0.03c-3.2095,0-5.4562,0.417-6.7399,1.25-1.2838,0.832-1.9577,2.186-2.0218,4.061-0.021,0.907-0.3317,1.359-0.9306,1.359-0.3211,0-0.5884-0.189-0.8025-0.569l0.064-8.882c0-2.718-0.097-6.438-0.2888-11.159,0.2781-0.401,0.5775-0.6,0.8984-0.6,0.4922,0,0.8237,0.548,0.995,1.644,0.1925,1.116,0.4707,1.922,0.8343,2.417,0.3638,0.496,1.0377,0.87,2.0221,1.123,0.9842,0.252,2.4283,0.378,4.3326,0.378l14.3458,0.133c7.3386,0,11.5642,0.01,12.6769,0.03-13.522-5.733-22.1551-9.283-25.8993-10.654l-8.6974-3.192c-0.9201-0.358-1.3799-0.716-1.3799-1.075,0-0.379,0.5669-0.832,1.7007-1.359,3.2951-1.539,14.1747-7.028,32.6392-16.47-5.3062-0.104-12.463-0.158-21.4706-0.158-4.7499,0-7.7507,0.264-9.0023,0.791-1.2515,0.526-1.9844,2.002-2.1983,4.425-0.085,0.802-0.3851,1.201-0.8985,1.202-0.5564,0-0.8345-0.326-0.8345-0.98,0-0.232,0.015-0.485,0.033-0.759,0.1714-2.529,0.2568-4.342,0.2568-5.436,0-2.993-0.1074-5.258-0.321-6.798-0.043-0.294-0.066-0.516-0.066-0.663,0-0.738,0.3103-1.106,0.9307-1.106,0.2995,0,0.5082,0.09,0.6259,0.267,0.1178,0.181,0.262,0.66,0.4331,1.439,0.3853,2.023,1.1233,3.346,2.2145,3.967s2.8777,0.933,5.3596,0.933l18.3253,0.158c4.1721,0,6.9321-0.103,8.2801-0.316,1.3479-0.212,2.3855-0.728,3.1131-1.548,0.7273-0.822,1.273-2.162,1.6367-4.016,0.1497-0.695,0.5029-1.043,1.0591-1.043,0.5991,0,0.8985,0.379,0.8986,1.137,0,0.169-0.015,0.401-0.031,0.697-0.1711,2.15-0.2567,6.586-0.2567,13.307z"/>
<path style="text-align:start;" stroke-width="0.99999988" d="m511.625,592.567,0,2.181c-6.1191,2.783-15.7472,6.713-28.8839,11.79-6.0337,2.34-9.6869,3.953-10.9599,4.838s-2.0486,2.286-2.327,4.204c-0.085,0.633-0.3636,0.948-0.8343,0.948-0.6631,0-0.9949-0.411-0.9949-1.233,0-0.442,0.075-1.591,0.2247-3.445,0.1925-2.192,0.2889-4.036,0.2889-5.532,0-1.455-0.085-3.35-0.2567-5.69-0.1283-1.749-0.1926-2.898-0.1926-3.445,0-0.97,0.3101-1.455,0.9306-1.455,0.4707,0,0.7383,0.337,0.8024,1.012,0.2354,2.592,1.2623,3.888,3.0809,3.888,0.8559,0,2.4337-0.38,4.7338-1.138,2.3-0.759,4.3915-1.57,6.2743-2.434,0.021-1.371,0.033-2.434,0.033-3.192,0-4.236-0.015-7.535-0.033-9.895-5.0708-1.834-8.4298-2.75-10.0772-2.75-1.177,0-2.0916,0.452-2.7441,1.358-0.6526,0.907-1.0325,1.887-1.1394,2.941-0.085,0.8-0.4172,1.201-0.9948,1.201-0.5777,0-0.8666-0.432-0.8666-1.297,0-0.337,0.054-1.221,0.1605-2.655,0.1497-1.854,0.2246-3.203,0.2246-4.046,0-1.665-0.1074-3.245-0.321-4.742-0.066-0.378-0.097-0.696-0.097-0.949,0-0.779,0.3209-1.168,0.9627-1.168,0.4708,0,0.781,0.253,0.9308,0.758,0.3637,1.265,0.813,2.255,1.348,2.971,0.5349,0.717,1.5618,1.492,3.0809,2.324,1.5191,0.833,3.9475,1.828,7.2852,2.987,7.4883,2.614,17.6085,6.502,30.3603,11.665zm-11.2006-2.212-14.3137-5.438,0.1605,11.128c1.6689-0.59,3.9582-1.497,6.868-2.719,3.1665-1.328,5.5949-2.319,7.2852-2.971z"/>
<path style="text-align:start;" stroke-width="0.99999988" d="m489.8183,641.66c-0.4066,2.845-1.2785,5.188-2.6155,7.034-1.3373,1.844-3.9958,3.229-7.9753,4.156-3.7227,0.864-6.1779,1.791-7.3655,2.781-1.1874,0.991-1.8346,2.382-1.9415,4.173-0.064,0.991-0.3851,1.486-0.9628,1.486-0.6205,0-0.9307-0.8-0.9307-2.403l0.2888-12.17c1.2836-1.264,3.5731-2.128,6.8678-2.592,4.2151-0.59,7.189-1.201,8.922-1.834,1.733-0.631,2.9741-1.58,3.7229-2.845,0.7487-1.264,1.1233-2.729,1.1233-4.393,0-0.484-0.031-1.148-0.097-1.991-7.5311,0-12.1687,0.03-13.9125,0.07-1.7437,0.04-2.9953,0.395-3.7549,1.027-0.7595,0.633-1.1822,1.834-1.2676,3.604-0.064,0.948-0.3852,1.422-0.9628,1.422-0.5777,0-0.8666-0.411-0.8666-1.232l0.2568-9.705c0-1.307-0.054-2.982-0.1605-5.026-0.1073-1.876-0.1604-3.067-0.1604-3.572,0-0.865,0.3102-1.297,0.9307-1.297,0.599,0,0.8985,0.38,0.8985,1.139,0,1.179,0.2996,2.271,0.8986,3.272,0.5992,1.001,3.1346,1.5,7.6062,1.5l5.9694-0.03,11.5214,0.03c5.9479,0,9.5799-0.258,10.8957-0.774,1.3159-0.516,1.9951-1.902,2.0379-4.157,0.021-0.885,0.3316-1.327,0.9307-1.327,0.6205,0,0.9307,0.589,0.9309,1.769-0.0002,5.943,0.1283,10.981,0.385,15.112,0.1282,1.833,0.1925,3.486,0.1925,4.962,0,4.785-0.9681,8.536-2.9044,11.254-1.9364,2.719-4.4665,4.078-7.5901,4.078-2.0968,0-3.9795-0.643-5.6483-1.928-1.669-1.287-2.9099-2.892-3.7231-4.821-0.8129-1.928-1.3263-4.188-1.5403-6.78zm1.3478-8.598c-0.021,0.547-0.033,0.958-0.033,1.231-0.0002,1.835,0.3476,3.684,1.043,5.55,0.6953,1.864,1.8079,3.182,3.3377,3.951,1.5297,0.768,3.1612,1.153,4.8943,1.153,2.6743,0,4.7604-0.779,6.2582-2.339,1.4976-1.56,2.2465-3.573,2.2465-6.037,0-1.034-0.1926-2.204-0.5777-3.509z"/>
<path style="text-align:start;" stroke-width="0.99999988" d="m511.143,665.401c-0.0001,0.736-0.054,2.253-0.1605,4.551-0.085,1.749-0.1282,3.139-0.1282,4.172l0.2565,9.706c0,0.821-0.2889,1.232-0.8663,1.232-0.5134,0-0.8132-0.368-0.8988-1.106-0.171-1.665-0.4867-2.777-0.9464-3.335-0.4601-0.56-1.5246-0.992-3.1934-1.296-1.6689-0.306-5.4452-0.459-11.3291-0.459-6.7608,0-11.9869,0.104-15.6775,0.317-3.6908,0.21-5.9694,0.637-6.8359,1.28-0.8665,0.642-1.2998,1.712-1.2998,3.209,0,1.032-0.278,1.548-0.8345,1.548-0.7488,0-1.1231-0.559-1.1231-1.675,0-0.317,0.015-0.78,0.033-1.392,0.278-3.961,0.4172-6.67,0.4172-8.123,0-3.182-0.097-5.532-0.289-7.049-0.085-0.801-0.1282-1.37-0.1282-1.708,0-0.78,0.3102-1.169,0.9307-1.169,0.492,0,0.7808,0.327,0.8664,0.98,0.2354,1.791,0.7435,2.997,1.5245,3.62,0.7808,0.621,2.6583,0.995,5.6324,1.121,2.974,0.133,7.5955,0.189,13.8642,0.189,6.6112,0,11.0348-0.118,13.2707-0.348,2.2357-0.23,3.6104-0.615,4.1239-1.153,0.5134-0.537,0.8347-1.564,0.963-3.081,0.064-0.802,0.3958-1.202,0.995-1.202,0.5561,0,0.8343,0.39,0.8343,1.169z"/>
<path style="text-align:start;" stroke-width="0.99999988" d="m511.625,707.76,0,2.181c-6.1191,2.781-15.7472,6.711-28.8839,11.79-6.0337,2.339-9.6869,3.951-10.9599,4.837-1.273,0.884-2.0486,2.286-2.327,4.204-0.085,0.632-0.3636,0.949-0.8343,0.949-0.6631,0-0.9949-0.411-0.9949-1.233,0-0.442,0.075-1.591,0.2247-3.445,0.1925-2.193,0.2889-4.037,0.2889-5.533,0-1.454-0.085-3.351-0.2567-5.69-0.1283-1.749-0.1926-2.898-0.1926-3.445,0-0.97,0.3101-1.455,0.9306-1.455,0.4707,0,0.7383,0.337,0.8024,1.011,0.2354,2.594,1.2623,3.889,3.0809,3.889,0.8559,0,2.4337-0.38,4.7338-1.137,2.3-0.76,4.3915-1.571,6.2743-2.436,0.021-1.369,0.033-2.433,0.033-3.192,0-4.236-0.015-7.533-0.033-9.895-5.0708-1.832-8.4298-2.75-10.0772-2.75-1.177,0-2.0916,0.454-2.7441,1.36-0.6526,0.905-1.0325,1.886-1.1394,2.94-0.085,0.8-0.4172,1.201-0.9948,1.201-0.5777,0-0.8666-0.432-0.8666-1.296,0-0.337,0.054-1.223,0.1605-2.655,0.1497-1.855,0.2246-3.205,0.2246-4.046,0-1.665-0.1074-3.245-0.321-4.742-0.066-0.38-0.097-0.696-0.097-0.949,0-0.779,0.3209-1.17,0.9627-1.17,0.4708,0,0.781,0.253,0.9308,0.759,0.3637,1.264,0.813,2.255,1.348,2.972,0.5349,0.716,1.5618,1.49,3.0809,2.323,1.5191,0.832,3.9475,1.829,7.2852,2.988,7.4883,2.613,17.6085,6.502,30.3603,11.665zm-11.2006-2.214-14.3137-5.436,0.1605,11.126c1.6689-0.59,3.9582-1.496,6.868-2.719,3.1665-1.328,5.5949-2.317,7.2852-2.971z"/>
</g>
<g transform="translate(-93.149485,-637.40779)" stroke-miterlimit="4" stroke-width="1">
<g transform="translate(-0.012075,0.1157)">
<path d="m195.07936,1112.654c3.31249,0,5.9795,2.6628,5.97941,5.9702l-0.00018,17.5545h-11.95846l-0.00027-17.5545c-0.00009-3.3074,2.66702-5.9702,5.9795-5.9702zm16.69215,57.9715-33.38412,0,0-61.612-6.97583-5.0411,0-14.0028,9.4671,0,0,7.0015,9.46711,0,0-7.0015,9.46719,0,0,7.0015,9.4671,0,0-7.0015,9.46719,0,0,14.0028-6.97574,5.0411z" fill-rule="evenodd" fill="#eac102"/>
<path d="m178.38739,1119.2822,10.71274,0" stroke-dasharray="none" fill="none"/>
<path d="m171.41156,1103.9724,47.33569,0" stroke-dasharray="none" fill="none"/>
<path d="m178.38739,1150.0882,33.38412,0" stroke-dasharray="none" fill="none"/>
<path d="m178.38739,1139.8195,33.38412,0" stroke-dasharray="none" fill="none"/>
<path d="m178.38739,1160.3569,33.38412,0" stroke-dasharray="none" fill="none"/>
<path d="m195.07936,1150.0879,0,10.269" stroke-dasharray="none" fill="none"/>
<path d="m178.38739,1129.5509,10.71274,0" stroke-dasharray="none" fill="none"/>
<path d="m199.72994,1103.9724,0,5.0411" stroke-dasharray="none" fill="none"/>
<path d="m181.1278,1103.9724,0,5.0411" stroke-dasharray="none" fill="none"/>
<path d="m209.03093,1103.9724,0,5.0411" stroke-dasharray="none" fill="none"/>
<path d="m190.42886,1103.9724,0,5.0411" stroke-dasharray="none" fill="none"/>
<path d="m178.38739,1109.0135,33.38412,0" stroke-dasharray="none" fill="none"/>
<path d="m184.61566,1160.3566,0,10.2689" stroke-dasharray="none" fill="none"/>
<path d="m205.54307,1160.3566,0,10.2689" stroke-dasharray="none" fill="none"/>
<path d="m184.61566,1139.8192,0,10.269" stroke-dasharray="none" fill="none"/>
<path d="m205.54307,1139.8192,0,10.269" stroke-dasharray="none" fill="none"/>
<path d="m184.61566,1119.2819,0,10.269" stroke-dasharray="none" fill="none"/>
<path d="m205.54307,1119.2819,0,10.269" stroke-dasharray="none" fill="none"/>
<path d="m195.07936,1136.1788,0,3.6407" stroke-dasharray="none" fill="none"/>
<path d="m195.07936,1109.0135,0,3.6406" stroke-dasharray="none" fill="none"/>
<path d="m201.05859,1119.2822,10.71292,0" stroke-dasharray="none" fill="none"/>
<path d="m201.05859,1129.5509,10.71292,0" stroke-dasharray="none" fill="none"/>
<path d="m195.07936,1112.654c3.31249,0,5.97923,2.6628,5.97923,5.9702v17.5545h-11.95846v-17.5545c0-3.3074,2.66675-5.9702,5.97923-5.9702z" fill="#0071bc"/>
<path d="m291.74376,1112.654c3.31248,0,5.97949,2.6628,5.9794,5.9702l-0.00018,17.5545h-11.95846l-0.00027-17.5545c-0.00009-3.3074,2.66701-5.9702,5.97951-5.9702zm16.69205,57.9715-33.38403,0,0-61.612-6.97582-5.0411,0-14.0028,9.4671,0,0,7.0015,9.4671,0,0-7.0015,9.46719,0,0,7.0015,9.46709,0,0-7.0015,9.46712,0,0,14.0028-6.97575,5.0411z" fill-rule="evenodd" fill="#eac102"/>
<path d="m275.05178,1119.2822,10.71274,0" stroke-dasharray="none" fill="none"/>
<path d="m268.07596,1103.9724,47.3356,0" stroke-dasharray="none" fill="none"/>
<path d="m275.05178,1150.0882,33.38403,0" stroke-dasharray="none" fill="none"/>
<path d="m275.05178,1139.8195,33.38403,0" stroke-dasharray="none" fill="none"/>
<path d="m275.05178,1160.3569,33.38403,0" stroke-dasharray="none" fill="none"/>
<path d="m291.74376,1150.0879,0,10.269" stroke-dasharray="none" fill="none"/>
<path d="m275.05178,1129.5509,10.71274,0" stroke-dasharray="none" fill="none"/>
<path d="m296.39433,1103.9724,0,5.0411" stroke-dasharray="none" fill="none"/>
<path d="m277.79219,1103.9724,0,5.0411" stroke-dasharray="none" fill="none"/>
<path d="m305.69532,1103.9724,0,5.0411" stroke-dasharray="none" fill="none"/>
<path d="m287.09327,1103.9724,0,5.0411" stroke-dasharray="none" fill="none"/>
<path d="m275.05178,1109.0135,33.38403,0" stroke-dasharray="none" fill="none"/>
<path d="m281.27996,1160.3566,0,10.2689" stroke-dasharray="none" fill="none"/>
<path d="m302.20746,1160.3566,0,10.2689" stroke-dasharray="none" fill="none"/>
<path d="m281.27996,1139.8192,0,10.269" stroke-dasharray="none" fill="none"/>
<path d="m302.20746,1139.8192,0,10.269" stroke-dasharray="none" fill="none"/>
<path d="m281.27996,1119.2819,0,10.269" stroke-dasharray="none" fill="none"/>
<path d="m302.20746,1119.2819,0,10.269" stroke-dasharray="none" fill="none"/>
<path d="m291.74376,1136.1788,0,3.6407" stroke-dasharray="none" fill="none"/>
<path d="m291.74376,1109.0135,0,3.6406" stroke-dasharray="none" fill="none"/>
<path d="m297.72298,1119.2822,10.71283,0" stroke-dasharray="none" fill="none"/>
<path d="m297.72298,1129.5509,10.71283,0" stroke-dasharray="none" fill="none"/>
<path d="m291.74376,1112.654c3.31248,0,5.97922,2.6628,5.97922,5.9702v17.5545h-11.95846v-17.5545c0-3.3074,2.66674-5.9702,5.97924-5.9702z" fill="#0071bc"/>
<path d="m243.41165,1090.8096c3.31249,0,5.97941,2.6628,5.97941,5.9702l-0.00018,17.5545h-11.95855l-0.00027-17.5545c-0.00009-3.3074,2.66701-5.9702,5.97959-5.9702zm16.69197,57.9717-33.38412,0,0-61.6122-6.97574-5.0409,0-14.0028,9.46709,0,0,7.0015,9.46721,0,0-7.0015,9.4671,0,0,7.0015,9.46709,0,0-7.0015,9.4672,0,0,14.0028-6.97583,5.0409z" fill-rule="evenodd" fill="#eac102"/>
<path d="m226.7195,1097.4377,10.71283,0" stroke-dasharray="none" fill="none"/>
<path d="m219.74376,1082.1282,47.33569,0" stroke-dasharray="none" fill="none"/>
<path d="m226.7195,1128.2439,33.38412,0" stroke-dasharray="none" fill="none"/>
<path d="m226.7195,1117.9751,33.38412,0" stroke-dasharray="none" fill="none"/>
<path d="m226.7195,1138.5126,33.38412,0" stroke-dasharray="none" fill="none"/>
<path d="m243.41165,1128.2437,0,10.2689" stroke-dasharray="none" fill="none"/>
<path d="m226.7195,1107.7064,10.71283,0" stroke-dasharray="none" fill="none"/>
<path d="m248.06222,1082.1282,0,5.0408" stroke-dasharray="none" fill="none"/>
<path d="m229.46008,1082.1282,0,5.0408" stroke-dasharray="none" fill="none"/>
<path d="m257.36304,1082.1282,0,5.0408" stroke-dasharray="none" fill="none"/>
<path d="m238.76106,1082.1282,0,5.0408" stroke-dasharray="none" fill="none"/>
<path d="m226.7195,1087.169,33.38412,0" stroke-dasharray="none" fill="none"/>
<path d="m232.94785,1138.5124,0,10.2689" stroke-dasharray="none" fill="none"/>
<path d="m253.87526,1138.5124,0,10.2689" stroke-dasharray="none" fill="none"/>
<path d="m232.94785,1117.9749,0,10.269" stroke-dasharray="none" fill="none"/>
<path d="m253.87526,1117.9749,0,10.269" stroke-dasharray="none" fill="none"/>
<path d="m232.94785,1097.4376,0,10.2688" stroke-dasharray="none" fill="none"/>
<path d="m253.87526,1097.4376,0,10.2688" stroke-dasharray="none" fill="none"/>
<path d="m243.41165,1114.3345,0,3.6406" stroke-dasharray="none" fill="none"/>
<path d="m243.41165,1087.169,0,3.6409" stroke-dasharray="none" fill="none"/>
<path d="m249.39088,1097.4377,10.71274,0" stroke-dasharray="none" fill="none"/>
<path d="m249.39088,1107.7064,10.71274,0" stroke-dasharray="none" fill="none"/>
<path d="m243.41165,1090.8096c3.31249,0,5.97923,2.6628,5.97923,5.9702v17.5545h-11.95855v-17.5545c0-3.3074,2.66674-5.9702,5.97932-5.9702z" fill="#0071bc"/>
</g>
<g>
<path d="m279.19931,1198.5486c5.11022,0,9.22452,4.1145,9.22443,9.2255l-0.00018,29.4988h-18.44851l0.00036-29.4988c0-5.111,4.11367-9.2255,9.2239-9.2255zm-71.59991,0c5.11022,0,9.22452,4.1145,9.22443,9.2255l-0.00018,29.4988h-18.44816v-29.4988c0-5.111,4.11368-9.2255,9.22391-9.2255zm125.30009,138.6925-0.00027-47.7321-17.89991-15.9108-0.00018-95.4643,11.9168-6.1734,0-27.2194-29.8168,0,0,13.6098-33.25694,0,0-13.6098-40.88567,0,0,13.6098-33.25686,0,0-13.6098-29.8169,0,0,27.2194,11.91681,6.1734-0.00009,95.4643-17.9,15.9108,0,47.7321,75.28965,0-0.00009-39.7937c0-7.8737,6.33778-14.2123,14.21036-14.2123,7.87248,0,14.21034,6.3386,14.21025,14.2123l-0.00027,39.7937z" fill-rule="evenodd" fill="#eac102"/>
<path d="m153.89948,1321.3303,65.31746,0" stroke-dasharray="none" fill="none"/>
<path d="m153.89948,1305.4195,65.31746,0" stroke-dasharray="none" fill="none"/>
<path d="m153.89948,1289.509,66.5397,0" stroke-dasharray="none" fill="none"/>
<path d="m171.79966,1273.5982,67.73549,0" stroke-dasharray="none" fill="none"/>
<path d="m171.79966,1257.6875,143.19965,0" stroke-dasharray="none" fill="none"/>
<path d="m171.79966,1241.7767,143.19965,0" stroke-dasharray="none" fill="none"/>
<path d="m207.5994,1257.6875,0,15.9107" stroke-dasharray="none" fill="none"/>
<path d="m243.3994,1257.6875,0,15.574" stroke-dasharray="none" fill="none"/>
<path d="m279.19931,1257.6875,0,15.9107" stroke-dasharray="none" fill="none"/>
<path d="m171.79966,1194.0446,143.19965,0" stroke-dasharray="none" fill="none"/>
<path d="m171.79966,1209.9554,26.57583,0" stroke-dasharray="none" fill="none"/>
<path d="m171.79966,1225.8661,26.57583,0" stroke-dasharray="none" fill="none"/>
<path d="m267.58175,1321.3303,65.31747,0" stroke-dasharray="none" fill="none"/>
<path d="m267.58175,1305.4195,65.31747,0" stroke-dasharray="none" fill="none"/>
<path d="m171.79948,1289.509,0,15.9105" stroke-dasharray="none" fill="none"/>
<path d="m314.99931,1289.509,0,15.9105" stroke-dasharray="none" fill="none"/>
<path d="m207.5994,1289.509,0,15.9105" stroke-dasharray="none" fill="none"/>
<path d="m279.19931,1289.509,0,15.9105" stroke-dasharray="none" fill="none"/>
<path d="m171.79948,1321.3303,0,15.9108" stroke-dasharray="none" fill="none"/>
<path d="m314.99931,1321.3303,0,15.9108" stroke-dasharray="none" fill="none"/>
<path d="m207.5994,1321.3303,0,15.9108" stroke-dasharray="none" fill="none"/>
<path d="m279.19931,1321.3303,0,15.9108" stroke-dasharray="none" fill="none"/>
<path d="m189.6994,1305.4195,0,15.9108" stroke-dasharray="none" fill="none"/>
<path d="m297.09931,1305.4195,0,15.9108" stroke-dasharray="none" fill="none"/>
<path d="m189.6994,1273.5982,0,15.9108" stroke-dasharray="none" fill="none"/>
<path d="m297.09931,1273.5982,0,15.9108" stroke-dasharray="none" fill="none"/>
<path d="m225.4994,1273.5982,0,7.3991" stroke-dasharray="none" fill="none"/>
<path d="m189.6994,1241.7767,0,15.9108" stroke-dasharray="none" fill="none"/>
<path d="m297.09931,1241.7767,0,15.9108" stroke-dasharray="none" fill="none"/>
<path d="m261.2994,1241.7767,0,15.9108" stroke-dasharray="none" fill="none"/>
<path d="m225.4994,1241.7767,0,15.9108" stroke-dasharray="none" fill="none"/>
<path d="m288.42356,1209.9554,26.57575,0" stroke-dasharray="none" fill="none"/>
<path d="m288.42356,1225.8661,26.57575,0" stroke-dasharray="none" fill="none"/>
<path d="m216.82365,1209.9554,53.15176,0" stroke-dasharray="none" fill="none"/>
<path d="m216.82365,1225.8661,53.15176,0" stroke-dasharray="none" fill="none"/>
<path d="m189.6994,1209.9554,0,15.9107" stroke-dasharray="none" fill="none"/>
<path d="m297.09931,1209.9554,0,15.9107" stroke-dasharray="none" fill="none"/>
<path d="m261.2994,1209.9554,0,15.9107" stroke-dasharray="none" fill="none"/>
<path d="m225.4994,1209.9554,0,15.9107" stroke-dasharray="none" fill="none"/>
<path d="m207.5994,1237.273,0,4.5037" stroke-dasharray="none" fill="none"/>
<path d="m243.3994,1225.8661,0,15.9106" stroke-dasharray="none" fill="none"/>
<path d="m279.19931,1237.273,0,4.5037" stroke-dasharray="none" fill="none"/>
<path d="m207.5994,1194.0446,0,4.5039" stroke-dasharray="none" fill="none"/>
<path d="m243.3994,1194.0446,0,15.9108" stroke-dasharray="none" fill="none"/>
<path d="m279.19931,1194.0446,0,4.5039" stroke-dasharray="none" fill="none"/>
<path d="m159.88276,1171.9605,167.03317,0" stroke-dasharray="none" fill="none"/>
<path d="m243.3994,1178.1339,0-6.1734" stroke-dasharray="none" fill="none"/>
<path d="m212.48574,1178.1339,0-6.1734" stroke-dasharray="none" fill="none"/>
<path d="m181.57216,1178.1339,0-6.1734" stroke-dasharray="none" fill="none"/>
<path d="m274.31297,1178.1339,0-6.1734" stroke-dasharray="none" fill="none"/>
<path d="m305.22663,1178.1339,0-6.1734" stroke-dasharray="none" fill="none"/>
<path d="m171.79948,1178.1339,143.19983,0" stroke-dasharray="none" fill="none"/>
<path d="m189.6994,1178.1339,0,15.9107" stroke-dasharray="none" fill="none"/>
<path d="m297.09931,1178.1339,0,15.9107" stroke-dasharray="none" fill="none"/>
<path d="m261.2994,1178.1339,0,15.9107" stroke-dasharray="none" fill="none"/>
<path d="m225.4994,1178.1339,0,15.9107" stroke-dasharray="none" fill="none"/>
<path d="m314.99913,1273.5982-67.73559,0" stroke-dasharray="none" fill="none"/>
<path d="m219.21694,1337.2411,0-39.7937c0-13.3989,10.78542-24.1858,24.18246-24.1858,13.39711,0,24.18244,10.7869,24.18244,24.1858v39.7937" fill="none"/>
<path d="m219.21694,1297.4474,9.97219,0" stroke-dasharray="none" fill="none"/>
<path d="m257.60929,1297.4474,9.97255,0" stroke-dasharray="none" fill="none"/>
<path d="m254.89577,1289.0936,8.0676-5.8622" stroke-dasharray="none" fill="none"/>
<path d="m223.8355,1283.2314,8.0675,5.8622" stroke-dasharray="none" fill="none"/>
<path d="m235.92664,1274.4454,3.08159,9.4853" stroke-dasharray="none" fill="none"/>
<path d="m247.79064,1283.9307,3.0816-9.4853" stroke-dasharray="none" fill="none"/>
<path d="m219.21694,1310.7119,9.97219,0" stroke-dasharray="none" fill="none"/>
<path d="m219.21694,1323.9765,9.97219,0" stroke-dasharray="none" fill="none"/>
<path d="m257.60929,1310.7119,9.97255,0" stroke-dasharray="none" fill="none"/>
<path d="m257.60956,1323.9765,9.97228,0" stroke-dasharray="none" fill="none"/>
<path d="m261.29931,1273.5982,0,7.3991" stroke-dasharray="none" fill="none"/>
<path d="m266.35962,1289.509,66.5396,0" stroke-dasharray="none" fill="none"/>
<path d="m243.3994,1283.2351c7.87257,0,14.21034,6.3386,14.21034,14.2123l-0.00027,39.7937h-28.42034v-39.7937c0-7.8737,6.33778-14.2123,14.21027-14.2123z" fill="#0071bc"/>
<path d="m207.5994,1198.5486c5.11022,0,9.22425,4.1145,9.22425,9.2255v29.4988h-18.44852v-29.4988c0-5.111,4.11404-9.2255,9.22427-9.2255z" fill="#0071bc"/>
<path d="m279.19931,1198.5486c5.11022,0,9.22425,4.1145,9.22425,9.2255v29.4988h-18.44851v-29.4988c0-5.111,4.11403-9.2255,9.22426-9.2255z" fill="#0071bc"/>
</g>
</g>
</g>
<path stroke-linejoin="round" d="m26.5,361.5v348.5c0,137.172,111.328,248.5,248.5,248.5s248.5-111.328,248.5-248.5v-348.5z" stroke="#000" stroke-linecap="round" stroke-width="3" fill="none"/>
</svg>
