<?xml version="1.0" encoding="UTF-8" standalone="no"?>
<!-- Created with Inkscape (http://www.inkscape.org/) -->

<svg
   xmlns:dc="http://purl.org/dc/elements/1.1/"
   xmlns:cc="http://creativecommons.org/ns#"
   xmlns:rdf="http://www.w3.org/1999/02/22-rdf-syntax-ns#"
   xmlns:svg="http://www.w3.org/2000/svg"
   xmlns="http://www.w3.org/2000/svg"
   xmlns:sodipodi="http://sodipodi.sourceforge.net/DTD/sodipodi-0.dtd"
   xmlns:inkscape="http://www.inkscape.org/namespaces/inkscape"
   version="1.0"
   width="710.00006"
   height="907.41754"
   id="svg3194"
   inkscape:version="0.47 r22583"
   sodipodi:docname="Escudo de Pedro Martínez.svg">
  <metadata
     id="metadata15">
    <rdf:RDF>
      <cc:Work
         rdf:about="">
        <dc:format>image/svg+xml</dc:format>
        <dc:type
           rdf:resource="http://purl.org/dc/dcmitype/StillImage" />
      </cc:Work>
    </rdf:RDF>
  </metadata>
  <sodipodi:namedview
     pagecolor="#ffffff"
     bordercolor="#666666"
     borderopacity="1"
     objecttolerance="10"
     gridtolerance="10"
     guidetolerance="10"
     inkscape:pageopacity="0"
     inkscape:pageshadow="2"
     inkscape:window-width="1280"
     inkscape:window-height="954"
     id="namedview13"
     showgrid="false"
     inkscape:zoom="0.79786864"
     inkscape:cx="254.73288"
     inkscape:cy="453.70877"
     inkscape:window-x="-4"
     inkscape:window-y="-4"
     inkscape:window-maximized="1"
     inkscape:current-layer="svg3194" />
  <defs
     id="defs3196" />
  <g
     id="g4507">
    <g
       style="display:inline"
       transform="translate(24.953321,3.3780361)"
       inkscape:label="Timbre"
       id="layer3-0" />
    <g
       transform="translate(24.953321,3.3780361)"
       id="layer1-9"
       inkscape:label="Escudo" />
    <g
       transform="translate(81.382043,-73.26231)"
       inkscape:label="Piezas"
       id="layer4-4" />
    <g
       transform="translate(81.382043,-73.26231)"
       style="display:inline"
       inkscape:label="Muebles"
       id="layer5-8" />
    <g
       transform="translate(81.382043,-73.26231)"
       style="display:inline"
       inkscape:label="Ornamentos"
       id="layer6-8">
      <g
         transform="translate(-58.323283,119.95473)"
         id="g4185"
         style="display:inline">
        <g
           style="stroke:#000000;stroke-width:2.03314614;stroke-opacity:1"
           transform="matrix(0.5070596,0,0,0.4766055,-1167.4024,39.474014)"
           id="g8962">
          <g
             style="stroke:#000000;stroke-width:2.03314614;stroke-opacity:1"
             id="g8964">
            <path
               style="fill:#eac102;fill-rule:evenodd;stroke:#000000;stroke-width:2.03314614;stroke-linecap:butt;stroke-linejoin:miter;stroke-opacity:1"
               d="m 2417.1034,230.14367 c 20.6758,40.49153 45.4058,92.36905 64.5179,86.02392 4.1221,-1.73603 5.463,-11.81574 -0.7051,-44.42219 l -37.371,-73.68443 c -5.1708,-8.3755 -19.8607,-2.03259 -20.8009,6.69859 l -5.6409,25.38411 z"
               id="path8966"
               sodipodi:nodetypes="cccccc" />
            <path
               id="path8968"
               d="m 2448.75,274.90625 6.8125,-19.96875 c -13.8149,-17.77489 -35.1635,-50.18123 -58.0313,-90.46875 -4.7277,-8.33714 -20.9265,-3.41756 -17.0624,5.84375 30.869,58.46136 52.8047,89.21656 68.2812,104.59375 z"
               style="fill:#eac102;fill-rule:evenodd;stroke:#000000;stroke-width:2.03314614;stroke-linecap:butt;stroke-linejoin:miter;stroke-opacity:1" />
          </g>
          <g
             style="stroke:#000000;stroke-width:2.03314614;stroke-opacity:1"
             id="g8970">
            <path
               sodipodi:nodetypes="cccccc"
               id="path8972"
               d="m 3496.7613,230.14367 c -20.6758,40.49153 -45.4058,92.36905 -64.5179,86.02392 -4.1221,-1.73603 -5.463,-11.81574 0.7051,-44.42219 l 37.371,-73.68443 c 5.1708,-8.3755 19.8607,-2.03259 20.8009,6.69859 l 5.6409,25.38411 z"
               style="fill:#eac102;fill-rule:evenodd;stroke:#000000;stroke-width:2.03314614;stroke-linecap:butt;stroke-linejoin:miter;stroke-opacity:1" />
            <path
               id="path8974"
               d="m 3458.0938,255.1875 6.8124,19.96875 c 15.4881,-15.30082 37.4816,-46.09948 68.5,-104.84375 3.8641,-9.26131 -12.3348,-14.18089 -17.0624,-5.84375 -22.9748,40.47599 -44.443,73.00074 -58.25,90.71875 z"
               style="fill:#eac102;fill-rule:evenodd;stroke:#000000;stroke-width:2.03314614;stroke-linecap:butt;stroke-linejoin:miter;stroke-opacity:1" />
          </g>
        </g>
        <g
           style="stroke:#000000;stroke-width:0.7982766;stroke-opacity:1"
           id="g8976"
           transform="matrix(1.29144,0,0,1.2138759,-1389.6713,-106.17665)">
          <g
             style="stroke:#000000;stroke-width:2.1010952;stroke-opacity:1"
             id="g8978"
             transform="matrix(0.3926312,0,0,0.3676466,172.09834,125.47082)">
            <path
               sodipodi:nodetypes="ccccccccccccccccccccccc"
               id="path8980"
               d="m 2259.2204,-21.283662 13.5127,-10.69977 c 38.7245,-10.031734 73.2534,26.8272673 73.0253,42.666284 9.6794,-8.8057395 19.3588,-5.7881781 29.0382,-5.2796724 -5.7251,18.9206564 -0.1378,33.0145444 -6.8636,53.3246894 8.9688,2.784611 15.989,6.738417 17.9509,13.727148 l 8.9754,-5.80764 11.0873,-0.527967 c 2.1216,52.75337 -15.0802,41.15878 -11.6152,60.71623 l 18.4788,-22.70259 20.0628,2.11187 c 9.8196,1.86427 12.6267,13.46219 23.2305,14.78308 -7.4831,10.11579 -12.0387,27.91081 -19.0068,40.12551 -8.5556,6.21222 -16.0753,5.1735 -23.2306,1.5839 23.3337,8.58781 29.4491,28.73746 38.5417,39.59754 -9.5595,0.52797 -18.1418,1.58391 -22.1746,2.11188 14.7377,21.02796 23.1532,37.85908 37.4856,49.62891 l -8.4475,1.5839 -43.8213,-21.64665 -36.9577,-38.01364 -45.4051,-70.21964 -1.5839,-110.87312 c -23.1511,-11.7939305 -19.6064,-39.159015 -72.2829,-36.190252 z"
               style="fill:#eac102;fill-rule:evenodd;stroke:#000000;stroke-width:2.1010952;stroke-linecap:round;stroke-linejoin:round;stroke-miterlimit:4;stroke-opacity:1;stroke-dasharray:none" />
            <path
               sodipodi:nodetypes="ccczcccczccczccccccc"
               id="path8982"
               d="m 2257.8362,-20.616681 c 63.0557,6.587504 63.0115,95.729549 75.5853,148.407001 l 40.3183,68.26621 c 25.4971,24.6386 41.9797,55.29007 57.751,58.90359 15.2759,3.50002 14.2178,-3.0187 29.758,0.65753 -30.4247,-13.52566 -16.494,-44.74695 -79.7203,-63.68458 20.4457,-11.32653 20.4445,19.87787 61.3938,10.9959 -11.2314,-28.08772 -35.3707,-29.44338 -46.2744,-39.86014 16.7073,-5.39702 18.5396,5.3425 30.6969,0.45816 13.499,-5.42337 10.385,-26.33514 21.0754,-40.31829 -13.9929,-6.17329 -25.3676,-24.564624 -42.6091,-15.57753 -5.9916,4.96851 -14.8141,21.73624 -24.7407,25.6571 -4.1769,-22.38029 9.8671,-24.38807 12.8285,-35.736673 2.9343,-11.244851 -1.7545,-14.661675 0.9163,-30.696885 -45.4223,16.762132 -28.2802,47.083998 -49.0312,60.368768 -0.2133,-32.214271 8.8979,-18.51426 25.6649,-53.954494 -6.3299,-9.420974 -10.7933,-7.642714 -16.0356,-10.537736 8.3293,-18.001305 0.7954,-28.96192 9.6214,-54.0631718 -16.6788,-5.5724121 -22.3558,3.4658318 -27.0316,9.1632498 -1.695,-15.5926208 -38.1614,-65.956579 -80.1669,-38.448009 z"
               style="fill:#eac102;fill-rule:evenodd;stroke:#000000;stroke-width:2.1010952;stroke-linecap:butt;stroke-linejoin:round;stroke-opacity:1" />
            <path
               d="m 2348.0296,39.81348 c -13.4425,30.094041 -12.093,60.18808 -11.1117,90.28212 m 32.6405,-15.97299 c -2.7041,15.12086 -12.2496,23.40027 -22.2233,31.2515 m 69.4478,-9.02821 c -23.9583,1.77752 -25.7122,17.05247 -61.114,22.22329 m 6.9447,9.72269 c 17.1583,3.44456 34.1187,7.08707 45.8356,15.97299 m -36.8073,5.55583 c 23.3688,28.19752 42.9779,30.73388 50.0024,45.14106"
               style="fill:none;stroke:#000000;stroke-width:2.1010952;stroke-linecap:butt;stroke-linejoin:miter;stroke-miterlimit:4;stroke-opacity:1;stroke-dasharray:none"
               id="path8984" />
            <g
               style="stroke:#000000;stroke-width:1.89181733;stroke-opacity:1"
               transform="matrix(-0.9278259,0.6104274,0.6104274,0.9278259,3844.2704,-1752.9019)"
               id="g8986">
              <path
                 id="path8988"
                 d="m 2069.0625,730.6875 c 0.2238,0.008 0.4309,0.0937 0.6563,0.0937 12.7586,0 23.0938,-12.76605 23.0937,-28.5 0,-15.73395 -10.3352,-28.49999 -23.0937,-28.5 -0.2254,0 -0.4325,0.0858 -0.6563,0.0937 l 0,56.8125 z"
                 style="fill:#e3e4e5;fill-opacity:1;fill-rule:nonzero;stroke:#000000;stroke-width:1.89181733;stroke-linecap:butt;stroke-linejoin:miter;stroke-miterlimit:4;stroke-opacity:1;stroke-dasharray:none;stroke-dashoffset:0;marker:none;visibility:visible;display:inline;overflow:visible;enable-background:accumulate" />
              <path
                 sodipodi:nodetypes="ccccc"
                 id="path8990"
                 d="m 2066.2861,668.73151 6.9503,0 0,66.52937 -6.9503,0 c -2.4585,-25.68971 -2.8624,-50.12503 0,-66.52937 z"
                 style="fill:#eac102;fill-opacity:1;fill-rule:nonzero;stroke:#000000;stroke-width:1.89181733;stroke-linecap:butt;stroke-linejoin:miter;stroke-miterlimit:4;stroke-opacity:1;stroke-dashoffset:0;marker:none;visibility:visible;display:inline;overflow:visible;enable-background:accumulate" />
            </g>
          </g>
          <g
             style="stroke:#000000;stroke-width:2.1010952;stroke-opacity:1"
             transform="matrix(-0.3926312,0,0,0.3676466,2494.0922,125.47082)"
             id="g8992">
            <path
               style="fill:#eac102;fill-rule:evenodd;stroke:#000000;stroke-width:2.1010952;stroke-linecap:round;stroke-linejoin:round;stroke-miterlimit:4;stroke-opacity:1;stroke-dasharray:none"
               d="m 2259.2204,-21.283662 13.5127,-10.69977 c 38.7245,-10.031734 73.2534,26.8272673 73.0253,42.666284 9.6794,-8.8057395 19.3588,-5.7881781 29.0382,-5.2796724 -5.7251,18.9206564 -0.1378,33.0145444 -6.8636,53.3246894 8.9688,2.784611 15.989,6.738417 17.9509,13.727148 l 8.9754,-5.80764 11.0873,-0.527967 c 2.1216,52.75337 -15.0802,41.15878 -11.6152,60.71623 l 18.4788,-22.70259 20.0628,2.11187 c 9.8196,1.86427 12.6267,13.46219 23.2305,14.78308 -7.4831,10.11579 -12.0387,27.91081 -19.0068,40.12551 -8.5556,6.21222 -16.0753,5.1735 -23.2306,1.5839 23.3337,8.58781 29.4491,28.73746 38.5417,39.59754 -9.5595,0.52797 -18.1418,1.58391 -22.1746,2.11188 14.7377,21.02796 23.1532,37.85908 37.4856,49.62891 l -8.4475,1.5839 -43.8213,-21.64665 -36.9577,-38.01364 -45.4051,-70.21964 -1.5839,-110.87312 c -23.1511,-11.7939305 -19.6064,-39.159015 -72.2829,-36.190252 z"
               id="path8994"
               sodipodi:nodetypes="ccccccccccccccccccccccc" />
            <path
               style="fill:#eac102;fill-rule:evenodd;stroke:#000000;stroke-width:2.1010952;stroke-linecap:butt;stroke-linejoin:round;stroke-opacity:1"
               d="m 2257.8362,-20.616681 c 63.0557,6.587504 63.0115,95.729549 75.5853,148.407001 l 40.3183,68.26621 c 25.4971,24.6386 41.9797,55.29007 57.751,58.90359 15.2759,3.50002 14.2178,-3.0187 29.758,0.65753 -30.4247,-13.52566 -16.494,-44.74695 -79.7203,-63.68458 20.4457,-11.32653 20.4445,19.87787 61.3938,10.9959 -11.2314,-28.08772 -35.3707,-29.44338 -46.2744,-39.86014 16.7073,-5.39702 18.5396,5.3425 30.6969,0.45816 13.499,-5.42337 10.385,-26.33514 21.0754,-40.31829 -13.9929,-6.17329 -25.3676,-24.564624 -42.6091,-15.57753 -5.9916,4.96851 -14.8141,21.73624 -24.7407,25.6571 -4.1769,-22.38029 9.8671,-24.38807 12.8285,-35.736673 2.9343,-11.244851 -1.7545,-14.661675 0.9163,-30.696885 -45.4223,16.762132 -28.2802,47.083998 -49.0312,60.368768 -0.2133,-32.214271 8.8979,-18.51426 25.6649,-53.954494 -6.3299,-9.420974 -10.7933,-7.642714 -16.0356,-10.537736 8.3293,-18.001305 0.7954,-28.96192 9.6214,-54.0631718 -16.6788,-5.5724121 -22.3558,3.4658318 -27.0316,9.1632498 -1.695,-15.5926208 -38.1614,-65.956579 -80.1669,-38.448009 z"
               id="path8996"
               sodipodi:nodetypes="ccczcccczccczccccccc" />
            <path
               id="path8998"
               style="fill:none;stroke:#000000;stroke-width:2.1010952;stroke-linecap:butt;stroke-linejoin:miter;stroke-miterlimit:4;stroke-opacity:1;stroke-dasharray:none"
               d="m 2348.0296,39.81348 c -13.4425,30.094041 -12.093,60.18808 -11.1117,90.28212 m 32.6405,-15.97299 c -2.7041,15.12086 -12.2496,23.40027 -22.2233,31.2515 m 69.4478,-9.02821 c -23.9583,1.77752 -25.7122,17.05247 -61.114,22.22329 m 6.9447,9.72269 c 17.1583,3.44456 34.1187,7.08707 45.8356,15.97299 m -36.8073,5.55583 c 23.3688,28.19752 42.9779,30.73388 50.0024,45.14106" />
            <g
               style="stroke:#000000;stroke-width:1.89181733;stroke-opacity:1"
               id="g9000"
               transform="matrix(-0.9278259,0.6104274,0.6104274,0.9278259,3844.2704,-1752.9019)">
              <path
                 style="fill:#e3e4e5;fill-opacity:1;fill-rule:nonzero;stroke:#000000;stroke-width:1.89181733;stroke-linecap:butt;stroke-linejoin:miter;stroke-miterlimit:4;stroke-opacity:1;stroke-dasharray:none;stroke-dashoffset:0;marker:none;visibility:visible;display:inline;overflow:visible;enable-background:accumulate"
                 d="m 2069.0625,730.6875 c 0.2238,0.008 0.4309,0.0937 0.6563,0.0937 12.7586,0 23.0938,-12.76605 23.0937,-28.5 0,-15.73395 -10.3352,-28.49999 -23.0937,-28.5 -0.2254,0 -0.4325,0.0858 -0.6563,0.0937 l 0,56.8125 z"
                 id="path9002" />
              <path
                 style="fill:#eac102;fill-opacity:1;fill-rule:nonzero;stroke:#000000;stroke-width:1.89181733;stroke-linecap:butt;stroke-linejoin:miter;stroke-miterlimit:4;stroke-opacity:1;stroke-dashoffset:0;marker:none;visibility:visible;display:inline;overflow:visible;enable-background:accumulate"
                 d="m 2066.2861,668.73151 6.9503,0 0,66.52937 -6.9503,0 c -2.4585,-25.68971 -2.8624,-50.12503 0,-66.52937 z"
                 id="path9004"
                 sodipodi:nodetypes="ccccc" />
            </g>
          </g>
        </g>
        <path
           id="path9006"
           d="m 332.00444,77.483313 c -1.76759,0.0215 -3.55365,1.124602 -3.6128,3.231989 -1.6276,20.859858 -10.24448,53.374328 -42.22868,59.262908 -31.72345,5.84062 -59.69397,-38.55631 -60.87874,-56.209662 0.0176,-2.635379 -2.13475,-3.658365 -4.31005,-3.544747 -2.46523,0.128767 -4.9674,1.714125 -4.35758,4.051141 4.73158,24.102958 -0.22174,54.803788 -22.18384,60.290608 -21.86989,5.46378 -45.76334,-20.17866 -62.79614,-52.143635 -1.57749,-6.043668 -10.6589,-3.675676 -8.92114,0.759592 13.87885,33.233613 9.18976,56.624473 -0.80805,61.556593 -12.14225,3.66537 -37.469198,-25.59181 -51.688469,-51.38404 -2.418221,-3.490474 -11.322442,-1.67778 -9.206288,2.80006 10.348696,19.8141 20.625717,39.62393 21.106391,59.76931 -1.187479,-1.16839 -2.723905,-2.9117 -4.405101,-4.94478 l -3.454344,9.51721 c 8.343348,7.79197 12.981167,7.2895 15.306922,5.22777 4.652929,-4.12466 4.745396,-12.65499 -1.489547,-31.66448 11.477027,11.47613 29.519346,25.55424 41.135206,17.79824 11.61599,-7.75599 12.68646,-21.7379 11.63071,-38.66463 14.20997,17.48184 35.81641,35.51685 55.20609,31.03894 19.64474,-4.53682 28.21938,-21.68895 30.85147,-43.50515 10.82472,19.77408 33.13266,42.38113 60.62535,38.91783 26.41203,-3.32717 41.58413,-32.51702 44.41522,-42.12002 2.8311,9.603 18.01895,38.79285 44.43109,42.12002 27.49269,3.4633 49.78476,-19.14375 60.60948,-38.91783 2.63208,21.8162 11.2066,38.96833 30.85146,43.50515 19.38956,4.47791 40.99599,-13.5571 55.20609,-31.03894 -1.05588,16.92673 0.0146,30.90864 11.63071,38.66463 11.61586,7.756 29.65818,-6.32211 41.13521,-17.79824 -6.23507,19.00949 -6.14261,27.53982 -1.48955,31.66448 2.31517,2.05234 6.92432,2.5722 15.19599,-5.10861 l -3.45435,-9.51722 c -1.63974,1.97781 -3.1298,3.68001 -4.29416,4.82563 0.48067,-20.14538 10.75756,-39.95521 21.10626,-59.76931 2.11628,-4.47784 -6.77218,-6.290534 -9.1904,-2.80006 -14.21927,25.79223 -39.54609,55.04941 -51.68834,51.38404 -9.99768,-4.93212 -14.70266,-28.32298 -0.82407,-61.556593 1.73789,-4.435268 -7.34351,-6.80326 -8.92101,-0.759592 -17.03293,31.964975 -40.91049,57.607415 -62.78038,52.143635 -21.9621,-5.48682 -26.9313,-36.18765 -22.19973,-60.290608 1.14796,-4.399097 -8.68919,-6.128537 -8.65161,-0.506394 -1.18477,17.653352 -29.17118,62.050282 -60.89476,56.209662 -31.98406,-5.88858 -40.58479,-38.40305 -42.21265,-59.262908 0.0145,-2.193368 -1.7344,-3.253485 -3.50187,-3.231989 z"
           style="fill:#eac102;fill-rule:evenodd;stroke:#000000;stroke-width:0.99948817;stroke-linecap:butt;stroke-linejoin:miter;stroke-opacity:1" />
        <g
           style="stroke:#000000;stroke-width:2.03314614;stroke-opacity:1"
           transform="matrix(0.5070596,0,0,0.4766055,-1167.3978,39.474014)"
           id="g9008">
          <g
             style="stroke:#000000;stroke-width:2.02728939;stroke-opacity:1"
             id="g9010"
             transform="matrix(1,0,0,1.0057864,0.81,-1346.0782)">
            <path
               transform="translate(5.7741166,34.306194)"
               d="m 3198.0512,1390.3806 c 0,16.2719 -13.191,29.4628 -29.4628,29.4628 -16.2719,0 -29.4628,-13.1909 -29.4628,-29.4628 0,-16.2718 13.1909,-29.4628 29.4628,-29.4628 16.2718,0 29.4628,13.191 29.4628,29.4628 z"
               sodipodi:ry="29.462782"
               sodipodi:rx="29.462782"
               sodipodi:cy="1390.3806"
               sodipodi:cx="3168.5884"
               id="path9012"
               style="fill:#e3e4e5;fill-opacity:1;fill-rule:evenodd;stroke:#000000;stroke-width:2.02728939;stroke-linecap:round;stroke-linejoin:round;stroke-miterlimit:4;stroke-opacity:1;stroke-dasharray:none;stroke-dashoffset:0;marker:none;visibility:visible;display:inline;overflow:visible;enable-background:accumulate"
               sodipodi:type="arc" />
            <path
               sodipodi:nodetypes="cczzc"
               id="path9014"
               d="m 3153.8713,1446.2083 c 10.7718,4.0584 21.9748,5.4216 35.2212,4.3839 -0.7469,7.6145 -7.8526,4.5247 -6.7924,11.0304 1.0602,6.5057 -27.3179,4.332 -24.724,-2.5454 2.5939,-6.8773 -5.0767,-5.2953 -3.7048,-12.8689 z"
               style="fill:#eac102;fill-rule:evenodd;stroke:#000000;stroke-width:2.02728939;stroke-linecap:butt;stroke-linejoin:miter;stroke-miterlimit:4;stroke-opacity:1;stroke-dasharray:none" />
          </g>
          <g
             style="stroke:#000000;stroke-width:2.02728939;stroke-opacity:1"
             transform="matrix(-1,0,0,1.0057864,5913.0469,-1346.0782)"
             id="g9016">
            <path
               sodipodi:type="arc"
               style="fill:#e3e4e5;fill-opacity:1;fill-rule:evenodd;stroke:#000000;stroke-width:2.02728939;stroke-linecap:round;stroke-linejoin:round;stroke-miterlimit:4;stroke-opacity:1;stroke-dasharray:none;stroke-dashoffset:0;marker:none;visibility:visible;display:inline;overflow:visible;enable-background:accumulate"
               id="path9018"
               sodipodi:cx="3168.5884"
               sodipodi:cy="1390.3806"
               sodipodi:rx="29.462782"
               sodipodi:ry="29.462782"
               d="m 3198.0512,1390.3806 c 0,16.2719 -13.191,29.4628 -29.4628,29.4628 -16.2719,0 -29.4628,-13.1909 -29.4628,-29.4628 0,-16.2718 13.1909,-29.4628 29.4628,-29.4628 16.2718,0 29.4628,13.191 29.4628,29.4628 z"
               transform="translate(5.7741166,34.306194)" />
            <path
               style="fill:#eac102;fill-rule:evenodd;stroke:#000000;stroke-width:2.02728939;stroke-linecap:butt;stroke-linejoin:miter;stroke-miterlimit:4;stroke-opacity:1;stroke-dasharray:none"
               d="m 3153.8713,1446.2083 c 10.7718,4.0584 21.9748,5.4216 35.2212,4.3839 -0.7469,7.6145 -7.8526,4.5247 -6.7924,11.0304 1.0602,6.5057 -27.3179,4.332 -24.724,-2.5454 2.5939,-6.8773 -5.0767,-5.2953 -3.7048,-12.8689 z"
               id="path9020"
               sodipodi:nodetypes="cczzc" />
          </g>
        </g>
        <g
           style="stroke:#000000;stroke-width:2.03314614;stroke-opacity:1"
           transform="matrix(0.5070596,0,0,0.4766055,-1167.3698,39.474014)"
           id="g9022">
          <g
             id="g9024"
             transform="matrix(-0.9418928,0.3353921,0.3297324,0.9353362,4949.3346,-2266.4513)"
             style="stroke:#000000;stroke-width:2.04176426;stroke-opacity:1">
            <path
               transform="translate(5.7741166,34.306194)"
               d="m 3198.0512,1390.3806 c 0,16.2719 -13.191,29.4628 -29.4628,29.4628 -16.2719,0 -29.4628,-13.1909 -29.4628,-29.4628 0,-16.2718 13.1909,-29.4628 29.4628,-29.4628 16.2718,0 29.4628,13.191 29.4628,29.4628 z"
               sodipodi:ry="29.462782"
               sodipodi:rx="29.462782"
               sodipodi:cy="1390.3806"
               sodipodi:cx="3168.5884"
               id="path9026"
               style="fill:#e3e4e5;fill-opacity:1;fill-rule:evenodd;stroke:#000000;stroke-width:2.04176426;stroke-linecap:round;stroke-linejoin:round;stroke-miterlimit:4;stroke-opacity:1;stroke-dasharray:none;stroke-dashoffset:0;marker:none;visibility:visible;display:inline;overflow:visible;enable-background:accumulate"
               sodipodi:type="arc" />
            <path
               sodipodi:nodetypes="cczzc"
               id="path9028"
               d="m 3153.8713,1446.2083 c 10.7718,4.0584 21.9748,5.4216 35.2212,4.3839 -0.7469,7.6145 -7.8526,4.5247 -6.7924,11.0304 1.0602,6.5057 -27.3179,4.332 -24.724,-2.5454 2.5939,-6.8773 -5.0767,-5.2953 -3.7048,-12.8689 z"
               style="fill:#eac102;fill-rule:evenodd;stroke:#000000;stroke-width:2.04176426;stroke-linecap:butt;stroke-linejoin:miter;stroke-miterlimit:4;stroke-opacity:1;stroke-dasharray:none" />
          </g>
          <g
             style="stroke:#000000;stroke-width:2.04176426;stroke-opacity:1"
             transform="matrix(0.9418928,0.3353921,-0.3297324,0.9353362,964.41171,-2266.4513)"
             id="g9030">
            <path
               sodipodi:type="arc"
               style="fill:#e3e4e5;fill-opacity:1;fill-rule:evenodd;stroke:#000000;stroke-width:2.04176426;stroke-linecap:round;stroke-linejoin:round;stroke-miterlimit:4;stroke-opacity:1;stroke-dasharray:none;stroke-dashoffset:0;marker:none;visibility:visible;display:inline;overflow:visible;enable-background:accumulate"
               id="path9032"
               sodipodi:cx="3168.5884"
               sodipodi:cy="1390.3806"
               sodipodi:rx="29.462782"
               sodipodi:ry="29.462782"
               d="m 3198.0512,1390.3806 c 0,16.2719 -13.191,29.4628 -29.4628,29.4628 -16.2719,0 -29.4628,-13.1909 -29.4628,-29.4628 0,-16.2718 13.1909,-29.4628 29.4628,-29.4628 16.2718,0 29.4628,13.191 29.4628,29.4628 z"
               transform="translate(5.7741166,34.306194)" />
            <path
               style="fill:#eac102;fill-rule:evenodd;stroke:#000000;stroke-width:2.04176426;stroke-linecap:butt;stroke-linejoin:miter;stroke-miterlimit:4;stroke-opacity:1;stroke-dasharray:none"
               d="m 3153.8713,1446.2083 c 10.7718,4.0584 21.9748,5.4216 35.2212,4.3839 -0.7469,7.6145 -7.8526,4.5247 -6.7924,11.0304 1.0602,6.5057 -27.3179,4.332 -24.724,-2.5454 2.5939,-6.8773 -5.0767,-5.2953 -3.7048,-12.8689 z"
               id="path9034"
               sodipodi:nodetypes="cczzc" />
          </g>
        </g>
        <g
           transform="matrix(0.5078191,0,0,0.5157416,-1170.6975,21.780478)"
           id="g9036"
           style="stroke:#000000;stroke-width:1.95302165;stroke-opacity:1;display:inline">
          <path
             style="fill:#eac102;fill-rule:evenodd;stroke:#000000;stroke-width:1.95302165;stroke-linecap:butt;stroke-linejoin:miter;stroke-opacity:1"
             d="m 2841.4937,4.1306535 c 0,0 28.8788,-5.1505141 44.492,18.1740365 15.3413,22.918125 52.7634,20.519073 52.7634,20.519073 l -15.829,51.590814 -102.0091,-38.69311 c -0.7097,0 6.2592,-9.733994 19.3465,-8.793889 13.0873,0.940105 20.5001,17.833079 40.4519,9.966408 L 2841.4937,4.1306535 z"
             id="path9038"
             sodipodi:nodetypes="czccczcc" />
          <path
             sodipodi:nodetypes="czccczcc"
             id="path9040"
             d="m 3076.5136,4.1306535 c 0,0 -28.8788,-5.1505141 -44.492,18.1740365 -15.3413,22.918125 -52.7634,20.519073 -52.7634,20.519073 l 15.829,51.590814 102.0091,-38.69311 c 0.7097,0 -6.2592,-9.733994 -19.3465,-8.793889 -13.0873,0.940105 -20.5001,17.833079 -40.4519,9.966408 l 39.2157,-52.7633325 z"
             style="fill:#eac102;fill-rule:evenodd;stroke:#000000;stroke-width:1.95302165;stroke-linecap:butt;stroke-linejoin:miter;stroke-opacity:1" />
          <path
             sodipodi:nodetypes="ccccccccscscccccccccscscccccccccc"
             style="fill:#eac102;fill-rule:evenodd;stroke:#000000;stroke-width:1.95302165;stroke-linecap:butt;stroke-linejoin:miter;stroke-opacity:1"
             d="m 2958.754,-131.54692 c -17.5495,18.95665 -35.4394,40.263977 -36.4062,68.26567 -14.0703,-14.666102 -28.1486,-4.409478 -42.2188,-1.78125 7.0688,9.514919 -0.2006,35.591803 9.375,53.375 -10.2419,0.805196 -14.866,9.8429331 -21.0938,15.21875 4.1931,15.598209 52.0459,17.805823 60.375,46.3125 -52.1011,-5.195722 -35.6003,-42.8867565 -87.9374,-45.71875 -8.3654,43.101669 24.9649,34.569181 27.5624,58.03125 -15.9132,2.984245 -19.887,-13.089906 -33.75,-12.4375 -19.4297,0.914379 -27.838,22.163956 -40.125,29.4375 18.9407,5.159853 26.0557,23.19622 45.0626,27.5625 10.272,2.35973 15.109,-15.805611 31.1562,-7.625 -15.7384,21.82476 -31.4376,15.41252 -23.4688,46.3125 59.5699,5.25788 35.2243,-35.33363 75.0626,-29.3125 -60.1728,37.02337 -27.1126,51.09338 -42.2188,79.75 30.9985,-12.63825 42.1487,-3.99078 78.875,-30.3125 36.7263,26.32172 47.8766,17.67425 78.875,30.3125 -15.1062,-28.65662 17.954,-42.72663 -42.2188,-79.75 39.8383,-6.02113 15.4928,34.57038 75.0626,29.3125 7.9688,-30.89998 -7.7304,-24.48774 -23.4688,-46.3125 16.0472,-8.180611 20.8842,9.98473 31.1562,7.625 19.0069,-4.36628 26.1217,-22.402647 45.0626,-27.5625 -12.287,-7.273544 -20.6953,-28.523121 -40.125,-29.4375 -13.863,-0.652406 -17.8368,15.421745 -33.75,12.4375 2.5976,-23.462069 35.9278,-14.929581 27.5624,-58.03125 -52.3372,2.8319935 -35.8366,40.523028 -87.9374,45.71875 8.3291,-28.506677 56.1819,-30.714291 60.375,-46.3125 -6.2278,-5.3758169 -10.8519,-14.413554 -21.0938,-15.21875 9.5756,-17.783197 2.3063,-43.860081 9.375,-53.375 -14.0702,-2.628228 -28.1485,-12.884852 -42.2188,1.78125 -0.9668,-28.001693 -18.8566,-49.30902 -36.4062,-68.26567 l -0.25,-0.25 -0.25,0.25 z"
             id="path9042" />
          <path
             id="path9044"
             style="fill:none;stroke:#000000;stroke-width:1.95302165;stroke-linecap:round;stroke-linejoin:miter;stroke-miterlimit:4;stroke-opacity:1;stroke-dasharray:none"
             d="m 2959.4071,53.359306 c -1.8139,-3.26519 0,-157.770886 0,-157.770886 m -9.5108,213.06391 c -4.7015,18.52753 -21.4209,48.18744 -41.0346,58.70657 m 20.5962,-75.341287 c -15.5614,0.78921 -44.3598,16.442077 -55.8772,23.786027 m 53.1562,-30.845833 c -55.011,4.998295 -77.4607,-17.219725 -94.4791,-10.295533 m 96.7572,-5.71627 c 0,0 -13.5066,-3.93962 -29.3456,-8.270611 -10.1782,-2.783118 -16.3408,-15.241719 -22.8384,-22.087656 m 75.034,11.417782 c 0,0 -0.8149,-10.30191 -13.1398,-39.171121 -11.9454,-27.979451 -27.474,-42.90183 -27.474,-42.90183 m 56.8605,140.719762 c 4.7016,18.52753 21.4208,48.18744 41.0346,58.70657 m -20.5961,-75.341287 c 15.5614,0.78921 44.3598,16.442077 55.8771,23.786027 m -53.1561,-30.845833 c 55.011,4.998295 77.4607,-17.219725 94.4791,-10.295533 m -96.7572,-5.71627 c 0,0 13.5066,-3.93962 29.3456,-8.270611 10.1781,-2.783118 16.3408,-15.241719 22.8384,-22.087656 m -75.0342,11.417782 c 0,0 0.815,-10.30191 13.14,-39.171121 11.9454,-27.979451 27.474,-42.90183 27.474,-42.90183" />
          <g
             style="stroke:#000000;stroke-width:1.95302165;stroke-opacity:1"
             id="g9046">
            <path
               sodipodi:type="arc"
               style="fill:#eac102;fill-opacity:1;fill-rule:evenodd;stroke:#000000;stroke-width:1.54186296;stroke-linecap:round;stroke-linejoin:round;stroke-miterlimit:4;stroke-opacity:1;stroke-dasharray:none;stroke-dashoffset:0;marker:none;visibility:visible;display:inline;overflow:visible;enable-background:accumulate"
               id="path9048"
               sodipodi:cx="2962.3679"
               sodipodi:cy="81.516876"
               sodipodi:rx="27.554184"
               sodipodi:ry="27.554184"
               d="m 2989.9221,81.516876 c 0,15.217756 -12.3364,27.554184 -27.5542,27.554184 -15.2177,0 -27.5542,-12.336428 -27.5542,-27.554184 0,-15.217755 12.3365,-27.554184 27.5542,-27.554184 15.2178,0 27.5542,12.336429 27.5542,27.554184 z"
               transform="matrix(1.3114524,0,0,1.2234043,-925.15005,-19.090606)" />
            <path
               transform="matrix(1.0425532,0,0,0.972312,-128.57176,1.3776492)"
               d="m 2989.9221,81.516876 c 0,15.217756 -12.3364,27.554184 -27.5542,27.554184 -15.2177,0 -27.5542,-12.336428 -27.5542,-27.554184 0,-15.217755 12.3365,-27.554184 27.5542,-27.554184 15.2178,0 27.5542,12.336429 27.5542,27.554184 z"
               sodipodi:ry="27.554184"
               sodipodi:rx="27.554184"
               sodipodi:cy="81.516876"
               sodipodi:cx="2962.3679"
               id="path9050"
               style="fill:#e3e4e5;fill-opacity:1;fill-rule:evenodd;stroke:#000000;stroke-width:1.9397918;stroke-linecap:round;stroke-linejoin:round;stroke-miterlimit:4;stroke-opacity:1;stroke-dasharray:none;stroke-dashoffset:0;marker:none;visibility:visible;display:inline;overflow:visible;enable-background:accumulate"
               sodipodi:type="arc" />
          </g>
        </g>
        <path
           style="fill:#eac102;fill-rule:evenodd;stroke:#000000;stroke-width:0.99948817;stroke-linecap:butt;stroke-linejoin:miter;stroke-opacity:1"
           d="m 331.71593,147.85789 c -73.11178,0.72223 -147.06377,0.78956 -218.8668,15.27778 -16.023544,4.78377 -38.931882,7.45507 -44.946764,24.39963 -1.973191,14.1529 16.143775,20.15108 27.460406,24.04067 53.910388,15.30703 110.873998,16.60292 166.731748,18.99586 86.90166,1.64886 174.3634,2.31821 260.62074,-9.11223 23.56504,-4.30574 49.51304,-6.96319 68.89122,-21.46952 11.57079,-10.72067 -1.23707,-25.7111 -14.02814,-28.79445 -43.87951,-15.92551 -91.7386,-17.63443 -138.14779,-20.87685 -35.86755,-1.85142 -71.79747,-2.43737 -107.71462,-2.46089 z"
           id="path9052" />
        <path
           style="fill:#eac102;fill-opacity:1;fill-rule:evenodd;stroke:#000000;stroke-width:0.99948817;stroke-linecap:butt;stroke-linejoin:miter;stroke-opacity:1"
           d="m 331.94142,165.25534 c -39.85012,0 -73.457,0.73417 -101.7816,2.01048 -5.66512,0.25527 -11.13398,0.53957 -16.38515,0.83454 -62.98518,3.54005 -96.7581,9.79824 -114.857442,15.51485 -1.508467,0.47649 -2.938892,0.9365 -4.237538,1.40354 -6.472077,2.33019 -10.452411,4.5611 -12.874042,6.37285 -0.476245,0.35642 -0.886393,0.69874 -1.251083,1.0242 -0.37825,0.33757 -0.694045,0.648 -0.96858,0.94834 -1.618394,1.76982 -1.573955,2.84503 -1.573942,2.84503 l 13.761907,46.99976 44.99861,0 390.33773,0 44.99868,0 13.76184,-46.99976 c 0,0 0.0444,-1.07521 -1.57401,-2.84503 -0.27443,-0.30034 -0.59031,-0.61077 -0.96858,-0.94834 -2.2143,-1.98221 -6.35608,-4.59992 -14.12499,-7.39705 -0.0111,-0.004 -0.0294,0.004 -0.0404,0 -16.88092,-6.07022 -50.81945,-13.08328 -119.05462,-16.91839 -0.0129,-7.3e-4 -0.0275,7.3e-4 -0.0403,0 -5.25113,-0.29497 -10.67995,-0.57927 -16.34486,-0.83454 -28.32554,-1.27633 -61.92919,-2.01048 -101.78161,-2.01048 z"
           id="path9054" />
        <g
           style="stroke:#000000;stroke-width:1.92778337;stroke-opacity:1"
           transform="matrix(0.5347729,0,0,0.5026544,-520.99715,-165.124)"
           id="g9056">
          <path
             transform="matrix(1.3345865,0,0,1.4473316,-589.58751,-320.19715)"
             d="m 1796.3478,707.07074 c 0,12.73882 -10.3269,23.06568 -23.0657,23.06568 -12.7388,0 -23.0657,-10.32686 -23.0657,-23.06568 0,-12.73882 10.3269,-23.06568 23.0657,-23.06568 12.7388,0 23.0657,10.32686 23.0657,23.06568 z"
             sodipodi:ry="23.065676"
             sodipodi:rx="23.065676"
             sodipodi:cy="707.07074"
             sodipodi:cx="1773.2821"
             id="path9058"
             style="fill:#eac102;fill-opacity:1;fill-rule:evenodd;stroke:#000000;stroke-width:1.38707781;stroke-linecap:round;stroke-linejoin:round;stroke-miterlimit:4;stroke-opacity:1;stroke-dasharray:none;stroke-dashoffset:0;marker:none;visibility:visible;display:inline;overflow:visible;enable-background:accumulate"
             sodipodi:type="arc" />
          <path
             sodipodi:type="arc"
             style="fill:#eac102;fill-opacity:1;fill-rule:evenodd;stroke:#000000;stroke-width:1.40297616;stroke-linecap:round;stroke-linejoin:round;stroke-miterlimit:4;stroke-opacity:1;stroke-dasharray:none;stroke-dashoffset:0;marker:none;visibility:visible;display:inline;overflow:visible;enable-background:accumulate"
             id="path9060"
             sodipodi:cx="1773.2821"
             sodipodi:cy="707.07074"
             sodipodi:rx="23.065676"
             sodipodi:ry="23.065676"
             d="m 1796.3478,707.07074 c 0,12.73882 -10.3269,23.06568 -23.0657,23.06568 -12.7388,0 -23.0657,-10.32686 -23.0657,-23.06568 0,-12.73882 10.3269,-23.06568 23.0657,-23.06568 12.7388,0 23.0657,10.32686 23.0657,23.06568 z"
             transform="matrix(1.3045113,0,0,1.4473316,-532.96062,-320.19715)" />
          <path
             transform="matrix(1.1541354,0,0,1.2518797,-265.60797,-181.99885)"
             d="m 1796.3478,707.07074 c 0,12.73882 -10.3269,23.06568 -23.0657,23.06568 -12.7388,0 -23.0657,-10.32686 -23.0657,-23.06568 0,-12.73882 10.3269,-23.06568 23.0657,-23.06568 12.7388,0 23.0657,10.32686 23.0657,23.06568 z"
             sodipodi:ry="23.065676"
             sodipodi:rx="23.065676"
             sodipodi:cy="707.07074"
             sodipodi:cx="1773.2821"
             id="path9062"
             style="fill:#e3e4e5;fill-opacity:1;fill-rule:evenodd;stroke:#000000;stroke-width:1.60379386;stroke-linecap:round;stroke-linejoin:round;stroke-miterlimit:4;stroke-opacity:1;stroke-dasharray:none;stroke-dashoffset:0;marker:none;visibility:visible;display:inline;overflow:visible;enable-background:accumulate"
             sodipodi:type="arc" />
        </g>
        <g
           style="stroke:#000000;stroke-width:1.92778337;stroke-opacity:1"
           id="g9064"
           transform="matrix(-0.5347729,0,0,0.5026544,1184.8798,-165.124)">
          <path
             sodipodi:type="arc"
             style="fill:#eac102;fill-opacity:1;fill-rule:evenodd;stroke:#000000;stroke-width:1.38707781;stroke-linecap:round;stroke-linejoin:round;stroke-miterlimit:4;stroke-opacity:1;stroke-dasharray:none;stroke-dashoffset:0;marker:none;visibility:visible;display:inline;overflow:visible;enable-background:accumulate"
             id="path9066"
             sodipodi:cx="1773.2821"
             sodipodi:cy="707.07074"
             sodipodi:rx="23.065676"
             sodipodi:ry="23.065676"
             d="m 1796.3478,707.07074 c 0,12.73882 -10.3269,23.06568 -23.0657,23.06568 -12.7388,0 -23.0657,-10.32686 -23.0657,-23.06568 0,-12.73882 10.3269,-23.06568 23.0657,-23.06568 12.7388,0 23.0657,10.32686 23.0657,23.06568 z"
             transform="matrix(1.3345865,0,0,1.4473316,-589.58751,-320.19715)" />
          <path
             transform="matrix(1.3045113,0,0,1.4473316,-532.96062,-320.19715)"
             d="m 1796.3478,707.07074 c 0,12.73882 -10.3269,23.06568 -23.0657,23.06568 -12.7388,0 -23.0657,-10.32686 -23.0657,-23.06568 0,-12.73882 10.3269,-23.06568 23.0657,-23.06568 12.7388,0 23.0657,10.32686 23.0657,23.06568 z"
             sodipodi:ry="23.065676"
             sodipodi:rx="23.065676"
             sodipodi:cy="707.07074"
             sodipodi:cx="1773.2821"
             id="path9068"
             style="fill:#eac102;fill-opacity:1;fill-rule:evenodd;stroke:#000000;stroke-width:1.40297616;stroke-linecap:round;stroke-linejoin:round;stroke-miterlimit:4;stroke-opacity:1;stroke-dasharray:none;stroke-dashoffset:0;marker:none;visibility:visible;display:inline;overflow:visible;enable-background:accumulate"
             sodipodi:type="arc" />
          <path
             sodipodi:type="arc"
             style="fill:#e3e4e5;fill-opacity:1;fill-rule:evenodd;stroke:#000000;stroke-width:1.60379386;stroke-linecap:round;stroke-linejoin:round;stroke-miterlimit:4;stroke-opacity:1;stroke-dasharray:none;stroke-dashoffset:0;marker:none;visibility:visible;display:inline;overflow:visible;enable-background:accumulate"
             id="path9070"
             sodipodi:cx="1773.2821"
             sodipodi:cy="707.07074"
             sodipodi:rx="23.065676"
             sodipodi:ry="23.065676"
             d="m 1796.3478,707.07074 c 0,12.73882 -10.3269,23.06568 -23.0657,23.06568 -12.7388,0 -23.0657,-10.32686 -23.0657,-23.06568 0,-12.73882 10.3269,-23.06568 23.0657,-23.06568 12.7388,0 23.0657,10.32686 23.0657,23.06568 z"
             transform="matrix(1.1541354,0,0,1.2518797,-265.60797,-181.99885)" />
        </g>
        <g
           style="stroke:#000000;stroke-width:1.94627595;stroke-opacity:1"
           id="g9072"
           transform="matrix(-0.5231625,0.09418722,0,0.5040921,1166.8084,-340.57562)">
          <path
             style="fill:none;stroke:#000000;stroke-width:1.94627595;stroke-linecap:round;stroke-linejoin:round;stroke-opacity:1"
             d="m 1880.9956,701.45346 50.3965,-34.39748 3.2283,0 -48.0651,34.39748 -5.5597,0 z"
             id="path9074"
             sodipodi:nodetypes="ccccc" />
          <path
             sodipodi:nodetypes="ccccc"
             id="path9076"
             d="m 1880.9956,701.45346 50.3965,34.39748 3.2283,0 -48.0651,-34.39748 -5.5597,0 z"
             style="fill:none;stroke:#000000;stroke-width:1.94627595;stroke-linecap:round;stroke-linejoin:round;stroke-opacity:1" />
          <path
             style="fill:none;stroke:#000000;stroke-width:1.94627595;stroke-linecap:round;stroke-linejoin:round;stroke-miterlimit:4;stroke-opacity:1;stroke-dasharray:none;stroke-dashoffset:0;marker:none;visibility:visible;display:inline;overflow:visible;enable-background:accumulate"
             d="m 1934.694,735.73249 45.2605,-33.39707 -45.1577,-35.10307"
             id="path9078"
             sodipodi:nodetypes="ccc" />
          <g
             style="stroke:#000000;stroke-width:1.94627595;stroke-opacity:1"
             id="g9080"
             transform="translate(2,0)">
            <path
               id="path9082"
               d="m 1897.0477,701.80623 36.1615,26.63599 35.6322,-26.81239 -35.8086,-26.10681 -35.9851,26.28321 z"
               style="fill:#008f4c;fill-rule:evenodd;stroke:#000000;stroke-width:1.94627595;stroke-linecap:round;stroke-linejoin:round;stroke-opacity:1" />
            <path
               style="fill:none;stroke:#000000;stroke-width:1.94627595;stroke-linecap:round;stroke-linejoin:round;stroke-miterlimit:4;stroke-opacity:1;stroke-dasharray:none"
               d="m 1921.3647,701.8897 19.1285,14.02828 18.8485,-14.12119 -18.9418,-13.74958 -19.0352,13.84249 z"
               id="path9084" />
            <path
               sodipodi:nodetypes="cc"
               id="path9086"
               d="m 1933.0328,728.26583 7.4971,-12.3482"
               style="fill:none;stroke:#000000;stroke-width:1.94627595;stroke-linecap:round;stroke-linejoin:round;stroke-miterlimit:4;stroke-opacity:1;stroke-dasharray:none" />
            <path
               sodipodi:nodetypes="cc"
               id="path9088"
               d="m 1968.3123,701.62983 -9.0409,0.13258"
               style="fill:none;stroke:#000000;stroke-width:1.94627595;stroke-linecap:round;stroke-linejoin:round;stroke-miterlimit:4;stroke-opacity:1;stroke-dasharray:none" />
            <path
               id="path9090"
               d="m 1921.3906,701.80623 -23.6373,0"
               style="fill:none;stroke:#000000;stroke-width:1.94627595;stroke-linecap:round;stroke-linejoin:round;stroke-miterlimit:4;stroke-opacity:1;stroke-dasharray:none" />
            <path
               sodipodi:nodetypes="cc"
               id="path9092"
               d="m 1940.4853,688.1802 -7.4525,-12.65718"
               style="fill:none;stroke:#000000;stroke-width:1.94627595;stroke-linecap:round;stroke-linejoin:round;stroke-miterlimit:4;stroke-opacity:1;stroke-dasharray:none" />
          </g>
        </g>
        <g
           style="stroke:#000000;stroke-width:1.94627595;stroke-opacity:1"
           transform="matrix(0.5231625,0.09418722,0,0.5040921,-502.92618,-340.57562)"
           id="g9094">
          <path
             sodipodi:nodetypes="ccccc"
             id="path9057"
             d="m 1880.9956,701.45346 50.3965,-34.39748 3.2283,0 -48.0651,34.39748 -5.5597,0 z"
             style="fill:none;stroke:#000000;stroke-width:1.94627595;stroke-linecap:round;stroke-linejoin:round;stroke-opacity:1" />
          <path
             style="fill:none;stroke:#000000;stroke-width:1.94627595;stroke-linecap:round;stroke-linejoin:round;stroke-opacity:1"
             d="m 1880.9956,701.45346 50.3965,34.39748 3.2283,0 -48.0651,-34.39748 -5.5597,0 z"
             id="path9059"
             sodipodi:nodetypes="ccccc" />
          <path
             sodipodi:nodetypes="ccc"
             id="path9061"
             d="m 1934.694,735.73249 45.2605,-33.39707 -45.1577,-35.10307"
             style="fill:none;stroke:#000000;stroke-width:1.94627595;stroke-linecap:round;stroke-linejoin:round;stroke-miterlimit:4;stroke-opacity:1;stroke-dasharray:none;stroke-dashoffset:0;marker:none;visibility:visible;display:inline;overflow:visible;enable-background:accumulate" />
          <g
             style="stroke:#000000;stroke-width:1.94627595;stroke-opacity:1"
             transform="translate(2,0)"
             id="g9102">
            <path
               style="fill:#008f4c;fill-rule:evenodd;stroke:#000000;stroke-width:1.94627595;stroke-linecap:round;stroke-linejoin:round;stroke-opacity:1"
               d="m 1897.0477,701.80623 36.1615,26.63599 35.6322,-26.81239 -35.8086,-26.10681 -35.9851,26.28321 z"
               id="path9104" />
            <path
               id="path9106"
               d="m 1921.3647,701.8897 19.1285,14.02828 18.8485,-14.12119 -18.9418,-13.74958 -19.0352,13.84249 z"
               style="fill:none;stroke:#000000;stroke-width:1.94627595;stroke-linecap:round;stroke-linejoin:round;stroke-miterlimit:4;stroke-opacity:1;stroke-dasharray:none" />
            <path
               style="fill:none;stroke:#000000;stroke-width:1.94627595;stroke-linecap:round;stroke-linejoin:round;stroke-miterlimit:4;stroke-opacity:1;stroke-dasharray:none"
               d="m 1933.0328,728.26583 7.4971,-12.3482"
               id="path9108"
               sodipodi:nodetypes="cc" />
            <path
               style="fill:none;stroke:#000000;stroke-width:1.94627595;stroke-linecap:round;stroke-linejoin:round;stroke-miterlimit:4;stroke-opacity:1;stroke-dasharray:none"
               d="m 1968.3123,701.62983 -9.0409,0.13258"
               id="path9110"
               sodipodi:nodetypes="cc" />
            <path
               style="fill:none;stroke:#000000;stroke-width:1.94627595;stroke-linecap:round;stroke-linejoin:round;stroke-miterlimit:4;stroke-opacity:1;stroke-dasharray:none"
               d="m 1921.3906,701.80623 -23.6373,0"
               id="path9112" />
            <path
               style="fill:none;stroke:#000000;stroke-width:1.94627595;stroke-linecap:round;stroke-linejoin:round;stroke-miterlimit:4;stroke-opacity:1;stroke-dasharray:none"
               d="m 1940.4853,688.1802 -7.4525,-12.65718"
               id="path9114"
               sodipodi:nodetypes="cc" />
          </g>
        </g>
        <g
           style="stroke:#000000;stroke-width:1.92778337;stroke-opacity:1"
           id="g9116"
           transform="matrix(0.5347729,0,0,0.5026544,-521.24714,-167.017)">
          <rect
             rx="32.551369"
             ry="33.918144"
             y="669.16895"
             x="1531.7725"
             height="67.836288"
             width="127.29893"
             id="rect9118"
             style="fill:#eac102;fill-opacity:1;fill-rule:nonzero;stroke:#000000;stroke-width:1.92778337;stroke-linecap:butt;stroke-linejoin:miter;stroke-miterlimit:4;stroke-opacity:1;stroke-dasharray:none;stroke-dashoffset:0;marker:none;visibility:visible;display:inline;overflow:visible;enable-background:accumulate" />
          <rect
             style="fill:#ed1c24;fill-opacity:1;fill-rule:nonzero;stroke:#000000;stroke-width:1.92778337;stroke-linecap:butt;stroke-linejoin:miter;stroke-miterlimit:4;stroke-opacity:1;stroke-dasharray:none;stroke-dashoffset:0;marker:none;visibility:visible;display:inline;overflow:visible;enable-background:accumulate"
             id="rect9120"
             width="114.54353"
             height="58.579422"
             x="1538.15"
             y="673.79742"
             ry="29.289711"
             rx="29.289711" />
        </g>
        <path
           sodipodi:nodetypes="cccccccccc"
           id="path9122"
           d="m 76.684417,161.37081 -3.486888,7.24438 c 0.844085,0.84276 1.732595,1.66461 2.652359,2.47182 l 2.308062,-8.5973 c -0.383687,-0.50894 -0.966256,-1.20104 -1.473533,-1.1189 z m 510.583993,-0.023 c -0.63113,0.0107 -0.6638,0.0289 -1.7419,1.35321 l 2.69924,8.23732 c 0.69854,-0.59799 1.40418,-1.26664 2.08839,-1.95986 l -3.04573,-7.63067 z"
           style="fill:#eac102;fill-opacity:1;fill-rule:evenodd;stroke:#000000;stroke-width:0.99948817;stroke-linecap:butt;stroke-linejoin:miter;stroke-opacity:1" />
        <g
           style="stroke:#000000;stroke-width:0.7982766;stroke-opacity:1"
           transform="matrix(1.29144,0,0,1.2138759,-162.23568,-467.30779)"
           id="g9124">
          <g
             style="stroke:#000000;stroke-width:2.03314614;stroke-opacity:1"
             id="g9126"
             transform="matrix(0.3926312,0,0,0.3926312,-779.60271,412.54467)">
            <path
               sodipodi:nodetypes="cccccccccccccczcccccccccccccccccccc"
               id="path9128"
               d="m 2485.2329,-95.278002 11.5204,-4.942028 c 34.5626,-5.26509 51.2104,33.927292 54.4278,56.039343 13.2829,-4.462713 30.9666,-9.575597 50.8726,-4.769305 -4.9926,21.104705 -1.2477,24.197661 -9.1412,52.0649203 19.6649,3.8354973 20.2688,10.4215587 25.8338,14.3079167 -23.9998,19.994418 -59.5257,25.64123 -61.2061,50.872595 l 38.5519,-6.756517 c 18.4148,-15.235282 18.2648,-45.166946 55.2444,-45.705846 3.8395,43.71384 -20.9298,30.607323 -30.2056,62.000974 29.2782,2.384653 90.0446,-2.075931 87.8347,7.153959 -27.1591,17.73375 -25.2255,23.33985 -39.3467,32.9877 l -9.1412,0.79488 c -9.2321,-4.17018 -14.6868,-18.917142 -28.6158,-9.93605 -6e-4,-1.7e-4 7.6973,5.72975 29.4106,14.70536 21.0364,8.69576 17.0901,31.79537 17.0901,31.79537 -30.9851,4.78966 -43.3101,-3.59262 -56.8342,-11.12838 36.3917,26.29776 26.4529,43.16019 46.8981,64.38563 l -5.1667,-0.39745 c -41.1731,2.09699 -62.1151,-15.72694 -89.027,-25.03886 3.5052,11.08975 -14.9666,30.07238 -20.2696,41.33399 l -3.9744,0 -23.0517,-54.05213 c -2.8882,7.31176 -7.2802,5.60155 -11.1283,7.15396 l -24.6415,-66.37284 c -16.1827,-5.51333 -13.5976,-17.282619 -14.7053,-27.820949 3.7809,0.466833 3.8421,-1.298209 12.3207,1.987211 l -11.1284,-27.82095 -1.9872,-19.474665 c 4.4616,3.015721 12.7487,0.930828 11.5258,11.525822 3.0197,12.110385 7.5468,21.206061 11.5258,31.397929 l 13.1156,-43.718636 -24.6414,-75.514006 13.9105,-5.56419 c -5.2515,-17.16768 21.4393,-36.616956 -15.8705,-51.494758 z"
               style="fill:#eac102;fill-rule:evenodd;stroke:#000000;stroke-width:2.03314614;stroke-linecap:butt;stroke-linejoin:miter;stroke-opacity:1" />
            <path
               sodipodi:nodetypes="ccccccccczcccccccccccccccccccc"
               id="path9130"
               d="m 2483.4644,-94.739902 c 35.629,-12.751578 57.5044,21.597318 59.3075,50.033913 17.0876,-4.868621 34.2185,-9.218326 52.2163,-3.16462 -10.9925,24.108836 -0.9477,37.543956 -13.1859,55.3808454 21.6129,1.8351032 16.7671,6.6315266 28.4815,11.0761686 -33.123,28.565711 -62.1481,22.563936 -64.3472,53.798536 53.509,-16.48074 32.0256,-29.107568 56.9631,-43.77724 11.4823,-6.977972 25.281,-11.639591 43.2498,-12.131042 3.8936,46.67994 -25.4254,32.156738 -33.2285,61.710085 26.9571,-3.66005 30.5292,-19.007846 46.7522,-21.424805 16.2231,-2.416959 31.3335,15.4117 48.7138,26.171734 -31.1557,12.186462 -34.4677,37.355207 -49.9063,35.169377 -14.2143,-1.73546 -15.9483,-12.71681 -32.9012,-5.10549 15.0232,13.40094 40.8004,11.43544 47.9967,40.61262 -37.2471,12.56255 -63.2578,-16.92633 -100.2129,-17.93284 90.783,25.05274 57.734,52.6732 90.1916,72.78625 -24.8466,-2.76734 -45.1903,4.39454 -91.2465,-22.15234 1.2933,12.65446 -15.4459,22.54159 -23.2072,38.50287 -4.803,-25.18002 -29.5785,-37.66738 -24.7895,-77.00574 -9.4211,1.12768 5.4423,28.68073 -10.0213,29.53645 -13.0655,-11.26704 -14.0072,-26.45597 -14.2408,-36.92057 -7.5599,-9.14223 2.8475,16.5954 -29.009,-24.26208 -2.8173,-4.24066 1.7355,-30.704371 5.2743,-32.70107 2.6004,6.578616 5.0582,13.442399 11.0762,13.185915 -2.1017,-9.733657 -4.3178,-19.391031 -10.5487,-26.371831 -3.3052,-2.083416 -2.7557,-20.071228 -1.0549,-31.646197 11.3242,13.8996 3.3731,35.375083 22.1523,39.03031 -1.1187,-35.233587 -31.1642,-24.405061 -14.2408,-58.018028 -2.2855,-18.1086573 -2.7978,-75.551583 9.4939,-53.271099 -1.0632,-30.299506 12.9476,-51.707089 -9.7285,-61.110082 z"
               style="fill:#eac102;fill-rule:evenodd;stroke:#000000;stroke-width:2.03314614;stroke-linecap:round;stroke-linejoin:round;stroke-opacity:1" />
            <path
               d="m 2515.2425,74.654516 c -15.6283,-89.020693 10.8016,-115.663783 -7.0059,-158.6096 m 58.4448,70.377442 c -33.8269,29.410719 -41.8938,58.821437 -44.5136,88.232156 m 32.5903,27.820946 c 43.1818,2.9331 63.3268,-17.898067 108.1043,-19.077219 m -111.2838,7.948843 c 34.8637,-4.957398 43.8556,-24.440438 54.847,-39.744214 m -50.0777,59.61632 c 28.6582,0.68109 53.223,8.82558 65.9754,18.28234 m -78.6936,5.56419 c 28.6894,32.74714 46.9066,30.58693 69.9498,44.51352 m -75.514,-45.3084 c -4.2515,25.57808 5.8171,42.19156 8.7437,54.84701 m -31.7953,-59.61632 c -3.1433,4.54063 -5.335,10.03275 -6.3591,16.69257 m -3.9744,-32.59026 c -13.0953,5.14741 -11.4939,-1.48525 -26.2312,1.58977 m 26.2312,-21.461873 c -5.2992,-0.841044 -10.5985,-3.465189 -15.8977,-12.718149 m 21.4619,-3.179537 c -3.9178,-22.834193 -8.4205,-46.545832 -20.667,-81.8730813"
               style="fill:none;stroke:#000000;stroke-width:2.03314614;stroke-linecap:round;stroke-linejoin:round;stroke-miterlimit:4;stroke-opacity:1;stroke-dasharray:none"
               id="path9132"
               sodipodi:nodetypes="cccccccccccccccccccccc" />
            <g
               style="stroke:#000000;stroke-width:2.13721728;stroke-opacity:1"
               transform="matrix(-0.748008,0.507597,0.4813713,0.8831979,3520.4688,-1419.3176)"
               id="g9134">
              <path
                 transform="matrix(1.3345865,0,0,1.4473316,-589.58751,-320.19715)"
                 d="m 1796.3478,707.07074 c 0,12.73882 -10.3269,23.06568 -23.0657,23.06568 -12.7388,0 -23.0657,-10.32686 -23.0657,-23.06568 0,-12.73882 10.3269,-23.06568 23.0657,-23.06568 12.7388,0 23.0657,10.32686 23.0657,23.06568 z"
                 sodipodi:ry="23.065676"
                 sodipodi:rx="23.065676"
                 sodipodi:cy="707.07074"
                 sodipodi:cx="1773.2821"
                 id="path9136"
                 style="fill:#eac102;fill-opacity:1;fill-rule:evenodd;stroke:#000000;stroke-width:1.53776968;stroke-linecap:round;stroke-linejoin:round;stroke-miterlimit:4;stroke-opacity:1;stroke-dasharray:none;stroke-dashoffset:0;marker:none;visibility:visible;display:inline;overflow:visible;enable-background:accumulate"
                 sodipodi:type="arc" />
              <path
                 sodipodi:type="arc"
                 style="fill:#eac102;fill-opacity:1;fill-rule:evenodd;stroke:#000000;stroke-width:1.55539513;stroke-linecap:round;stroke-linejoin:round;stroke-miterlimit:4;stroke-opacity:1;stroke-dasharray:none;stroke-dashoffset:0;marker:none;visibility:visible;display:inline;overflow:visible;enable-background:accumulate"
                 id="path9138"
                 sodipodi:cx="1773.2821"
                 sodipodi:cy="707.07074"
                 sodipodi:rx="23.065676"
                 sodipodi:ry="23.065676"
                 d="m 1796.3478,707.07074 c 0,12.73882 -10.3269,23.06568 -23.0657,23.06568 -12.7388,0 -23.0657,-10.32686 -23.0657,-23.06568 0,-12.73882 10.3269,-23.06568 23.0657,-23.06568 12.7388,0 23.0657,10.32686 23.0657,23.06568 z"
                 transform="matrix(1.3045113,0,0,1.4473316,-532.96062,-320.19715)" />
              <path
                 transform="matrix(1.1541354,0,0,1.2518797,-265.60797,-181.99885)"
                 d="m 1796.3478,707.07074 c 0,12.73882 -10.3269,23.06568 -23.0657,23.06568 -12.7388,0 -23.0657,-10.32686 -23.0657,-23.06568 0,-12.73882 10.3269,-23.06568 23.0657,-23.06568 12.7388,0 23.0657,10.32686 23.0657,23.06568 z"
                 sodipodi:ry="23.065676"
                 sodipodi:rx="23.065676"
                 sodipodi:cy="707.07074"
                 sodipodi:cx="1773.2821"
                 id="path9140"
                 style="fill:#e3e4e5;fill-opacity:1;fill-rule:evenodd;stroke:#000000;stroke-width:1.77802968;stroke-linecap:round;stroke-linejoin:round;stroke-miterlimit:4;stroke-opacity:1;stroke-dasharray:none;stroke-dashoffset:0;marker:none;visibility:visible;display:inline;overflow:visible;enable-background:accumulate"
                 sodipodi:type="arc" />
            </g>
          </g>
          <g
             style="stroke:#000000;stroke-width:2.03314614;stroke-opacity:1"
             transform="matrix(-0.3926312,0,0,0.3926312,1544.9142,412.54467)"
             id="g9142">
            <path
               style="fill:#eac102;fill-rule:evenodd;stroke:#000000;stroke-width:2.03314614;stroke-linecap:butt;stroke-linejoin:miter;stroke-opacity:1"
               d="m 2485.2329,-95.278002 11.5204,-4.942028 c 34.5626,-5.26509 51.2104,33.927292 54.4278,56.039343 13.2829,-4.462713 30.9666,-9.575597 50.8726,-4.769305 -4.9926,21.104705 -1.2477,24.197661 -9.1412,52.0649203 19.6649,3.8354973 20.2688,10.4215587 25.8338,14.3079167 -23.9998,19.994418 -59.5257,25.64123 -61.2061,50.872595 l 38.5519,-6.756517 c 18.4148,-15.235282 18.2648,-45.166946 55.2444,-45.705846 3.8395,43.71384 -20.9298,30.607323 -30.2056,62.000974 29.2782,2.384653 90.0446,-2.075931 87.8347,7.153959 -27.1591,17.73375 -25.2255,23.33985 -39.3467,32.9877 l -9.1412,0.79488 c -9.2321,-4.17018 -14.6868,-18.917142 -28.6158,-9.93605 -6e-4,-1.7e-4 7.6973,5.72975 29.4106,14.70536 21.0364,8.69576 17.0901,31.79537 17.0901,31.79537 -30.9851,4.78966 -43.3101,-3.59262 -56.8342,-11.12838 36.3917,26.29776 26.4529,43.16019 46.8981,64.38563 l -5.1667,-0.39745 c -41.1731,2.09699 -62.1151,-15.72694 -89.027,-25.03886 3.5052,11.08975 -14.9666,30.07238 -20.2696,41.33399 l -3.9744,0 -23.0517,-54.05213 c -2.8882,7.31176 -7.2802,5.60155 -11.1283,7.15396 l -24.6415,-66.37284 c -16.1827,-5.51333 -13.5976,-17.282619 -14.7053,-27.820949 3.7809,0.466833 3.8421,-1.298209 12.3207,1.987211 l -11.1284,-27.82095 -1.9872,-19.474665 c 4.4616,3.015721 12.7487,0.930828 11.5258,11.525822 3.0197,12.110385 7.5468,21.206061 11.5258,31.397929 l 13.1156,-43.718636 -24.6414,-75.514006 13.9105,-5.56419 c -5.2515,-17.16768 21.4393,-36.616956 -15.8705,-51.494758 z"
               id="path9144"
               sodipodi:nodetypes="cccccccccccccczcccccccccccccccccccc" />
            <path
               style="fill:#eac102;fill-rule:evenodd;stroke:#000000;stroke-width:2.03314614;stroke-linecap:round;stroke-linejoin:round;stroke-opacity:1"
               d="m 2483.4644,-94.739902 c 35.629,-12.751578 57.5044,21.597318 59.3075,50.033913 17.0876,-4.868621 34.2185,-9.218326 52.2163,-3.16462 -10.9925,24.108836 -0.9477,37.543956 -13.1859,55.3808454 21.6129,1.8351032 16.7671,6.6315266 28.4815,11.0761686 -33.123,28.565711 -62.1481,22.563936 -64.3472,53.798536 53.509,-16.48074 32.0256,-29.107568 56.9631,-43.77724 11.4823,-6.977972 25.281,-11.639591 43.2498,-12.131042 3.8936,46.67994 -25.4254,32.156738 -33.2285,61.710085 26.9571,-3.66005 30.5292,-19.007846 46.7522,-21.424805 16.2231,-2.416959 31.3335,15.4117 48.7138,26.171734 -31.1557,12.186462 -34.4677,37.355207 -49.9063,35.169377 -14.2143,-1.73546 -15.9483,-12.71681 -32.9012,-5.10549 15.0232,13.40094 40.8004,11.43544 47.9967,40.61262 -37.2471,12.56255 -63.2578,-16.92633 -100.2129,-17.93284 90.783,25.05274 57.734,52.6732 90.1916,72.78625 -24.8466,-2.76734 -45.1903,4.39454 -91.2465,-22.15234 1.2933,12.65446 -15.4459,22.54159 -23.2072,38.50287 -4.803,-25.18002 -29.5785,-37.66738 -24.7895,-77.00574 -9.4211,1.12768 5.4423,28.68073 -10.0213,29.53645 -13.0655,-11.26704 -14.0072,-26.45597 -14.2408,-36.92057 -7.5599,-9.14223 2.8475,16.5954 -29.009,-24.26208 -2.8173,-4.24066 1.7355,-30.704371 5.2743,-32.70107 2.6004,6.578616 5.0582,13.442399 11.0762,13.185915 -2.1017,-9.733657 -4.3178,-19.391031 -10.5487,-26.371831 -3.3052,-2.083416 -2.7557,-20.071228 -1.0549,-31.646197 11.3242,13.8996 3.3731,35.375083 22.1523,39.03031 -1.1187,-35.233587 -31.1642,-24.405061 -14.2408,-58.018028 -2.2855,-18.1086573 -2.7978,-75.551583 9.4939,-53.271099 -1.0632,-30.299506 12.9476,-51.707089 -9.7285,-61.110082 z"
               id="path9146"
               sodipodi:nodetypes="ccccccccczcccccccccccccccccccc" />
            <path
               sodipodi:nodetypes="cccccccccccccccccccccc"
               id="path9148"
               style="fill:none;stroke:#000000;stroke-width:2.03314614;stroke-linecap:round;stroke-linejoin:round;stroke-miterlimit:4;stroke-opacity:1;stroke-dasharray:none"
               d="m 2515.2425,74.654516 c -15.6283,-89.020693 10.8016,-115.663783 -7.0059,-158.6096 m 58.4448,70.377442 c -33.8269,29.410719 -41.8938,58.821437 -44.5136,88.232156 m 32.5903,27.820946 c 43.1818,2.9331 63.3268,-17.898067 108.1043,-19.077219 m -111.2838,7.948843 c 34.8637,-4.957398 43.8556,-24.440438 54.847,-39.744214 m -50.0777,59.61632 c 28.6582,0.68109 53.223,8.82558 65.9754,18.28234 m -78.6936,5.56419 c 28.6894,32.74714 46.9066,30.58693 69.9498,44.51352 m -75.514,-45.3084 c -4.2515,25.57808 5.8171,42.19156 8.7437,54.84701 m -31.7953,-59.61632 c -3.1433,4.54063 -5.335,10.03275 -6.3591,16.69257 m -3.9744,-32.59026 c -13.0953,5.14741 -11.4939,-1.48525 -26.2312,1.58977 m 26.2312,-21.461873 c -5.2992,-0.841044 -10.5985,-3.465189 -15.8977,-12.718149 m 21.4619,-3.179537 c -3.9178,-22.834193 -8.4205,-46.545832 -20.667,-81.8730813" />
            <g
               style="stroke:#000000;stroke-width:2.13721728;stroke-opacity:1"
               id="g9150"
               transform="matrix(-0.748008,0.507597,0.4813713,0.8831979,3520.4688,-1419.3176)">
              <path
                 sodipodi:type="arc"
                 style="fill:#eac102;fill-opacity:1;fill-rule:evenodd;stroke:#000000;stroke-width:1.53776968;stroke-linecap:round;stroke-linejoin:round;stroke-miterlimit:4;stroke-opacity:1;stroke-dasharray:none;stroke-dashoffset:0;marker:none;visibility:visible;display:inline;overflow:visible;enable-background:accumulate"
                 id="path9152"
                 sodipodi:cx="1773.2821"
                 sodipodi:cy="707.07074"
                 sodipodi:rx="23.065676"
                 sodipodi:ry="23.065676"
                 d="m 1796.3478,707.07074 c 0,12.73882 -10.3269,23.06568 -23.0657,23.06568 -12.7388,0 -23.0657,-10.32686 -23.0657,-23.06568 0,-12.73882 10.3269,-23.06568 23.0657,-23.06568 12.7388,0 23.0657,10.32686 23.0657,23.06568 z"
                 transform="matrix(1.3345865,0,0,1.4473316,-589.58751,-320.19715)" />
              <path
                 transform="matrix(1.3045113,0,0,1.4473316,-532.96062,-320.19715)"
                 d="m 1796.3478,707.07074 c 0,12.73882 -10.3269,23.06568 -23.0657,23.06568 -12.7388,0 -23.0657,-10.32686 -23.0657,-23.06568 0,-12.73882 10.3269,-23.06568 23.0657,-23.06568 12.7388,0 23.0657,10.32686 23.0657,23.06568 z"
                 sodipodi:ry="23.065676"
                 sodipodi:rx="23.065676"
                 sodipodi:cy="707.07074"
                 sodipodi:cx="1773.2821"
                 id="path9154"
                 style="fill:#eac102;fill-opacity:1;fill-rule:evenodd;stroke:#000000;stroke-width:1.55539513;stroke-linecap:round;stroke-linejoin:round;stroke-miterlimit:4;stroke-opacity:1;stroke-dasharray:none;stroke-dashoffset:0;marker:none;visibility:visible;display:inline;overflow:visible;enable-background:accumulate"
                 sodipodi:type="arc" />
              <path
                 sodipodi:type="arc"
                 style="fill:#e3e4e5;fill-opacity:1;fill-rule:evenodd;stroke:#000000;stroke-width:1.77802968;stroke-linecap:round;stroke-linejoin:round;stroke-miterlimit:4;stroke-opacity:1;stroke-dasharray:none;stroke-dashoffset:0;marker:none;visibility:visible;display:inline;overflow:visible;enable-background:accumulate"
                 id="path9156"
                 sodipodi:cx="1773.2821"
                 sodipodi:cy="707.07074"
                 sodipodi:rx="23.065676"
                 sodipodi:ry="23.065676"
                 d="m 1796.3478,707.07074 c 0,12.73882 -10.3269,23.06568 -23.0657,23.06568 -12.7388,0 -23.0657,-10.32686 -23.0657,-23.06568 0,-12.73882 10.3269,-23.06568 23.0657,-23.06568 12.7388,0 23.0657,10.32686 23.0657,23.06568 z"
                 transform="matrix(1.1541354,0,0,1.2518797,-265.60797,-181.99885)" />
            </g>
          </g>
        </g>
        <path
           sodipodi:nodetypes="cc"
           id="path9158"
           d="m 217.39313,96.850133 c 3.83868,0.413874 8.38803,0.06472 12.03971,-1.250619"
           style="fill:none;stroke:#000000;stroke-width:0.99948817;stroke-linecap:butt;stroke-linejoin:miter;stroke-miterlimit:4;stroke-opacity:1;stroke-dasharray:none" />
        <path
           style="fill:none;stroke:#000000;stroke-width:0.99948817;stroke-linecap:butt;stroke-linejoin:miter;stroke-miterlimit:4;stroke-opacity:1;stroke-dasharray:none"
           d="m 446.64699,96.850133 c -3.8388,0.413874 -8.38816,0.06472 -12.03984,-1.250619"
           id="path9160"
           sodipodi:nodetypes="cc" />
        <path
           sodipodi:nodetypes="cc"
           id="path9162"
           d="m 597.49842,117.96488 c -3.74569,-0.89131 -7.86836,-2.73282 -10.7874,-5.17891"
           style="fill:none;stroke:#000000;stroke-width:0.99948817;stroke-linecap:butt;stroke-linejoin:miter;stroke-miterlimit:4;stroke-opacity:1;stroke-dasharray:none" />
        <path
           style="fill:none;stroke:#000000;stroke-width:0.99948817;stroke-linecap:butt;stroke-linejoin:miter;stroke-miterlimit:4;stroke-opacity:1;stroke-dasharray:none"
           d="m 66.251389,117.96488 c 3.745693,-0.89131 7.868486,-2.73282 10.787399,-5.17891"
           id="path9164"
           sodipodi:nodetypes="cc" />
        <g
           style="stroke:#000000;stroke-width:0.7982766;stroke-opacity:1"
           id="g9166"
           transform="matrix(1.29144,0,0,1.2138759,-993.72282,-576.82148)">
          <g
             style="stroke:#000000;stroke-width:0.7982766;stroke-opacity:1"
             id="g9168">
            <g
               style="stroke:#000000;stroke-width:1.6960932;stroke-opacity:1"
               id="g9170"
               transform="matrix(-0.4483888,0.1430547,0.1430547,0.4483888,1663.1061,44.924678)">
              <path
                 style="fill:#ed1c24;fill-opacity:1;fill-rule:nonzero;stroke:#000000;stroke-width:1.6960932;stroke-linecap:butt;stroke-linejoin:miter;stroke-miterlimit:4;stroke-opacity:1;stroke-dasharray:none;stroke-dashoffset:0;marker:none;visibility:visible;display:inline;overflow:visible;enable-background:accumulate"
                 d="m 2069.0625,730.6875 c 0.2238,0.008 0.4309,0.0937 0.6563,0.0937 12.7586,0 23.0938,-12.76605 23.0937,-28.5 0,-15.73395 -10.3352,-28.49999 -23.0937,-28.5 -0.2254,0 -0.4325,0.0858 -0.6563,0.0937 l 0,56.8125 z"
                 id="path9172" />
              <path
                 style="fill:#eac102;fill-opacity:1;fill-rule:nonzero;stroke:#000000;stroke-width:1.6960932;stroke-linecap:butt;stroke-linejoin:miter;stroke-miterlimit:4;stroke-opacity:1;stroke-dashoffset:0;marker:none;visibility:visible;display:inline;overflow:visible;enable-background:accumulate"
                 d="m 2066.2861,668.73151 6.9503,0 0,66.52937 -6.9503,0 c -2.4585,-25.68971 -2.8624,-50.12503 0,-66.52937 z"
                 id="path9174"
                 sodipodi:nodetypes="ccccc" />
            </g>
            <g
               style="stroke:#000000;stroke-width:1.69609344;stroke-opacity:1"
               id="g9176"
               transform="matrix(-0.4546188,0.1218147,0.1218147,0.4546188,1690.3983,77.273629)">
              <path
                 style="fill:#eac102;fill-opacity:1;fill-rule:evenodd;stroke:#000000;stroke-width:1.69609344;stroke-linecap:round;stroke-linejoin:round;stroke-miterlimit:4;stroke-opacity:1;stroke-dasharray:none;stroke-dashoffset:0;marker:none;visibility:visible;display:inline;overflow:visible;enable-background:accumulate"
                 d="m 2030.1562,670.59375 c -6.0098,1.75489 -10.6875,15.38298 -10.6874,31.90625 0,16.52208 4.6782,30.11853 10.6874,31.875 l 0.25,0.0625 c 0.3519,0.083 0.7026,0.125 1.0626,0.125 l 10.8437,-0.0235 0,-18.35151 c 0.7383,-4.16079 1.1562,-8.7794 1.1563,-13.6875 0,-4.9081 -0.418,-9.55795 -1.1563,-13.71875 l 0,-18.17856 -12.1563,-0.009 z"
                 id="path9178"
                 sodipodi:nodetypes="cscccccsccc" />
              <path
                 sodipodi:type="arc"
                 style="fill:#eac102;fill-opacity:1;fill-rule:evenodd;stroke:#000000;stroke-width:1.20932317;stroke-linecap:round;stroke-linejoin:round;stroke-miterlimit:4;stroke-opacity:1;stroke-dasharray:none;stroke-dashoffset:0;marker:none;visibility:visible;display:inline;overflow:visible;enable-background:accumulate"
                 id="path9180"
                 sodipodi:cx="2042.3096"
                 sodipodi:cy="702.48627"
                 sodipodi:rx="6.0690784"
                 sodipodi:ry="32.088638"
                 d="m 2048.3786,702.48627 c 0,17.72206 -2.7172,32.08864 -6.069,32.08864 -3.3519,0 -6.0691,-14.36658 -6.0691,-32.08864 0,-17.72207 2.7172,-32.08864 6.0691,-32.08864 3.3518,0 6.069,14.36657 6.069,32.08864 z"
                 transform="matrix(1.9787234,0,0,0.9940993,-1999.3727,4.3345166)" />
              <path
                 style="fill:#e3e4e5;fill-opacity:1;fill-rule:evenodd;stroke:#000000;stroke-width:1.69609344;stroke-linecap:round;stroke-linejoin:round;stroke-miterlimit:4;stroke-opacity:1;stroke-dashoffset:0;marker:none;visibility:visible;display:inline;overflow:visible;enable-background:accumulate"
                 d="m 2042.9551,674.40063 c 25.1525,7.78075 23.5578,49.66352 0,57.97907 -16.3463,-3.47198 -14.0669,-57.71871 0,-57.97907 z"
                 id="path9182"
                 sodipodi:nodetypes="ccc" />
            </g>
          </g>
          <g
             style="stroke:#000000;stroke-width:0.7982766;stroke-opacity:1"
             transform="matrix(-1,0,0,1,2053.0014,0)"
             id="g9184">
            <g
               style="stroke:#000000;stroke-width:1.6960932;stroke-opacity:1"
               transform="matrix(-0.4483888,0.1430547,0.1430547,0.4483888,1663.1061,44.924678)"
               id="g9186">
              <path
                 id="path9188"
                 d="m 2069.0625,730.6875 c 0.2238,0.008 0.4309,0.0937 0.6563,0.0937 12.7586,0 23.0938,-12.76605 23.0937,-28.5 0,-15.73395 -10.3352,-28.49999 -23.0937,-28.5 -0.2254,0 -0.4325,0.0858 -0.6563,0.0937 l 0,56.8125 z"
                 style="fill:#ed1c24;fill-opacity:1;fill-rule:nonzero;stroke:#000000;stroke-width:1.6960932;stroke-linecap:butt;stroke-linejoin:miter;stroke-miterlimit:4;stroke-opacity:1;stroke-dasharray:none;stroke-dashoffset:0;marker:none;visibility:visible;display:inline;overflow:visible;enable-background:accumulate" />
              <path
                 sodipodi:nodetypes="ccccc"
                 id="path9190"
                 d="m 2066.2861,668.73151 6.9503,0 0,66.52937 -6.9503,0 c -2.4585,-25.68971 -2.8624,-50.12503 0,-66.52937 z"
                 style="fill:#eac102;fill-opacity:1;fill-rule:nonzero;stroke:#000000;stroke-width:1.6960932;stroke-linecap:butt;stroke-linejoin:miter;stroke-miterlimit:4;stroke-opacity:1;stroke-dashoffset:0;marker:none;visibility:visible;display:inline;overflow:visible;enable-background:accumulate" />
            </g>
            <g
               style="stroke:#000000;stroke-width:1.69609344;stroke-opacity:1"
               transform="matrix(-0.4546188,0.1218147,0.1218147,0.4546188,1690.3983,77.273629)"
               id="g9192">
              <path
                 sodipodi:nodetypes="cscccccsccc"
                 id="path9194"
                 d="m 2030.1562,670.59375 c -6.0098,1.75489 -10.6875,15.38298 -10.6874,31.90625 0,16.52208 4.6782,30.11853 10.6874,31.875 l 0.25,0.0625 c 0.3519,0.083 0.7026,0.125 1.0626,0.125 l 10.8437,-0.0235 0,-18.35151 c 0.7383,-4.16079 1.1562,-8.7794 1.1563,-13.6875 0,-4.9081 -0.418,-9.55795 -1.1563,-13.71875 l 0,-18.17856 -12.1563,-0.009 z"
                 style="fill:#eac102;fill-opacity:1;fill-rule:evenodd;stroke:#000000;stroke-width:1.69609344;stroke-linecap:round;stroke-linejoin:round;stroke-miterlimit:4;stroke-opacity:1;stroke-dasharray:none;stroke-dashoffset:0;marker:none;visibility:visible;display:inline;overflow:visible;enable-background:accumulate" />
              <path
                 transform="matrix(1.9787234,0,0,0.9940993,-1999.3727,4.3345166)"
                 d="m 2048.3786,702.48627 c 0,17.72206 -2.7172,32.08864 -6.069,32.08864 -3.3519,0 -6.0691,-14.36658 -6.0691,-32.08864 0,-17.72207 2.7172,-32.08864 6.0691,-32.08864 3.3518,0 6.069,14.36657 6.069,32.08864 z"
                 sodipodi:ry="32.088638"
                 sodipodi:rx="6.0690784"
                 sodipodi:cy="702.48627"
                 sodipodi:cx="2042.3096"
                 id="path9196"
                 style="fill:#eac102;fill-opacity:1;fill-rule:evenodd;stroke:#000000;stroke-width:1.20932317;stroke-linecap:round;stroke-linejoin:round;stroke-miterlimit:4;stroke-opacity:1;stroke-dasharray:none;stroke-dashoffset:0;marker:none;visibility:visible;display:inline;overflow:visible;enable-background:accumulate"
                 sodipodi:type="arc" />
              <path
                 sodipodi:nodetypes="ccc"
                 id="path9198"
                 d="m 2042.9551,674.40063 c 25.1525,7.78075 23.5578,49.66352 0,57.97907 -16.3463,-3.47198 -14.0669,-57.71871 0,-57.97907 z"
                 style="fill:#e3e4e5;fill-opacity:1;fill-rule:evenodd;stroke:#000000;stroke-width:1.69609344;stroke-linecap:round;stroke-linejoin:round;stroke-miterlimit:4;stroke-opacity:1;stroke-dashoffset:0;marker:none;visibility:visible;display:inline;overflow:visible;enable-background:accumulate" />
            </g>
          </g>
        </g>
        <g
           id="g4145"
           transform="matrix(1.2909653,0,0,1.2936149,779.98287,-568.00929)">
          <path
             style="fill:#eac102;fill-rule:evenodd;stroke:#000000;stroke-width:1px;stroke-linecap:butt;stroke-linejoin:miter;stroke-opacity:1;display:inline"
             d="m -518.58363,630.11702 c 0,0 37.06156,-17.86783 171.52462,-17.86783 134.01755,0 171.52453,17.86783 171.52453,17.86783 0,0 -31.34738,17.86784 -171.52453,17.86784 -140.62294,0 -171.52462,-17.86784 -171.52462,-17.86784 z"
             id="path4069"
             sodipodi:nodetypes="czczc" />
          <path
             id="path4071"
             style="font-size:12px;fill:none;stroke:#000000;stroke-width:0.52008164;display:inline"
             d="m -390.71656,650.83781 0,-41.34063" />
          <path
             id="path4073"
             style="font-size:12px;fill:none;stroke:#000000;stroke-width:0.76567769;display:inline"
             d="m -398.59848,650.83781 0,-41.34063" />
          <path
             id="path4075"
             style="font-size:12px;fill:none;stroke:#000000;stroke-width:1.02572083;display:inline"
             d="m -406.03893,650.83781 0,-41.34063" />
          <path
             id="path4077"
             style="font-size:12px;fill:none;stroke:#000000;stroke-width:1.28576362;display:inline"
             d="m -413.41488,650.83781 0,-41.34063" />
          <path
             id="path4079"
             style="font-size:12px;fill:none;stroke:#000000;stroke-width:1.54580235;display:inline"
             d="m -419.98718,650.83781 0,-41.34063" />
          <path
             id="path4081"
             style="font-size:12px;fill:none;stroke:#000000;stroke-width:1.80584526;display:inline"
             d="m -432.52176,648.60884 -0.17363,-37.6268 m 6.11601,38.12181 0,-39.3576" />
          <path
             id="path4083"
             style="font-size:12px;fill:none;stroke:#000000;stroke-width:2.05144167;display:inline"
             d="m -444.09418,646.91693 0,-34.66675 m 5.86312,35.65666 -0.17363,-36.89245" />
          <path
             id="path4085"
             style="font-size:12px;fill:none;stroke:#000000;stroke-width:2.31148434;display:inline"
             d="m -459.61976,644.93711 0,-30.45797 m 5.09412,30.95293 0,-31.9429 m 5.24803,32.93281 0,-33.18189" />
          <path
             id="path4087"
             style="font-size:12px;fill:none;stroke:#000000;stroke-width:2.57152724;display:inline"
             d="m -465.06124,644.68803 0,-29.46485" />
          <path
             id="path4089"
             style="font-size:12px;fill:none;stroke:#000000;stroke-width:2.8315661;display:inline"
             d="m -470.13555,643.2031 0,-27.48496" />
          <path
             id="path4091"
             style="font-size:12px;fill:none;stroke:#000000;stroke-width:3.091609;display:inline"
             d="m -475.57694,642.45901 0,-25.50509" />
          <path
             id="path4093"
             style="font-size:12px;fill:none;stroke:#000000;stroke-width:3.33720565;display:inline"
             d="m -486.71774,640.23331 -0.1737,-20.30632 m 5.88288,21.2963 0,-22.78123" />
          <path
             id="path4095"
             style="font-size:12px;fill:none;stroke:#000000;stroke-width:3.52501416;display:inline"
             d="m -492.42704,638.49929 0,-17.83154" />
          <path
             id="path4097"
             style="font-size:12px;fill:none;stroke:#000000;stroke-width:3.78505349;display:inline"
             d="m -497.65516,637.05327 0,-14.84891" />
          <path
             id="path4099"
             style="font-size:12px;fill:none;stroke:#000000;stroke-width:4.03064871;display:inline"
             d="m -503.36446,635.07345 0,-11.63003" />
          <path
             id="path4101"
             style="font-size:12px;fill:none;stroke:#000000;stroke-width:4.27626181;display:inline"
             d="m -509.23246,634.08354 0,-8.66024" />
          <path
             id="path4103"
             style="font-size:12px;fill:none;stroke:#000000;stroke-width:5.04192257;display:inline"
             d="m -515.44308,632.1056 0,-4.20853" />
          <path
             id="path4105"
             style="font-size:12px;fill:none;stroke:#000000;stroke-width:0.26004165;display:inline"
             d="m -359.35776,648.60884 0,-37.87262 m -13.35298,39.11167 0.17354,-40.10164 m -9.90568,40.59659 0,-40.84566" />
          <path
             d="m -303.40138,650.83781 0,-41.34063"
             style="font-size:12px;fill:none;stroke:#000000;stroke-width:0.52008164;display:inline"
             id="path4107" />
          <path
             d="m -295.51956,650.83781 0,-41.34063"
             style="font-size:12px;fill:none;stroke:#000000;stroke-width:0.76567769;display:inline"
             id="path4109" />
          <path
             d="m -288.07911,650.83781 0,-41.34063"
             style="font-size:12px;fill:none;stroke:#000000;stroke-width:1.02572083;display:inline"
             id="path4111" />
          <path
             d="m -280.70316,650.83781 0,-41.34063"
             style="font-size:12px;fill:none;stroke:#000000;stroke-width:1.28576362;display:inline"
             id="path4113" />
          <path
             d="m -274.13086,650.83781 0,-41.34063"
             style="font-size:12px;fill:none;stroke:#000000;stroke-width:1.54580235;display:inline"
             id="path4115" />
          <path
             d="m -261.59619,648.60884 0.17363,-37.6268 m -6.1161,38.12181 0,-39.3576"
             style="font-size:12px;fill:none;stroke:#000000;stroke-width:1.80584526;display:inline"
             id="path4117" />
          <path
             d="m -250.02386,646.91693 0,-34.66675 m -5.86303,35.65666 0.17354,-36.89245"
             style="font-size:12px;fill:none;stroke:#000000;stroke-width:2.05144167;display:inline"
             id="path4119" />
          <path
             d="m -234.49818,644.93711 0,-30.45797 m -5.09422,30.95293 0,-31.9429 m -5.24803,32.93281 0,-33.18189"
             style="font-size:12px;fill:none;stroke:#000000;stroke-width:2.31148434;display:inline"
             id="path4121" />
          <path
             d="m -229.05671,644.68803 0,-29.46485"
             style="font-size:12px;fill:none;stroke:#000000;stroke-width:2.57152724;display:inline"
             id="path4123" />
          <path
             d="m -223.9824,643.2031 0,-27.48496"
             style="font-size:12px;fill:none;stroke:#000000;stroke-width:2.8315661;display:inline"
             id="path4125" />
          <path
             d="m -218.54101,642.45901 0,-25.50509"
             style="font-size:12px;fill:none;stroke:#000000;stroke-width:3.091609;display:inline"
             id="path4127" />
          <path
             d="m -207.40027,640.23331 0.17372,-20.30632 m -5.88293,21.2963 0,-22.78123"
             style="font-size:12px;fill:none;stroke:#000000;stroke-width:3.33720565;display:inline"
             id="path4129" />
          <path
             d="m -201.69097,638.49929 0,-17.83154"
             style="font-size:12px;fill:none;stroke:#000000;stroke-width:3.52501416;display:inline"
             id="path4131" />
          <path
             d="m -196.46285,637.05327 0,-14.84891"
             style="font-size:12px;fill:none;stroke:#000000;stroke-width:3.78505349;display:inline"
             id="path4133" />
          <path
             d="m -190.75355,635.07345 0,-11.63003"
             style="font-size:12px;fill:none;stroke:#000000;stroke-width:4.03064871;display:inline"
             id="path4135" />
          <path
             d="m -184.88555,634.08354 0,-8.66024"
             style="font-size:12px;fill:none;stroke:#000000;stroke-width:4.27626181;display:inline"
             id="path4137" />
          <path
             d="m -178.67498,632.1056 0,-4.20853"
             style="font-size:12px;fill:none;stroke:#000000;stroke-width:5.04192257;display:inline"
             id="path4139" />
          <path
             d="m -334.76028,648.60884 0,-37.87262 m 13.35307,39.11167 -0.17354,-40.10164 m 9.90559,40.59659 0,-40.84566"
             style="font-size:12px;fill:none;stroke:#000000;stroke-width:0.26004165;display:inline"
             id="path4141" />
          <path
             style="fill:#eac102;fill-rule:evenodd;stroke:#000000;stroke-width:1px;stroke-linecap:butt;stroke-linejoin:miter;stroke-opacity:1;display:inline"
             d="m -347.21246,599.9832 c -52.17482,0.52021 -104.94361,0.57554 -156.18456,11.01141 -11.435,3.44575 -27.79124,5.3639 -32.08365,17.56909 -1.40822,10.19432 11.50827,14.52148 19.58428,17.32316 38.47209,11.02566 79.1413,11.9655 119.00318,13.68913 62.0158,1.18767 124.40827,1.64837 185.96427,-6.58499 16.81677,-3.10144 35.33335,-5.01624 49.16225,-15.46516 8.25728,-7.72211 -0.86558,-18.51768 -9.99369,-20.73862 -31.31383,-11.47114 -65.46476,-12.69248 -98.58375,-15.02799 -25.59623,-1.33357 -51.23671,-1.75909 -76.86833,-1.77603 z m 0.14405,12.2683 c 134.01746,2e-5 171.53522,17.86964 171.53522,17.86964 -9e-5,-10e-6 -31.35816,17.86964 -171.53522,17.86964 -140.62303,0 -171.50647,-17.86964 -171.50647,-17.86964 0,-10e-6 37.04332,-17.86964 171.50647,-17.86964 z"
             id="path4143" />
        </g>
      </g>
      <g
         style="display:inline"
         transform="translate(-128.43185,-238.03092)"
         inkscape:label="Timbre"
         id="g3837" />
      <g
         style="display:inline"
         transform="translate(-128.43185,-238.03092)"
         id="g3839"
         inkscape:label="Escudo" />
      <g
         transform="translate(-72.00313,-314.67127)"
         style="display:inline"
         inkscape:label="Piezas"
         id="g3841" />
      <g
         transform="translate(-72.00313,-314.67127)"
         style="display:inline"
         inkscape:label="Muebles"
         id="g3843" />
      <g
         transform="translate(-72.00313,-314.67127)"
         inkscape:label="Ornamento"
         id="g3845" />
    </g>
    <g
       transform="translate(81.382043,-73.26231)"
       style="display:inline"
       inkscape:label="Borde 3px"
       id="layer2-2" />
  </g>
  <g
     transform="translate(23.571446,10.057881)"
     id="layer3"
     style="display:inline" />
  <g
     transform="translate(23.571446,10.057881)"
     id="layer1" />
  <g
     id="layer4"
     transform="translate(80.000168,-66.582465)" />
  <g
     id="layer5"
     style="display:inline"
     transform="translate(80.000168,-66.582465)" />
  <g
     id="layer6"
     style="display:inline"
     transform="translate(80.000168,-66.582465)" />
  <g
     id="layer2"
     style="display:inline"
     transform="translate(80.000168,-66.582465)">
    <path
       d="m 274.78125,373.5 0,598.875 c 81.18465,-0.33721 161.87221,-41.54288 206.75,-110.1875 33.12211,-47.31072 45.32495,-105.85145 42.59375,-162.84375 10e-6,-108.65839 0,-217.3104 0,-325.96875 0,0 -249.34375,0.125 -249.34375,0.125 z"
       id="path4172"
       style="fill:#ed1c24;fill-opacity:1;fill-rule:evenodd;stroke:none;stroke-width:3;marker:none;visibility:visible;display:inline;overflow:visible;enable-background:accumulate" />
    <path
       d="m 26.370248,373.50165 c 0.20428,120.74471 -0.41085,241.51373 0.3125,362.25 3.846881,108.35658 86.774952,207.304 192.687502,230.1875 18.20848,4.43583 36.81336,6.57725 55.40625,6.5625 l 0,-599 c -82.80472,0 -165.60148,0 -248.406252,0 z"
       id="path3380"
       style="fill:#ed1c24;fill-opacity:1;fill-rule:evenodd;stroke:#000000;stroke-width:1;stroke-linecap:butt;stroke-linejoin:miter;stroke-miterlimit:4;stroke-opacity:1;stroke-dasharray:none;stroke-dashoffset:0;marker:none;visibility:visible;display:inline;overflow:visible;enable-background:accumulate" />
    <path
       d="m 25.551186,373.5 c 0.20428,120.74472 -0.41112,241.50282 0.31223,362.23909 3.84688,108.35657 86.787294,207.32615 192.699844,230.20965 97.98283,23.86995 207.67231,-19.0271 262.97741,-103.62122 33.1221,-47.31073 45.3201,-105.86015 42.5889,-162.85245 0,-108.65836 0,-217.31672 0,-325.97507 -166.1928,0 -332.38553,0 -498.578384,0 z"
       id="path2302"
       style="fill:none;stroke:#000000;stroke-width:3;stroke-linecap:butt;stroke-linejoin:miter;stroke-miterlimit:4;stroke-opacity:1;stroke-dasharray:none;stroke-dashoffset:0;marker:none;visibility:visible;display:inline;overflow:visible;enable-background:accumulate" />
  </g>
  <g
     id="g5495"
     transform="translate(0,11.932397)">
    <g
       transform="matrix(-0.27550989,-0.15502154,-0.15539619,0.27616771,343.89167,462.32221)"
       id="g5461"
       style="stroke:#000000;stroke-width:3.15948772;stroke-miterlimit:4;stroke-opacity:1;stroke-dasharray:none">
      <path
         d="m 1.5,19.461911 0,43.8125 42.15625,0 0.40625,21.75 -42.5625,0 0,33.843749 71.21875,0 0,-33.906249 21.25,0 0,33.906249 30.53125,0 0,0.375 0,21.4375 0,0.375 -30.53125,0 0,33.90625 -21.25,0 0,-33.90625 -71.21875,0 0,33.84375 42.5625,0 -0.40625,21.75 -42.15625,0 0,43.8125 71.21875,0 0,-24 21.25,0 0,24 30.53125,0 0,-65.90625 23.5625,0.0937 0,-34.09375 0,-21.1875 0,-34.093749 -23.5625,0.09375 0,-65.90625 -30.53125,0 0,24 -21.25,0 0,-24 -71.21875,0 z"
         id="path5463"
         style="fill:#eac102;fill-opacity:1;fill-rule:evenodd;stroke:#000000;stroke-width:3.15948772;stroke-linecap:butt;stroke-linejoin:miter;stroke-miterlimit:4;stroke-opacity:1;stroke-dasharray:none" />
      <path
         d="m 185.23849,23.339455 c 0,0 -1.32172,-21.839455 -19.91167,-21.839455 -18.2176,0 -18.6994,21.839455 -18.6994,21.839455 l 0.59782,689.558555 40.08606,0 -2.07281,-689.558555 z"
         id="path5465"
         style="fill:#eac102;fill-opacity:1;fill-rule:evenodd;stroke:#000000;stroke-width:3.15948772;stroke-linecap:butt;stroke-linejoin:miter;stroke-miterlimit:4;stroke-opacity:1;stroke-dasharray:none" />
      <path
         d="m 187.08321,726.97258 -42.19356,0.18612 C 124.491,757.9272 95.976697,786.69291 64.086017,805.55501 l -0.13911,44.69009 c 30.5521,23.02676 55.026943,52.46811 80.878293,80.36398 l 47.12653,0.9405 c 23.0166,-28.47575 49.27604,-53.89878 78.04008,-76.49499 l -1.15775,-49.73972 c -29.53568,-23.10102 -58.14267,-49.11971 -81.75085,-78.34229 z m -20.91745,24.49351 c 51.53203,0 23.71367,55.333 23.71366,55.33302 0,0 52.33166,-29.95774 52.33166,19.7508 0,48.43598 -52.33166,25.77831 -52.33166,25.77831 0,0 27.73422,52.63802 -23.22377,52.82612 -50.95799,0.1881 -21.07478,-52.82609 -21.07479,-52.82612 0,0 -55.562653,26.56178 -55.562653,-25.77831 0,-52.26253 55.562653,-19.7508 55.562653,-19.7508 -0.35647,-0.75942 -29.6739,-55.33302 20.5849,-55.33302 z"
         id="path5467"
         style="fill:#eac102;fill-opacity:1;fill-rule:evenodd;stroke:#000000;stroke-width:3.15948772;stroke-linecap:butt;stroke-linejoin:miter;stroke-miterlimit:4;stroke-opacity:1;stroke-dasharray:none" />
      <g
         transform="matrix(0.7096611,-0.881032,-0.8809022,-0.7097657,699.90441,1554.2201)"
         id="g5469"
         style="fill:#eac102;fill-opacity:1;stroke:#000000;stroke-width:2.79284143;stroke-miterlimit:4;stroke-opacity:1;stroke-dasharray:none">
        <path
           d="m 103.3519,719.17136 c 0,0 -19.673216,-16.43577 -4.181709,-35.66537 15.698029,-19.48595 35.355349,-3.03045 35.355349,-3.03045 l -31.17364,38.69582 z"
           id="path5471"
           style="fill:#eac102;fill-opacity:1;fill-rule:evenodd;stroke:#000000;stroke-width:2.79284143;stroke-linecap:butt;stroke-linejoin:miter;stroke-miterlimit:4;stroke-opacity:1;stroke-dasharray:none" />
        <path
           d="m 134.47702,680.73802 -30.95387,38.42304 c -7.580487,9.40966 6.91237,22.58463 15.22539,12.26568 l 30.95387,-38.42303 c 7.5495,-9.37119 -7.62727,-21.69723 -15.22539,-12.26569 z"
           id="path5473"
           style="fill:#eac102;fill-opacity:1;fill-rule:evenodd;stroke:#000000;stroke-width:2.79284143;stroke-linecap:butt;stroke-linejoin:miter;stroke-miterlimit:4;stroke-opacity:1;stroke-dasharray:none" />
      </g>
      <path
         d="m 193.90196,728.46257 -54.43638,-0.27513 c 0,0 -9.77772,1.34662 -9.71647,-10.75213 0.0612,-12.09877 10.28772,-10.18569 10.28772,-10.18569 l 54.90167,0.27751 c 0,0 9.30301,0.51236 9.25119,10.74976 -0.0518,10.23742 -10.28773,10.18568 -10.28773,10.18568 z"
         id="path5475"
         style="fill:#eac102;fill-opacity:1;fill-rule:evenodd;stroke:#000000;stroke-width:3.15948772;stroke-linecap:butt;stroke-linejoin:miter;stroke-miterlimit:4;stroke-opacity:1;stroke-dasharray:none;display:inline" />
      <g
         transform="translate(0.3086,9.993161)"
         id="g5477"
         style="stroke:#000000;stroke-width:3.15948772;stroke-miterlimit:4;stroke-opacity:1;stroke-dasharray:none">
        <g
           transform="matrix(0.881032,0.7096611,0.7097657,-0.8809021,-558.47653,1350.3807)"
           id="g5479"
           style="fill:#eac102;fill-opacity:1;stroke:#000000;stroke-width:2.79284143;stroke-miterlimit:4;stroke-opacity:1;stroke-dasharray:none">
          <path
             d="m 104.19464,718.12526 c 0,0 -19.673212,-16.43577 -4.1817,-35.66537 15.69802,-19.48595 35.35534,-3.03045 35.35534,-3.03045 l -31.17364,38.69582 z"
             id="path5481"
             style="fill:#eac102;fill-opacity:1;fill-rule:evenodd;stroke:#000000;stroke-width:2.79284143;stroke-linecap:butt;stroke-linejoin:miter;stroke-miterlimit:4;stroke-opacity:1;stroke-dasharray:none" />
          <path
             d="m 135.49885,679.46962 -30.95387,38.42304 c -7.580487,9.40966 6.91237,22.58463 15.22539,12.26568 l 30.95387,-38.42303 c 7.5495,-9.37119 -7.62727,-21.69723 -15.22539,-12.26569 z"
             id="path5483"
             style="fill:#eac102;fill-opacity:1;fill-rule:evenodd;stroke:#000000;stroke-width:2.79284143;stroke-linecap:butt;stroke-linejoin:miter;stroke-miterlimit:4;stroke-opacity:1;stroke-dasharray:none" />
        </g>
        <g
           transform="matrix(-0.881032,0.7096611,-0.7097657,-0.8809021,892.8834,1350.3807)"
           id="g5485"
           style="fill:#eac102;fill-opacity:1;stroke:#000000;stroke-width:2.79284143;stroke-miterlimit:4;stroke-opacity:1;stroke-dasharray:none">
          <path
             d="m 104.19464,718.12526 c 0,0 -19.673212,-16.43577 -4.1817,-35.66537 15.69802,-19.48595 35.35534,-3.03045 35.35534,-3.03045 l -31.17364,38.69582 z"
             id="path5487"
             style="fill:#eac102;fill-opacity:1;fill-rule:evenodd;stroke:#000000;stroke-width:2.79284143;stroke-linecap:butt;stroke-linejoin:miter;stroke-miterlimit:4;stroke-opacity:1;stroke-dasharray:none" />
          <path
             d="m 135.49885,679.46962 -30.95387,38.42304 c -7.580487,9.40966 6.91237,22.58463 15.22539,12.26568 l 30.95387,-38.42303 c 7.5495,-9.37119 -7.62727,-21.69723 -15.22539,-12.26569 z"
             id="path5489"
             style="fill:#eac102;fill-opacity:1;fill-rule:evenodd;stroke:#000000;stroke-width:2.79284143;stroke-linecap:butt;stroke-linejoin:miter;stroke-miterlimit:4;stroke-opacity:1;stroke-dasharray:none" />
        </g>
      </g>
      <path
         d="m 193.90196,706.76854 -54.43638,-0.27513 c 0,0 -9.77772,1.34662 -9.71647,-10.75213 0.0612,-12.09877 10.28772,-10.18569 10.28772,-10.18569 l 54.90167,0.27751 c 0,0 9.30301,0.51236 9.25119,10.74976 -0.0518,10.23742 -10.28773,10.18568 -10.28773,10.18568 z"
         id="path5491"
         style="fill:#eac102;fill-opacity:1;fill-rule:evenodd;stroke:#000000;stroke-width:3.15948772;stroke-linecap:butt;stroke-linejoin:miter;stroke-miterlimit:4;stroke-opacity:1;stroke-dasharray:none;display:inline" />
      <path
         d="m 193.90196,685.07451 -54.43638,-0.27513 c 0,0 -9.77772,1.34662 -9.71647,-10.75213 0.0612,-12.09877 10.28772,-10.18569 10.28772,-10.18569 l 54.90167,0.27751 c 0,0 9.30301,0.51236 9.25119,10.74976 -0.0518,10.23742 -10.28773,10.18568 -10.28773,10.18568 z"
         id="path5493"
         style="fill:#eac102;fill-opacity:1;fill-rule:evenodd;stroke:#000000;stroke-width:3.15948772;stroke-linecap:butt;stroke-linejoin:miter;stroke-miterlimit:4;stroke-opacity:1;stroke-dasharray:none;display:inline" />
    </g>
    <g
       style="stroke:#000000;stroke-width:3.15948772;stroke-miterlimit:4;stroke-opacity:1;stroke-dasharray:none"
       id="g2399"
       transform="matrix(0.27550989,-0.15502154,0.15539619,0.27616771,121.78391,462.32221)">
      <path
         style="fill:#eac102;fill-opacity:1;fill-rule:evenodd;stroke:#000000;stroke-width:3.15948772;stroke-linecap:butt;stroke-linejoin:miter;stroke-miterlimit:4;stroke-opacity:1;stroke-dasharray:none"
         id="path7554"
         d="m 1.5,19.461911 0,43.8125 42.15625,0 0.40625,21.75 -42.5625,0 0,33.843749 71.21875,0 0,-33.906249 21.25,0 0,33.906249 30.53125,0 0,0.375 0,21.4375 0,0.375 -30.53125,0 0,33.90625 -21.25,0 0,-33.90625 -71.21875,0 0,33.84375 42.5625,0 -0.40625,21.75 -42.15625,0 0,43.8125 71.21875,0 0,-24 21.25,0 0,24 30.53125,0 0,-65.90625 23.5625,0.0937 0,-34.09375 0,-21.1875 0,-34.093749 -23.5625,0.09375 0,-65.90625 -30.53125,0 0,24 -21.25,0 0,-24 -71.21875,0 z" />
      <path
         style="fill:#eac102;fill-opacity:1;fill-rule:evenodd;stroke:#000000;stroke-width:3.15948772;stroke-linecap:butt;stroke-linejoin:miter;stroke-miterlimit:4;stroke-opacity:1;stroke-dasharray:none"
         id="path7552"
         d="m 185.23849,23.339455 c 0,0 -1.32172,-21.839455 -19.91167,-21.839455 -18.2176,0 -18.6994,21.839455 -18.6994,21.839455 l 0.59782,689.558555 40.08606,0 -2.07281,-689.558555 z" />
      <path
         style="fill:#eac102;fill-opacity:1;fill-rule:evenodd;stroke:#000000;stroke-width:3.15948772;stroke-linecap:butt;stroke-linejoin:miter;stroke-miterlimit:4;stroke-opacity:1;stroke-dasharray:none"
         id="path2872"
         d="m 187.08321,726.97258 -42.19356,0.18612 C 124.491,757.9272 95.976697,786.69291 64.086017,805.55501 l -0.13911,44.69009 c 30.5521,23.02676 55.026943,52.46811 80.878293,80.36398 l 47.12653,0.9405 c 23.0166,-28.47575 49.27604,-53.89878 78.04008,-76.49499 l -1.15775,-49.73972 c -29.53568,-23.10102 -58.14267,-49.11971 -81.75085,-78.34229 z m -20.91745,24.49351 c 51.53203,0 23.71367,55.333 23.71366,55.33302 0,0 52.33166,-29.95774 52.33166,19.7508 0,48.43598 -52.33166,25.77831 -52.33166,25.77831 0,0 27.73422,52.63802 -23.22377,52.82612 -50.95799,0.1881 -21.07478,-52.82609 -21.07479,-52.82612 0,0 -55.562653,26.56178 -55.562653,-25.77831 0,-52.26253 55.562653,-19.7508 55.562653,-19.7508 -0.35647,-0.75942 -29.6739,-55.33302 20.5849,-55.33302 z" />
      <g
         style="fill:#eac102;fill-opacity:1;stroke:#000000;stroke-width:2.79284143;stroke-miterlimit:4;stroke-opacity:1;stroke-dasharray:none"
         id="g2401"
         transform="matrix(0.7096611,-0.881032,-0.8809022,-0.7097657,699.90441,1554.2201)">
        <path
           style="fill:#eac102;fill-opacity:1;fill-rule:evenodd;stroke:#000000;stroke-width:2.79284143;stroke-linecap:butt;stroke-linejoin:miter;stroke-miterlimit:4;stroke-opacity:1;stroke-dasharray:none"
           id="path7446"
           d="m 103.3519,719.17136 c 0,0 -19.673216,-16.43577 -4.181709,-35.66537 15.698029,-19.48595 35.355349,-3.03045 35.355349,-3.03045 l -31.17364,38.69582 z" />
        <path
           style="fill:#eac102;fill-opacity:1;fill-rule:evenodd;stroke:#000000;stroke-width:2.79284143;stroke-linecap:butt;stroke-linejoin:miter;stroke-miterlimit:4;stroke-opacity:1;stroke-dasharray:none"
           id="path7444"
           d="m 134.47702,680.73802 -30.95387,38.42304 c -7.580487,9.40966 6.91237,22.58463 15.22539,12.26568 l 30.95387,-38.42303 c 7.5495,-9.37119 -7.62727,-21.69723 -15.22539,-12.26569 z" />
      </g>
      <path
         style="fill:#eac102;fill-opacity:1;fill-rule:evenodd;stroke:#000000;stroke-width:3.15948772;stroke-linecap:butt;stroke-linejoin:miter;stroke-miterlimit:4;stroke-opacity:1;stroke-dasharray:none;display:inline"
         id="path7472"
         d="m 193.90196,728.46257 -54.43638,-0.27513 c 0,0 -9.77772,1.34662 -9.71647,-10.75213 0.0612,-12.09877 10.28772,-10.18569 10.28772,-10.18569 l 54.90167,0.27751 c 0,0 9.30301,0.51236 9.25119,10.74976 -0.0518,10.23742 -10.28773,10.18568 -10.28773,10.18568 z" />
      <g
         style="stroke:#000000;stroke-width:3.15948772;stroke-miterlimit:4;stroke-opacity:1;stroke-dasharray:none"
         id="g2473"
         transform="translate(0.3086,9.993161)">
        <g
           style="fill:#eac102;fill-opacity:1;stroke:#000000;stroke-width:2.79284143;stroke-miterlimit:4;stroke-opacity:1;stroke-dasharray:none"
           id="g2405"
           transform="matrix(0.881032,0.7096611,0.7097657,-0.8809021,-558.47653,1350.3807)">
          <path
             style="fill:#eac102;fill-opacity:1;fill-rule:evenodd;stroke:#000000;stroke-width:2.79284143;stroke-linecap:butt;stroke-linejoin:miter;stroke-miterlimit:4;stroke-opacity:1;stroke-dasharray:none"
             id="path2407"
             d="m 104.19464,718.12526 c 0,0 -19.673212,-16.43577 -4.1817,-35.66537 15.69802,-19.48595 35.35534,-3.03045 35.35534,-3.03045 l -31.17364,38.69582 z" />
          <path
             style="fill:#eac102;fill-opacity:1;fill-rule:evenodd;stroke:#000000;stroke-width:2.79284143;stroke-linecap:butt;stroke-linejoin:miter;stroke-miterlimit:4;stroke-opacity:1;stroke-dasharray:none"
             id="path2409"
             d="m 135.49885,679.46962 -30.95387,38.42304 c -7.580487,9.40966 6.91237,22.58463 15.22539,12.26568 l 30.95387,-38.42303 c 7.5495,-9.37119 -7.62727,-21.69723 -15.22539,-12.26569 z" />
        </g>
        <g
           style="fill:#eac102;fill-opacity:1;stroke:#000000;stroke-width:2.79284143;stroke-miterlimit:4;stroke-opacity:1;stroke-dasharray:none"
           id="g2467"
           transform="matrix(-0.881032,0.7096611,-0.7097657,-0.8809021,892.8834,1350.3807)">
          <path
             style="fill:#eac102;fill-opacity:1;fill-rule:evenodd;stroke:#000000;stroke-width:2.79284143;stroke-linecap:butt;stroke-linejoin:miter;stroke-miterlimit:4;stroke-opacity:1;stroke-dasharray:none"
             id="path2469"
             d="m 104.19464,718.12526 c 0,0 -19.673212,-16.43577 -4.1817,-35.66537 15.69802,-19.48595 35.35534,-3.03045 35.35534,-3.03045 l -31.17364,38.69582 z" />
          <path
             style="fill:#eac102;fill-opacity:1;fill-rule:evenodd;stroke:#000000;stroke-width:2.79284143;stroke-linecap:butt;stroke-linejoin:miter;stroke-miterlimit:4;stroke-opacity:1;stroke-dasharray:none"
             id="path2471"
             d="m 135.49885,679.46962 -30.95387,38.42304 c -7.580487,9.40966 6.91237,22.58463 15.22539,12.26568 l 30.95387,-38.42303 c 7.5495,-9.37119 -7.62727,-21.69723 -15.22539,-12.26569 z" />
        </g>
      </g>
      <path
         style="fill:#eac102;fill-opacity:1;fill-rule:evenodd;stroke:#000000;stroke-width:3.15948772;stroke-linecap:butt;stroke-linejoin:miter;stroke-miterlimit:4;stroke-opacity:1;stroke-dasharray:none;display:inline"
         id="path2483"
         d="m 193.90196,706.76854 -54.43638,-0.27513 c 0,0 -9.77772,1.34662 -9.71647,-10.75213 0.0612,-12.09877 10.28772,-10.18569 10.28772,-10.18569 l 54.90167,0.27751 c 0,0 9.30301,0.51236 9.25119,10.74976 -0.0518,10.23742 -10.28773,10.18568 -10.28773,10.18568 z" />
      <path
         style="fill:#eac102;fill-opacity:1;fill-rule:evenodd;stroke:#000000;stroke-width:3.15948772;stroke-linecap:butt;stroke-linejoin:miter;stroke-miterlimit:4;stroke-opacity:1;stroke-dasharray:none;display:inline"
         id="path2397"
         d="m 193.90196,685.07451 -54.43638,-0.27513 c 0,0 -9.77772,1.34662 -9.71647,-10.75213 0.0612,-12.09877 10.28772,-10.18569 10.28772,-10.18569 l 54.90167,0.27751 c 0,0 9.30301,0.51236 9.25119,10.74976 -0.0518,10.23742 -10.28773,10.18568 -10.28773,10.18568 z" />
    </g>
  </g>
  <g
     transform="matrix(1.3274785,0,0,1.3258929,5.1521338,-133.98647)"
     id="layer1-4"
     style="fill:#e3e4e5;stroke:#000000;stroke-width:0.75375819;stroke-miterlimit:4;stroke-opacity:1;stroke-dasharray:none">
    <g
       transform="matrix(0.747079,-0.664735,0.664735,0.747079,-16.73308,413.7899)"
       id="g3657"
       style="fill:#e3e4e5;stroke:#000000;stroke-width:0.75375825;stroke-miterlimit:4;stroke-opacity:1;stroke-dasharray:none">
      <path
         d="M 58.571429,447.36218 284.80323,201.23091 308.92857,221.6479 88.05726,475.11598 C 74.385274,467.26227 67.506597,461.00305 58.571429,447.36218 z"
         style="color:#000000;fill:#e3e4e5;fill-opacity:1;fill-rule:nonzero;stroke:#000000;stroke-width:0.75375825;stroke-linecap:round;stroke-linejoin:round;stroke-miterlimit:4;stroke-opacity:1;stroke-dasharray:none;stroke-dashoffset:0;marker:none;visibility:visible;display:inline;overflow:visible"
         id="path1882"
         sodipodi:nodetypes="ccccc" />
      <path
         d="m 216.17264,224.03709 34.128,-38.46771 66.0418,57.95886 c -4.18777,14.71236 -7.66244,21.99334 13.49344,41.30377 0.23994,5.59096 -17.95662,23.62297 -21.36784,21.49038 l -92.2954,-82.2853 z"
         style="color:#000000;fill:#e3e4e5;fill-opacity:1;fill-rule:nonzero;stroke:#000000;stroke-width:0.75375825;stroke-linecap:round;stroke-linejoin:round;stroke-miterlimit:4;stroke-opacity:1;stroke-dasharray:none;stroke-dashoffset:0;marker:none;visibility:visible;display:inline;overflow:visible"
         id="path1884" />
    </g>
  </g>
</svg>
