<svg xmlns:rdf="http://www.w3.org/1999/02/22-rdf-syntax-ns#" xmlns="http://www.w3.org/2000/svg" height="100%" width="100%" version="1.0" xmlns:cc="http://creativecommons.org/ns#" xmlns:dc="http://purl.org/dc/elements/1.1/" viewBox="0 0 550 960">
<metadata>
<rdf:RDF>
<cc:Work rdf:about="">
<dc:format>image/svg+xml</dc:format>
<dc:type rdf:resource="http://purl.org/dc/dcmitype/StillImage"/>
<dc:title/>
</cc:Work>
</rdf:RDF>
</metadata>
<g stroke-linejoin="round" stroke="#000" stroke-linecap="round">
<g>
<path d="m126.904,160.389c-47.4497-2.054-88.5487,19.505-105.2703,46.096l50.536,73.206,46.9073,30.577,155.923-11.59,155.922,11.59,46.908-30.577,50.536-73.206c-16.721-26.591-57.82-48.15-105.27-46.097-49.777,2.155-74.619-23.708-148.096-23.708-73.478,0-98.32,25.863-148.097,23.708z" fill="#ed1c24"/>
<g>
<path d="m511.8256,207.248c19.5456-30.647,14.7835-52.773,2.7995-70.692,24.0799,20.568,30.4156,51.655,9.1264,87.081z" fill="#eac102"/>
<path d="m284.62,96.527c32.416,9.776,67.755,20.776,99.77,16.069,148.993-21.91,159.46,60.056,131.251,94.343l8.1105,16.698-7.6257,2.421-9.7328-19.557c32.728-34.367,17.7717-106.98-120.838-86.576-33.376,4.913-70.105-6.31-103.326-16.329z" fill="#eac102"/>
<path d="m515.641,206.939-9.248-0.438" fill="none"/>
<path d="m320.2925,100.4245a7.7835,7.7835,0,0,0,7.783,7.783,7.7835,7.7835,0,0,0,7.784,-7.783,7.7835,7.7835,0,0,0,-7.784,-7.784,7.7835,7.7835,0,0,0,-7.783,7.784z" fill="#e3e4e5"/>
<path d="m397.7925,102.3245a7.7835,7.7835,0,0,0,7.783,7.783,7.7835,7.7835,0,0,0,7.784,-7.783,7.7835,7.7835,0,0,0,-7.784,-7.784,7.7835,7.7835,0,0,0,-7.783,7.784z" fill="#e3e4e5"/>
<path d="m378.5425,104.5745a7.7835,7.7835,0,0,0,7.783,7.783,7.7835,7.7835,0,0,0,7.784,-7.783,7.7835,7.7835,0,0,0,-7.784,-7.784,7.7835,7.7835,0,0,0,-7.783,7.784z" fill="#e3e4e5"/>
<path d="m301.2925,95.6245a7.7835,7.7835,0,0,0,7.783,7.783,7.7835,7.7835,0,0,0,7.784,-7.783,7.7835,7.7835,0,0,0,-7.784,-7.784,7.7835,7.7835,0,0,0,-7.783,7.784z" fill="#e3e4e5"/>
<path d="m282.5425,90.22435a7.7835,7.7835,0,0,0,7.783,7.783,7.7835,7.7835,0,0,0,7.784,-7.783,7.7835,7.7835,0,0,0,-7.784,-7.784,7.7835,7.7835,0,0,0,-7.783,7.784z" fill="#e3e4e5"/>
<path d="m522.7466,212.679a7.7835,7.7835,0,0,0,7.783,7.783,7.7835,7.7835,0,0,0,7.784,-7.783,7.7835,7.7835,0,0,0,-7.784,-7.784,7.7835,7.7835,0,0,0,-7.783,7.784z" fill="#e3e4e5"/>
<path d="m530.2451,195.076a7.7835,7.7835,0,0,0,7.783,7.783,7.7835,7.7835,0,0,0,7.784,-7.783,7.7835,7.7835,0,0,0,-7.784,-7.784,7.7835,7.7835,0,0,0,-7.783,7.784z" fill="#e3e4e5"/>
<path d="m533.933,176.675a7.7835,7.7835,0,0,0,7.783,7.783,7.7835,7.7835,0,0,0,7.784,-7.783,7.7835,7.7835,0,0,0,-7.784,-7.784,7.7835,7.7835,0,0,0,-7.783,7.784z" fill="#e3e4e5"/>
<path d="m530.5421,158.1745a7.7835,7.7835,0,0,0,7.783,7.783,7.7835,7.7835,0,0,0,7.784,-7.783,7.7835,7.7835,0,0,0,-7.784,-7.784,7.7835,7.7835,0,0,0,-7.783,7.784z" fill="#e3e4e5"/>
<path d="m521.0421,141.6745a7.7835,7.7835,0,0,0,7.7829,7.783,7.7835,7.7835,0,0,0,7.7841,-7.783,7.7835,7.7835,0,0,0,-7.7841,-7.784,7.7835,7.7835,0,0,0,-7.7829,7.784z" fill="#e3e4e5"/>
<path d="m508.5421,126.9245a7.7835,7.7835,0,0,0,7.7829,7.783,7.7835,7.7835,0,0,0,7.7841,-7.783,7.7835,7.7835,0,0,0,-7.7841,-7.784,7.7835,7.7835,0,0,0,-7.7829,7.784z" fill="#e3e4e5"/>
<path d="m493.0421,115.9245a7.7835,7.7835,0,0,0,7.7829,7.783,7.7835,7.7835,0,0,0,7.7841,-7.783,7.7835,7.7835,0,0,0,-7.7841,-7.784,7.7835,7.7835,0,0,0,-7.7829,7.784z" fill="#e3e4e5"/>
<path d="m475.2921,107.9245a7.7835,7.7835,0,0,0,7.7829,7.783,7.7835,7.7835,0,0,0,7.7841,-7.783,7.7835,7.7835,0,0,0,-7.7841,-7.784,7.7835,7.7835,0,0,0,-7.7829,7.784z" fill="#e3e4e5"/>
<path d="m456.2922,103.4245a7.7835,7.7835,0,0,0,7.783,7.783,7.7835,7.7835,0,0,0,7.784,-7.783,7.7835,7.7835,0,0,0,-7.784,-7.784,7.7835,7.7835,0,0,0,-7.783,7.784z" fill="#e3e4e5"/>
<path d="m436.7925,101.4245a7.7835,7.7835,0,0,0,7.783,7.783,7.7835,7.7835,0,0,0,7.784,-7.783,7.7835,7.7835,0,0,0,-7.784,-7.784,7.7835,7.7835,0,0,0,-7.783,7.784z" fill="#e3e4e5"/>
<path d="m417.2925,101.1745a7.7835,7.7835,0,0,0,7.783,7.783,7.7835,7.7835,0,0,0,7.784,-7.783,7.7835,7.7835,0,0,0,-7.784,-7.784,7.7835,7.7835,0,0,0,-7.783,7.784z" fill="#e3e4e5"/>
<path d="m359.0425,105.9245a7.7835,7.7835,0,0,0,7.783,7.783,7.7835,7.7835,0,0,0,7.784,-7.783,7.7835,7.7835,0,0,0,-7.784,-7.784,7.7835,7.7835,0,0,0,-7.783,7.784z" fill="#e3e4e5"/>
<path d="m339.5425,104.1745a7.7835,7.7835,0,0,0,7.783,7.783,7.7835,7.7835,0,0,0,7.784,-7.783,7.7835,7.7835,0,0,0,-7.784,-7.784,7.7835,7.7835,0,0,0,-7.783,7.784z" fill="#e3e4e5"/>
</g>
<g>
<path color="#000000" style="text-transform:none;text-indent:0;" d="m360.0098,83.2883c58.73,8.2647,67.559,61.2927,37.213,98.7137l11.164,18.135-7.24,1.157-15.274-19.727c38.556-45.665,16.695-84.586-27.063-89.802-31.409-3.744-51.936,13.675-83.81,10.512v-8.477c24.666,3.635,57.285-14.4134,85.01-10.5117z" fill="#eac102"/>
<path color="#000000" style="text-transform:none;text-indent:0;" d="m408.3868,200.137-14.475-18.51c27.841-29.776,24.557-82.969-20.634-95.507,77.2708,17.892,51.427,72.899,52.518,102.232z" fill="#eac102"/>
<path d="m393.9118,181.627-8.039-0.06" fill="none"/>
<path d="m276.9663,86.3693a7.7835,7.7835,0,0,0,7.783,7.783,7.7835,7.7835,0,0,0,7.784,-7.783,7.7835,7.7835,0,0,0,-7.784,-7.784,7.7835,7.7835,0,0,0,-7.783,7.784z" fill="#e3e4e5"/>
<path d="m286.6228,85.56335a7.7835,7.7835,0,0,0,7.783,7.783,7.7835,7.7835,0,0,0,7.784,-7.783,7.7835,7.7835,0,0,0,-7.784,-7.784,7.7835,7.7835,0,0,0,-7.783,7.784z" fill="#e3e4e5"/>
<path d="m294.6863,83.8243a7.7835,7.7835,0,0,0,7.783,7.783,7.7835,7.7835,0,0,0,7.784,-7.783,7.7835,7.7835,0,0,0,-7.784,-7.784,7.7835,7.7835,0,0,0,-7.783,7.784z" fill="#e3e4e5"/>
<path d="m302.7783,81.5984a7.7835,7.7835,0,0,0,7.783,7.783,7.7835,7.7835,0,0,0,7.784,-7.783,7.7835,7.7835,0,0,0,-7.784,-7.784,7.7835,7.7835,0,0,0,-7.783,7.784z" fill="#e3e4e5"/>
<path d="m403.7763,183.1555a7.7835,7.7835,0,0,0,7.783,7.783,7.7835,7.7835,0,0,0,7.784,-7.783,7.7835,7.7835,0,0,0,-7.784,-7.784,7.7835,7.7835,0,0,0,-7.783,7.784z" fill="#e3e4e5"/>
<path d="m411.5013,165.1275a7.7835,7.7835,0,0,0,7.783,7.783,7.7835,7.7835,0,0,0,7.784,-7.783,7.7835,7.7835,0,0,0,-7.784,-7.784,7.7835,7.7835,0,0,0,-7.783,7.784z" fill="#e3e4e5"/>
<path d="m415.7193,146.2275a7.7835,7.7835,0,0,0,7.783,7.783,7.7835,7.7835,0,0,0,7.784,-7.783,7.7835,7.7835,0,0,0,-7.784,-7.784,7.7835,7.7835,0,0,0,-7.783,7.784z" fill="#e3e4e5"/>
<path d="m415.1433,127.5005a7.7835,7.7835,0,0,0,7.783,7.783,7.7835,7.7835,0,0,0,7.784,-7.783,7.7835,7.7835,0,0,0,-7.784,-7.784,7.7835,7.7835,0,0,0,-7.783,7.784z" fill="#e3e4e5"/>
<path d="m311.2028,79.7154a7.7835,7.7835,0,0,0,7.783,7.783,7.7835,7.7835,0,0,0,7.784,-7.783,7.7835,7.7835,0,0,0,-7.784,-7.784,7.7835,7.7835,0,0,0,-7.783,7.784z" fill="#e3e4e5"/>
<path d="m319.9033,77.77545a7.7835,7.7835,0,0,0,7.783,7.783,7.7835,7.7835,0,0,0,7.784,-7.783,7.7835,7.7835,0,0,0,-7.784,-7.784,7.7835,7.7835,0,0,0,-7.783,7.784z" fill="#e3e4e5"/>
<path d="m329.1353,76.2257a7.7835,7.7835,0,0,0,7.783,7.783,7.7835,7.7835,0,0,0,7.784,-7.783,7.7835,7.7835,0,0,0,-7.784,-7.784,7.7835,7.7835,0,0,0,-7.783,7.784z" fill="#e3e4e5"/>
<path d="m338.6008,75.1477a7.7835,7.7835,0,0,0,7.783,7.783,7.7835,7.7835,0,0,0,7.784,-7.783,7.7835,7.7835,0,0,0,-7.784,-7.784,7.7835,7.7835,0,0,0,-7.783,7.784z" fill="#e3e4e5"/>
<path d="m349.2963,75.1787a7.7835,7.7835,0,0,0,7.783,7.783,7.7835,7.7835,0,0,0,7.784,-7.783,7.7835,7.7835,0,0,0,-7.784,-7.784,7.7835,7.7835,0,0,0,-7.783,7.784z" fill="#e3e4e5"/>
<path d="m361.2313,77.0597a7.7835,7.7835,0,0,0,7.783,7.783,7.7835,7.7835,0,0,0,7.784,-7.783,7.7835,7.7835,0,0,0,-7.784,-7.784,7.7835,7.7835,0,0,0,-7.783,7.784z" fill="#e3e4e5"/>
<path d="m374.0443,80.6423a7.7835,7.7835,0,0,0,7.783,7.783,7.7835,7.7835,0,0,0,7.784,-7.783,7.7835,7.7835,0,0,0,-7.784,-7.784,7.7835,7.7835,0,0,0,-7.783,7.784z" fill="#e3e4e5"/>
<path d="m387.7703,86.74135a7.7835,7.7835,0,0,0,7.783,7.783,7.7835,7.7835,0,0,0,7.784,-7.783,7.7835,7.7835,0,0,0,-7.784,-7.784,7.7835,7.7835,0,0,0,-7.783,7.784z" fill="#e3e4e5"/>
<path d="m400.1513,97.0445a7.7835,7.7835,0,0,0,7.783,7.783,7.7835,7.7835,0,0,0,7.784,-7.783,7.7835,7.7835,0,0,0,-7.784,-7.784,7.7835,7.7835,0,0,0,-7.783,7.784z" fill="#e3e4e5"/>
<path d="m409.5618,110.9545a7.7835,7.7835,0,0,0,7.783,7.783,7.7835,7.7835,0,0,0,7.784,-7.783,7.7835,7.7835,0,0,0,-7.784,-7.784,7.7835,7.7835,0,0,0,-7.783,7.784z" fill="#e3e4e5"/>
</g>
<g>
<path d="m38.1744,207.248c-19.5456-30.647-14.7835-52.773-2.7995-70.692-24.0799,20.568-30.41563,51.655-9.1264,87.081z" fill="#eac102"/>
<path d="m265.38,96.527c-32.416,9.776-67.755,20.776-99.77,16.069-148.993-21.91-159.46,60.056-131.251,94.343l-8.1105,16.698,7.6257,2.421,9.7328-19.557c-32.728-34.367-17.7717-106.98,120.838-86.576,33.376,4.913,70.105-6.31,103.326-16.329z" fill="#eac102"/>
<path d="m34.359,206.939,9.248-0.438" fill="none"/>
<path d="m229.7075,100.4245a7.7835,7.7835,0,0,1,-7.783,7.783,7.7835,7.7835,0,0,1,-7.784,-7.783,7.7835,7.7835,0,0,1,7.784,-7.784,7.7835,7.7835,0,0,1,7.783,7.784z" fill="#e3e4e5"/>
<path d="m152.2075,102.3245a7.7835,7.7835,0,0,1,-7.783,7.783,7.7835,7.7835,0,0,1,-7.784,-7.783,7.7835,7.7835,0,0,1,7.784,-7.784,7.7835,7.7835,0,0,1,7.783,7.784z" fill="#e3e4e5"/>
<path d="m171.4575,104.5745a7.7835,7.7835,0,0,1,-7.783,7.783,7.7835,7.7835,0,0,1,-7.784,-7.783,7.7835,7.7835,0,0,1,7.784,-7.784,7.7835,7.7835,0,0,1,7.783,7.784z" fill="#e3e4e5"/>
<path d="m248.7075,95.6245a7.7835,7.7835,0,0,1,-7.783,7.783,7.7835,7.7835,0,0,1,-7.784,-7.783,7.7835,7.7835,0,0,1,7.784,-7.784,7.7835,7.7835,0,0,1,7.783,7.784z" fill="#e3e4e5"/>
<path d="m267.4575,90.22435a7.7835,7.7835,0,0,1,-7.783,7.783,7.7835,7.7835,0,0,1,-7.784,-7.783,7.7835,7.7835,0,0,1,7.784,-7.784,7.7835,7.7835,0,0,1,7.783,7.784z" fill="#e3e4e5"/>
<path d="m27.2534,212.679a7.7835,7.7835,0,0,1,-7.783,7.783,7.7835,7.7835,0,0,1,-7.784,-7.783,7.7835,7.7835,0,0,1,7.784,-7.784,7.7835,7.7835,0,0,1,7.783,7.784z" fill="#e3e4e5"/>
<path d="m19.7549,195.076a7.7835,7.7835,0,0,1,-7.783,7.783,7.7835,7.7835,0,0,1,-7.78401,-7.783,7.7835,7.7835,0,0,1,7.78401,-7.784,7.7835,7.7835,0,0,1,7.783,7.784z" fill="#e3e4e5"/>
<path stroke-width=".9999999" d="m16.067,176.6745a7.7835,7.7835,0,0,1,-7.7835,7.7835,7.7835,7.7835,0,0,1,-7.7835,-7.7835,7.7835,7.7835,0,0,1,7.7835,-7.7835,7.7835,7.7835,0,0,1,7.7835,7.7835z" fill="#e3e4e5"/>
<path d="m19.45793,158.1745a7.7835,7.7835,0,0,1,-7.78299,7.783,7.7835,7.7835,0,0,1,-7.784003,-7.783,7.7835,7.7835,0,0,1,7.784003,-7.784,7.7835,7.7835,0,0,1,7.78299,7.784z" fill="#e3e4e5"/>
<path d="m28.95795,141.6745a7.7835,7.7835,0,0,1,-7.78299,7.783,7.7835,7.7835,0,0,1,-7.78401,-7.783,7.7835,7.7835,0,0,1,7.78401,-7.784,7.7835,7.7835,0,0,1,7.78299,7.784z" fill="#e3e4e5"/>
<path d="m41.45795,126.9245a7.7835,7.7835,0,0,1,-7.78299,7.783,7.7835,7.7835,0,0,1,-7.78401,-7.783,7.7835,7.7835,0,0,1,7.78401,-7.784,7.7835,7.7835,0,0,1,7.78299,7.784z" fill="#e3e4e5"/>
<path d="m56.95795,115.9245a7.7835,7.7835,0,0,1,-7.78299,7.783,7.7835,7.7835,0,0,1,-7.78401,-7.783,7.7835,7.7835,0,0,1,7.78401,-7.784,7.7835,7.7835,0,0,1,7.78299,7.784z" fill="#e3e4e5"/>
<path d="m74.70795,107.9245a7.7835,7.7835,0,0,1,-7.78299,7.783,7.7835,7.7835,0,0,1,-7.78401,-7.783,7.7835,7.7835,0,0,1,7.78401,-7.784,7.7835,7.7835,0,0,1,7.78299,7.784z" fill="#e3e4e5"/>
<path d="m93.7078,103.4245a7.7835,7.7835,0,0,1,-7.78299,7.783,7.7835,7.7835,0,0,1,-7.78401,-7.783,7.7835,7.7835,0,0,1,7.78401,-7.784,7.7835,7.7835,0,0,1,7.78299,7.784z" fill="#e3e4e5"/>
<path d="m113.2075,101.4245a7.7835,7.7835,0,0,1,-7.783,7.783,7.7835,7.7835,0,0,1,-7.784,-7.783,7.7835,7.7835,0,0,1,7.784,-7.784,7.7835,7.7835,0,0,1,7.783,7.784z" fill="#e3e4e5"/>
<path d="m132.7075,101.1745a7.7835,7.7835,0,0,1,-7.783,7.783,7.7835,7.7835,0,0,1,-7.784,-7.783,7.7835,7.7835,0,0,1,7.784,-7.784,7.7835,7.7835,0,0,1,7.783,7.784z" fill="#e3e4e5"/>
<path d="m190.9575,105.9245a7.7835,7.7835,0,0,1,-7.783,7.783,7.7835,7.7835,0,0,1,-7.784,-7.783,7.7835,7.7835,0,0,1,7.784,-7.784,7.7835,7.7835,0,0,1,7.783,7.784z" fill="#e3e4e5"/>
<path d="m210.4575,104.1745a7.7835,7.7835,0,0,1,-7.783,7.783,7.7835,7.7835,0,0,1,-7.784,-7.783,7.7835,7.7835,0,0,1,7.784,-7.784,7.7835,7.7835,0,0,1,7.783,7.784z" fill="#e3e4e5"/>
</g>
<g>
<path color="#000000" style="text-transform:none;text-indent:0;" d="m189.9902,83.2883c-58.7299,8.2647-67.5589,61.2927-37.213,98.7137l-11.1639,18.135,7.24,1.157,15.274-19.727c-38.5561-45.665-16.6951-84.586,27.0629-89.802,31.409-3.744,51.936,13.675,83.81,10.512v-8.477c-24.666,3.635-57.285-14.4134-85.01-10.5117z" fill="#eac102"/>
<path color="#000000" style="text-transform:none;text-indent:0;" d="m141.6132,200.137,14.475-18.51c-27.841-29.776-24.557-82.969,20.634-95.507-77.27078,17.892-51.427,72.899-52.518,102.232z" fill="#eac102"/>
<path d="m156.0882,181.627,8.039-0.06" fill="none"/>
<path d="m273.0337,86.3693a7.7835,7.7835,0,0,1,-7.783,7.783,7.7835,7.7835,0,0,1,-7.784,-7.783,7.7835,7.7835,0,0,1,7.784,-7.784,7.7835,7.7835,0,0,1,7.783,7.784z" fill="#e3e4e5"/>
<path d="m263.3772,85.56335a7.7835,7.7835,0,0,1,-7.7829,7.783,7.7835,7.7835,0,0,1,-7.784,-7.783,7.7835,7.7835,0,0,1,7.784,-7.784,7.7835,7.7835,0,0,1,7.7829,7.784z" fill="#e3e4e5"/>
<path d="m255.3137,83.8243a7.7835,7.7835,0,0,1,-7.783,7.783,7.7835,7.7835,0,0,1,-7.7839,-7.783,7.7835,7.7835,0,0,1,7.7839,-7.784,7.7835,7.7835,0,0,1,7.783,7.784z" fill="#e3e4e5"/>
<path d="m247.2217,81.5984a7.7835,7.7835,0,0,1,-7.783,7.783,7.7835,7.7835,0,0,1,-7.784,-7.783,7.7835,7.7835,0,0,1,7.784,-7.784,7.7835,7.7835,0,0,1,7.783,7.784z" fill="#e3e4e5"/>
<path d="m146.2237,183.1555a7.7835,7.7835,0,0,1,-7.783,7.783,7.7835,7.7835,0,0,1,-7.7839,-7.783,7.7835,7.7835,0,0,1,7.7839,-7.784,7.7835,7.7835,0,0,1,7.783,7.784z" fill="#e3e4e5"/>
<path d="m138.4987,165.1275a7.7835,7.7835,0,0,1,-7.7829,7.783,7.7835,7.7835,0,0,1,-7.784,-7.783,7.7835,7.7835,0,0,1,7.784,-7.784,7.7835,7.7835,0,0,1,7.7829,7.784z" fill="#e3e4e5"/>
<path d="m134.2807,146.2275a7.7835,7.7835,0,0,1,-7.783,7.783,7.7835,7.7835,0,0,1,-7.784,-7.783,7.7835,7.7835,0,0,1,7.784,-7.784,7.7835,7.7835,0,0,1,7.783,7.784z" fill="#e3e4e5"/>
<path d="m134.8567,127.5005a7.7835,7.7835,0,0,1,-7.7829,7.783,7.7835,7.7835,0,0,1,-7.7841,-7.783,7.7835,7.7835,0,0,1,7.7841,-7.784,7.7835,7.7835,0,0,1,7.7829,7.784z" fill="#e3e4e5"/>
<path d="m238.7972,79.7154a7.7835,7.7835,0,0,1,-7.783,7.783,7.7835,7.7835,0,0,1,-7.784,-7.783,7.7835,7.7835,0,0,1,7.784,-7.784,7.7835,7.7835,0,0,1,7.783,7.784z" fill="#e3e4e5"/>
<path d="m230.0967,77.77545a7.7835,7.7835,0,0,1,-7.783,7.783,7.7835,7.7835,0,0,1,-7.784,-7.783,7.7835,7.7835,0,0,1,7.784,-7.784,7.7835,7.7835,0,0,1,7.783,7.784z" fill="#e3e4e5"/>
<path d="m220.8647,76.2257a7.7835,7.7835,0,0,1,-7.783,7.783,7.7835,7.7835,0,0,1,-7.784,-7.783,7.7835,7.7835,0,0,1,7.784,-7.784,7.7835,7.7835,0,0,1,7.783,7.784z" fill="#e3e4e5"/>
<path d="m211.3992,75.1477a7.7835,7.7835,0,0,1,-7.783,7.783,7.7835,7.7835,0,0,1,-7.7839,-7.783,7.7835,7.7835,0,0,1,7.7839,-7.784,7.7835,7.7835,0,0,1,7.783,7.784z" fill="#e3e4e5"/>
<path d="m200.7037,75.1787a7.7835,7.7835,0,0,1,-7.783,7.783,7.7835,7.7835,0,0,1,-7.784,-7.783,7.7835,7.7835,0,0,1,7.784,-7.784,7.7835,7.7835,0,0,1,7.783,7.784z" fill="#e3e4e5"/>
<path d="m188.7687,77.0597a7.7835,7.7835,0,0,1,-7.783,7.783,7.7835,7.7835,0,0,1,-7.784,-7.783,7.7835,7.7835,0,0,1,7.784,-7.784,7.7835,7.7835,0,0,1,7.783,7.784z" fill="#e3e4e5"/>
<path d="m175.9557,80.6423a7.7835,7.7835,0,0,1,-7.783,7.783,7.7835,7.7835,0,0,1,-7.7839,-7.783,7.7835,7.7835,0,0,1,7.7839,-7.784,7.7835,7.7835,0,0,1,7.783,7.784z" fill="#e3e4e5"/>
<path d="m162.2297,86.74135a7.7835,7.7835,0,0,1,-7.783,7.783,7.7835,7.7835,0,0,1,-7.7839,-7.783,7.7835,7.7835,0,0,1,7.7839,-7.784,7.7835,7.7835,0,0,1,7.783,7.784z" fill="#e3e4e5"/>
<path d="m149.8487,97.0445a7.7835,7.7835,0,0,1,-7.783,7.783,7.7835,7.7835,0,0,1,-7.7839,-7.783,7.7835,7.7835,0,0,1,7.7839,-7.784,7.7835,7.7835,0,0,1,7.783,7.784z" fill="#e3e4e5"/>
<path d="m140.4382,110.9545a7.7835,7.7835,0,0,1,-7.783,7.783,7.7835,7.7835,0,0,1,-7.784,-7.783,7.7835,7.7835,0,0,1,7.784,-7.784,7.7835,7.7835,0,0,1,7.783,7.784z" fill="#e3e4e5"/>
</g>
<g>
<path d="m271.0505,45.9675v-26.5354h-12.191v-7.8712h12.191v-11.0614h7.899v11.0614h12.191v7.8712h-12.191v26.5354z" fill="#eac102"/>
<path fill-rule="evenodd" d="m296.6135,57.931c0,11.9368-9.676,21.6135-21.613,21.6135s-21.614-9.6767-21.614-21.6135,9.677-21.6135,21.614-21.6135,21.613,9.6767,21.613,21.6135z" fill="#0071bc"/>
<path d="m296.89,62.2341c0.853-2.1211,0.321-8.3173,0-8.6153,0-1.4117-7.564-2.5679-17.598-2.8336v-14.8834c-1.436-0.2424-2.863-0.3721-4.292-0.3721s-2.856,0.1297-4.292,0.3721v14.8834c-10.035,0.2657-17.598,1.4219-17.598,2.8336-0.321,0.298-0.853,6.4942,0,8.6153,0-1.6075,9.796-2.9195,21.89-2.9195s21.89,1.312,21.89,2.9195z" fill="#eac102"/>
<path color="#000000" style="text-transform:none;text-indent:0;" d="m300.2535,178.031c-9.227-24.443-5.848-66.016-11.893-88.294-2.443-9.0023-8.669-13.2685-13.36-13.2685-4.692,0-10.918,4.2662-13.361,13.2685-6.044,22.278-2.666,63.851-11.893,88.294l25.254,25.969z" fill="#eac102"/>
<path color="#000000" style="text-transform:none;text-indent:0;" d="m284.233,92.187c5.798,26.85,1.488,56.644,10.3,84.406l-19.533,20.532-19.533-20.532c8.811-27.762,4.502-57.556,10.3-84.406,1.017-4.709,4.687-10.6875,9.233-10.6875s8.216,5.9785,9.233,10.6875z" fill="#eac102"/>
<path d="m249.7465,178.031,5.721-1.438" fill="none"/>
<path d="m300.2535,178.031-5.72-1.438" fill="none"/>
<path d="m282.7835,72.2347a7.7835,7.7835,0,0,1,-7.783,7.783,7.7835,7.7835,0,0,1,-7.784,-7.783,7.7835,7.7835,0,0,1,7.784,-7.784,7.7835,7.7835,0,0,1,7.783,7.784z" fill="#e3e4e5"/>
<path d="m282.7835,74.7567a7.7835,7.7835,0,0,1,-7.783,7.783,7.7835,7.7835,0,0,1,-7.784,-7.783,7.7835,7.7835,0,0,1,7.784,-7.784,7.7835,7.7835,0,0,1,7.783,7.784z" fill="#e3e4e5"/>
<path d="m282.7835,78.50395a7.7835,7.7835,0,0,1,-7.783,7.783,7.7835,7.7835,0,0,1,-7.784,-7.783,7.7835,7.7835,0,0,1,7.784,-7.784,7.7835,7.7835,0,0,1,7.783,7.784z" fill="#e3e4e5"/>
<path d="m282.7835,85.26035a7.7835,7.7835,0,0,1,-7.783,7.783,7.7835,7.7835,0,0,1,-7.784,-7.783,7.7835,7.7835,0,0,1,7.784,-7.784,7.7835,7.7835,0,0,1,7.783,7.784z" fill="#e3e4e5"/>
<path d="m282.7835,177.1995a7.7835,7.7835,0,0,1,-7.783,7.783,7.7835,7.7835,0,0,1,-7.784,-7.783,7.7835,7.7835,0,0,1,7.784,-7.784,7.7835,7.7835,0,0,1,7.783,7.784z" fill="#e3e4e5"/>
<path d="m282.7835,159.9425a7.7835,7.7835,0,0,1,-7.783,7.783,7.7835,7.7835,0,0,1,-7.784,-7.783,7.7835,7.7835,0,0,1,7.784,-7.784,7.7835,7.7835,0,0,1,7.783,7.784z" fill="#e3e4e5"/>
<path d="m282.7835,141.7745a7.7835,7.7835,0,0,1,-7.783,7.783,7.7835,7.7835,0,0,1,-7.784,-7.783,7.7835,7.7835,0,0,1,7.784,-7.784,7.7835,7.7835,0,0,1,7.783,7.784z" fill="#e3e4e5"/>
<path d="m282.7835,93.8715a7.7835,7.7835,0,0,1,-7.783,7.783,7.7835,7.7835,0,0,1,-7.784,-7.783,7.7835,7.7835,0,0,1,7.784,-7.784,7.7835,7.7835,0,0,1,7.783,7.784z" fill="#e3e4e5"/>
<path d="m282.7835,106.1465a7.7835,7.7835,0,0,1,-7.783,7.783,7.7835,7.7835,0,0,1,-7.784,-7.783,7.7835,7.7835,0,0,1,7.784,-7.784,7.7835,7.7835,0,0,1,7.783,7.784z" fill="#e3e4e5"/>
<path d="m282.7835,123.2925a7.7835,7.7835,0,0,1,-7.783,7.783,7.7835,7.7835,0,0,1,-7.784,-7.783,7.7835,7.7835,0,0,1,7.784,-7.784,7.7835,7.7835,0,0,1,7.783,7.784z" fill="#e3e4e5"/>
</g>
</g>
<g>
<path d="m495.393,261.718c-8.975,15.172-24.369,32.712-39.404,43.596l-12.431-5.934c23.39-9.09,38.18-23.218,51.835-37.662z" fill="#eac102"/>
<path d="m54.6066,261.718c8.9757,15.172,24.3692,32.712,39.4046,43.596l12.4308-5.934c-23.3893-9.089-38.1794-23.217-51.8352-37.661z" fill="#eac102"/>
<path d="m197.252,230.116c-3.718,5.274-8.668,9.861-15.822,11.078,2.99,2.509,3.836,5.588,4.156,9.384-10.83-3.633-16.142-0.524-22.035-4.938l-6.684-5.008-2.581-12.406,4.368-6.127c3.71-5.203,11.119-3.905,19.086-9.236,1.239,3.701,1.683,6.822-0.159,9.832,7.348-0.289,13.962,3.126,19.671,7.421z" fill="#eac102"/>
<path d="m352.748,230.116c3.719,5.274,8.668,9.861,15.823,11.078-2.991,2.509-3.836,5.588-4.157,9.384,10.83-3.633,16.142-0.524,22.035-4.938l6.685-5.008,2.58-12.406-4.368-6.127c-3.709-5.203-11.119-3.905-19.085-9.236-1.24,3.701-1.684,6.822,0.158,9.832-7.348-0.289-13.962,3.126-19.671,7.421z" fill="#eac102"/>
<path color="#000000" style="text-transform:none;text-indent:0;" d="m279.949,231.803c-0.03,2.357,0,10.917,0,16.375,0,26.831,47.244,38.933,54.668,0.185,0.433-2.262,2.647-3.716,4.938-3.438,2.291,0.279,4.04,2.325,3.936,4.625-1.644,36.354,42.169,31.266,48.807,1.784l3.884-17.25c0.56-2.487,3.458-4.151,5.951-3.593s4.381,3.294,3.821,5.781l-3.883,17.25c-6.534,29.017,20.554,39.156,46.761,3.358,1.429-1.951,4.348-2.648,6.398-1.362,2.051,1.285,2.42,4.184,1.399,6.375-20.412,43.804,9.017,20.935,32.108-6.902,1.708-2.06,5.095-2.533,7.172-0.844,2.078,1.688,2.269,5.068,0.595,7.156-43.1,53.791-58.839,34.495-56.253,18.969-18.149,14.619-40.479,13.325-47.42-8.469-16.133,18.161-45.313,18.789-55.89-3.656-17.45,23.114-49.603,16.825-61.941-2.594-12.339,19.419-44.491,25.708-61.941,2.594-10.577,22.445-39.757,21.817-55.89,3.656-6.942,21.794-29.271,23.088-47.421,8.469,2.587,15.526-13.1523,34.822-56.2527-18.969-1.6732-2.088-1.4826-5.468,0.5951-7.156,2.0776-1.689,5.4642-1.216,7.1726,0.844,23.0903,27.837,52.52,50.706,32.1075,6.902-1.0209-2.191-0.6516-5.09,1.3988-6.375,2.0505-1.286,4.9694-0.589,6.3977,1.362,26.208,35.798,53.295,25.659,46.762-3.358l-3.884-17.25c-0.56-2.487,1.329-5.223,3.822-5.781,2.492-0.558,5.391,1.106,5.951,3.593l3.883,17.25c6.638,29.482,50.452,34.57,48.808-1.784-0.104-2.3,1.645-4.346,3.936-4.625,2.291-0.278,4.505,1.176,4.938,3.438,7.424,38.748,54.668,26.646,54.668-0.185,0-5.458,0.03-14.018,0-16.375-0.03-2.618,2.325-5.063,4.949-5.063s4.981,2.445,4.949,5.063z" fill="#eac102"/>
<path d="m218.148,245.993c0,4.299-3.485,7.783-7.783,7.783-4.299,0-7.784-3.484-7.784-7.783s3.485-7.783,7.784-7.783c4.298,0,7.783,3.484,7.783,7.783z" fill="#e3e4e5"/>
<path d="m102.336,239.971c5.709,4.295,12.317,7.682,19.665,7.394-1.842,3.01-1.398,6.131-0.158,9.831,9.888-5.904,15.408-4.012,19.091-9.208l4.362-6.155-2.581-12.406-6.678-4.98c-5.751-4.288-11.565-1.418-22.041-4.965,0.321,3.795,1.166,6.875,4.157,9.383-7.155,1.217-12.099,5.832-15.817,11.106z" fill="#eac102"/>
<path d="m141.354,236.122c-15.058-0.18-19.315,1.751-32.576,3.205" fill="none"/>
<path d="m140.887,231.259c-9.561-5.946-16.284-3.45-22.381-7.697" fill="none"/>
<path d="m142.66,241.262c-6.52,6.349-11.51,4.12-17.167,9.492" fill="none"/>
<path d="m137.517,184.801c-1.955,6.672-4.948,12.704-2.046,20.33-3.122-2.311-7.015-3.14-10.425-2.286,6.76,10.344,5.287,16.364,11.193,21.26l6.456,5.353,11.623-1.207,3.976-6.436c3.363-5.442-0.09-11.554,2.087-22.638-3.614-0.126-6.474,0.389-8.523,3.237-2.045-7.695-7.764-14.127-14.341-17.613z" fill="#eac102"/>
<path d="m152.062,225.93c3.05-7.209,0.338-14.167,4.238-22.242" fill="none"/>
<path d="m144.078,227.417c-7.743-7.821-7.297-14.944-13.018-20.705" fill="none"/>
<path d="m147.908,225.978c-4.91-13.066-3.728-23.04-8.243-34.519" fill="none"/>
<path d="m155.601,229.946c6.485-7.138,12.126-5.158,18.639-11.082" fill="none"/>
<path d="m157.194,238.405c9.31,3.696,12.383,1.45,22.346,7.319" fill="none"/>
<path d="m158.315,234.361c14.086-3.851,19.894-1.207,32.749-3.538" fill="none"/>
<path fill-rule="evenodd" d="m159.492,235.014c0,5.537-4.488,10.025-10.025,10.025s-10.025-4.488-10.025-10.025,4.488-10.025,10.025-10.025,10.025,4.488,10.025,10.025z" fill="#ed1c24"/>
<path d="m45.0284,247.022c-6.8839-9.763-12.5925-16.066-33.6374-17.877,7.1999-10.824,22.1943-13.957,31.947-4.08,0.9226-2.703,1.4915-3.584,4.0702-6.081,2.2993,7.049,12.5388,12.375,8.4764,24.997l-3.9921,12.404z" fill="#eac102"/>
<path d="m84.5428,243.89c-1.5655,5.769-4.0762,11.078-8.6571,13.477,2.4447,1.937,3.5521,4.794,4.4334,8.438,0,0-10.52-0.846-15.1004,0.2-5.2304,1.195-9.2345-1.053-10.0933-1.896l-4.9364-9.74c3.7968-6.772,4.5442-10.491,7.3891-14.177,2.8404-3.68,7.4856-6.913,10.8591-9.803,1.4804,3.395,2.3264,6.361,1.6204,9.607,4.8733-1.528,9.9053,0.678,14.4852,3.894z" fill="#eac102"/>
<path d="m49.0826,252.582c-0.6133-5.162,1.1642-9.819,0.8473-13.963-0.58-7.582-3.0646-10.08-2.7362-14.051" fill="none"/>
<path d="m52.7809,258.812c8.1857-6.619,15.6797-7.827,25.5337-13.418" fill="none"/>
<path d="m51.365,255.146c3.5803-6.021,10.9481-9.377,14.9246-18.743" fill="none"/>
<path d="m53.9257,262.217c7.0415,0.963,11.3117-3.118,19.7357-0.06" fill="none"/>
<path fill-rule="evenodd" d="m55.125,264.109c-1.3286,0.657-2.8245,1.027-4.4073,1.027-5.4952,0-9.95-4.455-9.95-9.95,0-3.38,1.6844-6.366,4.2603-8.164,5.3937,3.559,9.3292,10.791,10.097,17.087z" fill="#ed1c24"/>
<path d="m306.932,220.731c2.597-2.777,2.813-5.896,2.319-9.668-12.027,4.993-17.034,2.326-22.098,7.118l-5.936,5.616v12.456l5.936,5.617c5.064,4.791,10.071,2.124,22.098,7.118,0.494-3.772,0.278-6.892-2.319-9.669,7.793-0.467,14.003-4.479,19.069-9.294-5.066-4.814-11.276-8.827-19.069-9.294z" fill="#eac102"/>
<path d="m284.114,230.025h34.687" fill="none"/>
<path d="m282.609,233.998c10.17,6.304,14.353,4.446,21.869,9.7" fill="none"/>
<path d="m282.609,226.052c10.17-6.304,14.353-4.446,21.869-9.7" fill="none"/>
<path d="m243.067,220.731c-2.597-2.777-2.812-5.896-2.319-9.668,12.028,4.993,17.035,2.326,22.099,7.118l5.936,5.616v12.456l-5.936,5.617c-5.064,4.791-10.071,2.124-22.099,7.118-0.493-3.772-0.278-6.892,2.319-9.669-7.793-0.467-14.003-4.479-19.068-9.294,5.065-4.814,11.275-8.827,19.068-9.294z" fill="#eac102"/>
<path d="m265.886,230.025h-34.687" fill="none"/>
<path d="m267.391,233.998c-10.17,6.304-14.353,4.446-21.87,9.7" fill="none"/>
<path d="m267.391,226.052c-10.17-6.304-14.353-4.446-21.87-9.7" fill="none"/>
<path d="m284.294,198.093c2.777-2.597,5.896-2.812,9.668-2.319-4.993,12.028-2.326,17.034-7.118,22.098l-5.616,5.936h-12.456l-5.617-5.936c-4.791-5.064-2.124-10.07-7.118-22.098,3.772-0.493,6.892-0.278,9.669,2.319,0.467-7.793,4.479-14.003,9.294-19.069,4.814,5.066,8.827,11.276,9.294,19.069z" fill="#eac102"/>
<path d="m275,220.912v-34.687" fill="none"/>
<path d="m271.027,222.416c-6.305-10.17-4.446-14.353-9.7-21.869" fill="none"/>
<path d="m278.973,222.416c6.304-10.17,4.446-14.353,9.7-21.869" fill="none"/>
<path fill-rule="evenodd" d="m275,219.925c5.578,0,10.1,4.522,10.1,10.1s-4.522,10.1-10.1,10.1-10.1-4.522-10.1-10.1,4.522-10.1,10.1-10.1z" fill="#ed1c24"/>
<path d="m331.852,245.993c0,4.299,3.485,7.783,7.784,7.783,4.298,0,7.783-3.484,7.783-7.783s-3.485-7.783-7.783-7.783c-4.299,0-7.784,3.484-7.784,7.783z" fill="#e3e4e5"/>
<path d="m446.289,256.907c0,4.299,3.485,7.783,7.784,7.783,4.298,0,7.783-3.484,7.783-7.783s-3.485-7.783-7.783-7.783c-4.299,0-7.784,3.484-7.784,7.783z" fill="#e3e4e5"/>
<path d="m447.665,239.971c-5.709,4.295-12.318,7.682-19.666,7.394,1.843,3.01,1.398,6.131,0.159,9.831-9.889-5.904-15.409-4.012-19.092-9.208l-4.362-6.155,2.581-12.406,6.679-4.98c5.751-4.288,11.564-1.418,22.04-4.965-0.32,3.795-1.166,6.875-4.156,9.383,7.155,1.217,12.098,5.832,15.816,11.106z" fill="#eac102"/>
<path d="m408.646,236.122c15.058-0.18,19.315,1.751,32.576,3.205" fill="none"/>
<path d="m409.113,231.259c9.561-5.946,16.284-3.45,22.381-7.697" fill="none"/>
<path d="m407.34,241.262c6.52,6.349,11.51,4.12,17.167,9.492" fill="none"/>
<path d="m412.483,184.801c1.956,6.672,4.948,12.704,2.046,20.33,3.122-2.311,7.015-3.14,10.425-2.286-6.76,10.344-5.287,16.364-11.193,21.26l-6.456,5.353-11.622-1.207-3.977-6.436c-3.363-5.442,0.09-11.554-2.087-22.638,3.614-0.126,6.474,0.389,8.523,3.237,2.045-7.695,7.764-14.127,14.341-17.613z" fill="#eac102"/>
<path d="m397.938,225.93c-3.051-7.209-0.339-14.167-4.238-22.242" fill="none"/>
<path d="m405.922,227.417c7.743-7.821,7.297-14.944,13.018-20.705" fill="none"/>
<path d="m402.092,225.978c4.911-13.066,3.728-23.04,8.243-34.519" fill="none"/>
<path d="m394.399,229.946c-6.484-7.138-12.126-5.158-18.638-11.082" fill="none"/>
<path d="m392.806,238.405c-9.311,3.696-12.383,1.45-22.346,7.319" fill="none"/>
<path d="m391.685,234.361c-14.086-3.851-19.894-1.207-32.749-3.538" fill="none"/>
<path fill-rule="evenodd" d="m390.508,235.014c0,5.537,4.488,10.025,10.025,10.025s10.025-4.488,10.025-10.025-4.488-10.025-10.025-10.025-10.025,4.488-10.025,10.025z" fill="#ed1c24"/>
<path d="m504.972,247.022c6.884-9.763,12.592-16.066,33.637-17.877-7.2-10.824-22.194-13.957-31.947-4.08-0.923-2.703-1.491-3.584-4.07-6.081-2.299,7.049-12.539,12.375-8.476,24.997l3.992,12.404z" fill="#eac102"/>
<path d="m500.917,252.582c0.614-5.162-1.164-9.819-0.847-13.963,0.58-7.582,3.065-10.08,2.736-14.051" fill="none"/>
<path d="m465.457,243.89c1.566,5.769,4.076,11.078,8.657,13.477-2.444,1.937-3.552,4.794-4.433,8.438,0,0,10.52-0.846,15.1,0.2,5.231,1.195,9.235-1.053,10.094-1.896l4.936-9.74c-3.797-6.772-4.544-10.491-7.389-14.177-2.84-3.68-7.486-6.913-10.859-9.803-1.481,3.395-2.327,6.361-1.621,9.606-4.873-1.527-9.905,0.679-14.485,3.895z" fill="#eac102"/>
<path d="m497.219,258.812c-8.186-6.619-15.68-7.827-25.534-13.418" fill="none"/>
<path d="m498.635,255.146c-3.58-6.021-10.948-9.377-14.925-18.743" fill="none"/>
<path d="m496.074,262.217c-7.041,0.963-11.311-3.118-19.735-0.06" fill="none"/>
<path fill-rule="evenodd" d="m494.875,264.109c1.328,0.657,2.825,1.027,4.407,1.027,5.496,0,9.95-4.455,9.95-9.95,0-3.38-1.684-6.366-4.26-8.164-5.393,3.559-9.33,10.791-10.097,17.087z" fill="#ed1c24"/>
<path d="m103.711,256.907c0,4.299-3.485,7.783-7.7834,7.783-4.2986,0-7.7832-3.484-7.7832-7.783s3.4846-7.783,7.7832-7.783c4.2984,0,7.7834,3.484,7.7834,7.783z" fill="#e3e4e5"/>
</g>
<g>
<path color="#000000" style="text-transform:none;text-indent:0;" d="m104.225,348.698c0,6.898,37.441,20.925,170.775,20.925s170.775-14.027,170.775-20.925-37.441-20.925-170.775-20.925-170.775,14.027-170.775,20.925z" fill="#ed1c24"/>
<path stroke-width="5.5" d="m125.422,339.527v18.341" fill="none"/>
<path stroke-width="5.25" d="m131.859,338.038v21.319" fill="none"/>
<path stroke-width="5" d="m138.296,337.061v23.273" fill="none"/>
<path stroke-width="4.75" d="m144.733,335.852v25.692" fill="none"/>
<path stroke-width="4.5" d="m151.171,334.782v27.832" fill="none"/>
<path stroke-width="4.25" d="m157.608,333.851v29.693" fill="none"/>
<path stroke-width="4" d="m164.045,332.921v31.553" fill="none"/>
<path stroke-width="3.75" d="m170.482,332.13v33.135" fill="none"/>
<path stroke-width="3.5" d="m176.92,331.618v34.159" fill="none"/>
<path stroke-width="3.25" d="m183.357,331.014v35.368" fill="none"/>
<path stroke-width="3" d="m189.794,330.083v37.229" fill="none"/>
<path stroke-width="2.75" d="m196.232,329.571v38.253" fill="none"/>
<path stroke-width="2.5" d="m202.669,329.339v38.718" fill="none"/>
<path stroke-width="2.25" d="m209.106,328.78v39.834" fill="none"/>
<path stroke-width="2" d="m215.543,328.315v40.765" fill="none"/>
<path stroke-width="1.75" d="m221.981,328.036v41.323" fill="none"/>
<path stroke-width="1.5" d="m228.418,327.618v42.16" fill="none"/>
<path stroke-width="1.25" d="m234.855,327.338v42.719" fill="none"/>
<path stroke-width="1px" d="m241.292,326.501v44.394" fill="none"/>
<path stroke-width=".75" d="m247.73,326.501v44.394" fill="none"/>
<path stroke-width=".5" d="m254.167,326.501v44.394" fill="none"/>
<path stroke-width=".25" d="m260.604,326.501v44.394" fill="none"/>
<path stroke-width="6" d="m112.547,343.946v9.502" fill="none"/>
<path stroke-width="5.75" d="m118.984,341.574v14.248" fill="none"/>
<path stroke-width="5.5" d="m424.579,339.527v18.341" fill="none"/>
<path stroke-width="5.25" d="m418.142,338.038v21.319" fill="none"/>
<path stroke-width="5" d="m411.704,337.061v23.273" fill="none"/>
<path stroke-width="4.75" d="m405.267,335.852v25.692" fill="none"/>
<path stroke-width="4.5" d="m398.83,334.782v27.832" fill="none"/>
<path stroke-width="4.25" d="m392.393,333.851v29.693" fill="none"/>
<path stroke-width="4" d="m385.955,332.921v31.553" fill="none"/>
<path stroke-width="3.75" d="m379.518,332.13v33.135" fill="none"/>
<path stroke-width="3.5" d="m373.081,331.618v34.159" fill="none"/>
<path stroke-width="3.25" d="m366.643,331.014v35.368" fill="none"/>
<path stroke-width="3" d="m360.206,330.083v37.229" fill="none"/>
<path stroke-width="2.75" d="m353.769,329.571v38.253" fill="none"/>
<path stroke-width="2.5" d="m347.332,329.339v38.718" fill="none"/>
<path stroke-width="2.25" d="m340.894,328.78v39.834" fill="none"/>
<path stroke-width="2" d="m334.457,328.315v40.765" fill="none"/>
<path stroke-width="1.75" d="m328.02,328.036v41.323" fill="none"/>
<path stroke-width="1.5" d="m321.583,327.618v42.16" fill="none"/>
<path stroke-width="1.25" d="m315.145,327.338v42.719" fill="none"/>
<path stroke-width="1px" d="m308.708,326.501v44.394" fill="none"/>
<path stroke-width=".75" d="m302.271,326.501v44.394" fill="none"/>
<path stroke-width=".5" d="m295.834,326.501v44.394" fill="none"/>
<path stroke-width=".25" d="m289.396,326.501v44.394" fill="none"/>
<path stroke-width="6" d="m437.453,343.946v9.502" fill="none"/>
<path stroke-width="5.75" d="m431.016,341.574v14.248" fill="none"/>
</g>
<g>
<path color="#000000" style="text-transform:none;text-indent:0;" d="m466.107,309.063c0,10.34-24.162,17.019-57.01,21.251h-268.194c-32.849-4.232-57.0102-10.911-57.0102-21.251,0-23.313,122.822-28.016,191.106-28.016,68.285,0,191.107,4.703,191.107,28.016zm-370.491,0c0,2.281,41.1363,17.988,179.384,17.988s179.385-15.707,179.385-17.988-41.137-17.988-179.385-17.988-179.384,15.707-179.384,17.988z" fill="#eac102"/>
<path color="#000000" style="text-transform:none;text-indent:0;" d="m376.697,330.311,67.855,14.837c2.537-12.255,6.504-22.804,12.908-33.941,0-9.429-73.228-20.924-182.46-20.924-109.233,0-182.46,11.495-182.46,20.924,6.4032,11.137,10.37,21.686,12.908,33.941l67.854-14.837z" fill="#eac102"/>
<path fill-rule="evenodd" d="m154.94,306.039,35.129-3.359c3.525-0.337,6.633,2.238,6.971,5.774,0.337,3.536-2.229,6.654-5.753,6.991l-35.129,3.359c-3.525,0.337-6.634-2.238-6.971-5.774s2.228-6.654,5.753-6.991z" fill="#008f4c"/>
<path d="m136.333,315.954a7.7835,7.7835,0,0,1,-7.783,7.783,7.7835,7.7835,0,0,1,-7.784,-7.783,7.7835,7.7835,0,0,1,7.784,-7.784,7.7835,7.7835,0,0,1,7.783,7.784z" fill="#e3e4e5"/>
<path d="m230.057,307.476a7.7835,7.7835,0,0,1,-7.783,7.783,7.7835,7.7835,0,0,1,-7.784,-7.783,7.7835,7.7835,0,0,1,7.784,-7.784,7.7835,7.7835,0,0,1,7.783,7.784z" fill="#e3e4e5"/>
<path d="m93.8799,327.308,2.6279-8.571,14.0682,1.924-8.554,11.418z" fill="#ed1c24"/>
<path d="m93.8799,327.308,16.6961-6.647" fill="none"/>
<path fill-rule="evenodd" d="m395.06,306.039-35.129-3.359c-3.525-0.337-6.633,2.238-6.971,5.774-0.337,3.536,2.229,6.654,5.753,6.991l35.129,3.359c3.525,0.337,6.634-2.238,6.971-5.774s-2.228-6.654-5.753-6.991z" fill="#008f4c"/>
<path d="m429.235,315.954a7.7835,7.7835,0,0,1,-7.783,7.783,7.7835,7.7835,0,0,1,-7.784,-7.783,7.7835,7.7835,0,0,1,7.784,-7.784,7.7835,7.7835,0,0,1,7.783,7.784z" fill="#e3e4e5"/>
<path d="m335.511,307.476a7.7835,7.7835,0,0,1,-7.783,7.783,7.7835,7.7835,0,0,1,-7.784,-7.783,7.7835,7.7835,0,0,1,7.784,-7.784,7.7835,7.7835,0,0,1,7.783,7.784z" fill="#e3e4e5"/>
<path d="m456.12,327.308-2.628-8.571-14.068,1.924,8.554,11.418z" fill="#ed1c24"/>
<path d="m456.12,327.308-16.696-6.647" fill="none"/>
<path d="m255.928,299.592-9.91,6.685,9.91,6.684h38.145l9.91-6.684-9.91-6.685z" fill="#ed1c24"/>
<path d="m255.928,299.592,9.16,5.983-9.16,7.386" fill="none"/>
<path d="m294.073,299.592-9.16,5.983,9.16,7.386" fill="none"/>
<path d="m303.983,306.277-19.07-0.702h-19.825l-19.07,0.702" fill="none"/>
<path style="text-transform:none;text-indent:0;" d="m109.582,348.698c0-2.154,38.738-16.566,165.419-16.566s165.418,14.412,165.418,16.566-38.738,16.566-165.418,16.566c-126.681,0-165.419-14.412-165.419-16.566zm-10.8099,0c0-21.985,117.737-25.802,176.228-25.802,58.492,0,176.228,3.817,176.228,25.802s-117.736,25.802-176.228,25.802c-58.491,0-176.228-3.817-176.228-25.802z" fill-rule="evenodd" color="#000000" fill="#eac102"/>
</g>
</g>
<g stroke-linejoin="round" stroke="#000" stroke-linecap="round">
<path d="m25.5,360.5v349.5c0,137.724,111.776,249.5,249.5,249.5s249.5-111.776,249.5-249.5v-349.5z" fill="#008f4c"/>
<path d="m25.5,360.5,0,349.5c0,137.724,111.776,249.5,249.5,249.5v-599z" fill="#e3e4e5"/>
</g>
<g stroke-linejoin="round" stroke="#000" stroke-linecap="round" stroke-miterlimit="4" stroke-width="1">
<path d="m61.143,360.5,0,478.0625c10.07107,16.7061,22.06817,32.143,35.643,46v-524.0625z" fill-rule="nonzero" stroke-dasharray="none" fill="#0071bc"/>
<path d="m132.429,360.5,0,554.2188c11.234,7.8403,23.164,14.7846,35.642,20.7187v-574.9375z" fill-rule="nonzero" stroke-dasharray="none" fill="#0071bc"/>
<path d="m203.714,360.5,0,588.625c11.5462,3.4407,23.4641,6.0664,35.643,7.8125v-596.4375z" fill-rule="nonzero" stroke-dasharray="none" fill="#0071bc"/>
<path d="m420,912.9998c-60.491-37.687-110.597-90.517-145-153.1667-34.403,62.6497-84.509,115.4797-145,153.1667,40.875,29.257,90.937,46.5,145,46.5s104.125-17.243,145-46.5z" fill-rule="nonzero" stroke-dasharray="none" fill="#ed1c24"/>
<path d="m275,360.5,0,102.34368,200.4375,396.125c24.0792-32.4064,40.4372-70.9117,46.4688-112.8437l-195.125-385.62498z" fill="#eac102"/>
<path d="m275,360.5,0,86.96868,204.9688,405.1563c19.4607-27.9786,33.3196-60.1636,40-94.9688l-200.9688-397.15618z" fill="#ed1c24"/>
</g>
<g stroke-linejoin="round" stroke="#000" stroke-linecap="round" stroke-dasharray="none" stroke-miterlimit="4" stroke-width="1">
<path d="M286.5859,857.5858,275,885.5,263.4141,857.5858,235.5,846,263.4141,834.4143,275,806.5,286.5859,834.4143,314.5,846z" stroke-dashoffset="0" fill="#eac102"/>
<path d="M236.5859,907.5857,225,935.5,213.4141,907.5857,185.5,896,213.4141,884.4142,225,856.5,236.5859,884.4142,264.5,896z" stroke-dashoffset="0" fill="#eac102"/>
<path d="M336.5859,907.5857,325,935.5,313.4141,907.5857,285.5,896,313.4141,884.4142,325,856.5,336.5859,884.4142,364.5,896z" stroke-dashoffset="0" fill="#eac102"/>
<g transform="matrix(0.89227871,-0.451485,0.451485,0.89227871,-560.13605,408.82396)">
<path fill="none" d="m775.99546,720.47739,2.9962-6.693"/>
<path fill="none" d="m758.88396,740.56239-3.5599-7.369"/>
<path fill="none" d="m776.02886,740.20439,2.9628-6.693"/>
<path fill="none" d="m775.82236,710.12239,2.6108-6.94"/>
<path fill="none" d="m775.40186,702.67239,3.1035-8.611"/>
<path fill="none" d="m765.50766,683.07639-0.059-7.303"/>
<path fill="none" d="m759.96226,694.81739-1.2532-10.615"/>
<path fill="none" d="m759.53356,731.83639-3.9874-5.981"/>
<path fill="none" d="m758.91126,704.58739-3.6871-11.066"/>
<path fill="none" d="m772.81946,691.13039,2.344-9.157"/>
<path fill-rule="nonzero" fill="#eac102" d="m773.11286,689.85939c-3.412,5.195-8.6745,8.242-4.4153,20.837,6.3115-7.878,5.3865-8.515,4.4153-20.837z"/>
<path fill-rule="nonzero" fill="#eac102" d="m775.95126,701.18739c-5.3194,4.059-9.8565,4.66-7.7705,16.334,4.9379-6.087,6.7081-5.398,7.7705-16.334z"/>
<path fill-rule="nonzero" fill="#eac102" d="m775.95256,709.57439c-4.1874,4.499-9.8064,6.575-7.8046,19.646,7.4533-6.626,6.6637-7.41,7.8046-19.646z"/>
<path fill-rule="nonzero" fill="#eac102" d="m776.37506,719.75339c-4.7945,4.374-10.8915,6.445-8.4259,19.086,8.2612-7.315,6.4722-14.331,8.4259-19.086z"/>
<path fill-rule="nonzero" fill="#eac102" d="m776.12766,729.92739c-4.5223,4.227-11.1372,6.41-8.8343,18.637,6.4314-6.191,7.2782-7.169,8.8343-18.637z"/>
<path fill-rule="nonzero" fill="#eac102" d="m759.62156,691.92239c1.8563,3.781,8.3135,5.354,4.6936,18.183-6.0752-8.132-6.3254-6.998-4.6936-18.183z"/>
<path fill-rule="nonzero" fill="#eac102" d="m758.27876,702.76739c2.7981,3.056,10.0342,3.236,8.9348,15.513-8.2429-6.175-8.2655-5.102-8.9348-15.513z"/>
<path fill="none" d="m758.50376,712.23439-3.0416-7.68"/>
<path fill-rule="nonzero" fill="#eac102" d="m758.09976,711.49939c2.8832,3.3,10.3608,3.502,9.1909,16.748-8.5014-6.671-8.5278-5.515-9.1909-16.748z"/>
<path fill="none" d="m758.60116,723.01739-3.6095-7.369"/>
<path fill-rule="nonzero" fill="#eac102" d="m757.91646,721.54439c2.9686,2.204,11.3371,0.601,7.8602,16.873-6.1079-3.538-7.0911-14.678-7.8602-16.873z"/>
<path fill-rule="nonzero" fill="#eac102" d="m758.70636,730.63539c5.2998,2.973,8.4305,2.463,8.4469,17.732-7.527-6.855-7.512-5.601-8.4469-17.732z"/>
<path fill="none" d="m775.89826,730.68039,2.2939-6.435"/>
<path fill-rule="nonzero" fill="#eac102" d="m776.46146,739.27739c-4.4047,3.627-9.8594,4.733-9.5057,17.453,7.681-5.145,7.0383-6.01,9.5057-17.453z"/>
<path fill-rule="nonzero" fill="#eac102" d="m758.43006,739.60439c2.6219,3.587,10.018,4.504,7.9135,17.683-7.9493-7.506-8.0579-6.347-7.9135-17.683z"/>
<path fill-rule="nonzero" fill="#eac102" d="m765.44596,681.69539c3.9687,8.88,7.3616,9.469,0.8598,20.79-5.3-6.579-3.8715-10.903-0.8598-20.79z"/>
<path fill-rule="nonzero" fill="#eac102" d="m765.56416,691.07739c4.6331,8.636,8.0323,9.069,2.5169,20.597-5.7638-6.294-4.6993-10.65-2.5169-20.597z"/>
<path fill-rule="nonzero" fill="#eac102" d="m766.34306,701.63339c4.1131,9.004,7.5586,9.687,1.082,20.855-5.4395-6.736-4.0351-11.03-1.082-20.855z"/>
<path fill-rule="nonzero" fill="#eac102" d="m766.64716,712.50839c3.6473,9.213,6.9958,10.051,0.1694,20.961-5.0446-6.997-3.4843-11.24-0.1694-20.961z"/>
<path fill-rule="nonzero" fill="#eac102" d="m766.85756,723.07339c3.8743,9.194,7.4273,10.015,0.1902,20.959-5.3556-6.972-3.7023-11.223-0.1902-20.959z"/>
<path fill-rule="nonzero" fill="#eac102" d="m767.09066,732.67939c3.4836,8.591,6.6823,9.367,0.1603,19.564-4.8184-6.521-3.3277-10.485-0.1603-19.564z"/>
<path fill="none" d="m758.51146,760.25739-3.5198-7.286"/>
<path fill="none" d="m775.64676,759.50639,3.2286-6.769"/>
<path fill="none" d="m759.00976,751.51939-3.5476-6.55"/>
<path fill-rule="nonzero" fill="#eac102" d="m775.56746,749.22939c-4.4481,4.329-11.0239,6.664-8.5096,18.836,6.3229-6.337,7.1525-7.335,8.5096-18.836z"/>
<path fill-rule="nonzero" fill="#eac102" d="m758.16196,750.33739c5.3502,2.85,8.4714,2.269,8.7524,17.534-7.6443-6.68-7.6076-5.427-8.7524-17.534z"/>
<path fill="none" d="m775.35116,749.98739,2.182-6.487"/>
<path fill-rule="nonzero" fill="#eac102" d="m776.06316,758.57039c-4.3409,3.727-9.7754,4.958-9.2014,17.667,7.5904-5.32,6.9328-6.17,9.2014-17.667z"/>
<path fill-rule="nonzero" fill="#eac102" d="m758.04106,759.31039c2.6835,3.527,10.0941,4.274,8.2184,17.498-8.0778-7.322-8.1663-6.161-8.2184-17.498z"/>
<path fill-rule="nonzero" fill="#eac102" d="m766.82056,741.84339c3.4441,8.61,6.6788,9.397-0.036,19.58-4.8184-6.543-3.267-10.505,0.036-19.58z"/>
<path fill-rule="evenodd" fill="#eac102" d="m768.08786,762.71639c-0.1442,18.577-0.451,45.595,1.6287,52.057h-4.4116c1.5803-5.821,0.447-34.253,0.2606-51.939z"/>
<path fill-rule="nonzero" fill="#eac102" d="m766.57996,752.18839c3.6317,8.509,6.8433,9.211,0.4993,19.556-4.9305-6.409-3.5087-10.406-0.4993-19.556z"/>
<path fill="none" d="m758.51146,769.99739-3.5198-7.286"/>
<path fill="none" d="m775.64676,769.24539,3.2286-6.768"/>
<path fill-rule="nonzero" fill="#eac102" d="m776.06316,768.30939c-4.3409,3.728-9.7754,4.958-9.2014,17.667,7.5904-5.319,6.9328-6.169,9.2014-17.667z"/>
<path fill-rule="nonzero" fill="#eac102" d="m758.04106,769.05039c2.6835,3.526,10.0941,4.273,8.2184,17.498-8.0778-7.322-8.1663-6.162-8.2184-17.498z"/>
<path fill-rule="nonzero" fill="#eac102" d="m766.46866,761.35639c3.5926,8.529,6.8403,9.242,0.3034,19.577-4.9307-6.431-3.4483-10.428-0.3034-19.577z"/>
<path fill-rule="nonzero" fill="#eac102" d="m766.46866,771.09539c3.5926,8.53,6.8403,9.242,0.3034,19.578-4.9307-6.431-3.4483-10.428-0.3034-19.578z"/>
</g>
<g transform="matrix(0.89227871,-0.451485,0.451485,0.89227871,-700.09637,132.21761)">
<path fill="none" d="m775.99546,720.47739,2.9962-6.693"/>
<path fill="none" d="m758.88396,740.56239-3.5599-7.369"/>
<path fill="none" d="m776.02886,740.20439,2.9628-6.693"/>
<path fill="none" d="m775.82236,710.12239,2.6108-6.94"/>
<path fill="none" d="m775.40186,702.67239,3.1035-8.611"/>
<path fill="none" d="m765.50766,683.07639-0.059-7.303"/>
<path fill="none" d="m759.96226,694.81739-1.2532-10.615"/>
<path fill="none" d="m759.53356,731.83639-3.9874-5.981"/>
<path fill="none" d="m758.91126,704.58739-3.6871-11.066"/>
<path fill="none" d="m772.81946,691.13039,2.34548-9.15992"/>
<path fill-rule="nonzero" fill="#eac102" d="m773.11286,689.85939c-3.412,5.195-8.6745,8.242-4.4153,20.837,6.3115-7.878,5.3865-8.515,4.4153-20.837z"/>
<path fill-rule="nonzero" fill="#eac102" d="m775.95126,701.18739c-5.3194,4.059-9.8565,4.66-7.7705,16.334,4.9379-6.087,6.7081-5.398,7.7705-16.334z"/>
<path fill-rule="nonzero" fill="#eac102" d="m775.95256,709.57439c-4.1874,4.499-9.8064,6.575-7.8046,19.646,7.4533-6.626,6.6637-7.41,7.8046-19.646z"/>
<path fill-rule="nonzero" fill="#eac102" d="m776.37506,719.75339c-4.7945,4.374-10.8915,6.445-8.4259,19.086,8.2612-7.315,6.4722-14.331,8.4259-19.086z"/>
<path fill-rule="nonzero" fill="#eac102" d="m776.12766,729.92739c-4.5223,4.227-11.1372,6.41-8.8343,18.637,6.4314-6.191,7.2782-7.169,8.8343-18.637z"/>
<path fill-rule="nonzero" fill="#eac102" d="m759.62156,691.92239c1.8563,3.781,8.3135,5.354,4.6936,18.183-6.0752-8.132-6.3254-6.998-4.6936-18.183z"/>
<path fill-rule="nonzero" fill="#eac102" d="m758.27876,702.76739c2.7981,3.056,10.0342,3.236,8.9348,15.513-8.2429-6.175-8.2655-5.102-8.9348-15.513z"/>
<path fill="none" d="m758.50376,712.23439-3.0416-7.68"/>
<path fill-rule="nonzero" fill="#eac102" d="m758.09976,711.49939c2.8832,3.3,10.3608,3.502,9.1909,16.748-8.5014-6.671-8.5278-5.515-9.1909-16.748z"/>
<path fill="none" d="m758.60116,723.01739-3.6095-7.369"/>
<path fill-rule="nonzero" fill="#eac102" d="m757.91646,721.54439c2.9686,2.204,11.3371,0.601,7.8602,16.873-6.1079-3.538-7.0911-14.678-7.8602-16.873z"/>
<path fill-rule="nonzero" fill="#eac102" d="m758.70636,730.63539c5.2998,2.973,8.4305,2.463,8.4469,17.732-7.527-6.855-7.512-5.601-8.4469-17.732z"/>
<path fill="none" d="m775.89826,730.68039,2.2939-6.435"/>
<path fill-rule="nonzero" fill="#eac102" d="m776.46146,739.27739c-4.4047,3.627-9.8594,4.733-9.5057,17.453,7.681-5.145,7.0383-6.01,9.5057-17.453z"/>
<path fill-rule="nonzero" fill="#eac102" d="m758.43006,739.60439c2.6219,3.587,10.018,4.504,7.9135,17.683-7.9493-7.506-8.0579-6.347-7.9135-17.683z"/>
<path fill-rule="nonzero" fill="#eac102" d="m765.44596,681.69539c3.9687,8.88,7.3616,9.469,0.8598,20.79-5.3-6.579-3.8715-10.903-0.8598-20.79z"/>
<path fill-rule="nonzero" fill="#eac102" d="m765.56416,691.07739c4.6331,8.636,8.0323,9.069,2.5169,20.597-5.7638-6.294-4.6993-10.65-2.5169-20.597z"/>
<path fill-rule="nonzero" fill="#eac102" d="m766.34306,701.63339c4.1131,9.004,7.5586,9.687,1.082,20.855-5.4395-6.736-4.0351-11.03-1.082-20.855z"/>
<path fill-rule="nonzero" fill="#eac102" d="m766.64716,712.50839c3.6473,9.213,6.9958,10.051,0.1694,20.961-5.0446-6.997-3.4843-11.24-0.1694-20.961z"/>
<path fill-rule="nonzero" fill="#eac102" d="m766.85756,723.07339c3.8743,9.194,7.4273,10.015,0.1902,20.959-5.3556-6.972-3.7023-11.223-0.1902-20.959z"/>
<path fill-rule="nonzero" fill="#eac102" d="m767.09066,732.67939c3.4836,8.591,6.6823,9.367,0.1603,19.564-4.8184-6.521-3.3277-10.485-0.1603-19.564z"/>
<path fill="none" d="m758.51146,760.25739-3.5198-7.286"/>
<path fill="none" d="m775.64676,759.50639,3.2286-6.769"/>
<path fill="none" d="m759.00976,751.51939-3.5476-6.55"/>
<path fill-rule="nonzero" fill="#eac102" d="m775.56746,749.22939c-4.4481,4.329-11.0239,6.664-8.5096,18.836,6.3229-6.337,7.1525-7.335,8.5096-18.836z"/>
<path fill-rule="nonzero" fill="#eac102" d="m758.16196,750.33739c5.3502,2.85,8.4714,2.269,8.7524,17.534-7.6443-6.68-7.6076-5.427-8.7524-17.534z"/>
<path fill="none" d="m775.35116,749.98739,2.182-6.487"/>
<path fill-rule="nonzero" fill="#eac102" d="m776.06316,758.57039c-4.3409,3.727-9.7754,4.958-9.2014,17.667,7.5904-5.32,6.9328-6.17,9.2014-17.667z"/>
<path fill-rule="nonzero" fill="#eac102" d="m758.04106,759.31039c2.6835,3.527,10.0941,4.274,8.2184,17.498-8.0778-7.322-8.1663-6.161-8.2184-17.498z"/>
<path fill-rule="nonzero" fill="#eac102" d="m766.82056,741.84339c3.4441,8.61,6.6788,9.397-0.036,19.58-4.8184-6.543-3.267-10.505,0.036-19.58z"/>
<path fill-rule="evenodd" fill="#eac102" d="m768.08786,762.71639c-0.1442,18.577-0.451,45.595,1.6287,52.057h-4.4116c1.5803-5.821,0.447-34.253,0.2606-51.939z"/>
<path fill-rule="nonzero" fill="#eac102" d="m766.57996,752.18839c3.6317,8.509,6.8433,9.211,0.4993,19.556-4.9305-6.409-3.5087-10.406-0.4993-19.556z"/>
<path fill="none" d="m758.51146,769.99739-3.5198-7.286"/>
<path fill="none" d="m775.64676,769.24539,3.2286-6.768"/>
<path fill-rule="nonzero" fill="#eac102" d="m776.06316,768.30939c-4.3409,3.728-9.7754,4.958-9.2014,17.667,7.5904-5.319,6.9328-6.169,9.2014-17.667z"/>
<path fill-rule="nonzero" fill="#eac102" d="m758.04106,769.05039c2.6835,3.526,10.0941,4.273,8.2184,17.498-8.0778-7.322-8.1663-6.162-8.2184-17.498z"/>
<path fill-rule="nonzero" fill="#eac102" d="m766.46866,761.35639c3.5926,8.529,6.8403,9.242,0.3034,19.577-4.9307-6.431-3.4483-10.428-0.3034-19.577z"/>
<path fill-rule="nonzero" fill="#eac102" d="m766.46866,771.09539c3.5926,8.53,6.8403,9.242,0.3034,19.578-4.9307-6.431-3.4483-10.428-0.3034-19.578z"/>
</g>
<g transform="matrix(0.89227871,-0.451485,0.451485,0.89227871,-630.11622,270.52078)">
<path fill="none" d="m775.99546,720.47739,2.9962-6.693"/>
<path fill="none" d="m758.88396,740.56239-3.5599-7.369"/>
<path fill="none" d="m776.02886,740.20439,2.9628-6.693"/>
<path fill="none" d="m775.82236,710.12239,2.6108-6.94"/>
<path fill="none" d="m775.40186,702.67239,3.1035-8.611"/>
<path fill="none" d="m765.50766,683.07639-0.059-7.303"/>
<path fill="none" d="m759.96226,694.81739-1.2532-10.615"/>
<path fill="none" d="m759.53356,731.83639-3.9874-5.981"/>
<path fill="none" d="m758.91126,704.58739-3.6871-11.066"/>
<path fill="none" d="m772.81946,691.13039,2.344-9.157"/>
<path fill-rule="nonzero" fill="#eac102" d="m773.11286,689.85939c-3.412,5.195-8.6745,8.242-4.4153,20.837,6.3115-7.878,5.3865-8.515,4.4153-20.837z"/>
<path fill-rule="nonzero" fill="#eac102" d="m775.95126,701.18739c-5.3194,4.059-9.8565,4.66-7.7705,16.334,4.9379-6.087,6.7081-5.398,7.7705-16.334z"/>
<path fill-rule="nonzero" fill="#eac102" d="m775.95256,709.57439c-4.1874,4.499-9.8064,6.575-7.8046,19.646,7.4533-6.626,6.6637-7.41,7.8046-19.646z"/>
<path fill-rule="nonzero" fill="#eac102" d="m776.37506,719.75339c-4.7945,4.374-10.8915,6.445-8.4259,19.086,8.2612-7.315,6.4722-14.331,8.4259-19.086z"/>
<path fill-rule="nonzero" fill="#eac102" d="m776.12766,729.92739c-4.5223,4.227-11.1372,6.41-8.8343,18.637,6.4314-6.191,7.2782-7.169,8.8343-18.637z"/>
<path fill-rule="nonzero" fill="#eac102" d="m759.62156,691.92239c1.8563,3.781,8.3135,5.354,4.6936,18.183-6.0752-8.132-6.3254-6.998-4.6936-18.183z"/>
<path fill-rule="nonzero" fill="#eac102" d="m758.27876,702.76739c2.7981,3.056,10.0342,3.236,8.9348,15.513-8.2429-6.175-8.2655-5.102-8.9348-15.513z"/>
<path fill="none" d="m758.50376,712.23439-3.0416-7.68"/>
<path fill-rule="nonzero" fill="#eac102" d="m758.09976,711.49939c2.8832,3.3,10.3608,3.502,9.1909,16.748-8.5014-6.671-8.5278-5.515-9.1909-16.748z"/>
<path fill="none" d="m758.60116,723.01739-3.6095-7.369"/>
<path fill-rule="nonzero" fill="#eac102" d="m757.91646,721.54439c2.9686,2.204,11.3371,0.601,7.8602,16.873-6.1079-3.538-7.0911-14.678-7.8602-16.873z"/>
<path fill-rule="nonzero" fill="#eac102" d="m758.70636,730.63539c5.2998,2.973,8.4305,2.463,8.4469,17.732-7.527-6.855-7.512-5.601-8.4469-17.732z"/>
<path fill="none" d="m775.89826,730.68039,2.2939-6.435"/>
<path fill-rule="nonzero" fill="#eac102" d="m776.46146,739.27739c-4.4047,3.627-9.8594,4.733-9.5057,17.453,7.681-5.145,7.0383-6.01,9.5057-17.453z"/>
<path fill-rule="nonzero" fill="#eac102" d="m758.43006,739.60439c2.6219,3.587,10.018,4.504,7.9135,17.683-7.9493-7.506-8.0579-6.347-7.9135-17.683z"/>
<path fill-rule="nonzero" fill="#eac102" d="m765.44596,681.69539c3.9687,8.88,7.3616,9.469,0.8598,20.79-5.3-6.579-3.8715-10.903-0.8598-20.79z"/>
<path fill-rule="nonzero" fill="#eac102" d="m765.56416,691.07739c4.6331,8.636,8.0323,9.069,2.5169,20.597-5.7638-6.294-4.6993-10.65-2.5169-20.597z"/>
<path fill-rule="nonzero" fill="#eac102" d="m766.34306,701.63339c4.1131,9.004,7.5586,9.687,1.082,20.855-5.4395-6.736-4.0351-11.03-1.082-20.855z"/>
<path fill-rule="nonzero" fill="#eac102" d="m766.64716,712.50839c3.6473,9.213,6.9958,10.051,0.1694,20.961-5.0446-6.997-3.4843-11.24-0.1694-20.961z"/>
<path fill-rule="nonzero" fill="#eac102" d="m766.85756,723.07339c3.8743,9.194,7.4273,10.015,0.1902,20.959-5.3556-6.972-3.7023-11.223-0.1902-20.959z"/>
<path fill-rule="nonzero" fill="#eac102" d="m767.09066,732.67939c3.4836,8.591,6.6823,9.367,0.1603,19.564-4.8184-6.521-3.3277-10.485-0.1603-19.564z"/>
<path fill="none" d="m758.51146,760.25739-3.5198-7.286"/>
<path fill="none" d="m775.64676,759.50639,3.2286-6.769"/>
<path fill="none" d="m759.00976,751.51939-3.5476-6.55"/>
<path fill-rule="nonzero" fill="#eac102" d="m775.56746,749.22939c-4.4481,4.329-11.0239,6.664-8.5096,18.836,6.3229-6.337,7.1525-7.335,8.5096-18.836z"/>
<path fill-rule="nonzero" fill="#eac102" d="m758.16196,750.33739c5.3502,2.85,8.4714,2.269,8.7524,17.534-7.6443-6.68-7.6076-5.427-8.7524-17.534z"/>
<path fill="none" d="m775.35116,749.98739,2.182-6.487"/>
<path fill-rule="nonzero" fill="#eac102" d="m776.06316,758.57039c-4.3409,3.727-9.7754,4.958-9.2014,17.667,7.5904-5.32,6.9328-6.17,9.2014-17.667z"/>
<path fill-rule="nonzero" fill="#eac102" d="m758.04106,759.31039c2.6835,3.527,10.0941,4.274,8.2184,17.498-8.0778-7.322-8.1663-6.161-8.2184-17.498z"/>
<path fill-rule="nonzero" fill="#eac102" d="m766.82056,741.84339c3.4441,8.61,6.6788,9.397-0.036,19.58-4.8184-6.543-3.267-10.505,0.036-19.58z"/>
<path fill-rule="evenodd" fill="#eac102" d="m768.08786,762.71639c-0.1442,18.577-0.451,45.595,1.6287,52.057h-4.4116c1.5803-5.821,0.447-34.253,0.2606-51.939z"/>
<path fill-rule="nonzero" fill="#eac102" d="m766.57996,752.18839c3.6317,8.509,6.8433,9.211,0.4993,19.556-4.9305-6.409-3.5087-10.406-0.4993-19.556z"/>
<path fill="none" d="m758.51146,769.99739-3.5198-7.286"/>
<path fill="none" d="m775.64676,769.24539,3.2286-6.768"/>
<path fill-rule="nonzero" fill="#eac102" d="m776.06316,768.30939c-4.3409,3.728-9.7754,4.958-9.2014,17.667,7.5904-5.319,6.9328-6.169,9.2014-17.667z"/>
<path fill-rule="nonzero" fill="#eac102" d="m758.04106,769.05039c2.6835,3.526,10.0941,4.273,8.2184,17.498-8.0778-7.322-8.1663-6.162-8.2184-17.498z"/>
<path fill-rule="nonzero" fill="#eac102" d="m766.46866,761.35639c3.5926,8.529,6.8403,9.242,0.3034,19.577-4.9307-6.431-3.4483-10.428-0.3034-19.577z"/>
<path fill-rule="nonzero" fill="#eac102" d="m766.46866,771.09539c3.5926,8.53,6.8403,9.242,0.3034,19.578-4.9307-6.431-3.4483-10.428-0.3034-19.578z"/>
</g>
</g>
<path stroke-linejoin="round" d="m26.5,361.5v348.5c0,137.172,111.328,248.5,248.5,248.5s248.5-111.328,248.5-248.5v-348.5z" stroke="#000" stroke-linecap="round" stroke-width="3" fill="none"/>
</svg>
